<svg id="Layer_17" data-name="Layer 17" xmlns="http://www.w3.org/2000/svg" viewBox="0 0 265.27 129.2"><defs><style>.cls-1,.cls-6{fill:#007681;}.cls-1{opacity:0.6;}.cls-2{fill:#e6eff3;stroke:#279989;stroke-miterlimit:10;}.cls-3{opacity:0.2;}.cls-4{fill:#279989;}.cls-5{fill:#f2f2f2;}</style></defs><path class="cls-1" d="M541.09,231.08l-204.76-5.33a6.4,6.4,0,0,1-6-6.76l2.21-89.9a6.24,6.24,0,0,1,6.16-6.21l199.13,2a6.79,6.79,0,0,1,6.6,6.56l3,93A6.26,6.26,0,0,1,541.09,231.08Z" transform="translate(-288.35 -101.88)"/><rect class="cls-2" x="0.5" y="14.27" width="255.31" height="109.38" rx="7.44"/><g class="cls-3"><polygon points="235.7 35.89 226.13 19.32 235.7 2.75 254.83 2.75 264.4 19.32 254.83 35.89 235.7 35.89"/><path d="M542.75,105.38l9.13,15.82L542.75,137H524.48l-9.13-15.83,9.13-15.82h18.27m.87-1.5h-20l-10,17.32,10,17.33h20l10-17.33-10-17.32Z" transform="translate(-288.35 -101.88)"/></g><polygon class="cls-4" points="233.7 33.89 224.13 17.32 233.7 0.75 252.83 0.75 262.4 17.32 252.83 33.89 233.7 33.89"/><path class="cls-5" d="M540.75,103.38l9.13,15.82L540.75,135H522.48l-9.13-15.83,9.13-15.82h18.27m.87-1.5h-20l-10,17.32,10,17.33h20l10-17.33-10-17.32Z" transform="translate(-288.35 -101.88)"/><path class="cls-5" d="M535.24,111.37v17.44h-3.53V117.5h-4.39v-2.67h.2c2.84,0,4.58-1.17,4.91-3.46Z" transform="translate(-288.35 -101.88)"/><path class="cls-6" d="M296.22,127.13v7.15c0,1.68.74,2.44,2.36,2.44S301,136,301,134.28v-7.15h2.51v7.15c0,2.85-1.65,4.55-4.88,4.55s-4.87-1.7-4.87-4.55v-7.15Z" transform="translate(-288.35 -101.88)"/><path class="cls-6" d="M313.14,133.4v5.16h-2.28v-4.69c0-1.36-.4-2-1.45-2-1.41,0-1.76.93-1.76,2.4v4.31h-2.28v-8.28h2.17v1.16h0a2.91,2.91,0,0,1,2.55-1.38C312.23,130.06,313.14,131.08,313.14,133.4Z" transform="translate(-288.35 -101.88)"/><path class="cls-6" d="M322.93,127.13v11.43h-2.16V137.5h0a2.73,2.73,0,0,1-2.52,1.28c-2.46,0-3.71-2.08-3.71-4.43s1.28-4.29,3.67-4.29a2.82,2.82,0,0,1,2.44,1.23h0v-4.16Zm-4.15,9.94c1.3,0,2-1,2-2.67s-.58-2.63-2-2.63-2,1-2,2.64C316.78,135.73,317.39,137.07,318.78,137.07Z" transform="translate(-288.35 -101.88)"/><path class="cls-6" d="M332.31,133.08a6,6,0,0,1,.19,1.46l0,.43h-6c.07,1.43.77,2.1,2,2.1a1.9,1.9,0,0,0,1.81-1.07h2a3.72,3.72,0,0,1-3.88,2.78,4,4,0,0,1-4.22-4.35,4.15,4.15,0,0,1,4.22-4.37A3.82,3.82,0,0,1,332.31,133.08Zm-2.1.45c-.23-1.25-.77-1.76-1.83-1.76a1.78,1.78,0,0,0-1.87,1.76Z" transform="translate(-288.35 -101.88)"/><path class="cls-6" d="M339.15,130.14v2.11a3.69,3.69,0,0,0-.81-.08c-1.65,0-2.24,1.17-2.24,2.66v3.73h-2.28v-8.28H336v1.54h0a2.9,2.9,0,0,1,2.64-1.76A1.7,1.7,0,0,1,339.15,130.14Z" transform="translate(-288.35 -101.88)"/><path class="cls-6" d="M347.09,132.7h-2.16c-.07-.8-.61-1.12-1.55-1.12s-1.27.27-1.27.77.5.8,1.78,1.05a5.8,5.8,0,0,1,2.78,1,1.89,1.89,0,0,1,.64,1.49c0,2.13-1.84,2.88-3.77,2.88-2.26,0-3.83-1-3.89-2.91h2.16c0,.93.8,1.39,1.74,1.39.77,0,1.49-.33,1.49-1s-.7-.9-2.5-1.27-2.7-1.06-2.7-2.22c0-1.76,1.28-2.66,3.6-2.66S346.94,131,347.09,132.7Z" transform="translate(-288.35 -101.88)"/><path class="cls-6" d="M351.52,127.8v2.48h1.66v1.52h-1.66v4.1c0,.77.19,1,1,1a3,3,0,0,0,.7-.06v1.77a8.11,8.11,0,0,1-1.34.08c-1.71,0-2.59-.52-2.59-2V131.8h-1.38v-1.52h1.38V127.8Z" transform="translate(-288.35 -101.88)"/><path class="cls-6" d="M361.7,132.41v4.39a4.29,4.29,0,0,0,.28,1.76h-2.3a3.66,3.66,0,0,1-.16-.8,3.76,3.76,0,0,1-2.79,1c-1.69,0-2.81-.88-2.81-2.48a2.23,2.23,0,0,1,1.9-2.34c.85-.22,1.92-.27,2.63-.41s1-.37,1-.87c0-.94-.68-1.1-1.45-1.1-1,0-1.44.38-1.52,1.25h-2.28c.1-1.81,1.59-2.77,3.91-2.77S361.7,130.88,361.7,132.41Zm-4.12,4.85a1.65,1.65,0,0,0,1.84-1.87v-.88a2.6,2.6,0,0,1-1.37.4c-1.17.14-1.86.43-1.86,1.3C356.19,136.86,356.59,137.26,357.58,137.26Z" transform="translate(-288.35 -101.88)"/><path class="cls-6" d="M371.22,133.4v5.16h-2.28v-4.69c0-1.36-.4-2-1.45-2-1.41,0-1.76.93-1.76,2.4v4.31h-2.28v-8.28h2.16v1.16h.05a2.9,2.9,0,0,1,2.55-1.38C370.3,130.06,371.22,131.08,371.22,133.4Z" transform="translate(-288.35 -101.88)"/><path class="cls-6" d="M381,127.13v11.43h-2.16V137.5h0a2.73,2.73,0,0,1-2.52,1.28c-2.46,0-3.71-2.08-3.71-4.43s1.28-4.29,3.66-4.29a2.83,2.83,0,0,1,2.45,1.23h0v-4.16Zm-4.15,9.94c1.3,0,2-1,2-2.67s-.58-2.63-2-2.63-2,1-2,2.64C374.86,135.73,375.47,137.07,376.86,137.07Z" transform="translate(-288.35 -101.88)"/><path class="cls-6" d="M385.05,127.13V129h-2.27v-1.87Zm0,3.15v8.28h-2.27v-8.28Z" transform="translate(-288.35 -101.88)"/><path class="cls-6" d="M394.61,133.4v5.16h-2.28v-4.69c0-1.36-.39-2-1.45-2-1.41,0-1.76.93-1.76,2.4v4.31h-2.28v-8.28H389v1.16h0a2.91,2.91,0,0,1,2.55-1.38C393.7,130.06,394.61,131.08,394.61,133.4Z" transform="translate(-288.35 -101.88)"/><path class="cls-6" d="M402.09,131.39h0v-1.11h2.16v7.77c0,2.14-1.25,3.65-4.28,3.65-1.92,0-3.57-.95-3.66-2.66h2.26a1.51,1.51,0,0,0,1.69,1.13c1.17,0,1.83-.73,1.83-2V137h0a2.76,2.76,0,0,1-2.48,1.28c-2.38,0-3.53-1.75-3.53-4.16,0-2.12,1.2-4.1,3.55-4.1A2.59,2.59,0,0,1,402.09,131.39Zm-1.9,5.22c1.23,0,1.94-1,1.94-2.31s-.36-2.53-2-2.53c-1.16,0-1.82,1-1.82,2.35S398.88,136.61,400.19,136.61Z" transform="translate(-288.35 -101.88)"/><path class="cls-6" d="M412,130.28,413.9,136h0l1.81-5.67h2.36l-3.46,9.32a2.6,2.6,0,0,1-2.82,1.87,12.65,12.65,0,0,1-1.42-.08v-1.87c.48,0,.88.08,1.2.08a1,1,0,0,0,1-1,1.38,1.38,0,0,0-.1-.51l-2.91-7.77Z" transform="translate(-288.35 -101.88)"/><path class="cls-6" d="M427.17,134.43a4.29,4.29,0,1,1-4.29-4.37A4.07,4.07,0,0,1,427.17,134.43Zm-4.29,2.64c1.34,0,2-1,2-2.64,0-1.35-.47-2.66-2-2.66-1.26,0-2,1-2,2.66S421.58,137.07,422.88,137.07Z" transform="translate(-288.35 -101.88)"/><path class="cls-6" d="M430.91,130.28V135c0,1.27.34,2,1.46,2s1.76-.72,1.76-2.35v-4.36h2.27v8.28h-2.16v-1.15h-.05a2.94,2.94,0,0,1-2.54,1.37c-2.17,0-3-1.09-3-3.36v-5.14Z" transform="translate(-288.35 -101.88)"/><path class="cls-6" d="M443.45,130.14v2.11a3.69,3.69,0,0,0-.81-.08c-1.65,0-2.24,1.17-2.24,2.66v3.73h-2.28v-8.28h2.17v1.54h0a2.9,2.9,0,0,1,2.64-1.76A1.7,1.7,0,0,1,443.45,130.14Z" transform="translate(-288.35 -101.88)"/><path class="cls-6" d="M450.4,130.28l1.74,5.65h0l1.75-5.65h2.25l-2.8,8.28h-2.53L448,130.28Z" transform="translate(-288.35 -101.88)"/><path class="cls-6" d="M459.45,127.13V129h-2.27v-1.87Zm0,3.15v8.28h-2.27v-8.28Z" transform="translate(-288.35 -101.88)"/><path class="cls-6" d="M468.29,132.7h-2.16c-.07-.8-.61-1.12-1.56-1.12s-1.26.27-1.26.77.49.8,1.78,1.05a5.85,5.85,0,0,1,2.78,1,1.89,1.89,0,0,1,.64,1.49c0,2.13-1.84,2.88-3.78,2.88-2.25,0-3.82-1-3.89-2.91H463c0,.93.8,1.39,1.75,1.39.77,0,1.49-.33,1.49-1s-.71-.9-2.5-1.27-2.7-1.06-2.7-2.22c0-1.76,1.28-2.66,3.6-2.66S468.14,131,468.29,132.7Z" transform="translate(-288.35 -101.88)"/><path class="cls-6" d="M472.17,127.13V129H469.9v-1.87Zm0,3.15v8.28H469.9v-8.28Z" transform="translate(-288.35 -101.88)"/><path class="cls-6" d="M482.27,134.43a4.28,4.28,0,1,1-4.29-4.37A4.06,4.06,0,0,1,482.27,134.43ZM478,137.07c1.35,0,2-1,2-2.64,0-1.35-.47-2.66-2-2.66-1.26,0-2,1-2,2.66S476.68,137.07,478,137.07Z" transform="translate(-288.35 -101.88)"/><path class="cls-6" d="M491.5,133.4v5.16h-2.27v-4.69c0-1.36-.4-2-1.46-2-1.41,0-1.76.93-1.76,2.4v4.31h-2.27v-8.28h2.16v1.16H486a2.88,2.88,0,0,1,2.54-1.38C490.59,130.06,491.5,131.08,491.5,133.4Z" transform="translate(-288.35 -101.88)"/><path class="cls-6" d="M295.63,154.56l-2.74-10.79h1.48l1.28,5.46c.32,1.34.61,2.69.8,3.73h0c.18-1.07.51-2.36.88-3.75l1.44-5.44h1.46l1.31,5.47c.3,1.28.59,2.57.75,3.7h0c.23-1.18.53-2.38.87-3.73l1.42-5.44h1.43L303,154.56h-1.46l-1.36-5.62a33,33,0,0,1-.7-3.52h0a33.42,33.42,0,0,1-.84,3.52l-1.53,5.62Z" transform="translate(-288.35 -101.88)"/><path class="cls-6" d="M307.62,150.94a2.47,2.47,0,0,0,2.65,2.69,5.19,5.19,0,0,0,2.15-.4l.24,1a6.39,6.39,0,0,1-2.58.48,3.6,3.6,0,0,1-3.81-3.91c0-2.33,1.38-4.18,3.63-4.18,2.53,0,3.21,2.23,3.21,3.65,0,.29,0,.52-.05.66Zm4.13-1a2,2,0,0,0-2-2.29,2.34,2.34,0,0,0-2.16,2.29Z" transform="translate(-288.35 -101.88)"/><path class="cls-6" d="M318.8,146.81l1,3.94c.23.86.43,1.66.58,2.46h.05c.17-.78.43-1.61.69-2.45l1.26-3.95h1.18l1.21,3.87c.28.93.51,1.75.68,2.53h0a25.42,25.42,0,0,1,.59-2.51l1.11-3.89h1.39l-2.5,7.75h-1.28l-1.18-3.7a25.59,25.59,0,0,1-.69-2.54h0a21.78,21.78,0,0,1-.71,2.56L321,154.56h-1.29l-2.33-7.75Z" transform="translate(-288.35 -101.88)"/><path class="cls-6" d="M331.58,144.63a.83.83,0,0,1-.89.87.84.84,0,0,1-.85-.87.86.86,0,0,1,.88-.88A.83.83,0,0,1,331.58,144.63ZM330,154.56v-7.75h1.41v7.75Z" transform="translate(-288.35 -101.88)"/><path class="cls-6" d="M333.76,143.19h1.41v11.37h-1.41Z" transform="translate(-288.35 -101.88)"/><path class="cls-6" d="M337.53,143.19h1.41v11.37h-1.41Z" transform="translate(-288.35 -101.88)"/><path class="cls-6" d="M345.26,146.81l1,3.94c.22.86.43,1.66.57,2.46h.05c.18-.78.43-1.61.69-2.45l1.26-3.95h1.19l1.2,3.87c.29.93.51,1.75.69,2.53h0a23,23,0,0,1,.6-2.51l1.1-3.89h1.39l-2.49,7.75H351.3l-1.19-3.7c-.27-.86-.49-1.63-.69-2.54h0a23.91,23.91,0,0,1-.7,2.56l-1.25,3.68h-1.28l-2.34-7.75Z" transform="translate(-288.35 -101.88)"/><path class="cls-6" d="M363.33,150.62a3.78,3.78,0,0,1-3.86,4.11,3.67,3.67,0,0,1-3.71-4,3.79,3.79,0,0,1,3.84-4.12A3.67,3.67,0,0,1,363.33,150.62Zm-6.15.08c0,1.7,1,3,2.35,3s2.36-1.27,2.36-3c0-1.31-.66-3-2.32-3S357.18,149.23,357.18,150.7Z" transform="translate(-288.35 -101.88)"/><path class="cls-6" d="M365.1,149.23c0-.91,0-1.7-.06-2.42h1.23l.05,1.52h.06a2.33,2.33,0,0,1,2.15-1.7,1.62,1.62,0,0,1,.4.05V148a2.28,2.28,0,0,0-.48,0,2,2,0,0,0-1.89,1.81,4.18,4.18,0,0,0-.07.66v4.13H365.1Z" transform="translate(-288.35 -101.88)"/><path class="cls-6" d="M371.79,150.36h0c.19-.27.47-.6.69-.88l2.27-2.67h1.7l-3,3.19,3.41,4.56h-1.72l-2.67-3.72-.72.81v2.91H370.4V143.19h1.39Z" transform="translate(-288.35 -101.88)"/><path class="cls-6" d="M381.85,146.81l1,3.94c.22.86.43,1.66.57,2.46h.05c.18-.78.43-1.61.69-2.45l1.26-3.95h1.19l1.2,3.87c.29.93.51,1.75.69,2.53h.05a20.78,20.78,0,0,1,.59-2.51l1.1-3.89h1.39l-2.49,7.75h-1.28l-1.19-3.7c-.27-.86-.49-1.63-.69-2.54h0a23.91,23.91,0,0,1-.7,2.56L384,154.56h-1.28l-2.34-7.75Z" transform="translate(-288.35 -101.88)"/><path class="cls-6" d="M394.64,144.63a.88.88,0,0,1-1.75,0,.86.86,0,0,1,.88-.88A.84.84,0,0,1,394.64,144.63Zm-1.57,9.93v-7.75h1.41v7.75Z" transform="translate(-288.35 -101.88)"/><path class="cls-6" d="M398.51,144.59v2.22h2v1.07h-2v4.18c0,1,.27,1.51,1.05,1.51a3,3,0,0,0,.82-.1l.07,1.06a3.56,3.56,0,0,1-1.25.19,2,2,0,0,1-1.52-.59,2.89,2.89,0,0,1-.55-2v-4.23h-1.2v-1.07h1.2V145Z" transform="translate(-288.35 -101.88)"/><path class="cls-6" d="M402.11,143.19h1.41V148h0a2.53,2.53,0,0,1,1-1,2.78,2.78,0,0,1,1.44-.41c1,0,2.7.65,2.7,3.32v4.61h-1.41v-4.45c0-1.25-.46-2.31-1.79-2.31a2,2,0,0,0-1.89,1.41,1.7,1.7,0,0,0-.09.67v4.68h-1.41Z" transform="translate(-288.35 -101.88)"/><path class="cls-6" d="M414.89,146.81l1.7,4.58c.17.51.37,1.12.49,1.58h0c.14-.46.3-1.05.49-1.61l1.54-4.55h1.49l-2.12,5.52c-1,2.66-1.69,4-2.65,4.85a3.92,3.92,0,0,1-1.73.92l-.35-1.19a3.79,3.79,0,0,0,1.23-.69,4.28,4.28,0,0,0,1.18-1.57.89.89,0,0,0,.12-.33,1.47,1.47,0,0,0-.1-.37l-2.87-7.14Z" transform="translate(-288.35 -101.88)"/><path class="cls-6" d="M428.77,150.62a3.78,3.78,0,0,1-3.86,4.11,3.67,3.67,0,0,1-3.71-4,3.79,3.79,0,0,1,3.84-4.12A3.67,3.67,0,0,1,428.77,150.62Zm-6.15.08c0,1.7,1,3,2.35,3s2.36-1.27,2.36-3c0-1.31-.66-3-2.32-3S422.62,149.23,422.62,150.7Z" transform="translate(-288.35 -101.88)"/><path class="cls-6" d="M437,152.45c0,.8,0,1.5.07,2.11h-1.25l-.08-1.27h0a2.91,2.91,0,0,1-2.56,1.44c-1.22,0-2.68-.67-2.68-3.39v-4.53h1.41v4.29c0,1.47.45,2.47,1.73,2.47a2.06,2.06,0,0,0,1.86-1.28,2.11,2.11,0,0,0,.12-.73v-4.75H437Z" transform="translate(-288.35 -101.88)"/><path class="cls-6" d="M444.44,144.59v2.22h2v1.07h-2v4.18c0,1,.28,1.51,1.06,1.51a3.06,3.06,0,0,0,.82-.1l.06,1.06a3.48,3.48,0,0,1-1.25.19,2,2,0,0,1-1.52-.59,2.89,2.89,0,0,1-.54-2v-4.23h-1.2v-1.07h1.2V145Z" transform="translate(-288.35 -101.88)"/><path class="cls-6" d="M455,150.62a3.78,3.78,0,0,1-3.86,4.11,3.67,3.67,0,0,1-3.71-4,3.79,3.79,0,0,1,3.84-4.12A3.67,3.67,0,0,1,455,150.62Zm-6.15.08c0,1.7,1,3,2.36,3s2.35-1.27,2.35-3c0-1.31-.66-3-2.32-3S448.81,149.23,448.81,150.7Z" transform="translate(-288.35 -101.88)"/><path class="cls-6" d="M300.31,168.45c0,.8,0,1.5.06,2.11h-1.25l-.08-1.27h0a2.91,2.91,0,0,1-2.56,1.44c-1.22,0-2.68-.67-2.68-3.39v-4.53h1.41v4.29c0,1.47.45,2.47,1.73,2.47a2,2,0,0,0,1.86-1.28,2.11,2.11,0,0,0,.13-.73v-4.75h1.41Z" transform="translate(-288.35 -101.88)"/><path class="cls-6" d="M302.64,164.91c0-.8,0-1.46-.07-2.1h1.25l.08,1.28h0a2.84,2.84,0,0,1,2.56-1.46c1.07,0,2.73.65,2.73,3.3v4.63h-1.41v-4.47c0-1.25-.46-2.29-1.79-2.29a2,2,0,0,0-1.89,1.44,2.19,2.19,0,0,0-.09.66v4.66h-1.41Z" transform="translate(-288.35 -101.88)"/><path class="cls-6" d="M318.21,159.19v9.37c0,.69,0,1.47.06,2H317l-.07-1.35h0a2.85,2.85,0,0,1-2.64,1.52c-1.87,0-3.31-1.58-3.31-3.93,0-2.58,1.58-4.17,3.47-4.17a2.6,2.6,0,0,1,2.34,1.19h0v-4.63ZM316.8,166a3,3,0,0,0-.06-.59,2.08,2.08,0,0,0-2-1.63c-1.45,0-2.32,1.28-2.32,3s.77,2.87,2.29,2.87a2.13,2.13,0,0,0,2.07-1.68,2.93,2.93,0,0,0,.06-.61Z" transform="translate(-288.35 -101.88)"/><path class="cls-6" d="M321.33,166.94a2.48,2.48,0,0,0,2.65,2.69,5.19,5.19,0,0,0,2.15-.4l.24,1a6.39,6.39,0,0,1-2.58.48,3.6,3.6,0,0,1-3.81-3.91c0-2.33,1.38-4.18,3.64-4.18,2.52,0,3.2,2.23,3.2,3.65a4.54,4.54,0,0,1-.05.66Zm4.13-1a2,2,0,0,0-2-2.29,2.35,2.35,0,0,0-2.16,2.29Z" transform="translate(-288.35 -101.88)"/><path class="cls-6" d="M328.56,165.23c0-.91,0-1.7-.07-2.42h1.24l0,1.52h.07a2.32,2.32,0,0,1,2.14-1.7,1.56,1.56,0,0,1,.4.05V164a2.14,2.14,0,0,0-.48,0,2,2,0,0,0-1.89,1.81,4.25,4.25,0,0,0-.06.66v4.13h-1.39Z" transform="translate(-288.35 -101.88)"/><path class="cls-6" d="M333.6,169.12a3.68,3.68,0,0,0,1.85.56c1,0,1.51-.51,1.51-1.15s-.4-1.05-1.44-1.43c-1.39-.5-2-1.26-2-2.19a2.39,2.39,0,0,1,2.67-2.28,3.82,3.82,0,0,1,1.91.49l-.35,1a3.07,3.07,0,0,0-1.59-.45c-.83,0-1.3.48-1.3,1.06s.47.93,1.48,1.31c1.34.51,2,1.18,2,2.34,0,1.36-1.06,2.32-2.9,2.32a4.37,4.37,0,0,1-2.17-.53Z" transform="translate(-288.35 -101.88)"/><path class="cls-6" d="M341.82,160.59v2.22h2v1.07h-2v4.18c0,1,.27,1.51,1.06,1.51a3.06,3.06,0,0,0,.82-.1l.06,1.06a3.48,3.48,0,0,1-1.25.19,2,2,0,0,1-1.52-.59,2.89,2.89,0,0,1-.54-2v-4.23h-1.2v-1.07h1.2V161Z" transform="translate(-288.35 -101.88)"/><path class="cls-6" d="M349.71,170.56l-.11-1h-.05a2.87,2.87,0,0,1-2.37,1.15,2.2,2.2,0,0,1-2.37-2.22c0-1.87,1.67-2.9,4.66-2.88v-.16a1.59,1.59,0,0,0-1.76-1.79,3.9,3.9,0,0,0-2,.57l-.32-.93a4.87,4.87,0,0,1,2.55-.69c2.37,0,2.94,1.62,2.94,3.17v2.9a11.63,11.63,0,0,0,.13,1.86Zm-.21-4c-1.53,0-3.28.24-3.28,1.75a1.25,1.25,0,0,0,1.33,1.34,1.92,1.92,0,0,0,1.87-1.29,1.47,1.47,0,0,0,.08-.45Z" transform="translate(-288.35 -101.88)"/><path class="cls-6" d="M353.13,164.91c0-.8,0-1.46-.06-2.1h1.25l.08,1.28h0a2.84,2.84,0,0,1,2.56-1.46c1.07,0,2.74.65,2.74,3.3v4.63h-1.41v-4.47c0-1.25-.46-2.29-1.79-2.29a2,2,0,0,0-1.89,1.44,1.91,1.91,0,0,0-.1.66v4.66h-1.41Z" transform="translate(-288.35 -101.88)"/><path class="cls-6" d="M368.7,159.19v9.37c0,.69,0,1.47.07,2H367.5l-.06-1.35h0a2.86,2.86,0,0,1-2.64,1.52c-1.88,0-3.32-1.58-3.32-3.93,0-2.58,1.59-4.17,3.48-4.17a2.59,2.59,0,0,1,2.33,1.19h0v-4.63ZM367.3,166a2.44,2.44,0,0,0-.07-.59,2.07,2.07,0,0,0-2-1.63c-1.46,0-2.32,1.28-2.32,3s.77,2.87,2.29,2.87a2.12,2.12,0,0,0,2.06-1.68,2.37,2.37,0,0,0,.07-.61Z" transform="translate(-288.35 -101.88)"/><path class="cls-6" d="M374.94,162.81l1.7,4.58c.17.51.37,1.12.49,1.58h0c.14-.46.3-1.05.49-1.61l1.54-4.55h1.49l-2.12,5.52c-1,2.66-1.69,4-2.65,4.85a3.92,3.92,0,0,1-1.73.92l-.35-1.19a3.79,3.79,0,0,0,1.23-.69,4.28,4.28,0,0,0,1.18-1.57.89.89,0,0,0,.12-.33,1.47,1.47,0,0,0-.1-.37l-2.87-7.14Z" transform="translate(-288.35 -101.88)"/><path class="cls-6" d="M388.82,166.62a3.78,3.78,0,0,1-3.86,4.11,3.67,3.67,0,0,1-3.71-4,3.79,3.79,0,0,1,3.84-4.12A3.67,3.67,0,0,1,388.82,166.62Zm-6.15.08c0,1.7,1,3,2.35,3s2.36-1.27,2.36-3c0-1.31-.66-3-2.33-3S382.67,165.23,382.67,166.7Z" transform="translate(-288.35 -101.88)"/><path class="cls-6" d="M397.07,168.45c0,.8,0,1.5.07,2.11h-1.25l-.08-1.27h0a2.92,2.92,0,0,1-2.57,1.44c-1.21,0-2.67-.67-2.67-3.39v-4.53H392v4.29c0,1.47.45,2.47,1.73,2.47a2.06,2.06,0,0,0,1.86-1.28,2.11,2.11,0,0,0,.12-.73v-4.75h1.41Z" transform="translate(-288.35 -101.88)"/><path class="cls-6" d="M399.41,165.23c0-.91,0-1.7-.07-2.42h1.23l.05,1.52h.07a2.32,2.32,0,0,1,2.14-1.7,1.62,1.62,0,0,1,.4.05V164a2.21,2.21,0,0,0-.48,0,2,2,0,0,0-1.89,1.81,4.25,4.25,0,0,0-.06.66v4.13h-1.39Z" transform="translate(-288.35 -101.88)"/><path class="cls-6" d="M408.81,166.94a2.49,2.49,0,0,0,2.66,2.69,5.19,5.19,0,0,0,2.15-.4l.23,1a6.29,6.29,0,0,1-2.57.48,3.6,3.6,0,0,1-3.81-3.91c0-2.33,1.38-4.18,3.63-4.18,2.53,0,3.2,2.23,3.2,3.65,0,.29,0,.52,0,.66Zm4.13-1a2,2,0,0,0-1.95-2.29,2.34,2.34,0,0,0-2.16,2.29Z" transform="translate(-288.35 -101.88)"/><path class="cls-6" d="M416.65,162.81l1.11,1.67c.29.43.53.83.78,1.26h0c.26-.46.51-.86.77-1.28l1.09-1.65H422l-2.64,3.75,2.72,4h-1.6l-1.14-1.75c-.3-.44-.56-.88-.83-1.34h0c-.26.46-.53.88-.82,1.34l-1.12,1.75H415l2.75-4-2.63-3.79Z" transform="translate(-288.35 -101.88)"/><path class="cls-6" d="M423.4,165.34c0-1,0-1.79-.06-2.53h1.27l.06,1.33h0a3.06,3.06,0,0,1,2.75-1.51c1.88,0,3.29,1.59,3.29,3.94,0,2.79-1.7,4.16-3.53,4.16a2.7,2.7,0,0,1-2.38-1.21h0v4.21h-1.4Zm1.4,2.06a3.34,3.34,0,0,0,.06.58,2.18,2.18,0,0,0,2.11,1.65c1.49,0,2.36-1.22,2.36-3,0-1.56-.82-2.88-2.31-2.88a2.25,2.25,0,0,0-2.13,1.74,2.7,2.7,0,0,0-.09.58Z" transform="translate(-288.35 -101.88)"/><path class="cls-6" d="M433.29,166.94a2.48,2.48,0,0,0,2.66,2.69,5.1,5.1,0,0,0,2.14-.4l.24,1a6.29,6.29,0,0,1-2.57.48,3.6,3.6,0,0,1-3.81-3.91c0-2.33,1.37-4.18,3.63-4.18,2.53,0,3.2,2.23,3.2,3.65a4.54,4.54,0,0,1,0,.66Zm4.13-1a2,2,0,0,0-1.95-2.29,2.33,2.33,0,0,0-2.16,2.29Z" transform="translate(-288.35 -101.88)"/><path class="cls-6" d="M446.05,170.27a5.25,5.25,0,0,1-2.23.45,3.69,3.69,0,0,1-3.86-4,3.94,3.94,0,0,1,4.17-4.11,4.76,4.76,0,0,1,1.95.4l-.32,1.09a3.31,3.31,0,0,0-1.63-.37,2.92,2.92,0,0,0-.05,5.83,3.94,3.94,0,0,0,1.73-.39Z" transform="translate(-288.35 -101.88)"/><path class="cls-6" d="M449.6,160.59v2.22h2v1.07h-2v4.18c0,1,.27,1.51,1,1.51a3.06,3.06,0,0,0,.82-.1l.06,1.06a3.48,3.48,0,0,1-1.25.19,2,2,0,0,1-1.52-.59,2.89,2.89,0,0,1-.54-2v-4.23H447v-1.07h1.2V161Z" transform="translate(-288.35 -101.88)"/><path class="cls-6" d="M457.49,170.56l-.12-1h0a2.9,2.9,0,0,1-2.37,1.15,2.2,2.2,0,0,1-2.37-2.22c0-1.87,1.66-2.9,4.66-2.88v-.16a1.6,1.6,0,0,0-1.77-1.79,3.84,3.84,0,0,0-2,.57l-.32-.93a4.86,4.86,0,0,1,2.54-.69c2.37,0,2.95,1.62,2.95,3.17v2.9a10.57,10.57,0,0,0,.13,1.86Zm-.21-4c-1.54,0-3.28.24-3.28,1.75a1.24,1.24,0,0,0,1.32,1.34,1.94,1.94,0,0,0,1.88-1.29,1.47,1.47,0,0,0,.08-.45Z" transform="translate(-288.35 -101.88)"/><path class="cls-6" d="M462.54,160.59v2.22h2v1.07h-2v4.18c0,1,.27,1.51,1.06,1.51a3,3,0,0,0,.81-.1l.07,1.06a3.52,3.52,0,0,1-1.25.19,2,2,0,0,1-1.52-.59,2.89,2.89,0,0,1-.55-2v-4.23H460v-1.07h1.2V161Z" transform="translate(-288.35 -101.88)"/><path class="cls-6" d="M467.71,160.63a.88.88,0,0,1-1.75,0,.86.86,0,0,1,.88-.88A.84.84,0,0,1,467.71,160.63Zm-1.57,9.93v-7.75h1.41v7.75Z" transform="translate(-288.35 -101.88)"/><path class="cls-6" d="M476.89,166.62a3.78,3.78,0,0,1-3.85,4.11,3.68,3.68,0,0,1-3.72-4,3.79,3.79,0,0,1,3.85-4.12A3.67,3.67,0,0,1,476.89,166.62Zm-6.14.08c0,1.7,1,3,2.35,3s2.35-1.27,2.35-3c0-1.31-.65-3-2.32-3S470.75,165.23,470.75,166.7Z" transform="translate(-288.35 -101.88)"/><path class="cls-6" d="M478.67,164.91c0-.8,0-1.46-.07-2.1h1.25l.08,1.28h0a2.87,2.87,0,0,1,2.57-1.46c1.07,0,2.73.65,2.73,3.3v4.63h-1.41v-4.47c0-1.25-.46-2.29-1.79-2.29a2,2,0,0,0-1.89,1.44,2.19,2.19,0,0,0-.09.66v4.66h-1.41Z" transform="translate(-288.35 -101.88)"/><path class="cls-6" d="M487.36,169.12a3.68,3.68,0,0,0,1.85.56c1,0,1.51-.51,1.51-1.15s-.4-1.05-1.44-1.43c-1.4-.5-2-1.26-2-2.19a2.39,2.39,0,0,1,2.67-2.28,3.85,3.85,0,0,1,1.91.49l-.36,1a3,3,0,0,0-1.58-.45c-.83,0-1.3.48-1.3,1.06s.47.93,1.47,1.31c1.35.51,2,1.18,2,2.34,0,1.36-1.06,2.32-2.9,2.32a4.44,4.44,0,0,1-2.18-.53Z" transform="translate(-288.35 -101.88)"/><path class="cls-6" d="M501.56,170.56l-.11-1h0a2.9,2.9,0,0,1-2.37,1.15,2.2,2.2,0,0,1-2.37-2.22c0-1.87,1.66-2.9,4.66-2.88v-.16a1.6,1.6,0,0,0-1.77-1.79,3.84,3.84,0,0,0-2,.57l-.32-.93a4.86,4.86,0,0,1,2.54-.69c2.37,0,3,1.62,3,3.17v2.9a10.57,10.57,0,0,0,.13,1.86Zm-.2-4c-1.54,0-3.28.24-3.28,1.75a1.24,1.24,0,0,0,1.32,1.34,1.94,1.94,0,0,0,1.88-1.29,1.47,1.47,0,0,0,.08-.45Z" transform="translate(-288.35 -101.88)"/><path class="cls-6" d="M505,164.91c0-.8,0-1.46-.07-2.1h1.25l.08,1.28h0a2.85,2.85,0,0,1,2.56-1.46c1.08,0,2.74.65,2.74,3.3v4.63h-1.41v-4.47c0-1.25-.46-2.29-1.79-2.29a2,2,0,0,0-1.89,1.44,2.19,2.19,0,0,0-.09.66v4.66H505Z" transform="translate(-288.35 -101.88)"/><path class="cls-6" d="M520.56,159.19v9.37c0,.69,0,1.47.06,2h-1.26l-.07-1.35h0a2.86,2.86,0,0,1-2.64,1.52c-1.87,0-3.31-1.58-3.31-3.93,0-2.58,1.58-4.17,3.47-4.17a2.61,2.61,0,0,1,2.34,1.19h0v-4.63ZM519.15,166a3,3,0,0,0-.06-.59,2.08,2.08,0,0,0-2-1.63c-1.45,0-2.32,1.28-2.32,3s.77,2.87,2.29,2.87a2.14,2.14,0,0,0,2.07-1.68,2.93,2.93,0,0,0,.06-.61Z" transform="translate(-288.35 -101.88)"/><path class="cls-6" d="M295.52,176.59v2.22h2v1.07h-2v4.18c0,1,.27,1.51,1.06,1.51a3,3,0,0,0,.81-.1l.07,1.06a3.56,3.56,0,0,1-1.25.19,2,2,0,0,1-1.52-.59,2.89,2.89,0,0,1-.55-2v-4.23h-1.2v-1.07h1.2V177Z" transform="translate(-288.35 -101.88)"/><path class="cls-6" d="M299.12,181.23c0-.91,0-1.7-.07-2.42h1.24l0,1.52h.07a2.32,2.32,0,0,1,2.14-1.7,1.56,1.56,0,0,1,.4.05V180a2.14,2.14,0,0,0-.48,0,2,2,0,0,0-1.88,1.81,3.26,3.26,0,0,0-.07.66v4.13h-1.39Z" transform="translate(-288.35 -101.88)"/><path class="cls-6" d="M308.56,186.56l-.11-1h-.05a2.87,2.87,0,0,1-2.37,1.15,2.2,2.2,0,0,1-2.37-2.22c0-1.87,1.67-2.9,4.66-2.88v-.16a1.6,1.6,0,0,0-1.76-1.79,3.9,3.9,0,0,0-2,.57l-.32-.93a4.87,4.87,0,0,1,2.55-.69c2.37,0,2.94,1.62,2.94,3.17v2.9a11.63,11.63,0,0,0,.13,1.86Zm-.21-4c-1.53,0-3.28.24-3.28,1.75a1.25,1.25,0,0,0,1.33,1.34,1.92,1.92,0,0,0,1.87-1.29,1.47,1.47,0,0,0,.08-.45Z" transform="translate(-288.35 -101.88)"/><path class="cls-6" d="M312,180.91c0-.8,0-1.46-.06-2.1h1.25l.08,1.28h0a2.84,2.84,0,0,1,2.56-1.46c1.07,0,2.74.65,2.74,3.3v4.63h-1.41v-4.47c0-1.25-.46-2.29-1.79-2.29a2,2,0,0,0-1.89,1.44,1.91,1.91,0,0,0-.1.66v4.66H312Z" transform="translate(-288.35 -101.88)"/><path class="cls-6" d="M320.67,185.12a3.72,3.72,0,0,0,1.86.56c1,0,1.5-.51,1.5-1.15s-.4-1.05-1.44-1.43c-1.39-.5-2-1.26-2-2.19a2.4,2.4,0,0,1,2.68-2.28,3.81,3.81,0,0,1,1.9.49l-.35,1a3.07,3.07,0,0,0-1.59-.45c-.83,0-1.29.48-1.29,1.06s.46.93,1.47,1.31c1.34.51,2,1.18,2,2.34,0,1.36-1.05,2.32-2.89,2.32a4.42,4.42,0,0,1-2.18-.53Z" transform="translate(-288.35 -101.88)"/><path class="cls-6" d="M327.34,186.56v-6.68h-1.09v-1.07h1.09v-.37a3.62,3.62,0,0,1,.9-2.7,2.7,2.7,0,0,1,1.89-.72,3.33,3.33,0,0,1,1.2.22l-.19,1.09a2.06,2.06,0,0,0-.9-.18c-1.2,0-1.5,1.06-1.5,2.25v.41h1.87v1.07h-1.87v6.68Z" transform="translate(-288.35 -101.88)"/><path class="cls-6" d="M338.67,182.62a3.78,3.78,0,0,1-3.85,4.11,3.68,3.68,0,0,1-3.72-4,3.79,3.79,0,0,1,3.84-4.12A3.67,3.67,0,0,1,338.67,182.62Zm-6.14.08c0,1.7,1,3,2.35,3s2.35-1.27,2.35-3c0-1.31-.65-3-2.32-3S332.53,181.23,332.53,182.7Z" transform="translate(-288.35 -101.88)"/><path class="cls-6" d="M340.45,181.23c0-.91,0-1.7-.07-2.42h1.23l.05,1.52h.07a2.32,2.32,0,0,1,2.14-1.7,1.62,1.62,0,0,1,.4.05V180a2.21,2.21,0,0,0-.48,0,2,2,0,0,0-1.89,1.81,4.25,4.25,0,0,0-.06.66v4.13h-1.39Z" transform="translate(-288.35 -101.88)"/><path class="cls-6" d="M345.74,180.91c0-.8,0-1.46-.06-2.1h1.23l.06,1.25h0a2.69,2.69,0,0,1,2.44-1.43,2.31,2.31,0,0,1,2.19,1.56h0a3.21,3.21,0,0,1,.86-1,2.68,2.68,0,0,1,1.72-.55c1,0,2.54.68,2.54,3.37v4.56h-1.37v-4.39c0-1.49-.55-2.38-1.68-2.38a1.83,1.83,0,0,0-1.67,1.28,2.45,2.45,0,0,0-.11.7v4.79h-1.38v-4.64c0-1.24-.54-2.13-1.61-2.13a1.93,1.93,0,0,0-1.75,1.41,1.87,1.87,0,0,0-.11.68v4.68h-1.38Z" transform="translate(-288.35 -101.88)"/><path class="cls-6" d="M363,178.81l1.7,4.58c.17.51.37,1.12.49,1.58h0c.14-.46.3-1.05.49-1.61l1.54-4.55h1.49l-2.12,5.52c-1,2.66-1.69,4-2.65,4.85a3.92,3.92,0,0,1-1.73.92l-.35-1.19a3.79,3.79,0,0,0,1.23-.69,4.28,4.28,0,0,0,1.18-1.57.89.89,0,0,0,.12-.33,1.47,1.47,0,0,0-.1-.37l-2.87-7.14Z" transform="translate(-288.35 -101.88)"/><path class="cls-6" d="M376.86,182.62a3.78,3.78,0,0,1-3.85,4.11,3.68,3.68,0,0,1-3.72-4,3.79,3.79,0,0,1,3.85-4.12A3.67,3.67,0,0,1,376.86,182.62Zm-6.14.08c0,1.7,1,3,2.35,3s2.35-1.27,2.35-3c0-1.31-.65-3-2.32-3S370.72,181.23,370.72,182.7Z" transform="translate(-288.35 -101.88)"/><path class="cls-6" d="M385.12,184.45c0,.8,0,1.5.07,2.11h-1.25l-.08-1.27h0a2.89,2.89,0,0,1-2.56,1.44c-1.21,0-2.67-.67-2.67-3.39v-4.53H380v4.29c0,1.47.45,2.47,1.73,2.47a2,2,0,0,0,1.85-1.28,2.11,2.11,0,0,0,.13-.73v-4.75h1.41Z" transform="translate(-288.35 -101.88)"/><path class="cls-6" d="M387.45,181.23c0-.91,0-1.7-.06-2.42h1.23l.05,1.52h.07a2.32,2.32,0,0,1,2.14-1.7,1.62,1.62,0,0,1,.4.05V180a2.21,2.21,0,0,0-.48,0,2,2,0,0,0-1.89,1.81,4.25,4.25,0,0,0-.06.66v4.13h-1.4Z" transform="translate(-288.35 -101.88)"/><path class="cls-6" d="M397.65,176.63a.88.88,0,0,1-1.75,0,.86.86,0,0,1,.88-.88A.84.84,0,0,1,397.65,176.63Zm-1.57,9.93v-7.75h1.41v7.75Z" transform="translate(-288.35 -101.88)"/><path class="cls-6" d="M406.51,175.19v9.37c0,.69,0,1.47.07,2h-1.27l-.06-1.35h0a2.87,2.87,0,0,1-2.65,1.52c-1.87,0-3.31-1.58-3.31-3.93,0-2.58,1.59-4.17,3.47-4.17a2.6,2.6,0,0,1,2.34,1.19h0v-4.63ZM405.1,182a2.41,2.41,0,0,0-.06-.59,2.08,2.08,0,0,0-2-1.63c-1.46,0-2.32,1.28-2.32,3s.76,2.87,2.29,2.87a2.13,2.13,0,0,0,2.06-1.68,2.38,2.38,0,0,0,.06-.61Z" transform="translate(-288.35 -101.88)"/><path class="cls-6" d="M409.63,182.94a2.48,2.48,0,0,0,2.66,2.69,5.13,5.13,0,0,0,2.14-.4l.24,1a6.29,6.29,0,0,1-2.57.48,3.6,3.6,0,0,1-3.81-3.91c0-2.33,1.37-4.18,3.63-4.18,2.53,0,3.2,2.23,3.2,3.65a4.54,4.54,0,0,1-.05.66Zm4.13-1a2,2,0,0,0-1.95-2.29,2.33,2.33,0,0,0-2.16,2.29Z" transform="translate(-288.35 -101.88)"/><path class="cls-6" d="M421.15,186.56l-.11-1H421a2.87,2.87,0,0,1-2.37,1.15,2.2,2.2,0,0,1-2.37-2.22c0-1.87,1.67-2.9,4.66-2.88v-.16a1.59,1.59,0,0,0-1.76-1.79,3.9,3.9,0,0,0-2,.57l-.32-.93a4.87,4.87,0,0,1,2.55-.69c2.37,0,2.94,1.62,2.94,3.17v2.9a11.63,11.63,0,0,0,.13,1.86Zm-.21-4c-1.53,0-3.28.24-3.28,1.75a1.25,1.25,0,0,0,1.33,1.34,1.92,1.92,0,0,0,1.87-1.29,1.47,1.47,0,0,0,.08-.45Z" transform="translate(-288.35 -101.88)"/><path class="cls-6" d="M424.38,185.12a3.72,3.72,0,0,0,1.86.56c1,0,1.5-.51,1.5-1.15s-.4-1.05-1.44-1.43c-1.39-.5-2.05-1.26-2.05-2.19a2.4,2.4,0,0,1,2.68-2.28,3.81,3.81,0,0,1,1.9.49l-.35,1a3,3,0,0,0-1.59-.45c-.83,0-1.29.48-1.29,1.06s.46.93,1.47,1.31c1.35.51,2,1.18,2,2.34,0,1.36-1.05,2.32-2.89,2.32a4.42,4.42,0,0,1-2.18-.53Z" transform="translate(-288.35 -101.88)"/><path class="cls-6" d="M435.87,176.63a.87.87,0,1,1-1.74,0,.86.86,0,0,1,.88-.88A.84.84,0,0,1,435.87,176.63Zm-1.57,9.93v-7.75h1.41v7.75Z" transform="translate(-288.35 -101.88)"/><path class="cls-6" d="M438.05,180.91c0-.8,0-1.46-.07-2.1h1.25l.08,1.28h0a2.85,2.85,0,0,1,2.56-1.46c1.08,0,2.74.65,2.74,3.3v4.63h-1.41v-4.47c0-1.25-.46-2.29-1.79-2.29a2,2,0,0,0-1.89,1.44,2.18,2.18,0,0,0-.1.66v4.66h-1.4Z" transform="translate(-288.35 -101.88)"/><path class="cls-6" d="M448.56,176.59v2.22h2v1.07h-2v4.18c0,1,.27,1.51,1.05,1.51a3,3,0,0,0,.82-.1l.07,1.06a3.56,3.56,0,0,1-1.25.19,2,2,0,0,1-1.52-.59,2.89,2.89,0,0,1-.55-2v-4.23H446v-1.07h1.2V177Z" transform="translate(-288.35 -101.88)"/><path class="cls-6" d="M459.07,182.62a3.78,3.78,0,0,1-3.86,4.11,3.68,3.68,0,0,1-3.71-4,3.79,3.79,0,0,1,3.84-4.12A3.67,3.67,0,0,1,459.07,182.62Zm-6.14.08c0,1.7,1,3,2.35,3s2.35-1.27,2.35-3c0-1.31-.65-3-2.32-3S452.93,181.23,452.93,182.7Z" transform="translate(-288.35 -101.88)"/><path class="cls-6" d="M464.17,186.56c0-.53.07-1.31.07-2v-9.37h1.39v4.87h0a2.9,2.9,0,0,1,2.64-1.43c1.92,0,3.28,1.61,3.27,4,0,2.77-1.75,4.14-3.48,4.14a2.76,2.76,0,0,1-2.59-1.45h-.05l-.06,1.28Zm1.46-3.11a2.64,2.64,0,0,0,.06.51,2.18,2.18,0,0,0,2.12,1.65c1.47,0,2.35-1.2,2.35-3,0-1.56-.8-2.88-2.31-2.88a2.24,2.24,0,0,0-2.14,1.72,3,3,0,0,0-.08.58Z" transform="translate(-288.35 -101.88)"/><path class="cls-6" d="M474.91,176.63a.84.84,0,0,1-.9.87.85.85,0,0,1-.85-.87.86.86,0,0,1,.88-.88A.84.84,0,0,1,474.91,176.63Zm-1.57,9.93v-7.75h1.41v7.75Z" transform="translate(-288.35 -101.88)"/><path class="cls-6" d="M478.78,176.59v2.22h2v1.07h-2v4.18c0,1,.27,1.51,1.06,1.51a2.92,2.92,0,0,0,.81-.1l.07,1.06a3.52,3.52,0,0,1-1.25.19,2,2,0,0,1-1.52-.59,2.89,2.89,0,0,1-.54-2v-4.23H476.2v-1.07h1.21V177Z" transform="translate(-288.35 -101.88)"/><path class="cls-6" d="M483.07,182.94a2.48,2.48,0,0,0,2.66,2.69,5.17,5.17,0,0,0,2.14-.4l.24,1a6.35,6.35,0,0,1-2.58.48,3.6,3.6,0,0,1-3.81-3.91c0-2.33,1.38-4.18,3.64-4.18,2.53,0,3.2,2.23,3.2,3.65a4.54,4.54,0,0,1-.05.66Zm4.13-1a2,2,0,0,0-1.95-2.29,2.35,2.35,0,0,0-2.17,2.29Z" transform="translate(-288.35 -101.88)"/><path class="cls-6" d="M494,181.71v1h-3.95v-1Z" transform="translate(-288.35 -101.88)"/><path class="cls-6" d="M495.47,185.12a3.69,3.69,0,0,0,1.86.56c1,0,1.5-.51,1.5-1.15s-.4-1.05-1.44-1.43c-1.39-.5-2.05-1.26-2.05-2.19a2.39,2.39,0,0,1,2.67-2.28,3.82,3.82,0,0,1,1.91.49l-.35,1a3.07,3.07,0,0,0-1.59-.45c-.83,0-1.29.48-1.29,1.06s.46.93,1.47,1.31c1.34.51,2,1.18,2,2.34,0,1.36-1.06,2.32-2.9,2.32a4.37,4.37,0,0,1-2.17-.53Z" transform="translate(-288.35 -101.88)"/><path class="cls-6" d="M503.57,176.63a.88.88,0,0,1-1.75,0,.86.86,0,0,1,.88-.88A.84.84,0,0,1,503.57,176.63ZM502,186.56v-7.75h1.41v7.75Z" transform="translate(-288.35 -101.88)"/><path class="cls-6" d="M504.86,185.74l3.51-4.56c.33-.42.65-.78,1-1.2v0h-4.19v-1.14h5.91l0,.88-3.46,4.5c-.32.43-.64.82-1,1.22v0h4.53v1.12h-6.29Z" transform="translate(-288.35 -101.88)"/><path class="cls-6" d="M513.26,182.94a2.48,2.48,0,0,0,2.66,2.69,5.13,5.13,0,0,0,2.14-.4l.24,1a6.29,6.29,0,0,1-2.57.48,3.6,3.6,0,0,1-3.81-3.91c0-2.33,1.37-4.18,3.63-4.18,2.53,0,3.2,2.23,3.2,3.65a4.54,4.54,0,0,1,0,.66Zm4.13-1a2,2,0,0,0-1.95-2.29,2.33,2.33,0,0,0-2.16,2.29Z" transform="translate(-288.35 -101.88)"/><path class="cls-6" d="M527.18,175.19v9.37c0,.69,0,1.47.07,2H526l-.06-1.35h0a2.87,2.87,0,0,1-2.64,1.52c-1.88,0-3.32-1.58-3.32-3.93,0-2.58,1.59-4.17,3.48-4.17a2.59,2.59,0,0,1,2.33,1.19h0v-4.63ZM525.77,182a2.41,2.41,0,0,0-.06-.59,2.08,2.08,0,0,0-2-1.63c-1.46,0-2.32,1.28-2.32,3s.77,2.87,2.29,2.87a2.13,2.13,0,0,0,2.06-1.68,2.38,2.38,0,0,0,.06-.61Z" transform="translate(-288.35 -101.88)"/><path class="cls-6" d="M293.82,191.19h1.41v11.37h-1.41Z" transform="translate(-288.35 -101.88)"/><path class="cls-6" d="M298.38,198.94a2.49,2.49,0,0,0,2.66,2.69,5.19,5.19,0,0,0,2.15-.4l.23,1a6.29,6.29,0,0,1-2.57.48,3.6,3.6,0,0,1-3.81-3.91c0-2.33,1.38-4.18,3.63-4.18,2.53,0,3.2,2.23,3.2,3.65,0,.29,0,.52,0,.66Zm4.13-1a2,2,0,0,0-1.95-2.29,2.34,2.34,0,0,0-2.16,2.29Z" transform="translate(-288.35 -101.88)"/><path class="cls-6" d="M309.9,202.56l-.11-1h-.05a2.86,2.86,0,0,1-2.36,1.15,2.2,2.2,0,0,1-2.37-2.22c0-1.87,1.66-2.9,4.65-2.88v-.16a1.59,1.59,0,0,0-1.76-1.79,3.84,3.84,0,0,0-2,.57l-.32-.93a4.86,4.86,0,0,1,2.54-.69c2.37,0,2.95,1.62,2.95,3.17v2.9a10.57,10.57,0,0,0,.13,1.86Zm-.2-4c-1.54,0-3.28.24-3.28,1.75a1.24,1.24,0,0,0,1.32,1.34,1.94,1.94,0,0,0,1.88-1.29,1.86,1.86,0,0,0,.08-.45Z" transform="translate(-288.35 -101.88)"/><path class="cls-6" d="M313.33,197.23c0-.91,0-1.7-.07-2.42h1.24l0,1.52h.07a2.32,2.32,0,0,1,2.14-1.7,1.62,1.62,0,0,1,.4.05V196a2.21,2.21,0,0,0-.48,0,2,2,0,0,0-1.89,1.81,4.25,4.25,0,0,0-.06.66v4.13h-1.39Z" transform="translate(-288.35 -101.88)"/><path class="cls-6" d="M318.62,196.91c0-.8,0-1.46-.06-2.1h1.25l.08,1.28h0a2.84,2.84,0,0,1,2.56-1.46c1.07,0,2.74.65,2.74,3.3v4.63h-1.41v-4.47c0-1.25-.47-2.29-1.79-2.29a2,2,0,0,0-1.89,1.44,1.91,1.91,0,0,0-.1.66v4.66h-1.41Z" transform="translate(-288.35 -101.88)"/><path class="cls-6" d="M329.07,192.63a.87.87,0,1,1-1.74,0,.86.86,0,0,1,.88-.88A.84.84,0,0,1,329.07,192.63Zm-1.57,9.93v-7.75h1.41v7.75Z" transform="translate(-288.35 -101.88)"/><path class="cls-6" d="M331.25,196.91c0-.8,0-1.46-.07-2.1h1.25l.08,1.28h0a2.85,2.85,0,0,1,2.56-1.46c1.08,0,2.74.65,2.74,3.3v4.63h-1.41v-4.47c0-1.25-.46-2.29-1.79-2.29a2,2,0,0,0-1.89,1.44,2.18,2.18,0,0,0-.1.66v4.66h-1.4Z" transform="translate(-288.35 -101.88)"/><path class="cls-6" d="M346.8,194.81c0,.56-.06,1.19-.06,2.13v4.5c0,1.77-.36,2.86-1.11,3.54a4.12,4.12,0,0,1-2.82.92,5,5,0,0,1-2.57-.64l.35-1.07a4.35,4.35,0,0,0,2.27.61c1.44,0,2.5-.75,2.5-2.71v-.86h0a2.78,2.78,0,0,1-2.47,1.3c-1.92,0-3.29-1.64-3.29-3.78,0-2.63,1.71-4.12,3.49-4.12a2.57,2.57,0,0,1,2.41,1.35h0l.07-1.17Zm-1.46,3.06a1.84,1.84,0,0,0-.08-.64,2,2,0,0,0-2-1.49c-1.35,0-2.31,1.14-2.31,2.93,0,1.52.77,2.78,2.29,2.78a2.05,2.05,0,0,0,2-1.44,2.43,2.43,0,0,0,.11-.75Z" transform="translate(-288.35 -101.88)"/><path class="cls-6" d="M352.46,196.91c0-.8,0-1.46-.06-2.1h1.25l.08,1.28h0a2.84,2.84,0,0,1,2.56-1.46c1.07,0,2.74.65,2.74,3.3v4.63h-1.41v-4.47c0-1.25-.47-2.29-1.79-2.29a2,2,0,0,0-1.89,1.44,1.91,1.91,0,0,0-.1.66v4.66h-1.41Z" transform="translate(-288.35 -101.88)"/><path class="cls-6" d="M367.82,200.45c0,.8,0,1.5.07,2.11h-1.25l-.08-1.27h0a2.91,2.91,0,0,1-2.56,1.44c-1.22,0-2.68-.67-2.68-3.39v-4.53h1.41v4.29c0,1.47.45,2.47,1.73,2.47a2,2,0,0,0,1.86-1.28,2.11,2.11,0,0,0,.13-.73v-4.75h1.4Z" transform="translate(-288.35 -101.88)"/><path class="cls-6" d="M376.83,194.81c0,.56-.06,1.19-.06,2.13v4.5c0,1.77-.35,2.86-1.11,3.54a4.11,4.11,0,0,1-2.81.92,5,5,0,0,1-2.58-.64l.35-1.07a4.36,4.36,0,0,0,2.28.61c1.44,0,2.49-.75,2.49-2.71v-.86h0a2.76,2.76,0,0,1-2.46,1.3c-1.93,0-3.3-1.64-3.3-3.78,0-2.63,1.71-4.12,3.49-4.12A2.57,2.57,0,0,1,375.5,196h0l.06-1.17Zm-1.45,3.06a2.12,2.12,0,0,0-.08-.64,2,2,0,0,0-2-1.49c-1.35,0-2.31,1.14-2.31,2.93,0,1.52.77,2.78,2.29,2.78a2,2,0,0,0,1.95-1.44,2.45,2.45,0,0,0,.12-.75Z" transform="translate(-288.35 -101.88)"/><path class="cls-6" d="M385.78,194.81c0,.56-.07,1.19-.07,2.13v4.5c0,1.77-.35,2.86-1.1,3.54a4.12,4.12,0,0,1-2.82.92,5,5,0,0,1-2.58-.64l.36-1.07a4.35,4.35,0,0,0,2.27.61c1.44,0,2.5-.75,2.5-2.71v-.86h0a2.76,2.76,0,0,1-2.46,1.3c-1.92,0-3.3-1.64-3.3-3.78,0-2.63,1.71-4.12,3.49-4.12a2.58,2.58,0,0,1,2.42,1.35h0l.06-1.17Zm-1.46,3.06a2.12,2.12,0,0,0-.08-.64,2,2,0,0,0-2-1.49c-1.34,0-2.3,1.14-2.3,2.93,0,1.52.76,2.78,2.28,2.78a2.06,2.06,0,0,0,2-1.44,2.43,2.43,0,0,0,.11-.75Z" transform="translate(-288.35 -101.88)"/><path class="cls-6" d="M388.83,198.94a2.48,2.48,0,0,0,2.66,2.69,5.13,5.13,0,0,0,2.14-.4l.24,1a6.31,6.31,0,0,1-2.58.48,3.59,3.59,0,0,1-3.8-3.91c0-2.33,1.37-4.18,3.63-4.18,2.53,0,3.2,2.23,3.2,3.65a4.54,4.54,0,0,1-.05.66Zm4.13-1a2,2,0,0,0-1.95-2.29,2.33,2.33,0,0,0-2.16,2.29Z" transform="translate(-288.35 -101.88)"/><path class="cls-6" d="M395.87,201.12a3.72,3.72,0,0,0,1.86.56c1,0,1.5-.51,1.5-1.15s-.4-1.05-1.44-1.43c-1.39-.5-2.05-1.26-2.05-2.19a2.39,2.39,0,0,1,2.67-2.28,3.82,3.82,0,0,1,1.91.49l-.35,1a3.07,3.07,0,0,0-1.59-.45c-.83,0-1.29.48-1.29,1.06s.46.93,1.47,1.31c1.34.51,2,1.18,2,2.34,0,1.36-1,2.32-2.9,2.32a4.4,4.4,0,0,1-2.17-.53Z" transform="translate(-288.35 -101.88)"/><path class="cls-6" d="M404.09,192.59v2.22h2v1.07h-2v4.18c0,1,.28,1.51,1.06,1.51a3.06,3.06,0,0,0,.82-.1l.06,1.06a3.48,3.48,0,0,1-1.25.19,2,2,0,0,1-1.52-.59,2.89,2.89,0,0,1-.54-2v-4.23h-1.2v-1.07h1.2V193Z" transform="translate(-288.35 -101.88)"/><path class="cls-6" d="M407.5,201.12a3.72,3.72,0,0,0,1.86.56c1,0,1.5-.51,1.5-1.15s-.4-1.05-1.44-1.43c-1.39-.5-2.05-1.26-2.05-2.19a2.4,2.4,0,0,1,2.68-2.28,3.81,3.81,0,0,1,1.9.49l-.35,1a3.07,3.07,0,0,0-1.59-.45c-.83,0-1.29.48-1.29,1.06s.46.93,1.47,1.31c1.35.51,2,1.18,2,2.34,0,1.36-1.05,2.32-2.89,2.32a4.42,4.42,0,0,1-2.18-.53Z" transform="translate(-288.35 -101.88)"/><path class="cls-6" d="M417.56,202.56v-6.68h-1.08v-1.07h1.08v-.37a3.66,3.66,0,0,1,.9-2.7,2.7,2.7,0,0,1,1.89-.72,3.29,3.29,0,0,1,1.2.22l-.19,1.09a2.06,2.06,0,0,0-.9-.18c-1.2,0-1.5,1.06-1.5,2.25v.41h1.87v1.07H419v6.68Z" transform="translate(-288.35 -101.88)"/><path class="cls-6" d="M428.9,198.62a3.78,3.78,0,0,1-3.86,4.11,3.67,3.67,0,0,1-3.71-4,3.79,3.79,0,0,1,3.84-4.12A3.67,3.67,0,0,1,428.9,198.62Zm-6.15.08c0,1.7,1,3,2.35,3s2.36-1.27,2.36-3c0-1.31-.66-3-2.33-3S422.75,197.23,422.75,198.7Z" transform="translate(-288.35 -101.88)"/><path class="cls-6" d="M430.67,197.23c0-.91,0-1.7-.06-2.42h1.23l.05,1.52H432a2.32,2.32,0,0,1,2.14-1.7,1.7,1.7,0,0,1,.41.05V196a2.31,2.31,0,0,0-.49,0,2,2,0,0,0-1.88,1.81,3.26,3.26,0,0,0-.07.66v4.13h-1.39Z" transform="translate(-288.35 -101.88)"/><path class="cls-6" d="M443.58,202.56l-.11-1h-.05a2.87,2.87,0,0,1-2.37,1.15,2.2,2.2,0,0,1-2.36-2.22c0-1.87,1.66-2.9,4.65-2.88v-.16a1.59,1.59,0,0,0-1.76-1.79,3.84,3.84,0,0,0-2,.57l-.32-.93a4.84,4.84,0,0,1,2.54-.69c2.37,0,2.95,1.62,2.95,3.17v2.9a11.7,11.7,0,0,0,.12,1.86Zm-.2-4c-1.54,0-3.29.24-3.29,1.75a1.25,1.25,0,0,0,1.33,1.34,1.92,1.92,0,0,0,1.87-1.29,1.5,1.5,0,0,0,.09-.45Z" transform="translate(-288.35 -101.88)"/><path class="cls-6" d="M455.68,201.36h0a2.75,2.75,0,0,1-2.53,1.37c-1.81,0-3.28-1.56-3.28-3.92,0-2.89,1.87-4.18,3.5-4.18a2.57,2.57,0,0,1,2.39,1.35h0l.05-1.17h1.33c0,.66-.05,1.33-.05,2.13v8.79h-1.41Zm0-3.41a2.81,2.81,0,0,0-.06-.59,2.06,2.06,0,0,0-2-1.6c-1.46,0-2.34,1.23-2.34,3,0,1.54.74,2.88,2.29,2.88a2.11,2.11,0,0,0,2-1.53,2.55,2.55,0,0,0,.11-.68Z" transform="translate(-288.35 -101.88)"/><path class="cls-6" d="M465.89,200.45c0,.8,0,1.5.06,2.11H464.7l-.08-1.27h0a2.9,2.9,0,0,1-2.56,1.44c-1.22,0-2.67-.67-2.67-3.39v-4.53h1.41v4.29c0,1.47.44,2.47,1.72,2.47a2,2,0,0,0,1.86-1.28,2.11,2.11,0,0,0,.13-.73v-4.75h1.41Z" transform="translate(-288.35 -101.88)"/><path class="cls-6" d="M469.79,192.63a.88.88,0,0,1-1.75,0,.86.86,0,0,1,.88-.88A.84.84,0,0,1,469.79,192.63Zm-1.57,9.93v-7.75h1.41v7.75Z" transform="translate(-288.35 -101.88)"/><path class="cls-6" d="M477.49,202.27a5.25,5.25,0,0,1-2.23.45,3.69,3.69,0,0,1-3.86-4,3.94,3.94,0,0,1,4.17-4.11,4.76,4.76,0,0,1,1.95.4l-.32,1.09a3.31,3.31,0,0,0-1.63-.37,2.92,2.92,0,0,0-.05,5.83,3.94,3.94,0,0,0,1.73-.39Z" transform="translate(-288.35 -101.88)"/><path class="cls-6" d="M480.52,198.36h0c.19-.27.46-.6.69-.88l2.27-2.67h1.69l-3,3.19,3.41,4.56h-1.71l-2.67-3.72-.73.81v2.91h-1.39V191.19h1.39Z" transform="translate(-288.35 -101.88)"/><path class="cls-6" d="M496.7,194.81c0,.56-.06,1.19-.06,2.13v4.5c0,1.77-.35,2.86-1.11,3.54a4.11,4.11,0,0,1-2.81.92,5,5,0,0,1-2.58-.64l.35-1.07a4.36,4.36,0,0,0,2.28.61c1.44,0,2.49-.75,2.49-2.71v-.86h0a2.76,2.76,0,0,1-2.46,1.3c-1.93,0-3.3-1.64-3.3-3.78,0-2.63,1.71-4.12,3.49-4.12a2.57,2.57,0,0,1,2.41,1.35h0l.06-1.17Zm-1.45,3.06a2.12,2.12,0,0,0-.08-.64,2,2,0,0,0-2-1.49c-1.35,0-2.31,1.14-2.31,2.93,0,1.52.77,2.78,2.29,2.78a2,2,0,0,0,1.95-1.44,2.45,2.45,0,0,0,.12-.75Z" transform="translate(-288.35 -101.88)"/><path class="cls-6" d="M498.88,197.23c0-.91,0-1.7-.07-2.42H500l0,1.52h.07a2.32,2.32,0,0,1,2.14-1.7,1.62,1.62,0,0,1,.4.05V196a2.21,2.21,0,0,0-.48,0,2,2,0,0,0-1.89,1.81,4.25,4.25,0,0,0-.06.66v4.13h-1.39Z" transform="translate(-288.35 -101.88)"/><path class="cls-6" d="M508.32,202.56l-.11-1h0a2.88,2.88,0,0,1-2.37,1.15,2.2,2.2,0,0,1-2.37-2.22c0-1.87,1.66-2.9,4.66-2.88v-.16a1.6,1.6,0,0,0-1.76-1.79,3.88,3.88,0,0,0-2,.57l-.32-.93a4.86,4.86,0,0,1,2.54-.69c2.37,0,3,1.62,3,3.17v2.9a10.57,10.57,0,0,0,.13,1.86Zm-.21-4c-1.54,0-3.28.24-3.28,1.75a1.25,1.25,0,0,0,1.33,1.34A1.92,1.92,0,0,0,508,200.4a1.47,1.47,0,0,0,.08-.45Z" transform="translate(-288.35 -101.88)"/><path class="cls-6" d="M511.55,201.12a3.68,3.68,0,0,0,1.85.56c1,0,1.51-.51,1.51-1.15s-.4-1.05-1.44-1.43c-1.39-.5-2.05-1.26-2.05-2.19a2.39,2.39,0,0,1,2.67-2.28,3.82,3.82,0,0,1,1.91.49l-.35,1a3.07,3.07,0,0,0-1.59-.45c-.83,0-1.3.48-1.3,1.06s.47.93,1.48,1.31c1.34.51,2,1.18,2,2.34,0,1.36-1.06,2.32-2.9,2.32a4.37,4.37,0,0,1-2.17-.53Z" transform="translate(-288.35 -101.88)"/><path class="cls-6" d="M518.08,197.34c0-1,0-1.79-.07-2.53h1.27l.06,1.33h0a3.07,3.07,0,0,1,2.76-1.51c1.87,0,3.28,1.59,3.28,3.94,0,2.79-1.7,4.16-3.52,4.16a2.71,2.71,0,0,1-2.39-1.21h0v4.21h-1.39Zm1.39,2.06a3.34,3.34,0,0,0,.06.58,2.18,2.18,0,0,0,2.12,1.65c1.48,0,2.35-1.22,2.35-3,0-1.56-.82-2.88-2.31-2.88a2.25,2.25,0,0,0-2.13,1.74,2.7,2.7,0,0,0-.09.58Z" transform="translate(-288.35 -101.88)"/><path class="cls-6" d="M526.46,201.73a.94.94,0,0,1,1-1,1,1,0,1,1-1,1Z" transform="translate(-288.35 -101.88)"/></svg>