<svg xmlns="http://www.w3.org/2000/svg" viewBox="0 0 108.6 65.12"><defs><style>.cls-1{fill:#a83f44;opacity:0.42;}.cls-2{fill:#e6eff3;stroke:#9e2a2f;stroke-miterlimit:10;}.cls-3{opacity:0.2;}.cls-4{fill:#9e2a2f;}.cls-5{fill:#f2f2f2;}</style></defs><g id="Layer_26" data-name="Layer 26"><path class="cls-1" d="M1402,196.79l-99.26-2.25a2.87,2.87,0,0,1-2.91-2.85l1.08-37.87a2.84,2.84,0,0,1,3-2.62l96.53.83a3.1,3.1,0,0,1,3.2,2.76l1.46,39.18A2.84,2.84,0,0,1,1402,196.79Z" transform="translate(-1296.51 -150.7)"/><rect class="cls-2" x="0.5" y="0.5" width="105.73" height="42.94" rx="3"/><g class="cls-3"><polygon points="24.8 64.37 15.23 47.8 24.8 31.23 43.93 31.23 53.5 47.8 43.93 64.37 24.8 64.37"/><path d="M1340,182.67l9.14,15.82L1340,214.31h-18.26l-9.14-15.82,9.14-15.82H1340m.87-1.5h-20l-10,17.32,10,17.32h20l10-17.32-10-17.32Z" transform="translate(-1296.51 -150.7)"/></g><polygon class="cls-4" points="22.8 62.37 13.23 45.8 22.8 29.23 41.93 29.23 51.5 45.8 41.93 62.37 22.8 62.37"/><path class="cls-5" d="M1338,180.67l9.14,15.82L1338,212.31h-18.26l-9.14-15.82,9.14-15.82H1338m.87-1.5h-20l-10,17.32,10,17.32h20l10-17.32-10-17.32Z" transform="translate(-1296.51 -150.7)"/><path class="cls-5" d="M1319.8,193.64h-3.51V191.3h.32a5.22,5.22,0,0,0,2.83-.67,3.13,3.13,0,0,0,1.31-2.17h2.64V206.1h-3.59Z" transform="translate(-1296.51 -150.7)"/><path class="cls-5" d="M1327.8,194.34a9.32,9.32,0,0,1,.67-3,4.73,4.73,0,0,1,1.66-2.1,5.24,5.24,0,0,1,3.07-.78,6.72,6.72,0,0,1,2.68.46,3.67,3.67,0,0,1,1.69,1.48,7,7,0,0,1,.9,2.65,25.07,25.07,0,0,1,.26,4c0,1.23,0,2.41-.12,3.53a10,10,0,0,1-.67,3,4.55,4.55,0,0,1-1.66,2.05,5.46,5.46,0,0,1-3.08.75,7.31,7.31,0,0,1-2.66-.42,3.5,3.5,0,0,1-1.71-1.45,7.29,7.29,0,0,1-.9-2.65,26.22,26.22,0,0,1-.26-4C1327.67,196.65,1327.71,195.47,1327.8,194.34Zm3.55,7a6.14,6.14,0,0,0,.31,1.67,1.55,1.55,0,0,0,.6.84,1.77,1.77,0,0,0,.94.22,1.55,1.55,0,0,0,1-.28,1.93,1.93,0,0,0,.59-1,8.66,8.66,0,0,0,.3-1.83c.06-.76.09-1.71.09-2.84v-1.91q0-1.68-.09-2.73a6.64,6.64,0,0,0-.31-1.67,1.55,1.55,0,0,0-.6-.84,1.93,1.93,0,0,0-1-.22,1.55,1.55,0,0,0-1,.29,1.85,1.85,0,0,0-.58,1,7.72,7.72,0,0,0-.3,1.83c-.06.76-.09,1.71-.09,2.84v1.92C1331.26,199.76,1331.29,200.67,1331.35,201.37Z" transform="translate(-1296.51 -150.7)"/><path class="cls-4" d="M1309.26,172.79a4.57,4.57,0,0,0,.08.86,1.65,1.65,0,0,0,.28.66,1.45,1.45,0,0,0,.57.41,2,2,0,0,0,.88.16,1.77,1.77,0,0,0,1.13-.41,1.54,1.54,0,0,0,.5-1.27,2.28,2.28,0,0,0-.12-.78,1.44,1.44,0,0,0-.41-.6,3,3,0,0,0-.75-.49,11.34,11.34,0,0,0-1.15-.44,10.88,10.88,0,0,1-1.58-.67,4.38,4.38,0,0,1-1.11-.84,3.18,3.18,0,0,1-.65-1.13,4.65,4.65,0,0,1-.21-1.47,3.79,3.79,0,0,1,1.12-3,4.49,4.49,0,0,1,3.08-1,6.79,6.79,0,0,1,1.68.2,3.52,3.52,0,0,1,1.33.65,2.94,2.94,0,0,1,.87,1.14,4,4,0,0,1,.32,1.66v.38h-2.63a2.69,2.69,0,0,0-.34-1.49,1.26,1.26,0,0,0-1.14-.52,1.92,1.92,0,0,0-.76.13,1.25,1.25,0,0,0-.48.35,1.31,1.31,0,0,0-.25.5,2.88,2.88,0,0,0-.07.59,2,2,0,0,0,.27,1.06,2.52,2.52,0,0,0,1.14.79l2.11.91a6.38,6.38,0,0,1,1.27.71,3.51,3.51,0,0,1,.79.8,2.64,2.64,0,0,1,.41.94,5,5,0,0,1,.11,1.14,3.72,3.72,0,0,1-1.24,3.12,5.45,5.45,0,0,1-3.47,1,4.54,4.54,0,0,1-3.31-1,3.94,3.94,0,0,1-1-2.89v-.55h2.73Z" transform="translate(-1296.51 -150.7)"/><path class="cls-4" d="M1321,163.06l1.94,9.57h0l2-9.57h4v13.56h-2.5V165.79h0l-2.41,10.83h-2.13l-2.42-10.83h0v10.83H1317V163.06Z" transform="translate(-1296.51 -150.7)"/><path class="cls-4" d="M1338.56,165.3h-4.84v3.19h4.56v2.24h-4.56v3.65h5v2.24H1331V163.06h7.58Z" transform="translate(-1296.51 -150.7)"/><path class="cls-4" d="M1349.73,163.06a3.83,3.83,0,0,1,2.66.86,3.37,3.37,0,0,1,.95,2.63,4.09,4.09,0,0,1-.55,2.24,2.6,2.6,0,0,1-1.71,1.11v0a2.44,2.44,0,0,1,1.5.66,2.74,2.74,0,0,1,.59,1.65c0,.26,0,.53.06.83s0,.63,0,1c0,.72.06,1.27.11,1.65a1.06,1.06,0,0,0,.5.78v.11h-3a1.38,1.38,0,0,1-.26-.65,6.48,6.48,0,0,1-.08-.77l-.08-2.6a2.12,2.12,0,0,0-.4-1.26,1.46,1.46,0,0,0-1.21-.45h-1.46v5.73h-2.74V163.06Zm-1.17,5.93a2.27,2.27,0,0,0,1.52-.47,2,2,0,0,0,.53-1.57,1.67,1.67,0,0,0-1.9-1.88h-1.29V169Z" transform="translate(-1296.51 -150.7)"/><path class="cls-4" d="M1357.41,172.73a5.06,5.06,0,0,0,.07.88,2.42,2.42,0,0,0,.22.76,1.44,1.44,0,0,0,.39.53.92.92,0,0,0,.61.2,1,1,0,0,0,1-.47,3.64,3.64,0,0,0,.42-1.45h2.36a4.15,4.15,0,0,1-1,2.72,3.65,3.65,0,0,1-2.76.93,4.42,4.42,0,0,1-2.22-.47,3,3,0,0,1-1.18-1.26,4.86,4.86,0,0,1-.47-1.74c0-.65-.08-1.3-.08-1.94a12.73,12.73,0,0,1,.14-2,5,5,0,0,1,.57-1.69,3.11,3.11,0,0,1,1.23-1.18,4.43,4.43,0,0,1,2.12-.43,4.14,4.14,0,0,1,1.88.37,2.82,2.82,0,0,1,1.15,1,4.73,4.73,0,0,1,.57,1.64,13.77,13.77,0,0,1,.15,2.13v.59h-5.19Zm2.6-3.41a2.55,2.55,0,0,0-.2-.76,1.06,1.06,0,0,0-.4-.48,1.25,1.25,0,0,0-.65-.16,1.12,1.12,0,0,0-.66.18,1.26,1.26,0,0,0-.4.48,1.92,1.92,0,0,0-.22.65,3.51,3.51,0,0,0-.07.72v.4h2.68A9.61,9.61,0,0,0,1360,169.32Z" transform="translate(-1296.51 -150.7)"/><path class="cls-4" d="M1371.43,166.4l-2.56,10.22h-3l-2.64-10.22h2.73l1.46,7.32h0l1.39-7.32Z" transform="translate(-1296.51 -150.7)"/><path class="cls-4" d="M1375.12,162.91v2.24h-2.62v-2.24Zm0,3.49v10.22h-2.62V166.4Z" transform="translate(-1296.51 -150.7)"/><path class="cls-4" d="M1379.2,172.73a5.06,5.06,0,0,0,.07.88,2.71,2.71,0,0,0,.22.76,1.35,1.35,0,0,0,.4.53.87.87,0,0,0,.6.2,1,1,0,0,0,1-.47,3.48,3.48,0,0,0,.42-1.45h2.36a4.1,4.1,0,0,1-1,2.72,3.64,3.64,0,0,1-2.76.93,4.42,4.42,0,0,1-2.22-.47,3,3,0,0,1-1.18-1.26,4.86,4.86,0,0,1-.46-1.74c-.06-.65-.09-1.3-.09-1.94a14.09,14.09,0,0,1,.14-2,5,5,0,0,1,.57-1.69,3.18,3.18,0,0,1,1.23-1.18,4.45,4.45,0,0,1,2.13-.43,4.1,4.1,0,0,1,1.87.37,2.82,2.82,0,0,1,1.15,1,4.36,4.36,0,0,1,.57,1.64,13.77,13.77,0,0,1,.15,2.13v.59h-5.19Zm2.6-3.41a2.56,2.56,0,0,0-.19-.76,1.13,1.13,0,0,0-.4-.48,1.29,1.29,0,0,0-.66-.16,1.11,1.11,0,0,0-.65.18,1.2,1.2,0,0,0-.41.48,2.17,2.17,0,0,0-.22.65,3.51,3.51,0,0,0-.07.72v.4h2.68A9.61,9.61,0,0,0,1381.8,169.32Z" transform="translate(-1296.51 -150.7)"/><path class="cls-4" d="M1387.64,166.4l1.19,7.26h0l1.28-7.26H1393l1.34,7.26h0l1.24-7.26h2.51l-2.21,10.22h-3l-1.35-7.25h0l-1.27,7.25h-3L1385,166.4Z" transform="translate(-1296.51 -150.7)"/></g></svg>