<svg id="Layer_27" data-name="Layer 27" xmlns="http://www.w3.org/2000/svg" viewBox="0 0 285.29 169.77"><defs><style>.cls-1{fill:#a83f44;opacity:0.42;}.cls-2{fill:#e6eff3;stroke:#9e2a2f;stroke-miterlimit:10;}.cls-3{opacity:0.2;}.cls-4{fill:#9e2a2f;}.cls-5{fill:#f2f2f2;}</style></defs><path class="cls-1" d="M1043.39,281.67l-254.84-7.29c-4.24-.13-7.58-4.28-7.47-9.28L783.84,142c.1-4.76,3.53-8.57,7.65-8.52l247.84,2.71c4.39.05,8.07,4.06,8.21,9l3.75,127.41C1051.45,277.7,1047.9,281.8,1043.39,281.67Z" transform="translate(-766.01 -111.9)"/><rect class="cls-2" x="0.5" y="20.18" width="279.24" height="141.34" rx="7.81"/><g class="cls-3"><polygon points="66.22 35.89 56.65 19.32 66.22 2.75 85.35 2.75 94.92 19.32 85.35 35.89 66.22 35.89"/><path d="M850.93,115.4l9.13,15.82L850.93,147H832.66l-9.14-15.82,9.14-15.82h18.27m.86-1.5h-20l-10,17.32,10,17.32h20l10-17.32-10-17.32Z" transform="translate(-766.01 -111.9)"/></g><polygon class="cls-4" points="64.22 33.89 54.65 17.32 64.22 0.75 83.35 0.75 92.92 17.32 83.35 33.89 64.22 33.89"/><path class="cls-5" d="M848.93,113.4l9.13,15.82L848.93,145H830.66l-9.14-15.82,9.14-15.82h18.27m.86-1.5h-20l-10,17.32,10,17.32h20l10-17.32-10-17.32Z" transform="translate(-766.01 -111.9)"/><path class="cls-5" d="M834.61,120.55V138h-3.54V126.68h-4.39V124h.2c2.84,0,4.59-1.18,4.91-3.47Z" transform="translate(-766.01 -111.9)"/><path class="cls-5" d="M848.46,120.55V138h-3.54V126.68h-4.39V124h.2c2.84,0,4.59-1.18,4.91-3.47Z" transform="translate(-766.01 -111.9)"/><path class="cls-4" d="M779.88,149.6l4.77,7.66h0V149.6H787V161h-2.52l-4.75-7.65h0V161h-2.36V149.6Z" transform="translate(-766.01 -111.9)"/><path class="cls-4" d="M797.31,156.9a4.29,4.29,0,1,1-4.29-4.37A4.07,4.07,0,0,1,797.31,156.9ZM793,159.54c1.34,0,2-1,2-2.64,0-1.35-.47-2.66-2-2.66-1.26,0-2,1-2,2.66S791.72,159.54,793,159.54Z" transform="translate(-766.01 -111.9)"/><path class="cls-4" d="M801.66,150.27v2.48h1.66v1.52h-1.66v4.1c0,.77.19,1,1,1a3.65,3.65,0,0,0,.7-.06V161a8.11,8.11,0,0,1-1.34.08c-1.71,0-2.6-.53-2.6-2v-4.85H798v-1.52h1.37v-2.48Z" transform="translate(-766.01 -111.9)"/><path class="cls-4" d="M810.49,152.75l1.52,5.62h0l1.38-5.62h2.21l1.41,5.6h0l1.52-5.6h2.34L818.32,161H816l-1.47-5.56h0l-1.4,5.56h-2.36l-2.62-8.28Z" transform="translate(-766.01 -111.9)"/><path class="cls-4" d="M830.19,156.9a4.29,4.29,0,1,1-4.29-4.37A4.07,4.07,0,0,1,830.19,156.9Zm-4.29,2.64c1.34,0,2-1,2-2.64,0-1.35-.46-2.66-2-2.66-1.26,0-2,1-2,2.66S824.6,159.54,825.9,159.54Z" transform="translate(-766.01 -111.9)"/><path class="cls-4" d="M837,152.61v2.11a3.86,3.86,0,0,0-.82-.08c-1.65,0-2.24,1.17-2.24,2.66V161h-2.27v-8.28h2.16v1.54h0a2.9,2.9,0,0,1,2.64-1.76A1.53,1.53,0,0,1,837,152.61Z" transform="translate(-766.01 -111.9)"/><path class="cls-4" d="M840.36,149.6v6.13l2.87-3h2.69l-3.13,3,3.48,5.24h-2.76l-2.27-3.7-.88.85V161h-2.27V149.6Z" transform="translate(-766.01 -111.9)"/><path class="cls-4" d="M849.4,149.6v1.87h-2.27V149.6Zm0,3.15V161h-2.27v-8.28Z" transform="translate(-766.01 -111.9)"/><path class="cls-4" d="M859,155.87V161h-2.27v-4.69c0-1.36-.4-2-1.45-2-1.41,0-1.77.93-1.77,2.4V161h-2.27v-8.28h2.16v1.15h0a2.9,2.9,0,0,1,2.55-1.37C858,152.53,859,153.55,859,155.87Z" transform="translate(-766.01 -111.9)"/><path class="cls-4" d="M866.44,153.85h0v-1.1h2.16v7.76c0,2.15-1.24,3.65-4.27,3.65-1.92,0-3.57-.94-3.66-2.65H863a1.52,1.52,0,0,0,1.7,1.13c1.17,0,1.82-.73,1.82-2v-1.13h0a2.77,2.77,0,0,1-2.48,1.28c-2.38,0-3.54-1.75-3.54-4.17,0-2.11,1.2-4.09,3.56-4.09A2.58,2.58,0,0,1,866.44,153.85Zm-1.9,5.22c1.23,0,1.93-1,1.93-2.3s-.35-2.53-2-2.53c-1.17,0-1.82,1-1.82,2.35S863.22,159.07,864.54,159.07Z" transform="translate(-766.01 -111.9)"/><path class="cls-4" d="M875.4,161v-6.76H874v-1.52h1.36v-.61c0-1.73,1.18-2.54,2.77-2.54.16,0,.53,0,1.2.06v1.7c-.29,0-.58-.05-.82-.05-.62,0-.88.26-.88,1v.48h1.57v1.52h-1.57V161Z" transform="translate(-766.01 -111.9)"/><path class="cls-4" d="M888.54,156.9a4.28,4.28,0,1,1-4.29-4.37A4.07,4.07,0,0,1,888.54,156.9Zm-4.29,2.64c1.34,0,2-1,2-2.64,0-1.35-.47-2.66-2-2.66-1.26,0-2,1-2,2.66S883,159.54,884.25,159.54Z" transform="translate(-766.01 -111.9)"/><path class="cls-4" d="M895.34,152.61v2.11a3.86,3.86,0,0,0-.82-.08c-1.65,0-2.24,1.17-2.24,2.66V161H890v-8.28h2.16v1.54h0a2.9,2.9,0,0,1,2.64-1.76A1.48,1.48,0,0,1,895.34,152.61Z" transform="translate(-766.01 -111.9)"/><path class="cls-4" d="M902.15,152.75l1.87,5.67h0l1.8-5.67h2.36l-3.46,9.32a2.61,2.61,0,0,1-2.82,1.87,12.65,12.65,0,0,1-1.42-.08V162c.48,0,.88.08,1.2.08a1,1,0,0,0,1-1,1.46,1.46,0,0,0-.1-.52l-2.91-7.76Z" transform="translate(-766.01 -111.9)"/><path class="cls-4" d="M917.29,156.9a4.28,4.28,0,1,1-4.29-4.37A4.06,4.06,0,0,1,917.29,156.9ZM913,159.54c1.35,0,2-1,2-2.64,0-1.35-.47-2.66-2-2.66-1.26,0-2,1-2,2.66S911.7,159.54,913,159.54Z" transform="translate(-766.01 -111.9)"/><path class="cls-4" d="M921,152.75v4.69c0,1.27.34,2,1.46,2s1.76-.72,1.76-2.36v-4.35h2.27V161h-2.16v-1.16h-.05a2.9,2.9,0,0,1-2.54,1.38c-2.16,0-3-1.09-3-3.36v-5.14Z" transform="translate(-766.01 -111.9)"/><path class="cls-4" d="M935.77,152.43a3,3,0,0,1-1.39,2.72l-.53.39a2.1,2.1,0,0,0-1,1.6v.46H930.7v-.46a3.18,3.18,0,0,1,1.42-2.81c.75-.57,1.14-.92,1.14-1.69a1.25,1.25,0,0,0-1.36-1.44c-1.06,0-1.64.81-1.65,2.08h-2.36a3.77,3.77,0,0,1,3.89-3.95C934.75,149.33,935.77,151.15,935.77,152.43ZM933,158.56V161h-2.51v-2.47Z" transform="translate(-766.01 -111.9)"/><path class="cls-4" d="M942.39,149.33l-4.46,12H936.1l4.47-12Z" transform="translate(-766.01 -111.9)"/><path class="cls-4" d="M948.22,149.6c3.17,0,5.21,2.05,5.21,5.65s-1.95,5.78-5.15,5.78h-5V149.6Zm-.16,9.31c1.57,0,2.86-1,2.86-3.44,0-2.72-1.2-3.76-3.3-3.76h-1.79v7.2Z" transform="translate(-766.01 -111.9)"/><path class="cls-4" d="M963.24,156.9a4.28,4.28,0,1,1-4.29-4.37A4.06,4.06,0,0,1,963.24,156.9ZM959,159.54c1.35,0,2-1,2-2.64,0-1.35-.47-2.66-2-2.66-1.27,0-2,1-2,2.66S957.66,159.54,959,159.54Z" transform="translate(-766.01 -111.9)"/><path class="cls-4" d="M970.63,152.75l1.87,5.67h0l1.8-5.67h2.36l-3.46,9.32a2.61,2.61,0,0,1-2.82,1.87,12.65,12.65,0,0,1-1.42-.08V162c.48,0,.88.08,1.2.08a1,1,0,0,0,1-1,1.46,1.46,0,0,0-.1-.52l-2.91-7.76Z" transform="translate(-766.01 -111.9)"/><path class="cls-4" d="M985.77,156.9a4.28,4.28,0,1,1-4.29-4.37A4.07,4.07,0,0,1,985.77,156.9Zm-4.29,2.64c1.34,0,2-1,2-2.64,0-1.35-.47-2.66-2-2.66-1.26,0-2,1-2,2.66S980.18,159.54,981.48,159.54Z" transform="translate(-766.01 -111.9)"/><path class="cls-4" d="M989.51,152.75v4.69c0,1.27.34,2,1.46,2s1.76-.72,1.76-2.36v-4.35H995V161h-2.16v-1.16h-.05a2.9,2.9,0,0,1-2.54,1.38c-2.16,0-3-1.09-3-3.36v-5.14Z" transform="translate(-766.01 -111.9)"/><path class="cls-4" d="M779.42,165.6v4.3h.05a2.88,2.88,0,0,1,2.43-1.37c2.1,0,3,1,3,3.33V177h-2.28v-4.71c0-1.34-.4-2-1.45-2-1.39,0-1.76.91-1.76,2.37V177h-2.28V165.6Z" transform="translate(-766.01 -111.9)"/><path class="cls-4" d="M794.06,170.88v4.39a4.11,4.11,0,0,0,.29,1.76H792a3.66,3.66,0,0,1-.16-.8,3.74,3.74,0,0,1-2.78,1c-1.7,0-2.82-.88-2.82-2.48a2.23,2.23,0,0,1,1.91-2.34c.84-.22,1.92-.27,2.62-.41s1-.37,1-.87c0-.94-.69-1.1-1.46-1.1-.94,0-1.44.38-1.52,1.25h-2.27c.09-1.81,1.58-2.77,3.9-2.77S794.06,169.34,794.06,170.88ZM790,175.73a1.66,1.66,0,0,0,1.84-1.87V173a2.69,2.69,0,0,1-1.38.4c-1.17.14-1.86.43-1.86,1.29C788.55,175.33,789,175.73,790,175.73Z" transform="translate(-766.01 -111.9)"/><path class="cls-4" d="M797.42,168.75l1.74,5.65h0l1.75-5.65h2.26L800.39,177h-2.52L795,168.75Z" transform="translate(-766.01 -111.9)"/><path class="cls-4" d="M811.8,171.55A5.63,5.63,0,0,1,812,173l0,.43h-6c.06,1.43.77,2.1,2,2.1a1.87,1.87,0,0,0,1.8-1.08h2a3.7,3.7,0,0,1-3.87,2.79,4,4,0,0,1-4.22-4.35,4.14,4.14,0,0,1,4.22-4.37A3.81,3.81,0,0,1,811.8,171.55Zm-2.09.45c-.23-1.25-.77-1.76-1.83-1.76A1.77,1.77,0,0,0,806,172Z" transform="translate(-766.01 -111.9)"/><path class="cls-4" d="M824.81,171.17h-2.16c-.06-.8-.61-1.12-1.55-1.12s-1.27.27-1.27.77.5.8,1.78,1.05a5.7,5.7,0,0,1,2.78,1,1.84,1.84,0,0,1,.64,1.49c0,2.13-1.84,2.88-3.77,2.88-2.26,0-3.83-1-3.89-2.91h2.16c0,.93.8,1.39,1.74,1.39.77,0,1.49-.34,1.49-1.06s-.7-.89-2.5-1.26-2.7-1.06-2.7-2.23c0-1.76,1.28-2.65,3.6-2.65S824.67,169.45,824.81,171.17Z" transform="translate(-766.01 -111.9)"/><path class="cls-4" d="M828.63,168.75v4.69c0,1.27.34,2,1.46,2s1.76-.72,1.76-2.36v-4.35h2.27V177H832v-1.16h-.05a2.9,2.9,0,0,1-2.54,1.38c-2.16,0-3-1.09-3-3.36v-5.14Z" transform="translate(-766.01 -111.9)"/><path class="cls-4" d="M841.61,169.85h0v-1.1h2.16v7.76c0,2.15-1.25,3.65-4.27,3.65-1.92,0-3.57-.94-3.67-2.65h2.26a1.52,1.52,0,0,0,1.7,1.13c1.17,0,1.82-.73,1.82-2v-1.13h0a2.77,2.77,0,0,1-2.48,1.28c-2.39,0-3.54-1.75-3.54-4.17,0-2.11,1.2-4.09,3.56-4.09A2.58,2.58,0,0,1,841.61,169.85Zm-1.9,5.22c1.23,0,1.93-1,1.93-2.3s-.35-2.53-1.95-2.53c-1.17,0-1.83,1-1.83,2.35S838.39,175.07,839.71,175.07Z" transform="translate(-766.01 -111.9)"/><path class="cls-4" d="M851.39,169.85h0v-1.1h2.16v7.76c0,2.15-1.25,3.65-4.28,3.65-1.92,0-3.56-.94-3.66-2.65h2.26a1.51,1.51,0,0,0,1.69,1.13c1.17,0,1.83-.73,1.83-2v-1.13h0a2.79,2.79,0,0,1-2.49,1.28c-2.38,0-3.53-1.75-3.53-4.17,0-2.11,1.2-4.09,3.55-4.09A2.6,2.6,0,0,1,851.39,169.85Zm-1.91,5.22c1.23,0,1.94-1,1.94-2.3s-.35-2.53-2-2.53c-1.16,0-1.82,1-1.82,2.35S848.17,175.07,849.48,175.07Z" transform="translate(-766.01 -111.9)"/><path class="cls-4" d="M863.07,171.55a6,6,0,0,1,.19,1.46l0,.43h-6c.07,1.43.77,2.1,2,2.1a1.89,1.89,0,0,0,1.81-1.08h2a3.71,3.71,0,0,1-3.87,2.79A4,4,0,0,1,855,172.9a4.15,4.15,0,0,1,4.23-4.37A3.81,3.81,0,0,1,863.07,171.55ZM861,172c-.22-1.25-.77-1.76-1.82-1.76a1.78,1.78,0,0,0-1.88,1.76Z" transform="translate(-766.01 -111.9)"/><path class="cls-4" d="M871.63,171.17h-2.17c-.06-.8-.6-1.12-1.55-1.12s-1.26.27-1.26.77.49.8,1.77,1.05a5.75,5.75,0,0,1,2.79,1,1.87,1.87,0,0,1,.64,1.49c0,2.13-1.84,2.88-3.78,2.88-2.25,0-3.82-1-3.89-2.91h2.16c0,.93.8,1.39,1.75,1.39.77,0,1.49-.34,1.49-1.06s-.71-.89-2.5-1.26-2.7-1.06-2.7-2.23c0-1.76,1.28-2.65,3.6-2.65S871.48,169.45,871.63,171.17Z" transform="translate(-766.01 -111.9)"/><path class="cls-4" d="M876.06,166.27v2.48h1.66v1.52h-1.66v4.1c0,.77.19,1,1,1a3.65,3.65,0,0,0,.7-.06V177a8.18,8.18,0,0,1-1.34.08c-1.72,0-2.6-.53-2.6-2v-4.85h-1.37v-1.52h1.37v-2.48Z" transform="translate(-766.01 -111.9)"/><path class="cls-4" d="M881.14,165.6v1.87h-2.27V165.6Zm0,3.15V177h-2.27v-8.28Z" transform="translate(-766.01 -111.9)"/><path class="cls-4" d="M891.24,172.9a4.28,4.28,0,1,1-4.29-4.37A4.06,4.06,0,0,1,891.24,172.9ZM887,175.54c1.35,0,2-1,2-2.64,0-1.35-.47-2.66-2-2.66-1.27,0-2,1-2,2.66S885.66,175.54,887,175.54Z" transform="translate(-766.01 -111.9)"/><path class="cls-4" d="M900.47,171.87V177H898.2v-4.69c0-1.36-.4-2-1.46-2-1.4,0-1.76.93-1.76,2.4V177h-2.27v-8.28h2.16v1.15h0a2.9,2.9,0,0,1,2.54-1.37C899.56,168.53,900.47,169.55,900.47,171.87Z" transform="translate(-766.01 -111.9)"/><path class="cls-4" d="M909.24,171.17h-2.16c-.06-.8-.61-1.12-1.55-1.12s-1.27.27-1.27.77.5.8,1.78,1.05a5.8,5.8,0,0,1,2.79,1,1.87,1.87,0,0,1,.64,1.49c0,2.13-1.85,2.88-3.78,2.88-2.26,0-3.83-1-3.89-2.91H904c0,.93.8,1.39,1.74,1.39.77,0,1.49-.34,1.49-1.06s-.7-.89-2.49-1.26-2.71-1.06-2.71-2.23c0-1.76,1.28-2.65,3.6-2.65S909.1,169.45,909.24,171.17Z" transform="translate(-766.01 -111.9)"/><path class="cls-4" d="M915.73,177v-6.76h-1.36v-1.52h1.36v-.61c0-1.73,1.19-2.54,2.77-2.54.16,0,.53,0,1.2.06v1.7a8,8,0,0,0-.81-.05c-.63,0-.88.26-.88,1v.48h1.57v1.52H918V177Z" transform="translate(-766.01 -111.9)"/><path class="cls-4" d="M928.87,172.9a4.28,4.28,0,1,1-4.29-4.37A4.06,4.06,0,0,1,928.87,172.9Zm-4.29,2.64c1.35,0,2-1,2-2.64,0-1.35-.46-2.66-2-2.66-1.27,0-2,1-2,2.66S923.29,175.54,924.58,175.54Z" transform="translate(-766.01 -111.9)"/><path class="cls-4" d="M935.67,168.61v2.11a3.69,3.69,0,0,0-.81-.08c-1.65,0-2.25,1.17-2.25,2.66V177h-2.27v-8.28h2.16v1.54h0a2.93,2.93,0,0,1,2.65-1.76A1.41,1.41,0,0,1,935.67,168.61Z" transform="translate(-766.01 -111.9)"/><path class="cls-4" d="M779.48,181.6v1.87h-2.27V181.6Zm0,3.15V193h-2.27v-8.28Z" transform="translate(-766.01 -111.9)"/><path class="cls-4" d="M788.46,185.9a3,3,0,0,1,2.51-1.37,2.67,2.67,0,0,1,3,2.94V193h-2.27v-4.79c0-1.09-.16-1.92-1.39-1.92s-1.52.75-1.52,2.08V193h-2.28v-4.89c0-1.07-.16-1.82-1.37-1.82-.53,0-1.54.37-1.54,1.89V193h-2.27v-8.28h2.14v1.12h0a3,3,0,0,1,2.53-1.34A2.41,2.41,0,0,1,788.46,185.9Z" transform="translate(-766.01 -111.9)"/><path class="cls-4" d="M804.19,189c0,2.27-1.25,4.27-3.64,4.27a3,3,0,0,1-2.48-1.25h0v3.94h-2.27V184.75h2.16v1.06h0a2.73,2.73,0,0,1,2.47-1.28C802.94,184.53,804.19,186.51,804.19,189ZM800,191.54c1.4,0,2-1.16,2-2.63,0-1.26-.48-2.67-2-2.67-1.24,0-1.95,1-1.95,2.67C798,190.4,798.57,191.54,800,191.54Z" transform="translate(-766.01 -111.9)"/><path class="cls-4" d="M810.87,184.61v2.11a3.69,3.69,0,0,0-.81-.08c-1.65,0-2.24,1.17-2.24,2.66V193h-2.28v-8.28h2.17v1.54h0a2.9,2.9,0,0,1,2.64-1.76A1.41,1.41,0,0,1,810.87,184.61Z" transform="translate(-766.01 -111.9)"/><path class="cls-4" d="M819.79,188.9a4.29,4.29,0,1,1-4.29-4.37A4.07,4.07,0,0,1,819.79,188.9Zm-4.29,2.64c1.34,0,2-1,2-2.64,0-1.35-.47-2.66-2-2.66-1.26,0-2,1-2,2.66S814.2,191.54,815.5,191.54Z" transform="translate(-766.01 -111.9)"/><path class="cls-4" d="M822.86,184.75l1.74,5.65h0l1.75-5.65h2.25l-2.8,8.28H823.3l-2.83-8.28Z" transform="translate(-766.01 -111.9)"/><path class="cls-4" d="M831.91,181.6v1.87h-2.27V181.6Zm0,3.15V193h-2.27v-8.28Z" transform="translate(-766.01 -111.9)"/><path class="cls-4" d="M840.49,184.75v1.71l-4.3,4.85h4.6V193h-7.6v-1.72l4.31-4.85h-4v-1.71Z" transform="translate(-766.01 -111.9)"/><path class="cls-4" d="M849.44,186.88v4.39a4.29,4.29,0,0,0,.28,1.76h-2.3a3.16,3.16,0,0,1-.16-.8,3.76,3.76,0,0,1-2.79,1c-1.69,0-2.81-.88-2.81-2.48a2.22,2.22,0,0,1,1.9-2.34c.85-.22,1.92-.27,2.63-.41s1-.37,1-.87c0-.94-.69-1.1-1.45-1.1-1,0-1.45.38-1.53,1.25h-2.27c.1-1.81,1.59-2.77,3.91-2.77S849.44,185.34,849.44,186.88Zm-4.12,4.85a1.66,1.66,0,0,0,1.84-1.87V189a2.68,2.68,0,0,1-1.37.4c-1.17.14-1.86.43-1.86,1.29C843.93,191.33,844.33,191.73,845.32,191.73Z" transform="translate(-766.01 -111.9)"/><path class="cls-4" d="M854.07,182.27v2.48h1.67v1.52h-1.67v4.1c0,.77.19,1,1,1a3.69,3.69,0,0,0,.71-.06V193a8.31,8.31,0,0,1-1.35.08c-1.71,0-2.59-.53-2.59-2v-4.85h-1.38v-1.52h1.38v-2.48Z" transform="translate(-766.01 -111.9)"/><path class="cls-4" d="M859.16,181.6v1.87h-2.27V181.6Zm0,3.15V193h-2.27v-8.28Z" transform="translate(-766.01 -111.9)"/><path class="cls-4" d="M869.26,188.9a4.28,4.28,0,1,1-4.29-4.37A4.07,4.07,0,0,1,869.26,188.9ZM865,191.54c1.34,0,2-1,2-2.64,0-1.35-.47-2.66-2-2.66-1.26,0-2,1-2,2.66S863.67,191.54,865,191.54Z" transform="translate(-766.01 -111.9)"/><path class="cls-4" d="M878.49,187.87V193h-2.27v-4.69c0-1.36-.4-2-1.46-2-1.41,0-1.76.93-1.76,2.4V193h-2.27v-8.28h2.16v1.15h.05a2.9,2.9,0,0,1,2.54-1.37C877.58,184.53,878.49,185.55,878.49,187.87Z" transform="translate(-766.01 -111.9)"/><path class="cls-4" d="M887.74,184.43a3,3,0,0,1-1.39,2.72l-.53.39a2.11,2.11,0,0,0-1,1.6v.46h-2.16v-.46a3.18,3.18,0,0,1,1.43-2.81c.75-.57,1.14-.92,1.14-1.69a1.26,1.26,0,0,0-1.37-1.44c-1.05,0-1.63.81-1.64,2.08h-2.36a3.77,3.77,0,0,1,3.89-3.95C886.71,181.33,887.74,183.15,887.74,184.43ZM885,190.56V193h-2.51v-2.47Z" transform="translate(-766.01 -111.9)"/><path class="cls-4" d="M778.6,197.6V209h-1.09V197.6Z" transform="translate(-766.01 -111.9)"/><path class="cls-4" d="M781.34,209v-7.42h-1.41v-.84h1.41V200c0-1.57.51-2.37,2-2.37a5.1,5.1,0,0,1,.84.06v.87a4.07,4.07,0,0,0-.74-.08c-.91,0-1.1.46-1.1,1.37v1H784v.84h-1.63V209Z" transform="translate(-766.01 -111.9)"/><path class="cls-4" d="M789.53,200.77l2.72,7,2.54-7h1l-3.58,9.52a4.19,4.19,0,0,1-.77,1.36,1.78,1.78,0,0,1-1.36.43,2.66,2.66,0,0,1-.82-.08v-.85a3.48,3.48,0,0,0,.69.08,1.13,1.13,0,0,0,1-.4,5.89,5.89,0,0,0,.83-1.84l-3.29-8.22Z" transform="translate(-766.01 -111.9)"/><path class="cls-4" d="M804.19,204.9c0,2.41-1.43,4.37-3.91,4.37s-3.9-2-3.9-4.37,1.42-4.37,3.9-4.37S804.19,202.53,804.19,204.9Zm-3.91,3.52c1.91,0,2.9-1.76,2.9-3.52s-1-3.52-2.91-3.52-2.89,1.71-2.89,3.52S798.41,208.42,800.28,208.42Z" transform="translate(-766.01 -111.9)"/><path class="cls-4" d="M806.68,200.77v5.17c0,1.44.4,2.48,2.19,2.48s2.5-1.6,2.5-3.33v-4.32h1V209h-.93v-1.49h0a3.07,3.07,0,0,1-2.85,1.73c-2.08,0-2.9-1.19-2.9-3.14v-5.36Z" transform="translate(-766.01 -111.9)"/><path class="cls-4" d="M825.42,203.66V209h-1v-5.17c0-1.62-.64-2.48-2.1-2.48a2.63,2.63,0,0,0-2.59,2.91V209h-1v-8.26h1v1.42h0a2.82,2.82,0,0,1,2.66-1.66C824.52,200.53,825.42,201.55,825.42,203.66Z" transform="translate(-766.01 -111.9)"/><path class="cls-4" d="M834.27,204.93v.24h-6.36c0,1.62.88,3.25,2.72,3.25a2.51,2.51,0,0,0,2.6-2.12h1a3.36,3.36,0,0,1-3.6,3c-2.48,0-3.73-1.84-3.73-4.37,0-2.26,1.17-4.37,3.73-4.37C833,200.53,834.27,202.37,834.27,204.93Zm-1-.61a2.78,2.78,0,0,0-2.64-2.94c-1.44,0-2.48,1.15-2.71,2.94Z" transform="translate(-766.01 -111.9)"/><path class="cls-4" d="M842.57,204.93v.24h-6.35c0,1.62.88,3.25,2.72,3.25a2.5,2.5,0,0,0,2.59-2.12h1a3.37,3.37,0,0,1-3.6,3c-2.48,0-3.73-1.84-3.73-4.37,0-2.26,1.17-4.37,3.73-4.37C841.26,200.53,842.57,202.37,842.57,204.93Zm-1-.61a2.77,2.77,0,0,0-2.64-2.94c-1.44,0-2.48,1.15-2.7,2.94Z" transform="translate(-766.01 -111.9)"/><path class="cls-4" d="M851.19,197.6V209h-.92v-1.57h0a3.23,3.23,0,0,1-2.94,1.81c-2.45,0-3.71-1.92-3.71-4.37s1.21-4.37,3.71-4.37a2.94,2.94,0,0,1,2.86,1.8h0V197.6Zm-3.9,10.82c2,0,2.9-1.63,2.9-3.52s-.84-3.52-2.9-3.52c-1.91,0-2.71,1.77-2.71,3.52S845.42,208.42,847.29,208.42Z" transform="translate(-766.01 -111.9)"/><path class="cls-4" d="M863.85,203.18v4.39a.53.53,0,0,0,.59.61.66.66,0,0,0,.32-.07V209a2.79,2.79,0,0,1-.64.07c-.88,0-1.2-.39-1.2-1.4v0h0a3.14,3.14,0,0,1-3,1.68c-1.63,0-2.77-.84-2.77-2.42a2,2,0,0,1,.82-1.78c.54-.38,1.21-.62,3.2-.83,1.18-.13,1.71-.18,1.71-1.17,0-1.25-.8-1.69-2.16-1.69s-2.16.65-2.21,1.92h-1c.12-1.83,1.3-2.77,3.36-2.77S863.85,201.55,863.85,203.18Zm-1,1.33c-.13.23-.5.32-1,.4s-1.52.21-2,.34c-.81.21-1.63.54-1.63,1.54a1.71,1.71,0,0,0,1.84,1.63,2.66,2.66,0,0,0,2.88-2.58v-1.33Z" transform="translate(-766.01 -111.9)"/><path class="cls-4" d="M872.55,203.66V209h-1v-5.17c0-1.62-.64-2.48-2.1-2.48a2.62,2.62,0,0,0-2.59,2.91V209h-1v-8.26h1v1.42h0a2.8,2.8,0,0,1,2.66-1.66C871.66,200.53,872.55,201.55,872.55,203.66Z" transform="translate(-766.01 -111.9)"/><path class="cls-4" d="M874.6,200.77l2.72,7,2.55-7h1l-3.58,9.52a4.19,4.19,0,0,1-.77,1.36,1.78,1.78,0,0,1-1.36.43,2.69,2.69,0,0,1-.82-.08v-.85a3.48,3.48,0,0,0,.69.08,1.11,1.11,0,0,0,1-.4,5.89,5.89,0,0,0,.83-1.84l-3.29-8.22Z" transform="translate(-766.01 -111.9)"/><path class="cls-4" d="M893.15,203.36h-1a2.24,2.24,0,0,0-2.34-2c-1.92,0-2.9,1.77-2.9,3.52s1,3.52,2.9,3.52a2.48,2.48,0,0,0,2.4-2.36h1a3.34,3.34,0,0,1-3.41,3.21c-2.48,0-3.9-2-3.9-4.37s1.5-4.37,3.9-4.37A3.08,3.08,0,0,1,893.15,203.36Z" transform="translate(-766.01 -111.9)"/><path class="cls-4" d="M895.61,197.6v4.59h0a2.81,2.81,0,0,1,2.66-1.66c2.11,0,3,1,3,3.15V209h-1v-5.19c0-1.65-.69-2.46-2.1-2.46a2.63,2.63,0,0,0-2.59,2.91V209h-1V197.6Z" transform="translate(-766.01 -111.9)"/><path class="cls-4" d="M909.5,203.18v4.39c0,.38.17.61.59.61a.69.69,0,0,0,.32-.07V209a2.79,2.79,0,0,1-.64.07c-.88,0-1.2-.39-1.2-1.4v0h0a3.16,3.16,0,0,1-3,1.68c-1.63,0-2.77-.84-2.77-2.42a2,2,0,0,1,.82-1.78c.54-.38,1.21-.62,3.2-.83,1.18-.13,1.71-.18,1.71-1.17,0-1.25-.8-1.69-2.16-1.69s-2.16.65-2.21,1.92h-1c.11-1.83,1.3-2.77,3.36-2.77S909.5,201.55,909.5,203.18Zm-1,1.33c-.13.23-.5.32-1,.4s-1.52.21-2,.34c-.82.21-1.63.54-1.63,1.54a1.71,1.71,0,0,0,1.84,1.63,2.66,2.66,0,0,0,2.88-2.58v-1.33Z" transform="translate(-766.01 -111.9)"/><path class="cls-4" d="M918.2,203.66V209h-1v-5.17c0-1.62-.64-2.48-2.09-2.48a2.63,2.63,0,0,0-2.6,2.91V209h-1v-8.26h1v1.42h0a2.79,2.79,0,0,1,2.65-1.66C917.31,200.53,918.2,201.55,918.2,203.66Z" transform="translate(-766.01 -111.9)"/><path class="cls-4" d="M926,202.19h0v-1.42h1v7.62c0,2.6-1.15,3.93-3.65,3.93-1.84,0-3.33-.88-3.44-2.49h1c.18,1,1.07,1.65,2.42,1.65,1.89,0,2.65-1.13,2.65-3.09v-1.16h0a2.82,2.82,0,0,1-2.62,1.7c-2.48,0-3.73-1.68-3.73-4.24,0-2.39,1.44-4.16,3.73-4.16A2.87,2.87,0,0,1,926,202.19Zm-2.62,5.89c1.64,0,2.65-1.49,2.65-3.28s-.76-3.42-2.67-3.42c-1.71,0-2.7,1.45-2.7,3.42C920.7,206.48,921.56,208.08,923.42,208.08Z" transform="translate(-766.01 -111.9)"/><path class="cls-4" d="M936,204.93v.24h-6.36c0,1.62.88,3.25,2.72,3.25a2.51,2.51,0,0,0,2.6-2.12h1a3.37,3.37,0,0,1-3.6,3c-2.48,0-3.73-1.84-3.73-4.37,0-2.26,1.17-4.37,3.73-4.37C934.63,200.53,936,202.37,936,204.93Zm-1-.61a2.78,2.78,0,0,0-2.64-2.94c-1.44,0-2.49,1.15-2.71,2.94Z" transform="translate(-766.01 -111.9)"/><path class="cls-4" d="M939.24,207.33V209a2.16,2.16,0,0,1-1.41,2.18v-.69a1.51,1.51,0,0,0,.74-1.36V209h-.67v-1.7Z" transform="translate(-766.01 -111.9)"/><path class="cls-4" d="M952.89,203.66V209h-1v-5.17c0-1.62-.64-2.48-2.1-2.48a2.63,2.63,0,0,0-2.59,2.91V209h-1v-8.26h1v1.42h0a2.82,2.82,0,0,1,2.66-1.66C952,200.53,952.89,201.55,952.89,203.66Z" transform="translate(-766.01 -111.9)"/><path class="cls-4" d="M962.19,204.9c0,2.41-1.43,4.37-3.91,4.37s-3.91-2-3.91-4.37,1.43-4.37,3.91-4.37S962.19,202.53,962.19,204.9Zm-3.91,3.52c1.9,0,2.9-1.76,2.9-3.52s-1-3.52-2.92-3.52-2.88,1.71-2.88,3.52S956.41,208.42,958.28,208.42Z" transform="translate(-766.01 -111.9)"/><path class="cls-4" d="M968.13,212.08V200.77h.93v1.56h0a3.07,3.07,0,0,1,2.95-1.8c2.5,0,3.71,2,3.71,4.37,0,2.54-1.36,4.37-3.69,4.37a3,3,0,0,1-2.89-1.81h0v4.62Zm1-7.18c0,1.76.8,3.52,2.9,3.52,1.9,0,2.71-1.79,2.71-3.52s-.77-3.52-2.73-3.52S969.14,202.56,969.14,204.9Z" transform="translate(-766.01 -111.9)"/><path class="cls-4" d="M981.4,201.66h-.16a2.83,2.83,0,0,0-2.91,3V209h-1v-8.26h.93v1.93h0a3,3,0,0,1,2.91-2h.21Z" transform="translate(-766.01 -111.9)"/><path class="cls-4" d="M989.47,204.9c0,2.41-1.43,4.37-3.91,4.37s-3.91-2-3.91-4.37,1.43-4.37,3.91-4.37S989.47,202.53,989.47,204.9Zm-3.91,3.52c1.9,0,2.9-1.76,2.9-3.52s-1-3.52-2.92-3.52-2.88,1.71-2.88,3.52S983.69,208.42,985.56,208.42Z" transform="translate(-766.01 -111.9)"/><path class="cls-4" d="M992,197.6v4.73h0a2.94,2.94,0,0,1,2.88-1.8c2.4,0,3.69,1.9,3.69,4.37s-1.23,4.37-3.71,4.37a3.06,3.06,0,0,1-2.94-1.81h0V209H991V197.6Zm0,7.28c0,1.83.84,3.54,2.9,3.54,1.91,0,2.71-1.79,2.71-3.52s-.82-3.52-2.72-3.52S992,202.86,992,204.88Z" transform="translate(-766.01 -111.9)"/><path class="cls-4" d="M1001.17,197.6V209h-1V197.6Z" transform="translate(-766.01 -111.9)"/><path class="cls-4" d="M1010.06,204.93v.24h-6.36c0,1.62.88,3.25,2.72,3.25a2.51,2.51,0,0,0,2.6-2.12h1a3.36,3.36,0,0,1-3.6,3c-2.48,0-3.73-1.84-3.73-4.37,0-2.26,1.17-4.37,3.73-4.37C1008.74,200.53,1010.06,202.37,1010.06,204.93Zm-1-.61a2.78,2.78,0,0,0-2.64-2.94c-1.44,0-2.48,1.15-2.71,2.94Z" transform="translate(-766.01 -111.9)"/><path class="cls-4" d="M1017.46,202.14a2.81,2.81,0,0,1,2.65-1.61c1.82,0,2.72,1,2.72,2.86V209h-1v-5.57c0-1.46-.61-2.08-2-2.08-1.56,0-2.24,1.15-2.24,3V209h-1v-5.59c0-1.33-.58-2.06-1.73-2.06-1.7,0-2.47,1.26-2.47,3V209h-1v-8.26h.93v1.39h0a2.82,2.82,0,0,1,2.71-1.63A2.28,2.28,0,0,1,1017.46,202.14Z" transform="translate(-766.01 -111.9)"/><path class="cls-4" d="M1026.39,207.33V209h-1.34v-1.7Zm-.13-9.73V201l-.24,5.17h-.61l-.24-5.17V197.6Z" transform="translate(-766.01 -111.9)"/><path class="cls-4" d="M777.45,213.6l2.59,10h0l2.79-10h1.36l2.8,10h0l2.61-10h1.09L787.6,225h-1.16l-2.89-10.23h0L780.63,225h-1.18l-3.17-11.43Z" transform="translate(-766.01 -111.9)"/><path class="cls-4" d="M798.41,220.93v.24h-6.35c0,1.62.88,3.25,2.72,3.25a2.5,2.5,0,0,0,2.59-2.12h1a3.37,3.37,0,0,1-3.6,3c-2.48,0-3.73-1.84-3.73-4.37,0-2.26,1.17-4.37,3.73-4.37C797.1,216.53,798.41,218.37,798.41,220.93Zm-1-.61a2.77,2.77,0,0,0-2.64-2.94c-1.44,0-2.48,1.15-2.7,2.94Z" transform="translate(-766.01 -111.9)"/><path class="cls-4" d="M805.21,216.77v5.17c0,1.44.4,2.48,2.19,2.48s2.5-1.6,2.5-3.33v-4.32h1V225H810v-1.49h0a3.07,3.07,0,0,1-2.85,1.73c-2.08,0-2.9-1.19-2.9-3.14v-5.36Z" transform="translate(-766.01 -111.9)"/><path class="cls-4" d="M819.5,219.66V225h-1v-5.17c0-1.62-.64-2.48-2.1-2.48a2.63,2.63,0,0,0-2.59,2.91V225h-1v-8.26h1v1.42h0a2.82,2.82,0,0,1,2.66-1.66C818.6,216.53,819.5,217.55,819.5,219.66Z" transform="translate(-766.01 -111.9)"/><path class="cls-4" d="M828.67,213.6V225h-.93v-1.57h0a3.25,3.25,0,0,1-3,1.81c-2.45,0-3.71-1.92-3.71-4.37s1.21-4.37,3.71-4.37a3,3,0,0,1,2.87,1.8h0V213.6Zm-3.91,10.82c2,0,2.9-1.63,2.9-3.52s-.83-3.52-2.9-3.52c-1.9,0-2.7,1.77-2.7,3.52S822.89,224.42,824.76,224.42Z" transform="translate(-766.01 -111.9)"/><path class="cls-4" d="M837.53,220.93v.24h-6.35c0,1.62.88,3.25,2.72,3.25a2.5,2.5,0,0,0,2.59-2.12h1a3.37,3.37,0,0,1-3.6,3c-2.48,0-3.73-1.84-3.73-4.37,0-2.26,1.17-4.37,3.73-4.37C836.22,216.53,837.53,218.37,837.53,220.93Zm-1-.61a2.77,2.77,0,0,0-2.64-2.94c-1.44,0-2.48,1.15-2.7,2.94Z" transform="translate(-766.01 -111.9)"/><path class="cls-4" d="M843,217.66h-.16a2.83,2.83,0,0,0-2.91,3V225h-1v-8.26h.93v1.93h0a3,3,0,0,1,2.91-2H843Z" transform="translate(-766.01 -111.9)"/><path class="cls-4" d="M849.88,219.18h-1c0-1.13-.88-1.8-2.16-1.8-.92,0-2,.36-2,1.42,0,.7.62,1.15,1.86,1.42l1,.24c.9.2,2.5.61,2.5,2.33s-1.78,2.48-3.31,2.48c-2,0-3.22-1-3.4-2.92h1a2.18,2.18,0,0,0,2.44,2.07c1.05,0,2.25-.48,2.25-1.55,0-.85-.62-1.27-1.95-1.56l-1.07-.24c-1.62-.37-2.39-1-2.39-2.22,0-1.68,1.65-2.32,3.11-2.32A2.7,2.7,0,0,1,849.88,219.18Z" transform="translate(-766.01 -111.9)"/><path class="cls-4" d="M853.22,214.29v2.48h1.68v.84h-1.68v5.64c0,.72.21,1,.93,1,.18,0,.47,0,.75,0v.86c-.38,0-.57,0-.89,0-1.33,0-1.79-.45-1.79-1.79v-5.72h-1.45v-.84h1.45v-2.48Z" transform="translate(-766.01 -111.9)"/><path class="cls-4" d="M862.65,219.18v4.39a.53.53,0,0,0,.59.61.66.66,0,0,0,.32-.07V225a2.79,2.79,0,0,1-.64.07c-.88,0-1.2-.39-1.2-1.4v0h0a3.14,3.14,0,0,1-3,1.68c-1.63,0-2.77-.84-2.77-2.42a2,2,0,0,1,.82-1.78c.54-.38,1.21-.62,3.2-.83,1.18-.13,1.71-.18,1.71-1.17,0-1.25-.8-1.69-2.16-1.69s-2.16.65-2.21,1.92h-1c.12-1.83,1.3-2.77,3.37-2.77S862.65,217.55,862.65,219.18Zm-1,1.33c-.13.23-.5.32-1,.4s-1.52.21-2,.34c-.81.21-1.63.54-1.63,1.54a1.71,1.71,0,0,0,1.84,1.63,2.66,2.66,0,0,0,2.88-2.58v-1.33Z" transform="translate(-766.01 -111.9)"/><path class="cls-4" d="M871.35,219.66V225h-1v-5.17c0-1.62-.64-2.48-2.1-2.48a2.62,2.62,0,0,0-2.59,2.91V225h-1v-8.26h1v1.42h0a2.8,2.8,0,0,1,2.66-1.66C870.46,216.53,871.35,217.55,871.35,219.66Z" transform="translate(-766.01 -111.9)"/><path class="cls-4" d="M880.52,213.6V225h-.93v-1.57h0a3.23,3.23,0,0,1-2.94,1.81c-2.45,0-3.72-1.92-3.72-4.37s1.22-4.37,3.72-4.37a2.94,2.94,0,0,1,2.86,1.8h0V213.6Zm-3.9,10.82c2,0,2.89-1.63,2.89-3.52s-.83-3.52-2.89-3.52-2.71,1.77-2.71,3.52S874.74,224.42,876.62,224.42Z" transform="translate(-766.01 -111.9)"/><path class="cls-4" d="M888.49,214.29v2.48h1.68v.84h-1.68v5.64c0,.72.21,1,.93,1,.17,0,.46,0,.75,0v.86c-.39,0-.58,0-.9,0-1.33,0-1.79-.45-1.79-1.79v-5.72H886v-.84h1.44v-2.48Z" transform="translate(-766.01 -111.9)"/><path class="cls-4" d="M892.62,213.6v4.59h0a2.79,2.79,0,0,1,2.65-1.66c2.12,0,3,1,3,3.15V225h-1v-5.19c0-1.65-.69-2.46-2.1-2.46a2.63,2.63,0,0,0-2.59,2.91V225h-1V213.6Z" transform="translate(-766.01 -111.9)"/><path class="cls-4" d="M906.51,219.18v4.39c0,.38.17.61.59.61a.69.69,0,0,0,.32-.07V225a2.79,2.79,0,0,1-.64.07c-.88,0-1.2-.39-1.2-1.4v0h0a3.14,3.14,0,0,1-3,1.68c-1.64,0-2.77-.84-2.77-2.42a2,2,0,0,1,.81-1.78c.55-.38,1.22-.62,3.2-.83,1.19-.13,1.72-.18,1.72-1.17,0-1.25-.8-1.69-2.16-1.69s-2.16.65-2.21,1.92h-1c.11-1.83,1.3-2.77,3.36-2.77S906.51,217.55,906.51,219.18Zm-1,1.33c-.12.23-.49.32-1,.4s-1.52.21-2,.34c-.82.21-1.64.54-1.64,1.54a1.72,1.72,0,0,0,1.85,1.63,2.66,2.66,0,0,0,2.88-2.58v-1.33Z" transform="translate(-766.01 -111.9)"/><path class="cls-4" d="M910.12,214.29v2.48h1.68v.84h-1.68v5.64c0,.72.21,1,.93,1,.17,0,.46,0,.75,0v.86c-.38,0-.58,0-.9,0-1.32,0-1.79-.45-1.79-1.79v-5.72h-1.44v-.84h1.44v-2.48Z" transform="translate(-766.01 -111.9)"/><path class="cls-4" d="M917.85,216.77l2.72,7,2.54-7h1l-3.58,9.52a4.19,4.19,0,0,1-.77,1.36,1.78,1.78,0,0,1-1.36.43,2.66,2.66,0,0,1-.82-.08v-.85a3.48,3.48,0,0,0,.69.08,1.13,1.13,0,0,0,1-.4,6.15,6.15,0,0,0,.83-1.84l-3.3-8.22Z" transform="translate(-766.01 -111.9)"/><path class="cls-4" d="M932.51,220.9c0,2.41-1.43,4.37-3.91,4.37s-3.91-2-3.91-4.37,1.43-4.37,3.91-4.37S932.51,218.53,932.51,220.9Zm-3.91,3.52c1.9,0,2.9-1.76,2.9-3.52s-1-3.52-2.92-3.52-2.88,1.71-2.88,3.52S926.73,224.42,928.6,224.42Z" transform="translate(-766.01 -111.9)"/><path class="cls-4" d="M935,216.77v5.17c0,1.44.4,2.48,2.19,2.48s2.5-1.6,2.5-3.33v-4.32h1V225h-.93v-1.49h0a3.07,3.07,0,0,1-2.85,1.73c-2.08,0-2.9-1.19-2.9-3.14v-5.36Z" transform="translate(-766.01 -111.9)"/><path class="cls-4" d="M947.29,216.77l2.11,7.07h0l2-7.07h1.13l2,7.07h0l2.12-7.07h1.07L955.16,225h-1.1l-2-6.95h0L950,225h-1.11l-2.66-8.26Z" transform="translate(-766.01 -111.9)"/><path class="cls-4" d="M966.3,220.9c0,2.41-1.43,4.37-3.91,4.37s-3.9-2-3.9-4.37,1.42-4.37,3.9-4.37S966.3,218.53,966.3,220.9Zm-3.91,3.52c1.91,0,2.9-1.76,2.9-3.52s-1-3.52-2.91-3.52-2.88,1.71-2.88,3.52S960.52,224.42,962.39,224.42Z" transform="translate(-766.01 -111.9)"/><path class="cls-4" d="M968.79,216.77v5.17c0,1.44.4,2.48,2.19,2.48s2.5-1.6,2.5-3.33v-4.32h1V225h-.93v-1.49h0a3.07,3.07,0,0,1-2.85,1.73c-2.08,0-2.9-1.19-2.9-3.14v-5.36Z" transform="translate(-766.01 -111.9)"/><path class="cls-4" d="M977.41,213.6V225h-1V213.6Z" transform="translate(-766.01 -111.9)"/><path class="cls-4" d="M986.62,213.6V225h-.93v-1.57h0a3.25,3.25,0,0,1-2.95,1.81c-2.45,0-3.71-1.92-3.71-4.37s1.21-4.37,3.71-4.37a3,3,0,0,1,2.87,1.8h0V213.6Zm-3.91,10.82c2,0,2.9-1.63,2.9-3.52s-.83-3.52-2.9-3.52c-1.9,0-2.7,1.77-2.7,3.52S980.84,224.42,982.71,224.42Z" transform="translate(-766.01 -111.9)"/><path class="cls-4" d="M777.24,244.08V232.77h.93v1.56h0a3.05,3.05,0,0,1,2.95-1.8c2.49,0,3.71,2,3.71,4.37,0,2.54-1.36,4.37-3.7,4.37a2.94,2.94,0,0,1-2.88-1.81h0v4.62Zm1-7.18c0,1.76.8,3.52,2.9,3.52,1.9,0,2.7-1.79,2.7-3.52s-.77-3.52-2.72-3.52S778.25,234.56,778.25,236.9Z" transform="translate(-766.01 -111.9)"/><path class="cls-4" d="M790.51,233.66h-.16a2.84,2.84,0,0,0-2.92,3V241h-1v-8.26h.93v1.93h0a3,3,0,0,1,2.92-2h.21Z" transform="translate(-766.01 -111.9)"/><path class="cls-4" d="M798.12,236.93v.24h-6.35c0,1.62.88,3.25,2.72,3.25a2.5,2.5,0,0,0,2.59-2.12h1a3.37,3.37,0,0,1-3.6,3c-2.48,0-3.73-1.84-3.73-4.37,0-2.26,1.17-4.37,3.73-4.37C796.81,232.53,798.12,234.37,798.12,236.93Zm-1-.61a2.77,2.77,0,0,0-2.64-2.94c-1.44,0-2.48,1.15-2.7,2.94Z" transform="translate(-766.01 -111.9)"/><path class="cls-4" d="M800,241v-7.42h-1.4v-.84H800V232c0-1.57.52-2.37,2-2.37a4.86,4.86,0,0,1,.83.06v.87a3.88,3.88,0,0,0-.73-.08c-.91,0-1.11.46-1.11,1.37v1h1.64v.84H801V241Z" transform="translate(-766.01 -111.9)"/><path class="cls-4" d="M810.57,236.93v.24h-6.35c0,1.62.88,3.25,2.72,3.25a2.5,2.5,0,0,0,2.59-2.12h1a3.37,3.37,0,0,1-3.6,3c-2.48,0-3.73-1.84-3.73-4.37,0-2.26,1.17-4.37,3.73-4.37C809.26,232.53,810.57,234.37,810.57,236.93Zm-1-.61a2.77,2.77,0,0,0-2.64-2.94c-1.44,0-2.48,1.15-2.7,2.94Z" transform="translate(-766.01 -111.9)"/><path class="cls-4" d="M816,233.66h-.16a2.83,2.83,0,0,0-2.91,3V241h-1v-8.26h.93v1.93h0a3,3,0,0,1,2.91-2H816Z" transform="translate(-766.01 -111.9)"/><path class="cls-4" d="M822.44,229.6V241h-1V229.6Z" transform="translate(-766.01 -111.9)"/><path class="cls-4" d="M831.77,236.9c0,2.41-1.42,4.37-3.9,4.37s-3.91-2-3.91-4.37,1.42-4.37,3.91-4.37S831.77,234.53,831.77,236.9Zm-3.9,3.52c1.9,0,2.89-1.76,2.89-3.52s-1-3.52-2.91-3.52S825,235.09,825,236.9,826,240.42,827.87,240.42Z" transform="translate(-766.01 -111.9)"/><path class="cls-4" d="M840.67,236.9c0,2.41-1.43,4.37-3.91,4.37s-3.9-2-3.9-4.37,1.42-4.37,3.9-4.37S840.67,234.53,840.67,236.9Zm-3.91,3.52c1.91,0,2.9-1.76,2.9-3.52s-1-3.52-2.91-3.52-2.89,1.71-2.89,3.52S834.89,240.42,836.76,240.42Z" transform="translate(-766.01 -111.9)"/><path class="cls-4" d="M843.18,229.6v7.17l4.57-4h1.35l-3.52,3,3.76,5.21h-1.27l-3.26-4.5-1.63,1.36V241h-1V229.6Z" transform="translate(-766.01 -111.9)"/><path class="cls-4" d="M851.19,229.6v1.61h-1V229.6Zm0,3.17V241h-1v-8.26Z" transform="translate(-766.01 -111.9)"/><path class="cls-4" d="M859.82,235.66V241h-1v-5.17c0-1.62-.64-2.48-2.1-2.48a2.63,2.63,0,0,0-2.59,2.91V241h-1v-8.26h1v1.42h0a2.82,2.82,0,0,1,2.66-1.66C858.92,232.53,859.82,233.55,859.82,235.66Z" transform="translate(-766.01 -111.9)"/><path class="cls-4" d="M867.66,234.19h0v-1.42h1v7.62c0,2.6-1.15,3.93-3.65,3.93-1.84,0-3.33-.88-3.44-2.49h1c.17,1,1.07,1.65,2.41,1.65,1.89,0,2.66-1.13,2.66-3.09v-1.16h0a2.82,2.82,0,0,1-2.63,1.7c-2.48,0-3.73-1.68-3.73-4.24,0-2.39,1.44-4.16,3.73-4.16A2.89,2.89,0,0,1,867.66,234.19ZM865,240.08c1.65,0,2.66-1.49,2.66-3.28s-.77-3.42-2.67-3.42c-1.72,0-2.71,1.45-2.71,3.42C862.31,238.48,863.18,240.08,865,240.08Z" transform="translate(-766.01 -111.9)"/><path class="cls-4" d="M881.35,235.18v4.39a.54.54,0,0,0,.6.61.69.69,0,0,0,.32-.07V241a2.79,2.79,0,0,1-.64.07c-.88,0-1.2-.39-1.2-1.4v0h0a3.14,3.14,0,0,1-3,1.68c-1.63,0-2.76-.84-2.76-2.42a2,2,0,0,1,.81-1.78c.55-.38,1.22-.62,3.2-.83,1.19-.13,1.72-.18,1.72-1.17,0-1.25-.8-1.69-2.16-1.69S876,234,876,235.3h-1c.11-1.83,1.29-2.77,3.36-2.77S881.35,233.55,881.35,235.18Zm-1,1.33c-.12.23-.49.32-1,.4s-1.52.21-2,.34c-.82.21-1.64.54-1.64,1.54a1.71,1.71,0,0,0,1.84,1.63,2.66,2.66,0,0,0,2.89-2.58v-1.33Z" transform="translate(-766.01 -111.9)"/><path class="cls-4" d="M885,230.29v2.48h1.68v.84H885v5.64c0,.72.21,1,.93,1,.17,0,.46,0,.75,0v.86c-.39,0-.58,0-.9,0-1.33,0-1.79-.45-1.79-1.79v-5.72h-1.44v-.84H884v-2.48Z" transform="translate(-766.01 -111.9)"/><path class="cls-4" d="M898.84,235.18v4.39a.53.53,0,0,0,.59.61.66.66,0,0,0,.32-.07V241a2.79,2.79,0,0,1-.64.07c-.88,0-1.2-.39-1.2-1.4v0h0a3.14,3.14,0,0,1-3,1.68c-1.63,0-2.77-.84-2.77-2.42a2,2,0,0,1,.82-1.78c.54-.38,1.22-.62,3.2-.83,1.19-.13,1.71-.18,1.71-1.17,0-1.25-.8-1.69-2.16-1.69s-2.16.65-2.21,1.92h-1c.11-1.83,1.29-2.77,3.36-2.77S898.84,233.55,898.84,235.18Zm-1,1.33c-.13.23-.49.32-1,.4s-1.52.21-2,.34c-.81.21-1.63.54-1.63,1.54a1.71,1.71,0,0,0,1.84,1.63,2.66,2.66,0,0,0,2.88-2.58v-1.33Z" transform="translate(-766.01 -111.9)"/><path class="cls-4" d="M905.54,232.77l2.12,7.07h0l2-7.07h1.13l2,7.07h0l2.11-7.07h1.08L913.42,241h-1.11l-2-6.95h0l-2,6.95h-1.1l-2.66-8.26Z" transform="translate(-766.01 -111.9)"/><path class="cls-4" d="M924.55,236.9c0,2.41-1.42,4.37-3.9,4.37s-3.91-2-3.91-4.37,1.43-4.37,3.91-4.37S924.55,234.53,924.55,236.9Zm-3.9,3.52c1.9,0,2.9-1.76,2.9-3.52s-1-3.52-2.92-3.52-2.88,1.71-2.88,3.52S918.78,240.42,920.65,240.42Z" transform="translate(-766.01 -111.9)"/><path class="cls-4" d="M930.14,233.66H930a2.84,2.84,0,0,0-2.92,3V241h-1v-8.26H927v1.93h0a3,3,0,0,1,2.91-2h.21Z" transform="translate(-766.01 -111.9)"/><path class="cls-4" d="M932.1,229.6v7.17l4.58-4H938l-3.53,3,3.77,5.21H937l-3.26-4.5-1.64,1.36V241h-1V229.6Z" transform="translate(-766.01 -111.9)"/><path class="cls-4" d="M940.12,229.6v1.61h-1V229.6Zm0,3.17V241h-1v-8.26Z" transform="translate(-766.01 -111.9)"/><path class="cls-4" d="M948.75,235.66V241h-1v-5.17c0-1.62-.64-2.48-2.1-2.48a2.62,2.62,0,0,0-2.59,2.91V241h-1v-8.26h1v1.42h0a2.81,2.81,0,0,1,2.66-1.66C947.85,232.53,948.75,233.55,948.75,235.66Z" transform="translate(-766.01 -111.9)"/><path class="cls-4" d="M956.58,234.19h0v-1.42h1v7.62c0,2.6-1.16,3.93-3.65,3.93-1.84,0-3.33-.88-3.44-2.49h1c.18,1,1.08,1.65,2.42,1.65,1.89,0,2.66-1.13,2.66-3.09v-1.16h0a2.8,2.8,0,0,1-2.62,1.7c-2.48,0-3.73-1.68-3.73-4.24,0-2.39,1.44-4.16,3.73-4.16A2.86,2.86,0,0,1,956.58,234.19ZM954,240.08c1.65,0,2.66-1.49,2.66-3.28s-.77-3.42-2.68-3.42c-1.71,0-2.7,1.45-2.7,3.42C951.24,238.48,952.1,240.08,954,240.08Z" transform="translate(-766.01 -111.9)"/><path class="cls-4" d="M968.44,244.08V232.77h.93v1.56h0a3,3,0,0,1,2.94-1.8c2.5,0,3.72,2,3.72,4.37,0,2.54-1.36,4.37-3.7,4.37a2.94,2.94,0,0,1-2.88-1.81h0v4.62Zm1-7.18c0,1.76.8,3.52,2.89,3.52,1.91,0,2.71-1.79,2.71-3.52s-.77-3.52-2.72-3.52S969.45,234.56,969.45,236.9Z" transform="translate(-766.01 -111.9)"/><path class="cls-4" d="M981.7,233.66h-.16a2.83,2.83,0,0,0-2.91,3V241h-1v-8.26h.93v1.93h0a3,3,0,0,1,2.92-2h.2Z" transform="translate(-766.01 -111.9)"/><path class="cls-4" d="M989.77,236.9c0,2.41-1.43,4.37-3.91,4.37s-3.9-2-3.9-4.37,1.42-4.37,3.9-4.37S989.77,234.53,989.77,236.9Zm-3.91,3.52c1.91,0,2.9-1.76,2.9-3.52s-1-3.52-2.91-3.52S983,235.09,983,236.9,984,240.42,985.86,240.42Z" transform="translate(-766.01 -111.9)"/><path class="cls-4" d="M992.87,230.29v2.48h1.68v.84h-1.68v5.64c0,.72.21,1,.93,1,.18,0,.46,0,.75,0v.86c-.38,0-.57,0-.89,0-1.33,0-1.8-.45-1.8-1.79v-5.72h-1.44v-.84h1.44v-2.48Z" transform="translate(-766.01 -111.9)"/><path class="cls-4" d="M1003.4,236.9c0,2.41-1.42,4.37-3.9,4.37s-3.91-2-3.91-4.37,1.42-4.37,3.91-4.37S1003.4,234.53,1003.4,236.9Zm-3.9,3.52c1.9,0,2.89-1.76,2.89-3.52s-1-3.52-2.91-3.52-2.88,1.71-2.88,3.52S997.62,240.42,999.5,240.42Z" transform="translate(-766.01 -111.9)"/><path class="cls-4" d="M1006.5,230.29v2.48h1.68v.84h-1.68v5.64c0,.72.21,1,.93,1,.18,0,.47,0,.75,0v.86c-.38,0-.57,0-.89,0-1.33,0-1.79-.45-1.79-1.79v-5.72h-1.45v-.84h1.45v-2.48Z" transform="translate(-766.01 -111.9)"/><path class="cls-4" d="M1009.78,232.77l2.72,7,2.55-7h1l-3.59,9.52a4.19,4.19,0,0,1-.77,1.36,1.78,1.78,0,0,1-1.36.43,2.62,2.62,0,0,1-.81-.08v-.85a3.46,3.46,0,0,0,.68.08,1.1,1.1,0,0,0,1-.4A5.8,5.8,0,0,0,1012,241l-3.3-8.22Z" transform="translate(-766.01 -111.9)"/><path class="cls-4" d="M1017.05,244.08V232.77h.92v1.56h0a3,3,0,0,1,2.94-1.8c2.5,0,3.72,2,3.72,4.37,0,2.54-1.37,4.37-3.7,4.37a2.94,2.94,0,0,1-2.88-1.81h0v4.62Zm1-7.18c0,1.76.81,3.52,2.9,3.52,1.91,0,2.71-1.79,2.71-3.52s-.77-3.52-2.72-3.52S1018.05,234.56,1018.05,236.9Z" transform="translate(-766.01 -111.9)"/><path class="cls-4" d="M1033.18,236.93v.24h-6.36c0,1.62.88,3.25,2.72,3.25a2.51,2.51,0,0,0,2.6-2.12h1a3.36,3.36,0,0,1-3.6,3c-2.48,0-3.73-1.84-3.73-4.37,0-2.26,1.17-4.37,3.73-4.37C1031.86,232.53,1033.18,234.37,1033.18,236.93Zm-1-.61a2.78,2.78,0,0,0-2.64-2.94c-1.44,0-2.48,1.15-2.71,2.94Z" transform="translate(-766.01 -111.9)"/><path class="cls-4" d="M783.53,251.18v4.39a.53.53,0,0,0,.59.61.66.66,0,0,0,.32-.07V257a2.79,2.79,0,0,1-.64.07c-.88,0-1.2-.39-1.2-1.4v0h0a3.14,3.14,0,0,1-3,1.68c-1.63,0-2.77-.84-2.77-2.42a2,2,0,0,1,.82-1.78c.54-.38,1.22-.62,3.2-.83,1.18-.13,1.71-.18,1.71-1.17,0-1.25-.8-1.69-2.16-1.69s-2.16.65-2.21,1.92h-1c.12-1.83,1.3-2.77,3.37-2.77S783.53,249.55,783.53,251.18Zm-1,1.33c-.13.23-.5.32-1,.4s-1.52.21-2,.34c-.81.21-1.63.54-1.63,1.54a1.71,1.71,0,0,0,1.84,1.63,2.66,2.66,0,0,0,2.88-2.58v-1.33Z" transform="translate(-766.01 -111.9)"/><path class="cls-4" d="M786.09,257v-7.42h-1.41v-.84h1.41V248c0-1.57.51-2.37,2-2.37a5,5,0,0,1,.83.06v.87a4,4,0,0,0-.74-.08c-.91,0-1.1.46-1.1,1.37v1h1.63v.84H787.1V257Z" transform="translate(-766.01 -111.9)"/><path class="cls-4" d="M791.29,246.29v2.48H793v.84h-1.68v5.64c0,.72.21,1,.93,1,.17,0,.46,0,.75,0v.86c-.38,0-.58,0-.9,0-1.33,0-1.79-.45-1.79-1.79v-5.72h-1.44v-.84h1.44v-2.48Z" transform="translate(-766.01 -111.9)"/><path class="cls-4" d="M801.37,252.93v.24H795c0,1.62.88,3.25,2.72,3.25a2.5,2.5,0,0,0,2.59-2.12h1a3.37,3.37,0,0,1-3.6,3c-2.48,0-3.73-1.84-3.73-4.37,0-2.26,1.17-4.37,3.73-4.37C800.06,248.53,801.37,250.37,801.37,252.93Zm-1-.61a2.77,2.77,0,0,0-2.64-2.94c-1.44,0-2.48,1.15-2.7,2.94Z" transform="translate(-766.01 -111.9)"/><path class="cls-4" d="M806.81,249.66h-.16a2.83,2.83,0,0,0-2.91,3V257h-1v-8.26h.93v1.93h0a3,3,0,0,1,2.91-2h.21Z" transform="translate(-766.01 -111.9)"/><path class="cls-4" d="M818.51,251.18v4.39c0,.38.17.61.59.61a.69.69,0,0,0,.32-.07V257a2.79,2.79,0,0,1-.64.07c-.88,0-1.2-.39-1.2-1.4v0h0a3.16,3.16,0,0,1-3,1.68c-1.64,0-2.77-.84-2.77-2.42a2,2,0,0,1,.81-1.78c.55-.38,1.22-.62,3.21-.83,1.18-.13,1.71-.18,1.71-1.17,0-1.25-.8-1.69-2.16-1.69s-2.16.65-2.21,1.92h-1c.11-1.83,1.3-2.77,3.36-2.77S818.51,249.55,818.51,251.18Zm-1,1.33c-.13.23-.5.32-1,.4s-1.52.21-2,.34c-.82.21-1.63.54-1.63,1.54a1.71,1.71,0,0,0,1.84,1.63,2.66,2.66,0,0,0,2.88-2.58v-1.33Z" transform="translate(-766.01 -111.9)"/><path class="cls-4" d="M821.54,245.6V257h-1V245.6Z" transform="translate(-766.01 -111.9)"/><path class="cls-4" d="M824.5,245.6V257h-1V245.6Z" transform="translate(-766.01 -111.9)"/><path class="cls-4" d="M828.38,255.33V257a2.16,2.16,0,0,1-1.41,2.18v-.69a1.5,1.5,0,0,0,.73-1.36V257H827v-1.7Z" transform="translate(-766.01 -111.9)"/><path class="cls-4" d="M841.29,251.18h-1c0-1.13-.88-1.8-2.16-1.8-.93,0-2,.36-2,1.42,0,.7.62,1.15,1.85,1.42l1.06.24c.9.2,2.5.61,2.5,2.33s-1.78,2.48-3.31,2.48c-2,0-3.22-1-3.4-2.92h1a2.17,2.17,0,0,0,2.43,2.07c1.06,0,2.26-.48,2.26-1.55,0-.85-.62-1.27-2-1.56l-1.08-.24c-1.61-.37-2.38-1-2.38-2.22,0-1.68,1.65-2.32,3.11-2.32A2.7,2.7,0,0,1,841.29,251.18Z" transform="translate(-766.01 -111.9)"/><path class="cls-4" d="M850,252.93v.24h-6.36c0,1.62.88,3.25,2.73,3.25a2.5,2.5,0,0,0,2.59-2.12h1a3.37,3.37,0,0,1-3.6,3c-2.49,0-3.73-1.84-3.73-4.37,0-2.26,1.16-4.37,3.73-4.37C848.67,248.53,850,250.37,850,252.93Zm-1-.61a2.77,2.77,0,0,0-2.64-2.94c-1.44,0-2.48,1.15-2.71,2.94Z" transform="translate(-766.01 -111.9)"/><path class="cls-4" d="M858.28,252.93v.24h-6.35c0,1.62.88,3.25,2.72,3.25a2.5,2.5,0,0,0,2.59-2.12h1a3.37,3.37,0,0,1-3.6,3c-2.48,0-3.73-1.84-3.73-4.37,0-2.26,1.17-4.37,3.73-4.37C857,248.53,858.28,250.37,858.28,252.93Zm-1-.61a2.77,2.77,0,0,0-2.64-2.94c-1.44,0-2.48,1.15-2.7,2.94Z" transform="translate(-766.01 -111.9)"/><path class="cls-4" d="M860.66,245.6v1.61h-1V245.6Zm0,3.17V257h-1v-8.26Z" transform="translate(-766.01 -111.9)"/><path class="cls-4" d="M869.29,251.66V257h-1v-5.17c0-1.62-.64-2.48-2.09-2.48a2.63,2.63,0,0,0-2.6,2.91V257h-1v-8.26h1v1.42h0a2.82,2.82,0,0,1,2.66-1.66C868.39,248.53,869.29,249.55,869.29,251.66Z" transform="translate(-766.01 -111.9)"/><path class="cls-4" d="M877.13,250.19h0v-1.42h1v7.62c0,2.6-1.15,3.93-3.65,3.93-1.84,0-3.33-.88-3.44-2.49h1c.17,1,1.07,1.65,2.41,1.65,1.89,0,2.66-1.13,2.66-3.09v-1.16h0a2.82,2.82,0,0,1-2.63,1.7c-2.48,0-3.72-1.68-3.72-4.24,0-2.39,1.44-4.16,3.72-4.16A2.89,2.89,0,0,1,877.13,250.19Zm-2.63,5.89c1.65,0,2.66-1.49,2.66-3.28s-.77-3.42-2.67-3.42c-1.71,0-2.71,1.45-2.71,3.42C871.78,254.48,872.65,256.08,874.5,256.08Z" transform="translate(-766.01 -111.9)"/><path class="cls-4" d="M885.56,245.6v1.61h-1V245.6Zm0,3.17V257h-1v-8.26Z" transform="translate(-766.01 -111.9)"/><path class="cls-4" d="M893.45,251.18h-1c0-1.13-.88-1.8-2.16-1.8-.93,0-1.95.36-1.95,1.42,0,.7.62,1.15,1.85,1.42l1.06.24c.9.2,2.5.61,2.5,2.33s-1.78,2.48-3.32,2.48c-2,0-3.21-1-3.39-2.92h1a2.17,2.17,0,0,0,2.43,2.07c1.06,0,2.26-.48,2.26-1.55,0-.85-.62-1.27-2-1.56l-1.08-.24c-1.61-.37-2.38-1-2.38-2.22,0-1.68,1.65-2.32,3.1-2.32C892.2,248.53,893.39,249.5,893.45,251.18Z" transform="translate(-766.01 -111.9)"/><path class="cls-4" d="M900.65,245.6v4.73h0a2.94,2.94,0,0,1,2.88-1.8c2.4,0,3.7,1.9,3.7,4.37s-1.23,4.37-3.72,4.37a3.06,3.06,0,0,1-2.94-1.81h0V257h-.93V245.6Zm0,7.28c0,1.83.83,3.54,2.89,3.54s2.71-1.79,2.71-3.52-.82-3.52-2.72-3.52S900.65,250.86,900.65,252.88Z" transform="translate(-766.01 -111.9)"/><path class="cls-4" d="M915.77,252.93v.24h-6.35c0,1.62.88,3.25,2.72,3.25a2.5,2.5,0,0,0,2.59-2.12h1a3.37,3.37,0,0,1-3.6,3c-2.48,0-3.73-1.84-3.73-4.37,0-2.26,1.17-4.37,3.73-4.37C914.46,248.53,915.77,250.37,915.77,252.93Zm-1-.61a2.77,2.77,0,0,0-2.64-2.94c-1.44,0-2.48,1.15-2.7,2.94Z" transform="translate(-766.01 -111.9)"/><path class="cls-4" d="M918.15,245.6V257h-1V245.6Z" transform="translate(-766.01 -111.9)"/><path class="cls-4" d="M921.11,245.6v1.61h-1V245.6Zm0,3.17V257h-1v-8.26Z" transform="translate(-766.01 -111.9)"/><path class="cls-4" d="M930,252.93v.24h-6.35c0,1.62.88,3.25,2.72,3.25A2.5,2.5,0,0,0,929,254.3h1a3.37,3.37,0,0,1-3.6,3c-2.48,0-3.73-1.84-3.73-4.37,0-2.26,1.17-4.37,3.73-4.37C928.68,248.53,930,250.37,930,252.93Zm-1-.61a2.78,2.78,0,0,0-2.65-2.94c-1.44,0-2.48,1.15-2.7,2.94Z" transform="translate(-766.01 -111.9)"/><path class="cls-4" d="M931.54,248.77l2.6,7.25h0l2.56-7.25h1L934.68,257h-1.07l-3.19-8.26Z" transform="translate(-766.01 -111.9)"/><path class="cls-4" d="M939.78,245.6v1.61h-1V245.6Zm0,3.17V257h-1v-8.26Z" transform="translate(-766.01 -111.9)"/><path class="cls-4" d="M948.41,251.66V257h-1v-5.17c0-1.62-.64-2.48-2.1-2.48a2.63,2.63,0,0,0-2.59,2.91V257h-1v-8.26h1v1.42h0a2.82,2.82,0,0,1,2.66-1.66C947.51,248.53,948.41,249.55,948.41,251.66Z" transform="translate(-766.01 -111.9)"/><path class="cls-4" d="M956.25,250.19h0v-1.42h1v7.62c0,2.6-1.15,3.93-3.65,3.93-1.84,0-3.33-.88-3.44-2.49h1c.17,1,1.07,1.65,2.41,1.65,1.89,0,2.66-1.13,2.66-3.09v-1.16h0a2.82,2.82,0,0,1-2.63,1.7c-2.48,0-3.73-1.68-3.73-4.24,0-2.39,1.44-4.16,3.73-4.16A2.89,2.89,0,0,1,956.25,250.19Zm-2.63,5.89c1.65,0,2.66-1.49,2.66-3.28s-.77-3.42-2.67-3.42c-1.71,0-2.71,1.45-2.71,3.42C950.9,254.48,951.77,256.08,953.62,256.08Z" transform="translate(-766.01 -111.9)"/><path class="cls-4" d="M960.86,255.33V257h-1.35v-1.7Zm-.13-9.73V249l-.24,5.17h-.61l-.24-5.17V245.6Z" transform="translate(-766.01 -111.9)"/></svg>