<svg xmlns="http://www.w3.org/2000/svg" viewBox="0 0 175.96 60.87"><defs><style>.cls-1{fill:#a83f44;opacity:0.42;}.cls-2{fill:#e6eff3;stroke:#9e2a2f;stroke-miterlimit:10;}.cls-3{fill:#9e2a2f;}.cls-4{opacity:0.2;}.cls-5{fill:#f2f2f2;}</style></defs><g id="Layer_28" data-name="Layer 28"><path class="cls-1" d="M888,403.61,751.27,401c-2.28,0-4.07-1.53-4-3.31l1.48-44.08c.06-1.7,1.9-3.06,4.11-3.05l132.93,1c2.36,0,4.33,1.46,4.41,3.21l2,45.6C892.28,402.19,890.38,403.65,888,403.61Z" transform="translate(-716.25 -342.74)"/><rect class="cls-2" x="31.4" y="7.2" width="141.48" height="51.43" rx="3.8"/><path class="cls-3" d="M775.48,361.79a2.89,2.89,0,0,0-.27-.73,1.73,1.73,0,0,0-.49-.55,1.13,1.13,0,0,0-.71-.22,1.5,1.5,0,0,0-1.43,1.1,10.93,10.93,0,0,0-.43,3.65c0,.81,0,1.55.07,2.2a8.86,8.86,0,0,0,.28,1.69,2.38,2.38,0,0,0,.57,1.06,1.28,1.28,0,0,0,1,.37,1.32,1.32,0,0,0,.54-.13,1.72,1.72,0,0,0,.55-.4,2.27,2.27,0,0,0,.43-.68,2.53,2.53,0,0,0,.17-1v-1.38h-1.81v-2h4.43v7.32h-2v-1.26h0A2.84,2.84,0,0,1,775.1,372a3.7,3.7,0,0,1-1.66.34,4.17,4.17,0,0,1-2-.44,3,3,0,0,1-1.24-1.35,6.83,6.83,0,0,1-.6-2.25,28.27,28.27,0,0,1-.15-3.11,17.69,17.69,0,0,1,.22-3,5.73,5.73,0,0,1,.75-2.15,3.36,3.36,0,0,1,1.41-1.31,4.87,4.87,0,0,1,2.18-.43,4.13,4.13,0,0,1,3.23,1.11,4.62,4.62,0,0,1,1,3.18h-2.62A3.59,3.59,0,0,0,775.48,361.79Z" transform="translate(-716.25 -342.74)"/><path class="cls-3" d="M779.9,364.68a4.59,4.59,0,0,1,.68-1.68,3.08,3.08,0,0,1,1.25-1,4.59,4.59,0,0,1,1.89-.35,4.84,4.84,0,0,1,1.95.31,2.77,2.77,0,0,1,1.24,1,4.7,4.7,0,0,1,.65,1.69,13.49,13.49,0,0,1,.19,2.36,11.55,11.55,0,0,1-.21,2.32,4.43,4.43,0,0,1-.69,1.68,2.75,2.75,0,0,1-1.24,1,4.81,4.81,0,0,1-1.89.33,5.08,5.08,0,0,1-2-.3,2.62,2.62,0,0,1-1.23-1,4.33,4.33,0,0,1-.65-1.69,12.51,12.51,0,0,1-.19-2.34A11.41,11.41,0,0,1,779.9,364.68Zm2.45,3.76a5.56,5.56,0,0,0,.18,1.14,1.53,1.53,0,0,0,.43.74,1.05,1.05,0,0,0,.76.27,1.11,1.11,0,0,0,1.1-.84,8.9,8.9,0,0,0,.3-2.75,9,9,0,0,0-.3-2.76,1.11,1.11,0,0,0-1.1-.83,1.09,1.09,0,0,0-.76.26,1.63,1.63,0,0,0-.43.74,5.68,5.68,0,0,0-.18,1.14c0,.45,0,.93,0,1.45S782.32,368,782.35,368.44Z" transform="translate(-716.25 -342.74)"/><path class="cls-3" d="M791.39,368.21a6.42,6.42,0,0,0,.07.89,2.82,2.82,0,0,0,.22.76,1.35,1.35,0,0,0,.4.53.93.93,0,0,0,.61.2,1,1,0,0,0,1-.48,3.24,3.24,0,0,0,.42-1.44h2.36a4.12,4.12,0,0,1-.95,2.72,3.62,3.62,0,0,1-2.76.93,4.3,4.3,0,0,1-2.22-.48,3,3,0,0,1-1.18-1.25,4.86,4.86,0,0,1-.46-1.75c-.06-.65-.09-1.29-.09-1.94a14,14,0,0,1,.14-2,4.89,4.89,0,0,1,.57-1.69,3.11,3.11,0,0,1,1.23-1.18,4.44,4.44,0,0,1,2.13-.44,4.1,4.1,0,0,1,1.87.37,2.85,2.85,0,0,1,1.15,1.05,4.3,4.3,0,0,1,.57,1.63,13.9,13.9,0,0,1,.15,2.14v.59h-5.19ZM794,364.8a3,3,0,0,0-.2-.76,1.1,1.1,0,0,0-.4-.47,1.2,1.2,0,0,0-.66-.16,1.11,1.11,0,0,0-.65.18,1.33,1.33,0,0,0-.41.47,2.33,2.33,0,0,0-.22.66,4.39,4.39,0,0,0-.07.72v.4h2.68C794.06,365.45,794,365.1,794,364.8Z" transform="translate(-716.25 -342.74)"/><path class="cls-3" d="M799.87,369.11a1.55,1.55,0,0,0,.35,1.07,1.27,1.27,0,0,0,1,.41,1.4,1.4,0,0,0,1-.31,1.09,1.09,0,0,0,.37-.91,1,1,0,0,0-.29-.75,2.23,2.23,0,0,0-.66-.41l-1.85-.66a3.58,3.58,0,0,1-1.63-1.07,2.78,2.78,0,0,1-.55-1.78,3.35,3.35,0,0,1,.21-1.19,2.58,2.58,0,0,1,.66-1,3.31,3.31,0,0,1,1.17-.66,5.12,5.12,0,0,1,1.72-.25,3.87,3.87,0,0,1,2.64.76,2.73,2.73,0,0,1,.86,2.15V365h-2.36a2.06,2.06,0,0,0-.26-1.17,1,1,0,0,0-.9-.37,1.4,1.4,0,0,0-.86.27,1,1,0,0,0-.37.83,1.06,1.06,0,0,0,.23.68,1.79,1.79,0,0,0,.91.52l1.57.53a3.54,3.54,0,0,1,1.75,1.09,3,3,0,0,1,.51,1.83,3.27,3.27,0,0,1-.28,1.42,2.77,2.77,0,0,1-.79,1,3.26,3.26,0,0,1-1.2.57,6.57,6.57,0,0,1-1.53.17,6.77,6.77,0,0,1-1.83-.21,2.69,2.69,0,0,1-1.16-.63,2.39,2.39,0,0,1-.6-1,4.93,4.93,0,0,1-.17-1.33v-.37h2.36Z" transform="translate(-716.25 -342.74)"/><path class="cls-3" d="M813.57,358.54v4.3h0a3.14,3.14,0,0,1,.94-.92,2.51,2.51,0,0,1,1.27-.3,2.57,2.57,0,0,1,2.37,1.26,8.35,8.35,0,0,1,.76,4.12,8.1,8.1,0,0,1-.76,4.08,2.57,2.57,0,0,1-2.37,1.24,2.86,2.86,0,0,1-1.34-.29,2.61,2.61,0,0,1-1-1h0v1.08h-2.51V358.54Zm.25,11a1.08,1.08,0,0,0,1.13.84,1.07,1.07,0,0,0,1.11-.84,9,9,0,0,0,.26-2.52,8.86,8.86,0,0,0-.26-2.52,1.08,1.08,0,0,0-1.11-.85,1.09,1.09,0,0,0-1.13.85,9.32,9.32,0,0,0-.25,2.52A9.42,9.42,0,0,0,813.82,369.52Z" transform="translate(-716.25 -342.74)"/><path class="cls-3" d="M820.42,364.77a3.47,3.47,0,0,1,.29-1.49,2.66,2.66,0,0,1,.77-1,3.16,3.16,0,0,1,1.14-.53,5.72,5.72,0,0,1,1.4-.16,6.61,6.61,0,0,1,1.9.23,2.69,2.69,0,0,1,1.12.64,2.32,2.32,0,0,1,.54,1,5.61,5.61,0,0,1,.14,1.27v5.37a6.47,6.47,0,0,0,.07,1.12,4.07,4.07,0,0,0,.25.86h-2.5a2.07,2.07,0,0,1-.2-.52c-.05-.19-.09-.37-.13-.55h0a2.18,2.18,0,0,1-1,1,4.2,4.2,0,0,1-1.55.24,2.58,2.58,0,0,1-1.16-.24,2,2,0,0,1-.76-.66,2.87,2.87,0,0,1-.42-.94,4.54,4.54,0,0,1-.13-1,4.6,4.6,0,0,1,.15-1.25,2.45,2.45,0,0,1,.47-.89,2.52,2.52,0,0,1,.8-.62,6,6,0,0,1,1.17-.43l1.48-.4a1.53,1.53,0,0,0,.81-.42,1.14,1.14,0,0,0,.23-.78,1.42,1.42,0,0,0-.27-.92,1.18,1.18,0,0,0-.94-.33,1.15,1.15,0,0,0-.92.36,1.46,1.46,0,0,0-.3,1V365h-2.36Zm4.22,2.56a3.89,3.89,0,0,1-.55.18,2,2,0,0,0-1.14.57,1.61,1.61,0,0,0-.34,1.08,2.09,2.09,0,0,0,.23,1,.79.79,0,0,0,.76.42,1.86,1.86,0,0,0,.55-.09,1.52,1.52,0,0,0,.52-.27,1.41,1.41,0,0,0,.39-.5,1.59,1.59,0,0,0,.15-.72v-2A2,2,0,0,1,824.64,367.33Z" transform="translate(-716.25 -342.74)"/><path class="cls-3" d="M834.46,364.83a2.93,2.93,0,0,0-.17-.65,1.17,1.17,0,0,0-.36-.48.93.93,0,0,0-.6-.18,1.26,1.26,0,0,0-.78.22,1.24,1.24,0,0,0-.46.64,4.68,4.68,0,0,0-.21,1.09c0,.43-.06.95-.06,1.55s0,1.17.06,1.62a4.77,4.77,0,0,0,.21,1.11,1.23,1.23,0,0,0,.43.64,1.19,1.19,0,0,0,.71.2,1,1,0,0,0,1-.57,4.15,4.15,0,0,0,.3-1.83H837a4.59,4.59,0,0,1-.9,3.07,3.72,3.72,0,0,1-3,1.06,5.49,5.49,0,0,1-1.72-.24,2.49,2.49,0,0,1-1.22-.85,4.32,4.32,0,0,1-.73-1.66,11,11,0,0,1-.25-2.57,9.26,9.26,0,0,1,.31-2.62,4.14,4.14,0,0,1,.85-1.65,3,3,0,0,1,1.31-.86,5.27,5.27,0,0,1,1.67-.25,3.46,3.46,0,0,1,2.75,1.06,4.3,4.3,0,0,1,.92,2.89H834.5A6,6,0,0,0,834.46,364.83Z" transform="translate(-716.25 -342.74)"/><path class="cls-3" d="M841.1,365.71h0l2.65-3.82h2.88l-2.94,4,3.38,6.2h-2.89l-2.18-4.2-.93,1.22v3h-2.63V358.54h2.63Z" transform="translate(-716.25 -342.74)"/><path class="cls-3" d="M855.63,359v2.93h1.52v1.78h-1.52v5.53a1.57,1.57,0,0,0,.18.87.88.88,0,0,0,.75.25h.31a1.27,1.27,0,0,0,.28,0v1.83q-.43,0-.84,0c-.28,0-.56,0-.87,0a5.91,5.91,0,0,1-1.24-.11,1.24,1.24,0,0,1-.74-.42,1.77,1.77,0,0,1-.36-.82,7.85,7.85,0,0,1-.09-1.3v-5.85h-1.33v-1.78H853V359Z" transform="translate(-716.25 -342.74)"/><path class="cls-3" d="M857.93,364.68a4.59,4.59,0,0,1,.68-1.68,3.14,3.14,0,0,1,1.25-1,4.59,4.59,0,0,1,1.89-.35,4.92,4.92,0,0,1,2,.31,2.74,2.74,0,0,1,1.23,1,4.52,4.52,0,0,1,.65,1.69,13.49,13.49,0,0,1,.19,2.36,11.55,11.55,0,0,1-.21,2.32,4.43,4.43,0,0,1-.69,1.68,2.75,2.75,0,0,1-1.24,1,4.78,4.78,0,0,1-1.89.33,5.08,5.08,0,0,1-2-.3,2.62,2.62,0,0,1-1.23-1,4.33,4.33,0,0,1-.65-1.69,12.51,12.51,0,0,1-.19-2.34A11.41,11.41,0,0,1,857.93,364.68Zm2.45,3.76a5.56,5.56,0,0,0,.18,1.14,1.61,1.61,0,0,0,.43.74,1.05,1.05,0,0,0,.76.27,1.11,1.11,0,0,0,1.1-.84,8.9,8.9,0,0,0,.3-2.75,9,9,0,0,0-.3-2.76,1.11,1.11,0,0,0-1.1-.83,1.09,1.09,0,0,0-.76.26,1.73,1.73,0,0,0-.43.74,5.68,5.68,0,0,0-.18,1.14c0,.45,0,.93,0,1.45S860.36,368,860.38,368.44Z" transform="translate(-716.25 -342.74)"/><path class="cls-3" d="M761.59,380.89V382h0a2.91,2.91,0,0,1,1-1,2.74,2.74,0,0,1,1.34-.31,2.57,2.57,0,0,1,2.37,1.26,8.35,8.35,0,0,1,.76,4.12,8.1,8.1,0,0,1-.76,4.08,2.57,2.57,0,0,1-2.37,1.24,2.62,2.62,0,0,1-1.27-.28,2.77,2.77,0,0,1-.94-.88h0v4.24h-2.63V380.89Zm.37,7.63a1.08,1.08,0,0,0,1.13.84,1.07,1.07,0,0,0,1.11-.84,9,9,0,0,0,.26-2.52,8.86,8.86,0,0,0-.26-2.52,1.08,1.08,0,0,0-1.11-.85,1.09,1.09,0,0,0-1.13.85,9.32,9.32,0,0,0-.25,2.52A9.42,9.42,0,0,0,762,388.52Z" transform="translate(-716.25 -342.74)"/><path class="cls-3" d="M771.09,380.89v1.36h0a3.7,3.7,0,0,1,1-1.18,2.17,2.17,0,0,1,1.39-.45h.23l.24,0v2.51a2.83,2.83,0,0,0-.41,0h-.41a2.71,2.71,0,0,0-.68.09,1.88,1.88,0,0,0-.63.32,1.43,1.43,0,0,0-.45.57,1.86,1.86,0,0,0-.17.86v6.14h-2.63V380.89Z" transform="translate(-716.25 -342.74)"/><path class="cls-3" d="M774.78,383.68a4.59,4.59,0,0,1,.68-1.68,3.08,3.08,0,0,1,1.25-1,4.59,4.59,0,0,1,1.89-.35,4.87,4.87,0,0,1,1.95.31,2.82,2.82,0,0,1,1.24,1,4.52,4.52,0,0,1,.64,1.69,12.59,12.59,0,0,1,.19,2.36,12.38,12.38,0,0,1-.2,2.32,4.43,4.43,0,0,1-.69,1.68,2.75,2.75,0,0,1-1.24,1,4.84,4.84,0,0,1-1.89.33,5.08,5.08,0,0,1-2-.3,2.69,2.69,0,0,1-1.24-1,4.49,4.49,0,0,1-.64-1.69,12.51,12.51,0,0,1-.19-2.34A11.41,11.41,0,0,1,774.78,383.68Zm2.45,3.76a4.46,4.46,0,0,0,.18,1.14,1.53,1.53,0,0,0,.43.74,1.05,1.05,0,0,0,.76.27,1.11,1.11,0,0,0,1.1-.84A8.9,8.9,0,0,0,780,386a9,9,0,0,0-.3-2.76,1.11,1.11,0,0,0-1.1-.83,1.09,1.09,0,0,0-.76.26,1.63,1.63,0,0,0-.43.74,4.54,4.54,0,0,0-.18,1.14c0,.45,0,.93,0,1.45S777.2,387,777.23,387.44Z" transform="translate(-716.25 -342.74)"/><path class="cls-3" d="M789.24,390a2.61,2.61,0,0,1-1,1,2.86,2.86,0,0,1-1.34.29,2.59,2.59,0,0,1-2.38-1.24,8.21,8.21,0,0,1-.76-4.08,8.47,8.47,0,0,1,.76-4.12,2.58,2.58,0,0,1,2.38-1.26,2.5,2.5,0,0,1,1.26.3,3,3,0,0,1,.94.92h0v-4.3h2.62v13.57h-2.51V390Zm-2.58-1.51a1.17,1.17,0,0,0,2.24,0,9,9,0,0,0,.26-2.52,8.86,8.86,0,0,0-.26-2.52,1.16,1.16,0,0,0-2.24,0,9.32,9.32,0,0,0-.25,2.52A9.42,9.42,0,0,0,786.66,388.52Z" transform="translate(-716.25 -342.74)"/><path class="cls-3" d="M798.74,389.91a2.42,2.42,0,0,1-1.09,1.08,3.37,3.37,0,0,1-1.52.33,2.62,2.62,0,0,1-1.92-.66,3,3,0,0,1-.68-2.19v-7.58h2.62v7.05a1.73,1.73,0,0,0,.27,1.11,1.05,1.05,0,0,0,.85.31c.93,0,1.39-.56,1.39-1.69v-6.78h2.62v10.22h-2.51v-1.2Z" transform="translate(-716.25 -342.74)"/><path class="cls-3" d="M807.9,383.83a2.14,2.14,0,0,0-.17-.65,1.15,1.15,0,0,0-.35-.48.94.94,0,0,0-.61-.18,1.31,1.31,0,0,0-.78.22,1.28,1.28,0,0,0-.45.64,4.68,4.68,0,0,0-.21,1.09c0,.43-.06.95-.06,1.55s0,1.17.06,1.62a4.77,4.77,0,0,0,.21,1.11,1.23,1.23,0,0,0,.43.64,1.19,1.19,0,0,0,.71.2,1,1,0,0,0,1-.57,4.15,4.15,0,0,0,.3-1.83h2.51a4.59,4.59,0,0,1-.9,3.07,3.73,3.73,0,0,1-3,1.06,5.47,5.47,0,0,1-1.71-.24,2.49,2.49,0,0,1-1.22-.85,4.32,4.32,0,0,1-.73-1.66,11,11,0,0,1-.25-2.57,9.68,9.68,0,0,1,.3-2.62,4.28,4.28,0,0,1,.86-1.65,2.92,2.92,0,0,1,1.31-.86,5.22,5.22,0,0,1,1.67-.25,3.48,3.48,0,0,1,2.75,1.06,4.3,4.3,0,0,1,.92,2.89H808A4.53,4.53,0,0,0,807.9,383.83Z" transform="translate(-716.25 -342.74)"/><path class="cls-3" d="M815,378v2.93h1.52v1.78H815v5.53a1.57,1.57,0,0,0,.18.87.88.88,0,0,0,.75.25h.3a1.29,1.29,0,0,0,.29,0v1.83c-.29,0-.57,0-.85,0s-.56,0-.86,0a6.09,6.09,0,0,1-1.25-.11,1.3,1.3,0,0,1-.74-.42,1.87,1.87,0,0,1-.35-.82,7.85,7.85,0,0,1-.09-1.3v-5.85h-1.33v-1.78h1.33V378Z" transform="translate(-716.25 -342.74)"/><path class="cls-3" d="M824.63,377.54v4.3h0a3,3,0,0,1,.94-.92,2.51,2.51,0,0,1,1.27-.3,2.58,2.58,0,0,1,2.37,1.26A8.35,8.35,0,0,1,830,386a8.1,8.1,0,0,1-.76,4.08,2.58,2.58,0,0,1-2.37,1.24,2.83,2.83,0,0,1-1.34-.29,2.55,2.55,0,0,1-1-1h0v1.08H822V377.54Zm.26,11a1.08,1.08,0,0,0,1.13.84,1.07,1.07,0,0,0,1.11-.84,9.35,9.35,0,0,0,.26-2.52,9.25,9.25,0,0,0-.26-2.52,1.08,1.08,0,0,0-1.11-.85,1.09,1.09,0,0,0-1.13.85,9.25,9.25,0,0,0-.26,2.52A9.35,9.35,0,0,0,824.89,388.52Z" transform="translate(-716.25 -342.74)"/><path class="cls-3" d="M831.49,383.77a3.47,3.47,0,0,1,.29-1.49,2.56,2.56,0,0,1,.77-1,3.16,3.16,0,0,1,1.14-.53,5.64,5.64,0,0,1,1.39-.16,6.51,6.51,0,0,1,1.9.23,2.63,2.63,0,0,1,1.12.64,2.24,2.24,0,0,1,.55,1,5.61,5.61,0,0,1,.14,1.27v5.37a8,8,0,0,0,.06,1.12,4.14,4.14,0,0,0,.26.86H836.6a2.54,2.54,0,0,1-.2-.52l-.12-.55h0a2.18,2.18,0,0,1-1,1,4.24,4.24,0,0,1-1.55.24,2.55,2.55,0,0,1-1.16-.24,2,2,0,0,1-.76-.66,2.87,2.87,0,0,1-.42-.94,4,4,0,0,1-.13-1,4.6,4.6,0,0,1,.15-1.25,2.45,2.45,0,0,1,.47-.89,2.59,2.59,0,0,1,.79-.62,6.55,6.55,0,0,1,1.17-.43l1.49-.4a1.53,1.53,0,0,0,.81-.42,1.19,1.19,0,0,0,.23-.78,1.37,1.37,0,0,0-.28-.92,1.15,1.15,0,0,0-.94-.33,1.13,1.13,0,0,0-.91.36,1.46,1.46,0,0,0-.3,1V384h-2.36Zm4.22,2.56a4.35,4.35,0,0,1-.55.18,2,2,0,0,0-1.14.57,1.61,1.61,0,0,0-.34,1.08,2,2,0,0,0,.23,1,.79.79,0,0,0,.76.42,1.86,1.86,0,0,0,.55-.09,1.52,1.52,0,0,0,.52-.27,1.41,1.41,0,0,0,.39-.5,1.59,1.59,0,0,0,.15-.72v-2A2.35,2.35,0,0,1,835.71,386.33Z" transform="translate(-716.25 -342.74)"/><path class="cls-3" d="M845.52,383.83a2.47,2.47,0,0,0-.17-.65,1.15,1.15,0,0,0-.35-.48.94.94,0,0,0-.61-.18,1.31,1.31,0,0,0-.78.22,1.28,1.28,0,0,0-.45.64,4.68,4.68,0,0,0-.21,1.09c0,.43-.06.95-.06,1.55s0,1.17.06,1.62a4.77,4.77,0,0,0,.21,1.11,1.23,1.23,0,0,0,.43.64,1.19,1.19,0,0,0,.71.2,1,1,0,0,0,1-.57,4.15,4.15,0,0,0,.3-1.83h2.51a4.59,4.59,0,0,1-.9,3.07,3.75,3.75,0,0,1-3,1.06,5.54,5.54,0,0,1-1.72-.24,2.51,2.51,0,0,1-1.21-.85,4.32,4.32,0,0,1-.73-1.66,11,11,0,0,1-.25-2.57,9.68,9.68,0,0,1,.3-2.62,4.28,4.28,0,0,1,.86-1.65,2.92,2.92,0,0,1,1.31-.86,5.22,5.22,0,0,1,1.67-.25,3.48,3.48,0,0,1,2.75,1.06,4.3,4.3,0,0,1,.92,2.89h-2.51A6,6,0,0,0,845.52,383.83Z" transform="translate(-716.25 -342.74)"/><path class="cls-3" d="M852.16,384.71h0l2.64-3.82h2.89l-2.94,4,3.38,6.2h-2.89l-2.19-4.2-.93,1.22v3h-2.62V377.54h2.62Z" transform="translate(-716.25 -342.74)"/><path class="cls-3" d="M861.66,377.54v13.57H859V377.54Z" transform="translate(-716.25 -342.74)"/><path class="cls-3" d="M863.37,383.68a4.43,4.43,0,0,1,.69-1.68,3,3,0,0,1,1.24-1,4.59,4.59,0,0,1,1.89-.35,4.89,4.89,0,0,1,2,.31,2.74,2.74,0,0,1,1.23,1,4.52,4.52,0,0,1,.65,1.69,12.59,12.59,0,0,1,.19,2.36,11.55,11.55,0,0,1-.21,2.32,4.59,4.59,0,0,1-.68,1.68,2.77,2.77,0,0,1-1.25,1,4.78,4.78,0,0,1-1.89.33,5,5,0,0,1-2-.3,2.64,2.64,0,0,1-1.24-1,4.49,4.49,0,0,1-.65-1.69,13.42,13.42,0,0,1-.19-2.34A11.41,11.41,0,0,1,863.37,383.68Zm2.45,3.76a4.91,4.91,0,0,0,.19,1.14,1.52,1.52,0,0,0,.42.74,1.07,1.07,0,0,0,.76.27,1.11,1.11,0,0,0,1.1-.84,8.53,8.53,0,0,0,.31-2.75,8.64,8.64,0,0,0-.31-2.76,1.17,1.17,0,0,0-1.86-.57,1.62,1.62,0,0,0-.42.74,5,5,0,0,0-.19,1.14c0,.45,0,.93,0,1.45S865.8,387,865.82,387.44Z" transform="translate(-716.25 -342.74)"/><path class="cls-3" d="M880.28,390.6a4.06,4.06,0,0,1-1,3,4.51,4.51,0,0,1-3.28,1,4,4,0,0,1-2.58-.72,2.41,2.41,0,0,1-.9-2h2.51a.9.9,0,0,0,.4.78,1.44,1.44,0,0,0,.41.21,1.39,1.39,0,0,0,.46.08,1.22,1.22,0,0,0,1.12-.52,2.28,2.28,0,0,0,.33-1.27v-1.35h0a3.15,3.15,0,0,1-1,.91,2.34,2.34,0,0,1-1.21.34,2.61,2.61,0,0,1-2.34-1.18,7.45,7.45,0,0,1-.79-4,16.28,16.28,0,0,1,.1-1.83,5.75,5.75,0,0,1,.44-1.68,2.92,2.92,0,0,1,1-1.22,2.74,2.74,0,0,1,1.7-.48,2.49,2.49,0,0,1,1.14.3,2.34,2.34,0,0,1,1,1.11h0v-1.14h2.5Zm-5.19-3.27a3,3,0,0,0,.19.84,1.34,1.34,0,0,0,.4.59,1,1,0,0,0,.67.22,1,1,0,0,0,.69-.22,1.38,1.38,0,0,0,.44-.6,3.53,3.53,0,0,0,.23-.92,10.6,10.6,0,0,0,.07-1.19,8.14,8.14,0,0,0-.3-2.64,1.07,1.07,0,0,0-1.07-.78,1.27,1.27,0,0,0-.71.19,1.32,1.32,0,0,0-.41.62,4.43,4.43,0,0,0-.2,1.14c0,.48-.05,1.06-.05,1.74C875,386.68,875.06,387,875.09,387.33Z" transform="translate(-716.25 -342.74)"/><g class="cls-4"><polygon points="12.43 35.89 2.87 19.32 12.43 2.75 31.57 2.75 41.13 19.32 31.57 35.89 12.43 35.89"/><path d="M747.38,346.24l9.13,15.82-9.13,15.82H729.11L720,362.06l9.13-15.82h18.27m.87-1.5h-20l-10,17.32,10,17.32h20l10-17.32-10-17.32Z" transform="translate(-716.25 -342.74)"/></g><polygon class="cls-3" points="10.43 33.89 0.87 17.32 10.43 0.75 29.57 0.75 39.13 17.32 29.57 33.89 10.43 33.89"/><path class="cls-5" d="M745.38,344.24l9.13,15.82-9.13,15.82H727.11L718,360.06l9.13-15.82h18.27m.87-1.5h-20l-10,17.32,10,17.32h20l10-17.32-10-17.32Z" transform="translate(-716.25 -342.74)"/><path class="cls-5" d="M727.17,357.21h-3.52v-2.34H724a5.15,5.15,0,0,0,2.83-.68,3.12,3.12,0,0,0,1.3-2.16h2.64v17.63h-3.58Z" transform="translate(-716.25 -342.74)"/><path class="cls-5" d="M735,369.66a9.54,9.54,0,0,1,.24-2.19,7.43,7.43,0,0,1,.72-1.94,10.09,10.09,0,0,1,1.22-1.81,19.88,19.88,0,0,1,1.7-1.78l1.45-1.34a7.87,7.87,0,0,0,1-1,4,4,0,0,0,.56-.89,3.47,3.47,0,0,0,.26-1,10.68,10.68,0,0,0,.06-1.2q0-2.19-1.74-2.19a1.83,1.83,0,0,0-1.06.27,1.73,1.73,0,0,0-.6.75,3.49,3.49,0,0,0-.27,1.09c0,.42-.06.86-.06,1.33H735v-.68a5.12,5.12,0,0,1,1.32-3.78,5.69,5.69,0,0,1,4.16-1.32,5.55,5.55,0,0,1,4,1.24,4.69,4.69,0,0,1,1.3,3.56,8,8,0,0,1-.15,1.59,6.23,6.23,0,0,1-.47,1.4,6.5,6.5,0,0,1-.85,1.31,12.76,12.76,0,0,1-1.27,1.31l-2,1.84a7.45,7.45,0,0,0-1.25,1.41,4,4,0,0,0-.57,1.18h6.65v2.79Z" transform="translate(-716.25 -342.74)"/></g></svg>