<svg xmlns="http://www.w3.org/2000/svg" viewBox="0 0 253.96 106.4"><defs><style>.cls-1,.cls-6{fill:#007681;}.cls-1{opacity:0.6;}.cls-2{fill:#e6eff3;stroke:#279989;stroke-miterlimit:10;}.cls-3{opacity:0.2;}.cls-4{fill:#279989;}.cls-5{fill:#f2f2f2;}</style></defs><g id="Layer_29" data-name="Layer 29"><path class="cls-1" d="M1829.64,819.17,1627.23,814a6.28,6.28,0,0,1-5.93-6.6l2.19-87.73a6.14,6.14,0,0,1,6.08-6.07l196.85,1.93a6.66,6.66,0,0,1,6.52,6.4l3,90.76A6.15,6.15,0,0,1,1829.64,819.17Z" transform="translate(-1581.97 -712.77)"/><rect class="cls-2" x="33.49" y="0.5" width="216.17" height="97.61" rx="6.47"/><g class="cls-3"><polygon points="14.48 103.6 2.87 83.5 14.48 63.39 37.7 63.39 49.31 83.5 37.7 103.6 14.48 103.6"/><path d="M1619.23,776.9l11.18,19.36-11.18,19.36h-22.35l-11.18-19.36,11.18-19.36h22.35m.87-1.5H1596l-12,20.86,12,20.86h24.09l12-20.86-12-20.86Z" transform="translate(-1581.97 -712.77)"/></g><polygon class="cls-4" points="12.48 101.6 0.87 81.5 12.48 61.39 35.7 61.39 47.31 81.5 35.7 101.6 12.48 101.6"/><path class="cls-5" d="M1617.23,774.9l11.18,19.36-11.18,19.36h-22.35l-11.18-19.36,11.18-19.36h22.35m.87-1.5H1594l-12,20.86,12,20.86h24.09l12-20.86-12-20.86Z" transform="translate(-1581.97 -712.77)"/><path class="cls-5" d="M1595.12,790.83h-4.23V788h.39a6.17,6.17,0,0,0,3.4-.81,3.74,3.74,0,0,0,1.58-2.61h3.18v21.24h-4.32Z" transform="translate(-1581.97 -712.77)"/><path class="cls-5" d="M1609.29,802.45a1.88,1.88,0,0,0,1.88,1,2.45,2.45,0,0,0,1.24-.27,1.9,1.9,0,0,0,.72-.74,3,3,0,0,0,.33-1.09,11.14,11.14,0,0,0,.08-1.32,8.54,8.54,0,0,0-.11-1.37,3.27,3.27,0,0,0-.4-1.15,2.18,2.18,0,0,0-.84-.81,3,3,0,0,0-1.44-.3h-1.44v-2.82h1.41a2.16,2.16,0,0,0,1.15-.29,2.24,2.24,0,0,0,.75-.75,3.46,3.46,0,0,0,.42-1.06,5.72,5.72,0,0,0,.14-1.26,3.49,3.49,0,0,0-.51-2.16,1.89,1.89,0,0,0-1.56-.63,2.23,2.23,0,0,0-1.13.25,1.73,1.73,0,0,0-.67.72,3.23,3.23,0,0,0-.32,1.1,11.78,11.78,0,0,0-.07,1.38h-4a6.33,6.33,0,0,1,1.59-4.73,6.41,6.41,0,0,1,4.65-1.54,6.91,6.91,0,0,1,4.51,1.32,5.06,5.06,0,0,1,1.61,4.14,5.31,5.31,0,0,1-.86,3.13,3.77,3.77,0,0,1-2.38,1.55v.06a4,4,0,0,1,2.92,1.66,6.11,6.11,0,0,1,.86,3.35,9.62,9.62,0,0,1-.27,2.22,5,5,0,0,1-1,2.07,5.52,5.52,0,0,1-2.15,1.5,9.41,9.41,0,0,1-3.58.57,5.94,5.94,0,0,1-4.62-1.68,6.84,6.84,0,0,1-1.53-4.77v-.09h4.14A7.05,7.05,0,0,0,1609.29,802.45Z" transform="translate(-1581.97 -712.77)"/><path class="cls-6" d="M1635.13,727.67v1.88h-4.08v2.69h3.84v1.89h-3.84v5h-2.31V727.67Z" transform="translate(-1581.97 -712.77)"/><path class="cls-6" d="M1638.09,727.54v1.88h-2.21v-1.88Zm0,2.94v8.61h-2.21v-8.61Z" transform="translate(-1581.97 -712.77)"/><path class="cls-6" d="M1641.75,730.48v1h0a2.26,2.26,0,0,1,.92-.94,2.77,2.77,0,0,1,1.28-.29,2.19,2.19,0,0,1,1.62.57,2.61,2.61,0,0,1,.57,1.88v6.38H1644v-5.94a1.52,1.52,0,0,0-.22-.93.89.89,0,0,0-.72-.27c-.78,0-1.17.48-1.17,1.43v5.71h-2.21v-8.61Z" transform="translate(-1581.97 -712.77)"/><path class="cls-6" d="M1647.62,732.91a2.87,2.87,0,0,1,.24-1.25,2.22,2.22,0,0,1,.65-.82,2.51,2.51,0,0,1,1-.45,5,5,0,0,1,1.18-.13,5.42,5.42,0,0,1,1.6.19,2.24,2.24,0,0,1,.94.54,1.83,1.83,0,0,1,.46.84,4.49,4.49,0,0,1,.12,1.07v4.52a7.51,7.51,0,0,0,0,1,3.42,3.42,0,0,0,.22.72h-2.11a1.82,1.82,0,0,1-.17-.44c0-.16-.07-.31-.1-.46h0a1.83,1.83,0,0,1-.88.87,3.5,3.5,0,0,1-1.31.2,2,2,0,0,1-1-.2,1.56,1.56,0,0,1-.64-.55,2.59,2.59,0,0,1-.36-.79,3.7,3.7,0,0,1-.11-.87,3.58,3.58,0,0,1,.13-1.05,2.06,2.06,0,0,1,.39-.75,2.19,2.19,0,0,1,.67-.52,5.58,5.58,0,0,1,1-.37l1.25-.33a1.35,1.35,0,0,0,.68-.36,1,1,0,0,0,.2-.65,1.17,1.17,0,0,0-.24-.78,1.19,1.19,0,0,0-1.56,0,1.25,1.25,0,0,0-.25.82v.24h-2Zm3.56,2.15-.47.16a1.61,1.61,0,0,0-1,.48,1.34,1.34,0,0,0-.29.91,1.75,1.75,0,0,0,.2.85.66.66,0,0,0,.63.35,1.58,1.58,0,0,0,.47-.07,1.26,1.26,0,0,0,.44-.24,1.24,1.24,0,0,0,.33-.41,1.41,1.41,0,0,0,.13-.61v-1.69A1.9,1.9,0,0,1,1651.18,735.06Z" transform="translate(-1581.97 -712.77)"/><path class="cls-6" d="M1657.62,727.67v11.42h-2.2V727.67Z" transform="translate(-1581.97 -712.77)"/><path class="cls-6" d="M1667.4,738.18a2.2,2.2,0,0,1-.82.84,2.42,2.42,0,0,1-1.13.24,2.16,2.16,0,0,1-2-1,6.81,6.81,0,0,1-.64-3.43,7,7,0,0,1,.64-3.47,2.15,2.15,0,0,1,2-1.06,2.08,2.08,0,0,1,1.06.25,2.5,2.5,0,0,1,.79.77h0v-3.61h2.21v11.42h-2.11v-.91Zm-2.17-1.27a1,1,0,0,0,1.89,0,8.08,8.08,0,0,0,.21-2.12,8,8,0,0,0-.21-2.12,1,1,0,0,0-1.89,0,8,8,0,0,0-.21,2.12A8.08,8.08,0,0,0,1665.23,736.91Z" transform="translate(-1581.97 -712.77)"/><path class="cls-6" d="M1672.9,735.81a4.52,4.52,0,0,0,.06.74,2.69,2.69,0,0,0,.18.64,1.22,1.22,0,0,0,.34.45.8.8,0,0,0,.51.17.9.9,0,0,0,.82-.4,2.91,2.91,0,0,0,.35-1.22h2a3.43,3.43,0,0,1-.8,2.29,3.05,3.05,0,0,1-2.32.78,3.75,3.75,0,0,1-1.87-.39,2.46,2.46,0,0,1-1-1.06,4.31,4.31,0,0,1-.39-1.47c0-.55-.07-1.09-.07-1.63a11.22,11.22,0,0,1,.12-1.67,4.17,4.17,0,0,1,.47-1.42,2.71,2.71,0,0,1,1-1,3.79,3.79,0,0,1,1.79-.36,3.5,3.5,0,0,1,1.58.31,2.34,2.34,0,0,1,1,.88,3.52,3.52,0,0,1,.48,1.38,10.82,10.82,0,0,1,.13,1.79v.5h-4.37Zm2.2-2.87a2.47,2.47,0,0,0-.17-.64.84.84,0,0,0-.34-.4,1,1,0,0,0-.55-.14.94.94,0,0,0-.55.15,1.13,1.13,0,0,0-.35.4,2.3,2.3,0,0,0-.18.56,3.05,3.05,0,0,0-.06.6v.34h2.26Q1675.15,733.32,1675.1,732.94Z" transform="translate(-1581.97 -712.77)"/><path class="cls-6" d="M1680.71,727.67v11.42h-2.21V727.67Z" transform="translate(-1581.97 -712.77)"/><path class="cls-6" d="M1684.55,727.54v1.88h-2.21v-1.88Zm0,2.94v8.61h-2.21v-8.61Z" transform="translate(-1581.97 -712.77)"/><path class="cls-6" d="M1692.39,730.48l-2.16,8.61h-2.56l-2.22-8.61h2.3l1.23,6.16h0l1.16-6.16Z" transform="translate(-1581.97 -712.77)"/><path class="cls-6" d="M1695.09,735.81a4.52,4.52,0,0,0,.06.74,2.69,2.69,0,0,0,.18.64,1.22,1.22,0,0,0,.34.45.8.8,0,0,0,.51.17.89.89,0,0,0,.82-.4,2.91,2.91,0,0,0,.35-1.22h2a3.42,3.42,0,0,1-.79,2.29,3.09,3.09,0,0,1-2.33.78,3.77,3.77,0,0,1-1.87-.39,2.46,2.46,0,0,1-1-1.06,4.31,4.31,0,0,1-.39-1.47c0-.55-.07-1.09-.07-1.63A11.22,11.22,0,0,1,1693,733a4,4,0,0,1,.48-1.42,2.61,2.61,0,0,1,1-1,3.79,3.79,0,0,1,1.79-.36,3.47,3.47,0,0,1,1.58.31,2.34,2.34,0,0,1,1,.88,3.52,3.52,0,0,1,.48,1.38,10.82,10.82,0,0,1,.13,1.79v.5h-4.37Zm2.2-2.87a2.47,2.47,0,0,0-.17-.64.84.84,0,0,0-.34-.4,1,1,0,0,0-.55-.14.94.94,0,0,0-.55.15,1.23,1.23,0,0,0-.35.4,2.3,2.3,0,0,0-.18.56,3.05,3.05,0,0,0-.06.6v.34h2.26Q1697.34,733.32,1697.29,732.94Z" transform="translate(-1581.97 -712.77)"/><path class="cls-6" d="M1702.73,730.48v1.15h0a3,3,0,0,1,.82-1,1.79,1.79,0,0,1,1.16-.37h.2l.2,0v2.11l-.34,0h-.34a2.25,2.25,0,0,0-.58.08,1.54,1.54,0,0,0-.53.26,1.37,1.37,0,0,0-.38.48,1.61,1.61,0,0,0-.15.73v5.17h-2.2v-8.61Z" transform="translate(-1581.97 -712.77)"/><path class="cls-6" d="M1706.81,740.26a1.09,1.09,0,0,0,.87-.32,1.5,1.5,0,0,0,.31-.85l-2.41-8.61h2.3l1.28,5.95h0l1.12-5.95h2.21l-2.08,8a16.79,16.79,0,0,1-.55,1.74,3.07,3.07,0,0,1-.63,1,1.75,1.75,0,0,1-.86.48,6.37,6.37,0,0,1-1.27.11h-.9v-1.65A3.79,3.79,0,0,0,1706.81,740.26Z" transform="translate(-1581.97 -712.77)"/><path class="cls-6" d="M1629.11,743.67l2.59,10h0l2.78-10h1.36l2.8,10h0l2.61-10h1.09l-3.16,11.42h-1.15l-2.89-10.22h0l-2.89,10.22h-1.18l-3.17-11.42Z" transform="translate(-1581.97 -712.77)"/><path class="cls-6" d="M1643.87,752.36a3,3,0,0,0,.49,1,2.86,2.86,0,0,0,.85.77,2.39,2.39,0,0,0,1.23.3,2.49,2.49,0,0,0,1.73-.57,3.11,3.11,0,0,0,.86-1.54h1a4,4,0,0,1-1.18,2.17,3.47,3.47,0,0,1-2.42.77,3.86,3.86,0,0,1-1.69-.34,3.18,3.18,0,0,1-1.16-1,4,4,0,0,1-.66-1.39,6.07,6.07,0,0,1-.22-1.67,5.77,5.77,0,0,1,.22-1.6,4.2,4.2,0,0,1,.66-1.4,3.38,3.38,0,0,1,1.16-1,3.6,3.6,0,0,1,1.69-.38,3.28,3.28,0,0,1,2.84,1.45,4.44,4.44,0,0,1,.63,1.49,6.5,6.5,0,0,1,.16,1.7h-6.35A4.5,4.5,0,0,0,1643.87,752.36Zm5-3.08a3,3,0,0,0-.52-.94,2.45,2.45,0,0,0-.81-.65,2.3,2.3,0,0,0-1.09-.25,2.36,2.36,0,0,0-1.11.25,2.45,2.45,0,0,0-.81.65,3.4,3.4,0,0,0-.54.95,4.67,4.67,0,0,0-.26,1.09h5.34A3.4,3.4,0,0,0,1648.86,749.28Z" transform="translate(-1581.97 -712.77)"/><path class="cls-6" d="M1660.93,748a2.18,2.18,0,0,0-1.56-.53,2.52,2.52,0,0,0-1.27.31,2.74,2.74,0,0,0-.9.79,3.69,3.69,0,0,0-.54,1.13,4.47,4.47,0,0,0,0,2.58,3.58,3.58,0,0,0,.54,1.13,2.88,2.88,0,0,0,.9.8,2.62,2.62,0,0,0,1.27.3,2.2,2.2,0,0,0,.88-.18,2.37,2.37,0,0,0,.73-.48,2.54,2.54,0,0,0,.53-.75,2.62,2.62,0,0,0,.26-.94h1a3.8,3.8,0,0,1-1.11,2.34,3.23,3.23,0,0,1-2.3.84,3.83,3.83,0,0,1-1.67-.34,3.48,3.48,0,0,1-1.23-.94,4,4,0,0,1-.75-1.38,5.62,5.62,0,0,1,0-3.38,4.09,4.09,0,0,1,.75-1.38,3.48,3.48,0,0,1,1.23-.94,3.7,3.7,0,0,1,1.67-.36,3.62,3.62,0,0,1,2.25.71,3,3,0,0,1,1.09,2.12h-1A2.75,2.75,0,0,0,1660.93,748Z" transform="translate(-1581.97 -712.77)"/><path class="cls-6" d="M1669.34,747a3.48,3.48,0,0,1,1.23.94,4.09,4.09,0,0,1,.75,1.38,5.84,5.84,0,0,1,0,3.38,4,4,0,0,1-.75,1.38,3.48,3.48,0,0,1-1.23.94,4.27,4.27,0,0,1-3.34,0,3.57,3.57,0,0,1-1.23-.94,4,4,0,0,1-.75-1.38,5.84,5.84,0,0,1,0-3.38,4.09,4.09,0,0,1,.75-1.38A3.57,3.57,0,0,1,1666,747a4.05,4.05,0,0,1,3.34,0Zm-2.93.8a2.67,2.67,0,0,0-.91.79,3.69,3.69,0,0,0-.54,1.13,4.47,4.47,0,0,0,0,2.58,3.58,3.58,0,0,0,.54,1.13,2.81,2.81,0,0,0,.91.8,2.8,2.8,0,0,0,2.52,0,2.81,2.81,0,0,0,.91-.8,3.58,3.58,0,0,0,.54-1.13,4.47,4.47,0,0,0,0-2.58,3.69,3.69,0,0,0-.54-1.13,2.67,2.67,0,0,0-.91-.79,2.72,2.72,0,0,0-2.52,0Z" transform="translate(-1581.97 -712.77)"/><path class="cls-6" d="M1674.07,746.83v1.43h0a2.42,2.42,0,0,1,1-1.21,3,3,0,0,1,1.61-.46,4,4,0,0,1,1.45.23,2.36,2.36,0,0,1,.94.63,2.29,2.29,0,0,1,.49,1,5.41,5.41,0,0,1,.15,1.33v5.31h-1v-5.15a4.43,4.43,0,0,0-.1-1,2,2,0,0,0-.33-.79,1.71,1.71,0,0,0-.65-.53,2.35,2.35,0,0,0-1-.19,2.51,2.51,0,0,0-1.08.22,2.35,2.35,0,0,0-.8.59,2.69,2.69,0,0,0-.51.89,3.77,3.77,0,0,0-.2,1.13v4.82h-1v-8.26Z" transform="translate(-1581.97 -712.77)"/><path class="cls-6" d="M1685,746.83v.85h-1.68v5.57a1.76,1.76,0,0,0,.14.77c.09.19.31.3.68.32a8.27,8.27,0,0,0,.86-.05v.85h-.45l-.45,0a1.49,1.49,0,0,1-1.79-1.84v-5.65h-1.44v-.85h1.44v-2.48h1v2.48Z" transform="translate(-1581.97 -712.77)"/><path class="cls-6" d="M1687.43,743.67v1.61h-1v-1.61Zm0,3.16v8.26h-1v-8.26Z" transform="translate(-1581.97 -712.77)"/><path class="cls-6" d="M1690.36,746.83v1.43h0a2.37,2.37,0,0,1,1-1.21,3,3,0,0,1,1.61-.46,4,4,0,0,1,1.45.23,2.36,2.36,0,0,1,.94.63,2.29,2.29,0,0,1,.49,1,5.41,5.41,0,0,1,.15,1.33v5.31h-1v-5.15a4.43,4.43,0,0,0-.1-1,2,2,0,0,0-.33-.79,1.71,1.71,0,0,0-.65-.53,2.35,2.35,0,0,0-1-.19,2.51,2.51,0,0,0-1.08.22,2.35,2.35,0,0,0-.8.59,2.69,2.69,0,0,0-.51.89,3.77,3.77,0,0,0-.2,1.13v4.82h-1v-8.26Z" transform="translate(-1581.97 -712.77)"/><path class="cls-6" d="M1703.72,755.09V753.6h0a2.87,2.87,0,0,1-1.16,1.27,3.26,3.26,0,0,1-1.69.44,3.81,3.81,0,0,1-1.34-.21,2.23,2.23,0,0,1-.89-.62,2.54,2.54,0,0,1-.51-1,5.16,5.16,0,0,1-.16-1.31v-5.36h1v5.38a2.73,2.73,0,0,0,.52,1.7,2.14,2.14,0,0,0,1.69.57,2.09,2.09,0,0,0,1.12-.28,2.47,2.47,0,0,0,.77-.74,3.56,3.56,0,0,0,.45-1.07,5.57,5.57,0,0,0,.14-1.22v-4.34h1v8.26Z" transform="translate(-1581.97 -712.77)"/><path class="cls-6" d="M1707.29,752.36a3.38,3.38,0,0,0,.49,1,3,3,0,0,0,.85.77,2.39,2.39,0,0,0,1.23.3,2.47,2.47,0,0,0,1.73-.57,3.12,3.12,0,0,0,.87-1.54h1a4,4,0,0,1-1.17,2.17,3.48,3.48,0,0,1-2.43.77,3.86,3.86,0,0,1-1.69-.34,3.18,3.18,0,0,1-1.16-1,4.36,4.36,0,0,1-.66-1.39,6.48,6.48,0,0,1-.22-1.67,6.17,6.17,0,0,1,.22-1.6,4.63,4.63,0,0,1,.66-1.4,3.38,3.38,0,0,1,1.16-1,3.6,3.6,0,0,1,1.69-.38,3.47,3.47,0,0,1,1.7.4,3.39,3.39,0,0,1,1.14,1,4.07,4.07,0,0,1,.63,1.49,6.5,6.5,0,0,1,.17,1.7h-6.36A4.5,4.5,0,0,0,1707.29,752.36Zm5-3.08a3.44,3.44,0,0,0-.52-.94,2.59,2.59,0,0,0-.82-.65,2.28,2.28,0,0,0-1.09-.25,2.32,2.32,0,0,0-1.1.25,2.59,2.59,0,0,0-.82.65,3.38,3.38,0,0,0-.53.95,4.7,4.7,0,0,0-.27,1.09h5.35A3.69,3.69,0,0,0,1712.29,749.28Z" transform="translate(-1581.97 -712.77)"/><path class="cls-6" d="M1722.58,746.83v.85h-1.68v5.57a1.76,1.76,0,0,0,.14.77c.09.19.32.3.68.32a8.27,8.27,0,0,0,.86-.05v.85h-.45l-.44,0a1.49,1.49,0,0,1-1.8-1.84v-5.65h-1.43v-.85h1.43v-2.48h1v2.48Z" transform="translate(-1581.97 -712.77)"/><path class="cls-6" d="M1729.2,747a3.54,3.54,0,0,1,1.22.94,4.09,4.09,0,0,1,.75,1.38,5.62,5.62,0,0,1,0,3.38,4,4,0,0,1-.75,1.38,3.54,3.54,0,0,1-1.22.94,3.86,3.86,0,0,1-1.67.34,3.91,3.91,0,0,1-1.68-.34,3.54,3.54,0,0,1-1.22-.94,4,4,0,0,1-.75-1.38,5.62,5.62,0,0,1,0-3.38,4.09,4.09,0,0,1,.75-1.38,3.54,3.54,0,0,1,1.22-.94,3.77,3.77,0,0,1,1.68-.36A3.73,3.73,0,0,1,1729.2,747Zm-2.94.8a2.74,2.74,0,0,0-.9.79,4,4,0,0,0-.55,1.13,4.71,4.71,0,0,0,0,2.58,3.83,3.83,0,0,0,.55,1.13,2.88,2.88,0,0,0,.9.8,2.59,2.59,0,0,0,1.27.3,2.55,2.55,0,0,0,1.26-.3,2.88,2.88,0,0,0,.9-.8,3.6,3.6,0,0,0,.55-1.13,4.71,4.71,0,0,0,0-2.58,3.71,3.71,0,0,0-.55-1.13,2.74,2.74,0,0,0-.9-.79,2.45,2.45,0,0,0-1.26-.31A2.49,2.49,0,0,0,1726.26,747.75Z" transform="translate(-1581.97 -712.77)"/><path class="cls-6" d="M1737.62,746.83l2.11,7.08h0l2-7.08h1.14l2,7.08h0l2.11-7.08h1.07l-2.65,8.26h-1.11l-2-7h0l-2,7h-1.1l-2.66-8.26Z" transform="translate(-1581.97 -712.77)"/><path class="cls-6" d="M1754.4,747a3.54,3.54,0,0,1,1.22.94,4.3,4.3,0,0,1,.76,1.38,5.84,5.84,0,0,1,0,3.38,4.19,4.19,0,0,1-.76,1.38,3.54,3.54,0,0,1-1.22.94,4.27,4.27,0,0,1-3.34,0,3.48,3.48,0,0,1-1.23-.94,4,4,0,0,1-.75-1.38,5.62,5.62,0,0,1,0-3.38,4.09,4.09,0,0,1,.75-1.38,3.48,3.48,0,0,1,1.23-.94,4.05,4.05,0,0,1,3.34,0Zm-2.94.8a2.74,2.74,0,0,0-.9.79,3.69,3.69,0,0,0-.54,1.13,4.47,4.47,0,0,0,0,2.58,3.58,3.58,0,0,0,.54,1.13,2.88,2.88,0,0,0,.9.8,2.62,2.62,0,0,0,1.27.3,2.55,2.55,0,0,0,1.26-.3,2.92,2.92,0,0,0,.91-.8,3.58,3.58,0,0,0,.54-1.13,4.71,4.71,0,0,0,0-2.58,3.69,3.69,0,0,0-.54-1.13,2.77,2.77,0,0,0-.91-.79,2.45,2.45,0,0,0-1.26-.31A2.52,2.52,0,0,0,1751.46,747.75Z" transform="translate(-1581.97 -712.77)"/><path class="cls-6" d="M1759.06,746.83v1.94h0a3,3,0,0,1,3.12-2v1a3.13,3.13,0,0,0-1.25.18,2.78,2.78,0,0,0-1,.62,2.82,2.82,0,0,0-.63,1,3.18,3.18,0,0,0-.23,1.21v4.4h-1v-8.26Z" transform="translate(-1581.97 -712.77)"/><path class="cls-6" d="M1764.18,743.67v7.16l4.58-4h1.34l-3.52,3.06,3.76,5.2h-1.26l-3.26-4.5-1.64,1.36v3.14h-1V743.67Z" transform="translate(-1581.97 -712.77)"/><path class="cls-6" d="M1780.78,747a3.48,3.48,0,0,1,1.23.94,4.09,4.09,0,0,1,.75,1.38,5.62,5.62,0,0,1,0,3.38A4,4,0,0,1,1782,754a3.48,3.48,0,0,1-1.23.94,4.27,4.27,0,0,1-3.34,0,3.45,3.45,0,0,1-1.22-.94,4,4,0,0,1-.76-1.38,5.84,5.84,0,0,1,0-3.38,4.12,4.12,0,0,1,.76-1.38,3.45,3.45,0,0,1,1.22-.94,4.05,4.05,0,0,1,3.34,0Zm-2.93.8a2.77,2.77,0,0,0-.91.79,3.69,3.69,0,0,0-.54,1.13,4.71,4.71,0,0,0,0,2.58,3.58,3.58,0,0,0,.54,1.13,2.92,2.92,0,0,0,.91.8,2.55,2.55,0,0,0,1.26.3,2.62,2.62,0,0,0,1.27-.3,2.88,2.88,0,0,0,.9-.8,3.58,3.58,0,0,0,.54-1.13,4.47,4.47,0,0,0,0-2.58,3.69,3.69,0,0,0-.54-1.13,2.74,2.74,0,0,0-.9-.79,2.52,2.52,0,0,0-1.27-.31A2.45,2.45,0,0,0,1777.85,747.75Z" transform="translate(-1581.97 -712.77)"/><path class="cls-6" d="M1785.51,746.83v1.43h0a2.47,2.47,0,0,1,1-1.21,3,3,0,0,1,1.61-.46,4,4,0,0,1,1.45.23,2.36,2.36,0,0,1,.94.63,2.29,2.29,0,0,1,.49,1,5.41,5.41,0,0,1,.15,1.33v5.31h-1v-5.15a4.43,4.43,0,0,0-.1-1,2,2,0,0,0-.33-.79,1.71,1.71,0,0,0-.65-.53,2.35,2.35,0,0,0-1-.19,2.51,2.51,0,0,0-1.08.22,2.35,2.35,0,0,0-.8.59,2.88,2.88,0,0,0-.51.89,3.77,3.77,0,0,0-.2,1.13v4.82h-1v-8.26Z" transform="translate(-1581.97 -712.77)"/><path class="cls-6" d="M1633.66,764.44a1.66,1.66,0,0,0-.48-.57,1.88,1.88,0,0,0-.68-.33,3.45,3.45,0,0,0-.81-.1,3.14,3.14,0,0,0-.68.07,2.17,2.17,0,0,0-.63.24,1.42,1.42,0,0,0-.47.44,1.21,1.21,0,0,0-.17.68.93.93,0,0,0,.16.56,1.64,1.64,0,0,0,.43.4,2.89,2.89,0,0,0,.56.26l.56.17,1.34.3a3.92,3.92,0,0,1,.86.23,3.08,3.08,0,0,1,.75.44,2.14,2.14,0,0,1,.54.68,2.1,2.1,0,0,1,.2.94,2.06,2.06,0,0,1-.3,1.14,2.39,2.39,0,0,1-.78.77,3.1,3.1,0,0,1-1.06.42,5.24,5.24,0,0,1-1.17.13,3.78,3.78,0,0,1-2.36-.69,2.89,2.89,0,0,1-1-2.2h1a2,2,0,0,0,.74,1.54,2.68,2.68,0,0,0,1.69.52,4.09,4.09,0,0,0,.76-.08,2.38,2.38,0,0,0,.73-.27,1.73,1.73,0,0,0,.55-.49,1.24,1.24,0,0,0,.22-.73,1.15,1.15,0,0,0-.16-.61,1.24,1.24,0,0,0-.4-.42,3.22,3.22,0,0,0-.59-.28c-.22-.07-.44-.14-.66-.19l-1.3-.29a7,7,0,0,1-.91-.29,3.41,3.41,0,0,1-.73-.42,1.81,1.81,0,0,1-.49-.61,2.14,2.14,0,0,1-.17-.89,2,2,0,0,1,.28-1.07,2.1,2.1,0,0,1,.73-.72,3.43,3.43,0,0,1,1-.4,5.07,5.07,0,0,1,1.09-.13,4.28,4.28,0,0,1,1.16.16,2.7,2.7,0,0,1,1,.5,2.4,2.4,0,0,1,.64.83,3.15,3.15,0,0,1,.28,1.17h-1A2,2,0,0,0,1633.66,764.44Z" transform="translate(-1581.97 -712.77)"/><path class="cls-6" d="M1637.53,762.83v1.57h0a2.77,2.77,0,0,1,1.14-1.34,3.79,3.79,0,0,1,3.44-.11,3.26,3.26,0,0,1,1.16.95,4,4,0,0,1,.69,1.39,6.18,6.18,0,0,1,0,3.34,4,4,0,0,1-.69,1.39,3.26,3.26,0,0,1-1.16,1,3.64,3.64,0,0,1-1.64.34,3.44,3.44,0,0,1-.89-.11,3.2,3.2,0,0,1-.83-.33,2.49,2.49,0,0,1-.68-.57,2.33,2.33,0,0,1-.46-.78h0v4.61h-1v-11.3Zm5.53,2.86a4,4,0,0,0-.48-1.13,2.71,2.71,0,0,0-.84-.81,2.35,2.35,0,0,0-1.24-.31,3.07,3.07,0,0,0-1.39.29,2.39,2.39,0,0,0-.89.77,2.91,2.91,0,0,0-.48,1.12,6.41,6.41,0,0,0-.13,1.34,5.44,5.44,0,0,0,.15,1.27,3.31,3.31,0,0,0,.5,1.13,2.55,2.55,0,0,0,2.24,1.12,2.35,2.35,0,0,0,1.24-.31,2.71,2.71,0,0,0,.84-.81,4,4,0,0,0,.48-1.13,5.45,5.45,0,0,0,0-2.54Z" transform="translate(-1581.97 -712.77)"/><path class="cls-6" d="M1646.71,762.83v1.94h0a3.19,3.19,0,0,1,1.2-1.55,3.06,3.06,0,0,1,1.92-.5v1a3.08,3.08,0,0,0-1.24.18,2.78,2.78,0,0,0-1,.62,2.68,2.68,0,0,0-.63,1,3.18,3.18,0,0,0-.23,1.21v4.4h-1v-8.26Z" transform="translate(-1581.97 -712.77)"/><path class="cls-6" d="M1651.85,759.67v1.61h-1v-1.61Zm0,3.16v8.26h-1v-8.26Z" transform="translate(-1581.97 -712.77)"/><path class="cls-6" d="M1654.78,762.83v1.43h0a2.4,2.4,0,0,1,1-1.21,3.05,3.05,0,0,1,1.62-.46,4.08,4.08,0,0,1,1.45.23,2.21,2.21,0,0,1,1.43,1.63,6,6,0,0,1,.14,1.33v5.31h-1v-5.15a5.13,5.13,0,0,0-.09-1,2.18,2.18,0,0,0-.34-.79,1.64,1.64,0,0,0-.65-.53,2.33,2.33,0,0,0-1-.19,2.45,2.45,0,0,0-1.08.22,2.25,2.25,0,0,0-.8.59,2.69,2.69,0,0,0-.51.89,3.48,3.48,0,0,0-.2,1.13v4.82h-1v-8.26Z" transform="translate(-1581.97 -712.77)"/><path class="cls-6" d="M1665.66,762.83v.85H1664v5.57a1.76,1.76,0,0,0,.14.77c.09.19.32.3.68.32a8.46,8.46,0,0,0,.87-.05v.85h-.45l-.45,0a2,2,0,0,1-1.41-.39,2,2,0,0,1-.38-1.45v-5.65h-1.44v-.85H1663v-2.48h1v2.48Z" transform="translate(-1581.97 -712.77)"/><path class="cls-6" d="M1671.86,764.44a1.53,1.53,0,0,0-.47-.57,2,2,0,0,0-.68-.33,3.52,3.52,0,0,0-.81-.1,3.08,3.08,0,0,0-.68.07,2.35,2.35,0,0,0-.64.24,1.49,1.49,0,0,0-.46.44,1.21,1.21,0,0,0-.18.68.93.93,0,0,0,.17.56,1.38,1.38,0,0,0,.43.4,2.89,2.89,0,0,0,.56.26l.56.17,1.34.3a3.92,3.92,0,0,1,.86.23,3.08,3.08,0,0,1,.75.44,2.11,2.11,0,0,1,.53.68,2,2,0,0,1,.21.94,2.06,2.06,0,0,1-.3,1.14,2.49,2.49,0,0,1-.78.77,3.1,3.1,0,0,1-1.06.42,5.31,5.31,0,0,1-1.17.13,3.78,3.78,0,0,1-2.36-.69,2.89,2.89,0,0,1-1-2.2h1a2,2,0,0,0,.74,1.54,2.68,2.68,0,0,0,1.69.52,4.09,4.09,0,0,0,.76-.08,2.38,2.38,0,0,0,.73-.27,1.85,1.85,0,0,0,.55-.49,1.23,1.23,0,0,0,.21-.73,1.15,1.15,0,0,0-.15-.61,1.27,1.27,0,0,0-.41-.42,2.84,2.84,0,0,0-.58-.28c-.22-.07-.44-.14-.66-.19l-1.3-.29a6.5,6.5,0,0,1-.91-.29,3.41,3.41,0,0,1-.73-.42,1.81,1.81,0,0,1-.49-.61,2,2,0,0,1-.17-.89,2,2,0,0,1,.28-1.07,2.07,2.07,0,0,1,.72-.72,3.67,3.67,0,0,1,1-.4,5.24,5.24,0,0,1,1.1-.13,4.28,4.28,0,0,1,1.16.16,2.58,2.58,0,0,1,.94.5,2.31,2.31,0,0,1,.65.83,3,3,0,0,1,.27,1.17h-1A2,2,0,0,0,1671.86,764.44Z" transform="translate(-1581.97 -712.77)"/><path class="cls-6" d="M1682.54,762.83v.85h-1.69v5.57a1.76,1.76,0,0,0,.14.77c.09.19.32.3.68.32a8.46,8.46,0,0,0,.87-.05v.85h-.45l-.45,0a2,2,0,0,1-1.41-.39,2,2,0,0,1-.38-1.45v-5.65h-1.44v-.85h1.44v-2.48h1v2.48Z" transform="translate(-1581.97 -712.77)"/><path class="cls-6" d="M1685,759.67v1.61h-1v-1.61Zm0,3.16v8.26h-1v-8.26Z" transform="translate(-1581.97 -712.77)"/><path class="cls-6" d="M1688,759.67v11.42h-1V759.67Z" transform="translate(-1581.97 -712.77)"/><path class="cls-6" d="M1690.93,759.67v11.42h-1V759.67Z" transform="translate(-1581.97 -712.77)"/><path class="cls-6" d="M1697.46,762.83l2.72,7,2.55-7h1l-3.58,9.51a9,9,0,0,1-.42.87,1.84,1.84,0,0,1-.42.54,1.35,1.35,0,0,1-.54.29,3,3,0,0,1-.8.09l-.47,0a.84.84,0,0,1-.29-.05v-.85l.34.06.34,0a1.31,1.31,0,0,0,.56-.1,1.08,1.08,0,0,0,.37-.26,1.33,1.33,0,0,0,.27-.41c.08-.16.16-.33.24-.52l.36-.93-3.3-8.23Z" transform="translate(-1581.97 -712.77)"/><path class="cls-6" d="M1709.89,763a3.54,3.54,0,0,1,1.22.94,4.09,4.09,0,0,1,.75,1.38,5.62,5.62,0,0,1,0,3.38,4,4,0,0,1-.75,1.38,3.54,3.54,0,0,1-1.22.94,3.91,3.91,0,0,1-1.68.34,3.86,3.86,0,0,1-1.67-.34,3.54,3.54,0,0,1-1.22-.94,4,4,0,0,1-.75-1.38,5.62,5.62,0,0,1,0-3.38,4.09,4.09,0,0,1,.75-1.38,3.54,3.54,0,0,1,1.22-.94,3.73,3.73,0,0,1,1.67-.36A3.77,3.77,0,0,1,1709.89,763Zm-2.94.8a2.74,2.74,0,0,0-.9.79,3.71,3.71,0,0,0-.55,1.13,4.71,4.71,0,0,0,0,2.58,3.6,3.6,0,0,0,.55,1.13,2.88,2.88,0,0,0,.9.8,2.55,2.55,0,0,0,1.26.3,2.59,2.59,0,0,0,1.27-.3,2.88,2.88,0,0,0,.9-.8,3.83,3.83,0,0,0,.55-1.13,4.71,4.71,0,0,0,0-2.58,4,4,0,0,0-.55-1.13,2.74,2.74,0,0,0-.9-.79,2.49,2.49,0,0,0-1.27-.31A2.45,2.45,0,0,0,1707,763.75Z" transform="translate(-1581.97 -712.77)"/><path class="cls-6" d="M1719.38,771.09V769.6h0a2.81,2.81,0,0,1-1.16,1.27,3.26,3.26,0,0,1-1.69.44,3.75,3.75,0,0,1-1.33-.21,2.26,2.26,0,0,1-.9-.62,2.4,2.4,0,0,1-.5-1,4.75,4.75,0,0,1-.16-1.31v-5.36h1v5.38a2.73,2.73,0,0,0,.51,1.7,2.14,2.14,0,0,0,1.69.57,2.09,2.09,0,0,0,1.12-.28,2.37,2.37,0,0,0,.77-.74,3.56,3.56,0,0,0,.45-1.07,5.57,5.57,0,0,0,.14-1.22v-4.34h1v8.26Z" transform="translate(-1581.97 -712.77)"/><path class="cls-6" d="M1726.87,764.11a2.28,2.28,0,0,1,.7-.86,2.83,2.83,0,0,1,1-.5,5.28,5.28,0,0,1,1.31-.16,5.76,5.76,0,0,1,1.09.11,2.72,2.72,0,0,1,1,.39,2.15,2.15,0,0,1,.7.81,2.89,2.89,0,0,1,.27,1.35v4.38a.53.53,0,0,0,.59.61.79.79,0,0,0,.32-.06V771a2,2,0,0,1-.31.05l-.34,0a1.74,1.74,0,0,1-.62-.1.88.88,0,0,1-.36-.3,1.26,1.26,0,0,1-.17-.46,5,5,0,0,1,0-.58h0a6,6,0,0,1-.55.71,3,3,0,0,1-.62.52,2.79,2.79,0,0,1-.79.32,4,4,0,0,1-1,.11,4.21,4.21,0,0,1-1.08-.13,2.58,2.58,0,0,1-.88-.43,2.13,2.13,0,0,1-.59-.76,2.53,2.53,0,0,1-.22-1.08,2.13,2.13,0,0,1,.39-1.35,2.43,2.43,0,0,1,1-.74,5.78,5.78,0,0,1,1.42-.36l1.61-.2.56-.08a1.12,1.12,0,0,0,.4-.17.85.85,0,0,0,.25-.33,1.62,1.62,0,0,0,.08-.54,1.88,1.88,0,0,0-.16-.84,1.39,1.39,0,0,0-.47-.52,1.92,1.92,0,0,0-.69-.27,4.46,4.46,0,0,0-.84-.07,2.52,2.52,0,0,0-1.57.46,1.78,1.78,0,0,0-.63,1.46h-1A3.33,3.33,0,0,1,1726.87,764.11Zm5,2.47a.58.58,0,0,1-.37.25,4.19,4.19,0,0,1-.48.12c-.42.07-.86.14-1.32.19a7.31,7.31,0,0,0-1.24.27,2.46,2.46,0,0,0-.92.5,1.21,1.21,0,0,0-.36.94,1.39,1.39,0,0,0,.16.68,1.54,1.54,0,0,0,.4.51,1.93,1.93,0,0,0,.6.33,2.25,2.25,0,0,0,.68.11,3.4,3.4,0,0,0,1.11-.18,2.51,2.51,0,0,0,.92-.51,2.37,2.37,0,0,0,.62-.81,2.42,2.42,0,0,0,.23-1.09v-1.31Z" transform="translate(-1581.97 -712.77)"/><path class="cls-6" d="M1735.89,762.83v1.94h0a3,3,0,0,1,3.12-2v1a3.13,3.13,0,0,0-1.25.18,2.88,2.88,0,0,0-1,.62,2.82,2.82,0,0,0-.63,1,3.18,3.18,0,0,0-.23,1.21v4.4h-1v-8.26Z" transform="translate(-1581.97 -712.77)"/><path class="cls-6" d="M1740.46,768.36a3.17,3.17,0,0,0,.49,1,2.86,2.86,0,0,0,.85.77,2.39,2.39,0,0,0,1.23.3,2.47,2.47,0,0,0,1.73-.57,3.11,3.11,0,0,0,.86-1.54h1a4,4,0,0,1-1.17,2.17,3.49,3.49,0,0,1-2.43.77,3.86,3.86,0,0,1-1.69-.34,3.18,3.18,0,0,1-1.16-1,4,4,0,0,1-.66-1.39,6.48,6.48,0,0,1-.22-1.67,6.17,6.17,0,0,1,.22-1.6,4.2,4.2,0,0,1,.66-1.4,3.38,3.38,0,0,1,1.16-1,3.6,3.6,0,0,1,1.69-.38,3.47,3.47,0,0,1,1.7.4,3.39,3.39,0,0,1,1.14,1,4.25,4.25,0,0,1,.63,1.49,6.5,6.5,0,0,1,.16,1.7h-6.35A4.5,4.5,0,0,0,1740.46,768.36Zm5-3.08a3.22,3.22,0,0,0-.53-.94,2.45,2.45,0,0,0-.81-.65,2.28,2.28,0,0,0-1.09-.25,2.32,2.32,0,0,0-1.1.25,2.49,2.49,0,0,0-.82.65,3.38,3.38,0,0,0-.53.95,4.24,4.24,0,0,0-.27,1.09h5.35A4,4,0,0,0,1745.46,765.28Z" transform="translate(-1581.97 -712.77)"/><path class="cls-6" d="M1753.46,759.67v4.59h0a2.4,2.4,0,0,1,1-1.21,3,3,0,0,1,1.61-.46,4,4,0,0,1,1.45.23,2.36,2.36,0,0,1,.94.63,2.29,2.29,0,0,1,.49,1,5.41,5.41,0,0,1,.15,1.33v5.31h-1v-5.15a4.43,4.43,0,0,0-.1-1,2,2,0,0,0-.33-.79,1.71,1.71,0,0,0-.65-.53,2.35,2.35,0,0,0-1-.19,2.51,2.51,0,0,0-1.08.22,2.35,2.35,0,0,0-.8.59,3.09,3.09,0,0,0-.51.89,3.77,3.77,0,0,0-.2,1.13v4.82h-1V759.67Z" transform="translate(-1581.97 -712.77)"/><path class="cls-6" d="M1761.27,764.11a2.28,2.28,0,0,1,.7-.86,2.83,2.83,0,0,1,1-.5,5.28,5.28,0,0,1,1.31-.16,5.76,5.76,0,0,1,1.09.11,2.72,2.72,0,0,1,1,.39,2.15,2.15,0,0,1,.7.81,2.89,2.89,0,0,1,.27,1.35v4.38a.53.53,0,0,0,.59.61.79.79,0,0,0,.32-.06V771a2,2,0,0,1-.31.05l-.34,0a1.74,1.74,0,0,1-.62-.1.88.88,0,0,1-.36-.3,1.1,1.1,0,0,1-.17-.46,5,5,0,0,1,0-.58h0a6,6,0,0,1-.55.71,2.81,2.81,0,0,1-.63.52,2.61,2.61,0,0,1-.78.32,4,4,0,0,1-1,.11,4.21,4.21,0,0,1-1.08-.13,2.58,2.58,0,0,1-.88-.43,2,2,0,0,1-.59-.76,2.53,2.53,0,0,1-.22-1.08,2.13,2.13,0,0,1,.39-1.35,2.4,2.4,0,0,1,1-.74,6,6,0,0,1,1.43-.36l1.61-.2.56-.08a1.12,1.12,0,0,0,.4-.17.75.75,0,0,0,.24-.33,1.38,1.38,0,0,0,.09-.54,1.75,1.75,0,0,0-.17-.84,1.29,1.29,0,0,0-.46-.52,1.92,1.92,0,0,0-.69-.27,4.46,4.46,0,0,0-.84-.07,2.52,2.52,0,0,0-1.57.46,1.82,1.82,0,0,0-.64,1.46h-1A3.33,3.33,0,0,1,1761.27,764.11Zm5,2.47a.58.58,0,0,1-.37.25,4.19,4.19,0,0,1-.48.12c-.42.07-.86.14-1.32.19a7.31,7.31,0,0,0-1.24.27,2.46,2.46,0,0,0-.92.5,1.21,1.21,0,0,0-.36.94,1.51,1.51,0,0,0,.15.68,1.71,1.71,0,0,0,.41.51,2,2,0,0,0,.59.33,2.37,2.37,0,0,0,.69.11,3.44,3.44,0,0,0,1.11-.18,2.59,2.59,0,0,0,.92-.51,2.37,2.37,0,0,0,.62-.81,2.56,2.56,0,0,0,.23-1.09v-1.31Z" transform="translate(-1581.97 -712.77)"/><path class="cls-6" d="M1770.29,762.83v1.57h0a2.72,2.72,0,0,1,1.14-1.34,3.79,3.79,0,0,1,3.44-.11,3.35,3.35,0,0,1,1.16.95,4,4,0,0,1,.69,1.39,6.45,6.45,0,0,1,0,3.34,4,4,0,0,1-.69,1.39,3.35,3.35,0,0,1-1.16,1,3.64,3.64,0,0,1-1.64.34,3.47,3.47,0,0,1-.9-.11,3.51,3.51,0,0,1-.83-.33,2.83,2.83,0,0,1-.68-.57,2.31,2.31,0,0,1-.45-.78h0v4.61h-1v-11.3Zm5.53,2.86a3.48,3.48,0,0,0-.48-1.13,2.71,2.71,0,0,0-.84-.81,2.29,2.29,0,0,0-1.23-.31,3,3,0,0,0-1.39.29,2.42,2.42,0,0,0-.9.77,3.05,3.05,0,0,0-.47,1.12,6.4,6.4,0,0,0-.14,1.34,5,5,0,0,0,.16,1.27,3.29,3.29,0,0,0,.49,1.13,2.59,2.59,0,0,0,2.25,1.12,2.29,2.29,0,0,0,1.23-.31,2.71,2.71,0,0,0,.84-.81,3.48,3.48,0,0,0,.48-1.13,5.45,5.45,0,0,0,0-2.54Z" transform="translate(-1581.97 -712.77)"/><path class="cls-6" d="M1779.48,762.83v1.57h0a2.77,2.77,0,0,1,1.14-1.34,3.79,3.79,0,0,1,3.44-.11,3.26,3.26,0,0,1,1.16.95,4,4,0,0,1,.69,1.39,6.18,6.18,0,0,1,0,3.34,4,4,0,0,1-.69,1.39,3.26,3.26,0,0,1-1.16,1,3.64,3.64,0,0,1-1.64.34,3.44,3.44,0,0,1-.89-.11,3.2,3.2,0,0,1-.83-.33,2.49,2.49,0,0,1-.68-.57,2.33,2.33,0,0,1-.46-.78h0v4.61h-1v-11.3Zm5.53,2.86a4,4,0,0,0-.48-1.13,2.71,2.71,0,0,0-.84-.81,2.35,2.35,0,0,0-1.24-.31,3.07,3.07,0,0,0-1.39.29,2.39,2.39,0,0,0-.89.77,2.91,2.91,0,0,0-.48,1.12,6.41,6.41,0,0,0-.13,1.34,5.44,5.44,0,0,0,.15,1.27,3.31,3.31,0,0,0,.5,1.13,2.55,2.55,0,0,0,2.24,1.12,2.35,2.35,0,0,0,1.24-.31,2.71,2.71,0,0,0,.84-.81,4,4,0,0,0,.48-1.13,5.45,5.45,0,0,0,0-2.54Z" transform="translate(-1581.97 -712.77)"/><path class="cls-6" d="M1787.88,762.83l2.72,7,2.54-7h1l-3.58,9.51a9,9,0,0,1-.42.87,2,2,0,0,1-.42.54,1.39,1.39,0,0,1-.55.29,2.91,2.91,0,0,1-.79.09l-.47,0a.94.94,0,0,1-.3-.05v-.85l.35.06.34,0a1.26,1.26,0,0,0,.55-.1,1.12,1.12,0,0,0,.38-.26,1.82,1.82,0,0,0,.27-.41l.24-.52.35-.93-3.29-8.23Z" transform="translate(-1581.97 -712.77)"/><path class="cls-6" d="M1799.83,762.83l2.11,7.08h0l2-7.08h1.14l2,7.08h0l2.12-7.08h1.07l-2.66,8.26h-1.1l-2-7h0l-2,7h-1.11l-2.65-8.26Z" transform="translate(-1581.97 -712.77)"/><path class="cls-6" d="M1812.47,759.67v1.61h-1v-1.61Zm0,3.16v8.26h-1v-8.26Z" transform="translate(-1581.97 -712.77)"/><path class="cls-6" d="M1817.69,762.83v.85H1816v5.57a1.78,1.78,0,0,0,.13.77c.09.19.32.3.68.32a8.46,8.46,0,0,0,.87-.05v.85h-.45l-.45,0a1.48,1.48,0,0,1-1.79-1.84v-5.65h-1.44v-.85H1815v-2.48h1v2.48Z" transform="translate(-1581.97 -712.77)"/><path class="cls-6" d="M1820.13,759.67v4.59h0a2.4,2.4,0,0,1,1-1.21,3.05,3.05,0,0,1,1.62-.46,4,4,0,0,1,1.44.23,2.29,2.29,0,0,1,.94.63,2.42,2.42,0,0,1,.5,1,6,6,0,0,1,.14,1.33v5.31h-1v-5.15a5.13,5.13,0,0,0-.09-1,2.18,2.18,0,0,0-.34-.79,1.71,1.71,0,0,0-.65-.53,2.33,2.33,0,0,0-1-.19,2.45,2.45,0,0,0-1.08.22,2.17,2.17,0,0,0-.8.59,2.9,2.9,0,0,0-.52.89,3.77,3.77,0,0,0-.2,1.13v4.82h-1V759.67Z" transform="translate(-1581.97 -712.77)"/><path class="cls-6" d="M1632.18,778.83v.85h-1.68v5.57a1.76,1.76,0,0,0,.14.77c.09.19.32.3.68.32a8.11,8.11,0,0,0,.86-.05v.85h-.44l-.45,0a2,2,0,0,1-1.41-.39,1.93,1.93,0,0,1-.38-1.45v-5.65h-1.44v-.85h1.44v-2.48h1v2.48Z" transform="translate(-1581.97 -712.77)"/><path class="cls-6" d="M1634.63,775.67v4.59h0a2.42,2.42,0,0,1,1-1.21,3,3,0,0,1,1.61-.46,4,4,0,0,1,1.45.23,2.36,2.36,0,0,1,.94.63,2.29,2.29,0,0,1,.49,1,5.41,5.41,0,0,1,.15,1.33v5.31h-1v-5.15a4.43,4.43,0,0,0-.1-1,2,2,0,0,0-.33-.79,1.71,1.71,0,0,0-.65-.53,2.35,2.35,0,0,0-1-.19,2.51,2.51,0,0,0-1.08.22,2.35,2.35,0,0,0-.8.59,2.69,2.69,0,0,0-.51.89,3.77,3.77,0,0,0-.2,1.13v4.82h-1V775.67Z" transform="translate(-1581.97 -712.77)"/><path class="cls-6" d="M1643,784.36a3.38,3.38,0,0,0,.49,1,3,3,0,0,0,.85.77,2.39,2.39,0,0,0,1.23.3,2.47,2.47,0,0,0,1.73-.57,3,3,0,0,0,.86-1.54h1a4,4,0,0,1-1.17,2.17,3.48,3.48,0,0,1-2.43.77,3.86,3.86,0,0,1-1.69-.34,3.18,3.18,0,0,1-1.16-1,4.16,4.16,0,0,1-.66-1.39,6.48,6.48,0,0,1-.22-1.67,6.17,6.17,0,0,1,.22-1.6,4.41,4.41,0,0,1,.66-1.4,3.38,3.38,0,0,1,1.16-1,3.6,3.6,0,0,1,1.69-.38,3.47,3.47,0,0,1,1.7.4,3.39,3.39,0,0,1,1.14,1,4.07,4.07,0,0,1,.63,1.49,6.1,6.1,0,0,1,.16,1.7h-6.35A4.5,4.5,0,0,0,1643,784.36Zm5-3.08a3.44,3.44,0,0,0-.52-.94,2.59,2.59,0,0,0-.82-.65,2.28,2.28,0,0,0-1.09-.25,2.32,2.32,0,0,0-1.1.25,2.59,2.59,0,0,0-.82.65,3.38,3.38,0,0,0-.53.95,4.7,4.7,0,0,0-.27,1.09h5.35A3.69,3.69,0,0,0,1648,781.28Z" transform="translate(-1581.97 -712.77)"/><path class="cls-6" d="M1660.14,779a3.48,3.48,0,0,1,1.23.94,4.09,4.09,0,0,1,.75,1.38,5.84,5.84,0,0,1,0,3.38,4,4,0,0,1-.75,1.38,3.48,3.48,0,0,1-1.23.94,4.27,4.27,0,0,1-3.34,0,3.57,3.57,0,0,1-1.23-.94,4,4,0,0,1-.75-1.38,5.84,5.84,0,0,1,0-3.38,4.09,4.09,0,0,1,.75-1.38,3.57,3.57,0,0,1,1.23-.94,4.05,4.05,0,0,1,3.34,0Zm-2.93.8a2.67,2.67,0,0,0-.91.79,3.69,3.69,0,0,0-.54,1.13,4.47,4.47,0,0,0,0,2.58,3.58,3.58,0,0,0,.54,1.13,2.81,2.81,0,0,0,.91.8,2.8,2.8,0,0,0,2.52,0,2.81,2.81,0,0,0,.91-.8,3.58,3.58,0,0,0,.54-1.13,4.47,4.47,0,0,0,0-2.58,3.69,3.69,0,0,0-.54-1.13,2.67,2.67,0,0,0-.91-.79,2.72,2.72,0,0,0-2.52,0Z" transform="translate(-1581.97 -712.77)"/><path class="cls-6" d="M1669.64,787.09V785.6h0a2.87,2.87,0,0,1-1.16,1.27,3.26,3.26,0,0,1-1.69.44,3.81,3.81,0,0,1-1.34-.21,2.23,2.23,0,0,1-.89-.62,2.54,2.54,0,0,1-.51-1,5.16,5.16,0,0,1-.16-1.31v-5.36h1v5.38a2.73,2.73,0,0,0,.52,1.7,2.14,2.14,0,0,0,1.69.57,2.09,2.09,0,0,0,1.12-.28,2.47,2.47,0,0,0,.77-.74,3.56,3.56,0,0,0,.45-1.07,5.57,5.57,0,0,0,.14-1.22v-4.34h1v8.26Z" transform="translate(-1581.97 -712.77)"/><path class="cls-6" d="M1675.75,778.83v.85h-1.68v5.57a1.76,1.76,0,0,0,.14.77c.09.19.31.3.68.32a8.43,8.43,0,0,0,.86-.05v.85h-.45l-.45,0a1.49,1.49,0,0,1-1.79-1.84v-5.65h-1.44v-.85h1.44v-2.48h1v2.48Z" transform="translate(-1581.97 -712.77)"/><path class="cls-6" d="M1682.26,780a2.18,2.18,0,0,0-1.56-.53,2.47,2.47,0,0,0-1.27.31,2.74,2.74,0,0,0-.9.79,4,4,0,0,0-.55,1.13,4.71,4.71,0,0,0,0,2.58,3.83,3.83,0,0,0,.55,1.13,2.88,2.88,0,0,0,.9.8,2.56,2.56,0,0,0,1.27.3,2.23,2.23,0,0,0,.88-.18,2.37,2.37,0,0,0,.73-.48,2.74,2.74,0,0,0,.53-.75,2.61,2.61,0,0,0,.25-.94h1a3.79,3.79,0,0,1-1.1,2.34,3.24,3.24,0,0,1-2.3.84A3.91,3.91,0,0,1,1679,787a3.54,3.54,0,0,1-1.22-.94,4,4,0,0,1-.75-1.38,5.62,5.62,0,0,1,0-3.38,4.09,4.09,0,0,1,.75-1.38A3.54,3.54,0,0,1,1679,779a3.77,3.77,0,0,1,1.68-.36,3.57,3.57,0,0,1,2.24.71,3,3,0,0,1,1.1,2.12h-1A2.75,2.75,0,0,0,1682.26,780Z" transform="translate(-1581.97 -712.77)"/><path class="cls-6" d="M1690.67,779a3.45,3.45,0,0,1,1.22.94,4,4,0,0,1,.76,1.38,5.84,5.84,0,0,1,0,3.38,3.86,3.86,0,0,1-.76,1.38,3.45,3.45,0,0,1-1.22.94,4.27,4.27,0,0,1-3.34,0,3.48,3.48,0,0,1-1.23-.94,4,4,0,0,1-.75-1.38,5.62,5.62,0,0,1,0-3.38,4.09,4.09,0,0,1,.75-1.38,3.48,3.48,0,0,1,1.23-.94,4.05,4.05,0,0,1,3.34,0Zm-2.94.8a2.74,2.74,0,0,0-.9.79,3.69,3.69,0,0,0-.54,1.13,4.47,4.47,0,0,0,0,2.58,3.58,3.58,0,0,0,.54,1.13,2.88,2.88,0,0,0,.9.8,2.62,2.62,0,0,0,1.27.3,2.55,2.55,0,0,0,1.26-.3,2.92,2.92,0,0,0,.91-.8,3.58,3.58,0,0,0,.54-1.13,4.71,4.71,0,0,0,0-2.58,3.69,3.69,0,0,0-.54-1.13,2.77,2.77,0,0,0-.91-.79,2.45,2.45,0,0,0-1.26-.31A2.52,2.52,0,0,0,1687.73,779.75Z" transform="translate(-1581.97 -712.77)"/><path class="cls-6" d="M1695.33,778.83v1.39h.05a3.24,3.24,0,0,1,1-1.2,3,3,0,0,1,1.66-.43,2.91,2.91,0,0,1,1.48.4,2,2,0,0,1,.88,1.22,2.6,2.6,0,0,1,1.09-1.22,3.18,3.18,0,0,1,1.54-.4c1.82,0,2.73,1,2.73,2.9v5.6h-1v-5.55a2.4,2.4,0,0,0-.44-1.56,1.83,1.83,0,0,0-1.52-.54,2.08,2.08,0,0,0-1.08.25,1.9,1.9,0,0,0-.69.66,2.93,2.93,0,0,0-.36.95,5.83,5.83,0,0,0-.11,1.12v4.67h-1v-5.6a3.35,3.35,0,0,0-.09-.79,2,2,0,0,0-.29-.66,1.31,1.31,0,0,0-.54-.44,1.8,1.8,0,0,0-.81-.16,2.53,2.53,0,0,0-1.11.23,2.1,2.1,0,0,0-.77.64,2.73,2.73,0,0,0-.44,1,4.61,4.61,0,0,0-.15,1.21v4.61h-1v-8.26Z" transform="translate(-1581.97 -712.77)"/><path class="cls-6" d="M1708.48,784.36a3,3,0,0,0,.49,1,2.82,2.82,0,0,0,.84.77,2.81,2.81,0,0,0,3-.27,3,3,0,0,0,.87-1.54h1a4,4,0,0,1-1.18,2.17,3.47,3.47,0,0,1-2.42.77,3.83,3.83,0,0,1-1.69-.34,3.1,3.1,0,0,1-1.16-1,4.18,4.18,0,0,1-.67-1.39,6.48,6.48,0,0,1-.21-1.67,6.16,6.16,0,0,1,.21-1.6,4.43,4.43,0,0,1,.67-1.4,3.29,3.29,0,0,1,1.16-1,3.57,3.57,0,0,1,1.69-.38,3.43,3.43,0,0,1,1.69.4,3.52,3.52,0,0,1,1.15,1,4.44,4.44,0,0,1,.63,1.49,6.5,6.5,0,0,1,.16,1.7h-6.35A4.5,4.5,0,0,0,1708.48,784.36Zm5-3.08a3.19,3.19,0,0,0-.52-.94,2.49,2.49,0,0,0-.82-.65,2.26,2.26,0,0,0-1.08-.25,2.33,2.33,0,0,0-1.11.25,2.45,2.45,0,0,0-.81.65,3.17,3.17,0,0,0-.54.95,4.67,4.67,0,0,0-.26,1.09h5.34A3.69,3.69,0,0,0,1713.47,781.28Z" transform="translate(-1581.97 -712.77)"/><path class="cls-6" d="M1716.63,785.39H1718v1.7h-1.34Z" transform="translate(-1581.97 -712.77)"/></g></svg>