<svg xmlns="http://www.w3.org/2000/svg" viewBox="0 0 230.91 125.99"><defs><style>.cls-1,.cls-6{fill:#007681;}.cls-1{opacity:0.6;}.cls-2{fill:#e6eff3;stroke:#279989;stroke-miterlimit:10;}.cls-3{opacity:0.2;}.cls-4{fill:#279989;}.cls-5{fill:#f2f2f2;}</style></defs><g id="Layer_30" data-name="Layer 30"><path class="cls-1" d="M1851.33,406.67l-212.26-4.74a6.11,6.11,0,0,1-6.22-6l2.3-80c.09-3.09,2.94-5.57,6.38-5.54L1848,312.11c3.65,0,6.72,2.64,6.84,5.84l3.12,82.79C1858.05,404.1,1855.1,406.76,1851.33,406.67Z" transform="translate(-1627.01 -280.69)"/><rect class="cls-2" x="0.5" y="26.7" width="223.99" height="92.41" rx="6.41"/><g class="cls-3"><polygon points="107.64 42.97 96.03 22.86 107.64 2.75 130.86 2.75 142.47 22.86 130.86 42.97 107.64 42.97"/><path d="M1757.44,284.19l11.18,19.36-11.18,19.36h-22.35l-11.18-19.36,11.18-19.36h22.35m.87-1.5h-24.09l-12,20.86,12,20.86h24.09l12-20.86-12-20.86Z" transform="translate(-1627.01 -280.69)"/></g><polygon class="cls-4" points="105.64 40.97 94.03 20.86 105.64 0.75 128.86 0.75 140.47 20.86 128.86 40.97 105.64 40.97"/><path class="cls-5" d="M1755.44,282.19l11.18,19.36-11.18,19.36h-22.35l-11.18-19.36,11.18-19.36h22.35m.87-1.5h-24.09l-12,20.86,12,20.86h24.09l12-20.86-12-20.86Z" transform="translate(-1627.01 -280.69)"/><path class="cls-5" d="M1733.33,298.11h-4.23v-2.82h.39a6.17,6.17,0,0,0,3.4-.81,3.74,3.74,0,0,0,1.58-2.61h3.18v21.24h-4.32Z" transform="translate(-1627.01 -280.69)"/><path class="cls-5" d="M1749.74,291.87h4.47v13.47h2v3.36h-2v4.41h-4V308.7h-7.56v-3.54Zm.45,5.4-4.14,8.07h4.2v-8.07Z" transform="translate(-1627.01 -280.69)"/><path class="cls-6" d="M1636.67,321.72h2.3v9.54h4.08v1.89h-6.38Z" transform="translate(-1627.01 -280.69)"/><path class="cls-6" d="M1644,327a3,3,0,0,1,.24-1.26,2.24,2.24,0,0,1,.64-.81,2.62,2.62,0,0,1,1-.45,4.87,4.87,0,0,1,1.17-.14,5.34,5.34,0,0,1,1.6.2,2.09,2.09,0,0,1,1,.54,1.81,1.81,0,0,1,.45.84,4.41,4.41,0,0,1,.12,1.06v4.53a5.79,5.79,0,0,0,.06.95,3.35,3.35,0,0,0,.21.72h-2.11a2.35,2.35,0,0,1-.17-.44c0-.16-.07-.31-.1-.46h0a1.85,1.85,0,0,1-.89.87,3.68,3.68,0,0,1-1.31.2,2.21,2.21,0,0,1-1-.2,1.64,1.64,0,0,1-.64-.55,2.45,2.45,0,0,1-.35-.79,3.35,3.35,0,0,1-.11-.87,4,4,0,0,1,.12-1.05,1.92,1.92,0,0,1,.4-.75,2,2,0,0,1,.67-.52,4.79,4.79,0,0,1,1-.37l1.25-.34a1.31,1.31,0,0,0,.69-.35,1,1,0,0,0,.19-.66,1.18,1.18,0,0,0-.23-.77,1,1,0,0,0-.79-.28,1,1,0,0,0-.77.3,1.24,1.24,0,0,0-.26.82v.24h-2Zm3.55,2.15a3,3,0,0,1-.46.15,1.8,1.8,0,0,0-1,.48,1.39,1.39,0,0,0-.28.92,1.68,1.68,0,0,0,.19.84.67.67,0,0,0,.64.36,1.54,1.54,0,0,0,.46-.08,1.1,1.1,0,0,0,.44-.23,1,1,0,0,0,.33-.41,1.31,1.31,0,0,0,.13-.61v-1.7A1.94,1.94,0,0,1,1647.55,329.12Z" transform="translate(-1627.01 -280.69)"/><path class="cls-6" d="M1656.09,332.14a2.1,2.1,0,0,1-.91.91,2.9,2.9,0,0,1-1.28.27,2.22,2.22,0,0,1-1.62-.55,2.5,2.5,0,0,1-.57-1.85v-6.38h2.21v5.93a1.49,1.49,0,0,0,.22.94.88.88,0,0,0,.72.26c.78,0,1.17-.47,1.17-1.42v-5.71h2.21v8.61h-2.12v-1Z" transform="translate(-1627.01 -280.69)"/><path class="cls-6" d="M1661.82,324.54v1h0a2.26,2.26,0,0,1,.92-.94,2.62,2.62,0,0,1,1.27-.3,2.2,2.2,0,0,1,1.63.58,2.58,2.58,0,0,1,.57,1.87v6.39H1664v-5.94a1.42,1.42,0,0,0-.23-.94.89.89,0,0,0-.72-.26c-.77,0-1.16.47-1.16,1.42v5.72h-2.21v-8.61Z" transform="translate(-1627.01 -280.69)"/><path class="cls-6" d="M1671.81,327a1.77,1.77,0,0,0-.14-.55.94.94,0,0,0-.3-.4.74.74,0,0,0-.51-.16,1.09,1.09,0,0,0-.65.19,1.06,1.06,0,0,0-.39.54,4.56,4.56,0,0,0-.18.91c0,.37,0,.81,0,1.31s0,1,0,1.37a4.65,4.65,0,0,0,.18.93,1.11,1.11,0,0,0,.36.54,1,1,0,0,0,.6.17.87.87,0,0,0,.82-.48,3.49,3.49,0,0,0,.25-1.54H1674a3.89,3.89,0,0,1-.75,2.58,3.14,3.14,0,0,1-2.52.89,4.79,4.79,0,0,1-1.45-.2,2.11,2.11,0,0,1-1-.72,3.58,3.58,0,0,1-.61-1.39,9.42,9.42,0,0,1-.21-2.17,8,8,0,0,1,.25-2.2,3.73,3.73,0,0,1,.73-1.39,2.4,2.4,0,0,1,1.1-.73,4.53,4.53,0,0,1,1.41-.21,2.89,2.89,0,0,1,2.31.9,3.58,3.58,0,0,1,.77,2.43h-2.11A4.21,4.21,0,0,0,1671.81,327Z" transform="translate(-1627.01 -280.69)"/><path class="cls-6" d="M1677.32,321.72v3.7h0a2.55,2.55,0,0,1,3.72-.53,2.58,2.58,0,0,1,.56,1.87v6.39h-2.2v-5.94a1.48,1.48,0,0,0-.23-.94.92.92,0,0,0-.72-.26c-.78,0-1.17.47-1.17,1.42v5.72h-2.2V321.72Z" transform="translate(-1627.01 -280.69)"/><path class="cls-6" d="M1638,337.72v7.07a5.5,5.5,0,0,0,.22,1.69,2.84,2.84,0,0,0,.66,1.14,2.68,2.68,0,0,0,1,.64,5.14,5.14,0,0,0,2.84,0,2.68,2.68,0,0,0,1-.64,2.84,2.84,0,0,0,.66-1.14,5.5,5.5,0,0,0,.22-1.69v-7.07h1.09V345a5.47,5.47,0,0,1-.25,1.68,3.77,3.77,0,0,1-.78,1.38,3.84,3.84,0,0,1-1.38.94,5.58,5.58,0,0,1-2,.34,5.5,5.5,0,0,1-2-.34,3.84,3.84,0,0,1-1.38-.94,3.64,3.64,0,0,1-.78-1.38,5.47,5.47,0,0,1-.25-1.68v-7.31Z" transform="translate(-1627.01 -280.69)"/><path class="cls-6" d="M1648.72,340.89v1.57h0a2.72,2.72,0,0,1,1.14-1.34,3.5,3.5,0,0,1,1.8-.47,3.64,3.64,0,0,1,1.64.35,3.37,3.37,0,0,1,1.16.95,4.08,4.08,0,0,1,.69,1.4,6,6,0,0,1,.23,1.67,6.12,6.12,0,0,1-.23,1.67,4,4,0,0,1-.69,1.39,3.26,3.26,0,0,1-1.16.95,3.78,3.78,0,0,1-1.64.34,3.87,3.87,0,0,1-.89-.11,3.44,3.44,0,0,1-.84-.34,2.56,2.56,0,0,1-.67-.56,2.33,2.33,0,0,1-.46-.78h0v4.61h-1v-11.3Zm5.53,2.86a3.85,3.85,0,0,0-.48-1.13,2.71,2.71,0,0,0-.84-.81,2.35,2.35,0,0,0-1.24-.31,2.92,2.92,0,0,0-1.39.29,2.36,2.36,0,0,0-.89.76,3,3,0,0,0-.48,1.12,6.58,6.58,0,0,0-.13,1.35,5.51,5.51,0,0,0,.15,1.27,3.31,3.31,0,0,0,.5,1.13,2.58,2.58,0,0,0,.89.81,2.81,2.81,0,0,0,1.35.31,2.45,2.45,0,0,0,1.24-.31,2.71,2.71,0,0,0,.84-.81,4,4,0,0,0,.48-1.13,5.51,5.51,0,0,0,.15-1.27A5.44,5.44,0,0,0,1654.25,343.75Z" transform="translate(-1627.01 -280.69)"/><path class="cls-6" d="M1662.13,341a3.63,3.63,0,0,1,1.23.95,4,4,0,0,1,.75,1.38,5.62,5.62,0,0,1,0,3.38,4.19,4.19,0,0,1-.75,1.38,3.6,3.6,0,0,1-1.23.94,4.27,4.27,0,0,1-3.34,0,3.6,3.6,0,0,1-1.23-.94,4.19,4.19,0,0,1-.75-1.38,5.84,5.84,0,0,1,0-3.38,4,4,0,0,1,.75-1.38,3.63,3.63,0,0,1,1.23-.95,4.16,4.16,0,0,1,3.34,0Zm-2.93.8a2.7,2.7,0,0,0-.91.8,3.58,3.58,0,0,0-.54,1.13,4.68,4.68,0,0,0-.19,1.29,4.74,4.74,0,0,0,.19,1.29,3.53,3.53,0,0,0,.54,1.12,2.7,2.7,0,0,0,.91.8,2.72,2.72,0,0,0,2.52,0,2.7,2.7,0,0,0,.91-.8,3.53,3.53,0,0,0,.54-1.12,4.74,4.74,0,0,0,.19-1.29,4.68,4.68,0,0,0-.19-1.29,3.58,3.58,0,0,0-.54-1.13,2.7,2.7,0,0,0-.91-.8,2.8,2.8,0,0,0-2.52,0Z" transform="translate(-1627.01 -280.69)"/><path class="cls-6" d="M1666.86,340.89v1.42h0a2.4,2.4,0,0,1,1-1.2,3,3,0,0,1,1.61-.46,4.06,4.06,0,0,1,1.45.22,2.2,2.2,0,0,1,1.43,1.64,5.32,5.32,0,0,1,.15,1.32v5.32h-1V344a4.34,4.34,0,0,0-.1-1,2,2,0,0,0-.33-.79,1.62,1.62,0,0,0-.65-.53,2.35,2.35,0,0,0-1-.19,2.67,2.67,0,0,0-1.08.21,2.51,2.51,0,0,0-.8.6,2.59,2.59,0,0,0-.51.89,3.72,3.72,0,0,0-.2,1.13v4.82h-1v-8.26Z" transform="translate(-1627.01 -280.69)"/><path class="cls-6" d="M1679.12,342.17a2.35,2.35,0,0,1,.69-.86,3,3,0,0,1,1-.5,5,5,0,0,1,1.32-.16,5.64,5.64,0,0,1,1.08.1,2.51,2.51,0,0,1,1,.4,2.11,2.11,0,0,1,.7.8,2.83,2.83,0,0,1,.28,1.36v4.38c0,.41.19.61.59.61a.68.68,0,0,0,.32-.07v.85l-.31.05-.35,0a1.48,1.48,0,0,1-.61-.11.81.81,0,0,1-.36-.29,1,1,0,0,1-.17-.46,3.52,3.52,0,0,1,0-.58h0a8.8,8.8,0,0,1-.56.71,2.56,2.56,0,0,1-.62.52,3,3,0,0,1-.78.32,4.64,4.64,0,0,1-1,.11,4.09,4.09,0,0,1-1.08-.14,2.34,2.34,0,0,1-.88-.43,2.07,2.07,0,0,1-.59-.75,2.39,2.39,0,0,1-.22-1.08,2.15,2.15,0,0,1,.38-1.35,2.43,2.43,0,0,1,1-.75,5.9,5.9,0,0,1,1.42-.36l1.61-.2a3.76,3.76,0,0,0,.56-.08.91.91,0,0,0,.4-.16.76.76,0,0,0,.25-.33,1.4,1.4,0,0,0,.09-.55,1.87,1.87,0,0,0-.17-.84,1.37,1.37,0,0,0-.46-.52,2.11,2.11,0,0,0-.69-.26,4.46,4.46,0,0,0-.84-.07,2.58,2.58,0,0,0-1.57.45,1.79,1.79,0,0,0-.64,1.47h-1A3.33,3.33,0,0,1,1679.12,342.17Zm5,2.46a.58.58,0,0,1-.37.26,4,4,0,0,1-.48.11c-.43.08-.87.14-1.32.2a7.1,7.1,0,0,0-1.24.27,2.33,2.33,0,0,0-.92.5,1.21,1.21,0,0,0-.36.94,1.51,1.51,0,0,0,.15.68,1.81,1.81,0,0,0,.41.51,2,2,0,0,0,.59.33,2.26,2.26,0,0,0,.69.11,3.38,3.38,0,0,0,1.1-.18,2.84,2.84,0,0,0,.92-.51,2.57,2.57,0,0,0,.63-.82,2.52,2.52,0,0,0,.23-1.08v-1.32Z" transform="translate(-1627.01 -280.69)"/><path class="cls-6" d="M1688.14,340.89v1.57h0a2.74,2.74,0,0,1,1.15-1.34,3.45,3.45,0,0,1,1.8-.47,3.67,3.67,0,0,1,1.64.35,3.47,3.47,0,0,1,1.16.95,4.06,4.06,0,0,1,.68,1.4,6,6,0,0,1,.23,1.67,6.12,6.12,0,0,1-.23,1.67,4,4,0,0,1-.68,1.39,3.35,3.35,0,0,1-1.16.95,3.81,3.81,0,0,1-1.64.34,4,4,0,0,1-.9-.11,3.22,3.22,0,0,1-.83-.34,2.61,2.61,0,0,1-.68-.56,2.33,2.33,0,0,1-.46-.78h0v4.61h-1v-11.3Zm5.53,2.86a3.39,3.39,0,0,0-.48-1.13,2.71,2.71,0,0,0-.84-.81,2.29,2.29,0,0,0-1.23-.31,3,3,0,0,0-1.4.29,2.36,2.36,0,0,0-.89.76,3,3,0,0,0-.47,1.12,6.57,6.57,0,0,0-.14,1.35,5.51,5.51,0,0,0,.15,1.27,3.31,3.31,0,0,0,.5,1.13,2.77,2.77,0,0,0,.89.81,2.82,2.82,0,0,0,1.36.31,2.39,2.39,0,0,0,1.23-.31,2.71,2.71,0,0,0,.84-.81,3.48,3.48,0,0,0,.48-1.13,5.51,5.51,0,0,0,.15-1.27A5.44,5.44,0,0,0,1693.67,343.75Z" transform="translate(-1627.01 -280.69)"/><path class="cls-6" d="M1697.32,340.89v1.57h0a2.67,2.67,0,0,1,1.14-1.34,3.5,3.5,0,0,1,1.8-.47,3.64,3.64,0,0,1,1.64.35,3.47,3.47,0,0,1,1.16.95,4.08,4.08,0,0,1,.69,1.4A6,6,0,0,1,1704,345a6.12,6.12,0,0,1-.22,1.67,4,4,0,0,1-.69,1.39,3.35,3.35,0,0,1-1.16.95,3.78,3.78,0,0,1-1.64.34,4,4,0,0,1-.9-.11,3.54,3.54,0,0,1-.83-.34,2.78,2.78,0,0,1-.68-.56,2.16,2.16,0,0,1-.45-.78h0v4.61h-1v-11.3Zm5.53,2.86a3.39,3.39,0,0,0-.48-1.13,2.71,2.71,0,0,0-.84-.81,2.29,2.29,0,0,0-1.23-.31,2.89,2.89,0,0,0-1.39.29,2.39,2.39,0,0,0-.9.76,3.13,3.13,0,0,0-.47,1.12,6.57,6.57,0,0,0-.14,1.35,5,5,0,0,0,.16,1.27,3.29,3.29,0,0,0,.49,1.13,2.71,2.71,0,0,0,.9.81,2.81,2.81,0,0,0,1.35.31,2.39,2.39,0,0,0,1.23-.31,2.71,2.71,0,0,0,.84-.81,3.48,3.48,0,0,0,.48-1.13A5.51,5.51,0,0,0,1703,345,5.44,5.44,0,0,0,1702.85,343.75Z" transform="translate(-1627.01 -280.69)"/><path class="cls-6" d="M1706.51,340.89v1.94h0a3,3,0,0,1,3.12-2.05v1a3,3,0,0,0-1.25.18,2.77,2.77,0,0,0-1.6,1.57,3.18,3.18,0,0,0-.22,1.21v4.4h-1v-8.26Z" transform="translate(-1627.01 -280.69)"/><path class="cls-6" d="M1715.49,341a3.59,3.59,0,0,1,1.22.95,4,4,0,0,1,.76,1.38,5.84,5.84,0,0,1,0,3.38,4.21,4.21,0,0,1-.76,1.38,3.56,3.56,0,0,1-1.22.94,4.27,4.27,0,0,1-3.34,0,3.6,3.6,0,0,1-1.23-.94,4.19,4.19,0,0,1-.75-1.38,5.84,5.84,0,0,1,0-3.38,4,4,0,0,1,.75-1.38,3.63,3.63,0,0,1,1.23-.95,4.16,4.16,0,0,1,3.34,0Zm-2.94.8a2.77,2.77,0,0,0-.9.8,3.58,3.58,0,0,0-.54,1.13,4.33,4.33,0,0,0-.19,1.29,4.38,4.38,0,0,0,.19,1.29,3.53,3.53,0,0,0,.54,1.12,2.77,2.77,0,0,0,.9.8,2.52,2.52,0,0,0,1.27.31,2.45,2.45,0,0,0,1.26-.31,2.7,2.7,0,0,0,.91-.8,3.53,3.53,0,0,0,.54-1.12,4.73,4.73,0,0,0,.18-1.29,4.67,4.67,0,0,0-.18-1.29,3.58,3.58,0,0,0-.54-1.13,2.7,2.7,0,0,0-.91-.8,2.55,2.55,0,0,0-1.26-.3A2.62,2.62,0,0,0,1712.55,341.8Z" transform="translate(-1627.01 -280.69)"/><path class="cls-6" d="M1719.42,340.89l2.59,7.25h0l2.56-7.25h1l-3.08,8.26h-1.08l-3.18-8.26Z" transform="translate(-1627.01 -280.69)"/><path class="cls-6" d="M1726.84,342.17a2.37,2.37,0,0,1,.7-.86,2.91,2.91,0,0,1,1-.5,4.85,4.85,0,0,1,1.31-.16,5.67,5.67,0,0,1,1.09.1,2.57,2.57,0,0,1,1,.4,2.19,2.19,0,0,1,.7.8,3,3,0,0,1,.27,1.36v4.38a.53.53,0,0,0,.59.61.66.66,0,0,0,.32-.07v.85l-.31.05-.34,0a1.53,1.53,0,0,1-.62-.11.94.94,0,0,1-.36-.29,1.09,1.09,0,0,1-.16-.46,3.48,3.48,0,0,1,0-.58h0a7,7,0,0,1-.55.71,2.77,2.77,0,0,1-.62.52,3,3,0,0,1-.79.32,4.48,4.48,0,0,1-1,.11,4.09,4.09,0,0,1-1.08-.14,2.46,2.46,0,0,1-.89-.43,2.19,2.19,0,0,1-.59-.75,2.54,2.54,0,0,1-.21-1.08,2.09,2.09,0,0,1,.38-1.35,2.43,2.43,0,0,1,1-.75,5.78,5.78,0,0,1,1.42-.36l1.61-.2a4,4,0,0,0,.56-.08,1,1,0,0,0,.4-.16.76.76,0,0,0,.25-.33,1.61,1.61,0,0,0,.09-.55,1.87,1.87,0,0,0-.17-.84,1.39,1.39,0,0,0-.47-.52,2,2,0,0,0-.69-.26,4.46,4.46,0,0,0-.84-.07,2.55,2.55,0,0,0-1.56.45,1.79,1.79,0,0,0-.64,1.47h-1A3.33,3.33,0,0,1,1726.84,342.17Zm5,2.46a.54.54,0,0,1-.37.26,4.33,4.33,0,0,1-.47.11c-.43.08-.87.14-1.33.2a7.31,7.31,0,0,0-1.24.27,2.33,2.33,0,0,0-.92.5,1.2,1.2,0,0,0-.35.94,1.51,1.51,0,0,0,.15.68,1.77,1.77,0,0,0,.4.51,2.05,2.05,0,0,0,.6.33,2.26,2.26,0,0,0,.69.11,3.38,3.38,0,0,0,1.1-.18,2.84,2.84,0,0,0,.92-.51,2.41,2.41,0,0,0,.62-.82,2.38,2.38,0,0,0,.24-1.08v-1.32Z" transform="translate(-1627.01 -280.69)"/><path class="cls-6" d="M1736,337.72v11.43h-1V337.72Z" transform="translate(-1627.01 -280.69)"/><path class="cls-6" d="M1739.83,349.15a3.25,3.25,0,0,1-.08.69,2.42,2.42,0,0,1-.27.64,1.82,1.82,0,0,1-.44.52,1.49,1.49,0,0,1-.61.32v-.69a.69.69,0,0,0,.33-.24,1.28,1.28,0,0,0,.24-.39,1.69,1.69,0,0,0,.14-.45,1.41,1.41,0,0,0,0-.4h-.67v-1.7h1.34Z" transform="translate(-1627.01 -280.69)"/><path class="cls-6" d="M1747,340.89l2.11,7.07h0l2-7.07h1.13l2,7.07h0l2.11-7.07h1.07l-2.65,8.26h-1.11l-2-6.95h0l-2,6.95h-1.1l-2.66-8.26Z" transform="translate(-1627.01 -280.69)"/><path class="cls-6" d="M1759.4,346.42a3.15,3.15,0,0,0,.48,1.05,3,3,0,0,0,.85.76,2.29,2.29,0,0,0,1.23.31,2.41,2.41,0,0,0,1.73-.58,2.89,2.89,0,0,0,.86-1.53h1a4,4,0,0,1-1.17,2.17,3.52,3.52,0,0,1-2.43.77,3.93,3.93,0,0,1-1.68-.34,3,3,0,0,1-1.16-.95,4.18,4.18,0,0,1-.67-1.39,6.53,6.53,0,0,1-.21-1.67,6.11,6.11,0,0,1,.21-1.6,4.43,4.43,0,0,1,.67-1.4,3.21,3.21,0,0,1,1.16-1,3.42,3.42,0,0,1,1.68-.38,3.25,3.25,0,0,1,2.84,1.45,4.26,4.26,0,0,1,.64,1.49,6.91,6.91,0,0,1,.16,1.7h-6.36A4.16,4.16,0,0,0,1759.4,346.42Zm5-3.08a3.3,3.3,0,0,0-.52-.94,2.59,2.59,0,0,0-.82-.65,2.28,2.28,0,0,0-1.09-.25,2.32,2.32,0,0,0-1.1.25,2.59,2.59,0,0,0-.82.65,3.24,3.24,0,0,0-.53,1,4.58,4.58,0,0,0-.27,1.09h5.35A3.69,3.69,0,0,0,1764.39,343.34Z" transform="translate(-1627.01 -280.69)"/><path class="cls-6" d="M1772.43,337.72v11.43h-1V337.72Z" transform="translate(-1627.01 -280.69)"/><path class="cls-6" d="M1774.57,342.17a2.28,2.28,0,0,1,.7-.86,2.83,2.83,0,0,1,1-.5,4.85,4.85,0,0,1,1.31-.16,5.74,5.74,0,0,1,1.09.1,2.57,2.57,0,0,1,1,.4,2.19,2.19,0,0,1,.7.8,3,3,0,0,1,.27,1.36v4.38a.53.53,0,0,0,.59.61.66.66,0,0,0,.32-.07v.85l-.31.05-.34,0a1.53,1.53,0,0,1-.62-.11.94.94,0,0,1-.36-.29,1.26,1.26,0,0,1-.17-.46,5.11,5.11,0,0,1,0-.58h0a7,7,0,0,1-.55.71,3,3,0,0,1-.62.52,3.11,3.11,0,0,1-.79.32,4.51,4.51,0,0,1-1,.11,4.2,4.2,0,0,1-1.08-.14,2.41,2.41,0,0,1-.88-.43,2.19,2.19,0,0,1-.59-.75,2.54,2.54,0,0,1-.21-1.08,2.09,2.09,0,0,1,.38-1.35,2.31,2.31,0,0,1,1-.75,5.78,5.78,0,0,1,1.42-.36l1.61-.2a4,4,0,0,0,.56-.08,1,1,0,0,0,.4-.16.75.75,0,0,0,.24-.33,1.4,1.4,0,0,0,.09-.55,1.75,1.75,0,0,0-.17-.84,1.29,1.29,0,0,0-.46-.52,2.11,2.11,0,0,0-.69-.26,4.46,4.46,0,0,0-.84-.07,2.53,2.53,0,0,0-1.56.45,1.79,1.79,0,0,0-.64,1.47h-1A3.33,3.33,0,0,1,1774.57,342.17Zm5,2.46a.56.56,0,0,1-.37.26,4,4,0,0,1-.48.11c-.42.08-.86.14-1.32.2a7.31,7.31,0,0,0-1.24.27,2.33,2.33,0,0,0-.92.5,1.21,1.21,0,0,0-.36.94,1.39,1.39,0,0,0,.16.68,1.77,1.77,0,0,0,.4.51,1.93,1.93,0,0,0,.6.33,2.25,2.25,0,0,0,.68.11,3.4,3.4,0,0,0,1.11-.18,2.84,2.84,0,0,0,.92-.51,2.41,2.41,0,0,0,.62-.82,2.38,2.38,0,0,0,.23-1.08v-1.32Z" transform="translate(-1627.01 -280.69)"/><path class="cls-6" d="M1788.43,349.15v-1.49h0a2.81,2.81,0,0,1-1.16,1.27,3.29,3.29,0,0,1-1.68.44,3.55,3.55,0,0,1-1.34-.22,2.25,2.25,0,0,1-.9-.61,2.67,2.67,0,0,1-.5-1,4.75,4.75,0,0,1-.16-1.31v-5.36h1v5.38a2.64,2.64,0,0,0,.52,1.69,2.09,2.09,0,0,0,1.69.58,2.21,2.21,0,0,0,1.12-.28,2.37,2.37,0,0,0,.76-.75,3.06,3.06,0,0,0,.45-1.06,5,5,0,0,0,.15-1.22v-4.34h1v8.26Z" transform="translate(-1627.01 -280.69)"/><path class="cls-6" d="M1792.25,340.89v1.42h0a2.4,2.4,0,0,1,1-1.2,3,3,0,0,1,1.61-.46,4.06,4.06,0,0,1,1.45.22,2.2,2.2,0,0,1,1.43,1.64,5.32,5.32,0,0,1,.15,1.32v5.32h-1V344a4.34,4.34,0,0,0-.1-1,2,2,0,0,0-.33-.79,1.62,1.62,0,0,0-.65-.53,2.35,2.35,0,0,0-1-.19,2.67,2.67,0,0,0-1.08.21,2.51,2.51,0,0,0-.8.6,2.59,2.59,0,0,0-.51.89,3.72,3.72,0,0,0-.2,1.13v4.82h-1v-8.26Z" transform="translate(-1627.01 -280.69)"/><path class="cls-6" d="M1804.91,342a2.18,2.18,0,0,0-1.57-.53,2.62,2.62,0,0,0-1.27.3,2.77,2.77,0,0,0-.9.8,3.58,3.58,0,0,0-.54,1.13,4.33,4.33,0,0,0-.19,1.29,4.38,4.38,0,0,0,.19,1.29,3.53,3.53,0,0,0,.54,1.12,2.77,2.77,0,0,0,.9.8,2.52,2.52,0,0,0,1.27.31,2.2,2.2,0,0,0,.88-.18,2.45,2.45,0,0,0,.74-.49,2.52,2.52,0,0,0,.52-.74,2.68,2.68,0,0,0,.26-.94h1a3.8,3.8,0,0,1-1.11,2.34,3.23,3.23,0,0,1-2.3.84,4,4,0,0,1-1.67-.34,3.6,3.6,0,0,1-1.23-.94,4.19,4.19,0,0,1-.75-1.38,5.62,5.62,0,0,1,0-3.38,4,4,0,0,1,.75-1.38,3.63,3.63,0,0,1,1.23-.95,3.83,3.83,0,0,1,1.67-.35,3.61,3.61,0,0,1,2.25.7,3,3,0,0,1,1.09,2.13h-1A2.7,2.7,0,0,0,1804.91,342Z" transform="translate(-1627.01 -280.69)"/><path class="cls-6" d="M1809.15,337.72v4.59h0a2.38,2.38,0,0,1,1-1.2,3,3,0,0,1,1.62-.46,4.1,4.1,0,0,1,1.45.22,2.18,2.18,0,0,1,.93.64,2.3,2.3,0,0,1,.5,1,5.87,5.87,0,0,1,.14,1.32v5.32h-1V344a5,5,0,0,0-.09-1,2.18,2.18,0,0,0-.34-.79,1.56,1.56,0,0,0-.65-.53,2.33,2.33,0,0,0-1-.19,2.6,2.6,0,0,0-1.08.21,2.41,2.41,0,0,0-.8.6,2.59,2.59,0,0,0-.51.89,3.43,3.43,0,0,0-.2,1.13v4.82h-1V337.72Z" transform="translate(-1627.01 -280.69)"/><path class="cls-6" d="M1824.47,340.89v.85h-1.68v5.57a1.76,1.76,0,0,0,.14.77c.09.19.32.29.68.31a8.12,8.12,0,0,0,.86,0v.84l-.44,0-.45,0a1.49,1.49,0,0,1-1.79-1.84v-5.65h-1.44v-.85h1.44v-2.48h1v2.48Z" transform="translate(-1627.01 -280.69)"/><path class="cls-6" d="M1826.92,337.72v4.59h0a2.38,2.38,0,0,1,1-1.2,3,3,0,0,1,1.61-.46,4.06,4.06,0,0,1,1.45.22,2.2,2.2,0,0,1,1.43,1.64,5.32,5.32,0,0,1,.15,1.32v5.32h-1V344a4.34,4.34,0,0,0-.1-1,2,2,0,0,0-.33-.79,1.62,1.62,0,0,0-.65-.53,2.35,2.35,0,0,0-1-.19,2.67,2.67,0,0,0-1.08.21,2.51,2.51,0,0,0-.8.6,3,3,0,0,0-.51.89,3.72,3.72,0,0,0-.2,1.13v4.82h-1V337.72Z" transform="translate(-1627.01 -280.69)"/><path class="cls-6" d="M1835.27,346.42a3.15,3.15,0,0,0,.48,1.05,3,3,0,0,0,.85.76,2.29,2.29,0,0,0,1.23.31,2.41,2.41,0,0,0,1.73-.58,3,3,0,0,0,.87-1.53h1a4,4,0,0,1-1.17,2.17,3.52,3.52,0,0,1-2.43.77,3.93,3.93,0,0,1-1.68-.34,3.1,3.1,0,0,1-1.16-.95,4.18,4.18,0,0,1-.67-1.39,6.53,6.53,0,0,1-.21-1.67,6.11,6.11,0,0,1,.21-1.6,4.43,4.43,0,0,1,.67-1.4,3.29,3.29,0,0,1,1.16-1,3.42,3.42,0,0,1,1.68-.38,3.34,3.34,0,0,1,1.7.4,3.39,3.39,0,0,1,1.14,1.05,4.26,4.26,0,0,1,.64,1.49,6.91,6.91,0,0,1,.16,1.7h-6.36A4.59,4.59,0,0,0,1835.27,346.42Zm5-3.08a3.07,3.07,0,0,0-.52-.94,2.59,2.59,0,0,0-.82-.65,2.28,2.28,0,0,0-1.09-.25,2.32,2.32,0,0,0-1.1.25,2.59,2.59,0,0,0-.82.65,3.24,3.24,0,0,0-.53,1,5.11,5.11,0,0,0-.27,1.09h5.35A3.69,3.69,0,0,0,1840.26,343.34Z" transform="translate(-1627.01 -280.69)"/><path class="cls-6" d="M1637.76,356.89v1.57h0a2.72,2.72,0,0,1,1.14-1.34,3.5,3.5,0,0,1,1.8-.47,3.64,3.64,0,0,1,1.64.35,3.37,3.37,0,0,1,1.16.95,4.08,4.08,0,0,1,.69,1.4,6,6,0,0,1,.23,1.67,6.12,6.12,0,0,1-.23,1.67,4,4,0,0,1-.69,1.39,3.26,3.26,0,0,1-1.16.95,3.78,3.78,0,0,1-1.64.34,3.87,3.87,0,0,1-.89-.11,3.22,3.22,0,0,1-.83-.34,2.45,2.45,0,0,1-.68-.56,2.33,2.33,0,0,1-.46-.78h0v4.61h-1v-11.3Zm5.53,2.86a3.62,3.62,0,0,0-.49-1.13,2.51,2.51,0,0,0-.84-.81,2.29,2.29,0,0,0-1.23-.31,2.92,2.92,0,0,0-1.39.29,2.36,2.36,0,0,0-.89.76,3,3,0,0,0-.48,1.12,6.58,6.58,0,0,0-.13,1.35,5.51,5.51,0,0,0,.15,1.27,3.31,3.31,0,0,0,.5,1.13,2.58,2.58,0,0,0,.89.81,2.81,2.81,0,0,0,1.35.31,2.39,2.39,0,0,0,1.23-.31,2.51,2.51,0,0,0,.84-.81,3.72,3.72,0,0,0,.49-1.13,5.51,5.51,0,0,0,.15-1.27A5.44,5.44,0,0,0,1643.29,359.75Z" transform="translate(-1627.01 -280.69)"/><path class="cls-6" d="M1646.94,356.89v1.94h0a3.26,3.26,0,0,1,1.19-1.56,3.17,3.17,0,0,1,1.93-.49v1a3,3,0,0,0-1.25.18,2.69,2.69,0,0,0-1,.62,2.62,2.62,0,0,0-.64,1,3.38,3.38,0,0,0-.22,1.21v4.4h-1v-8.26Z" transform="translate(-1627.01 -280.69)"/><path class="cls-6" d="M1655.92,357a3.63,3.63,0,0,1,1.23.95,4,4,0,0,1,.75,1.38,5.62,5.62,0,0,1,0,3.38,4.19,4.19,0,0,1-.75,1.38,3.6,3.6,0,0,1-1.23.94,4.27,4.27,0,0,1-3.34,0,3.66,3.66,0,0,1-1.22-.94,4.41,4.41,0,0,1-.76-1.38,5.84,5.84,0,0,1,0-3.38,4.19,4.19,0,0,1,.76-1.38,3.69,3.69,0,0,1,1.22-.95,4.16,4.16,0,0,1,3.34,0Zm-2.93.8a2.8,2.8,0,0,0-.91.8,3.58,3.58,0,0,0-.54,1.13,4.67,4.67,0,0,0-.18,1.29,4.73,4.73,0,0,0,.18,1.29,3.53,3.53,0,0,0,.54,1.12,2.8,2.8,0,0,0,.91.8,2.45,2.45,0,0,0,1.26.31,2.52,2.52,0,0,0,1.27-.31,2.77,2.77,0,0,0,.9-.8,3.53,3.53,0,0,0,.54-1.12,4.38,4.38,0,0,0,.19-1.29,4.33,4.33,0,0,0-.19-1.29,3.58,3.58,0,0,0-.54-1.13,2.77,2.77,0,0,0-.9-.8,2.62,2.62,0,0,0-1.27-.3A2.55,2.55,0,0,0,1653,357.8Z" transform="translate(-1627.01 -280.69)"/><path class="cls-6" d="M1660.69,356.89v9a5,5,0,0,1-.08.88,2.12,2.12,0,0,1-.27.73,1.42,1.42,0,0,1-.54.49,1.87,1.87,0,0,1-.87.19l-.35,0-.34,0v-.83l.27,0h.26a.75.75,0,0,0,.75-.35,2.11,2.11,0,0,0,.16-.85v-9.25Zm0-3.17v1.62h-1v-1.62Z" transform="translate(-1627.01 -280.69)"/><path class="cls-6" d="M1663.37,362.42a3.15,3.15,0,0,0,.48,1.05,3,3,0,0,0,.85.76,2.29,2.29,0,0,0,1.23.31,2.41,2.41,0,0,0,1.73-.58,3,3,0,0,0,.87-1.53h1a4,4,0,0,1-1.17,2.17,3.52,3.52,0,0,1-2.43.77,3.93,3.93,0,0,1-1.68-.34,3.13,3.13,0,0,1-1.17-.95,4.16,4.16,0,0,1-.66-1.39,6.53,6.53,0,0,1-.21-1.67,6.11,6.11,0,0,1,.21-1.6,4.41,4.41,0,0,1,.66-1.4,3.33,3.33,0,0,1,1.17-1,3.42,3.42,0,0,1,1.68-.38,3.25,3.25,0,0,1,2.84,1.45,4.26,4.26,0,0,1,.64,1.49,6.45,6.45,0,0,1,.15,1.7h-6.35A4.16,4.16,0,0,0,1663.37,362.42Zm5-3.08a3.3,3.3,0,0,0-.52-.94,2.59,2.59,0,0,0-.82-.65,2.28,2.28,0,0,0-1.09-.25,2.32,2.32,0,0,0-1.1.25,2.59,2.59,0,0,0-.82.65,3.24,3.24,0,0,0-.53,1,4.58,4.58,0,0,0-.27,1.09h5.35A3.69,3.69,0,0,0,1668.36,359.34Z" transform="translate(-1627.01 -280.69)"/><path class="cls-6" d="M1676,358a2.16,2.16,0,0,0-1.57-.53,2.55,2.55,0,0,0-1.26.3,2.8,2.8,0,0,0-.91.8,3.58,3.58,0,0,0-.54,1.13,4.67,4.67,0,0,0-.18,1.29,4.73,4.73,0,0,0,.18,1.29,3.53,3.53,0,0,0,.54,1.12,2.8,2.8,0,0,0,.91.8,2.45,2.45,0,0,0,1.26.31,2.16,2.16,0,0,0,.88-.18,2.33,2.33,0,0,0,.74-.49,2.55,2.55,0,0,0,.53-.74,2.67,2.67,0,0,0,.25-.94h1a3.85,3.85,0,0,1-1.1,2.34,3.25,3.25,0,0,1-2.31.84,4,4,0,0,1-1.67-.34,3.66,3.66,0,0,1-1.22-.94,4.41,4.41,0,0,1-.76-1.38,5.84,5.84,0,0,1,0-3.38,4.19,4.19,0,0,1,.76-1.38,3.69,3.69,0,0,1,1.22-.95,3.87,3.87,0,0,1,1.67-.35,3.57,3.57,0,0,1,2.25.7,3,3,0,0,1,1.1,2.13h-1A2.78,2.78,0,0,0,1676,358Z" transform="translate(-1627.01 -280.69)"/><path class="cls-6" d="M1682.51,356.89v.85h-1.68v5.57a1.78,1.78,0,0,0,.13.77c.09.19.32.29.68.31a8.44,8.44,0,0,0,.87,0v.84l-.45,0-.45,0a1.92,1.92,0,0,1-1.4-.4,1.94,1.94,0,0,1-.39-1.44v-5.65h-1.44v-.85h1.44v-2.48h1v2.48Z" transform="translate(-1627.01 -280.69)"/><path class="cls-6" d="M1693.57,357a3.73,3.73,0,0,1,1.23.95,4,4,0,0,1,.75,1.38,5.84,5.84,0,0,1,0,3.38,4.19,4.19,0,0,1-.75,1.38,3.7,3.7,0,0,1-1.23.94,4.27,4.27,0,0,1-3.34,0,3.6,3.6,0,0,1-1.23-.94,4.19,4.19,0,0,1-.75-1.38,5.84,5.84,0,0,1,0-3.38A4,4,0,0,1,1689,358a3.63,3.63,0,0,1,1.23-.95,4.16,4.16,0,0,1,3.34,0Zm-2.93.8a2.7,2.7,0,0,0-.91.8,3.58,3.58,0,0,0-.54,1.13A4.68,4.68,0,0,0,1689,361a4.74,4.74,0,0,0,.19,1.29,3.53,3.53,0,0,0,.54,1.12,2.7,2.7,0,0,0,.91.8,2.72,2.72,0,0,0,2.52,0,2.7,2.7,0,0,0,.91-.8,3.53,3.53,0,0,0,.54-1.12,4.74,4.74,0,0,0,.19-1.29,4.68,4.68,0,0,0-.19-1.29,3.58,3.58,0,0,0-.54-1.13,2.7,2.7,0,0,0-.91-.8,2.8,2.8,0,0,0-2.52,0Z" transform="translate(-1627.01 -280.69)"/><path class="cls-6" d="M1698.3,356.89v1.42h0a2.4,2.4,0,0,1,1-1.2,3,3,0,0,1,1.61-.46,4.06,4.06,0,0,1,1.45.22,2.2,2.2,0,0,1,1.43,1.64,5.32,5.32,0,0,1,.15,1.32v5.32h-1V360a4.34,4.34,0,0,0-.1-1,2,2,0,0,0-.33-.79,1.62,1.62,0,0,0-.65-.53,2.35,2.35,0,0,0-1-.19,2.67,2.67,0,0,0-1.08.21,2.51,2.51,0,0,0-.8.6,2.59,2.59,0,0,0-.51.89,3.72,3.72,0,0,0-.2,1.13v4.82h-1v-8.26Z" transform="translate(-1627.01 -280.69)"/><path class="cls-6" d="M1716.68,365.15v-1.57h0a2.4,2.4,0,0,1-.47.73,3,3,0,0,1-.71.57,3.26,3.26,0,0,1-.86.36,3.11,3.11,0,0,1-.9.13,3.78,3.78,0,0,1-1.64-.34,3.26,3.26,0,0,1-1.16-.95,4,4,0,0,1-.69-1.39A6.12,6.12,0,0,1,1710,361a6,6,0,0,1,.22-1.67,4.08,4.08,0,0,1,.69-1.4,3.37,3.37,0,0,1,1.16-.95,3.64,3.64,0,0,1,1.64-.35,3.82,3.82,0,0,1,.9.11,3.18,3.18,0,0,1,.83.35,3,3,0,0,1,.68.56,2.66,2.66,0,0,1,.45.79h0v-4.74h1v11.43Zm-5.52-2.86a3.48,3.48,0,0,0,.48,1.13,2.51,2.51,0,0,0,.84.81,2.39,2.39,0,0,0,1.23.31,2.81,2.81,0,0,0,1.35-.31,2.71,2.71,0,0,0,.9-.81,3.29,3.29,0,0,0,.49-1.13,5.51,5.51,0,0,0,.15-1.27,5.44,5.44,0,0,0-.15-1.27,3.21,3.21,0,0,0-.49-1.13,2.59,2.59,0,0,0-2.25-1.12,2.29,2.29,0,0,0-1.23.31,2.51,2.51,0,0,0-.84.81,3.39,3.39,0,0,0-.48,1.13A5,5,0,0,0,1711,361,5,5,0,0,0,1711.16,362.29Z" transform="translate(-1627.01 -280.69)"/><path class="cls-6" d="M1720.55,353.72v1.62h-1v-1.62Zm0,3.17v8.26h-1v-8.26Z" transform="translate(-1627.01 -280.69)"/><path class="cls-6" d="M1724,357.74v7.41h-1v-7.41h-1.41v-.85H1723v-.75a5.05,5.05,0,0,1,.08-1,1.88,1.88,0,0,1,.3-.77,1.46,1.46,0,0,1,.62-.49,2.39,2.39,0,0,1,1-.18l.41,0a3.8,3.8,0,0,1,.43.05v.86l-.38-.06-.35,0a1.25,1.25,0,0,0-.64.13.77.77,0,0,0-.33.34,1.32,1.32,0,0,0-.12.51c0,.19,0,.4,0,.62v.72h1.64v.85Z" transform="translate(-1627.01 -280.69)"/><path class="cls-6" d="M1727.9,357.74v7.41h-1v-7.41h-1.41v-.85h1.41v-.75a6,6,0,0,1,.08-1,1.76,1.76,0,0,1,.31-.77,1.43,1.43,0,0,1,.61-.49,2.42,2.42,0,0,1,1-.18l.42,0a3.8,3.8,0,0,1,.43.05v.86l-.38-.06-.36,0a1.27,1.27,0,0,0-.64.13.7.7,0,0,0-.32.34,1.32,1.32,0,0,0-.12.51,6.12,6.12,0,0,0,0,.62v.72h1.63v.85Z" transform="translate(-1627.01 -280.69)"/><path class="cls-6" d="M1731.23,362.42a3.38,3.38,0,0,0,.49,1.05,3,3,0,0,0,.85.76,2.29,2.29,0,0,0,1.23.31,2.41,2.41,0,0,0,1.73-.58,3,3,0,0,0,.86-1.53h1a4,4,0,0,1-1.17,2.17,3.52,3.52,0,0,1-2.43.77,3.93,3.93,0,0,1-1.68-.34,3,3,0,0,1-1.16-.95,4,4,0,0,1-.67-1.39,6.53,6.53,0,0,1-.22-1.67,6.12,6.12,0,0,1,.22-1.6,4.22,4.22,0,0,1,.67-1.4,3.21,3.21,0,0,1,1.16-1,3.42,3.42,0,0,1,1.68-.38,3.25,3.25,0,0,1,2.84,1.45,4.26,4.26,0,0,1,.64,1.49,6.45,6.45,0,0,1,.15,1.7h-6.35A4.56,4.56,0,0,0,1731.23,362.42Zm5-3.08a3.3,3.3,0,0,0-.52-.94,2.59,2.59,0,0,0-.82-.65,2.28,2.28,0,0,0-1.09-.25,2.32,2.32,0,0,0-1.1.25,2.59,2.59,0,0,0-.82.65,3.24,3.24,0,0,0-.53,1,4.15,4.15,0,0,0-.27,1.09h5.35A3.69,3.69,0,0,0,1736.23,359.34Z" transform="translate(-1627.01 -280.69)"/><path class="cls-6" d="M1739.72,356.89v1.94h0a3.22,3.22,0,0,1,1.2-1.56,3.13,3.13,0,0,1,1.93-.49v1a3,3,0,0,0-1.25.18,2.65,2.65,0,0,0-1,.62,2.72,2.72,0,0,0-.63,1,3.18,3.18,0,0,0-.23,1.21v4.4h-1v-8.26Z" transform="translate(-1627.01 -280.69)"/><path class="cls-6" d="M1744.29,362.42a3,3,0,0,0,.49,1.05,2.83,2.83,0,0,0,.85.76,2.29,2.29,0,0,0,1.23.31,2.45,2.45,0,0,0,1.73-.58,3,3,0,0,0,.86-1.53h1a4,4,0,0,1-1.18,2.17,3.51,3.51,0,0,1-2.42.77,4,4,0,0,1-1.69-.34,3.18,3.18,0,0,1-1.16-.95,4,4,0,0,1-.66-1.39,6.12,6.12,0,0,1-.22-1.67,5.72,5.72,0,0,1,.22-1.6,4.2,4.2,0,0,1,.66-1.4,3.38,3.38,0,0,1,1.16-1,3.48,3.48,0,0,1,1.69-.38,3.3,3.3,0,0,1,1.69.4,3.42,3.42,0,0,1,1.15,1.05,4.44,4.44,0,0,1,.63,1.49,6.46,6.46,0,0,1,.16,1.7h-6.35A4.56,4.56,0,0,0,1744.29,362.42Zm5-3.08a2.87,2.87,0,0,0-.52-.94,2.45,2.45,0,0,0-.81-.65,2.3,2.3,0,0,0-1.09-.25,2.33,2.33,0,0,0-1.11.25,2.56,2.56,0,0,0-.81.65,3.26,3.26,0,0,0-.54,1,4.56,4.56,0,0,0-.26,1.09h5.34A3.4,3.4,0,0,0,1749.28,359.34Z" transform="translate(-1627.01 -280.69)"/><path class="cls-6" d="M1752.84,356.89v1.42h0a2.38,2.38,0,0,1,1-1.2,3,3,0,0,1,1.61-.46,4.06,4.06,0,0,1,1.45.22,2.2,2.2,0,0,1,1.43,1.64,5.32,5.32,0,0,1,.15,1.32v5.32h-1V360a4.34,4.34,0,0,0-.1-1,2,2,0,0,0-.33-.79,1.62,1.62,0,0,0-.65-.53,2.35,2.35,0,0,0-1-.19,2.67,2.67,0,0,0-1.08.21,2.51,2.51,0,0,0-.8.6,3,3,0,0,0-.51.89,3.72,3.72,0,0,0-.2,1.13v4.82h-1v-8.26Z" transform="translate(-1627.01 -280.69)"/><path class="cls-6" d="M1763.72,356.89v.85H1762v5.57a1.76,1.76,0,0,0,.14.77c.09.19.32.29.68.31a8.25,8.25,0,0,0,.86,0v.84l-.45,0-.44,0a1.5,1.5,0,0,1-1.8-1.84v-5.65h-1.44v-.85H1761v-2.48h1v2.48Z" transform="translate(-1627.01 -280.69)"/><path class="cls-6" d="M1770.65,353.72v11.43h-1V353.72Z" transform="translate(-1627.01 -280.69)"/><path class="cls-6" d="M1773.33,362.42a3,3,0,0,0,.49,1.05,2.72,2.72,0,0,0,.85.76,2.29,2.29,0,0,0,1.23.31,2.45,2.45,0,0,0,1.73-.58,3,3,0,0,0,.86-1.53h1a4,4,0,0,1-1.18,2.17,3.51,3.51,0,0,1-2.42.77,4,4,0,0,1-1.69-.34,3.18,3.18,0,0,1-1.16-.95,4,4,0,0,1-.66-1.39,6.12,6.12,0,0,1-.22-1.67,5.72,5.72,0,0,1,.22-1.6,4.2,4.2,0,0,1,.66-1.4,3.38,3.38,0,0,1,1.16-1,3.46,3.46,0,0,1,1.69-.38,3.33,3.33,0,0,1,1.69.4,3.52,3.52,0,0,1,1.15,1.05,4.44,4.44,0,0,1,.63,1.49,6.46,6.46,0,0,1,.16,1.7h-6.35A4.56,4.56,0,0,0,1773.33,362.42Zm5-3.08a2.87,2.87,0,0,0-.52-.94,2.45,2.45,0,0,0-.81-.65,2.3,2.3,0,0,0-1.09-.25,2.33,2.33,0,0,0-1.11.25,2.45,2.45,0,0,0-.81.65,3.26,3.26,0,0,0-.54,1,4.56,4.56,0,0,0-.26,1.09h5.34A3.69,3.69,0,0,0,1778.32,359.34Z" transform="translate(-1627.01 -280.69)"/><path class="cls-6" d="M1781.1,358.17a2.35,2.35,0,0,1,.69-.86,3,3,0,0,1,1-.5,4.85,4.85,0,0,1,1.31-.16,5.82,5.82,0,0,1,1.09.1,2.53,2.53,0,0,1,1,.4,2.22,2.22,0,0,1,.71.8,3,3,0,0,1,.27,1.36v4.38a.53.53,0,0,0,.59.61.68.68,0,0,0,.32-.07v.85l-.31.05-.35,0a1.48,1.48,0,0,1-.61-.11.81.81,0,0,1-.36-.29,1.1,1.1,0,0,1-.17-.46,3.52,3.52,0,0,1,0-.58h0a8.78,8.78,0,0,1-.55.71,2.81,2.81,0,0,1-.63.52,3,3,0,0,1-.78.32,4.57,4.57,0,0,1-1,.11,4.2,4.2,0,0,1-1.08-.14,2.34,2.34,0,0,1-.88-.43,2.07,2.07,0,0,1-.59-.75,2.39,2.39,0,0,1-.22-1.08,2.09,2.09,0,0,1,.39-1.35,2.34,2.34,0,0,1,1-.75,5.87,5.87,0,0,1,1.43-.36l1.6-.2a3.76,3.76,0,0,0,.56-.08.91.91,0,0,0,.4-.16.76.76,0,0,0,.25-.33,1.4,1.4,0,0,0,.09-.55,1.87,1.87,0,0,0-.17-.84,1.37,1.37,0,0,0-.46-.52,2.11,2.11,0,0,0-.69-.26,4.46,4.46,0,0,0-.84-.07,2.58,2.58,0,0,0-1.57.45,1.82,1.82,0,0,0-.64,1.47h-1A3.53,3.53,0,0,1,1781.1,358.17Zm5,2.46a.58.58,0,0,1-.37.26,4,4,0,0,1-.48.11c-.43.08-.87.14-1.32.2a7.1,7.1,0,0,0-1.24.27,2.33,2.33,0,0,0-.92.5,1.21,1.21,0,0,0-.36.94,1.51,1.51,0,0,0,.15.68,1.81,1.81,0,0,0,.41.51,2,2,0,0,0,.59.33,2.31,2.31,0,0,0,.69.11,3.38,3.38,0,0,0,1.1-.18,2.74,2.74,0,0,0,.92-.51,2.57,2.57,0,0,0,.63-.82,2.52,2.52,0,0,0,.23-1.08v-1.32Z" transform="translate(-1627.01 -280.69)"/><path class="cls-6" d="M1790.12,356.89v1.94h0a3.22,3.22,0,0,1,1.2-1.56,3.12,3.12,0,0,1,1.92-.49v1a2.92,2.92,0,0,0-1.24.18,2.65,2.65,0,0,0-1,.62,2.59,2.59,0,0,0-.63,1,3.18,3.18,0,0,0-.23,1.21v4.4h-1v-8.26Z" transform="translate(-1627.01 -280.69)"/><path class="cls-6" d="M1795.51,356.89v1.42h0a2.44,2.44,0,0,1,1-1.2,3,3,0,0,1,1.62-.46,4,4,0,0,1,1.44.22,2.2,2.2,0,0,1,1.43,1.64,5.32,5.32,0,0,1,.15,1.32v5.32h-1V360a5,5,0,0,0-.09-1,2.18,2.18,0,0,0-.34-.79,1.62,1.62,0,0,0-.65-.53,2.33,2.33,0,0,0-1-.19,2.6,2.6,0,0,0-1.08.21,2.45,2.45,0,0,0-.81.6,3,3,0,0,0-.51.89,3.72,3.72,0,0,0-.2,1.13v4.82h-1v-8.26Z" transform="translate(-1627.01 -280.69)"/><path class="cls-6" d="M1804.14,353.72v1.62h-1v-1.62Zm0,3.17v8.26h-1v-8.26Z" transform="translate(-1627.01 -280.69)"/><path class="cls-6" d="M1807.06,356.89v1.42h0a2.38,2.38,0,0,1,1-1.2,3,3,0,0,1,1.62-.46,4,4,0,0,1,1.44.22,2.22,2.22,0,0,1,.94.64,2.3,2.3,0,0,1,.5,1,5.87,5.87,0,0,1,.14,1.32v5.32h-1V360a5,5,0,0,0-.09-1,2.18,2.18,0,0,0-.34-.79,1.56,1.56,0,0,0-.65-.53,2.33,2.33,0,0,0-1-.19,2.6,2.6,0,0,0-1.08.21,2.41,2.41,0,0,0-.8.6,2.79,2.79,0,0,0-.52.89,4,4,0,0,0-.2,1.13v4.82h-1v-8.26Z" transform="translate(-1627.01 -280.69)"/><path class="cls-6" d="M1821.44,366.12a3.14,3.14,0,0,1-.63,1.25,2.79,2.79,0,0,1-1.13.78,4.69,4.69,0,0,1-1.7.28,5,5,0,0,1-1.22-.15,3.14,3.14,0,0,1-1.06-.45,2.64,2.64,0,0,1-.79-.77,2.4,2.4,0,0,1-.36-1.13h1a1.83,1.83,0,0,0,.31.78,2.06,2.06,0,0,0,.56.5,2.46,2.46,0,0,0,.73.28,3.75,3.75,0,0,0,.82.09,2.43,2.43,0,0,0,2-.8,3.74,3.74,0,0,0,.62-2.31v-1.12h0a2.91,2.91,0,0,1-1,1.24,2.75,2.75,0,0,1-1.59.46,4,4,0,0,1-1.7-.33,3.16,3.16,0,0,1-1.16-.9,3.87,3.87,0,0,1-.66-1.35,6.34,6.34,0,0,1-.21-1.66,5,5,0,0,1,.25-1.61,3.8,3.8,0,0,1,.72-1.33,3.43,3.43,0,0,1,1.16-.89,3.72,3.72,0,0,1,1.6-.33,2.73,2.73,0,0,1,.87.13,2.42,2.42,0,0,1,.74.36,2.78,2.78,0,0,1,.6.53,2.66,2.66,0,0,1,.41.64h0v-1.42h1v7.58A6.43,6.43,0,0,1,1821.44,366.12Zm-2.31-2.2a2.65,2.65,0,0,0,.83-.73,3.4,3.4,0,0,0,.5-1.05,4.18,4.18,0,0,0,.17-1.22,5.55,5.55,0,0,0-.14-1.21,3.44,3.44,0,0,0-.47-1.11,2.41,2.41,0,0,0-.82-.8,2.32,2.32,0,0,0-1.22-.3,2.55,2.55,0,0,0-1.24.29,2.61,2.61,0,0,0-.84.78,3.06,3.06,0,0,0-.49,1.1,5.28,5.28,0,0,0-.15,1.25,4.54,4.54,0,0,0,.16,1.22,3.17,3.17,0,0,0,.49,1.05,2.73,2.73,0,0,0,.85.73,2.47,2.47,0,0,0,1.22.28A2.28,2.28,0,0,0,1819.13,363.92Z" transform="translate(-1627.01 -280.69)"/><path class="cls-6" d="M1637.76,372.89v1.57h0a2.72,2.72,0,0,1,1.14-1.34,3.5,3.5,0,0,1,1.8-.47,3.64,3.64,0,0,1,1.64.35,3.37,3.37,0,0,1,1.16.95,4.08,4.08,0,0,1,.69,1.4,6,6,0,0,1,.23,1.67,6.12,6.12,0,0,1-.23,1.67,4,4,0,0,1-.69,1.39,3.26,3.26,0,0,1-1.16.95,3.78,3.78,0,0,1-1.64.34,3.87,3.87,0,0,1-.89-.11,3.22,3.22,0,0,1-.83-.34,2.45,2.45,0,0,1-.68-.56,2.33,2.33,0,0,1-.46-.78h0v4.61h-1v-11.3Zm5.53,2.86a3.62,3.62,0,0,0-.49-1.13,2.51,2.51,0,0,0-.84-.81,2.29,2.29,0,0,0-1.23-.31,2.92,2.92,0,0,0-1.39.29,2.36,2.36,0,0,0-.89.76,3,3,0,0,0-.48,1.12,6.58,6.58,0,0,0-.13,1.35,5.51,5.51,0,0,0,.15,1.27,3.31,3.31,0,0,0,.5,1.13,2.58,2.58,0,0,0,.89.81,2.81,2.81,0,0,0,1.35.31,2.39,2.39,0,0,0,1.23-.31,2.51,2.51,0,0,0,.84-.81,3.72,3.72,0,0,0,.49-1.13,5.51,5.51,0,0,0,.15-1.27A5.44,5.44,0,0,0,1643.29,375.75Z" transform="translate(-1627.01 -280.69)"/><path class="cls-6" d="M1647,369.72v11.43h-1V369.72Z" transform="translate(-1627.01 -280.69)"/><path class="cls-6" d="M1649.18,374.17a2.28,2.28,0,0,1,.7-.86,2.83,2.83,0,0,1,1-.5,4.85,4.85,0,0,1,1.31-.16,5.74,5.74,0,0,1,1.09.1,2.57,2.57,0,0,1,1,.4,2.19,2.19,0,0,1,.7.8,3,3,0,0,1,.27,1.36v4.38a.53.53,0,0,0,.59.61.66.66,0,0,0,.32-.07v.85l-.31.05-.34,0a1.5,1.5,0,0,1-.62-.11.94.94,0,0,1-.36-.29,1.26,1.26,0,0,1-.17-.46,5.11,5.11,0,0,1,0-.58h0a7,7,0,0,1-.55.71,2.81,2.81,0,0,1-.63.52,3,3,0,0,1-.78.32,4.51,4.51,0,0,1-1,.11,4.2,4.2,0,0,1-1.08-.14,2.41,2.41,0,0,1-.88-.43,2.07,2.07,0,0,1-.59-.75,2.54,2.54,0,0,1-.21-1.08,2.09,2.09,0,0,1,.38-1.35,2.34,2.34,0,0,1,1-.75,6,6,0,0,1,1.43-.36l1.61-.2a4,4,0,0,0,.56-.08,1,1,0,0,0,.4-.16.75.75,0,0,0,.24-.33,1.4,1.4,0,0,0,.09-.55,1.75,1.75,0,0,0-.17-.84,1.29,1.29,0,0,0-.46-.52,2.11,2.11,0,0,0-.69-.26,4.46,4.46,0,0,0-.84-.07,2.53,2.53,0,0,0-1.56.45,1.83,1.83,0,0,0-.65,1.47h-1A3.33,3.33,0,0,1,1649.18,374.17Zm5,2.46a.56.56,0,0,1-.37.26,4,4,0,0,1-.48.11c-.42.08-.86.14-1.32.2a7.31,7.31,0,0,0-1.24.27,2.33,2.33,0,0,0-.92.5,1.21,1.21,0,0,0-.36.94,1.51,1.51,0,0,0,.15.68,1.74,1.74,0,0,0,1,.84,2.37,2.37,0,0,0,.69.11,3.44,3.44,0,0,0,1.11-.18,2.94,2.94,0,0,0,.92-.51,2.41,2.41,0,0,0,.62-.82,2.38,2.38,0,0,0,.23-1.08v-1.32Z" transform="translate(-1627.01 -280.69)"/><path class="cls-6" d="M1660.56,372.89v.85h-1.68v5.57a1.78,1.78,0,0,0,.13.77c.09.19.32.29.68.31a8.44,8.44,0,0,0,.87,0v.84l-.45,0-.45,0a2,2,0,0,1-1.41-.4,2,2,0,0,1-.38-1.44v-5.65h-1.44v-.85h1.44v-2.48h1v2.48Z" transform="translate(-1627.01 -280.69)"/><path class="cls-6" d="M1663.56,373.74v7.41h-1v-7.41h-1.41v-.85h1.41v-.75a5.05,5.05,0,0,1,.08-1,1.88,1.88,0,0,1,.3-.77,1.46,1.46,0,0,1,.62-.49,2.39,2.39,0,0,1,1-.18l.41,0a3.8,3.8,0,0,1,.43.05v.86l-.38-.06-.35,0a1.25,1.25,0,0,0-.64.13.77.77,0,0,0-.33.34,1.32,1.32,0,0,0-.12.51c0,.19,0,.4,0,.62v.72h1.64v.85Z" transform="translate(-1627.01 -280.69)"/><path class="cls-6" d="M1671.32,373a3.69,3.69,0,0,1,1.22.95,4,4,0,0,1,.75,1.38,5.62,5.62,0,0,1,0,3.38,4.19,4.19,0,0,1-.75,1.38,3.66,3.66,0,0,1-1.22.94,4.06,4.06,0,0,1-1.68.34A4,4,0,0,1,1668,381a3.66,3.66,0,0,1-1.22-.94,4.19,4.19,0,0,1-.75-1.38,5.62,5.62,0,0,1,0-3.38,4,4,0,0,1,.75-1.38A3.69,3.69,0,0,1,1668,373a3.87,3.87,0,0,1,1.67-.35A3.91,3.91,0,0,1,1671.32,373Zm-2.94.8a2.77,2.77,0,0,0-.9.8,3.6,3.6,0,0,0-.55,1.13,4.67,4.67,0,0,0-.18,1.29,4.73,4.73,0,0,0,.18,1.29,3.55,3.55,0,0,0,.55,1.12,2.77,2.77,0,0,0,.9.8,2.45,2.45,0,0,0,1.26.31,2.52,2.52,0,0,0,1.27-.31,2.77,2.77,0,0,0,.9-.8,3.77,3.77,0,0,0,.55-1.12,4.73,4.73,0,0,0,.18-1.29,4.67,4.67,0,0,0-.18-1.29,3.83,3.83,0,0,0-.55-1.13,2.77,2.77,0,0,0-.9-.8,2.62,2.62,0,0,0-1.27-.3A2.55,2.55,0,0,0,1668.38,373.8Z" transform="translate(-1627.01 -280.69)"/><path class="cls-6" d="M1676,372.89v1.94h0a3.26,3.26,0,0,1,1.19-1.56,3.17,3.17,0,0,1,1.93-.49v1a3,3,0,0,0-1.25.18,2.69,2.69,0,0,0-1,.62,2.62,2.62,0,0,0-.64,1,3.18,3.18,0,0,0-.22,1.21v4.4h-1v-8.26Z" transform="translate(-1627.01 -280.69)"/><path class="cls-6" d="M1681,372.89v1.39h0a3.07,3.07,0,0,1,1-1.2,2.89,2.89,0,0,1,1.65-.43,2.76,2.76,0,0,1,1.48.4,2,2,0,0,1,.89,1.22,2.51,2.51,0,0,1,1.09-1.22,3.07,3.07,0,0,1,1.53-.4c1.83,0,2.74,1,2.74,2.9v5.6h-1v-5.56a2.44,2.44,0,0,0-.43-1.56,1.87,1.87,0,0,0-1.52-.53,2.12,2.12,0,0,0-1.09.25,1.82,1.82,0,0,0-.69.66,2.84,2.84,0,0,0-.36.95,5.8,5.8,0,0,0-.1,1.11v4.68h-1v-5.6a3.44,3.44,0,0,0-.09-.8,1.83,1.83,0,0,0-.28-.65,1.37,1.37,0,0,0-.54-.44,1.85,1.85,0,0,0-.82-.16,2.59,2.59,0,0,0-1.11.23,2.09,2.09,0,0,0-.77.64,3,3,0,0,0-.44,1,5.09,5.09,0,0,0-.14,1.21v4.61h-1v-8.26Z" transform="translate(-1627.01 -280.69)"/><path class="cls-6" d="M1698.17,374.5a1.64,1.64,0,0,0-.47-.57,2,2,0,0,0-.68-.33,3.12,3.12,0,0,0-.82-.1,3.21,3.21,0,0,0-.68.07,2.17,2.17,0,0,0-.63.24,1.3,1.3,0,0,0-.46.44,1.17,1.17,0,0,0-.18.67,1,1,0,0,0,.17.57,1.57,1.57,0,0,0,.42.39,2.63,2.63,0,0,0,.56.27l.56.16,1.35.31a3.7,3.7,0,0,1,.85.23,2.7,2.7,0,0,1,.76.44,2.22,2.22,0,0,1,.53.67,2,2,0,0,1,.21,1,2.11,2.11,0,0,1-.3,1.14,2.72,2.72,0,0,1-.78.77,3.1,3.1,0,0,1-1.06.42,5.31,5.31,0,0,1-1.17.13,3.78,3.78,0,0,1-2.36-.69,2.88,2.88,0,0,1-1-2.21h1a2,2,0,0,0,.75,1.55,2.72,2.72,0,0,0,1.69.52,4.18,4.18,0,0,0,.76-.08,2.82,2.82,0,0,0,.72-.27,1.77,1.77,0,0,0,.56-.49,1.23,1.23,0,0,0,.21-.73,1.19,1.19,0,0,0-.15-.62,1.34,1.34,0,0,0-.41-.41,2.4,2.4,0,0,0-.58-.28,5.12,5.12,0,0,0-.67-.19l-1.29-.29a8.09,8.09,0,0,1-.91-.3,3,3,0,0,1-.73-.41,1.81,1.81,0,0,1-.49-.61,2,2,0,0,1-.18-.89,2,2,0,0,1,.28-1.07,2.18,2.18,0,0,1,.73-.72,3.27,3.27,0,0,1,1-.4,4.65,4.65,0,0,1,1.1-.13,4,4,0,0,1,1.16.16,2.58,2.58,0,0,1,.94.5,2.43,2.43,0,0,1,.65.83,3,3,0,0,1,.27,1.17h-1A1.86,1.86,0,0,0,1698.17,374.5Z" transform="translate(-1627.01 -280.69)"/><path class="cls-6" d="M1701.71,379.45h1.34v1.7h-1.34Z" transform="translate(-1627.01 -280.69)"/></g></svg>