<svg xmlns="http://www.w3.org/2000/svg" viewBox="0 0 215.31 153.74"><defs><style>.cls-1,.cls-6{fill:#007681;}.cls-1{opacity:0.6;}.cls-2{fill:#e6eff3;stroke:#279989;stroke-miterlimit:10;}.cls-3{opacity:0.2;}.cls-4{fill:#279989;}.cls-5{fill:#f2f2f2;}</style></defs><g id="Layer_18" data-name="Layer 18"><path class="cls-1" d="M571.6,382.1l-193.78-6.54c-3.23-.1-5.77-3.82-5.68-8.3L374.23,257c.09-4.25,2.69-7.66,5.83-7.62l188.46,2.42c3.34,0,6.14,3.64,6.25,8l2.85,114.08C577.74,378.55,575,382.21,571.6,382.1Z" transform="translate(-362.32 -244.07)"/><rect class="cls-2" x="0.5" y="0.5" width="210.26" height="130.61" rx="7.38"/><g class="cls-3"><polygon points="24.05 152.99 14.48 136.42 24.05 119.85 43.18 119.85 52.75 136.42 43.18 152.99 24.05 152.99"/><path d="M405.06,364.66l9.14,15.82-9.14,15.82H386.8l-9.14-15.82,9.14-15.82h18.26m.87-1.5h-20l-10,17.32,10,17.32h20l10-17.32-10-17.32Z" transform="translate(-362.32 -244.07)"/></g><polygon class="cls-4" points="22.05 150.99 12.48 134.42 22.05 117.85 41.18 117.85 50.75 134.42 41.18 150.99 22.05 150.99"/><path class="cls-5" d="M403.06,362.66l9.14,15.82-9.14,15.82H384.8l-9.14-15.82,9.14-15.82h18.26m.87-1.5h-20l-10,17.32,10,17.32h20l10-17.32-10-17.32Z" transform="translate(-362.32 -244.07)"/><path class="cls-5" d="M388.24,388.09a10.24,10.24,0,0,1,.23-2.2,8,8,0,0,1,.73-1.94,10.46,10.46,0,0,1,1.22-1.81,21.32,21.32,0,0,1,1.7-1.78l1.45-1.34a7.87,7.87,0,0,0,1-1,4,4,0,0,0,.56-.9,3.38,3.38,0,0,0,.26-1,10.68,10.68,0,0,0,.06-1.2q0-2.19-1.74-2.19a1.83,1.83,0,0,0-1.06.27,1.85,1.85,0,0,0-.6.75,3.55,3.55,0,0,0-.27,1.1q-.06.61-.06,1.32h-3.44v-.67a5.12,5.12,0,0,1,1.32-3.79,5.69,5.69,0,0,1,4.16-1.32,5.55,5.55,0,0,1,4,1.24,4.71,4.71,0,0,1,1.3,3.57,7.92,7.92,0,0,1-.15,1.58,6.32,6.32,0,0,1-.47,1.41,6.73,6.73,0,0,1-.85,1.3,11.82,11.82,0,0,1-1.27,1.31l-2,1.85a7.37,7.37,0,0,0-1.25,1.4,3.93,3.93,0,0,0-.57,1.19h6.65v2.79Z" transform="translate(-362.32 -244.07)"/><path class="cls-6" d="M374.61,256.62a4.15,4.15,0,0,1,1.94.39,2.73,2.73,0,0,1,1.14,1.12,4.87,4.87,0,0,1,.55,1.75,15.9,15.9,0,0,1,.15,2.29,16.42,16.42,0,0,1-.19,2.61,4.91,4.91,0,0,1-.63,1.84,2.82,2.82,0,0,1-1.2,1.07,4.57,4.57,0,0,1-1.9.35h-3.64V256.62Zm-.45,9.72a2,2,0,0,0,1-.2,1.44,1.44,0,0,0,.58-.69,3.91,3.91,0,0,0,.29-1.27c.05-.52.07-1.17.07-1.95s0-1.22-.06-1.71a3.87,3.87,0,0,0-.27-1.22,1.52,1.52,0,0,0-.59-.74,2,2,0,0,0-1.05-.25h-1v8Z" transform="translate(-362.32 -244.07)"/><path class="cls-6" d="M382.13,256.49v1.89h-2.21v-1.89Zm0,2.94V268h-2.21v-8.61Z" transform="translate(-362.32 -244.07)"/><path class="cls-6" d="M390,259.43,387.81,268h-2.56L383,259.43h2.3l1.23,6.16h0l1.17-6.16Z" transform="translate(-362.32 -244.07)"/><path class="cls-6" d="M393.07,256.49v1.89h-2.2v-1.89Zm0,2.94V268h-2.2v-8.61Z" transform="translate(-362.32 -244.07)"/><path class="cls-6" d="M399,267.13a2.32,2.32,0,0,1-.82.85,2.42,2.42,0,0,1-1.13.24,2.18,2.18,0,0,1-2-1,6.86,6.86,0,0,1-.64-3.44,7,7,0,0,1,.64-3.47,2.15,2.15,0,0,1,2-1.06,2.08,2.08,0,0,1,1.06.25,2.51,2.51,0,0,1,.79.77h0v-3.61h2.2V268H399v-.91Zm-2.17-1.27a1,1,0,0,0,1.89,0,10.32,10.32,0,0,0,0-4.24,1,1,0,0,0-1.89,0,10.81,10.81,0,0,0,0,4.24Z" transform="translate(-362.32 -244.07)"/><path class="cls-6" d="M404.91,256.49v1.89h-2.2v-1.89Zm0,2.94V268h-2.2v-8.61Z" transform="translate(-362.32 -244.07)"/><path class="cls-6" d="M408.58,259.43v1h0a2.24,2.24,0,0,1,.91-.94,2.77,2.77,0,0,1,1.28-.29,2.2,2.2,0,0,1,1.63.57,2.66,2.66,0,0,1,.56,1.88V268h-2.2V262.1a1.45,1.45,0,0,0-.23-.93.89.89,0,0,0-.72-.27c-.78,0-1.17.48-1.17,1.43V268h-2.2v-8.61Z" transform="translate(-362.32 -244.07)"/><path class="cls-6" d="M420.91,267.61a3.38,3.38,0,0,1-.82,2.49,3.77,3.77,0,0,1-2.76.84,3.44,3.44,0,0,1-2.17-.6,2,2,0,0,1-.76-1.71h2.11a.78.78,0,0,0,.34.66,1.54,1.54,0,0,0,.34.17,1.09,1.09,0,0,0,.4.07,1,1,0,0,0,.94-.43,2,2,0,0,0,.27-1.08v-1.13h0a2.73,2.73,0,0,1-.82.77,2,2,0,0,1-1,.28,2.22,2.22,0,0,1-2-1,6.32,6.32,0,0,1-.66-3.35,13.34,13.34,0,0,1,.09-1.53,4.7,4.7,0,0,1,.37-1.42,2.49,2.49,0,0,1,.81-1,2.33,2.33,0,0,1,1.43-.4,2.08,2.08,0,0,1,1,.25,2,2,0,0,1,.82.93h0v-1h2.11Zm-4.37-2.75a2.55,2.55,0,0,0,.16.71,1.18,1.18,0,0,0,.33.49.84.84,0,0,0,.57.19.89.89,0,0,0,.59-.19,1.27,1.27,0,0,0,.36-.5,3,3,0,0,0,.2-.78,10,10,0,0,0,.05-1,6.83,6.83,0,0,0-.25-2.22.9.9,0,0,0-.9-.66,1,1,0,0,0-.59.16,1,1,0,0,0-.35.52,3.25,3.25,0,0,0-.17,1c0,.4,0,.89,0,1.47A7.69,7.69,0,0,0,416.54,264.86Z" transform="translate(-362.32 -244.07)"/><path class="cls-6" d="M426.29,261.86a2.87,2.87,0,0,1,.24-1.25,2.22,2.22,0,0,1,.65-.82,2.66,2.66,0,0,1,1-.45,4.94,4.94,0,0,1,1.17-.13,5.38,5.38,0,0,1,1.6.19,2.28,2.28,0,0,1,.95.54,1.91,1.91,0,0,1,.45.84,4.49,4.49,0,0,1,.12,1.07v4.53a5.65,5.65,0,0,0,.06.94,3.42,3.42,0,0,0,.22.72h-2.12a1.65,1.65,0,0,1-.16-.44c0-.15-.08-.31-.11-.46h0a1.92,1.92,0,0,1-.89.88,3.62,3.62,0,0,1-1.3.2,2.22,2.22,0,0,1-1-.2,1.66,1.66,0,0,1-.64-.56,2.27,2.27,0,0,1-.35-.79,3.24,3.24,0,0,1-.11-.87,3.68,3.68,0,0,1,.13-1.05,1.92,1.92,0,0,1,.39-.75,2.08,2.08,0,0,1,.67-.52,5.45,5.45,0,0,1,1-.37l1.25-.33a1.39,1.39,0,0,0,.69-.36.94.94,0,0,0,.19-.65,1.23,1.23,0,0,0-.23-.78,1,1,0,0,0-.79-.28.93.93,0,0,0-.77.31,1.21,1.21,0,0,0-.26.81v.24h-2Zm3.55,2.16a2.71,2.71,0,0,1-.46.15,1.61,1.61,0,0,0-1,.48,1.36,1.36,0,0,0-.29.91,1.75,1.75,0,0,0,.19.85.68.68,0,0,0,.64.35,1.58,1.58,0,0,0,.47-.07,1.54,1.54,0,0,0,.44-.23,1.23,1.23,0,0,0,.32-.42,1.28,1.28,0,0,0,.13-.61v-1.69A2.31,2.31,0,0,1,429.84,264Z" transform="translate(-362.32 -244.07)"/><path class="cls-6" d="M435.62,265.51a1.38,1.38,0,0,0,.29.91,1.08,1.08,0,0,0,.86.34,1.16,1.16,0,0,0,.81-.26.91.91,0,0,0,.31-.76.83.83,0,0,0-.24-.64,2.09,2.09,0,0,0-.56-.34l-1.55-.56a2.92,2.92,0,0,1-1.38-.9,2.33,2.33,0,0,1-.46-1.5,3,3,0,0,1,.17-1,2.18,2.18,0,0,1,.56-.82,2.79,2.79,0,0,1,1-.56,4.4,4.4,0,0,1,1.45-.21,3.25,3.25,0,0,1,2.22.64,2.3,2.3,0,0,1,.72,1.81V262h-2a1.81,1.81,0,0,0-.22-1,.88.88,0,0,0-.76-.31,1.22,1.22,0,0,0-.73.23.82.82,0,0,0-.31.7,1,1,0,0,0,.2.58,1.56,1.56,0,0,0,.76.43l1.33.45a3,3,0,0,1,1.47.92,2.47,2.47,0,0,1,.43,1.54,2.72,2.72,0,0,1-.24,1.19,2.29,2.29,0,0,1-.66.84,2.49,2.49,0,0,1-1,.48,5.19,5.19,0,0,1-1.29.15,5.56,5.56,0,0,1-1.54-.18,2.25,2.25,0,0,1-1-.53,1.83,1.83,0,0,1-.5-.85,4,4,0,0,1-.15-1.13v-.31h2Z" transform="translate(-362.32 -244.07)"/><path class="cls-6" d="M447.06,259.43v.91h0a2.47,2.47,0,0,1,.82-.87,2.3,2.3,0,0,1,1.13-.26,2.16,2.16,0,0,1,2,1.06,7,7,0,0,1,.64,3.47,6.86,6.86,0,0,1-.64,3.44,2.19,2.19,0,0,1-2,1A2.16,2.16,0,0,1,448,268a2.12,2.12,0,0,1-.79-.74h0v3.57h-2.21V259.43Zm.31,6.43a1,1,0,0,0,1.89,0,10.81,10.81,0,0,0,0-4.24,1,1,0,0,0-1.89,0,10.32,10.32,0,0,0,0,4.24Z" transform="translate(-362.32 -244.07)"/><path class="cls-6" d="M454.83,264.76a4.44,4.44,0,0,0,.06.74,2.69,2.69,0,0,0,.18.64,1.22,1.22,0,0,0,.34.45.8.8,0,0,0,.51.17.9.9,0,0,0,.82-.4,3.07,3.07,0,0,0,.35-1.22h2a3.43,3.43,0,0,1-.8,2.29,3,3,0,0,1-2.32.79,3.74,3.74,0,0,1-1.87-.4,2.46,2.46,0,0,1-1-1.06,4.31,4.31,0,0,1-.39-1.47c-.05-.55-.08-1.09-.08-1.63a11.3,11.3,0,0,1,.13-1.67,3.79,3.79,0,0,1,.48-1.42,2.46,2.46,0,0,1,1-1,3.67,3.67,0,0,1,1.79-.37,3.43,3.43,0,0,1,1.57.31,2.3,2.3,0,0,1,1,.88,3.52,3.52,0,0,1,.48,1.38,11,11,0,0,1,.13,1.8v.49h-4.37Zm2.19-2.87a2.14,2.14,0,0,0-.16-.64.84.84,0,0,0-.34-.4,1,1,0,0,0-.55-.14.94.94,0,0,0-.55.15,1.22,1.22,0,0,0-.35.4,2.3,2.3,0,0,0-.18.56,3.05,3.05,0,0,0-.06.6v.34h2.26A7,7,0,0,0,457,261.89Z" transform="translate(-362.32 -244.07)"/><path class="cls-6" d="M462.47,259.43v1.15h0a3.24,3.24,0,0,1,.81-1,1.84,1.84,0,0,1,1.17-.37h.2l.2,0v2.11l-.34,0h-.35a2.24,2.24,0,0,0-.57.08,1.54,1.54,0,0,0-.53.26,1.37,1.37,0,0,0-.38.48,1.61,1.61,0,0,0-.15.73V268h-2.21v-8.61Z" transform="translate(-362.32 -244.07)"/><path class="cls-6" d="M471.63,259.43v.91h0a2.47,2.47,0,0,1,.82-.87,2.28,2.28,0,0,1,1.13-.26,2.17,2.17,0,0,1,2,1.06,7.13,7.13,0,0,1,.64,3.47,7,7,0,0,1-.64,3.44,2.2,2.2,0,0,1-2,1,2.23,2.23,0,0,1-1.07-.24,2.28,2.28,0,0,1-.79-.74h0v3.57h-2.21V259.43Zm.32,6.43a.91.91,0,0,0,.95.71.9.9,0,0,0,.93-.71,10.32,10.32,0,0,0,0-4.24.89.89,0,0,0-.93-.72.91.91,0,0,0-.95.72,10.32,10.32,0,0,0,0,4.24Z" transform="translate(-362.32 -244.07)"/><path class="cls-6" d="M479.63,259.43v1.15h0a3.24,3.24,0,0,1,.81-1,1.84,1.84,0,0,1,1.17-.37h.2l.2,0v2.11l-.34,0h-.35a2.24,2.24,0,0,0-.57.08,1.46,1.46,0,0,0-.53.26,1.53,1.53,0,0,0-.39.48,1.76,1.76,0,0,0-.14.73V268h-2.21v-8.61Z" transform="translate(-362.32 -244.07)"/><path class="cls-6" d="M485.14,256.49v1.89h-2.21v-1.89Zm0,2.94V268h-2.21v-8.61Z" transform="translate(-362.32 -244.07)"/><path class="cls-6" d="M486.58,261.78a3.76,3.76,0,0,1,.57-1.41,2.62,2.62,0,0,1,1.05-.87,3.93,3.93,0,0,1,1.59-.29,4.2,4.2,0,0,1,1.65.26,2.26,2.26,0,0,1,1,.86,3.63,3.63,0,0,1,.54,1.42,10.55,10.55,0,0,1,.17,2,9.52,9.52,0,0,1-.18,1.95,3.7,3.7,0,0,1-.58,1.41,2.32,2.32,0,0,1-1,.84,4,4,0,0,1-1.6.28,4.32,4.32,0,0,1-1.64-.25,2.27,2.27,0,0,1-1-.83,4,4,0,0,1-.54-1.43,10.54,10.54,0,0,1-.16-2A9.55,9.55,0,0,1,486.58,261.78Zm2.06,3.17a4,4,0,0,0,.15,1,1.38,1.38,0,0,0,.36.63.91.91,0,0,0,.64.22.93.93,0,0,0,.93-.7,10.48,10.48,0,0,0,0-4.64.94.94,0,0,0-.93-.71.91.91,0,0,0-.64.23,1.34,1.34,0,0,0-.36.62,4.21,4.21,0,0,0-.15,1c0,.37,0,.78,0,1.22S488.62,264.58,488.64,265Z" transform="translate(-362.32 -244.07)"/><path class="cls-6" d="M496.48,259.43v1.15h0a3.41,3.41,0,0,1,.82-1,1.84,1.84,0,0,1,1.17-.37h.2l.2,0v2.11l-.35,0h-.34a2.32,2.32,0,0,0-.58.08,1.54,1.54,0,0,0-.53.26,1.5,1.5,0,0,0-.38.48,1.61,1.61,0,0,0-.14.73V268h-2.21v-8.61Z" transform="translate(-362.32 -244.07)"/><path class="cls-6" d="M502,256.49v1.89h-2.2v-1.89Zm0,2.94V268h-2.2v-8.61Z" transform="translate(-362.32 -244.07)"/><path class="cls-6" d="M506.22,257v2.46h1.28v1.51h-1.28v4.65a1.31,1.31,0,0,0,.16.73.74.74,0,0,0,.63.22h.25a1.57,1.57,0,0,0,.24,0V268l-.71,0c-.23,0-.47,0-.73,0a5,5,0,0,1-1-.09,1.11,1.11,0,0,1-.63-.35,1.54,1.54,0,0,1-.29-.7,5.58,5.58,0,0,1-.08-1.09v-4.92H502.9v-1.51H504V257Z" transform="translate(-362.32 -244.07)"/><path class="cls-6" d="M508.85,269.21a1.09,1.09,0,0,0,.87-.32A1.5,1.5,0,0,0,510,268l-2.41-8.61h2.3l1.28,5.95h0l1.12-5.95h2.21l-2.08,8a16.79,16.79,0,0,1-.55,1.74,3.07,3.07,0,0,1-.63,1,1.75,1.75,0,0,1-.86.48,6.37,6.37,0,0,1-1.27.11h-.9v-1.65A3.79,3.79,0,0,0,508.85,269.21Z" transform="translate(-362.32 -244.07)"/><path class="cls-6" d="M375.63,272.62,380.11,284H379l-1.4-3.55h-5.2L371,284h-1.15l4.59-11.42Zm1.56,6.94L375,273.7l-2.29,5.86Z" transform="translate(-362.32 -244.07)"/><path class="cls-6" d="M382.51,276.63V284h-1v-7.41H380.1v-.85h1.41V275a5,5,0,0,1,.08-1,1.83,1.83,0,0,1,.3-.77,1.48,1.48,0,0,1,.62-.5,2.57,2.57,0,0,1,1-.17h.41l.43.05v.86l-.38-.05a2.07,2.07,0,0,0-.35,0,1.36,1.36,0,0,0-.64.13.79.79,0,0,0-.33.35,1.27,1.27,0,0,0-.12.5c0,.19,0,.4,0,.62v.72h1.64v.85Z" transform="translate(-362.32 -244.07)"/><path class="cls-6" d="M388.39,275.78v.85h-1.68v5.57a1.86,1.86,0,0,0,.13.78c.09.18.32.29.68.31a8.46,8.46,0,0,0,.87-.05v.85h-.45a3.39,3.39,0,0,1-.45,0,2,2,0,0,1-1.41-.39,2,2,0,0,1-.38-1.45v-5.65h-1.44v-.85h1.44V273.3h1v2.48Z" transform="translate(-362.32 -244.07)"/><path class="cls-6" d="M390.59,281.31a3.15,3.15,0,0,0,.48,1.05,2.85,2.85,0,0,0,.85.77,2.39,2.39,0,0,0,1.23.3,2.46,2.46,0,0,0,1.73-.57,3,3,0,0,0,.87-1.54h1a4,4,0,0,1-1.17,2.18,3.52,3.52,0,0,1-2.43.76,3.79,3.79,0,0,1-1.68-.34,3,3,0,0,1-1.16-.94,4.23,4.23,0,0,1-.67-1.4,6.42,6.42,0,0,1-.21-1.67,6.22,6.22,0,0,1,.21-1.6,4.43,4.43,0,0,1,.67-1.4,3.21,3.21,0,0,1,1.16-1,3.53,3.53,0,0,1,1.68-.38,3.47,3.47,0,0,1,1.7.4A3.39,3.39,0,0,1,396,277a4.26,4.26,0,0,1,.64,1.49,7,7,0,0,1,.16,1.7h-6.36A4.11,4.11,0,0,0,390.59,281.31Zm5-3.08a3.24,3.24,0,0,0-.52-.93,2.63,2.63,0,0,0-.82-.66,2.4,2.4,0,0,0-1.09-.25,2.44,2.44,0,0,0-1.1.25,2.63,2.63,0,0,0-.82.66,3.19,3.19,0,0,0-.53.94,4.66,4.66,0,0,0-.27,1.1h5.35A3.7,3.7,0,0,0,395.58,278.23Z" transform="translate(-362.32 -244.07)"/><path class="cls-6" d="M399.07,275.78v1.94h0a3.12,3.12,0,0,1,1.19-1.55,3.16,3.16,0,0,1,1.93-.5v1a3.13,3.13,0,0,0-1.25.18,2.78,2.78,0,0,0-1,.62,2.82,2.82,0,0,0-.63.95,3.18,3.18,0,0,0-.23,1.21V284h-1v-8.26Z" transform="translate(-362.32 -244.07)"/><path class="cls-6" d="M413.39,284v-1.49h0a2.76,2.76,0,0,1-1.16,1.27,3.23,3.23,0,0,1-1.69.44,3.75,3.75,0,0,1-1.33-.21,2.26,2.26,0,0,1-.9-.62,2.36,2.36,0,0,1-.5-1,4.82,4.82,0,0,1-.16-1.32v-5.36h1v5.38a2.67,2.67,0,0,0,.52,1.7,2.6,2.6,0,0,0,2.8.29,2.27,2.27,0,0,0,.77-.74,3.56,3.56,0,0,0,.45-1.07,5,5,0,0,0,.14-1.22v-4.34h1V284Z" transform="translate(-362.32 -244.07)"/><path class="cls-6" d="M417.22,275.78v1.43h0a2.4,2.4,0,0,1,1-1.21,3.05,3.05,0,0,1,1.62-.46,4,4,0,0,1,1.45.23,2.26,2.26,0,0,1,.93.63,2.36,2.36,0,0,1,.5,1,5.49,5.49,0,0,1,.14,1.33V284h-1v-5.15a5.19,5.19,0,0,0-.1-1,2.08,2.08,0,0,0-.34-.79,1.68,1.68,0,0,0-.64-.53,2.58,2.58,0,0,0-1-.19,2.45,2.45,0,0,0-1.08.22,2.35,2.35,0,0,0-.8.59,2.64,2.64,0,0,0-.51.9,3.38,3.38,0,0,0-.2,1.12V284h-1v-8.26Z" transform="translate(-362.32 -244.07)"/><path class="cls-6" d="M431.15,284v-1.57h0a2.44,2.44,0,0,1-.47.74,3.55,3.55,0,0,1-.71.57,4.11,4.11,0,0,1-.86.36,3.48,3.48,0,0,1-.9.12,3.64,3.64,0,0,1-1.64-.34,3.24,3.24,0,0,1-1.16-.94,4.08,4.08,0,0,1-.69-1.4,6,6,0,0,1-.22-1.67,6.12,6.12,0,0,1,.22-1.67,4,4,0,0,1,.69-1.39,3.26,3.26,0,0,1,1.16-1,3.51,3.51,0,0,1,1.64-.36,3.37,3.37,0,0,1,.9.12,3.16,3.16,0,0,1,.83.34,3.08,3.08,0,0,1,.68.57,2.49,2.49,0,0,1,.45.78h0v-4.73h1V284Zm-5.52-2.86a3.39,3.39,0,0,0,.48,1.13,2.51,2.51,0,0,0,.84.81,2.29,2.29,0,0,0,1.23.31,2.59,2.59,0,0,0,2.25-1.12,3.4,3.4,0,0,0,.49-1.13,5.44,5.44,0,0,0,.15-1.27,5.51,5.51,0,0,0-.15-1.27,3.49,3.49,0,0,0-.49-1.13,2.71,2.71,0,0,0-.9-.81,2.81,2.81,0,0,0-1.35-.31,2.39,2.39,0,0,0-1.23.31,2.51,2.51,0,0,0-.84.81,3.48,3.48,0,0,0-.48,1.13,5,5,0,0,0-.16,1.27A5,5,0,0,0,425.63,281.18Z" transform="translate(-362.32 -244.07)"/><path class="cls-6" d="M434.75,281.31a3.15,3.15,0,0,0,.48,1.05,2.85,2.85,0,0,0,.85.77,2.39,2.39,0,0,0,1.23.3,2.47,2.47,0,0,0,1.73-.57,3,3,0,0,0,.86-1.54h1a4,4,0,0,1-1.17,2.18,3.52,3.52,0,0,1-2.43.76,3.86,3.86,0,0,1-1.69-.34,3.15,3.15,0,0,1-1.16-.94,4.21,4.21,0,0,1-.66-1.4,6.42,6.42,0,0,1-.22-1.67,6.23,6.23,0,0,1,.22-1.6,4.41,4.41,0,0,1,.66-1.4,3.38,3.38,0,0,1,1.16-1,3.6,3.6,0,0,1,1.69-.38,3.47,3.47,0,0,1,1.7.4,3.39,3.39,0,0,1,1.14,1.05,4.26,4.26,0,0,1,.64,1.49,6.49,6.49,0,0,1,.15,1.7h-6.35A4.11,4.11,0,0,0,434.75,281.31Zm5-3.08a3.24,3.24,0,0,0-.52-.93,2.63,2.63,0,0,0-.82-.66,2.4,2.4,0,0,0-1.09-.25,2.44,2.44,0,0,0-1.1.25,2.63,2.63,0,0,0-.82.66,3.19,3.19,0,0,0-.53.94,4.66,4.66,0,0,0-.27,1.1h5.35A3.7,3.7,0,0,0,439.74,278.23Z" transform="translate(-362.32 -244.07)"/><path class="cls-6" d="M443.23,275.78v1.94h0a3.19,3.19,0,0,1,1.2-1.55,3.14,3.14,0,0,1,1.92-.5v1a3.11,3.11,0,0,0-1.24.18,2.78,2.78,0,0,0-1,.62,2.82,2.82,0,0,0-.63.95,3.18,3.18,0,0,0-.23,1.21V284h-1v-8.26Z" transform="translate(-362.32 -244.07)"/><path class="cls-6" d="M452.1,277.39a1.66,1.66,0,0,0-.48-.57,2,2,0,0,0-.68-.32,3,3,0,0,0-.81-.11,3.92,3.92,0,0,0-.68.07,2.17,2.17,0,0,0-.63.24,1.42,1.42,0,0,0-.47.44,1.32,1.32,0,0,0-.17.68.93.93,0,0,0,.16.56,1.64,1.64,0,0,0,.43.4,3.2,3.2,0,0,0,.56.26,5.7,5.7,0,0,0,.56.17l1.34.3a4.37,4.37,0,0,1,.86.23,3.08,3.08,0,0,1,.75.44,2.26,2.26,0,0,1,.54.68,2,2,0,0,1,.2.94,2.06,2.06,0,0,1-.3,1.14,2.3,2.3,0,0,1-.78.77,3.24,3.24,0,0,1-1.06.43,5.81,5.81,0,0,1-1.17.12,3.8,3.8,0,0,1-2.36-.68,3,3,0,0,1-1-2.21h1a2,2,0,0,0,.74,1.54,2.7,2.7,0,0,0,1.69.52,3.33,3.33,0,0,0,.76-.08,2.38,2.38,0,0,0,.73-.27,1.73,1.73,0,0,0,.55-.49,1.22,1.22,0,0,0,.22-.73,1.07,1.07,0,0,0-.16-.61,1.24,1.24,0,0,0-.4-.42,2.93,2.93,0,0,0-.59-.28c-.22-.07-.44-.14-.66-.19l-1.3-.29a7,7,0,0,1-.91-.29,3,3,0,0,1-.73-.42,1.72,1.72,0,0,1-.49-.61,2.11,2.11,0,0,1-.17-.89,2,2,0,0,1,.28-1.07,2.18,2.18,0,0,1,.73-.72,3.55,3.55,0,0,1,1-.4,5.07,5.07,0,0,1,1.09-.13,4.22,4.22,0,0,1,1.16.16,2.88,2.88,0,0,1,.95.5,2.4,2.4,0,0,1,.64.83,3,3,0,0,1,.28,1.17h-1A2,2,0,0,0,452.1,277.39Z" transform="translate(-362.32 -244.07)"/><path class="cls-6" d="M458.32,275.78v.85h-1.68v5.57a1.84,1.84,0,0,0,.14.78c.09.18.31.29.68.31a8.43,8.43,0,0,0,.86-.05v.85h-.45a3.39,3.39,0,0,1-.45,0,1.49,1.49,0,0,1-1.79-1.84v-5.65h-1.44v-.85h1.44V273.3h1v2.48Z" transform="translate(-362.32 -244.07)"/><path class="cls-6" d="M460,277.06a2.37,2.37,0,0,1,.7-.86,3.09,3.09,0,0,1,1-.5,5.34,5.34,0,0,1,1.31-.16,5.68,5.68,0,0,1,1.09.11,2.65,2.65,0,0,1,1,.39,2.07,2.07,0,0,1,.7.81,3,3,0,0,1,.27,1.35v4.38a.53.53,0,0,0,.6.61.87.87,0,0,0,.32-.06V284l-.32,0a1.67,1.67,0,0,1-.34,0,1.55,1.55,0,0,1-.62-.1.88.88,0,0,1-.36-.3,1.09,1.09,0,0,1-.16-.46,3.45,3.45,0,0,1,0-.58h0a6,6,0,0,1-.55.71,2.56,2.56,0,0,1-.62.52,2.67,2.67,0,0,1-.79.32,4,4,0,0,1-1,.11,4.1,4.1,0,0,1-1.08-.13,2.49,2.49,0,0,1-.88-.43,2.16,2.16,0,0,1-.6-.76,2.54,2.54,0,0,1-.21-1.08,2.19,2.19,0,0,1,.38-1.35,2.5,2.5,0,0,1,1-.74,5.78,5.78,0,0,1,1.42-.36l1.61-.2.56-.08a1,1,0,0,0,.4-.17.76.76,0,0,0,.25-.33,1.38,1.38,0,0,0,.09-.54,1.87,1.87,0,0,0-.17-.84,1.31,1.31,0,0,0-.47-.52,1.8,1.8,0,0,0-.68-.27,5.6,5.6,0,0,0-.84-.07,2.5,2.5,0,0,0-1.57.46,1.76,1.76,0,0,0-.64,1.46h-1A3.38,3.38,0,0,1,460,277.06Zm5,2.47a.53.53,0,0,1-.36.25,3,3,0,0,1-.48.12l-1.32.2a6.93,6.93,0,0,0-1.24.26,2.52,2.52,0,0,0-.92.5,1.22,1.22,0,0,0-.36.94,1.48,1.48,0,0,0,.15.68,1.74,1.74,0,0,0,1,.84,2,2,0,0,0,.69.11,3.67,3.67,0,0,0,1.1-.17,2.68,2.68,0,0,0,.92-.52,2.37,2.37,0,0,0,.62-.81,2.39,2.39,0,0,0,.24-1.09v-1.31Z" transform="translate(-362.32 -244.07)"/><path class="cls-6" d="M469.07,275.78v1.43h0a2.47,2.47,0,0,1,1-1.21,3,3,0,0,1,1.61-.46,4,4,0,0,1,1.45.23,2.16,2.16,0,0,1,1.43,1.63,5.47,5.47,0,0,1,.15,1.33V284h-1v-5.15a4.49,4.49,0,0,0-.1-1,2.07,2.07,0,0,0-.33-.79,1.71,1.71,0,0,0-.65-.53,2.8,2.8,0,0,0-2.1,0,2.35,2.35,0,0,0-.8.59,2.82,2.82,0,0,0-.51.9,3.65,3.65,0,0,0-.2,1.12V284h-1v-8.26Z" transform="translate(-362.32 -244.07)"/><path class="cls-6" d="M483,284v-1.57h0a2.47,2.47,0,0,1-.48.74,3.07,3.07,0,0,1-.71.57,4,4,0,0,1-.85.36,3.61,3.61,0,0,1-.91.12,3.67,3.67,0,0,1-1.64-.34,3.32,3.32,0,0,1-1.16-.94,4.08,4.08,0,0,1-.69-1.4,6,6,0,0,1-.22-1.67,6.12,6.12,0,0,1,.22-1.67,4,4,0,0,1,.69-1.39,3.35,3.35,0,0,1,1.16-1,3.54,3.54,0,0,1,1.64-.36,3.5,3.5,0,0,1,.91.12,3.09,3.09,0,0,1,.82.34,2.86,2.86,0,0,1,.68.57,2.33,2.33,0,0,1,.46.78h0v-4.73h1V284Zm-5.53-2.86a3.39,3.39,0,0,0,.48,1.13,2.71,2.71,0,0,0,.84.81,2.29,2.29,0,0,0,1.23.31,2.67,2.67,0,0,0,1.35-.31,2.71,2.71,0,0,0,.9-.81,3.41,3.41,0,0,0,.5-1.13,5.44,5.44,0,0,0,.15-1.27,5.51,5.51,0,0,0-.15-1.27,3.51,3.51,0,0,0-.5-1.13,2.71,2.71,0,0,0-.9-.81,2.78,2.78,0,0,0-1.35-.31,2.39,2.39,0,0,0-1.23.31,2.71,2.71,0,0,0-.84.81,3.48,3.48,0,0,0-.48,1.13,5.51,5.51,0,0,0-.15,1.27A5.44,5.44,0,0,0,477.48,281.18Z" transform="translate(-362.32 -244.07)"/><path class="cls-6" d="M486.88,272.62v1.61h-1v-1.61Zm0,3.16V284h-1v-8.26Z" transform="translate(-362.32 -244.07)"/><path class="cls-6" d="M489.81,275.78v1.43h0a2.4,2.4,0,0,1,1-1.21,3.05,3.05,0,0,1,1.62-.46,4,4,0,0,1,1.45.23,2.26,2.26,0,0,1,.93.63,2.36,2.36,0,0,1,.5,1,5.49,5.49,0,0,1,.14,1.33V284h-1v-5.15a5.19,5.19,0,0,0-.1-1,2.08,2.08,0,0,0-.34-.79,1.68,1.68,0,0,0-.64-.53,2.58,2.58,0,0,0-1-.19,2.45,2.45,0,0,0-1.08.22,2.25,2.25,0,0,0-.8.59,2.64,2.64,0,0,0-.51.9,3.38,3.38,0,0,0-.2,1.12V284h-1v-8.26Z" transform="translate(-362.32 -244.07)"/><path class="cls-6" d="M504.18,285a3.1,3.1,0,0,1-.63,1.24,2.66,2.66,0,0,1-1.13.79,4.7,4.7,0,0,1-1.7.27,5.5,5.5,0,0,1-1.22-.14,3.61,3.61,0,0,1-1.06-.45,2.42,2.42,0,0,1-.78-.78,2.26,2.26,0,0,1-.36-1.13h1a1.84,1.84,0,0,0,.32.78,1.67,1.67,0,0,0,.56.5,2.16,2.16,0,0,0,.72.28,3.75,3.75,0,0,0,.82.09,2.39,2.39,0,0,0,2-.8,3.64,3.64,0,0,0,.63-2.3v-1.12h0a2.94,2.94,0,0,1-1,1.23,2.73,2.73,0,0,1-1.59.46,4,4,0,0,1-1.7-.32,3.16,3.16,0,0,1-1.16-.91,3.7,3.7,0,0,1-.66-1.35,6.34,6.34,0,0,1-.21-1.66,5,5,0,0,1,.25-1.6,3.8,3.8,0,0,1,.72-1.33,3.28,3.28,0,0,1,1.17-.9,3.64,3.64,0,0,1,1.59-.33,3,3,0,0,1,.87.13,3.24,3.24,0,0,1,.75.36,3.86,3.86,0,0,1,.6.54,2.28,2.28,0,0,1,.4.64h0v-1.43h1v7.59A6,6,0,0,1,504.18,285Zm-2.31-2.2a2.68,2.68,0,0,0,.83-.74,3,3,0,0,0,.51-1.05,4.48,4.48,0,0,0,.17-1.21,5.09,5.09,0,0,0-.15-1.22,3.47,3.47,0,0,0-.46-1.1,2.54,2.54,0,0,0-.83-.8,2.23,2.23,0,0,0-1.22-.31,2.39,2.39,0,0,0-1.23.3,2.62,2.62,0,0,0-.85.77,3.33,3.33,0,0,0-.49,1.1,5.3,5.3,0,0,0-.15,1.26,4.47,4.47,0,0,0,.16,1.21,3,3,0,0,0,.5,1.05,2.41,2.41,0,0,0,2.06,1A2.36,2.36,0,0,0,501.87,282.82Z" transform="translate(-362.32 -244.07)"/><path class="cls-6" d="M510.9,275.78l2.72,7,2.54-7h1l-3.59,9.51c-.15.35-.29.64-.41.87a1.86,1.86,0,0,1-.43.54,1.28,1.28,0,0,1-.54.29,2.91,2.91,0,0,1-.79.09l-.47,0a1.13,1.13,0,0,1-.3-.06v-.85l.34.06.35,0a1.47,1.47,0,0,0,.55-.09,1.26,1.26,0,0,0,.37-.27,1.56,1.56,0,0,0,.28-.41l.24-.52.35-.93-3.3-8.23Z" transform="translate(-362.32 -244.07)"/><path class="cls-6" d="M523.32,275.9a3.66,3.66,0,0,1,1.22.94,4.41,4.41,0,0,1,.76,1.38,5.84,5.84,0,0,1,0,3.38,4.19,4.19,0,0,1-.76,1.38,3.54,3.54,0,0,1-1.22.94,4.27,4.27,0,0,1-3.34,0,3.48,3.48,0,0,1-1.23-.94,4,4,0,0,1-.75-1.38,5.62,5.62,0,0,1,0-3.38,4.19,4.19,0,0,1,.75-1.38,3.6,3.6,0,0,1,1.23-.94,4.05,4.05,0,0,1,3.34,0Zm-2.94.8a2.77,2.77,0,0,0-.9.8,3.53,3.53,0,0,0-.54,1.12,4.43,4.43,0,0,0-.19,1.29,4.33,4.33,0,0,0,.19,1.29,3.58,3.58,0,0,0,.54,1.13,2.77,2.77,0,0,0,.9.8,2.62,2.62,0,0,0,1.27.3,2.55,2.55,0,0,0,1.26-.3,2.8,2.8,0,0,0,.91-.8,3.58,3.58,0,0,0,.54-1.13,4.67,4.67,0,0,0,.18-1.29,4.78,4.78,0,0,0-.18-1.29,3.53,3.53,0,0,0-.54-1.12,2.8,2.8,0,0,0-.91-.8,2.45,2.45,0,0,0-1.26-.31A2.52,2.52,0,0,0,520.38,276.7Z" transform="translate(-362.32 -244.07)"/><path class="cls-6" d="M532.82,284v-1.49h0a2.76,2.76,0,0,1-1.16,1.27,3.22,3.22,0,0,1-1.68.44,3.77,3.77,0,0,1-1.34-.21,2.26,2.26,0,0,1-.9-.62,2.48,2.48,0,0,1-.5-1,4.82,4.82,0,0,1-.16-1.32v-5.36h1v5.38a2.67,2.67,0,0,0,.52,1.7,2.62,2.62,0,0,0,2.81.29,2.33,2.33,0,0,0,.76-.74,3.11,3.11,0,0,0,.45-1.07,5,5,0,0,0,.15-1.22v-4.34h1V284Z" transform="translate(-362.32 -244.07)"/><path class="cls-6" d="M536.58,275.78v1.94h0a3.12,3.12,0,0,1,1.19-1.55,3.16,3.16,0,0,1,1.93-.5v1a3.13,3.13,0,0,0-1.25.18,2.88,2.88,0,0,0-1,.62,2.82,2.82,0,0,0-.63.95,3.18,3.18,0,0,0-.23,1.21V284h-1v-8.26Z" transform="translate(-362.32 -244.07)"/><path class="cls-6" d="M371.07,291.78l2.6,7.25h0l2.56-7.25h1L374.21,300h-1.07L370,291.78Z" transform="translate(-362.32 -244.07)"/><path class="cls-6" d="M379.31,288.62v1.61h-1v-1.61Zm0,3.16V300h-1v-8.26Z" transform="translate(-362.32 -244.07)"/><path class="cls-6" d="M386,293.39a1.64,1.64,0,0,0-.47-.57,2.13,2.13,0,0,0-.68-.32,3.12,3.12,0,0,0-.82-.11,4,4,0,0,0-.68.07,2.17,2.17,0,0,0-.63.24,1.49,1.49,0,0,0-.46.44,1.23,1.23,0,0,0-.18.68.93.93,0,0,0,.17.56,1.46,1.46,0,0,0,.42.4,3.2,3.2,0,0,0,.56.26c.21.07.39.13.56.17l1.35.3a4.28,4.28,0,0,1,.85.23,3,3,0,0,1,.76.44,2.39,2.39,0,0,1,.53.68,2,2,0,0,1,.21.94,2.06,2.06,0,0,1-.3,1.14,2.49,2.49,0,0,1-.78.77,3.33,3.33,0,0,1-1.06.43,6,6,0,0,1-1.17.12,3.78,3.78,0,0,1-2.36-.68,2.93,2.93,0,0,1-1-2.21h1a2,2,0,0,0,.75,1.54,2.66,2.66,0,0,0,1.69.52,3.45,3.45,0,0,0,.76-.08,2.23,2.23,0,0,0,.72-.27,1.77,1.77,0,0,0,.56-.49,1.21,1.21,0,0,0,.21-.73,1.15,1.15,0,0,0-.15-.61,1.27,1.27,0,0,0-.41-.42,2.84,2.84,0,0,0-.58-.28c-.22-.07-.44-.14-.67-.19l-1.29-.29a6.5,6.5,0,0,1-.91-.29,3,3,0,0,1-.73-.42,1.72,1.72,0,0,1-.49-.61,2,2,0,0,1-.18-.89,2.05,2.05,0,0,1,.28-1.07,2.18,2.18,0,0,1,.73-.72,3.55,3.55,0,0,1,1-.4,5.24,5.24,0,0,1,1.1-.13,4.33,4.33,0,0,1,1.16.16,2.74,2.74,0,0,1,.94.5,2.43,2.43,0,0,1,.65.83,3,3,0,0,1,.27,1.17h-1A1.86,1.86,0,0,0,386,293.39Z" transform="translate(-362.32 -244.07)"/><path class="cls-6" d="M390,288.62v1.61h-1v-1.61Zm0,3.16V300h-1v-8.26Z" transform="translate(-362.32 -244.07)"/><path class="cls-6" d="M397.07,291.9a3.66,3.66,0,0,1,1.22.94,4.19,4.19,0,0,1,.75,1.38,5.62,5.62,0,0,1,0,3.38,4,4,0,0,1-.75,1.38,3.54,3.54,0,0,1-1.22.94,3.91,3.91,0,0,1-1.68.34,3.86,3.86,0,0,1-1.67-.34,3.54,3.54,0,0,1-1.22-.94,4,4,0,0,1-.75-1.38,5.62,5.62,0,0,1,0-3.38,4.19,4.19,0,0,1,.75-1.38,3.66,3.66,0,0,1,1.22-.94,3.73,3.73,0,0,1,1.67-.36A3.77,3.77,0,0,1,397.07,291.9Zm-2.94.8a2.77,2.77,0,0,0-.9.8,3.55,3.55,0,0,0-.55,1.12,4.78,4.78,0,0,0-.18,1.29,4.67,4.67,0,0,0,.18,1.29,3.6,3.6,0,0,0,.55,1.13,2.77,2.77,0,0,0,.9.8,2.55,2.55,0,0,0,1.26.3,2.62,2.62,0,0,0,1.27-.3,2.77,2.77,0,0,0,.9-.8,3.83,3.83,0,0,0,.55-1.13,4.67,4.67,0,0,0,.18-1.29,4.78,4.78,0,0,0-.18-1.29,3.77,3.77,0,0,0-.55-1.12,2.77,2.77,0,0,0-.9-.8,2.52,2.52,0,0,0-1.27-.31A2.45,2.45,0,0,0,394.13,292.7Z" transform="translate(-362.32 -244.07)"/><path class="cls-6" d="M401.79,291.78v1.43h0a2.4,2.4,0,0,1,1-1.21,3.05,3.05,0,0,1,1.62-.46,4,4,0,0,1,1.44.23,2.29,2.29,0,0,1,.94.63,2.48,2.48,0,0,1,.5,1,6,6,0,0,1,.14,1.33V300h-1v-5.15a5.21,5.21,0,0,0-.09-1,2.25,2.25,0,0,0-.34-.79,1.71,1.71,0,0,0-.65-.53,2.49,2.49,0,0,0-1-.19,2.45,2.45,0,0,0-1.08.22,2.17,2.17,0,0,0-.8.59,2.84,2.84,0,0,0-.52.9,3.65,3.65,0,0,0-.2,1.12V300h-1v-8.26Z" transform="translate(-362.32 -244.07)"/><path class="cls-6" d="M411.33,300a2.8,2.8,0,0,1-.09.7,2.77,2.77,0,0,1-.26.64,2.43,2.43,0,0,1-.44.52,1.66,1.66,0,0,1-.62.32v-.69a.71.71,0,0,0,.34-.24,2.55,2.55,0,0,0,.24-.39,1.91,1.91,0,0,0,.13-.45,1.52,1.52,0,0,0,0-.41H410v-1.7h1.34Z" transform="translate(-362.32 -244.07)"/><path class="cls-6" d="M418.53,291.78l2.11,7.08h0l2-7.08h1.14l2,7.08h0l2.12-7.08h1.07L426.4,300h-1.1l-2-6.94h0l-2,6.94h-1.11l-2.65-8.26Z" transform="translate(-362.32 -244.07)"/><path class="cls-6" d="M430.89,297.31a3,3,0,0,0,.49,1.05,2.63,2.63,0,0,0,.85.77,2.39,2.39,0,0,0,1.23.3,2.49,2.49,0,0,0,1.73-.57,3.11,3.11,0,0,0,.86-1.54h1a4.11,4.11,0,0,1-1.18,2.18,3.51,3.51,0,0,1-2.42.76,3.83,3.83,0,0,1-1.69-.34,3.15,3.15,0,0,1-1.16-.94,4,4,0,0,1-.66-1.4,6,6,0,0,1-.22-1.67,5.83,5.83,0,0,1,.22-1.6,4.2,4.2,0,0,1,.66-1.4,3.38,3.38,0,0,1,1.16-1,3.57,3.57,0,0,1,1.69-.38,3.43,3.43,0,0,1,1.69.4A3.52,3.52,0,0,1,436.3,293a4.44,4.44,0,0,1,.63,1.49,6.5,6.5,0,0,1,.16,1.7h-6.35A4.5,4.5,0,0,0,430.89,297.31Zm5-3.08a2.83,2.83,0,0,0-.52-.93,2.48,2.48,0,0,0-.81-.66,2.54,2.54,0,0,0-2.2,0,2.48,2.48,0,0,0-.81.66,3.21,3.21,0,0,0-.54.94,4.64,4.64,0,0,0-.26,1.1h5.34A3.7,3.7,0,0,0,435.88,294.23Z" transform="translate(-362.32 -244.07)"/><path class="cls-6" d="M449.23,300v-1.57h0a2.26,2.26,0,0,1-.47.74,3.29,3.29,0,0,1-.71.57,4.11,4.11,0,0,1-.86.36,3.48,3.48,0,0,1-.9.12,3.64,3.64,0,0,1-1.64-.34,3.24,3.24,0,0,1-1.16-.94,4.08,4.08,0,0,1-.69-1.4,6,6,0,0,1-.22-1.67,6.12,6.12,0,0,1,.22-1.67,4,4,0,0,1,.69-1.39,3.26,3.26,0,0,1,1.16-1,3.51,3.51,0,0,1,1.64-.36,3.37,3.37,0,0,1,.9.12,3,3,0,0,1,.83.34,3.08,3.08,0,0,1,.68.57,2.31,2.31,0,0,1,.45.78h0v-4.73h1V300Zm-5.52-2.86a3.39,3.39,0,0,0,.48,1.13,2.6,2.6,0,0,0,.84.81,2.29,2.29,0,0,0,1.23.31,2.59,2.59,0,0,0,2.25-1.12,3.21,3.21,0,0,0,.49-1.13,5.44,5.44,0,0,0,.15-1.27,5.51,5.51,0,0,0-.15-1.27,3.29,3.29,0,0,0-.49-1.13,2.71,2.71,0,0,0-.9-.81,2.81,2.81,0,0,0-1.35-.31,2.39,2.39,0,0,0-1.23.31,2.6,2.6,0,0,0-.84.81,3.48,3.48,0,0,0-.48,1.13,5,5,0,0,0-.16,1.27A5,5,0,0,0,443.71,297.18Z" transform="translate(-362.32 -244.07)"/><path class="cls-6" d="M453.11,288.62v1.61h-1v-1.61Zm0,3.16V300h-1v-8.26Z" transform="translate(-362.32 -244.07)"/><path class="cls-6" d="M455.23,291.78l2.6,7.25h0l2.56-7.25h1L458.37,300H457.3l-3.19-8.26Z" transform="translate(-362.32 -244.07)"/><path class="cls-6" d="M463.47,288.62v1.61h-1v-1.61Zm0,3.16V300h-1v-8.26Z" transform="translate(-362.32 -244.07)"/><path class="cls-6" d="M471.75,300v-1.57h0a2.26,2.26,0,0,1-.47.74,3.29,3.29,0,0,1-.71.57,4.11,4.11,0,0,1-.86.36,3.48,3.48,0,0,1-.9.12,3.64,3.64,0,0,1-1.64-.34A3.32,3.32,0,0,1,466,299a4.08,4.08,0,0,1-.69-1.4,6,6,0,0,1-.22-1.67,6.12,6.12,0,0,1,.22-1.67,4,4,0,0,1,.69-1.39,3.35,3.35,0,0,1,1.16-1,3.51,3.51,0,0,1,1.64-.36,3.37,3.37,0,0,1,.9.12,3,3,0,0,1,.83.34,3.08,3.08,0,0,1,.68.57,2.16,2.16,0,0,1,.45.78h0v-4.73h1V300Zm-5.53-2.86a3.39,3.39,0,0,0,.48,1.13,2.71,2.71,0,0,0,.84.81,2.29,2.29,0,0,0,1.23.31,2.59,2.59,0,0,0,2.25-1.12,3.21,3.21,0,0,0,.49-1.13,5,5,0,0,0,.16-1.27,5,5,0,0,0-.16-1.27,3.29,3.29,0,0,0-.49-1.13,2.71,2.71,0,0,0-.9-.81,2.81,2.81,0,0,0-1.35-.31,2.39,2.39,0,0,0-1.23.31,2.71,2.71,0,0,0-.84.81,3.48,3.48,0,0,0-.48,1.13,5.51,5.51,0,0,0-.15,1.27A5.44,5.44,0,0,0,466.22,297.18Z" transform="translate(-362.32 -244.07)"/><path class="cls-6" d="M475.34,297.31a3,3,0,0,0,.49,1.05,2.7,2.7,0,0,0,.84.77,2.81,2.81,0,0,0,3-.27,3,3,0,0,0,.87-1.54h1a4.11,4.11,0,0,1-1.18,2.18,3.51,3.51,0,0,1-2.42.76,3.8,3.8,0,0,1-1.69-.34,3.07,3.07,0,0,1-1.16-.94,4.23,4.23,0,0,1-.67-1.4,6.42,6.42,0,0,1-.21-1.67,6.22,6.22,0,0,1,.21-1.6,4.43,4.43,0,0,1,.67-1.4,3.29,3.29,0,0,1,1.16-1,3.54,3.54,0,0,1,1.69-.38,3.43,3.43,0,0,1,1.69.4,3.52,3.52,0,0,1,1.15,1.05,4.44,4.44,0,0,1,.63,1.49,6.5,6.5,0,0,1,.16,1.7h-6.35A4.5,4.5,0,0,0,475.34,297.31Zm5-3.08a3,3,0,0,0-.52-.93,2.52,2.52,0,0,0-.82-.66,2.39,2.39,0,0,0-1.08-.25,2.45,2.45,0,0,0-1.11.25,2.48,2.48,0,0,0-.81.66,3,3,0,0,0-.54.94,4.64,4.64,0,0,0-.26,1.1h5.34A3.7,3.7,0,0,0,480.33,294.23Z" transform="translate(-362.32 -244.07)"/><path class="cls-6" d="M490.63,291.78v.85H489v5.57a1.86,1.86,0,0,0,.13.78c.09.18.32.29.68.31a8.46,8.46,0,0,0,.87-.05v.85h-.45a3.39,3.39,0,0,1-.45,0,1.48,1.48,0,0,1-1.79-1.84v-5.65H486.5v-.85h1.44V289.3h1v2.48Z" transform="translate(-362.32 -244.07)"/><path class="cls-6" d="M493.07,288.62v4.59h0a2.4,2.4,0,0,1,1-1.21,3.05,3.05,0,0,1,1.62-.46,4,4,0,0,1,1.44.23,2.29,2.29,0,0,1,.94.63,2.48,2.48,0,0,1,.5,1,6,6,0,0,1,.14,1.33V300h-1v-5.15a5.21,5.21,0,0,0-.09-1,2.25,2.25,0,0,0-.34-.79,1.71,1.71,0,0,0-.65-.53,2.49,2.49,0,0,0-1-.19,2.45,2.45,0,0,0-1.08.22,2.17,2.17,0,0,0-.8.59,2.84,2.84,0,0,0-.52.9,3.65,3.65,0,0,0-.2,1.12V300h-1V288.62Z" transform="translate(-362.32 -244.07)"/><path class="cls-6" d="M501.42,297.31a3,3,0,0,0,.49,1.05,2.7,2.7,0,0,0,.84.77,2.81,2.81,0,0,0,3-.27,3,3,0,0,0,.87-1.54h1a4.11,4.11,0,0,1-1.18,2.18,3.51,3.51,0,0,1-2.42.76,3.8,3.8,0,0,1-1.69-.34,3.07,3.07,0,0,1-1.16-.94,4.23,4.23,0,0,1-.67-1.4,6.42,6.42,0,0,1-.21-1.67,6.22,6.22,0,0,1,.21-1.6,4.43,4.43,0,0,1,.67-1.4,3.29,3.29,0,0,1,1.16-1,3.54,3.54,0,0,1,1.69-.38,3.43,3.43,0,0,1,1.69.4,3.52,3.52,0,0,1,1.15,1.05,4.44,4.44,0,0,1,.63,1.49,6.5,6.5,0,0,1,.16,1.7h-6.35A4.5,4.5,0,0,0,501.42,297.31Zm5-3.08a3,3,0,0,0-.52-.93,2.52,2.52,0,0,0-.82-.66,2.39,2.39,0,0,0-1.08-.25,2.45,2.45,0,0,0-1.11.25,2.48,2.48,0,0,0-.81.66,3,3,0,0,0-.54.94,4.64,4.64,0,0,0-.26,1.1h5.34A3.7,3.7,0,0,0,506.41,294.23Z" transform="translate(-362.32 -244.07)"/><path class="cls-6" d="M513.67,291.78l2.11,7.08h0l2-7.08H519l2,7.08h0l2.11-7.08h1.07L521.54,300h-1.11l-2-6.94h0l-2,6.94h-1.1l-2.66-8.26Z" transform="translate(-362.32 -244.07)"/><path class="cls-6" d="M530.44,291.9a3.7,3.7,0,0,1,1.23.94,4.19,4.19,0,0,1,.75,1.38,5.84,5.84,0,0,1,0,3.38,4,4,0,0,1-.75,1.38,3.57,3.57,0,0,1-1.23.94,4.27,4.27,0,0,1-3.34,0,3.48,3.48,0,0,1-1.23-.94,4,4,0,0,1-.75-1.38,5.84,5.84,0,0,1,0-3.38,4.19,4.19,0,0,1,.75-1.38,3.6,3.6,0,0,1,1.23-.94,4.05,4.05,0,0,1,3.34,0Zm-2.93.8a2.7,2.7,0,0,0-.91.8,3.53,3.53,0,0,0-.54,1.12,4.8,4.8,0,0,0-.19,1.29,4.68,4.68,0,0,0,.19,1.29,3.58,3.58,0,0,0,.54,1.13,2.7,2.7,0,0,0,.91.8,2.8,2.8,0,0,0,2.52,0,2.7,2.7,0,0,0,.91-.8,3.58,3.58,0,0,0,.54-1.13,4.68,4.68,0,0,0,.19-1.29,4.8,4.8,0,0,0-.19-1.29,3.53,3.53,0,0,0-.54-1.12,2.7,2.7,0,0,0-.91-.8,2.72,2.72,0,0,0-2.52,0Z" transform="translate(-362.32 -244.07)"/><path class="cls-6" d="M535.11,291.78v1.94h0a3.12,3.12,0,0,1,1.19-1.55,3.16,3.16,0,0,1,1.93-.5v1a3.13,3.13,0,0,0-1.25.18,2.88,2.88,0,0,0-1,.62,2.82,2.82,0,0,0-.63.95,3.18,3.18,0,0,0-.22,1.21V300h-1v-8.26Z" transform="translate(-362.32 -244.07)"/><path class="cls-6" d="M540.23,288.62v7.16l4.57-4h1.35l-3.52,3.06,3.76,5.2h-1.27l-3.26-4.5-1.63,1.36V300h-1V288.62Z" transform="translate(-362.32 -244.07)"/><path class="cls-6" d="M371.09,309.06a2.28,2.28,0,0,1,.7-.86,3,3,0,0,1,1-.5,5.28,5.28,0,0,1,1.31-.16,5.76,5.76,0,0,1,1.09.11,2.61,2.61,0,0,1,1,.39,2.09,2.09,0,0,1,.71.81,3,3,0,0,1,.27,1.35v4.38a.53.53,0,0,0,.59.61.79.79,0,0,0,.32-.06V316l-.31,0a1.72,1.72,0,0,1-.34,0,1.51,1.51,0,0,1-.62-.1.88.88,0,0,1-.36-.3,1.1,1.1,0,0,1-.17-.46,5,5,0,0,1,0-.58h0a7.31,7.31,0,0,1-.55.71,2.81,2.81,0,0,1-.63.52,2.72,2.72,0,0,1-.78.32,4,4,0,0,1-1.05.11,4.21,4.21,0,0,1-1.08-.13,2.58,2.58,0,0,1-.88-.43,2,2,0,0,1-.59-.76,2.53,2.53,0,0,1-.22-1.08,2.13,2.13,0,0,1,.39-1.35,2.4,2.4,0,0,1,1-.74,6,6,0,0,1,1.43-.36l1.61-.2.56-.08a1,1,0,0,0,.4-.17.75.75,0,0,0,.24-.33,1.38,1.38,0,0,0,.09-.54,1.75,1.75,0,0,0-.17-.84,1.29,1.29,0,0,0-.46-.52,1.92,1.92,0,0,0-.69-.27,5.49,5.49,0,0,0-.84-.07,2.52,2.52,0,0,0-1.57.46,1.82,1.82,0,0,0-.64,1.46h-1A3.38,3.38,0,0,1,371.09,309.06Zm5,2.47a.55.55,0,0,1-.37.25,2.79,2.79,0,0,1-.48.12l-1.32.2a7.33,7.33,0,0,0-1.24.26,2.61,2.61,0,0,0-.92.5,1.22,1.22,0,0,0-.36.94,1.48,1.48,0,0,0,.15.68,1.71,1.71,0,0,0,.41.51,1.63,1.63,0,0,0,.59.33,2.07,2.07,0,0,0,.69.11,3.73,3.73,0,0,0,1.11-.17,2.78,2.78,0,0,0,.92-.52,2.37,2.37,0,0,0,.62-.81,2.53,2.53,0,0,0,.23-1.09v-1.31Z" transform="translate(-362.32 -244.07)"/><path class="cls-6" d="M383.94,309.39a1.75,1.75,0,0,0-.47-.57,2.24,2.24,0,0,0-.68-.32,3.12,3.12,0,0,0-.82-.11,4,4,0,0,0-.68.07,2.17,2.17,0,0,0-.63.24,1.52,1.52,0,0,0-.47.44,1.32,1.32,0,0,0-.17.68.87.87,0,0,0,.17.56,1.46,1.46,0,0,0,.42.4,3.2,3.2,0,0,0,.56.26,5.7,5.7,0,0,0,.56.17l1.34.3a4.37,4.37,0,0,1,.86.23,3.08,3.08,0,0,1,.75.44,2.26,2.26,0,0,1,.54.68,2.23,2.23,0,0,1-.1,2.08,2.36,2.36,0,0,1-.77.77,3.38,3.38,0,0,1-1.07.43,5.81,5.81,0,0,1-1.17.12,3.8,3.8,0,0,1-2.36-.68,3,3,0,0,1-1-2.21h1a2,2,0,0,0,.74,1.54,2.7,2.7,0,0,0,1.69.52,3.33,3.33,0,0,0,.76-.08,2.29,2.29,0,0,0,.73-.27,1.73,1.73,0,0,0,.55-.49,1.32,1.32,0,0,0,.07-1.34,1.27,1.27,0,0,0-.41-.42,2.93,2.93,0,0,0-.59-.28c-.21-.07-.44-.14-.66-.19l-1.3-.29a7,7,0,0,1-.91-.29,3,3,0,0,1-.73-.42,1.69,1.69,0,0,1-.48-.61,2.23,2.23,0,0,1,.1-2,2.18,2.18,0,0,1,.73-.72,3.55,3.55,0,0,1,1-.4,5.15,5.15,0,0,1,1.09-.13,4.22,4.22,0,0,1,1.16.16,2.78,2.78,0,0,1,1,.5,2.43,2.43,0,0,1,.65.83,3,3,0,0,1,.27,1.17h-1A1.86,1.86,0,0,0,383.94,309.39Z" transform="translate(-362.32 -244.07)"/><path class="cls-6" d="M392.26,307.78v1.57h0a2.7,2.7,0,0,1,1.14-1.33,3.41,3.41,0,0,1,1.8-.48,3.51,3.51,0,0,1,1.64.36,3.26,3.26,0,0,1,1.16,1,4,4,0,0,1,.69,1.39,6.12,6.12,0,0,1,.23,1.67,6,6,0,0,1-.23,1.67A4.08,4.08,0,0,1,398,315a3.24,3.24,0,0,1-1.16.94,3.64,3.64,0,0,1-1.64.34,3.44,3.44,0,0,1-.89-.11,2.88,2.88,0,0,1-.83-.33,2.64,2.64,0,0,1-.68-.56,2.49,2.49,0,0,1-.46-.79h0v4.61h-1v-11.3Zm5.53,2.86a4,4,0,0,0-.48-1.13,2.71,2.71,0,0,0-.84-.81,2.45,2.45,0,0,0-1.24-.31,3.07,3.07,0,0,0-1.39.29,2.39,2.39,0,0,0-.89.77,2.91,2.91,0,0,0-.48,1.12,6.48,6.48,0,0,0-.13,1.34,5.44,5.44,0,0,0,.15,1.27,3.22,3.22,0,0,0,.5,1.13,2.55,2.55,0,0,0,2.24,1.12,2.35,2.35,0,0,0,1.24-.31,2.71,2.71,0,0,0,.84-.81,3.85,3.85,0,0,0,.48-1.13,5.44,5.44,0,0,0,.15-1.27A5.51,5.51,0,0,0,397.79,310.64Z" transform="translate(-362.32 -244.07)"/><path class="cls-6" d="M401.26,313.31a3,3,0,0,0,.49,1.05,2.7,2.7,0,0,0,.84.77,2.81,2.81,0,0,0,3-.27,3,3,0,0,0,.87-1.54h1a4.11,4.11,0,0,1-1.18,2.18,3.51,3.51,0,0,1-2.42.76,3.8,3.8,0,0,1-1.69-.34A3.07,3.07,0,0,1,401,315a4.23,4.23,0,0,1-.67-1.4,6.42,6.42,0,0,1-.21-1.67,6.22,6.22,0,0,1,.21-1.6,4.43,4.43,0,0,1,.67-1.4,3.29,3.29,0,0,1,1.16-1,3.54,3.54,0,0,1,1.69-.38,3.43,3.43,0,0,1,1.69.4,3.52,3.52,0,0,1,1.15,1.05,4.44,4.44,0,0,1,.63,1.49,6.5,6.5,0,0,1,.16,1.7h-6.35A4.5,4.5,0,0,0,401.26,313.31Zm5-3.08a3,3,0,0,0-.52-.93,2.52,2.52,0,0,0-.82-.66,2.39,2.39,0,0,0-1.08-.25,2.45,2.45,0,0,0-1.11.25,2.48,2.48,0,0,0-.81.66,3,3,0,0,0-.54.94,4.64,4.64,0,0,0-.26,1.1h5.34A3.7,3.7,0,0,0,406.25,310.23Z" transform="translate(-362.32 -244.07)"/><path class="cls-6" d="M409.75,307.78v1.94h0a3.12,3.12,0,0,1,1.19-1.55,3.16,3.16,0,0,1,1.93-.5v1a3.13,3.13,0,0,0-1.25.18,2.88,2.88,0,0,0-1,.62,2.82,2.82,0,0,0-.63.95,3.18,3.18,0,0,0-.22,1.21V316h-1v-8.26Z" transform="translate(-362.32 -244.07)"/><path class="cls-6" d="M418.45,307.78l2.72,7,2.54-7h1l-3.58,9.51a9,9,0,0,1-.42.87,2,2,0,0,1-.42.54,1.39,1.39,0,0,1-.55.29,2.86,2.86,0,0,1-.79.09l-.47,0a1.33,1.33,0,0,1-.3-.06v-.85l.35.06.34,0a1.4,1.4,0,0,0,.55-.09,1.31,1.31,0,0,0,.38-.27,1.33,1.33,0,0,0,.27-.41c.08-.16.16-.33.24-.52l.35-.93-3.29-8.23Z" transform="translate(-362.32 -244.07)"/><path class="cls-6" d="M430.87,307.9a3.6,3.6,0,0,1,1.23.94,4.19,4.19,0,0,1,.75,1.38,5.62,5.62,0,0,1,0,3.38,4,4,0,0,1-.75,1.38,3.48,3.48,0,0,1-1.23.94,4.27,4.27,0,0,1-3.34,0,3.45,3.45,0,0,1-1.22-.94,4,4,0,0,1-.76-1.38,5.84,5.84,0,0,1,0-3.38,4.21,4.21,0,0,1,.76-1.38,3.56,3.56,0,0,1,1.22-.94,4.05,4.05,0,0,1,3.34,0Zm-2.93.8a2.8,2.8,0,0,0-.91.8,3.53,3.53,0,0,0-.54,1.12,4.78,4.78,0,0,0-.18,1.29,4.67,4.67,0,0,0,.18,1.29,3.58,3.58,0,0,0,.54,1.13,2.8,2.8,0,0,0,.91.8,2.55,2.55,0,0,0,1.26.3,2.62,2.62,0,0,0,1.27-.3,2.77,2.77,0,0,0,.9-.8,3.58,3.58,0,0,0,.54-1.13,4.33,4.33,0,0,0,.19-1.29,4.43,4.43,0,0,0-.19-1.29,3.53,3.53,0,0,0-.54-1.12,2.77,2.77,0,0,0-.9-.8,2.52,2.52,0,0,0-1.27-.31A2.45,2.45,0,0,0,427.94,308.7Z" transform="translate(-362.32 -244.07)"/><path class="cls-6" d="M440.37,316v-1.49h0a2.87,2.87,0,0,1-1.16,1.27,3.26,3.26,0,0,1-1.69.44,3.81,3.81,0,0,1-1.34-.21,2.3,2.3,0,0,1-.89-.62,2.5,2.5,0,0,1-.51-1,5.24,5.24,0,0,1-.16-1.32v-5.36h1v5.38a2.73,2.73,0,0,0,.52,1.7,2.14,2.14,0,0,0,1.69.57,2.09,2.09,0,0,0,1.12-.28,2.27,2.27,0,0,0,.77-.74,3.56,3.56,0,0,0,.45-1.07,5.5,5.5,0,0,0,.14-1.22v-4.34h1V316Z" transform="translate(-362.32 -244.07)"/><path class="cls-6" d="M444.13,307.78v1.94h0a3,3,0,0,1,3.12-2.05v1a3.16,3.16,0,0,0-1.25.18,2.84,2.84,0,0,0-1,.62,2.7,2.7,0,0,0-.64.95,3.18,3.18,0,0,0-.22,1.21V316h-1v-8.26Z" transform="translate(-362.32 -244.07)"/><path class="cls-6" d="M453.62,307.78v1.57h0a2.7,2.7,0,0,1,1.14-1.33,3.41,3.41,0,0,1,1.8-.48,3.51,3.51,0,0,1,1.64.36,3.26,3.26,0,0,1,1.16,1,4,4,0,0,1,.69,1.39,6.12,6.12,0,0,1,.23,1.67,6,6,0,0,1-.23,1.67,4.08,4.08,0,0,1-.69,1.4,3.24,3.24,0,0,1-1.16.94,3.64,3.64,0,0,1-1.64.34,3.39,3.39,0,0,1-.89-.11,2.88,2.88,0,0,1-.83-.33,2.64,2.64,0,0,1-.68-.56,2.49,2.49,0,0,1-.46-.79h0v4.61h-1v-11.3Zm5.53,2.86a4,4,0,0,0-.48-1.13,2.71,2.71,0,0,0-.84-.81,2.45,2.45,0,0,0-1.24-.31,3,3,0,0,0-1.39.29,2.39,2.39,0,0,0-.89.77,2.91,2.91,0,0,0-.48,1.12,6.48,6.48,0,0,0-.13,1.34,5.44,5.44,0,0,0,.15,1.27,3.22,3.22,0,0,0,.5,1.13,2.58,2.58,0,0,0,.89.81,2.7,2.7,0,0,0,1.35.31,2.35,2.35,0,0,0,1.24-.31,2.71,2.71,0,0,0,.84-.81,3.85,3.85,0,0,0,.48-1.13,5.44,5.44,0,0,0,.15-1.27A5.51,5.51,0,0,0,459.15,310.64Z" transform="translate(-362.32 -244.07)"/><path class="cls-6" d="M462.8,307.78v1.94h0a3.23,3.23,0,0,1,1.19-1.55,3.17,3.17,0,0,1,1.93-.5v1a3.08,3.08,0,0,0-1.24.18,2.78,2.78,0,0,0-1,.62,2.7,2.7,0,0,0-.64.95,3.38,3.38,0,0,0-.22,1.21V316h-1v-8.26Z" transform="translate(-362.32 -244.07)"/><path class="cls-6" d="M467.94,304.62v1.61h-1v-1.61Zm0,3.16V316h-1v-8.26Z" transform="translate(-362.32 -244.07)"/><path class="cls-6" d="M475,307.9a3.6,3.6,0,0,1,1.23.94,4.19,4.19,0,0,1,.75,1.38,5.62,5.62,0,0,1,0,3.38,4,4,0,0,1-.75,1.38,3.48,3.48,0,0,1-1.23.94,4.27,4.27,0,0,1-3.34,0,3.57,3.57,0,0,1-1.23-.94,4,4,0,0,1-.75-1.38,5.84,5.84,0,0,1,0-3.38,4.19,4.19,0,0,1,.75-1.38,3.94,3.94,0,0,1,4.57-.94Zm-2.93.8a2.7,2.7,0,0,0-.91.8,3.53,3.53,0,0,0-.54,1.12,4.8,4.8,0,0,0-.19,1.29,4.68,4.68,0,0,0,.19,1.29,3.58,3.58,0,0,0,.54,1.13,2.7,2.7,0,0,0,.91.8,2.8,2.8,0,0,0,2.52,0,2.7,2.7,0,0,0,.91-.8,3.58,3.58,0,0,0,.54-1.13,4.33,4.33,0,0,0,.19-1.29,4.43,4.43,0,0,0-.19-1.29,3.53,3.53,0,0,0-.54-1.12,2.7,2.7,0,0,0-.91-.8,2.72,2.72,0,0,0-2.52,0Z" transform="translate(-362.32 -244.07)"/><path class="cls-6" d="M479.7,307.78v1.94h0a3.12,3.12,0,0,1,1.19-1.55,3.16,3.16,0,0,1,1.93-.5v1a3.13,3.13,0,0,0-1.25.18,3,3,0,0,0-1,.62,2.82,2.82,0,0,0-.63.95,3.18,3.18,0,0,0-.22,1.21V316h-1v-8.26Z" transform="translate(-362.32 -244.07)"/><path class="cls-6" d="M484.83,304.62v1.61h-1v-1.61Zm0,3.16V316h-1v-8.26Z" transform="translate(-362.32 -244.07)"/><path class="cls-6" d="M490.05,307.78v.85h-1.68v5.57a1.86,1.86,0,0,0,.13.78.76.76,0,0,0,.68.31,8.46,8.46,0,0,0,.87-.05v.85h-.45a3.39,3.39,0,0,1-.45,0,1.48,1.48,0,0,1-1.79-1.84v-5.65h-1.44v-.85h1.44V305.3h1v2.48Z" transform="translate(-362.32 -244.07)"/><path class="cls-6" d="M491.65,307.78l2.72,7,2.54-7h1l-3.58,9.51a9,9,0,0,1-.42.87,2,2,0,0,1-.42.54,1.39,1.39,0,0,1-.55.29,2.91,2.91,0,0,1-.79.09l-.47,0a1.33,1.33,0,0,1-.3-.06v-.85l.35.06.34,0a1.44,1.44,0,0,0,.55-.09,1.31,1.31,0,0,0,.38-.27,1.54,1.54,0,0,0,.27-.41c.07-.16.16-.33.24-.52l.35-.93-3.29-8.23Z" transform="translate(-362.32 -244.07)"/><path class="cls-6" d="M503.57,309.06a2.35,2.35,0,0,1,.69-.86,3.14,3.14,0,0,1,1-.5,5.28,5.28,0,0,1,1.31-.16,5.84,5.84,0,0,1,1.09.11,2.68,2.68,0,0,1,1,.39,2.17,2.17,0,0,1,.71.81,3,3,0,0,1,.27,1.35v4.38a.53.53,0,0,0,.59.61.83.83,0,0,0,.32-.06V316l-.31,0a1.78,1.78,0,0,1-.35,0,1.49,1.49,0,0,1-.61-.1.77.77,0,0,1-.36-.3,1.1,1.1,0,0,1-.17-.46,3.45,3.45,0,0,1,0-.58h0a7.31,7.31,0,0,1-.55.71,2.81,2.81,0,0,1-.63.52,2.72,2.72,0,0,1-.78.32,4,4,0,0,1-1.05.11,4.21,4.21,0,0,1-1.08-.13,2.49,2.49,0,0,1-.88-.43,2,2,0,0,1-.59-.76,2.39,2.39,0,0,1-.22-1.08,2.13,2.13,0,0,1,.39-1.35,2.4,2.4,0,0,1,1-.74,5.87,5.87,0,0,1,1.43-.36l1.6-.2c.22,0,.4,0,.56-.08a.92.92,0,0,0,.4-.17.76.76,0,0,0,.25-.33,1.38,1.38,0,0,0,.09-.54,1.87,1.87,0,0,0-.17-.84,1.29,1.29,0,0,0-.46-.52,1.92,1.92,0,0,0-.69-.27,5.49,5.49,0,0,0-.84-.07,2.52,2.52,0,0,0-1.57.46,1.79,1.79,0,0,0-.64,1.46h-1A3.59,3.59,0,0,1,503.57,309.06Zm5,2.47a.57.57,0,0,1-.37.25,2.79,2.79,0,0,1-.48.12l-1.32.2a7.12,7.12,0,0,0-1.24.26,2.61,2.61,0,0,0-.92.5,1.22,1.22,0,0,0-.36.94,1.48,1.48,0,0,0,.15.68,1.57,1.57,0,0,0,.41.51,1.63,1.63,0,0,0,.59.33,2.07,2.07,0,0,0,.69.11,3.67,3.67,0,0,0,1.1-.17,2.59,2.59,0,0,0,.92-.52,2.4,2.4,0,0,0,.63-.81,2.53,2.53,0,0,0,.23-1.09v-1.31Z" transform="translate(-362.32 -244.07)"/><path class="cls-6" d="M512.66,307.78v1.43h0a2.4,2.4,0,0,1,1-1.21,3.05,3.05,0,0,1,1.62-.46,4.08,4.08,0,0,1,1.45.23,2.26,2.26,0,0,1,.93.63,2.36,2.36,0,0,1,.5,1,6,6,0,0,1,.14,1.33V316h-1v-5.15a5.21,5.21,0,0,0-.09-1,2.25,2.25,0,0,0-.34-.79,1.64,1.64,0,0,0-.65-.53,2.49,2.49,0,0,0-1-.19,2.45,2.45,0,0,0-1.08.22,2.25,2.25,0,0,0-.8.59,2.64,2.64,0,0,0-.51.9,3.38,3.38,0,0,0-.2,1.12V316h-1v-8.26Z" transform="translate(-362.32 -244.07)"/><path class="cls-6" d="M526.59,316v-1.57h0a2.44,2.44,0,0,1-.47.74,3.55,3.55,0,0,1-.71.57,4.34,4.34,0,0,1-.86.36,3.54,3.54,0,0,1-.9.12,3.64,3.64,0,0,1-1.64-.34,3.15,3.15,0,0,1-1.16-.94,4.08,4.08,0,0,1-.69-1.4,6,6,0,0,1-.23-1.67,6.12,6.12,0,0,1,.23-1.67,4,4,0,0,1,.69-1.39,3.18,3.18,0,0,1,1.16-1,3.51,3.51,0,0,1,1.64-.36,3.37,3.37,0,0,1,.9.12,3,3,0,0,1,.82.34,2.68,2.68,0,0,1,.68.57,2.33,2.33,0,0,1,.46.78h0v-4.73h1V316Zm-5.53-2.86a3.85,3.85,0,0,0,.48,1.13,2.71,2.71,0,0,0,.84.81,2.35,2.35,0,0,0,1.24.31,2.55,2.55,0,0,0,2.24-1.12,3.22,3.22,0,0,0,.5-1.13,5.44,5.44,0,0,0,.15-1.27,5.51,5.51,0,0,0-.15-1.27,3.31,3.31,0,0,0-.5-1.13,2.67,2.67,0,0,0-.89-.81,2.81,2.81,0,0,0-1.35-.31,2.45,2.45,0,0,0-1.24.31,2.71,2.71,0,0,0-.84.81,4,4,0,0,0-.48,1.13,5.51,5.51,0,0,0-.15,1.27A5.44,5.44,0,0,0,521.06,313.18Z" transform="translate(-362.32 -244.07)"/><path class="cls-6" d="M375.94,324.92a2.23,2.23,0,0,0-1.57-.53,2.45,2.45,0,0,0-1.26.31,2.7,2.7,0,0,0-.91.8,3.53,3.53,0,0,0-.54,1.12,4.8,4.8,0,0,0-.19,1.29,4.68,4.68,0,0,0,.19,1.29,3.58,3.58,0,0,0,.54,1.13,2.7,2.7,0,0,0,.91.8,2.55,2.55,0,0,0,1.26.3,2.38,2.38,0,0,0,.88-.17,2.45,2.45,0,0,0,.74-.49,2.51,2.51,0,0,0,.52-.75,2.62,2.62,0,0,0,.26-.94h1a3.8,3.8,0,0,1-1.11,2.34,3.21,3.21,0,0,1-2.3.84,3.83,3.83,0,0,1-1.67-.34,3.48,3.48,0,0,1-1.23-.94,4,4,0,0,1-.75-1.38,5.84,5.84,0,0,1,0-3.38,4.19,4.19,0,0,1,.75-1.38,3.6,3.6,0,0,1,1.23-.94,3.7,3.7,0,0,1,1.67-.36,3.6,3.6,0,0,1,2.25.71,3,3,0,0,1,1.09,2.13h-1A2.81,2.81,0,0,0,375.94,324.92Z" transform="translate(-362.32 -244.07)"/><path class="cls-6" d="M380.11,323.78v1.94h0a3.12,3.12,0,0,1,1.19-1.55,3.16,3.16,0,0,1,1.93-.5v1a3.13,3.13,0,0,0-1.25.18,2.88,2.88,0,0,0-1,.62,2.82,2.82,0,0,0-.63.95,3.18,3.18,0,0,0-.23,1.21V332h-1v-8.26Z" transform="translate(-362.32 -244.07)"/><path class="cls-6" d="M384.68,329.31a3.17,3.17,0,0,0,.49,1.05,2.74,2.74,0,0,0,.85.77,2.39,2.39,0,0,0,1.23.3,2.47,2.47,0,0,0,1.73-.57,3.11,3.11,0,0,0,.86-1.54h1a4,4,0,0,1-1.18,2.18,3.49,3.49,0,0,1-2.42.76,3.86,3.86,0,0,1-1.69-.34,3.15,3.15,0,0,1-1.16-.94,4,4,0,0,1-.66-1.4,6,6,0,0,1-.22-1.67,5.83,5.83,0,0,1,.22-1.6,4.2,4.2,0,0,1,.66-1.4,3.38,3.38,0,0,1,1.16-1,3.6,3.6,0,0,1,1.69-.38,3.47,3.47,0,0,1,1.7.4,3.39,3.39,0,0,1,1.14,1.05,4.44,4.44,0,0,1,.63,1.49,6.5,6.5,0,0,1,.16,1.7h-6.35A4.5,4.5,0,0,0,384.68,329.31Zm5-3.08a2.83,2.83,0,0,0-.52-.93,2.48,2.48,0,0,0-.81-.66,2.52,2.52,0,0,0-2.19,0,2.52,2.52,0,0,0-.82.66,3.45,3.45,0,0,0-.54.94,4.64,4.64,0,0,0-.26,1.1h5.34A3.41,3.41,0,0,0,389.67,326.23Z" transform="translate(-362.32 -244.07)"/><path class="cls-6" d="M392.45,325.06a2.28,2.28,0,0,1,.7-.86,3,3,0,0,1,1-.5,5.28,5.28,0,0,1,1.31-.16,5.76,5.76,0,0,1,1.09.11,2.61,2.61,0,0,1,1,.39,2.09,2.09,0,0,1,.71.81,3,3,0,0,1,.27,1.35v4.38a.53.53,0,0,0,.59.61.79.79,0,0,0,.32-.06V332l-.31,0a1.72,1.72,0,0,1-.34,0,1.51,1.51,0,0,1-.62-.1.88.88,0,0,1-.36-.3,1.1,1.1,0,0,1-.17-.46,5,5,0,0,1,0-.58h0a7.31,7.31,0,0,1-.55.71,2.81,2.81,0,0,1-.63.52,2.72,2.72,0,0,1-.78.32,4,4,0,0,1-1.05.11,4.21,4.21,0,0,1-1.08-.13,2.58,2.58,0,0,1-.88-.43,2,2,0,0,1-.59-.76,2.53,2.53,0,0,1-.22-1.08,2.13,2.13,0,0,1,.39-1.35,2.4,2.4,0,0,1,1-.74,6,6,0,0,1,1.43-.36l1.61-.2.56-.08a1,1,0,0,0,.4-.17.75.75,0,0,0,.24-.33,1.38,1.38,0,0,0,.09-.54,1.75,1.75,0,0,0-.17-.84,1.29,1.29,0,0,0-.46-.52,1.92,1.92,0,0,0-.69-.27,5.49,5.49,0,0,0-.84-.07,2.52,2.52,0,0,0-1.57.46,1.82,1.82,0,0,0-.64,1.46h-1A3.38,3.38,0,0,1,392.45,325.06Zm5,2.47a.55.55,0,0,1-.37.25,2.79,2.79,0,0,1-.48.12l-1.32.2a7.33,7.33,0,0,0-1.24.26,2.61,2.61,0,0,0-.92.5,1.22,1.22,0,0,0-.36.94,1.48,1.48,0,0,0,.15.68,1.71,1.71,0,0,0,.41.51,1.63,1.63,0,0,0,.59.33,2.07,2.07,0,0,0,.69.11,3.73,3.73,0,0,0,1.11-.17,2.78,2.78,0,0,0,.92-.52,2.37,2.37,0,0,0,.62-.81,2.53,2.53,0,0,0,.23-1.09v-1.31Z" transform="translate(-362.32 -244.07)"/><path class="cls-6" d="M403.83,323.78v.85h-1.68v5.57a1.86,1.86,0,0,0,.13.78c.09.18.32.29.68.31a8.46,8.46,0,0,0,.87-.05v.85h-.45a3.39,3.39,0,0,1-.45,0,1.48,1.48,0,0,1-1.79-1.84v-5.65H399.7v-.85h1.44V321.3h1v2.48Z" transform="translate(-362.32 -244.07)"/><path class="cls-6" d="M406,329.31a3.15,3.15,0,0,0,.48,1.05,2.85,2.85,0,0,0,.85.77,2.39,2.39,0,0,0,1.23.3,2.46,2.46,0,0,0,1.73-.57,3,3,0,0,0,.87-1.54h1A4,4,0,0,1,411,331.5a3.52,3.52,0,0,1-2.43.76,3.79,3.79,0,0,1-1.68-.34,3,3,0,0,1-1.16-.94,4.23,4.23,0,0,1-.67-1.4,6.42,6.42,0,0,1-.21-1.67,6.22,6.22,0,0,1,.21-1.6,4.43,4.43,0,0,1,.67-1.4,3.21,3.21,0,0,1,1.16-1,3.53,3.53,0,0,1,1.68-.38,3.45,3.45,0,0,1,1.7.4,3.39,3.39,0,0,1,1.14,1.05,4.26,4.26,0,0,1,.64,1.49,7,7,0,0,1,.16,1.7h-6.36A4.11,4.11,0,0,0,406,329.31Zm5-3.08a3,3,0,0,0-.52-.93,2.63,2.63,0,0,0-.82-.66,2.4,2.4,0,0,0-1.09-.25,2.44,2.44,0,0,0-1.1.25,2.63,2.63,0,0,0-.82.66,3.19,3.19,0,0,0-.53.94,4.66,4.66,0,0,0-.27,1.1h5.35A3.7,3.7,0,0,0,411,326.23Z" transform="translate(-362.32 -244.07)"/><path class="cls-6" d="M421.31,323.78v.85h-1.68v5.57a1.84,1.84,0,0,0,.14.78c.09.18.32.29.68.31a8.11,8.11,0,0,0,.86-.05v.85h-.44a3.39,3.39,0,0,1-.45,0,2,2,0,0,1-1.41-.39,2,2,0,0,1-.38-1.45v-5.65h-1.44v-.85h1.44V321.3h1v2.48Z" transform="translate(-362.32 -244.07)"/><path class="cls-6" d="M423.76,320.62v4.59h0a2.47,2.47,0,0,1,1-1.21,3,3,0,0,1,1.61-.46,4,4,0,0,1,1.45.23,2.16,2.16,0,0,1,1.43,1.63,5.47,5.47,0,0,1,.15,1.33V332h-1v-5.15a4.49,4.49,0,0,0-.1-1,2.07,2.07,0,0,0-.33-.79,1.71,1.71,0,0,0-.65-.53,2.8,2.8,0,0,0-2.1,0,2.35,2.35,0,0,0-.8.59,2.82,2.82,0,0,0-.51.9,3.65,3.65,0,0,0-.2,1.12V332h-1V320.62Z" transform="translate(-362.32 -244.07)"/><path class="cls-6" d="M432.11,329.31a3.15,3.15,0,0,0,.48,1.05,2.85,2.85,0,0,0,.85.77,2.39,2.39,0,0,0,1.23.3,2.46,2.46,0,0,0,1.73-.57,3,3,0,0,0,.87-1.54h1a4,4,0,0,1-1.17,2.18,3.52,3.52,0,0,1-2.43.76,3.79,3.79,0,0,1-1.68-.34,3,3,0,0,1-1.16-.94,4.23,4.23,0,0,1-.67-1.4,6.42,6.42,0,0,1-.21-1.67,6.22,6.22,0,0,1,.21-1.6,4.43,4.43,0,0,1,.67-1.4,3.21,3.21,0,0,1,1.16-1,3.53,3.53,0,0,1,1.68-.38,3.45,3.45,0,0,1,1.7.4,3.39,3.39,0,0,1,1.14,1.05,4.26,4.26,0,0,1,.64,1.49,7,7,0,0,1,.16,1.7H432A4.11,4.11,0,0,0,432.11,329.31Zm5-3.08a3,3,0,0,0-.52-.93,2.63,2.63,0,0,0-.82-.66,2.4,2.4,0,0,0-1.09-.25,2.44,2.44,0,0,0-1.1.25,2.63,2.63,0,0,0-.82.66,3.19,3.19,0,0,0-.53.94,4.66,4.66,0,0,0-.27,1.1h5.35A3.7,3.7,0,0,0,437.1,326.23Z" transform="translate(-362.32 -244.07)"/><path class="cls-6" d="M445,323.78v1.57h0a2.72,2.72,0,0,1,1.15-1.33,3.41,3.41,0,0,1,1.8-.48,3.54,3.54,0,0,1,1.64.36,3.35,3.35,0,0,1,1.16,1,4,4,0,0,1,.69,1.39,6.12,6.12,0,0,1,.22,1.67,6,6,0,0,1-.22,1.67,4.08,4.08,0,0,1-.69,1.4,3.32,3.32,0,0,1-1.16.94,3.67,3.67,0,0,1-1.64.34,3.47,3.47,0,0,1-.9-.11,3,3,0,0,1-.83-.33,2.82,2.82,0,0,1-.68-.56,2.49,2.49,0,0,1-.46-.79h0v4.61h-1v-11.3Zm5.53,2.86a3.48,3.48,0,0,0-.48-1.13,2.71,2.71,0,0,0-.84-.81,2.39,2.39,0,0,0-1.23-.31,3,3,0,0,0-1.39.29,2.34,2.34,0,0,0-.9.77,3.05,3.05,0,0,0-.47,1.12,6.48,6.48,0,0,0-.14,1.34,5.44,5.44,0,0,0,.15,1.27,3.41,3.41,0,0,0,.5,1.13,2.71,2.71,0,0,0,.9.81,2.64,2.64,0,0,0,1.35.31,2.29,2.29,0,0,0,1.23-.31,2.71,2.71,0,0,0,.84-.81,3.39,3.39,0,0,0,.48-1.13,5.44,5.44,0,0,0,.15-1.27A5.51,5.51,0,0,0,450.57,326.64Z" transform="translate(-362.32 -244.07)"/><path class="cls-6" d="M454.23,323.78v1.94h0a3.12,3.12,0,0,1,1.19-1.55,3.16,3.16,0,0,1,1.93-.5v1a3.13,3.13,0,0,0-1.25.18,2.88,2.88,0,0,0-1,.62,2.82,2.82,0,0,0-.63.95,3.18,3.18,0,0,0-.22,1.21V332h-1v-8.26Z" transform="translate(-362.32 -244.07)"/><path class="cls-6" d="M463.21,323.9a3.56,3.56,0,0,1,1.22.94,4.21,4.21,0,0,1,.76,1.38,5.84,5.84,0,0,1,0,3.38,4,4,0,0,1-.76,1.38,3.45,3.45,0,0,1-1.22.94,4.27,4.27,0,0,1-3.34,0,3.48,3.48,0,0,1-1.23-.94,4,4,0,0,1-.75-1.38,5.62,5.62,0,0,1,0-3.38,4.19,4.19,0,0,1,.75-1.38,3.6,3.6,0,0,1,1.23-.94,4.05,4.05,0,0,1,3.34,0Zm-2.94.8a2.77,2.77,0,0,0-.9.8,3.53,3.53,0,0,0-.54,1.12,4.43,4.43,0,0,0-.19,1.29,4.33,4.33,0,0,0,.19,1.29,3.58,3.58,0,0,0,.54,1.13,2.77,2.77,0,0,0,.9.8,2.62,2.62,0,0,0,1.27.3,2.55,2.55,0,0,0,1.26-.3,2.7,2.7,0,0,0,.91-.8,3.58,3.58,0,0,0,.54-1.13,4.67,4.67,0,0,0,.18-1.29,4.78,4.78,0,0,0-.18-1.29,3.53,3.53,0,0,0-.54-1.12,2.7,2.7,0,0,0-.91-.8,2.45,2.45,0,0,0-1.26-.31A2.52,2.52,0,0,0,460.27,324.7Z" transform="translate(-362.32 -244.07)"/><path class="cls-6" d="M473.28,332v-1.57h0a2.44,2.44,0,0,1-.47.74,3.55,3.55,0,0,1-.71.57,4.34,4.34,0,0,1-.86.36,3.54,3.54,0,0,1-.9.12,3.64,3.64,0,0,1-1.64-.34,3.24,3.24,0,0,1-1.16-.94,4.08,4.08,0,0,1-.69-1.4,6,6,0,0,1-.23-1.67,6.12,6.12,0,0,1,.23-1.67,4,4,0,0,1,.69-1.39,3.26,3.26,0,0,1,1.16-1,3.51,3.51,0,0,1,1.64-.36,3.37,3.37,0,0,1,.9.12,3,3,0,0,1,.82.34,2.68,2.68,0,0,1,.68.57,2.33,2.33,0,0,1,.46.78h0v-4.73h1V332Zm-5.53-2.86a3.85,3.85,0,0,0,.48,1.13,2.71,2.71,0,0,0,.84.81,2.35,2.35,0,0,0,1.24.31,2.55,2.55,0,0,0,2.24-1.12,3.22,3.22,0,0,0,.5-1.13,5.44,5.44,0,0,0,.15-1.27,5.51,5.51,0,0,0-.15-1.27,3.31,3.31,0,0,0-.5-1.13,2.67,2.67,0,0,0-.89-.81,2.81,2.81,0,0,0-1.35-.31,2.45,2.45,0,0,0-1.24.31,2.71,2.71,0,0,0-.84.81,4,4,0,0,0-.48,1.13,5.51,5.51,0,0,0-.15,1.27A5.44,5.44,0,0,0,467.75,329.18Z" transform="translate(-362.32 -244.07)"/><path class="cls-6" d="M481.89,332v-1.49h0a2.81,2.81,0,0,1-1.16,1.27,3.26,3.26,0,0,1-1.69.44,3.81,3.81,0,0,1-1.34-.21,2.3,2.3,0,0,1-.89-.62,2.5,2.5,0,0,1-.51-1,5.24,5.24,0,0,1-.16-1.32v-5.36h1v5.38a2.73,2.73,0,0,0,.52,1.7,2.14,2.14,0,0,0,1.69.57,2.09,2.09,0,0,0,1.12-.28,2.27,2.27,0,0,0,.77-.74,3.56,3.56,0,0,0,.45-1.07,5.5,5.5,0,0,0,.14-1.22v-4.34h1V332Z" transform="translate(-362.32 -244.07)"/><path class="cls-6" d="M489.78,324.92a2.23,2.23,0,0,0-1.57-.53,2.45,2.45,0,0,0-1.26.31,2.7,2.7,0,0,0-.91.8,3.53,3.53,0,0,0-.54,1.12,4.8,4.8,0,0,0-.19,1.29,4.68,4.68,0,0,0,.19,1.29,3.58,3.58,0,0,0,.54,1.13,2.7,2.7,0,0,0,.91.8,2.55,2.55,0,0,0,1.26.3,2.38,2.38,0,0,0,.88-.17,2.45,2.45,0,0,0,.74-.49,2.51,2.51,0,0,0,.52-.75,2.62,2.62,0,0,0,.26-.94h1a3.8,3.8,0,0,1-1.11,2.34,3.21,3.21,0,0,1-2.3.84,3.83,3.83,0,0,1-1.67-.34,3.48,3.48,0,0,1-1.23-.94,4,4,0,0,1-.75-1.38,5.84,5.84,0,0,1,0-3.38,4.19,4.19,0,0,1,.75-1.38,3.6,3.6,0,0,1,1.23-.94,3.7,3.7,0,0,1,1.67-.36,3.6,3.6,0,0,1,2.25.71,3,3,0,0,1,1.09,2.13h-1A2.81,2.81,0,0,0,489.78,324.92Z" transform="translate(-362.32 -244.07)"/><path class="cls-6" d="M496.31,323.78v.85h-1.68v5.57a1.86,1.86,0,0,0,.13.78c.09.18.32.29.68.31a8.46,8.46,0,0,0,.87-.05v.85h-.45a3.39,3.39,0,0,1-.45,0,1.48,1.48,0,0,1-1.79-1.84v-5.65h-1.44v-.85h1.44V321.3h1v2.48Z" transform="translate(-362.32 -244.07)"/><path class="cls-6" d="M503.22,320.62v4.73h0a2.33,2.33,0,0,1,.46-.78,2.68,2.68,0,0,1,.68-.57,2.9,2.9,0,0,1,.83-.34,3.41,3.41,0,0,1,.89-.12,3.51,3.51,0,0,1,1.64.36,3.26,3.26,0,0,1,1.16,1,4,4,0,0,1,.69,1.39,6.12,6.12,0,0,1,.23,1.67,6,6,0,0,1-.23,1.67,4.08,4.08,0,0,1-.69,1.4,3.24,3.24,0,0,1-1.16.94,3.64,3.64,0,0,1-1.64.34,3.5,3.5,0,0,1-1.8-.46,2.66,2.66,0,0,1-1.14-1.33h0V332h-.93V320.62Zm5.45,6a4,4,0,0,0-.48-1.13,2.71,2.71,0,0,0-.84-.81,2.45,2.45,0,0,0-1.24-.31,2.81,2.81,0,0,0-1.35.31,2.58,2.58,0,0,0-.89.81,3.31,3.31,0,0,0-.5,1.13,5.51,5.51,0,0,0-.15,1.27,5.44,5.44,0,0,0,.15,1.27,3.22,3.22,0,0,0,.5,1.13,2.58,2.58,0,0,0,.89.81,2.7,2.7,0,0,0,1.35.31,2.35,2.35,0,0,0,1.24-.31,2.71,2.71,0,0,0,.84-.81,3.85,3.85,0,0,0,.48-1.13,5.44,5.44,0,0,0,.15-1.27A5.51,5.51,0,0,0,508.67,326.64Z" transform="translate(-362.32 -244.07)"/><path class="cls-6" d="M511.6,325.06a2.28,2.28,0,0,1,.7-.86,3,3,0,0,1,1-.5,5.28,5.28,0,0,1,1.31-.16,5.76,5.76,0,0,1,1.09.11,2.72,2.72,0,0,1,1,.39,2.15,2.15,0,0,1,.7.81,3,3,0,0,1,.27,1.35v4.38a.53.53,0,0,0,.59.61.79.79,0,0,0,.32-.06V332l-.31,0a1.67,1.67,0,0,1-.34,0,1.55,1.55,0,0,1-.62-.1.88.88,0,0,1-.36-.3,1.26,1.26,0,0,1-.17-.46,5,5,0,0,1,0-.58h0a6,6,0,0,1-.55.71,2.81,2.81,0,0,1-.63.52,2.61,2.61,0,0,1-.78.32,4,4,0,0,1-1,.11,4.21,4.21,0,0,1-1.08-.13,2.58,2.58,0,0,1-.88-.43,2.13,2.13,0,0,1-.59-.76,2.54,2.54,0,0,1-.21-1.08,2.12,2.12,0,0,1,.38-1.35,2.37,2.37,0,0,1,1-.74,5.78,5.78,0,0,1,1.42-.36l1.61-.2.56-.08a1,1,0,0,0,.4-.17.75.75,0,0,0,.24-.33,1.38,1.38,0,0,0,.09-.54,1.75,1.75,0,0,0-.17-.84,1.29,1.29,0,0,0-.46-.52,1.92,1.92,0,0,0-.69-.27,5.49,5.49,0,0,0-.84-.07,2.47,2.47,0,0,0-1.56.46,1.76,1.76,0,0,0-.64,1.46h-1A3.38,3.38,0,0,1,511.6,325.06Zm5,2.47a.55.55,0,0,1-.37.25,2.79,2.79,0,0,1-.48.12l-1.32.2a7.33,7.33,0,0,0-1.24.26,2.61,2.61,0,0,0-.92.5,1.22,1.22,0,0,0-.36.94,1.48,1.48,0,0,0,.15.68,1.71,1.71,0,0,0,.41.51,1.63,1.63,0,0,0,.59.33,2.07,2.07,0,0,0,.69.11,3.73,3.73,0,0,0,1.11-.17,2.68,2.68,0,0,0,.92-.52,2.42,2.42,0,0,0,.85-1.9v-1.31Z" transform="translate(-362.32 -244.07)"/><path class="cls-6" d="M524.75,324.92a2.18,2.18,0,0,0-1.56-.53,2.47,2.47,0,0,0-1.27.31,2.77,2.77,0,0,0-.9.8,3.77,3.77,0,0,0-.55,1.12,4.78,4.78,0,0,0-.18,1.29,4.67,4.67,0,0,0,.18,1.29,3.83,3.83,0,0,0,.55,1.13,2.77,2.77,0,0,0,.9.8,2.56,2.56,0,0,0,1.27.3,2.28,2.28,0,0,0,1.61-.66,2.74,2.74,0,0,0,.53-.75,2.61,2.61,0,0,0,.25-.94h1a3.79,3.79,0,0,1-1.1,2.34,3.24,3.24,0,0,1-2.3.84,3.91,3.91,0,0,1-1.68-.34,3.54,3.54,0,0,1-1.22-.94,4,4,0,0,1-.75-1.38,5.62,5.62,0,0,1,0-3.38,4.19,4.19,0,0,1,.75-1.38,3.66,3.66,0,0,1,1.22-.94,3.77,3.77,0,0,1,1.68-.36,3.57,3.57,0,0,1,2.24.71,3,3,0,0,1,1.1,2.13h-1A2.74,2.74,0,0,0,524.75,324.92Z" transform="translate(-362.32 -244.07)"/><path class="cls-6" d="M529,320.62v7.16l4.57-4h1.35l-3.52,3.06,3.76,5.2H533.9l-3.26-4.5L529,328.9V332h-1V320.62Z" transform="translate(-362.32 -244.07)"/><path class="cls-6" d="M537,320.62V332h-1V320.62Z" transform="translate(-362.32 -244.07)"/><path class="cls-6" d="M544.12,323.9a3.56,3.56,0,0,1,1.22.94,4.21,4.21,0,0,1,.76,1.38,5.84,5.84,0,0,1,0,3.38,4,4,0,0,1-.76,1.38,3.45,3.45,0,0,1-1.22.94,4.27,4.27,0,0,1-3.34,0,3.48,3.48,0,0,1-1.23-.94,4,4,0,0,1-.75-1.38,5.62,5.62,0,0,1,0-3.38,4.19,4.19,0,0,1,.75-1.38,3.6,3.6,0,0,1,1.23-.94,4.05,4.05,0,0,1,3.34,0Zm-2.94.8a2.77,2.77,0,0,0-.9.8,3.53,3.53,0,0,0-.54,1.12,4.43,4.43,0,0,0-.19,1.29,4.33,4.33,0,0,0,.19,1.29,3.58,3.58,0,0,0,.54,1.13,2.77,2.77,0,0,0,.9.8,2.62,2.62,0,0,0,1.27.3,2.55,2.55,0,0,0,1.26-.3,2.7,2.7,0,0,0,.91-.8,3.58,3.58,0,0,0,.54-1.13,4.67,4.67,0,0,0,.18-1.29,4.78,4.78,0,0,0-.18-1.29,3.53,3.53,0,0,0-.54-1.12,2.7,2.7,0,0,0-.91-.8,2.45,2.45,0,0,0-1.26-.31A2.52,2.52,0,0,0,541.18,324.7Z" transform="translate(-362.32 -244.07)"/><path class="cls-6" d="M554.63,333a3.1,3.1,0,0,1-.63,1.24,2.66,2.66,0,0,1-1.13.79,4.7,4.7,0,0,1-1.7.27,5.5,5.5,0,0,1-1.22-.14,3.61,3.61,0,0,1-1.06-.45,2.56,2.56,0,0,1-.79-.78,2.47,2.47,0,0,1-.36-1.13h1a2,2,0,0,0,.31.78,1.89,1.89,0,0,0,.56.5,2.31,2.31,0,0,0,.73.28,3.75,3.75,0,0,0,.82.09,2.4,2.4,0,0,0,2-.8,3.64,3.64,0,0,0,.62-2.3v-1.12h0a2.94,2.94,0,0,1-1,1.23,2.73,2.73,0,0,1-1.59.46,4,4,0,0,1-1.7-.32,3.16,3.16,0,0,1-1.16-.91,3.7,3.7,0,0,1-.66-1.35,6.34,6.34,0,0,1-.21-1.66,5,5,0,0,1,.25-1.6,3.8,3.8,0,0,1,.72-1.33,3.28,3.28,0,0,1,1.17-.9,3.64,3.64,0,0,1,1.59-.33,3,3,0,0,1,.87.13,3,3,0,0,1,.74.36,3.12,3.12,0,0,1,.6.54,2.11,2.11,0,0,1,.41.64h0v-1.43h1v7.59A6,6,0,0,1,554.63,333Zm-2.31-2.2a2.68,2.68,0,0,0,.83-.74,3.21,3.21,0,0,0,.51-1.05,4.47,4.47,0,0,0,.16-1.21,5.08,5.08,0,0,0-.14-1.22,3.71,3.71,0,0,0-.46-1.1,2.54,2.54,0,0,0-.83-.8,2.23,2.23,0,0,0-1.22-.31,2.39,2.39,0,0,0-1.23.3,2.62,2.62,0,0,0-.85.77,3.14,3.14,0,0,0-.49,1.1,5.3,5.3,0,0,0-.15,1.26,4.47,4.47,0,0,0,.16,1.21,3,3,0,0,0,.49,1.05,2.76,2.76,0,0,0,.85.74,2.59,2.59,0,0,0,1.22.28A2.36,2.36,0,0,0,552.32,330.82Z" transform="translate(-362.32 -244.07)"/><path class="cls-6" d="M557.34,330.34h1.35V332h-1.35Z" transform="translate(-362.32 -244.07)"/><path class="cls-6" d="M378.9,336.62v.92h-4V348h-1.08v-10.5h-4v-.92Z" transform="translate(-362.32 -244.07)"/><path class="cls-6" d="M380.77,336.62v4.59h0a2.42,2.42,0,0,1,1-1.21,3,3,0,0,1,1.61-.46,4,4,0,0,1,1.45.23,2.16,2.16,0,0,1,1.43,1.63,5.47,5.47,0,0,1,.15,1.33V348h-1v-5.15a4.49,4.49,0,0,0-.1-1,2.07,2.07,0,0,0-.33-.79,1.71,1.71,0,0,0-.65-.53,2.8,2.8,0,0,0-2.1,0,2.35,2.35,0,0,0-.8.59,2.64,2.64,0,0,0-.51.9,3.65,3.65,0,0,0-.2,1.12V348h-1V336.62Z" transform="translate(-362.32 -244.07)"/><path class="cls-6" d="M389.39,336.62v1.61h-1v-1.61Zm0,3.16V348h-1v-8.26Z" transform="translate(-362.32 -244.07)"/><path class="cls-6" d="M396.08,341.39a1.64,1.64,0,0,0-.47-.57,2.13,2.13,0,0,0-.68-.32,3.12,3.12,0,0,0-.82-.11,4,4,0,0,0-.68.07,2.17,2.17,0,0,0-.63.24,1.49,1.49,0,0,0-.46.44,1.23,1.23,0,0,0-.18.68.93.93,0,0,0,.17.56,1.46,1.46,0,0,0,.42.4,3.2,3.2,0,0,0,.56.26c.21.07.39.13.56.17l1.35.3a4.28,4.28,0,0,1,.85.23,3,3,0,0,1,.76.44,2.39,2.39,0,0,1,.53.68,2,2,0,0,1,.21.94,2.06,2.06,0,0,1-.3,1.14,2.49,2.49,0,0,1-.78.77,3.33,3.33,0,0,1-1.06.43,6,6,0,0,1-1.17.12,3.78,3.78,0,0,1-2.36-.68,2.93,2.93,0,0,1-1-2.21h1a2,2,0,0,0,.75,1.54,2.66,2.66,0,0,0,1.69.52,3.45,3.45,0,0,0,.76-.08,2.23,2.23,0,0,0,.72-.27,1.77,1.77,0,0,0,.56-.49,1.21,1.21,0,0,0,.21-.73,1.15,1.15,0,0,0-.15-.61,1.27,1.27,0,0,0-.41-.42,2.84,2.84,0,0,0-.58-.28c-.22-.07-.44-.14-.67-.19l-1.29-.29a6.5,6.5,0,0,1-.91-.29,3,3,0,0,1-.73-.42,1.72,1.72,0,0,1-.49-.61,2,2,0,0,1-.18-.89,2.05,2.05,0,0,1,.28-1.07,2.18,2.18,0,0,1,.73-.72,3.55,3.55,0,0,1,1-.4,5.24,5.24,0,0,1,1.1-.13,4.33,4.33,0,0,1,1.16.16,2.74,2.74,0,0,1,.94.5,2.43,2.43,0,0,1,.65.83,3,3,0,0,1,.27,1.17h-1A1.86,1.86,0,0,0,396.08,341.39Z" transform="translate(-362.32 -244.07)"/><path class="cls-6" d="M404.5,336.62v1.61h-1v-1.61Zm0,3.16V348h-1v-8.26Z" transform="translate(-362.32 -244.07)"/><path class="cls-6" d="M407.43,339.78v1.43h0a2.4,2.4,0,0,1,1-1.21,3.05,3.05,0,0,1,1.62-.46,4.08,4.08,0,0,1,1.45.23,2.26,2.26,0,0,1,.93.63,2.36,2.36,0,0,1,.5,1,6,6,0,0,1,.14,1.33V348h-1v-5.15a5.21,5.21,0,0,0-.09-1,2.25,2.25,0,0,0-.34-.79,1.64,1.64,0,0,0-.65-.53,2.49,2.49,0,0,0-1-.19,2.45,2.45,0,0,0-1.08.22,2.25,2.25,0,0,0-.8.59,2.64,2.64,0,0,0-.51.9,3.38,3.38,0,0,0-.2,1.12V348h-1v-8.26Z" transform="translate(-362.32 -244.07)"/><path class="cls-6" d="M415.22,339.78l2.59,7.25h0l2.56-7.25h1L418.35,348h-1.07l-3.18-8.26Z" transform="translate(-362.32 -244.07)"/><path class="cls-6" d="M427.59,339.9a3.6,3.6,0,0,1,1.23.94,4.19,4.19,0,0,1,.75,1.38,5.62,5.62,0,0,1,0,3.38,4,4,0,0,1-.75,1.38,3.48,3.48,0,0,1-1.23.94,4.27,4.27,0,0,1-3.34,0A3.45,3.45,0,0,1,423,347a3.86,3.86,0,0,1-.76-1.38,5.84,5.84,0,0,1,0-3.38,4,4,0,0,1,.76-1.38,3.56,3.56,0,0,1,1.22-.94,4.05,4.05,0,0,1,3.34,0Zm-2.93.8a2.7,2.7,0,0,0-.91.8,3.53,3.53,0,0,0-.54,1.12,4.78,4.78,0,0,0-.18,1.29,4.67,4.67,0,0,0,.18,1.29,3.58,3.58,0,0,0,.54,1.13,2.7,2.7,0,0,0,.91.8,2.55,2.55,0,0,0,1.26.3,2.62,2.62,0,0,0,1.27-.3,2.77,2.77,0,0,0,.9-.8,3.58,3.58,0,0,0,.54-1.13,4.33,4.33,0,0,0,.19-1.29,4.43,4.43,0,0,0-.19-1.29,3.53,3.53,0,0,0-.54-1.12,2.77,2.77,0,0,0-.9-.8,2.52,2.52,0,0,0-1.27-.31A2.45,2.45,0,0,0,424.66,340.7Z" transform="translate(-362.32 -244.07)"/><path class="cls-6" d="M432.35,336.62V348h-1V336.62Z" transform="translate(-362.32 -244.07)"/><path class="cls-6" d="M434.48,339.78l2.59,7.25h0l2.56-7.25h1L437.62,348h-1.07l-3.19-8.26Z" transform="translate(-362.32 -244.07)"/><path class="cls-6" d="M442.44,345.31a3.17,3.17,0,0,0,.49,1.05,2.74,2.74,0,0,0,.85.77,2.39,2.39,0,0,0,1.23.3,2.47,2.47,0,0,0,1.73-.57,3.11,3.11,0,0,0,.86-1.54h1a4,4,0,0,1-1.18,2.18,3.51,3.51,0,0,1-2.42.76,3.86,3.86,0,0,1-1.69-.34,3.15,3.15,0,0,1-1.16-.94,4,4,0,0,1-.66-1.4,6,6,0,0,1-.22-1.67,5.83,5.83,0,0,1,.22-1.6,4.2,4.2,0,0,1,.66-1.4,3.38,3.38,0,0,1,1.16-1,3.6,3.6,0,0,1,1.69-.38,3.25,3.25,0,0,1,2.84,1.45,4.44,4.44,0,0,1,.63,1.49,6.5,6.5,0,0,1,.16,1.7h-6.35A4.5,4.5,0,0,0,442.44,345.31Zm5-3.08a2.83,2.83,0,0,0-.52-.93,2.48,2.48,0,0,0-.81-.66,2.52,2.52,0,0,0-2.19,0,2.52,2.52,0,0,0-.82.66,3.45,3.45,0,0,0-.54.94,4.64,4.64,0,0,0-.26,1.1h5.34A3.41,3.41,0,0,0,447.43,342.23Z" transform="translate(-362.32 -244.07)"/><path class="cls-6" d="M454.75,341.39a1.53,1.53,0,0,0-.47-.57,2.13,2.13,0,0,0-.68-.32,3,3,0,0,0-.81-.11,4,4,0,0,0-.69.07,2.41,2.41,0,0,0-.63.24,1.49,1.49,0,0,0-.46.44,1.23,1.23,0,0,0-.18.68.93.93,0,0,0,.17.56,1.46,1.46,0,0,0,.42.4,3.57,3.57,0,0,0,.56.26c.21.07.39.13.56.17l1.35.3a4.57,4.57,0,0,1,.86.23,3.08,3.08,0,0,1,.75.44,2.23,2.23,0,0,1,.53.68,2,2,0,0,1,.21.94,2.06,2.06,0,0,1-.3,1.14,2.39,2.39,0,0,1-.78.77,3.33,3.33,0,0,1-1.06.43,6,6,0,0,1-1.17.12,3.78,3.78,0,0,1-2.36-.68,2.93,2.93,0,0,1-1-2.21h1a2,2,0,0,0,.75,1.54,2.68,2.68,0,0,0,1.69.52,3.39,3.39,0,0,0,.76-.08,2.23,2.23,0,0,0,.72-.27,1.77,1.77,0,0,0,.56-.49,1.21,1.21,0,0,0,.21-.73,1.15,1.15,0,0,0-.15-.61,1.27,1.27,0,0,0-.41-.42,2.84,2.84,0,0,0-.58-.28c-.22-.07-.44-.14-.67-.19l-1.29-.29a6.5,6.5,0,0,1-.91-.29,3,3,0,0,1-.73-.42,1.72,1.72,0,0,1-.49-.61,2,2,0,0,1-.17-.89,2,2,0,0,1,.27-1.07,2.18,2.18,0,0,1,.73-.72,3.55,3.55,0,0,1,1-.4,5.24,5.24,0,0,1,1.1-.13,4.28,4.28,0,0,1,1.16.16,2.74,2.74,0,0,1,.94.5,2.31,2.31,0,0,1,.65.83,3,3,0,0,1,.27,1.17h-1A1.86,1.86,0,0,0,454.75,341.39Z" transform="translate(-362.32 -244.07)"/><path class="cls-6" d="M462.35,341.06a2.28,2.28,0,0,1,.7-.86,3.09,3.09,0,0,1,1-.5,5.34,5.34,0,0,1,1.31-.16,5.76,5.76,0,0,1,1.09.11,2.72,2.72,0,0,1,1,.39,2.15,2.15,0,0,1,.7.81,3,3,0,0,1,.27,1.35v4.38a.53.53,0,0,0,.59.61.79.79,0,0,0,.32-.06V348l-.31,0a1.67,1.67,0,0,1-.34,0,1.55,1.55,0,0,1-.62-.1.88.88,0,0,1-.36-.3,1.26,1.26,0,0,1-.17-.46,5,5,0,0,1,0-.58h0a6,6,0,0,1-.55.71,2.77,2.77,0,0,1-.62.52,2.67,2.67,0,0,1-.79.32,4,4,0,0,1-1.05.11,4.21,4.21,0,0,1-1.08-.13,2.58,2.58,0,0,1-.88-.43,2.13,2.13,0,0,1-.59-.76,2.54,2.54,0,0,1-.21-1.08,2.12,2.12,0,0,1,.38-1.35,2.5,2.5,0,0,1,1-.74,5.78,5.78,0,0,1,1.42-.36l1.61-.2.56-.08a1,1,0,0,0,.4-.17.76.76,0,0,0,.25-.33,1.4,1.4,0,0,0,.08-.54,1.88,1.88,0,0,0-.16-.84,1.39,1.39,0,0,0-.47-.52,1.78,1.78,0,0,0-.69-.27,5.49,5.49,0,0,0-.84-.07,2.47,2.47,0,0,0-1.56.46,1.76,1.76,0,0,0-.64,1.46h-1A3.38,3.38,0,0,1,462.35,341.06Zm5,2.47a.53.53,0,0,1-.37.25,2.79,2.79,0,0,1-.48.12l-1.32.2a7.33,7.33,0,0,0-1.24.26,2.61,2.61,0,0,0-.92.5,1.22,1.22,0,0,0-.36.94,1.37,1.37,0,0,0,.16.68,1.54,1.54,0,0,0,.4.51,1.68,1.68,0,0,0,.6.33,2,2,0,0,0,.68.11,3.68,3.68,0,0,0,1.11-.17,2.68,2.68,0,0,0,.92-.52,2.42,2.42,0,0,0,.85-1.9v-1.31Z" transform="translate(-362.32 -244.07)"/><path class="cls-6" d="M471.47,336.62V348h-1V336.62Z" transform="translate(-362.32 -244.07)"/><path class="cls-6" d="M474.43,336.62V348h-1V336.62Z" transform="translate(-362.32 -244.07)"/><path class="cls-6" d="M484.1,339.78v.85h-1.68v5.57a1.86,1.86,0,0,0,.13.78c.09.18.32.29.68.31a8.46,8.46,0,0,0,.87-.05v.85h-.45a3.39,3.39,0,0,1-.45,0,1.48,1.48,0,0,1-1.79-1.84v-5.65H480v-.85h1.44V337.3h1v2.48Z" transform="translate(-362.32 -244.07)"/><path class="cls-6" d="M486.54,336.62v4.59h0a2.4,2.4,0,0,1,1-1.21,3.05,3.05,0,0,1,1.62-.46,4,4,0,0,1,1.44.23,2.29,2.29,0,0,1,.94.63,2.48,2.48,0,0,1,.5,1,6,6,0,0,1,.14,1.33V348h-1v-5.15a5.21,5.21,0,0,0-.09-1,2.25,2.25,0,0,0-.34-.79,1.71,1.71,0,0,0-.65-.53,2.49,2.49,0,0,0-1-.19,2.45,2.45,0,0,0-1.08.22,2.17,2.17,0,0,0-.8.59,2.84,2.84,0,0,0-.52.9,3.65,3.65,0,0,0-.2,1.12V348h-1V336.62Z" transform="translate(-362.32 -244.07)"/><path class="cls-6" d="M494.89,345.31a3,3,0,0,0,.49,1.05,2.7,2.7,0,0,0,.84.77,2.81,2.81,0,0,0,3-.27,3,3,0,0,0,.87-1.54h1a4.11,4.11,0,0,1-1.18,2.18,3.51,3.51,0,0,1-2.42.76,3.83,3.83,0,0,1-1.69-.34,3.07,3.07,0,0,1-1.16-.94,4.23,4.23,0,0,1-.67-1.4,6.42,6.42,0,0,1-.21-1.67,6.22,6.22,0,0,1,.21-1.6,4.43,4.43,0,0,1,.67-1.4,3.29,3.29,0,0,1,1.16-1,3.57,3.57,0,0,1,1.69-.38,3.43,3.43,0,0,1,1.69.4A3.52,3.52,0,0,1,500.3,341a4.44,4.44,0,0,1,.63,1.49,6.5,6.5,0,0,1,.16,1.7h-6.35A4.5,4.5,0,0,0,494.89,345.31Zm5-3.08a3,3,0,0,0-.52-.93,2.52,2.52,0,0,0-.82-.66,2.39,2.39,0,0,0-1.08-.25,2.45,2.45,0,0,0-1.11.25,2.48,2.48,0,0,0-.81.66,3,3,0,0,0-.54.94,4.64,4.64,0,0,0-.26,1.1h5.34A3.7,3.7,0,0,0,499.88,342.23Z" transform="translate(-362.32 -244.07)"/><path class="cls-6" d="M507.82,339.78v1.57h0A2.65,2.65,0,0,1,509,340a3.41,3.41,0,0,1,1.8-.48,3.51,3.51,0,0,1,1.64.36,3.35,3.35,0,0,1,1.16,1,4,4,0,0,1,.69,1.39,6.12,6.12,0,0,1,.22,1.67,6,6,0,0,1-.22,1.67,4.08,4.08,0,0,1-.69,1.4,3.32,3.32,0,0,1-1.16.94,3.64,3.64,0,0,1-1.64.34,3.47,3.47,0,0,1-.9-.11,3.13,3.13,0,0,1-.83-.33,3,3,0,0,1-.68-.56,2.29,2.29,0,0,1-.45-.79h0v4.61h-1v-11.3Zm5.53,2.86a3.48,3.48,0,0,0-.48-1.13,2.71,2.71,0,0,0-.84-.81,2.39,2.39,0,0,0-1.23-.31,3,3,0,0,0-1.39.29,2.5,2.5,0,0,0-.9.77,3.05,3.05,0,0,0-.47,1.12,6.48,6.48,0,0,0-.14,1.34,5.46,5.46,0,0,0,.16,1.27,3.21,3.21,0,0,0,.49,1.13,2.59,2.59,0,0,0,2.25,1.12,2.29,2.29,0,0,0,1.23-.31,2.71,2.71,0,0,0,.84-.81,3.39,3.39,0,0,0,.48-1.13,5.44,5.44,0,0,0,.15-1.27A5.51,5.51,0,0,0,513.35,342.64Z" transform="translate(-362.32 -244.07)"/><path class="cls-6" d="M517,339.78v1.94h0a3,3,0,0,1,3.12-2.05v1a3.16,3.16,0,0,0-1.25.18,3,3,0,0,0-1,.62,2.82,2.82,0,0,0-.63.95,3.18,3.18,0,0,0-.22,1.21V348h-1v-8.26Z" transform="translate(-362.32 -244.07)"/><path class="cls-6" d="M526,339.9a3.6,3.6,0,0,1,1.23.94,4.19,4.19,0,0,1,.75,1.38,5.84,5.84,0,0,1,0,3.38,4,4,0,0,1-.75,1.38,3.48,3.48,0,0,1-1.23.94,4.27,4.27,0,0,1-3.34,0,3.48,3.48,0,0,1-1.23-.94,4,4,0,0,1-.75-1.38,5.84,5.84,0,0,1,0-3.38,4.19,4.19,0,0,1,.75-1.38,3.6,3.6,0,0,1,1.23-.94,4.05,4.05,0,0,1,3.34,0Zm-2.93.8a2.7,2.7,0,0,0-.91.8,3.53,3.53,0,0,0-.54,1.12,4.8,4.8,0,0,0-.19,1.29,4.68,4.68,0,0,0,.19,1.29,3.58,3.58,0,0,0,.54,1.13,2.7,2.7,0,0,0,.91.8,2.8,2.8,0,0,0,2.52,0,2.7,2.7,0,0,0,.91-.8,3.58,3.58,0,0,0,.54-1.13,4.68,4.68,0,0,0,.19-1.29,4.8,4.8,0,0,0-.19-1.29,3.53,3.53,0,0,0-.54-1.12,2.7,2.7,0,0,0-.91-.8,2.72,2.72,0,0,0-2.52,0Z" transform="translate(-362.32 -244.07)"/><path class="cls-6" d="M530.75,339.78v9a4.91,4.91,0,0,1-.07.88,2,2,0,0,1-.27.73,1.56,1.56,0,0,1-.55.5,1.84,1.84,0,0,1-.87.18,1.94,1.94,0,0,1-.34,0h-.35v-.83l.28,0a1,1,0,0,0,.25,0c.4,0,.65-.11.75-.34a2,2,0,0,0,.16-.86v-9.25Zm0-3.16v1.61h-1v-1.61Z" transform="translate(-362.32 -244.07)"/><path class="cls-6" d="M533.43,345.31a3.17,3.17,0,0,0,.49,1.05,2.74,2.74,0,0,0,.85.77,2.39,2.39,0,0,0,1.23.3,2.47,2.47,0,0,0,1.73-.57,3.11,3.11,0,0,0,.86-1.54h1a4,4,0,0,1-1.18,2.18,3.49,3.49,0,0,1-2.42.76,3.86,3.86,0,0,1-1.69-.34,3.15,3.15,0,0,1-1.16-.94,4,4,0,0,1-.66-1.4,6,6,0,0,1-.22-1.67,5.83,5.83,0,0,1,.22-1.6,4.2,4.2,0,0,1,.66-1.4,3.38,3.38,0,0,1,1.16-1,3.6,3.6,0,0,1,1.69-.38,3.47,3.47,0,0,1,1.7.4,3.39,3.39,0,0,1,1.14,1.05,4.44,4.44,0,0,1,.63,1.49,6.5,6.5,0,0,1,.16,1.7h-6.35A4.5,4.5,0,0,0,533.43,345.31Zm5-3.08a2.83,2.83,0,0,0-.52-.93,2.48,2.48,0,0,0-.81-.66,2.52,2.52,0,0,0-2.19,0,2.52,2.52,0,0,0-.82.66,3.45,3.45,0,0,0-.54.94,4.64,4.64,0,0,0-.26,1.1h5.34A3.41,3.41,0,0,0,538.42,342.23Z" transform="translate(-362.32 -244.07)"/><path class="cls-6" d="M546.05,340.92a2.23,2.23,0,0,0-1.57-.53,2.45,2.45,0,0,0-1.26.31,2.7,2.7,0,0,0-.91.8,3.53,3.53,0,0,0-.54,1.12,4.8,4.8,0,0,0-.19,1.29,4.68,4.68,0,0,0,.19,1.29,3.58,3.58,0,0,0,.54,1.13,2.7,2.7,0,0,0,.91.8,2.55,2.55,0,0,0,1.26.3,2.38,2.38,0,0,0,.88-.17,2.45,2.45,0,0,0,.74-.49,2.51,2.51,0,0,0,.52-.75,2.62,2.62,0,0,0,.26-.94h1a3.8,3.8,0,0,1-1.11,2.34,3.21,3.21,0,0,1-2.3.84,3.83,3.83,0,0,1-1.67-.34,3.48,3.48,0,0,1-1.23-.94,4,4,0,0,1-.75-1.38,5.84,5.84,0,0,1,0-3.38,4.19,4.19,0,0,1,.75-1.38,3.6,3.6,0,0,1,1.23-.94,3.7,3.7,0,0,1,1.67-.36,3.6,3.6,0,0,1,2.25.71,3,3,0,0,1,1.09,2.13h-1A2.81,2.81,0,0,0,546.05,340.92Z" transform="translate(-362.32 -244.07)"/><path class="cls-6" d="M552.58,339.78v.85H550.9v5.57a1.86,1.86,0,0,0,.13.78c.09.18.32.29.68.31a8.46,8.46,0,0,0,.87-.05v.85h-.45a3.39,3.39,0,0,1-.45,0,1.48,1.48,0,0,1-1.79-1.84v-5.65h-1.44v-.85h1.44V337.3h1v2.48Z" transform="translate(-362.32 -244.07)"/><path class="cls-6" d="M558.78,341.39a1.53,1.53,0,0,0-.47-.57,2.13,2.13,0,0,0-.68-.32,3,3,0,0,0-.81-.11,3.92,3.92,0,0,0-.68.07,2.35,2.35,0,0,0-.64.24,1.49,1.49,0,0,0-.46.44,1.23,1.23,0,0,0-.18.68.93.93,0,0,0,.17.56,1.5,1.5,0,0,0,.43.4,2.89,2.89,0,0,0,.56.26,5.7,5.7,0,0,0,.56.17l1.34.3a4.57,4.57,0,0,1,.86.23,3.08,3.08,0,0,1,.75.44,2.08,2.08,0,0,1,.53.68,2,2,0,0,1,.21.94,2.06,2.06,0,0,1-.3,1.14,2.3,2.3,0,0,1-.78.77,3.33,3.33,0,0,1-1.06.43,6,6,0,0,1-1.17.12,3.78,3.78,0,0,1-2.36-.68,2.93,2.93,0,0,1-1-2.21h1a2,2,0,0,0,.74,1.54,2.68,2.68,0,0,0,1.69.52,3.39,3.39,0,0,0,.76-.08,2.38,2.38,0,0,0,.73-.27,1.85,1.85,0,0,0,.55-.49,1.21,1.21,0,0,0,.21-.73,1.15,1.15,0,0,0-.15-.61,1.18,1.18,0,0,0-.41-.42,2.84,2.84,0,0,0-.58-.28c-.22-.07-.44-.14-.66-.19l-1.3-.29a7,7,0,0,1-.91-.29,3,3,0,0,1-.73-.42,1.72,1.72,0,0,1-.49-.61,2.28,2.28,0,0,1,.11-2,2.16,2.16,0,0,1,.72-.72,3.67,3.67,0,0,1,1-.4,5.24,5.24,0,0,1,1.1-.13,4.28,4.28,0,0,1,1.16.16,2.74,2.74,0,0,1,.94.5,2.31,2.31,0,0,1,.65.83,3,3,0,0,1,.27,1.17h-1A1.86,1.86,0,0,0,558.78,341.39Z" transform="translate(-362.32 -244.07)"/><path class="cls-6" d="M562.32,346.34h1.34V348h-1.34Z" transform="translate(-362.32 -244.07)"/></g></svg>