<svg xmlns="http://www.w3.org/2000/svg" viewBox="0 0 188.3 143.48"><defs><style>.cls-1,.cls-6{fill:#007681;}.cls-1{opacity:0.6;}.cls-2{fill:#e6eff3;stroke:#279989;stroke-miterlimit:10;}.cls-3{opacity:0.2;}.cls-4{fill:#279989;}.cls-5{fill:#f2f2f2;}</style></defs><g id="Layer_19" data-name="Layer 19"><path class="cls-1" d="M195.18,357.83,21,351.54c-2.9-.1-5.18-3.69-5.1-8l1.88-106.21c.07-4.1,2.42-7.39,5.24-7.35l169.42,2.33c3,.05,5.52,3.51,5.61,7.75L200.59,350C200.69,354.41,198.27,358,195.18,357.83Z" transform="translate(-12.29 -229.49)"/><rect class="cls-2" x="0.5" y="0.5" width="183.76" height="120.23" rx="6.62"/><g class="cls-3"><polygon points="107.95 142.72 98.38 126.16 107.95 109.58 127.08 109.58 136.65 126.16 127.08 142.72 107.95 142.72"/><path d="M138.94,339.82l9.14,15.82-9.14,15.82H120.67l-9.13-15.82,9.13-15.82h18.27m.87-1.5h-20l-10,17.32,10,17.32h20l10-17.32-10-17.32Z" transform="translate(-12.29 -229.49)"/></g><polygon class="cls-4" points="105.95 140.72 96.38 124.16 105.95 107.58 125.08 107.58 134.65 124.16 125.08 140.72 105.95 140.72"/><path class="cls-5" d="M136.94,337.82l9.14,15.82-9.14,15.82H118.67l-9.13-15.82,9.13-15.82h18.27m.87-1.5h-20l-10,17.32,10,17.32h20l10-17.32-10-17.32Z" transform="translate(-12.29 -229.49)"/><path class="cls-5" d="M126,360.44a1.53,1.53,0,0,0,1.55.81,2.09,2.09,0,0,0,1-.22,1.57,1.57,0,0,0,.59-.61,2.32,2.32,0,0,0,.28-.91,9.73,9.73,0,0,0,.06-1.1,6.81,6.81,0,0,0-.09-1.13,2.66,2.66,0,0,0-.33-1,1.81,1.81,0,0,0-.7-.67,2.43,2.43,0,0,0-1.2-.25H126v-2.34h1.17a1.8,1.8,0,0,0,1-.24,1.84,1.84,0,0,0,.62-.62,2.72,2.72,0,0,0,.35-.89,5,5,0,0,0,.11-1,2.94,2.94,0,0,0-.42-1.8,1.57,1.57,0,0,0-1.3-.52,1.83,1.83,0,0,0-.93.21,1.41,1.41,0,0,0-.56.6,2.7,2.7,0,0,0-.26.91,10,10,0,0,0-.07,1.14h-3.28a5.26,5.26,0,0,1,1.32-3.92,5.33,5.33,0,0,1,3.86-1.28,5.7,5.7,0,0,1,3.75,1.1,4.2,4.2,0,0,1,1.33,3.43,4.47,4.47,0,0,1-.71,2.61,3.11,3.11,0,0,1-2,1.28v.05a3.32,3.32,0,0,1,2.43,1.38,5.1,5.1,0,0,1,.71,2.78,7.92,7.92,0,0,1-.23,1.84,4.13,4.13,0,0,1-.87,1.72,4.52,4.52,0,0,1-1.78,1.25,8,8,0,0,1-3,.47,4.91,4.91,0,0,1-3.83-1.4,5.66,5.66,0,0,1-1.27-4v-.07h3.43A5.84,5.84,0,0,0,126,360.44Z" transform="translate(-12.29 -229.49)"/><path class="cls-6" d="M22.58,242.52h0l2.91-4.58H28l-3.11,4.9,3.46,6.53H25.78l-2.35-4.69L22.58,246v3.4H20.27V237.94h2.31Z" transform="translate(-12.29 -229.49)"/><path class="cls-6" d="M30.69,246.09a4.52,4.52,0,0,0,.06.74,2.08,2.08,0,0,0,.18.64,1.12,1.12,0,0,0,.34.45.77.77,0,0,0,.51.17.9.9,0,0,0,.81-.4,3,3,0,0,0,.35-1.22h2a3.44,3.44,0,0,1-.8,2.29,3.07,3.07,0,0,1-2.32.78,3.61,3.61,0,0,1-1.87-.4,2.52,2.52,0,0,1-1-1,4.3,4.3,0,0,1-.39-1.48c-.05-.54-.07-1.08-.07-1.63a11.18,11.18,0,0,1,.12-1.66,4.09,4.09,0,0,1,.48-1.43,2.73,2.73,0,0,1,1-1,3.81,3.81,0,0,1,1.79-.37,3.47,3.47,0,0,1,1.58.32,2.36,2.36,0,0,1,1,.88,3.82,3.82,0,0,1,.48,1.37,12.27,12.27,0,0,1,.13,1.8v.5H30.69Zm2.19-2.88a2.21,2.21,0,0,0-.17-.64,1,1,0,0,0-.33-.4,1.06,1.06,0,0,0-.56-.13,1,1,0,0,0-.55.15,1.1,1.1,0,0,0-.34.4,1.69,1.69,0,0,0-.18.55,3.23,3.23,0,0,0-.06.61v.34h2.25C32.93,243.76,32.91,243.47,32.88,243.21Z" transform="translate(-12.29 -229.49)"/><path class="cls-6" d="M38.1,246.09a6,6,0,0,0,0,.74,2.4,2.4,0,0,0,.19.64,1.1,1.1,0,0,0,.33.45.81.81,0,0,0,.52.17.9.9,0,0,0,.81-.4,3,3,0,0,0,.35-1.22h2a3.5,3.5,0,0,1-.8,2.29,3.07,3.07,0,0,1-2.32.78,3.61,3.61,0,0,1-1.87-.4,2.52,2.52,0,0,1-1-1,4.3,4.3,0,0,1-.39-1.48c-.05-.54-.07-1.08-.07-1.63a11.18,11.18,0,0,1,.12-1.66,4.09,4.09,0,0,1,.48-1.43,2.66,2.66,0,0,1,1-1,3.81,3.81,0,0,1,1.79-.37,3.47,3.47,0,0,1,1.58.32,2.36,2.36,0,0,1,1,.88,3.82,3.82,0,0,1,.48,1.37,12.27,12.27,0,0,1,.13,1.8v.5H38.1Zm2.19-2.88a2.21,2.21,0,0,0-.17-.64,1,1,0,0,0-.33-.4,1.06,1.06,0,0,0-.56-.13,1,1,0,0,0-.55.15,1.1,1.1,0,0,0-.34.4,2,2,0,0,0-.19.55,4.3,4.3,0,0,0,0,.61v.34h2.25C40.34,243.76,40.32,243.47,40.29,243.21Z" transform="translate(-12.29 -229.49)"/><path class="cls-6" d="M45.73,240.76v.91h0a2.41,2.41,0,0,1,.83-.87,2.42,2.42,0,0,1,3.12.8,7,7,0,0,1,.64,3.46,6.83,6.83,0,0,1-.64,3.44,2.16,2.16,0,0,1-2,1,2,2,0,0,1-1.85-1h0v3.56H43.62V240.76Zm.31,6.42a.91.91,0,0,0,1,.71.9.9,0,0,0,.94-.71,10.32,10.32,0,0,0,0-4.24.91.91,0,0,0-.94-.71.92.92,0,0,0-1,.71,10.81,10.81,0,0,0,0,4.24Z" transform="translate(-12.29 -229.49)"/><path class="cls-6" d="M53.91,237.81v1.89H51.7v-1.89Zm0,2.95v8.61H51.7v-8.61Z" transform="translate(-12.29 -229.49)"/><path class="cls-6" d="M57.57,240.76v1h0a2.3,2.3,0,0,1,.91-.94,2.69,2.69,0,0,1,1.28-.3,2.2,2.2,0,0,1,1.63.58A2.58,2.58,0,0,1,62,243v6.39H59.78v-5.94a1.48,1.48,0,0,0-.23-.94.92.92,0,0,0-.72-.26c-.78,0-1.16.48-1.16,1.42v5.72H55.46v-8.61Z" transform="translate(-12.29 -229.49)"/><path class="cls-6" d="M69.91,248.93a3.41,3.41,0,0,1-.83,2.5,3.77,3.77,0,0,1-2.76.83,3.44,3.44,0,0,1-2.17-.6,2.06,2.06,0,0,1-.76-1.7h2.12a.75.75,0,0,0,.33.65,1.16,1.16,0,0,0,.35.18,1.23,1.23,0,0,0,.39.06,1,1,0,0,0,.94-.43,2,2,0,0,0,.27-1.07v-1.14h0a2.61,2.61,0,0,1-.82.77,2,2,0,0,1-1,.29,2.2,2.2,0,0,1-2-1,6.23,6.23,0,0,1-.67-3.35,13.65,13.65,0,0,1,.09-1.54,4.71,4.71,0,0,1,.37-1.41,2.6,2.6,0,0,1,.81-1,2.41,2.41,0,0,1,1.44-.4,2.17,2.17,0,0,1,1,.26,1.89,1.89,0,0,1,.81.93h0v-1h2.12Zm-4.38-2.75a2.75,2.75,0,0,0,.16.71,1.14,1.14,0,0,0,.34.5.84.84,0,0,0,.56.18.94.94,0,0,0,.59-.18,1.39,1.39,0,0,0,.37-.5,3.18,3.18,0,0,0,.19-.78c0-.3.05-.64.05-1a7.15,7.15,0,0,0-.24-2.22.91.91,0,0,0-.91-.66,1,1,0,0,0-.59.16,1,1,0,0,0-.35.52,3.61,3.61,0,0,0-.17,1c0,.4,0,.89,0,1.46A7.58,7.58,0,0,0,65.53,246.18Z" transform="translate(-12.29 -229.49)"/><path class="cls-6" d="M75.28,243.19a3,3,0,0,1,.24-1.26,2.26,2.26,0,0,1,.65-.81,2.51,2.51,0,0,1,1-.45,5,5,0,0,1,1.18-.14,5.38,5.38,0,0,1,1.6.2,2.2,2.2,0,0,1,.94.54,1.93,1.93,0,0,1,.46.84,4.48,4.48,0,0,1,.11,1.06v4.53a5.79,5.79,0,0,0,.06,1,3.42,3.42,0,0,0,.22.72H79.58a1.79,1.79,0,0,1-.16-.44c0-.16-.07-.31-.11-.46h0a1.85,1.85,0,0,1-.89.87,3.41,3.41,0,0,1-1.3.2,2.12,2.12,0,0,1-1-.2,1.63,1.63,0,0,1-.64-.55,2.57,2.57,0,0,1-.35-.79,3.77,3.77,0,0,1-.11-.87,3.58,3.58,0,0,1,.13-1,1.85,1.85,0,0,1,.39-.75,2.19,2.19,0,0,1,.67-.52,5.3,5.3,0,0,1,1-.37l1.24-.34a1.31,1.31,0,0,0,.69-.35,1,1,0,0,0,.19-.66,1.14,1.14,0,0,0-.23-.77,1.19,1.19,0,0,0-1.56,0,1.25,1.25,0,0,0-.25.82v.24h-2Zm3.55,2.15a2.71,2.71,0,0,1-.46.15,1.73,1.73,0,0,0-1,.48,1.39,1.39,0,0,0-.29.92,1.8,1.8,0,0,0,.19.84.67.67,0,0,0,.64.36,1.6,1.6,0,0,0,.47-.08,1.17,1.17,0,0,0,.44-.23,1.24,1.24,0,0,0,.33-.41,1.44,1.44,0,0,0,.12-.61v-1.7A1.94,1.94,0,0,1,78.83,245.34Z" transform="translate(-12.29 -229.49)"/><path class="cls-6" d="M89.52,238.29v2.47H90.8v1.5H89.52v4.66a1.35,1.35,0,0,0,.15.73.74.74,0,0,0,.63.21h.26l.24,0v1.54c-.24,0-.48,0-.71,0s-.47,0-.73,0a5.09,5.09,0,0,1-1-.08,1,1,0,0,1-.62-.36,1.46,1.46,0,0,1-.3-.69,6.49,6.49,0,0,1-.08-1.09v-4.93H86.19v-1.5h1.12v-2.47Z" transform="translate(-12.29 -229.49)"/><path class="cls-6" d="M93.68,240.76v1.15h0a3.17,3.17,0,0,1,.82-1,1.85,1.85,0,0,1,1.17-.38h.2l.2,0v2.11l-.35,0h-.34a1.93,1.93,0,0,0-.58.08,1.54,1.54,0,0,0-.53.26,1.31,1.31,0,0,0-.38.48,1.61,1.61,0,0,0-.14.73v5.17H91.57v-8.61Z" transform="translate(-12.29 -229.49)"/><path class="cls-6" d="M96.88,243.19a3,3,0,0,1,.24-1.26,2.26,2.26,0,0,1,.65-.81,2.51,2.51,0,0,1,1-.45,4.93,4.93,0,0,1,1.17-.14,5.29,5.29,0,0,1,1.6.2,2.18,2.18,0,0,1,1,.54,1.91,1.91,0,0,1,.45.84,4.47,4.47,0,0,1,.12,1.06v4.53a5.79,5.79,0,0,0,.06,1,3.42,3.42,0,0,0,.22.72h-2.12a1.79,1.79,0,0,1-.16-.44c0-.16-.08-.31-.11-.46h0a1.85,1.85,0,0,1-.89.87,3.41,3.41,0,0,1-1.3.2,2.09,2.09,0,0,1-1-.2,1.63,1.63,0,0,1-.64-.55,2.35,2.35,0,0,1-.35-.79,3.77,3.77,0,0,1-.11-.87,3.58,3.58,0,0,1,.13-1,1.85,1.85,0,0,1,.39-.75,2.08,2.08,0,0,1,.67-.52,5.45,5.45,0,0,1,1-.37l1.25-.34a1.31,1.31,0,0,0,.69-.35,1,1,0,0,0,.19-.66,1.2,1.2,0,0,0-.23-.77,1.19,1.19,0,0,0-1.56,0,1.26,1.26,0,0,0-.26.82v.24h-2Zm3.55,2.15a2.71,2.71,0,0,1-.46.15,1.73,1.73,0,0,0-1,.48,1.39,1.39,0,0,0-.29.92,1.68,1.68,0,0,0,.19.84.67.67,0,0,0,.64.36A1.6,1.6,0,0,0,100,248a1.17,1.17,0,0,0,.44-.23,1.11,1.11,0,0,0,.32-.41,1.31,1.31,0,0,0,.13-.61v-1.7A1.94,1.94,0,0,1,100.43,245.34Z" transform="translate(-12.29 -229.49)"/><path class="cls-6" d="M108.7,243.24a2.21,2.21,0,0,0-.15-.55,1,1,0,0,0-.29-.4.83.83,0,0,0-.52-.16,1,1,0,0,0-1,.73,4,4,0,0,0-.17.91c0,.37,0,.81,0,1.31s0,1,0,1.37a4,4,0,0,0,.17.93,1.11,1.11,0,0,0,.36.54,1,1,0,0,0,.6.17.86.86,0,0,0,.82-.48,3.47,3.47,0,0,0,.26-1.54h2.11a3.89,3.89,0,0,1-.76,2.58,3.14,3.14,0,0,1-2.52.89,4.5,4.5,0,0,1-1.45-.2,2,2,0,0,1-1-.72,3.44,3.44,0,0,1-.62-1.39,9.42,9.42,0,0,1-.21-2.17,8,8,0,0,1,.26-2.2,3.58,3.58,0,0,1,.72-1.39,2.51,2.51,0,0,1,1.1-.73,4.53,4.53,0,0,1,1.41-.21,2.88,2.88,0,0,1,2.31.9,3.58,3.58,0,0,1,.78,2.43h-2.11C108.74,243.65,108.72,243.44,108.7,243.24Z" transform="translate(-12.29 -229.49)"/><path class="cls-6" d="M114.29,244h0l2.22-3.21H119l-2.48,3.39,2.84,5.22h-2.43l-1.84-3.54-.78,1v2.52h-2.21V237.94h2.21Z" transform="translate(-12.29 -229.49)"/><path class="cls-6" d="M28.45,253.94v.93h-4v10.5H23.38v-10.5h-4v-.93Z" transform="translate(-12.29 -229.49)"/><path class="cls-6" d="M30.32,253.94v4.59h0a2.4,2.4,0,0,1,1-1.2,3,3,0,0,1,1.61-.46,4.3,4.3,0,0,1,1.45.22,2.2,2.2,0,0,1,1.43,1.64,5.32,5.32,0,0,1,.15,1.32v5.32H35v-5.16a4.34,4.34,0,0,0-.1-1,2,2,0,0,0-.33-.79,1.62,1.62,0,0,0-.65-.53,2.35,2.35,0,0,0-1-.19,2.67,2.67,0,0,0-1.08.21,2.51,2.51,0,0,0-.8.6,2.69,2.69,0,0,0-.51.89,3.77,3.77,0,0,0-.2,1.13v4.82h-1V253.94Z" transform="translate(-12.29 -229.49)"/><path class="cls-6" d="M38.67,262.64a3.15,3.15,0,0,0,.48,1.05,2.82,2.82,0,0,0,.85.76,2.29,2.29,0,0,0,1.23.31,2.43,2.43,0,0,0,1.73-.58,2.89,2.89,0,0,0,.86-1.53h1a4,4,0,0,1-1.17,2.17,3.52,3.52,0,0,1-2.43.77,3.86,3.86,0,0,1-1.69-.34,3.18,3.18,0,0,1-1.16-.95,4.16,4.16,0,0,1-.66-1.39,6.48,6.48,0,0,1-.22-1.67,6.12,6.12,0,0,1,.22-1.6,4.41,4.41,0,0,1,.66-1.4,3.38,3.38,0,0,1,1.16-1,3.6,3.6,0,0,1,1.69-.38,3.25,3.25,0,0,1,2.84,1.45,4.26,4.26,0,0,1,.64,1.49,6.45,6.45,0,0,1,.15,1.7H38.51A4.16,4.16,0,0,0,38.67,262.64Zm5-3.08a3.3,3.3,0,0,0-.52-.94,2.59,2.59,0,0,0-.82-.65,2.28,2.28,0,0,0-1.09-.25,2.32,2.32,0,0,0-1.1.25,2.59,2.59,0,0,0-.82.65,3.24,3.24,0,0,0-.53.95,4.58,4.58,0,0,0-.27,1.09h5.35A3.69,3.69,0,0,0,43.66,259.56Z" transform="translate(-12.29 -229.49)"/><path class="cls-6" d="M51,258.72a1.75,1.75,0,0,0-.47-.57,2,2,0,0,0-.68-.33,3.12,3.12,0,0,0-.82-.1,3.21,3.21,0,0,0-.68.07,2.17,2.17,0,0,0-.63.24,1.41,1.41,0,0,0-.47.44,1.28,1.28,0,0,0-.17.67.88.88,0,0,0,.17.57,1.31,1.31,0,0,0,.42.39,2.63,2.63,0,0,0,.56.27,5.48,5.48,0,0,0,.56.16l1.34.31a3.78,3.78,0,0,1,.86.23,2.79,2.79,0,0,1,.75.44,2.22,2.22,0,0,1,.54.67,2,2,0,0,1,.21.95,2.09,2.09,0,0,1-.31,1.14,2.46,2.46,0,0,1-.77.77,3.15,3.15,0,0,1-1.07.42,5.18,5.18,0,0,1-1.17.13,3.8,3.8,0,0,1-2.36-.69,3,3,0,0,1-1-2.21h1a2,2,0,0,0,.74,1.55,2.7,2.7,0,0,0,1.69.52,4,4,0,0,0,.76-.08,2.55,2.55,0,0,0,.73-.27,1.73,1.73,0,0,0,.55-.49,1.17,1.17,0,0,0,.22-.73,1.21,1.21,0,0,0-.15-.62,1.46,1.46,0,0,0-.41-.41,2.48,2.48,0,0,0-.59-.28,5.46,5.46,0,0,0-.66-.19l-1.3-.29a8.83,8.83,0,0,1-.91-.3,3,3,0,0,1-.73-.41,1.78,1.78,0,0,1-.48-.61,2,2,0,0,1-.18-.89,1.94,1.94,0,0,1,.28-1.07,2.18,2.18,0,0,1,.73-.72,3.27,3.27,0,0,1,1-.4,4.57,4.57,0,0,1,1.09-.13,3.87,3.87,0,0,1,1.16.16,2.62,2.62,0,0,1,.95.5,2.43,2.43,0,0,1,.65.83,3.15,3.15,0,0,1,.27,1.17h-1A2,2,0,0,0,51,258.72Z" transform="translate(-12.29 -229.49)"/><path class="cls-6" d="M54.67,262.64a3.15,3.15,0,0,0,.48,1.05,2.82,2.82,0,0,0,.85.76,2.29,2.29,0,0,0,1.23.31,2.43,2.43,0,0,0,1.73-.58,2.89,2.89,0,0,0,.86-1.53h1a4,4,0,0,1-1.17,2.17,3.52,3.52,0,0,1-2.43.77,3.86,3.86,0,0,1-1.69-.34,3.18,3.18,0,0,1-1.16-.95,4.16,4.16,0,0,1-.66-1.39,6.48,6.48,0,0,1-.22-1.67,6.12,6.12,0,0,1,.22-1.6,4.41,4.41,0,0,1,.66-1.4,3.38,3.38,0,0,1,1.16-1,3.6,3.6,0,0,1,1.69-.38,3.25,3.25,0,0,1,2.84,1.45,4.26,4.26,0,0,1,.64,1.49,6.45,6.45,0,0,1,.15,1.7H54.51A4.16,4.16,0,0,0,54.67,262.64Zm5-3.08a3.3,3.3,0,0,0-.52-.94,2.59,2.59,0,0,0-.82-.65,2.28,2.28,0,0,0-1.09-.25,2.32,2.32,0,0,0-1.1.25,2.59,2.59,0,0,0-.82.65,3.24,3.24,0,0,0-.53.95,4.58,4.58,0,0,0-.27,1.09h5.35A3.69,3.69,0,0,0,59.66,259.56Z" transform="translate(-12.29 -229.49)"/><path class="cls-6" d="M67.68,253.94v4.74h0a2.49,2.49,0,0,1,.46-.79,2.82,2.82,0,0,1,.68-.56,3,3,0,0,1,.83-.35,4,4,0,0,1,.9-.11,3.67,3.67,0,0,1,1.64.35,3.47,3.47,0,0,1,1.16.95,4.08,4.08,0,0,1,.69,1.4,6.45,6.45,0,0,1,0,3.34,4,4,0,0,1-.69,1.39,3.35,3.35,0,0,1-1.16.95,3.67,3.67,0,0,1-1.64.34,3.5,3.5,0,0,1-1.8-.46,2.72,2.72,0,0,1-1.15-1.33h0v1.57h-.93V253.94Zm5.45,6a3.48,3.48,0,0,0-.48-1.13,2.71,2.71,0,0,0-.84-.81,2.29,2.29,0,0,0-1.23-.31,2.64,2.64,0,0,0-1.35.31,2.71,2.71,0,0,0-.9.81,3.31,3.31,0,0,0-.5,1.13,5.45,5.45,0,0,0,0,2.54,3.31,3.31,0,0,0,.5,1.13,2.71,2.71,0,0,0,.9.81,2.75,2.75,0,0,0,1.35.31,2.39,2.39,0,0,0,1.23-.31,2.71,2.71,0,0,0,.84-.81,3.48,3.48,0,0,0,.48-1.13,5.45,5.45,0,0,0,0-2.54Z" transform="translate(-12.29 -229.49)"/><path class="cls-6" d="M76.88,253.94v1.62h-1v-1.62Zm0,3.17v8.26h-1v-8.26Z" transform="translate(-12.29 -229.49)"/><path class="cls-6" d="M82.1,257.11V258H80.42v5.57a1.78,1.78,0,0,0,.13.77c.09.19.32.29.68.31a8.44,8.44,0,0,0,.87,0v.84l-.45,0-.45,0a2,2,0,0,1-1.41-.4,2,2,0,0,1-.38-1.44V258H78v-.85h1.44v-2.48h1v2.48Z" transform="translate(-12.29 -229.49)"/><path class="cls-6" d="M84.3,262.64a3.15,3.15,0,0,0,.48,1.05,2.82,2.82,0,0,0,.85.76,2.29,2.29,0,0,0,1.23.31,2.41,2.41,0,0,0,1.73-.58,3,3,0,0,0,.87-1.53h1a4,4,0,0,1-1.17,2.17,3.52,3.52,0,0,1-2.43.77,3.79,3.79,0,0,1-1.68-.34A3.1,3.1,0,0,1,84,264.3a4.18,4.18,0,0,1-.67-1.39,6.48,6.48,0,0,1-.21-1.67,6.11,6.11,0,0,1,.21-1.6,4.43,4.43,0,0,1,.67-1.4,3.29,3.29,0,0,1,1.16-1,3.53,3.53,0,0,1,1.68-.38,3.34,3.34,0,0,1,1.7.4,3.39,3.39,0,0,1,1.14,1.05,4.26,4.26,0,0,1,.64,1.49,6.91,6.91,0,0,1,.16,1.7H84.14A4.59,4.59,0,0,0,84.3,262.64Zm5-3.08a3.07,3.07,0,0,0-.52-.94A2.59,2.59,0,0,0,88,258a2.28,2.28,0,0,0-1.09-.25,2.32,2.32,0,0,0-1.1.25,2.59,2.59,0,0,0-.82.65,3.24,3.24,0,0,0-.53.95,5.11,5.11,0,0,0-.27,1.09h5.35A3.69,3.69,0,0,0,89.29,259.56Z" transform="translate(-12.29 -229.49)"/><path class="cls-6" d="M91.86,260.5h4v.93h-4Z" transform="translate(-12.29 -229.49)"/><path class="cls-6" d="M102.53,258.72a1.75,1.75,0,0,0-.47-.57,2,2,0,0,0-.68-.33,3.12,3.12,0,0,0-.82-.1,3.21,3.21,0,0,0-.68.07,2.17,2.17,0,0,0-.63.24,1.41,1.41,0,0,0-.47.44,1.28,1.28,0,0,0-.17.67.94.94,0,0,0,.17.57,1.31,1.31,0,0,0,.42.39,2.63,2.63,0,0,0,.56.27,5.48,5.48,0,0,0,.56.16l1.35.31a3.84,3.84,0,0,1,.85.23,2.79,2.79,0,0,1,.75.44,2.22,2.22,0,0,1,.54.67,2.25,2.25,0,0,1-.1,2.09,2.46,2.46,0,0,1-.77.77,3.15,3.15,0,0,1-1.07.42,5.16,5.16,0,0,1-1.16.13,3.81,3.81,0,0,1-2.37-.69,3,3,0,0,1-1-2.21h1a2,2,0,0,0,.74,1.55,2.7,2.7,0,0,0,1.69.52,4,4,0,0,0,.76-.08,2.55,2.55,0,0,0,.73-.27,1.73,1.73,0,0,0,.55-.49,1.17,1.17,0,0,0,.22-.73,1.21,1.21,0,0,0-.15-.62,1.34,1.34,0,0,0-.41-.41,2.48,2.48,0,0,0-.59-.28,5,5,0,0,0-.66-.19l-1.3-.29a8.83,8.83,0,0,1-.91-.3,2.94,2.94,0,0,1-.72-.41,1.7,1.7,0,0,1-.49-.61,2,2,0,0,1-.18-.89,1.94,1.94,0,0,1,.28-1.07,2.18,2.18,0,0,1,.73-.72,3.27,3.27,0,0,1,1-.4,4.59,4.59,0,0,1,1.1-.13,3.85,3.85,0,0,1,1.15.16,2.62,2.62,0,0,1,1,.5,2.43,2.43,0,0,1,.65.83,3,3,0,0,1,.27,1.17h-1A1.86,1.86,0,0,0,102.53,258.72Z" transform="translate(-12.29 -229.49)"/><path class="cls-6" d="M106.5,253.94v1.62h-1v-1.62Zm0,3.17v8.26h-1v-8.26Z" transform="translate(-12.29 -229.49)"/><path class="cls-6" d="M114.61,264.52v.85h-6.9v-.82L113.1,258h-5v-.85h6.3v.72l-5.45,6.69Z" transform="translate(-12.29 -229.49)"/><path class="cls-6" d="M116.58,262.64a3.38,3.38,0,0,0,.49,1.05,2.82,2.82,0,0,0,.85.76,2.29,2.29,0,0,0,1.23.31,2.43,2.43,0,0,0,1.73-.58,3,3,0,0,0,.86-1.53h1a4,4,0,0,1-1.17,2.17,3.52,3.52,0,0,1-2.43.77,3.86,3.86,0,0,1-1.69-.34,3.18,3.18,0,0,1-1.16-.95,4.16,4.16,0,0,1-.66-1.39,6.48,6.48,0,0,1-.22-1.67,6.12,6.12,0,0,1,.22-1.6,4.41,4.41,0,0,1,.66-1.4,3.38,3.38,0,0,1,1.16-1,3.6,3.6,0,0,1,1.69-.38,3.25,3.25,0,0,1,2.84,1.45,4.07,4.07,0,0,1,.63,1.49,6.06,6.06,0,0,1,.16,1.7h-6.35A4.56,4.56,0,0,0,116.58,262.64Zm5-3.08a3.3,3.3,0,0,0-.52-.94,2.59,2.59,0,0,0-.82-.65,2.28,2.28,0,0,0-1.09-.25,2.32,2.32,0,0,0-1.1.25,2.59,2.59,0,0,0-.82.65,3.24,3.24,0,0,0-.53.95,4.58,4.58,0,0,0-.27,1.09h5.35A3.69,3.69,0,0,0,121.58,259.56Z" transform="translate(-12.29 -229.49)"/><path class="cls-6" d="M130.48,265.37V263.8h0a2.46,2.46,0,0,1-.47.73,2.83,2.83,0,0,1-.72.57,3.57,3.57,0,0,1-1.76.49,3.67,3.67,0,0,1-1.64-.34,3.35,3.35,0,0,1-1.16-.95,4,4,0,0,1-.68-1.39,6.18,6.18,0,0,1,0-3.34,4.06,4.06,0,0,1,.68-1.4,3.47,3.47,0,0,1,1.16-.95,3.67,3.67,0,0,1,1.64-.35,4,4,0,0,1,.91.11,3,3,0,0,1,.82.35,2.82,2.82,0,0,1,.68.56,2.49,2.49,0,0,1,.46.79h0v-4.74h1v11.43ZM125,262.51a3.48,3.48,0,0,0,.48,1.13,2.71,2.71,0,0,0,.84.81,2.39,2.39,0,0,0,1.23.31,2.82,2.82,0,0,0,1.36-.31,2.77,2.77,0,0,0,.89-.81,3.31,3.31,0,0,0,.5-1.13,5.45,5.45,0,0,0,0-2.54,3.31,3.31,0,0,0-.5-1.13,2.77,2.77,0,0,0-.89-.81,2.71,2.71,0,0,0-1.36-.31,2.29,2.29,0,0,0-1.23.31,2.71,2.71,0,0,0-.84.81A3.48,3.48,0,0,0,125,260a5.45,5.45,0,0,0,0,2.54Z" transform="translate(-12.29 -229.49)"/><path class="cls-6" d="M138.8,253.94v11.43h-1V253.94Z" transform="translate(-12.29 -229.49)"/><path class="cls-6" d="M141.48,262.64a3,3,0,0,0,.49,1.05,2.6,2.6,0,0,0,.85.76,2.29,2.29,0,0,0,1.23.31,2.45,2.45,0,0,0,1.73-.58,3,3,0,0,0,.86-1.53h1a4,4,0,0,1-1.18,2.17,3.51,3.51,0,0,1-2.42.77,3.83,3.83,0,0,1-1.69-.34,3.18,3.18,0,0,1-1.16-.95,4,4,0,0,1-.66-1.39,6.07,6.07,0,0,1-.22-1.67,5.72,5.72,0,0,1,.22-1.6,4.2,4.2,0,0,1,.66-1.4,3.38,3.38,0,0,1,1.16-1,3.57,3.57,0,0,1,1.69-.38,3.33,3.33,0,0,1,1.69.4,3.52,3.52,0,0,1,1.15,1.05,4.44,4.44,0,0,1,.63,1.49,6.46,6.46,0,0,1,.16,1.7h-6.35A4.56,4.56,0,0,0,141.48,262.64Zm5-3.08a2.87,2.87,0,0,0-.52-.94,2.45,2.45,0,0,0-.81-.65,2.3,2.3,0,0,0-1.09-.25,2.33,2.33,0,0,0-1.11.25,2.45,2.45,0,0,0-.81.65,3.26,3.26,0,0,0-.54.95,4.56,4.56,0,0,0-.26,1.09h5.34A3.69,3.69,0,0,0,146.47,259.56Z" transform="translate(-12.29 -229.49)"/><path class="cls-6" d="M149.25,258.39a2.35,2.35,0,0,1,.69-.86,3,3,0,0,1,1-.5,4.85,4.85,0,0,1,1.31-.16,6.8,6.8,0,0,1,1.09.1,2.53,2.53,0,0,1,1,.4,2.22,2.22,0,0,1,.71.8,3,3,0,0,1,.27,1.36v4.38c0,.41.19.61.59.61a.68.68,0,0,0,.32-.07v.85l-.31.05-.35,0a1.48,1.48,0,0,1-.61-.11.81.81,0,0,1-.36-.29,1.1,1.1,0,0,1-.17-.46,3.52,3.52,0,0,1,0-.58h0a8.78,8.78,0,0,1-.55.71,2.81,2.81,0,0,1-.63.52,3,3,0,0,1-.78.32,4.64,4.64,0,0,1-1,.11,3.81,3.81,0,0,1-1.08-.14,2.34,2.34,0,0,1-.88-.43,2,2,0,0,1-.59-.75,2.39,2.39,0,0,1-.22-1.08,2.09,2.09,0,0,1,.39-1.35,2.42,2.42,0,0,1,1-.75,5.87,5.87,0,0,1,1.43-.36l1.6-.2a3.76,3.76,0,0,0,.56-.08.91.91,0,0,0,.4-.16.76.76,0,0,0,.25-.33,1.4,1.4,0,0,0,.09-.55,1.87,1.87,0,0,0-.17-.84,1.44,1.44,0,0,0-.46-.52,2.11,2.11,0,0,0-.69-.26,4.46,4.46,0,0,0-.84-.07,2.58,2.58,0,0,0-1.57.45,1.82,1.82,0,0,0-.64,1.47h-1A3.53,3.53,0,0,1,149.25,258.39Zm5,2.46a.58.58,0,0,1-.37.26,4,4,0,0,1-.48.11c-.43.08-.87.14-1.32.2a7.1,7.1,0,0,0-1.24.27,2.33,2.33,0,0,0-.92.5,1.21,1.21,0,0,0-.36.94,1.51,1.51,0,0,0,.15.68,1.81,1.81,0,0,0,.41.51,2,2,0,0,0,.59.33,2.37,2.37,0,0,0,.69.11,3.38,3.38,0,0,0,1.1-.18,2.56,2.56,0,0,0,1.55-1.33,2.52,2.52,0,0,0,.23-1.08v-1.32Z" transform="translate(-12.29 -229.49)"/><path class="cls-6" d="M158.27,257.11v1.94h0a3.22,3.22,0,0,1,1.2-1.56,3.12,3.12,0,0,1,1.92-.49v1a3.08,3.08,0,0,0-1.24.18,2.65,2.65,0,0,0-1,.62,2.59,2.59,0,0,0-.63.95,3.18,3.18,0,0,0-.23,1.21v4.4h-1v-8.26Z" transform="translate(-12.29 -229.49)"/><path class="cls-6" d="M163.66,257.11v1.42h0a2.38,2.38,0,0,1,1-1.2,3,3,0,0,1,1.62-.46,4.28,4.28,0,0,1,1.44.22,2.28,2.28,0,0,1,.94.64,2.42,2.42,0,0,1,.5,1,5.87,5.87,0,0,1,.14,1.32v5.32h-1v-5.16a5,5,0,0,0-.09-1,2.18,2.18,0,0,0-.34-.79,1.62,1.62,0,0,0-.65-.53,2.33,2.33,0,0,0-1-.19,2.6,2.6,0,0,0-1.08.21,2.31,2.31,0,0,0-.8.6,2.9,2.9,0,0,0-.52.89,3.77,3.77,0,0,0-.2,1.13v4.82h-1v-8.26Z" transform="translate(-12.29 -229.49)"/><path class="cls-6" d="M172.29,253.94v1.62h-1v-1.62Zm0,3.17v8.26h-1v-8.26Z" transform="translate(-12.29 -229.49)"/><path class="cls-6" d="M175.22,257.11v1.42h0a2.38,2.38,0,0,1,1-1.2,3,3,0,0,1,1.62-.46,4.23,4.23,0,0,1,1.44.22,2.22,2.22,0,0,1,.94.64,2.3,2.3,0,0,1,.5,1,5.87,5.87,0,0,1,.14,1.32v5.32h-1v-5.16a5,5,0,0,0-.09-1,2.18,2.18,0,0,0-.34-.79,1.56,1.56,0,0,0-.65-.53,2.33,2.33,0,0,0-1-.19,2.6,2.6,0,0,0-1.08.21,2.41,2.41,0,0,0-.8.6,2.69,2.69,0,0,0-.51.89,3.48,3.48,0,0,0-.2,1.13v4.82h-1v-8.26Z" transform="translate(-12.29 -229.49)"/><path class="cls-6" d="M189.59,266.34a3.14,3.14,0,0,1-.63,1.25,2.79,2.79,0,0,1-1.13.78,4.48,4.48,0,0,1-1.7.28,5,5,0,0,1-1.22-.15,3.14,3.14,0,0,1-1.06-.45,2.64,2.64,0,0,1-.79-.77,2.29,2.29,0,0,1-.36-1.13h1a1.83,1.83,0,0,0,.31.78,2.06,2.06,0,0,0,.56.5,2.46,2.46,0,0,0,.73.28,3.75,3.75,0,0,0,.82.09,2.43,2.43,0,0,0,2-.8,3.65,3.65,0,0,0,.62-2.31v-1.12h0a2.91,2.91,0,0,1-1,1.24,2.75,2.75,0,0,1-1.59.46,4,4,0,0,1-1.7-.33,3.24,3.24,0,0,1-1.16-.9,3.87,3.87,0,0,1-.66-1.35,6.34,6.34,0,0,1-.21-1.66,5.07,5.07,0,0,1,.25-1.61,3.89,3.89,0,0,1,.72-1.33,3.37,3.37,0,0,1,1.17-.89,3.64,3.64,0,0,1,1.59-.33,2.73,2.73,0,0,1,.87.13,2.42,2.42,0,0,1,.74.36,2.78,2.78,0,0,1,.6.53,2.66,2.66,0,0,1,.41.64h0v-1.42h1v7.58A6.43,6.43,0,0,1,189.59,266.34Zm-2.31-2.2a2.53,2.53,0,0,0,.83-.73,3.4,3.4,0,0,0,.5-1.05,4.18,4.18,0,0,0,.17-1.22,5.55,5.55,0,0,0-.14-1.21,3.44,3.44,0,0,0-.47-1.11,2.51,2.51,0,0,0-.82-.8,2.32,2.32,0,0,0-1.22-.3,2.49,2.49,0,0,0-1.23.29,2.55,2.55,0,0,0-.85.78,3.14,3.14,0,0,0-.49,1.1,5.28,5.28,0,0,0-.15,1.25,4.54,4.54,0,0,0,.16,1.22,3.17,3.17,0,0,0,.49,1.05,2.6,2.6,0,0,0,.85.73,2.47,2.47,0,0,0,1.22.28A2.28,2.28,0,0,0,187.28,264.14Z" transform="translate(-12.29 -229.49)"/><path class="cls-6" d="M21.36,273.11v1.39h.05a3.16,3.16,0,0,1,1.05-1.2,2.89,2.89,0,0,1,1.65-.43,2.76,2.76,0,0,1,1.48.4,1.94,1.94,0,0,1,.89,1.22,2.56,2.56,0,0,1,1.09-1.22,3.07,3.07,0,0,1,1.53-.4c1.83,0,2.74,1,2.74,2.9v5.6h-1v-5.56a2.44,2.44,0,0,0-.43-1.56,1.87,1.87,0,0,0-1.52-.53,2.12,2.12,0,0,0-1.09.25,2,2,0,0,0-.69.66,2.7,2.7,0,0,0-.35.95,5.8,5.8,0,0,0-.11,1.11v4.68h-1v-5.6a3.5,3.5,0,0,0-.09-.8,1.73,1.73,0,0,0-.28-.65,1.38,1.38,0,0,0-.54-.44,1.8,1.8,0,0,0-.81-.16,2.6,2.6,0,0,0-1.12.23,2.19,2.19,0,0,0-.77.64,3,3,0,0,0-.44,1,5.09,5.09,0,0,0-.14,1.21v4.61h-1v-8.26Z" transform="translate(-12.29 -229.49)"/><path class="cls-6" d="M38.92,273.22a3.73,3.73,0,0,1,1.23.95,4,4,0,0,1,.75,1.38,5.84,5.84,0,0,1,0,3.38,4.09,4.09,0,0,1-.75,1.38,3.57,3.57,0,0,1-1.23.94,4.27,4.27,0,0,1-3.34,0,3.48,3.48,0,0,1-1.23-.94,4.09,4.09,0,0,1-.75-1.38,5.84,5.84,0,0,1,0-3.38,4,4,0,0,1,.75-1.38,3.63,3.63,0,0,1,1.23-.95,4.16,4.16,0,0,1,3.34,0ZM36,274a2.81,2.81,0,0,0-.91.8,3.58,3.58,0,0,0-.54,1.13,4.47,4.47,0,0,0,0,2.58,3.53,3.53,0,0,0,.54,1.12,2.6,2.6,0,0,0,.91.8,2.72,2.72,0,0,0,2.52,0,2.6,2.6,0,0,0,.91-.8,3.53,3.53,0,0,0,.54-1.12A4.47,4.47,0,0,0,40,276a3.58,3.58,0,0,0-.54-1.13,2.81,2.81,0,0,0-.91-.8A2.8,2.8,0,0,0,36,274Z" transform="translate(-12.29 -229.49)"/><path class="cls-6" d="M49,281.37V279.8h0a2.28,2.28,0,0,1-.47.73,3,3,0,0,1-.71.57,3.26,3.26,0,0,1-.86.36,3.11,3.11,0,0,1-.9.13,3.64,3.64,0,0,1-1.64-.34,3.26,3.26,0,0,1-1.16-.95,4,4,0,0,1-.69-1.39,6.45,6.45,0,0,1,0-3.34,4.08,4.08,0,0,1,.69-1.4,3.37,3.37,0,0,1,1.16-.95,3.64,3.64,0,0,1,1.64-.35,3.82,3.82,0,0,1,.9.11,3.18,3.18,0,0,1,.83.35,3,3,0,0,1,.68.56,2.66,2.66,0,0,1,.45.79h0v-4.74h1v11.43Zm-5.52-2.86a3.48,3.48,0,0,0,.48,1.13,2.51,2.51,0,0,0,.84.81,2.39,2.39,0,0,0,1.23.31,2.81,2.81,0,0,0,1.35-.31,2.71,2.71,0,0,0,.9-.81,3.49,3.49,0,0,0,.49-1.13,5.45,5.45,0,0,0,0-2.54,3.49,3.49,0,0,0-.49-1.13A2.59,2.59,0,0,0,46,273.72a2.29,2.29,0,0,0-1.23.31,2.51,2.51,0,0,0-.84.81,3.48,3.48,0,0,0-.48,1.13,5.12,5.12,0,0,0,0,2.54Z" transform="translate(-12.29 -229.49)"/><path class="cls-6" d="M57.6,281.37v-1.49h0a2.86,2.86,0,0,1-1.16,1.27,3.35,3.35,0,0,1-1.69.44,3.49,3.49,0,0,1-1.33-.22,2.15,2.15,0,0,1-.9-.61,2.4,2.4,0,0,1-.5-1,4.75,4.75,0,0,1-.16-1.31v-5.36h1v5.38a2.7,2.7,0,0,0,.52,1.69,2.6,2.6,0,0,0,2.81.3,2.4,2.4,0,0,0,.77-.75,3.39,3.39,0,0,0,.45-1.06,5.57,5.57,0,0,0,.14-1.22v-4.34h1v8.26Z" transform="translate(-12.29 -229.49)"/><path class="cls-6" d="M61.46,269.94v11.43h-1V269.94Z" transform="translate(-12.29 -229.49)"/><path class="cls-6" d="M64.14,278.64a3.15,3.15,0,0,0,.48,1.05,2.82,2.82,0,0,0,.85.76,2.33,2.33,0,0,0,1.24.31,2.4,2.4,0,0,0,1.72-.58,3,3,0,0,0,.87-1.53h1a4,4,0,0,1-1.18,2.17,3.51,3.51,0,0,1-2.42.77,3.8,3.8,0,0,1-1.69-.34,3.1,3.1,0,0,1-1.16-.95,4.18,4.18,0,0,1-.67-1.39,6.48,6.48,0,0,1-.21-1.67,6.11,6.11,0,0,1,.21-1.6,4.43,4.43,0,0,1,.67-1.4,3.29,3.29,0,0,1,1.16-1,3.54,3.54,0,0,1,1.69-.38,3.33,3.33,0,0,1,1.69.4,3.39,3.39,0,0,1,1.14,1.05,4.26,4.26,0,0,1,.64,1.49,6.46,6.46,0,0,1,.16,1.7H64A4.59,4.59,0,0,0,64.14,278.64Zm5-3.08a3.07,3.07,0,0,0-.52-.94,2.49,2.49,0,0,0-.82-.65,2.26,2.26,0,0,0-1.08-.25,2.33,2.33,0,0,0-1.11.25,2.45,2.45,0,0,0-.81.65,3.05,3.05,0,0,0-.54.95,5.11,5.11,0,0,0-.27,1.09h5.35A3.69,3.69,0,0,0,69.13,275.56Z" transform="translate(-12.29 -229.49)"/><path class="cls-6" d="M76.45,274.72a1.75,1.75,0,0,0-.47-.57,2,2,0,0,0-.68-.33,3.12,3.12,0,0,0-.82-.1,3.21,3.21,0,0,0-.68.07,2.17,2.17,0,0,0-.63.24,1.41,1.41,0,0,0-.47.44,1.28,1.28,0,0,0-.17.67.88.88,0,0,0,.17.57,1.31,1.31,0,0,0,.42.39,2.63,2.63,0,0,0,.56.27,5.48,5.48,0,0,0,.56.16l1.34.31a3.78,3.78,0,0,1,.86.23,2.79,2.79,0,0,1,.75.44,2.22,2.22,0,0,1,.54.67,2.25,2.25,0,0,1-.1,2.09,2.46,2.46,0,0,1-.77.77,3.15,3.15,0,0,1-1.07.42,5.18,5.18,0,0,1-1.17.13,3.8,3.8,0,0,1-2.36-.69,3,3,0,0,1-1-2.21h1a2,2,0,0,0,.74,1.55,2.7,2.7,0,0,0,1.69.52,4,4,0,0,0,.76-.08,2.55,2.55,0,0,0,.73-.27,1.73,1.73,0,0,0,.55-.49,1.17,1.17,0,0,0,.22-.73,1.21,1.21,0,0,0-.15-.62,1.34,1.34,0,0,0-.41-.41,2.48,2.48,0,0,0-.59-.28,5,5,0,0,0-.66-.19l-1.3-.29a8.83,8.83,0,0,1-.91-.3,2.94,2.94,0,0,1-.72-.41,1.7,1.7,0,0,1-.49-.61,2,2,0,0,1-.18-.89,1.94,1.94,0,0,1,.28-1.07,2.18,2.18,0,0,1,.73-.72,3.27,3.27,0,0,1,1-.4,4.57,4.57,0,0,1,1.09-.13,3.87,3.87,0,0,1,1.16.16,2.62,2.62,0,0,1,1,.5,2.43,2.43,0,0,1,.65.83,3,3,0,0,1,.27,1.17h-1A1.86,1.86,0,0,0,76.45,274.72Z" transform="translate(-12.29 -229.49)"/><path class="cls-6" d="M84.05,274.39a2.35,2.35,0,0,1,.69-.86,3,3,0,0,1,1-.5,4.85,4.85,0,0,1,1.31-.16,6.8,6.8,0,0,1,1.09.1,2.53,2.53,0,0,1,1,.4,2.22,2.22,0,0,1,.71.8,3,3,0,0,1,.27,1.36v4.38a.53.53,0,0,0,.59.61.68.68,0,0,0,.32-.07v.85l-.31.05-.35,0a1.48,1.48,0,0,1-.61-.11.81.81,0,0,1-.36-.29,1.1,1.1,0,0,1-.17-.46,3.52,3.52,0,0,1,0-.58h0a8.78,8.78,0,0,1-.55.71,2.81,2.81,0,0,1-.63.52,3,3,0,0,1-.78.32,4.51,4.51,0,0,1-1,.11,3.81,3.81,0,0,1-1.08-.14,2.34,2.34,0,0,1-.88-.43,2,2,0,0,1-.59-.75,2.39,2.39,0,0,1-.22-1.08,2.09,2.09,0,0,1,.39-1.35,2.42,2.42,0,0,1,1-.75,5.87,5.87,0,0,1,1.43-.36l1.6-.2a3.76,3.76,0,0,0,.56-.08.91.91,0,0,0,.4-.16A.76.76,0,0,0,89,276a1.4,1.4,0,0,0,.09-.55,1.87,1.87,0,0,0-.17-.84,1.36,1.36,0,0,0-.46-.52,2.11,2.11,0,0,0-.69-.26,4.46,4.46,0,0,0-.84-.07,2.58,2.58,0,0,0-1.57.45,1.82,1.82,0,0,0-.64,1.47h-1A3.53,3.53,0,0,1,84.05,274.39Zm5,2.46a.58.58,0,0,1-.37.26,4,4,0,0,1-.48.11c-.43.08-.87.14-1.32.2a7.1,7.1,0,0,0-1.24.27,2.33,2.33,0,0,0-.92.5,1.21,1.21,0,0,0-.36.94,1.51,1.51,0,0,0,.15.68,1.81,1.81,0,0,0,.41.51,2,2,0,0,0,.59.33,2.37,2.37,0,0,0,.69.11,3.38,3.38,0,0,0,1.1-.18,2.57,2.57,0,0,0,.92-.51,2.43,2.43,0,0,0,.63-.82,2.52,2.52,0,0,0,.23-1.08v-1.32Z" transform="translate(-12.29 -229.49)"/><path class="cls-6" d="M93.07,273.11v1.94h0a3.22,3.22,0,0,1,1.2-1.56,3.12,3.12,0,0,1,1.92-.49v1a3.11,3.11,0,0,0-1.24.18,2.65,2.65,0,0,0-1,.62,2.72,2.72,0,0,0-.63.95,3.18,3.18,0,0,0-.23,1.21v4.4h-1v-8.26Z" transform="translate(-12.29 -229.49)"/><path class="cls-6" d="M97.64,278.64a3,3,0,0,0,.49,1.05,2.6,2.6,0,0,0,.85.76,2.29,2.29,0,0,0,1.23.31,2.45,2.45,0,0,0,1.73-.58,3,3,0,0,0,.86-1.53h1a4,4,0,0,1-1.18,2.17,3.51,3.51,0,0,1-2.42.77,3.83,3.83,0,0,1-1.69-.34,3.18,3.18,0,0,1-1.16-.95,4,4,0,0,1-.66-1.39,6.07,6.07,0,0,1-.22-1.67,5.72,5.72,0,0,1,.22-1.6,4.2,4.2,0,0,1,.66-1.4,3.38,3.38,0,0,1,1.16-1,3.57,3.57,0,0,1,1.69-.38,3.33,3.33,0,0,1,1.69.4,3.52,3.52,0,0,1,1.15,1.05,4.44,4.44,0,0,1,.63,1.49,6.46,6.46,0,0,1,.16,1.7H97.49A4.56,4.56,0,0,0,97.64,278.64Zm5-3.08a2.87,2.87,0,0,0-.52-.94,2.45,2.45,0,0,0-.81-.65,2.3,2.3,0,0,0-1.09-.25,2.33,2.33,0,0,0-1.11.25,2.45,2.45,0,0,0-.81.65,3.26,3.26,0,0,0-.54.95,4.56,4.56,0,0,0-.26,1.09h5.34A3.69,3.69,0,0,0,102.63,275.56Z" transform="translate(-12.29 -229.49)"/><path class="cls-6" d="M110.58,273.11v1.57h0a2.67,2.67,0,0,1,1.14-1.34,3.5,3.5,0,0,1,1.8-.47,3.64,3.64,0,0,1,1.64.35,3.37,3.37,0,0,1,1.16.95,4.08,4.08,0,0,1,.69,1.4,6.45,6.45,0,0,1,0,3.34,4,4,0,0,1-.69,1.39,3.26,3.26,0,0,1-1.16.95,3.64,3.64,0,0,1-1.64.34,3.8,3.8,0,0,1-.89-.11,3.44,3.44,0,0,1-.84-.34,2.78,2.78,0,0,1-.68-.56,2.31,2.31,0,0,1-.45-.78h0v4.61h-1v-11.3ZM116.1,276a3.48,3.48,0,0,0-.48-1.13,2.6,2.6,0,0,0-.84-.81,2.29,2.29,0,0,0-1.23-.31,2.92,2.92,0,0,0-1.39.29,2.47,2.47,0,0,0-.9.76,3.13,3.13,0,0,0-.47,1.12,6.58,6.58,0,0,0-.13,1.35,5.44,5.44,0,0,0,.15,1.27,3.29,3.29,0,0,0,.49,1.13,2.71,2.71,0,0,0,.9.81,2.81,2.81,0,0,0,1.35.31,2.39,2.39,0,0,0,1.23-.31,2.6,2.6,0,0,0,.84-.81,3.48,3.48,0,0,0,.48-1.13,5.12,5.12,0,0,0,0-2.54Z" transform="translate(-12.29 -229.49)"/><path class="cls-6" d="M119.76,273.11v1.94h0a3,3,0,0,1,3.12-2.05v1a3.16,3.16,0,0,0-1.25.18,2.69,2.69,0,0,0-1,.62,2.62,2.62,0,0,0-.64.95,3.18,3.18,0,0,0-.22,1.21v4.4h-1v-8.26Z" transform="translate(-12.29 -229.49)"/><path class="cls-6" d="M124.9,269.94v1.62h-1v-1.62Zm0,3.17v8.26h-1v-8.26Z" transform="translate(-12.29 -229.49)"/><path class="cls-6" d="M132,273.22a3.73,3.73,0,0,1,1.23.95,4,4,0,0,1,.75,1.38,5.84,5.84,0,0,1,0,3.38,4.09,4.09,0,0,1-.75,1.38,3.57,3.57,0,0,1-1.23.94,4.27,4.27,0,0,1-3.34,0,3.48,3.48,0,0,1-1.23-.94,4.09,4.09,0,0,1-.75-1.38,5.84,5.84,0,0,1,0-3.38,4,4,0,0,1,.75-1.38,3.63,3.63,0,0,1,1.23-.95,4.16,4.16,0,0,1,3.34,0Zm-2.93.8a2.81,2.81,0,0,0-.91.8,3.58,3.58,0,0,0-.54,1.13,4.47,4.47,0,0,0,0,2.58,3.53,3.53,0,0,0,.54,1.12,2.6,2.6,0,0,0,.91.8,2.72,2.72,0,0,0,2.52,0,2.6,2.6,0,0,0,.91-.8,3.53,3.53,0,0,0,.54-1.12,4.47,4.47,0,0,0,0-2.58,3.58,3.58,0,0,0-.54-1.13,2.81,2.81,0,0,0-.91-.8,2.8,2.8,0,0,0-2.52,0Z" transform="translate(-12.29 -229.49)"/><path class="cls-6" d="M136.66,273.11v1.94h0a3,3,0,0,1,3.12-2.05v1a3.13,3.13,0,0,0-1.25.18,2.77,2.77,0,0,0-1.6,1.57,3.18,3.18,0,0,0-.22,1.21v4.4h-1v-8.26Z" transform="translate(-12.29 -229.49)"/><path class="cls-6" d="M141.79,269.94v1.62h-1v-1.62Zm0,3.17v8.26h-1v-8.26Z" transform="translate(-12.29 -229.49)"/><path class="cls-6" d="M147,273.11V274h-1.68v5.57a1.78,1.78,0,0,0,.13.77c.09.19.32.29.68.31a8.44,8.44,0,0,0,.87,0v.84l-.45,0-.45,0a2,2,0,0,1-1.41-.4,2,2,0,0,1-.38-1.44V274h-1.44v-.85h1.44v-2.48h1v2.48Z" transform="translate(-12.29 -229.49)"/><path class="cls-6" d="M149.49,269.94v1.62h-1v-1.62Zm0,3.17v8.26h-1v-8.26Z" transform="translate(-12.29 -229.49)"/><path class="cls-6" d="M157.6,280.52v.85h-6.9v-.82l5.4-6.59h-5v-.85h6.31v.72l-5.46,6.69Z" transform="translate(-12.29 -229.49)"/><path class="cls-6" d="M159.57,278.64a3.38,3.38,0,0,0,.49,1.05,2.82,2.82,0,0,0,.85.76,2.29,2.29,0,0,0,1.23.31,2.43,2.43,0,0,0,1.73-.58,3,3,0,0,0,.86-1.53h1a4,4,0,0,1-1.17,2.17,3.52,3.52,0,0,1-2.43.77,3.86,3.86,0,0,1-1.69-.34,3.18,3.18,0,0,1-1.16-.95,4.16,4.16,0,0,1-.66-1.39,6.48,6.48,0,0,1-.22-1.67,6.12,6.12,0,0,1,.22-1.6,4.41,4.41,0,0,1,.66-1.4,3.38,3.38,0,0,1,1.16-1,3.6,3.6,0,0,1,1.69-.38,3.25,3.25,0,0,1,2.84,1.45,4.07,4.07,0,0,1,.63,1.49,6.06,6.06,0,0,1,.16,1.7h-6.35A4.56,4.56,0,0,0,159.57,278.64Zm5-3.08a3.3,3.3,0,0,0-.52-.94,2.59,2.59,0,0,0-.82-.65,2.28,2.28,0,0,0-1.09-.25,2.32,2.32,0,0,0-1.1.25,2.59,2.59,0,0,0-.82.65,3.24,3.24,0,0,0-.53.95,4.58,4.58,0,0,0-.27,1.09h5.35A3.69,3.69,0,0,0,164.57,275.56Z" transform="translate(-12.29 -229.49)"/><path class="cls-6" d="M173.47,281.37V279.8h0a2.46,2.46,0,0,1-.47.73,2.83,2.83,0,0,1-.72.57,3.57,3.57,0,0,1-1.76.49,3.67,3.67,0,0,1-1.64-.34,3.35,3.35,0,0,1-1.16-.95,4,4,0,0,1-.68-1.39,6.18,6.18,0,0,1,0-3.34,4.06,4.06,0,0,1,.68-1.4,3.47,3.47,0,0,1,1.16-.95,3.67,3.67,0,0,1,1.64-.35,4,4,0,0,1,.91.11,3,3,0,0,1,.82.35,2.82,2.82,0,0,1,.68.56,2.49,2.49,0,0,1,.46.79h0v-4.74h1v11.43Zm-5.53-2.86a3.48,3.48,0,0,0,.48,1.13,2.71,2.71,0,0,0,.84.81,2.39,2.39,0,0,0,1.23.31,2.82,2.82,0,0,0,1.36-.31,2.77,2.77,0,0,0,.89-.81,3.31,3.31,0,0,0,.5-1.13,5.45,5.45,0,0,0,0-2.54,3.31,3.31,0,0,0-.5-1.13,2.77,2.77,0,0,0-.89-.81,2.71,2.71,0,0,0-1.36-.31,2.29,2.29,0,0,0-1.23.31,2.71,2.71,0,0,0-.84.81,3.48,3.48,0,0,0-.48,1.13,5.45,5.45,0,0,0,0,2.54Z" transform="translate(-12.29 -229.49)"/><path class="cls-6" d="M22,290v7.41H21V290H19.57v-.85H21v-.75a5.05,5.05,0,0,1,.08-1,1.88,1.88,0,0,1,.3-.77,1.52,1.52,0,0,1,.62-.49,2.39,2.39,0,0,1,1-.18l.41,0,.44.05v.86l-.39-.06-.35,0a1.25,1.25,0,0,0-.64.13.77.77,0,0,0-.33.34,1.32,1.32,0,0,0-.12.51c0,.19,0,.4,0,.62v.72h1.63V290Z" transform="translate(-12.29 -229.49)"/><path class="cls-6" d="M29.74,289.22a3.69,3.69,0,0,1,1.22.95,4,4,0,0,1,.75,1.38,5.62,5.62,0,0,1,0,3.38,4.09,4.09,0,0,1-.75,1.38,3.54,3.54,0,0,1-1.22.94,4.3,4.3,0,0,1-3.35,0,3.54,3.54,0,0,1-1.22-.94,4.09,4.09,0,0,1-.75-1.38,5.62,5.62,0,0,1,0-3.38,4,4,0,0,1,.75-1.38,3.69,3.69,0,0,1,1.22-.95,4.18,4.18,0,0,1,3.35,0Zm-2.94.8a2.88,2.88,0,0,0-.9.8,3.83,3.83,0,0,0-.55,1.13,4.71,4.71,0,0,0,0,2.58,3.77,3.77,0,0,0,.55,1.12,2.66,2.66,0,0,0,.9.8,2.45,2.45,0,0,0,1.26.31,2.49,2.49,0,0,0,1.27-.31,2.66,2.66,0,0,0,.9-.8,3.77,3.77,0,0,0,.55-1.12,4.71,4.71,0,0,0,0-2.58,3.83,3.83,0,0,0-.55-1.13,2.88,2.88,0,0,0-.9-.8,2.59,2.59,0,0,0-1.27-.3A2.55,2.55,0,0,0,26.8,290Z" transform="translate(-12.29 -229.49)"/><path class="cls-6" d="M34.4,289.11v1.94h0a3.26,3.26,0,0,1,1.19-1.56,3.17,3.17,0,0,1,1.93-.49v1a3.16,3.16,0,0,0-1.25.18,2.69,2.69,0,0,0-1,.62,2.62,2.62,0,0,0-.64.95,3.38,3.38,0,0,0-.22,1.21v4.4h-1v-8.26Z" transform="translate(-12.29 -229.49)"/><path class="cls-6" d="M49.3,297.37V295.8h0a2.12,2.12,0,0,1-.47.73,2.78,2.78,0,0,1-.71.57,3.26,3.26,0,0,1-.86.36,3.11,3.11,0,0,1-.9.13,3.64,3.64,0,0,1-1.64-.34,3.35,3.35,0,0,1-1.16-.95,4,4,0,0,1-.69-1.39,6.45,6.45,0,0,1,0-3.34,4.08,4.08,0,0,1,.69-1.4,3.47,3.47,0,0,1,1.16-.95,3.64,3.64,0,0,1,1.64-.35,3.82,3.82,0,0,1,.9.11,3.08,3.08,0,0,1,1.51.91,2.29,2.29,0,0,1,.45.79h0v-4.74h1v11.43Zm-5.53-2.86a3.48,3.48,0,0,0,.48,1.13,2.71,2.71,0,0,0,.84.81,2.39,2.39,0,0,0,1.23.31,2.81,2.81,0,0,0,1.35-.31,2.71,2.71,0,0,0,.9-.81,3.29,3.29,0,0,0,.49-1.13,5.12,5.12,0,0,0,0-2.54,3.29,3.29,0,0,0-.49-1.13,2.59,2.59,0,0,0-2.25-1.12,2.29,2.29,0,0,0-1.23.31,2.71,2.71,0,0,0-.84.81,3.48,3.48,0,0,0-.48,1.13,5.45,5.45,0,0,0,0,2.54Z" transform="translate(-12.29 -229.49)"/><path class="cls-6" d="M52.89,294.64a3,3,0,0,0,.49,1.05,2.67,2.67,0,0,0,.84.76,2.35,2.35,0,0,0,1.24.31,2.4,2.4,0,0,0,1.72-.58,3,3,0,0,0,.87-1.53h1a4,4,0,0,1-1.18,2.17,3.51,3.51,0,0,1-2.42.77,3.83,3.83,0,0,1-1.69-.34,3.1,3.1,0,0,1-1.16-.95,4.18,4.18,0,0,1-.67-1.39,6.48,6.48,0,0,1-.21-1.67,6.11,6.11,0,0,1,.21-1.6,4.43,4.43,0,0,1,.67-1.4,3.29,3.29,0,0,1,1.16-1,3.57,3.57,0,0,1,1.69-.38,3.33,3.33,0,0,1,1.69.4,3.52,3.52,0,0,1,1.15,1.05,4.44,4.44,0,0,1,.63,1.49,6.46,6.46,0,0,1,.16,1.7H52.74A4.56,4.56,0,0,0,52.89,294.64Zm5-3.08a3.07,3.07,0,0,0-.52-.94,2.49,2.49,0,0,0-.82-.65,2.26,2.26,0,0,0-1.08-.25,2.33,2.33,0,0,0-1.11.25,2.45,2.45,0,0,0-.81.65,3.05,3.05,0,0,0-.54.95,4.56,4.56,0,0,0-.26,1.09h5.34A3.69,3.69,0,0,0,57.88,291.56Z" transform="translate(-12.29 -229.49)"/><path class="cls-6" d="M60.64,289.11l2.59,7.25h0l2.56-7.25h1l-3.08,8.26H62.7l-3.18-8.26Z" transform="translate(-12.29 -229.49)"/><path class="cls-6" d="M68.6,294.64a3,3,0,0,0,.49,1.05,2.6,2.6,0,0,0,.85.76,2.29,2.29,0,0,0,1.23.31,2.45,2.45,0,0,0,1.73-.58,3,3,0,0,0,.86-1.53h1a4,4,0,0,1-1.18,2.17,3.51,3.51,0,0,1-2.42.77,3.83,3.83,0,0,1-1.69-.34,3.18,3.18,0,0,1-1.16-.95,4,4,0,0,1-.66-1.39,6.07,6.07,0,0,1-.22-1.67,5.72,5.72,0,0,1,.22-1.6,4.2,4.2,0,0,1,.66-1.4,3.38,3.38,0,0,1,1.16-1,3.57,3.57,0,0,1,1.69-.38,3.33,3.33,0,0,1,1.69.4A3.52,3.52,0,0,1,74,290.32a4.44,4.44,0,0,1,.63,1.49,6.46,6.46,0,0,1,.16,1.7H68.45A4.56,4.56,0,0,0,68.6,294.64Zm5-3.08a2.87,2.87,0,0,0-.52-.94,2.45,2.45,0,0,0-.81-.65,2.3,2.3,0,0,0-1.09-.25,2.33,2.33,0,0,0-1.11.25,2.45,2.45,0,0,0-.81.65,3.26,3.26,0,0,0-.54.95,4.56,4.56,0,0,0-.26,1.09h5.34A3.69,3.69,0,0,0,73.59,291.56Z" transform="translate(-12.29 -229.49)"/><path class="cls-6" d="M77.18,285.94v11.43h-1V285.94Z" transform="translate(-12.29 -229.49)"/><path class="cls-6" d="M84.28,289.22a3.59,3.59,0,0,1,1.22.95,4.19,4.19,0,0,1,.76,1.38,5.84,5.84,0,0,1,0,3.38,4.3,4.3,0,0,1-.76,1.38,3.45,3.45,0,0,1-1.22.94,4.27,4.27,0,0,1-3.34,0,3.48,3.48,0,0,1-1.23-.94,4.09,4.09,0,0,1-.75-1.38,5.62,5.62,0,0,1,0-3.38,4,4,0,0,1,.75-1.38,3.63,3.63,0,0,1,1.23-.95,4.16,4.16,0,0,1,3.34,0Zm-2.94.8a2.88,2.88,0,0,0-.9.8A3.58,3.58,0,0,0,79.9,292a4.47,4.47,0,0,0,0,2.58,3.53,3.53,0,0,0,.54,1.12,2.66,2.66,0,0,0,.9.8,2.52,2.52,0,0,0,1.27.31,2.45,2.45,0,0,0,1.26-.31,2.69,2.69,0,0,0,.91-.8,3.53,3.53,0,0,0,.54-1.12,4.71,4.71,0,0,0,0-2.58,3.58,3.58,0,0,0-.54-1.13,2.92,2.92,0,0,0-.91-.8,2.55,2.55,0,0,0-1.26-.3A2.62,2.62,0,0,0,81.34,290Z" transform="translate(-12.29 -229.49)"/><path class="cls-6" d="M88.94,289.11v1.57h0a2.67,2.67,0,0,1,1.14-1.34,3.5,3.5,0,0,1,1.8-.47,3.64,3.64,0,0,1,1.64.35,3.47,3.47,0,0,1,1.16.95,4.08,4.08,0,0,1,.69,1.4,6.45,6.45,0,0,1,0,3.34,4,4,0,0,1-.69,1.39,3.35,3.35,0,0,1-1.16.95,3.64,3.64,0,0,1-1.64.34,4,4,0,0,1-.9-.11,3.54,3.54,0,0,1-.83-.34,2.78,2.78,0,0,1-.68-.56,2.16,2.16,0,0,1-.45-.78h0v4.61H88v-11.3ZM94.47,292a3.48,3.48,0,0,0-.48-1.13,2.71,2.71,0,0,0-.84-.81,2.29,2.29,0,0,0-1.23-.31,2.89,2.89,0,0,0-1.39.29,2.39,2.39,0,0,0-.9.76,3.13,3.13,0,0,0-.47,1.12,6.57,6.57,0,0,0-.14,1.35,5,5,0,0,0,.16,1.27,3.29,3.29,0,0,0,.49,1.13,2.71,2.71,0,0,0,.9.81,2.81,2.81,0,0,0,1.35.31,2.39,2.39,0,0,0,1.23-.31,2.71,2.71,0,0,0,.84-.81,3.48,3.48,0,0,0,.48-1.13,5.45,5.45,0,0,0,0-2.54Z" transform="translate(-12.29 -229.49)"/><path class="cls-6" d="M98.13,289.11v1.39h.05a3.13,3.13,0,0,1,1-1.2,3,3,0,0,1,1.66-.43,2.79,2.79,0,0,1,1.48.4,2,2,0,0,1,.89,1.22,2.51,2.51,0,0,1,1.09-1.22,3.07,3.07,0,0,1,1.53-.4c1.83,0,2.74,1,2.74,2.9v5.6h-1v-5.56a2.44,2.44,0,0,0-.43-1.56,1.89,1.89,0,0,0-1.52-.53,2.12,2.12,0,0,0-1.09.25,1.82,1.82,0,0,0-.69.66,2.93,2.93,0,0,0-.36.95,5.8,5.8,0,0,0-.1,1.11v4.68h-1v-5.6a3.5,3.5,0,0,0-.09-.8,1.75,1.75,0,0,0-.29-.65,1.35,1.35,0,0,0-.53-.44,1.88,1.88,0,0,0-.82-.16,2.56,2.56,0,0,0-1.11.23,2.19,2.19,0,0,0-.77.64,2.83,2.83,0,0,0-.44,1,5.09,5.09,0,0,0-.14,1.21v4.61h-1v-8.26Z" transform="translate(-12.29 -229.49)"/><path class="cls-6" d="M111.27,294.64a3.17,3.17,0,0,0,.49,1.05,2.71,2.71,0,0,0,.85.76,2.29,2.29,0,0,0,1.23.31,2.43,2.43,0,0,0,1.73-.58,3,3,0,0,0,.86-1.53h1a4,4,0,0,1-1.18,2.17,3.5,3.5,0,0,1-2.42.77,3.86,3.86,0,0,1-1.69-.34,3.18,3.18,0,0,1-1.16-.95,4,4,0,0,1-.66-1.39,6.07,6.07,0,0,1-.22-1.67,5.72,5.72,0,0,1,.22-1.6,4.2,4.2,0,0,1,.66-1.4,3.38,3.38,0,0,1,1.16-1,3.6,3.6,0,0,1,1.69-.38,3.37,3.37,0,0,1,1.7.4,3.48,3.48,0,0,1,1.14,1.05,4.44,4.44,0,0,1,.63,1.49,6.46,6.46,0,0,1,.16,1.7h-6.35A4.56,4.56,0,0,0,111.27,294.64Zm5-3.08a2.87,2.87,0,0,0-.52-.94,2.45,2.45,0,0,0-.81-.65,2.52,2.52,0,0,0-2.19,0,2.49,2.49,0,0,0-.82.65,3.51,3.51,0,0,0-.54.95,4.56,4.56,0,0,0-.26,1.09h5.34A3.4,3.4,0,0,0,116.26,291.56Z" transform="translate(-12.29 -229.49)"/><path class="cls-6" d="M119.82,289.11v1.42h0a2.38,2.38,0,0,1,1-1.2,3,3,0,0,1,1.62-.46,4.28,4.28,0,0,1,1.44.22,2.22,2.22,0,0,1,.94.64,2.42,2.42,0,0,1,.5,1,5.87,5.87,0,0,1,.14,1.32v5.32h-1v-5.16a5,5,0,0,0-.09-1,2.18,2.18,0,0,0-.34-.79,1.62,1.62,0,0,0-.65-.53,2.33,2.33,0,0,0-1-.19,2.6,2.6,0,0,0-1.08.21,2.31,2.31,0,0,0-.8.6,2.9,2.9,0,0,0-.52.89,3.77,3.77,0,0,0-.2,1.13v4.82h-1v-8.26Z" transform="translate(-12.29 -229.49)"/><path class="cls-6" d="M130.7,289.11V290H129v5.57a1.76,1.76,0,0,0,.14.77c.09.19.32.29.68.31a8.12,8.12,0,0,0,.86,0v.84l-.44,0-.45,0a2,2,0,0,1-1.41-.4,1.9,1.9,0,0,1-.38-1.44V290h-1.44v-.85H128v-2.48h1v2.48Z" transform="translate(-12.29 -229.49)"/><path class="cls-6" d="M136.81,290.39a2.48,2.48,0,0,1,.7-.86,2.91,2.91,0,0,1,1-.5,5,5,0,0,1,1.31-.16,6.59,6.59,0,0,1,1.09.1,2.51,2.51,0,0,1,1,.4,2.11,2.11,0,0,1,.7.8,3,3,0,0,1,.28,1.36v4.38c0,.41.19.61.59.61a.71.71,0,0,0,.32-.07v.85l-.31.05-.35,0a1.48,1.48,0,0,1-.61-.11.91.91,0,0,1-.37-.29,1.09,1.09,0,0,1-.16-.46,3.52,3.52,0,0,1,0-.58h0a8.8,8.8,0,0,1-.56.71,2.56,2.56,0,0,1-.62.52,3,3,0,0,1-.78.32,4.64,4.64,0,0,1-1,.11,3.71,3.71,0,0,1-1.08-.14A2.34,2.34,0,0,1,137,297a2,2,0,0,1-.59-.75,2.39,2.39,0,0,1-.22-1.08,2.15,2.15,0,0,1,.38-1.35,2.52,2.52,0,0,1,1-.75,5.9,5.9,0,0,1,1.42-.36l1.61-.2a4,4,0,0,0,.56-.08,1,1,0,0,0,.4-.16.76.76,0,0,0,.25-.33,1.4,1.4,0,0,0,.09-.55,1.87,1.87,0,0,0-.17-.84,1.38,1.38,0,0,0-.47-.52,2,2,0,0,0-.68-.26,4.46,4.46,0,0,0-.84-.07,2.56,2.56,0,0,0-1.57.45,1.79,1.79,0,0,0-.64,1.47h-1A3.33,3.33,0,0,1,136.81,290.39Zm5,2.46a.54.54,0,0,1-.36.26,4,4,0,0,1-.48.11c-.43.08-.87.14-1.32.2a6.9,6.9,0,0,0-1.24.27,2.26,2.26,0,0,0-.92.5,1.21,1.21,0,0,0-.36.94,1.51,1.51,0,0,0,.15.68,1.81,1.81,0,0,0,.41.51,2,2,0,0,0,.59.33,2.26,2.26,0,0,0,.69.11,3.38,3.38,0,0,0,1.1-.18,2.66,2.66,0,0,0,.92-.51,2.41,2.41,0,0,0,.62-.82,2.38,2.38,0,0,0,.24-1.08v-1.32Z" transform="translate(-12.29 -229.49)"/><path class="cls-6" d="M145.9,289.11v1.42h0a2.44,2.44,0,0,1,1-1.2,3,3,0,0,1,1.61-.46,4.3,4.3,0,0,1,1.45.22,2.2,2.2,0,0,1,1.43,1.64,5.32,5.32,0,0,1,.15,1.32v5.32h-1v-5.16a4.34,4.34,0,0,0-.1-1,2,2,0,0,0-.33-.79,1.62,1.62,0,0,0-.65-.53,2.35,2.35,0,0,0-1-.19,2.67,2.67,0,0,0-1.08.21,2.51,2.51,0,0,0-.8.6,3.09,3.09,0,0,0-.51.89,3.77,3.77,0,0,0-.2,1.13v4.82h-1v-8.26Z" transform="translate(-12.29 -229.49)"/><path class="cls-6" d="M159.84,297.37V295.8h0a2.31,2.31,0,0,1-.48.73,2.62,2.62,0,0,1-.71.57,3.57,3.57,0,0,1-1.76.49,3.67,3.67,0,0,1-1.64-.34,3.35,3.35,0,0,1-1.16-.95,4,4,0,0,1-.69-1.39,6.45,6.45,0,0,1,0-3.34,4.08,4.08,0,0,1,.69-1.4,3.47,3.47,0,0,1,1.16-.95,3.67,3.67,0,0,1,1.64-.35,4,4,0,0,1,.91.11,3.12,3.12,0,0,1,.82.35,2.82,2.82,0,0,1,.68.56,2.49,2.49,0,0,1,.46.79h0v-4.74h1v11.43Zm-5.53-2.86a3.48,3.48,0,0,0,.48,1.13,2.71,2.71,0,0,0,.84.81,2.39,2.39,0,0,0,1.23.31,2.75,2.75,0,0,0,1.35-.31,2.71,2.71,0,0,0,.9-.81,3.51,3.51,0,0,0,.5-1.13,5.45,5.45,0,0,0,0-2.54,3.51,3.51,0,0,0-.5-1.13,2.71,2.71,0,0,0-.9-.81,2.64,2.64,0,0,0-1.35-.31,2.29,2.29,0,0,0-1.23.31,2.71,2.71,0,0,0-.84.81,3.48,3.48,0,0,0-.48,1.13,5.45,5.45,0,0,0,0,2.54Z" transform="translate(-12.29 -229.49)"/><path class="cls-6" d="M20.58,305.11l2.72,7,2.54-7h1l-3.58,9.5a8.28,8.28,0,0,1-.42.88,2,2,0,0,1-.42.54,1.53,1.53,0,0,1-.55.29,2.91,2.91,0,0,1-.79.09l-.47,0a.94.94,0,0,1-.3-.05v-.85l.35,0a1.87,1.87,0,0,0,.34,0,1.26,1.26,0,0,0,.55-.1,1.12,1.12,0,0,0,.38-.26,1.82,1.82,0,0,0,.27-.41l.24-.53.35-.93-3.29-8.22Z" transform="translate(-12.29 -229.49)"/><path class="cls-6" d="M33,305.22a3.73,3.73,0,0,1,1.23.95,4,4,0,0,1,.75,1.38,5.84,5.84,0,0,1,0,3.38,4.09,4.09,0,0,1-.75,1.38,3.57,3.57,0,0,1-1.23.94,4.27,4.27,0,0,1-3.34,0,3.48,3.48,0,0,1-1.23-.94,4.09,4.09,0,0,1-.75-1.38,5.84,5.84,0,0,1,0-3.38,4,4,0,0,1,.75-1.38,3.63,3.63,0,0,1,1.23-.95,4.16,4.16,0,0,1,3.34,0Zm-2.93.8a2.81,2.81,0,0,0-.91.8,3.58,3.58,0,0,0-.54,1.13,4.47,4.47,0,0,0,0,2.58,3.53,3.53,0,0,0,.54,1.12,2.6,2.6,0,0,0,.91.8,2.72,2.72,0,0,0,2.52,0,2.6,2.6,0,0,0,.91-.8,3.53,3.53,0,0,0,.54-1.12A4.47,4.47,0,0,0,34,308a3.58,3.58,0,0,0-.54-1.13,2.81,2.81,0,0,0-.91-.8,2.8,2.8,0,0,0-2.52,0Z" transform="translate(-12.29 -229.49)"/><path class="cls-6" d="M42.5,313.37v-1.49h0a2.92,2.92,0,0,1-1.16,1.27,3.35,3.35,0,0,1-1.69.44,3.55,3.55,0,0,1-1.34-.22,2.05,2.05,0,0,1-.89-.61,2.54,2.54,0,0,1-.51-1,4.75,4.75,0,0,1-.16-1.31v-5.36h1v5.38a2.64,2.64,0,0,0,.52,1.69,2.09,2.09,0,0,0,1.69.58,2.12,2.12,0,0,0,1.12-.28,2.5,2.5,0,0,0,.77-.75,3.16,3.16,0,0,0,.44-1.06,5,5,0,0,0,.15-1.22v-4.34h1v8.26Z" transform="translate(-12.29 -229.49)"/><path class="cls-6" d="M54.83,306.25a2.14,2.14,0,0,0-1.56-.53A2.56,2.56,0,0,0,52,306a2.88,2.88,0,0,0-.9.8,3.83,3.83,0,0,0-.55,1.13,4.71,4.71,0,0,0,0,2.58,3.77,3.77,0,0,0,.55,1.12,2.66,2.66,0,0,0,.9.8,2.47,2.47,0,0,0,1.27.31,2.3,2.3,0,0,0,1.61-.67,2.55,2.55,0,0,0,.53-.74,2.91,2.91,0,0,0,.26-.94h1a3.79,3.79,0,0,1-1.1,2.34,3.24,3.24,0,0,1-2.3.84,3.91,3.91,0,0,1-1.68-.34,3.54,3.54,0,0,1-1.22-.94,4.09,4.09,0,0,1-.75-1.38,5.62,5.62,0,0,1,0-3.38,4,4,0,0,1,.75-1.38,3.69,3.69,0,0,1,1.22-.95,3.91,3.91,0,0,1,1.68-.35,3.63,3.63,0,0,1,2.24.7,3,3,0,0,1,1.1,2.13h-1A2.71,2.71,0,0,0,54.83,306.25Z" transform="translate(-12.29 -229.49)"/><path class="cls-6" d="M58.29,306.39a2.35,2.35,0,0,1,.69-.86,3,3,0,0,1,1-.5,4.85,4.85,0,0,1,1.31-.16,6.8,6.8,0,0,1,1.09.1,2.53,2.53,0,0,1,1,.4,2.13,2.13,0,0,1,.71.8,3,3,0,0,1,.27,1.36v4.38a.53.53,0,0,0,.59.61.68.68,0,0,0,.32-.07v.85l-.31.05-.35,0a1.48,1.48,0,0,1-.61-.11.81.81,0,0,1-.36-.29,1.1,1.1,0,0,1-.17-.46,3.52,3.52,0,0,1,0-.58h0a8.78,8.78,0,0,1-.55.71,2.81,2.81,0,0,1-.63.52,3,3,0,0,1-.78.32,4.51,4.51,0,0,1-1.05.11,3.81,3.81,0,0,1-1.08-.14,2.34,2.34,0,0,1-.88-.43,2,2,0,0,1-.59-.75,2.39,2.39,0,0,1-.22-1.08,2.09,2.09,0,0,1,.39-1.35,2.42,2.42,0,0,1,1-.75,5.87,5.87,0,0,1,1.43-.36l1.6-.2a3.76,3.76,0,0,0,.56-.08.91.91,0,0,0,.4-.16.76.76,0,0,0,.25-.33,1.4,1.4,0,0,0,.09-.55,1.87,1.87,0,0,0-.17-.84,1.36,1.36,0,0,0-.46-.52,2.11,2.11,0,0,0-.69-.26,4.46,4.46,0,0,0-.84-.07,2.58,2.58,0,0,0-1.57.45,1.82,1.82,0,0,0-.64,1.47H58A3.53,3.53,0,0,1,58.29,306.39Zm5,2.46a.58.58,0,0,1-.37.26,4,4,0,0,1-.48.11c-.43.08-.87.14-1.32.2a7.1,7.1,0,0,0-1.24.27,2.33,2.33,0,0,0-.92.5,1.21,1.21,0,0,0-.36.94,1.51,1.51,0,0,0,.15.68,1.81,1.81,0,0,0,.41.51,2,2,0,0,0,.59.33,2.37,2.37,0,0,0,.69.11,3.38,3.38,0,0,0,1.1-.18,2.57,2.57,0,0,0,.92-.51,2.43,2.43,0,0,0,.63-.82,2.52,2.52,0,0,0,.23-1.08v-1.32Z" transform="translate(-12.29 -229.49)"/><path class="cls-6" d="M67.38,305.11v1.42h0a2.38,2.38,0,0,1,1-1.2,3,3,0,0,1,1.62-.46,4.34,4.34,0,0,1,1.45.22,2.18,2.18,0,0,1,.93.64,2.3,2.3,0,0,1,.5,1,5.87,5.87,0,0,1,.14,1.32v5.32h-1v-5.16a5,5,0,0,0-.09-1,2.18,2.18,0,0,0-.34-.79,1.56,1.56,0,0,0-.65-.53,2.33,2.33,0,0,0-1-.19,2.6,2.6,0,0,0-1.08.21,2.41,2.41,0,0,0-.8.6,2.69,2.69,0,0,0-.51.89,3.48,3.48,0,0,0-.2,1.13v4.82h-1v-8.26Z" transform="translate(-12.29 -229.49)"/><path class="cls-6" d="M79.63,306.39a2.28,2.28,0,0,1,.7-.86,2.91,2.91,0,0,1,1-.5,4.85,4.85,0,0,1,1.31-.16,6.7,6.7,0,0,1,1.09.1,2.57,2.57,0,0,1,1,.4,2.19,2.19,0,0,1,.7.8,3,3,0,0,1,.27,1.36v4.38a.53.53,0,0,0,.59.61.66.66,0,0,0,.32-.07v.85l-.31.05-.34,0a1.53,1.53,0,0,1-.62-.11A.94.94,0,0,1,85,313a1.26,1.26,0,0,1-.17-.46,5.11,5.11,0,0,1,0-.58h0a7,7,0,0,1-.55.71,2.77,2.77,0,0,1-.62.52,3,3,0,0,1-.79.32,4.51,4.51,0,0,1-1.05.11,3.81,3.81,0,0,1-1.08-.14,2.41,2.41,0,0,1-.88-.43,2.1,2.1,0,0,1-.59-.75,2.54,2.54,0,0,1-.21-1.08,2.09,2.09,0,0,1,.38-1.35,2.52,2.52,0,0,1,1-.75,5.78,5.78,0,0,1,1.42-.36l1.61-.2a4,4,0,0,0,.56-.08,1,1,0,0,0,.4-.16.76.76,0,0,0,.25-.33,1.64,1.64,0,0,0,.08-.55,1.88,1.88,0,0,0-.16-.84,1.47,1.47,0,0,0-.47-.52,2,2,0,0,0-.69-.26,4.46,4.46,0,0,0-.84-.07,2.53,2.53,0,0,0-1.56.45,1.79,1.79,0,0,0-.64,1.47h-1A3.33,3.33,0,0,1,79.63,306.39Zm5,2.46a.54.54,0,0,1-.37.26,4,4,0,0,1-.48.11c-.42.08-.86.14-1.32.2a7.31,7.31,0,0,0-1.24.27,2.33,2.33,0,0,0-.92.5,1.21,1.21,0,0,0-.36.94,1.39,1.39,0,0,0,.16.68,1.77,1.77,0,0,0,.4.51,1.93,1.93,0,0,0,.6.33,2.25,2.25,0,0,0,.68.11,3.4,3.4,0,0,0,1.11-.18,2.66,2.66,0,0,0,.92-.51,2.41,2.41,0,0,0,.62-.82,2.38,2.38,0,0,0,.23-1.08v-1.32Z" transform="translate(-12.29 -229.49)"/><path class="cls-6" d="M94.06,313.37V311.8h0a2.12,2.12,0,0,1-.47.73,3,3,0,0,1-.71.57,3.26,3.26,0,0,1-.86.36,3.11,3.11,0,0,1-.9.13,3.64,3.64,0,0,1-1.64-.34,3.26,3.26,0,0,1-1.16-.95,4,4,0,0,1-.69-1.39,6.45,6.45,0,0,1,0-3.34,4.08,4.08,0,0,1,.69-1.4,3.37,3.37,0,0,1,1.16-.95,3.64,3.64,0,0,1,1.64-.35,3.82,3.82,0,0,1,.9.11,3.08,3.08,0,0,1,1.51.91,2.46,2.46,0,0,1,.45.79h0v-4.74h1v11.43Zm-5.52-2.86a3.48,3.48,0,0,0,.48,1.13,2.51,2.51,0,0,0,.84.81,2.39,2.39,0,0,0,1.23.31,2.81,2.81,0,0,0,1.35-.31,2.71,2.71,0,0,0,.9-.81,3.29,3.29,0,0,0,.49-1.13,5.45,5.45,0,0,0,0-2.54,3.29,3.29,0,0,0-.49-1.13,2.59,2.59,0,0,0-2.25-1.12,2.29,2.29,0,0,0-1.23.31,2.51,2.51,0,0,0-.84.81,3.48,3.48,0,0,0-.48,1.13,5.12,5.12,0,0,0,0,2.54Z" transform="translate(-12.29 -229.49)"/><path class="cls-6" d="M103.25,313.37V311.8h0a2.31,2.31,0,0,1-.48.73,2.62,2.62,0,0,1-.71.57,3.57,3.57,0,0,1-1.76.49,3.67,3.67,0,0,1-1.64-.34,3.35,3.35,0,0,1-1.16-.95,4,4,0,0,1-.69-1.39,6.45,6.45,0,0,1,0-3.34,4.08,4.08,0,0,1,.69-1.4,3.47,3.47,0,0,1,1.16-.95,3.67,3.67,0,0,1,1.64-.35,4,4,0,0,1,.91.11,3.12,3.12,0,0,1,.82.35,2.82,2.82,0,0,1,.68.56,2.49,2.49,0,0,1,.46.79h0v-4.74h1v11.43Zm-5.53-2.86a3.48,3.48,0,0,0,.48,1.13,2.71,2.71,0,0,0,.84.81,2.39,2.39,0,0,0,1.23.31,2.78,2.78,0,0,0,1.35-.31,2.71,2.71,0,0,0,.9-.81,3.51,3.51,0,0,0,.5-1.13,5.45,5.45,0,0,0,0-2.54,3.51,3.51,0,0,0-.5-1.13,2.71,2.71,0,0,0-.9-.81,2.67,2.67,0,0,0-1.35-.31A2.29,2.29,0,0,0,99,306a2.71,2.71,0,0,0-.84.81,3.48,3.48,0,0,0-.48,1.13,5.45,5.45,0,0,0,0,2.54Z" transform="translate(-12.29 -229.49)"/><path class="cls-6" d="M115.7,305.22a3.63,3.63,0,0,1,1.23.95,4,4,0,0,1,.75,1.38,5.62,5.62,0,0,1,0,3.38,4.09,4.09,0,0,1-.75,1.38,3.48,3.48,0,0,1-1.23.94,4.27,4.27,0,0,1-3.34,0,3.45,3.45,0,0,1-1.22-.94,4,4,0,0,1-.76-1.38,5.84,5.84,0,0,1,0-3.38,3.86,3.86,0,0,1,.76-1.38,3.59,3.59,0,0,1,1.22-.95,4.16,4.16,0,0,1,3.34,0Zm-2.93.8a2.81,2.81,0,0,0-.91.8,3.58,3.58,0,0,0-.54,1.13,4.71,4.71,0,0,0,0,2.58,3.53,3.53,0,0,0,.54,1.12,2.6,2.6,0,0,0,.91.8,2.45,2.45,0,0,0,1.26.31,2.52,2.52,0,0,0,1.27-.31,2.66,2.66,0,0,0,.9-.8,3.53,3.53,0,0,0,.54-1.12,4.47,4.47,0,0,0,0-2.58,3.58,3.58,0,0,0-.54-1.13,2.88,2.88,0,0,0-.9-.8,2.62,2.62,0,0,0-1.27-.3A2.55,2.55,0,0,0,112.77,306Z" transform="translate(-12.29 -229.49)"/><path class="cls-6" d="M120.37,305.11v1.94h0a3.2,3.2,0,0,1,1.19-1.56,3.15,3.15,0,0,1,1.93-.49v1a3.13,3.13,0,0,0-1.25.18,2.83,2.83,0,0,0-1,.62,2.72,2.72,0,0,0-.63.95,3.18,3.18,0,0,0-.22,1.21v4.4h-1v-8.26Z" transform="translate(-12.29 -229.49)"/><path class="cls-6" d="M129.86,305.11v1.94h0A3,3,0,0,1,133,305v1a3.13,3.13,0,0,0-1.25.18,2.77,2.77,0,0,0-1.6,1.57,3.18,3.18,0,0,0-.22,1.21v4.4h-1v-8.26Z" transform="translate(-12.29 -229.49)"/><path class="cls-6" d="M134.42,310.64a3.17,3.17,0,0,0,.49,1.05,2.82,2.82,0,0,0,.85.76,2.29,2.29,0,0,0,1.23.31,2.43,2.43,0,0,0,1.73-.58,3,3,0,0,0,.86-1.53h1a4,4,0,0,1-1.17,2.17,3.54,3.54,0,0,1-2.43.77,3.86,3.86,0,0,1-1.69-.34,3.18,3.18,0,0,1-1.16-.95,4,4,0,0,1-.66-1.39,6.48,6.48,0,0,1-.22-1.67,6.12,6.12,0,0,1,.22-1.6,4.2,4.2,0,0,1,.66-1.4,3.38,3.38,0,0,1,1.16-1,3.6,3.6,0,0,1,1.69-.38,3.25,3.25,0,0,1,2.84,1.45,4.25,4.25,0,0,1,.63,1.49,6.46,6.46,0,0,1,.16,1.7h-6.35A4.56,4.56,0,0,0,134.42,310.64Zm5-3.08a3.3,3.3,0,0,0-.52-.94,2.59,2.59,0,0,0-.82-.65,2.28,2.28,0,0,0-1.09-.25,2.32,2.32,0,0,0-1.1.25,2.59,2.59,0,0,0-.82.65,3.24,3.24,0,0,0-.53.95,4.15,4.15,0,0,0-.27,1.09h5.35A4,4,0,0,0,139.42,307.56Z" transform="translate(-12.29 -229.49)"/><path class="cls-6" d="M142.91,305.11v1.39H143a3.16,3.16,0,0,1,1-1.2,2.89,2.89,0,0,1,1.65-.43,2.76,2.76,0,0,1,1.48.4,1.94,1.94,0,0,1,.89,1.22,2.56,2.56,0,0,1,1.09-1.22,3.07,3.07,0,0,1,1.53-.4c1.83,0,2.74,1,2.74,2.9v5.6h-1v-5.56a2.44,2.44,0,0,0-.43-1.56,1.87,1.87,0,0,0-1.52-.53,2.12,2.12,0,0,0-1.09.25,2,2,0,0,0-.69.66,2.93,2.93,0,0,0-.36.95,6.74,6.74,0,0,0-.1,1.11v4.68h-1v-5.6a3.5,3.5,0,0,0-.09-.8,1.73,1.73,0,0,0-.28-.65,1.38,1.38,0,0,0-.54-.44,1.83,1.83,0,0,0-.81-.16,2.6,2.6,0,0,0-1.12.23,2.19,2.19,0,0,0-.77.64,3,3,0,0,0-.44,1,5.09,5.09,0,0,0-.14,1.21v4.61h-1v-8.26Z" transform="translate(-12.29 -229.49)"/><path class="cls-6" d="M160.47,305.22a3.73,3.73,0,0,1,1.23.95,4,4,0,0,1,.75,1.38,5.84,5.84,0,0,1,0,3.38,4.09,4.09,0,0,1-.75,1.38,3.57,3.57,0,0,1-1.23.94,4.27,4.27,0,0,1-3.34,0,3.48,3.48,0,0,1-1.23-.94,4.09,4.09,0,0,1-.75-1.38,5.84,5.84,0,0,1,0-3.38,4,4,0,0,1,.75-1.38,3.63,3.63,0,0,1,1.23-.95,4.16,4.16,0,0,1,3.34,0Zm-2.93.8a2.81,2.81,0,0,0-.91.8,3.58,3.58,0,0,0-.54,1.13,4.47,4.47,0,0,0,0,2.58,3.53,3.53,0,0,0,.54,1.12,2.6,2.6,0,0,0,.91.8,2.72,2.72,0,0,0,2.52,0,2.6,2.6,0,0,0,.91-.8,3.53,3.53,0,0,0,.54-1.12,4.47,4.47,0,0,0,0-2.58,3.58,3.58,0,0,0-.54-1.13,2.81,2.81,0,0,0-.91-.8,2.8,2.8,0,0,0-2.52,0Z" transform="translate(-12.29 -229.49)"/><path class="cls-6" d="M164.4,305.11l2.59,7.25h0l2.56-7.25h1l-3.08,8.26h-1.08l-3.18-8.26Z" transform="translate(-12.29 -229.49)"/><path class="cls-6" d="M172.36,310.64a3,3,0,0,0,.49,1.05,2.67,2.67,0,0,0,.84.76,2.35,2.35,0,0,0,1.24.31,2.4,2.4,0,0,0,1.72-.58,3,3,0,0,0,.87-1.53h1a4,4,0,0,1-1.18,2.17,3.51,3.51,0,0,1-2.42.77,3.83,3.83,0,0,1-1.69-.34,3.1,3.1,0,0,1-1.16-.95,4.18,4.18,0,0,1-.67-1.39,6.48,6.48,0,0,1-.21-1.67,6.11,6.11,0,0,1,.21-1.6,4.43,4.43,0,0,1,.67-1.4,3.29,3.29,0,0,1,1.16-1,3.57,3.57,0,0,1,1.69-.38,3.33,3.33,0,0,1,1.69.4,3.52,3.52,0,0,1,1.15,1.05,4.44,4.44,0,0,1,.63,1.49,6.46,6.46,0,0,1,.16,1.7h-6.35A4.56,4.56,0,0,0,172.36,310.64Zm5-3.08a3.07,3.07,0,0,0-.52-.94A2.49,2.49,0,0,0,176,306a2.26,2.26,0,0,0-1.08-.25,2.33,2.33,0,0,0-1.11.25,2.45,2.45,0,0,0-.81.65,3.05,3.05,0,0,0-.54.95,4.56,4.56,0,0,0-.26,1.09h5.34A3.69,3.69,0,0,0,177.35,307.56Z" transform="translate(-12.29 -229.49)"/><path class="cls-6" d="M23.71,321.11V322H22v5.57a1.76,1.76,0,0,0,.14.77c.09.19.32.29.68.31a8.12,8.12,0,0,0,.86,0v.84l-.44,0-.45,0a2,2,0,0,1-1.41-.4,1.94,1.94,0,0,1-.39-1.44V322H19.58v-.85H21v-2.48h1v2.48Z" transform="translate(-12.29 -229.49)"/><path class="cls-6" d="M26.16,317.94v4.59h0a2.4,2.4,0,0,1,1-1.2,3,3,0,0,1,1.61-.46,4.3,4.3,0,0,1,1.45.22,2.2,2.2,0,0,1,1.43,1.64,5.32,5.32,0,0,1,.15,1.32v5.32h-1v-5.16a4.34,4.34,0,0,0-.1-1,2,2,0,0,0-.33-.79,1.62,1.62,0,0,0-.65-.53,2.35,2.35,0,0,0-1-.19,2.67,2.67,0,0,0-1.08.21,2.51,2.51,0,0,0-.8.6,2.69,2.69,0,0,0-.51.89,3.77,3.77,0,0,0-.2,1.13v4.82h-1V317.94Z" transform="translate(-12.29 -229.49)"/><path class="cls-6" d="M34.5,326.64a3.38,3.38,0,0,0,.49,1.05,2.82,2.82,0,0,0,.85.76,2.29,2.29,0,0,0,1.23.31,2.43,2.43,0,0,0,1.73-.58,3,3,0,0,0,.86-1.53h1a4,4,0,0,1-1.17,2.17,3.52,3.52,0,0,1-2.43.77,3.86,3.86,0,0,1-1.69-.34,3.18,3.18,0,0,1-1.16-.95,4.16,4.16,0,0,1-.66-1.39,6.48,6.48,0,0,1-.22-1.67,6.12,6.12,0,0,1,.22-1.6,4.41,4.41,0,0,1,.66-1.4,3.38,3.38,0,0,1,1.16-1,3.6,3.6,0,0,1,1.69-.38,3.25,3.25,0,0,1,2.84,1.45,4.07,4.07,0,0,1,.63,1.49,6.06,6.06,0,0,1,.16,1.7H34.35A4.56,4.56,0,0,0,34.5,326.64Zm5-3.08a3.3,3.3,0,0,0-.52-.94,2.59,2.59,0,0,0-.82-.65,2.28,2.28,0,0,0-1.09-.25A2.32,2.32,0,0,0,36,322a2.59,2.59,0,0,0-.82.65,3.24,3.24,0,0,0-.53.95,4.58,4.58,0,0,0-.27,1.09H39.7A3.69,3.69,0,0,0,39.5,323.56Z" transform="translate(-12.29 -229.49)"/><path class="cls-6" d="M46.82,322.72a1.75,1.75,0,0,0-.47-.57,2,2,0,0,0-.68-.33,3.38,3.38,0,0,0-1.5,0,2.17,2.17,0,0,0-.63.24,1.41,1.41,0,0,0-.47.44,1.28,1.28,0,0,0-.17.67.94.94,0,0,0,.16.57,1.45,1.45,0,0,0,.43.39,2.63,2.63,0,0,0,.56.27,5.48,5.48,0,0,0,.56.16l1.34.31a3.78,3.78,0,0,1,.86.23,2.79,2.79,0,0,1,.75.44,2.22,2.22,0,0,1,.54.67,2,2,0,0,1,.21.95,2.09,2.09,0,0,1-.31,1.14,2.46,2.46,0,0,1-.77.77,3.15,3.15,0,0,1-1.07.42,5.18,5.18,0,0,1-1.17.13,3.8,3.8,0,0,1-2.36-.69,3,3,0,0,1-1-2.21h1a2,2,0,0,0,.74,1.55,2.7,2.7,0,0,0,1.69.52,4,4,0,0,0,.76-.08,2.55,2.55,0,0,0,.73-.27,1.73,1.73,0,0,0,.55-.49,1.17,1.17,0,0,0,.22-.73,1.21,1.21,0,0,0-.15-.62,1.46,1.46,0,0,0-.41-.41,2.48,2.48,0,0,0-.59-.28,5.46,5.46,0,0,0-.66-.19l-1.3-.29a8.83,8.83,0,0,1-.91-.3,3,3,0,0,1-.73-.41,1.94,1.94,0,0,1-.49-.61,2.14,2.14,0,0,1-.17-.89,1.94,1.94,0,0,1,.28-1.07,2.18,2.18,0,0,1,.73-.72,3.27,3.27,0,0,1,1-.4,4.57,4.57,0,0,1,1.09-.13,3.87,3.87,0,0,1,1.16.16,2.62,2.62,0,0,1,1,.5,2.55,2.55,0,0,1,.65.83,3.15,3.15,0,0,1,.27,1.17H47A2,2,0,0,0,46.82,322.72Z" transform="translate(-12.29 -229.49)"/><path class="cls-6" d="M50.5,326.64a3.38,3.38,0,0,0,.49,1.05,2.82,2.82,0,0,0,.85.76,2.29,2.29,0,0,0,1.23.31,2.43,2.43,0,0,0,1.73-.58,3,3,0,0,0,.86-1.53h1a4,4,0,0,1-1.17,2.17,3.52,3.52,0,0,1-2.43.77,3.86,3.86,0,0,1-1.69-.34,3.18,3.18,0,0,1-1.16-.95,4.16,4.16,0,0,1-.66-1.39,6.48,6.48,0,0,1-.22-1.67,6.12,6.12,0,0,1,.22-1.6,4.41,4.41,0,0,1,.66-1.4,3.38,3.38,0,0,1,1.16-1,3.6,3.6,0,0,1,1.69-.38,3.25,3.25,0,0,1,2.84,1.45,4.07,4.07,0,0,1,.63,1.49,6.06,6.06,0,0,1,.16,1.7H50.35A4.56,4.56,0,0,0,50.5,326.64Zm5-3.08a3.3,3.3,0,0,0-.52-.94,2.59,2.59,0,0,0-.82-.65,2.28,2.28,0,0,0-1.09-.25A2.32,2.32,0,0,0,52,322a2.59,2.59,0,0,0-.82.65,3.24,3.24,0,0,0-.53.95,4.58,4.58,0,0,0-.27,1.09H55.7A3.69,3.69,0,0,0,55.5,323.56Z" transform="translate(-12.29 -229.49)"/><path class="cls-6" d="M62.72,322.39a2.28,2.28,0,0,1,.7-.86,2.83,2.83,0,0,1,1-.5,4.85,4.85,0,0,1,1.31-.16,6.7,6.7,0,0,1,1.09.1,2.57,2.57,0,0,1,1,.4,2.19,2.19,0,0,1,.7.8,3,3,0,0,1,.27,1.36v4.38a.53.53,0,0,0,.59.61.66.66,0,0,0,.32-.07v.85l-.31.05-.34,0a1.53,1.53,0,0,1-.62-.11.94.94,0,0,1-.36-.29,1.26,1.26,0,0,1-.17-.46,5.11,5.11,0,0,1,0-.58h0a7,7,0,0,1-.55.71,3,3,0,0,1-.62.52,3.11,3.11,0,0,1-.79.32,4.51,4.51,0,0,1-1,.11,3.81,3.81,0,0,1-1.08-.14,2.41,2.41,0,0,1-.88-.43,2.1,2.1,0,0,1-.59-.75,2.54,2.54,0,0,1-.21-1.08,2.09,2.09,0,0,1,.38-1.35,2.45,2.45,0,0,1,1-.75,5.78,5.78,0,0,1,1.42-.36l1.61-.2a4,4,0,0,0,.56-.08,1,1,0,0,0,.4-.16.85.85,0,0,0,.25-.33,1.64,1.64,0,0,0,.08-.55,1.75,1.75,0,0,0-.17-.84,1.36,1.36,0,0,0-.46-.52,2.11,2.11,0,0,0-.69-.26,4.46,4.46,0,0,0-.84-.07,2.53,2.53,0,0,0-1.56.45,1.79,1.79,0,0,0-.64,1.47h-1A3.33,3.33,0,0,1,62.72,322.39Zm5,2.46a.56.56,0,0,1-.37.26,4,4,0,0,1-.48.11c-.42.08-.86.14-1.32.2a7.31,7.31,0,0,0-1.24.27,2.33,2.33,0,0,0-.92.5,1.21,1.21,0,0,0-.36.94,1.39,1.39,0,0,0,.16.68,1.77,1.77,0,0,0,.4.51,1.93,1.93,0,0,0,.6.33,2.25,2.25,0,0,0,.68.11,3.4,3.4,0,0,0,1.11-.18,2.66,2.66,0,0,0,.92-.51,2.41,2.41,0,0,0,.62-.82,2.38,2.38,0,0,0,.23-1.08v-1.32Z" transform="translate(-12.29 -229.49)"/><path class="cls-6" d="M74.1,321.11V322H72.42v5.57a1.78,1.78,0,0,0,.13.77c.09.19.32.29.68.31a8.44,8.44,0,0,0,.87,0v.84l-.45,0-.45,0a2,2,0,0,1-1.41-.4,2,2,0,0,1-.38-1.44V322H70v-.85h1.44v-2.48h1v2.48Z" transform="translate(-12.29 -229.49)"/><path class="cls-6" d="M80.21,322.39a2.35,2.35,0,0,1,.69-.86,3,3,0,0,1,1-.5,4.85,4.85,0,0,1,1.31-.16,6.8,6.8,0,0,1,1.09.1,2.53,2.53,0,0,1,1,.4,2.22,2.22,0,0,1,.71.8,3,3,0,0,1,.27,1.36v4.38a.53.53,0,0,0,.59.61.68.68,0,0,0,.32-.07v.85l-.31.05-.35,0a1.48,1.48,0,0,1-.61-.11.81.81,0,0,1-.36-.29,1.1,1.1,0,0,1-.17-.46,3.52,3.52,0,0,1,0-.58h0a8.78,8.78,0,0,1-.55.71,2.81,2.81,0,0,1-.63.52,3,3,0,0,1-.78.32,4.51,4.51,0,0,1-1.05.11,3.81,3.81,0,0,1-1.08-.14,2.34,2.34,0,0,1-.88-.43,2,2,0,0,1-.59-.75,2.39,2.39,0,0,1-.22-1.08,2.09,2.09,0,0,1,.39-1.35,2.42,2.42,0,0,1,1-.75,5.87,5.87,0,0,1,1.43-.36l1.6-.2a3.76,3.76,0,0,0,.56-.08.91.91,0,0,0,.4-.16.76.76,0,0,0,.25-.33,1.4,1.4,0,0,0,.09-.55,1.87,1.87,0,0,0-.17-.84,1.36,1.36,0,0,0-.46-.52,2.11,2.11,0,0,0-.69-.26,4.46,4.46,0,0,0-.84-.07,2.58,2.58,0,0,0-1.57.45,1.82,1.82,0,0,0-.64,1.47h-1A3.53,3.53,0,0,1,80.21,322.39Zm5,2.46a.58.58,0,0,1-.37.26,4,4,0,0,1-.48.11c-.43.08-.87.14-1.32.2a7.1,7.1,0,0,0-1.24.27,2.33,2.33,0,0,0-.92.5,1.21,1.21,0,0,0-.36.94,1.51,1.51,0,0,0,.15.68,1.81,1.81,0,0,0,.41.51,2,2,0,0,0,.59.33,2.37,2.37,0,0,0,.69.11,3.38,3.38,0,0,0,1.1-.18,2.57,2.57,0,0,0,.92-.51,2.43,2.43,0,0,0,.63-.82,2.52,2.52,0,0,0,.23-1.08v-1.32Z" transform="translate(-12.29 -229.49)"/><path class="cls-6" d="M89.3,321.11v1.42h0a2.38,2.38,0,0,1,1-1.2,3,3,0,0,1,1.62-.46,4.34,4.34,0,0,1,1.45.22,2.18,2.18,0,0,1,.93.64,2.3,2.3,0,0,1,.5,1,5.87,5.87,0,0,1,.14,1.32v5.32H94v-5.16a5,5,0,0,0-.09-1,2.18,2.18,0,0,0-.34-.79,1.56,1.56,0,0,0-.65-.53,2.33,2.33,0,0,0-1-.19,2.6,2.6,0,0,0-1.08.21,2.41,2.41,0,0,0-.8.6,2.69,2.69,0,0,0-.51.89,3.48,3.48,0,0,0-.2,1.13v4.82h-1v-8.26Z" transform="translate(-12.29 -229.49)"/><path class="cls-6" d="M97,321.11l2.72,7,2.54-7h1l-3.58,9.5a8.28,8.28,0,0,1-.42.88,2,2,0,0,1-.42.54,1.53,1.53,0,0,1-.55.29,2.86,2.86,0,0,1-.79.09l-.47,0a.94.94,0,0,1-.3-.05v-.85l.35,0a1.87,1.87,0,0,0,.34,0,1.23,1.23,0,0,0,.55-.1,1.12,1.12,0,0,0,.38-.26,1.33,1.33,0,0,0,.27-.41c.08-.16.16-.34.24-.53l.35-.93L96,321.11Z" transform="translate(-12.29 -229.49)"/><path class="cls-6" d="M112,321.11V322h-1.68v5.57a1.76,1.76,0,0,0,.14.77c.09.19.32.29.68.31a8.25,8.25,0,0,0,.86,0v.84l-.45,0-.44,0a1.5,1.5,0,0,1-1.8-1.84V322H107.9v-.85h1.44v-2.48h1v2.48Z" transform="translate(-12.29 -229.49)"/><path class="cls-6" d="M114.51,317.94v1.62h-1v-1.62Zm0,3.17v8.26h-1v-8.26Z" transform="translate(-12.29 -229.49)"/><path class="cls-6" d="M117.38,321.11v1.39h0a3.24,3.24,0,0,1,1-1.2,2.93,2.93,0,0,1,1.66-.43,2.79,2.79,0,0,1,1.48.4,2,2,0,0,1,.89,1.22,2.49,2.49,0,0,1,1.08-1.22,3.1,3.1,0,0,1,1.54-.4c1.82,0,2.74,1,2.74,2.9v5.6h-1v-5.56a2.5,2.5,0,0,0-.43-1.56,1.89,1.89,0,0,0-1.52-.53,2.12,2.12,0,0,0-1.09.25,1.82,1.82,0,0,0-.69.66,2.93,2.93,0,0,0-.36.95,5.8,5.8,0,0,0-.1,1.11v4.68h-1v-5.6a3.5,3.5,0,0,0-.09-.8,1.75,1.75,0,0,0-.29-.65,1.35,1.35,0,0,0-.53-.44,1.88,1.88,0,0,0-.82-.16,2.53,2.53,0,0,0-1.11.23,2.1,2.1,0,0,0-.77.64,2.83,2.83,0,0,0-.44,1,4.62,4.62,0,0,0-.14,1.21v4.61h-1v-8.26Z" transform="translate(-12.29 -229.49)"/><path class="cls-6" d="M130.52,326.64a3,3,0,0,0,.49,1.05,2.6,2.6,0,0,0,.85.76,2.29,2.29,0,0,0,1.23.31,2.45,2.45,0,0,0,1.73-.58,3,3,0,0,0,.86-1.53h1a4,4,0,0,1-1.18,2.17,3.51,3.51,0,0,1-2.42.77,3.83,3.83,0,0,1-1.69-.34,3.18,3.18,0,0,1-1.16-.95,4,4,0,0,1-.66-1.39,6.07,6.07,0,0,1-.22-1.67,5.72,5.72,0,0,1,.22-1.6,4.2,4.2,0,0,1,.66-1.4,3.38,3.38,0,0,1,1.16-1,3.57,3.57,0,0,1,1.69-.38,3.33,3.33,0,0,1,1.69.4,3.52,3.52,0,0,1,1.15,1.05,4.44,4.44,0,0,1,.63,1.49,6.46,6.46,0,0,1,.16,1.7h-6.35A4.56,4.56,0,0,0,130.52,326.64Zm5-3.08a2.87,2.87,0,0,0-.52-.94,2.45,2.45,0,0,0-.81-.65,2.3,2.3,0,0,0-1.09-.25A2.33,2.33,0,0,0,132,322a2.45,2.45,0,0,0-.81.65,3.26,3.26,0,0,0-.54.95,4.56,4.56,0,0,0-.26,1.09h5.34A3.69,3.69,0,0,0,135.51,323.56Z" transform="translate(-12.29 -229.49)"/><path class="cls-6" d="M138.67,327.67H140v1.7h-1.35Z" transform="translate(-12.29 -229.49)"/></g></svg>