<svg xmlns="http://www.w3.org/2000/svg" viewBox="0 0 254.21 134"><defs><style>.cls-1,.cls-6{fill:#007681;}.cls-1{opacity:0.6;}.cls-2{fill:#e6eff3;stroke:#279989;stroke-miterlimit:10;}.cls-3{opacity:0.2;}.cls-4{fill:#279989;}.cls-5{fill:#f2f2f2;}</style></defs><g id="Layer_20" data-name="Layer 20"><path class="cls-1" d="M294.82,674.42,83.11,668c-3.52-.11-6.3-3.79-6.2-8.22L79.2,550.65c.09-4.21,2.93-7.59,6.36-7.55l205.89,2.4c3.65,0,6.71,3.6,6.83,8l3.11,112.87C301.52,670.91,298.58,674.54,294.82,674.42Z" transform="translate(-47.19 -540.43)"/><rect class="cls-2" x="23.08" y="0.5" width="225.96" height="124.36" rx="7.47"/><g class="cls-3"><polygon points="12.43 93.74 2.87 77.17 12.43 60.6 31.57 60.6 41.13 77.17 31.57 93.74 12.43 93.74"/><path d="M78.32,601.78l9.13,15.82-9.13,15.82H60.05L50.92,617.6l9.13-15.82H78.32m.87-1.5h-20l-10,17.32,10,17.32h20l10-17.32-10-17.32Z" transform="translate(-47.19 -540.43)"/></g><polygon class="cls-4" points="10.43 91.74 0.87 75.17 10.43 58.6 29.57 58.6 39.13 75.17 29.57 91.74 10.43 91.74"/><path class="cls-5" d="M76.32,599.78l9.13,15.82-9.13,15.82H58.05L48.92,615.6l9.13-15.82H76.32m.87-1.5h-20l-10,17.32,10,17.32h20l10-17.32-10-17.32Z" transform="translate(-47.19 -540.43)"/><path class="cls-5" d="M67.25,607.57H71v11.18h1.69v2.79H71v3.66H67.67v-3.66H61.39V618.6Zm.37,4.48-3.44,6.7h3.49v-6.7Z" transform="translate(-47.19 -540.43)"/><path class="cls-6" d="M91.16,551a5.33,5.33,0,0,1,.53-1.88,2.93,2.93,0,0,1,1.17-1.22,5.07,5.07,0,0,1,4.13,0,3,3,0,0,1,1.18,1.22A5.33,5.33,0,0,1,98.7,551a24,24,0,0,1,0,4.79,5.27,5.27,0,0,1-.53,1.87,2.74,2.74,0,0,1-1.18,1.2,5.29,5.29,0,0,1-4.13,0,2.72,2.72,0,0,1-1.17-1.2,5.27,5.27,0,0,1-.53-1.87,24,24,0,0,1,0-4.79Zm2.24,4.35a5.62,5.62,0,0,0,.22,1.31,1.54,1.54,0,0,0,.48.74,1.41,1.41,0,0,0,.83.23,1.37,1.37,0,0,0,.82-.23,1.41,1.41,0,0,0,.48-.74,5.55,5.55,0,0,0,.23-1.31c0-.54.05-1.19.05-2s0-1.42-.05-1.95a5.76,5.76,0,0,0-.23-1.31,1.48,1.48,0,0,0-.48-.75,1.37,1.37,0,0,0-.82-.23,1.41,1.41,0,0,0-.83.23,1.63,1.63,0,0,0-.48.75,5.81,5.81,0,0,0-.22,1.31q-.06.79-.06,1.95C93.34,554.19,93.36,554.84,93.4,555.38Z" transform="translate(-47.19 -540.43)"/><path class="cls-6" d="M102.22,550.53v1.15h0a3,3,0,0,1,.81-1,1.85,1.85,0,0,1,1.17-.38h.2l.2,0v2.12l-.34,0H104a2.24,2.24,0,0,0-.57.08,1.66,1.66,0,0,0-.53.27,1.33,1.33,0,0,0-.39.48,1.76,1.76,0,0,0-.14.73v5.16h-2.21v-8.6Z" transform="translate(-47.19 -540.43)"/><path class="cls-6" d="M111.89,558.7a3.43,3.43,0,0,1-.83,2.5,3.81,3.81,0,0,1-2.76.83,3.41,3.41,0,0,1-2.16-.6,2,2,0,0,1-.76-1.7h2.11a.77.77,0,0,0,.33.65,1.66,1.66,0,0,0,.35.18,1.23,1.23,0,0,0,.39.06,1,1,0,0,0,.94-.43,1.92,1.92,0,0,0,.28-1.07V558h0a2.51,2.51,0,0,1-.82.77,2,2,0,0,1-1,.29,2.22,2.22,0,0,1-2-1,6.35,6.35,0,0,1-.67-3.35,13.38,13.38,0,0,1,.09-1.54,4.86,4.86,0,0,1,.37-1.42,2.59,2.59,0,0,1,.82-1,2.36,2.36,0,0,1,1.43-.4,2.1,2.1,0,0,1,1,.26,1.89,1.89,0,0,1,.81.93h0v-1h2.11ZM107.51,556a2.85,2.85,0,0,0,.16.71,1.14,1.14,0,0,0,.34.5.85.85,0,0,0,.57.18.91.91,0,0,0,.58-.18,1.25,1.25,0,0,0,.37-.51,3,3,0,0,0,.19-.77,7.79,7.79,0,0,0,.06-1,7.16,7.16,0,0,0-.25-2.23.92.92,0,0,0-.91-.65,1,1,0,0,0-.59.16,1,1,0,0,0-.35.52,3.61,3.61,0,0,0-.17,1c0,.4,0,.89,0,1.46C107.47,555.4,107.49,555.68,107.51,556Z" transform="translate(-47.19 -540.43)"/><path class="cls-6" d="M113.42,553a3,3,0,0,1,.24-1.26,2.18,2.18,0,0,1,.65-.81,2.51,2.51,0,0,1,1-.45,5,5,0,0,1,1.18-.14,5.78,5.78,0,0,1,1.6.19,2.15,2.15,0,0,1,.94.55,1.74,1.74,0,0,1,.46.84,4.41,4.41,0,0,1,.12,1.06v4.53a7.22,7.22,0,0,0,.05.94,3.1,3.1,0,0,0,.22.72h-2.11a1.55,1.55,0,0,1-.17-.44c0-.15-.07-.3-.1-.45h0a1.83,1.83,0,0,1-.88.87,3.68,3.68,0,0,1-1.31.2,2.18,2.18,0,0,1-1-.2,1.64,1.64,0,0,1-.64-.55,2.7,2.7,0,0,1-.36-.79,3.85,3.85,0,0,1-.11-.88,3.56,3.56,0,0,1,.13-1,2.18,2.18,0,0,1,.39-.76,2.35,2.35,0,0,1,.67-.52,5.61,5.61,0,0,1,1-.36l1.25-.34a1.3,1.3,0,0,0,.68-.35,1,1,0,0,0,.2-.66,1.13,1.13,0,0,0-.24-.77,1,1,0,0,0-.79-.28,1,1,0,0,0-.77.3,1.22,1.22,0,0,0-.25.82v.24h-2Zm3.56,2.15a2.79,2.79,0,0,1-.47.15,1.73,1.73,0,0,0-1,.48,1.38,1.38,0,0,0-.29.91,1.72,1.72,0,0,0,.2.85.65.65,0,0,0,.64.35,1.51,1.51,0,0,0,.46-.07,1.24,1.24,0,0,0,.44-.23,1.28,1.28,0,0,0,.46-1v-1.7A1.94,1.94,0,0,1,117,555.11Z" transform="translate(-47.19 -540.43)"/><path class="cls-6" d="M123.25,550.53v1h0a2.21,2.21,0,0,1,.91-.93,2.66,2.66,0,0,1,1.28-.3,2.17,2.17,0,0,1,1.63.58,2.63,2.63,0,0,1,.56,1.87v6.38h-2.2V553.2a1.48,1.48,0,0,0-.23-.94.92.92,0,0,0-.72-.26c-.78,0-1.17.47-1.17,1.42v5.71h-2.2v-8.6Z" transform="translate(-47.19 -540.43)"/><path class="cls-6" d="M131.42,547.58v1.89h-2.2v-1.89Zm0,2.95v8.6h-2.2v-8.6Z" transform="translate(-47.19 -540.43)"/><path class="cls-6" d="M136.06,552.32h-3.28v-1.79h5.89v1.69l-3.44,5.12h3.44v1.79h-6v-1.69Z" transform="translate(-47.19 -540.43)"/><path class="cls-6" d="M139.78,553a3,3,0,0,1,.24-1.26,2.16,2.16,0,0,1,.64-.81,2.65,2.65,0,0,1,1-.45,5,5,0,0,1,1.18-.14,5.78,5.78,0,0,1,1.6.19,2.15,2.15,0,0,1,.94.55,1.74,1.74,0,0,1,.46.84,4.41,4.41,0,0,1,.12,1.06v4.53a5.57,5.57,0,0,0,.06.94,2.64,2.64,0,0,0,.21.72h-2.11a1.55,1.55,0,0,1-.17-.44c0-.15-.07-.3-.1-.45h0a1.89,1.89,0,0,1-.89.87,3.68,3.68,0,0,1-1.31.2,2.18,2.18,0,0,1-1-.2,1.64,1.64,0,0,1-.64-.55,2.45,2.45,0,0,1-.35-.79,3.39,3.39,0,0,1-.12-.88,3.93,3.93,0,0,1,.13-1,2.18,2.18,0,0,1,.39-.76,2.27,2.27,0,0,1,.68-.52,5.49,5.49,0,0,1,1-.36l1.25-.34a1.38,1.38,0,0,0,.69-.35,1,1,0,0,0,.19-.66,1.18,1.18,0,0,0-.23-.77,1,1,0,0,0-.8-.28.94.94,0,0,0-.76.3,1.17,1.17,0,0,0-.26.82v.24h-2Zm3.55,2.15a2.79,2.79,0,0,1-.47.15,1.81,1.81,0,0,0-1,.48,1.38,1.38,0,0,0-.28.91,1.72,1.72,0,0,0,.19.85.66.66,0,0,0,.64.35,1.51,1.51,0,0,0,.46-.07,1.24,1.24,0,0,0,.44-.23,1.4,1.4,0,0,0,.33-.42,1.26,1.26,0,0,0,.13-.6v-1.7A1.94,1.94,0,0,1,143.33,555.11Z" transform="translate(-47.19 -540.43)"/><path class="cls-6" d="M150.18,548.06v2.47h1.28V552h-1.28v4.66a1.29,1.29,0,0,0,.15.72c.1.15.31.22.63.22h.26l.24,0v1.53q-.37,0-.72,0l-.72,0a5,5,0,0,1-1.05-.09,1,1,0,0,1-.63-.35,1.5,1.5,0,0,1-.29-.69A5.58,5.58,0,0,1,148,557V552h-1.12v-1.5H148v-2.47Z" transform="translate(-47.19 -540.43)"/><path class="cls-6" d="M154.51,547.58v1.89H152.3v-1.89Zm0,2.95v8.6H152.3v-8.6Z" transform="translate(-47.19 -540.43)"/><path class="cls-6" d="M156,552.88a3.75,3.75,0,0,1,.58-1.42,2.4,2.4,0,0,1,1.05-.86,3.76,3.76,0,0,1,1.59-.3,3.94,3.94,0,0,1,1.64.27,2.24,2.24,0,0,1,1,.85,3.85,3.85,0,0,1,.55,1.43,10.43,10.43,0,0,1,.16,2,9.38,9.38,0,0,1-.18,1.95,3.74,3.74,0,0,1-.57,1.42,2.4,2.4,0,0,1-1.05.84,4.13,4.13,0,0,1-1.59.27,4.22,4.22,0,0,1-1.65-.25,2.19,2.19,0,0,1-1-.83,3.57,3.57,0,0,1-.54-1.42,10.58,10.58,0,0,1-.16-2A9.43,9.43,0,0,1,156,552.88Zm2.07,3.17a4.21,4.21,0,0,0,.15,1,1.4,1.4,0,0,0,.36.62.89.89,0,0,0,.64.22.94.94,0,0,0,.93-.7,10.89,10.89,0,0,0,0-4.64.94.94,0,0,0-.93-.7.89.89,0,0,0-.64.22,1.4,1.4,0,0,0-.36.62,4.21,4.21,0,0,0-.15,1c0,.38,0,.78,0,1.22S158,555.67,158,556.05Z" transform="translate(-47.19 -540.43)"/><path class="cls-6" d="M165.85,550.53v1h0a2.21,2.21,0,0,1,.91-.93,2.66,2.66,0,0,1,1.28-.3,2.16,2.16,0,0,1,1.62.58,2.58,2.58,0,0,1,.57,1.87v6.38h-2.21V553.2a1.49,1.49,0,0,0-.22-.94.92.92,0,0,0-.72-.26c-.78,0-1.17.47-1.17,1.42v5.71h-2.21v-8.6Z" transform="translate(-47.19 -540.43)"/><path class="cls-6" d="M177.87,547.58v1.89h-2.21v-1.89Zm0,2.95v8.6h-2.21v-8.6Z" transform="translate(-47.19 -540.43)"/><path class="cls-6" d="M181,556.61a1.37,1.37,0,0,0,.29.9,1.08,1.08,0,0,0,.86.34,1.25,1.25,0,0,0,.82-.25,1,1,0,0,0,.3-.77.79.79,0,0,0-.24-.63,1.89,1.89,0,0,0-.56-.35l-1.55-.56a2.92,2.92,0,0,1-1.38-.9,2.33,2.33,0,0,1-.46-1.5,3,3,0,0,1,.17-1,2.18,2.18,0,0,1,.56-.82,2.79,2.79,0,0,1,1-.56,4.4,4.4,0,0,1,1.45-.21,3.3,3.3,0,0,1,2.22.64,2.3,2.3,0,0,1,.72,1.81v.35h-2a1.77,1.77,0,0,0-.22-1,.85.85,0,0,0-.76-.31,1.16,1.16,0,0,0-.73.23.79.79,0,0,0-.31.69.93.93,0,0,0,.2.58,1.56,1.56,0,0,0,.76.43l1.33.45a3,3,0,0,1,1.47.92,2.47,2.47,0,0,1,.43,1.54,2.79,2.79,0,0,1-.24,1.2,2.47,2.47,0,0,1-.66.84,2.71,2.71,0,0,1-1,.48,5.73,5.73,0,0,1-1.29.14,5.56,5.56,0,0,1-1.54-.18,2.24,2.24,0,0,1-1-.52,1.87,1.87,0,0,1-.5-.86,4,4,0,0,1-.15-1.13v-.3h2Z" transform="translate(-47.19 -540.43)"/><path class="cls-6" d="M192.65,553.74h0l2.22-3.21h2.43l-2.48,3.39,2.85,5.21h-2.43l-1.84-3.53-.79,1v2.51h-2.2V547.71h2.2Z" transform="translate(-47.19 -540.43)"/><path class="cls-6" d="M200.25,555.85a4.56,4.56,0,0,0,.06.75,2.84,2.84,0,0,0,.18.64,1.41,1.41,0,0,0,.34.45.8.8,0,0,0,.51.16.89.89,0,0,0,.82-.4,2.86,2.86,0,0,0,.35-1.21h2a3.46,3.46,0,0,1-.8,2.29,3.05,3.05,0,0,1-2.32.78,3.63,3.63,0,0,1-1.87-.4,2.46,2.46,0,0,1-1-1.06,4.19,4.19,0,0,1-.39-1.47c-.05-.54-.07-1.09-.07-1.63a11.08,11.08,0,0,1,.12-1.66,4,4,0,0,1,.48-1.43,2.66,2.66,0,0,1,1-1,3.67,3.67,0,0,1,1.79-.37,3.61,3.61,0,0,1,1.58.31,2.4,2.4,0,0,1,1,.88,3.52,3.52,0,0,1,.48,1.38,11,11,0,0,1,.13,1.8v.5h-4.37Zm2.2-2.87a2.58,2.58,0,0,0-.17-.64.89.89,0,0,0-.34-.4,1,1,0,0,0-.55-.13.94.94,0,0,0-.55.15,1,1,0,0,0-.35.4,2.22,2.22,0,0,0-.18.55,3.15,3.15,0,0,0-.06.61v.33h2.26Q202.5,553.36,202.45,553Z" transform="translate(-47.19 -540.43)"/><path class="cls-6" d="M206.35,560.3a1,1,0,0,0,.87-.32,1.45,1.45,0,0,0,.31-.85l-2.41-8.6h2.3l1.28,6h0l1.12-6h2.21l-2.08,8a15,15,0,0,1-.55,1.73,3,3,0,0,1-.62,1,1.77,1.77,0,0,1-.87.47,6.3,6.3,0,0,1-1.27.11h-.9v-1.65A2.9,2.9,0,0,0,206.35,560.3Z" transform="translate(-47.19 -540.43)"/><path class="cls-6" d="M90.34,563.71h1.28l3.76,5.79,3.74-5.79h1.3l-4.52,6.72v4.7H94.82v-4.7Z" transform="translate(-47.19 -540.43)"/><path class="cls-6" d="M104.9,567a3.6,3.6,0,0,1,1.23.94,4.14,4.14,0,0,1,.75,1.39,5.49,5.49,0,0,1,.26,1.69,5.42,5.42,0,0,1-.26,1.68,4.14,4.14,0,0,1-.75,1.39,3.58,3.58,0,0,1-1.23.93,4.16,4.16,0,0,1-3.34,0,3.54,3.54,0,0,1-1.22-.93,4.16,4.16,0,0,1-.76-1.39,5.42,5.42,0,0,1-.25-1.68,5.48,5.48,0,0,1,.25-1.69,4.16,4.16,0,0,1,.76-1.39,3.56,3.56,0,0,1,1.22-.94,4.16,4.16,0,0,1,3.34,0Zm-2.93.8a2.8,2.8,0,0,0-.91.8,3.58,3.58,0,0,0-.54,1.13,4.68,4.68,0,0,0,0,2.57,3.58,3.58,0,0,0,.54,1.13,2.8,2.8,0,0,0,.91.8,2.56,2.56,0,0,0,1.26.31,2.62,2.62,0,0,0,1.27-.31,2.77,2.77,0,0,0,.9-.8,3.58,3.58,0,0,0,.54-1.13,4.44,4.44,0,0,0,0-2.57,3.58,3.58,0,0,0-.54-1.13,2.77,2.77,0,0,0-.9-.8,2.62,2.62,0,0,0-1.27-.3A2.55,2.55,0,0,0,102,567.79Z" transform="translate(-47.19 -540.43)"/><path class="cls-6" d="M114.4,575.13v-1.48h0a2.92,2.92,0,0,1-1.16,1.27,3.35,3.35,0,0,1-1.69.44,3.58,3.58,0,0,1-1.34-.22,2.28,2.28,0,0,1-.89-.61,2.61,2.61,0,0,1-.51-1,5.16,5.16,0,0,1-.16-1.31v-5.36h1v5.37a2.71,2.71,0,0,0,.52,1.7,2.14,2.14,0,0,0,1.69.58,2.19,2.19,0,0,0,1.12-.28,2.4,2.4,0,0,0,.77-.75,3.5,3.5,0,0,0,.45-1.06,5.59,5.59,0,0,0,.14-1.23v-4.33h1v8.25Z" transform="translate(-47.19 -540.43)"/><path class="cls-6" d="M118.16,566.88v1.93h0a3.23,3.23,0,0,1,1.19-1.55,3.1,3.1,0,0,1,1.93-.49v1a3,3,0,0,0-1.25.19,2.81,2.81,0,0,0-1,.61,2.74,2.74,0,0,0-.64,1,3.13,3.13,0,0,0-.22,1.2v4.4h-1v-8.25Z" transform="translate(-47.19 -540.43)"/><path class="cls-6" d="M127.65,566.88v1.57h0a2.73,2.73,0,0,1,1.14-1.34,3.41,3.41,0,0,1,1.8-.47,3.51,3.51,0,0,1,1.64.35,3.18,3.18,0,0,1,1.16,1,4.12,4.12,0,0,1,.69,1.39,6.21,6.21,0,0,1,0,3.35,4,4,0,0,1-.69,1.39,3.15,3.15,0,0,1-1.16.94,3.64,3.64,0,0,1-1.64.35,3.94,3.94,0,0,1-.89-.11,3.22,3.22,0,0,1-.83-.34,2.64,2.64,0,0,1-.68-.56,2.44,2.44,0,0,1-.46-.78h0v4.6h-1V566.88Zm5.53,2.85a3.42,3.42,0,0,0-.48-1.12,2.71,2.71,0,0,0-.84-.81,2.33,2.33,0,0,0-1.24-.31,3.08,3.08,0,0,0-1.39.28,2.48,2.48,0,0,0-.89.77,3.14,3.14,0,0,0-.48,1.12,6.58,6.58,0,0,0-.13,1.35,5.51,5.51,0,0,0,.15,1.27,3.31,3.31,0,0,0,.5,1.13,2.54,2.54,0,0,0,.89.8,2.7,2.7,0,0,0,1.35.32,2.33,2.33,0,0,0,1.24-.32,2.57,2.57,0,0,0,.84-.8,3.48,3.48,0,0,0,.48-1.13,5.51,5.51,0,0,0,.15-1.27A5.59,5.59,0,0,0,133.18,569.73Z" transform="translate(-47.19 -540.43)"/><path class="cls-6" d="M136.83,566.88v1.93h0a3.19,3.19,0,0,1,1.2-1.55,3.06,3.06,0,0,1,1.92-.49v1a2.94,2.94,0,0,0-1.24.19,2.76,2.76,0,0,0-1,.61,2.86,2.86,0,0,0-.63,1,3.13,3.13,0,0,0-.23,1.2v4.4h-1v-8.25Z" transform="translate(-47.19 -540.43)"/><path class="cls-6" d="M145.82,567a3.66,3.66,0,0,1,1.22.94,4.14,4.14,0,0,1,.75,1.39,5.49,5.49,0,0,1,.26,1.69,5.42,5.42,0,0,1-.26,1.68,4.14,4.14,0,0,1-.75,1.39,3.64,3.64,0,0,1-1.22.93,3.91,3.91,0,0,1-1.68.35,3.87,3.87,0,0,1-1.67-.35,3.64,3.64,0,0,1-1.22-.93,4.14,4.14,0,0,1-.75-1.39,5.42,5.42,0,0,1-.26-1.68,5.49,5.49,0,0,1,.26-1.69,4.14,4.14,0,0,1,.75-1.39,3.66,3.66,0,0,1,1.22-.94,3.73,3.73,0,0,1,1.67-.35A3.77,3.77,0,0,1,145.82,567Zm-2.94.8a2.77,2.77,0,0,0-.9.8,3.6,3.6,0,0,0-.55,1.13,4.68,4.68,0,0,0,0,2.57,3.6,3.6,0,0,0,.55,1.13,2.77,2.77,0,0,0,.9.8,2.56,2.56,0,0,0,1.26.31,2.6,2.6,0,0,0,1.27-.31,2.77,2.77,0,0,0,.9-.8,3.83,3.83,0,0,0,.55-1.13,4.68,4.68,0,0,0,0-2.57,3.83,3.83,0,0,0-.55-1.13,2.77,2.77,0,0,0-.9-.8,2.59,2.59,0,0,0-1.27-.3A2.55,2.55,0,0,0,142.88,567.79Z" transform="translate(-47.19 -540.43)"/><path class="cls-6" d="M150.58,566.88v9a5,5,0,0,1-.08.88,1.69,1.69,0,0,1-.27.72,1.37,1.37,0,0,1-.54.5,1.87,1.87,0,0,1-.87.18h-.35l-.34,0v-.83l.27,0h.26a.75.75,0,0,0,.75-.35,2.11,2.11,0,0,0,.16-.85v-9.25Zm0-3.17v1.62h-1v-1.62Z" transform="translate(-47.19 -540.43)"/><path class="cls-6" d="M153.26,572.41a3.19,3.19,0,0,0,.48,1,2.85,2.85,0,0,0,.85.77,2.39,2.39,0,0,0,1.23.31,2.46,2.46,0,0,0,1.73-.58,3,3,0,0,0,.87-1.54h1a4,4,0,0,1-1.17,2.18,3.52,3.52,0,0,1-2.43.77,3.79,3.79,0,0,1-1.68-.35,3,3,0,0,1-1.16-.94,4.18,4.18,0,0,1-.67-1.39,6.53,6.53,0,0,1-.21-1.67,6.11,6.11,0,0,1,.21-1.6A4.32,4.32,0,0,1,153,568a3.23,3.23,0,0,1,1.16-1,3.53,3.53,0,0,1,1.68-.37,3.34,3.34,0,0,1,1.7.4,3.2,3.2,0,0,1,1.14,1.05,4.21,4.21,0,0,1,.64,1.48,7,7,0,0,1,.16,1.71H153.1A4.16,4.16,0,0,0,153.26,572.41Zm5-3.08a3,3,0,0,0-.52-.94,2.77,2.77,0,0,0-.82-.66,2.39,2.39,0,0,0-1.09-.24,2.44,2.44,0,0,0-1.1.24,2.77,2.77,0,0,0-.82.66,3.32,3.32,0,0,0-.53.94,4.78,4.78,0,0,0-.27,1.1h5.35A3.69,3.69,0,0,0,158.25,569.33Z" transform="translate(-47.19 -540.43)"/><path class="cls-6" d="M165.87,568a2.19,2.19,0,0,0-1.57-.52,2.55,2.55,0,0,0-1.26.3,2.77,2.77,0,0,0-.9.8,3.6,3.6,0,0,0-.55,1.13,4.68,4.68,0,0,0,0,2.57,3.6,3.6,0,0,0,.55,1.13,2.77,2.77,0,0,0,.9.8,2.56,2.56,0,0,0,1.26.31,2.16,2.16,0,0,0,.88-.18,2.33,2.33,0,0,0,.74-.49,2.61,2.61,0,0,0,.78-1.69h1a3.8,3.8,0,0,1-1.1,2.35,3.25,3.25,0,0,1-2.31.84,3.87,3.87,0,0,1-1.67-.35,3.64,3.64,0,0,1-1.22-.93,4.14,4.14,0,0,1-.75-1.39,5.42,5.42,0,0,1-.26-1.68,5.49,5.49,0,0,1,.26-1.69,4.14,4.14,0,0,1,.75-1.39,3.66,3.66,0,0,1,1.22-.94,3.73,3.73,0,0,1,1.67-.35,3.57,3.57,0,0,1,2.25.7,3,3,0,0,1,1.1,2.13h-1A2.78,2.78,0,0,0,165.87,568Z" transform="translate(-47.19 -540.43)"/><path class="cls-6" d="M172.4,566.88v.85h-1.68v5.56a1.84,1.84,0,0,0,.14.78c.09.19.31.29.68.31a6.29,6.29,0,0,0,.86,0v.85l-.45,0h-.45a1.49,1.49,0,0,1-1.79-1.84v-5.64h-1.44v-.85h1.44V564.4h1v2.48Z" transform="translate(-47.19 -540.43)"/><path class="cls-6" d="M179.33,563.71v1.62h-1v-1.62Zm0,3.17v8.25h-1v-8.25Z" transform="translate(-47.19 -540.43)"/><path class="cls-6" d="M186,568.49a1.66,1.66,0,0,0-.48-.57,1.88,1.88,0,0,0-.68-.33,3,3,0,0,0-.81-.1,3.14,3.14,0,0,0-.68.07,2.17,2.17,0,0,0-.63.24,1.33,1.33,0,0,0-.47.44,1.17,1.17,0,0,0-.17.67,1,1,0,0,0,.16.57,1.79,1.79,0,0,0,.43.39,2.4,2.4,0,0,0,.56.26,5.7,5.7,0,0,0,.56.17l1.34.31a3.78,3.78,0,0,1,.86.23,2.79,2.79,0,0,1,.75.44,2.1,2.1,0,0,1,.54.67,2.33,2.33,0,0,1-.1,2.09,2.49,2.49,0,0,1-.78.77,3.56,3.56,0,0,1-1.06.42,5.24,5.24,0,0,1-1.17.13,3.78,3.78,0,0,1-2.36-.69,2.91,2.91,0,0,1-1-2.21h1a2,2,0,0,0,.74,1.55,2.74,2.74,0,0,0,1.69.52,4.09,4.09,0,0,0,.76-.08,2.69,2.69,0,0,0,.73-.28,1.71,1.71,0,0,0,.55-.48,1.24,1.24,0,0,0,.22-.73,1.19,1.19,0,0,0-.16-.62,1.3,1.3,0,0,0-.4-.41,2.15,2.15,0,0,0-.59-.28c-.22-.08-.44-.14-.66-.2l-1.3-.28a8.83,8.83,0,0,1-.91-.3,2.73,2.73,0,0,1-.73-.42,1.69,1.69,0,0,1-.49-.6,2.14,2.14,0,0,1-.17-.89,1.92,1.92,0,0,1,.28-1.07,2.1,2.1,0,0,1,.73-.72,3,3,0,0,1,1-.4,4.51,4.51,0,0,1,1.09-.13,3.92,3.92,0,0,1,1.16.16,2.68,2.68,0,0,1,1,.49,2.44,2.44,0,0,1,.64.84,3.14,3.14,0,0,1,.28,1.16h-1A1.92,1.92,0,0,0,186,568.49Z" transform="translate(-47.19 -540.43)"/><path class="cls-6" d="M198.57,567a3.66,3.66,0,0,1,1.22.94,4.14,4.14,0,0,1,.75,1.39,5.49,5.49,0,0,1,.26,1.69,5.42,5.42,0,0,1-.26,1.68,4.14,4.14,0,0,1-.75,1.39,3.64,3.64,0,0,1-1.22.93,4.18,4.18,0,0,1-3.35,0,3.64,3.64,0,0,1-1.22-.93,4.14,4.14,0,0,1-.75-1.39A5.42,5.42,0,0,1,193,571a5.49,5.49,0,0,1,.26-1.69,4.14,4.14,0,0,1,.75-1.39,3.66,3.66,0,0,1,1.22-.94,4.18,4.18,0,0,1,3.35,0Zm-2.94.8a2.77,2.77,0,0,0-.9.8,3.83,3.83,0,0,0-.55,1.13,4.68,4.68,0,0,0,0,2.57,3.83,3.83,0,0,0,.55,1.13,2.77,2.77,0,0,0,.9.8,2.6,2.6,0,0,0,1.27.31,2.56,2.56,0,0,0,1.26-.31,2.77,2.77,0,0,0,.9-.8,3.83,3.83,0,0,0,.55-1.13,4.68,4.68,0,0,0,0-2.57,3.83,3.83,0,0,0-.55-1.13,2.77,2.77,0,0,0-.9-.8,2.55,2.55,0,0,0-1.26-.3A2.59,2.59,0,0,0,195.63,567.79Z" transform="translate(-47.19 -540.43)"/><path class="cls-6" d="M203.23,566.88v1.93h0a3.19,3.19,0,0,1,1.2-1.55,3.06,3.06,0,0,1,1.92-.49v1a2.92,2.92,0,0,0-1.24.19,2.76,2.76,0,0,0-1,.61,2.72,2.72,0,0,0-.63,1,3.13,3.13,0,0,0-.23,1.2v4.4h-1v-8.25Z" transform="translate(-47.19 -540.43)"/><path class="cls-6" d="M214.12,576.11a3.28,3.28,0,0,1-.63,1.25,2.79,2.79,0,0,1-1.13.78,4.72,4.72,0,0,1-1.71.27,4.88,4.88,0,0,1-1.21-.14,3.5,3.5,0,0,1-1.06-.45,2.64,2.64,0,0,1-.79-.77,2.29,2.29,0,0,1-.36-1.13h1a1.74,1.74,0,0,0,.31.77,1.94,1.94,0,0,0,.56.51,2.46,2.46,0,0,0,.73.28,3.72,3.72,0,0,0,.81.09,2.45,2.45,0,0,0,2-.8,3.76,3.76,0,0,0,.62-2.31v-1.12h0a3,3,0,0,1-1,1.23,2.79,2.79,0,0,1-1.6.47,4,4,0,0,1-1.69-.33,3.16,3.16,0,0,1-1.16-.9,3.69,3.69,0,0,1-.67-1.36,6.72,6.72,0,0,1-.2-1.65,5.32,5.32,0,0,1,.24-1.61,4,4,0,0,1,.73-1.33,3.19,3.19,0,0,1,1.16-.89,3.71,3.71,0,0,1,1.59-.33,2.84,2.84,0,0,1,.88.13,2.42,2.42,0,0,1,.74.36,3.35,3.35,0,0,1,.6.53,2.48,2.48,0,0,1,.41.64h0v-1.42h1v7.58A6.43,6.43,0,0,1,214.12,576.11Zm-2.31-2.2a2.56,2.56,0,0,0,.83-.74,3.24,3.24,0,0,0,.5-1,4.55,4.55,0,0,0,.17-1.22,5.64,5.64,0,0,0-.14-1.22,3.49,3.49,0,0,0-.47-1.1,2.51,2.51,0,0,0-.82-.8,2.71,2.71,0,0,0-2.46,0,2.76,2.76,0,0,0-.85.78,3.26,3.26,0,0,0-.48,1.09,5.31,5.31,0,0,0-.16,1.26,5,5,0,0,0,.16,1.22,3.24,3.24,0,0,0,.5,1,2.53,2.53,0,0,0,.85.74,2.46,2.46,0,0,0,1.21.28A2.29,2.29,0,0,0,211.81,573.91Z" transform="translate(-47.19 -540.43)"/><path class="cls-6" d="M216.45,568.16a2.47,2.47,0,0,1,.69-.87,3,3,0,0,1,1-.49,5,5,0,0,1,1.32-.16,5.64,5.64,0,0,1,1.08.1,2.65,2.65,0,0,1,1,.39,2.22,2.22,0,0,1,.7.81,2.82,2.82,0,0,1,.28,1.35v4.39a.53.53,0,0,0,.59.61.83.83,0,0,0,.32-.07v.85l-.31,0h-.35a1.49,1.49,0,0,1-.61-.1.77.77,0,0,1-.36-.3,1.06,1.06,0,0,1-.17-.45,3.57,3.57,0,0,1,0-.59h0a6.2,6.2,0,0,1-.56.72,2.81,2.81,0,0,1-.62.52,3.44,3.44,0,0,1-.78.32,4.64,4.64,0,0,1-1.05.11,4.09,4.09,0,0,1-1.08-.14,2.34,2.34,0,0,1-.88-.43A2.07,2.07,0,0,1,216,574a2.45,2.45,0,0,1-.22-1.08,2.15,2.15,0,0,1,.38-1.35,2.43,2.43,0,0,1,1-.75,5.9,5.9,0,0,1,1.42-.36l1.61-.2c.22,0,.4,0,.56-.08a.92.92,0,0,0,.4-.17.8.8,0,0,0,.25-.32,1.4,1.4,0,0,0,.09-.55,1.87,1.87,0,0,0-.17-.84,1.37,1.37,0,0,0-.46-.52,1.9,1.9,0,0,0-.69-.26,4.46,4.46,0,0,0-.84-.07,2.58,2.58,0,0,0-1.57.45,1.81,1.81,0,0,0-.64,1.47h-1A3.33,3.33,0,0,1,216.45,568.16Zm5,2.46a.62.62,0,0,1-.37.26,4,4,0,0,1-.48.11l-1.32.2a8.19,8.19,0,0,0-1.24.26,2.47,2.47,0,0,0-.92.51,1.2,1.2,0,0,0-.36.93,1.45,1.45,0,0,0,.15.68,1.72,1.72,0,0,0,.41.52,1.77,1.77,0,0,0,.59.32,2,2,0,0,0,.69.12,3.38,3.38,0,0,0,1.1-.18,2.84,2.84,0,0,0,.92-.51,2.68,2.68,0,0,0,.63-.82,2.53,2.53,0,0,0,.23-1.09v-1.31Z" transform="translate(-47.19 -540.43)"/><path class="cls-6" d="M225.54,566.88v1.42h0a2.44,2.44,0,0,1,1-1.21,3,3,0,0,1,1.62-.45,4,4,0,0,1,1.44.22,2.29,2.29,0,0,1,.94.63,2.42,2.42,0,0,1,.5,1,6,6,0,0,1,.14,1.33v5.31h-1V570a5,5,0,0,0-.09-1,2.1,2.1,0,0,0-.34-.79,1.56,1.56,0,0,0-.65-.53,2.33,2.33,0,0,0-1-.19,2.6,2.6,0,0,0-1.08.21,2.38,2.38,0,0,0-.8.59,2.84,2.84,0,0,0-.52.9,3.72,3.72,0,0,0-.19,1.13v4.81h-1v-8.25Z" transform="translate(-47.19 -540.43)"/><path class="cls-6" d="M234.16,563.71v1.62h-1v-1.62Zm0,3.17v8.25h-1v-8.25Z" transform="translate(-47.19 -540.43)"/><path class="cls-6" d="M242.27,574.29v.84h-6.89v-.81l5.39-6.59h-5v-.85h6.31v.72l-5.46,6.69Z" transform="translate(-47.19 -540.43)"/><path class="cls-6" d="M244.25,572.41a3.19,3.19,0,0,0,.48,1,2.85,2.85,0,0,0,.85.77,2.39,2.39,0,0,0,1.23.31,2.46,2.46,0,0,0,1.73-.58,3,3,0,0,0,.87-1.54h1a4.08,4.08,0,0,1-1.18,2.18,3.52,3.52,0,0,1-2.43.77,3.79,3.79,0,0,1-1.68-.35,3.07,3.07,0,0,1-1.16-.94,4.18,4.18,0,0,1-.67-1.39,6.53,6.53,0,0,1-.21-1.67,6.11,6.11,0,0,1,.21-1.6A4.32,4.32,0,0,1,244,568a3.32,3.32,0,0,1,1.16-1,3.53,3.53,0,0,1,1.68-.37,3.34,3.34,0,0,1,1.7.4,3.2,3.2,0,0,1,1.14,1.05,4.21,4.21,0,0,1,.64,1.48,6.53,6.53,0,0,1,.16,1.71h-6.36A4.59,4.59,0,0,0,244.25,572.41Zm5-3.08a3,3,0,0,0-.52-.94,2.65,2.65,0,0,0-.82-.66,2.39,2.39,0,0,0-1.09-.24,2.44,2.44,0,0,0-1.1.24,2.61,2.61,0,0,0-.81.66,3.12,3.12,0,0,0-.54.94,5.36,5.36,0,0,0-.27,1.1h5.35A3.69,3.69,0,0,0,249.24,569.33Z" transform="translate(-47.19 -540.43)"/><path class="cls-6" d="M258.14,575.13v-1.56h0a2.4,2.4,0,0,1-.47.73,3.23,3.23,0,0,1-.71.57,4.34,4.34,0,0,1-.86.36,3.11,3.11,0,0,1-.9.13,3.64,3.64,0,0,1-1.64-.35,3.24,3.24,0,0,1-1.16-.94,4,4,0,0,1-.69-1.39,6.21,6.21,0,0,1,0-3.35,4.12,4.12,0,0,1,.69-1.39,3.26,3.26,0,0,1,1.16-1,3.51,3.51,0,0,1,1.64-.35,3.36,3.36,0,0,1,.9.11,3,3,0,0,1,.82.34,2.9,2.9,0,0,1,.68.57,2.49,2.49,0,0,1,.46.79h0v-4.74h1v11.42Zm-5.53-2.85a4,4,0,0,0,.48,1.13,2.57,2.57,0,0,0,.84.8,2.36,2.36,0,0,0,1.24.32,2.7,2.7,0,0,0,1.35-.32,2.46,2.46,0,0,0,.89-.8,3.31,3.31,0,0,0,.5-1.13,5.51,5.51,0,0,0,.15-1.27,5.59,5.59,0,0,0-.15-1.28,3.26,3.26,0,0,0-.5-1.12,2.58,2.58,0,0,0-.89-.81,2.7,2.7,0,0,0-1.35-.31,2.35,2.35,0,0,0-1.24.31,2.71,2.71,0,0,0-.84.81,3.91,3.91,0,0,0-.48,1.12,5.59,5.59,0,0,0-.15,1.28A5.51,5.51,0,0,0,252.61,572.28Z" transform="translate(-47.19 -540.43)"/><path class="cls-6" d="M92.46,579.71v1.62h-1v-1.62Zm0,3.17v8.25h-1v-8.25Z" transform="translate(-47.19 -540.43)"/><path class="cls-6" d="M95.39,582.88v1.42h0a2.51,2.51,0,0,1,1-1.21,3,3,0,0,1,1.61-.45,4.06,4.06,0,0,1,1.45.22,2.36,2.36,0,0,1,.94.63,2.41,2.41,0,0,1,.49,1,5.47,5.47,0,0,1,.15,1.33v5.31h-1V586a4.34,4.34,0,0,0-.1-1,2,2,0,0,0-.33-.79,1.62,1.62,0,0,0-.65-.53,2.35,2.35,0,0,0-1-.19,2.67,2.67,0,0,0-1.08.21,2.48,2.48,0,0,0-.8.59,2.82,2.82,0,0,0-.51.9,3.72,3.72,0,0,0-.2,1.13v4.81h-1v-8.25Z" transform="translate(-47.19 -540.43)"/><path class="cls-6" d="M106.27,582.88v.85h-1.68v5.56a1.84,1.84,0,0,0,.14.78c.09.19.32.29.68.31a6.2,6.2,0,0,0,.86,0v.85l-.45,0h-.44a2,2,0,0,1-1.41-.39,2,2,0,0,1-.39-1.45v-5.64h-1.44v-.85h1.44V580.4h1v2.48Z" transform="translate(-47.19 -540.43)"/><path class="cls-6" d="M112.89,583a3.66,3.66,0,0,1,1.22.94,4.14,4.14,0,0,1,.75,1.39,5.49,5.49,0,0,1,.26,1.69,5.42,5.42,0,0,1-.26,1.68,4.14,4.14,0,0,1-.75,1.39,3.64,3.64,0,0,1-1.22.93,3.87,3.87,0,0,1-1.67.35,3.91,3.91,0,0,1-1.68-.35,3.64,3.64,0,0,1-1.22-.93,4.14,4.14,0,0,1-.75-1.39,5.42,5.42,0,0,1-.26-1.68,5.49,5.49,0,0,1,.26-1.69,4.14,4.14,0,0,1,.75-1.39,3.66,3.66,0,0,1,1.22-.94,3.77,3.77,0,0,1,1.68-.35A3.73,3.73,0,0,1,112.89,583Zm-2.94.8a2.77,2.77,0,0,0-.9.8,3.83,3.83,0,0,0-.55,1.13,4.68,4.68,0,0,0,0,2.57,3.83,3.83,0,0,0,.55,1.13,2.77,2.77,0,0,0,.9.8,2.6,2.6,0,0,0,1.27.31,2.56,2.56,0,0,0,1.26-.31,2.77,2.77,0,0,0,.9-.8,3.6,3.6,0,0,0,.55-1.13,4.68,4.68,0,0,0,0-2.57,3.6,3.6,0,0,0-.55-1.13,2.77,2.77,0,0,0-.9-.8,2.55,2.55,0,0,0-1.26-.3A2.59,2.59,0,0,0,110,583.79Z" transform="translate(-47.19 -540.43)"/><path class="cls-6" d="M121.28,584.16a2.39,2.39,0,0,1,.7-.87,2.81,2.81,0,0,1,1-.49,4.85,4.85,0,0,1,1.31-.16,5.74,5.74,0,0,1,1.09.1,2.61,2.61,0,0,1,1,.39,2.24,2.24,0,0,1,.71.81,3,3,0,0,1,.27,1.35v4.39a.53.53,0,0,0,.59.61.79.79,0,0,0,.32-.07v.85l-.31,0h-.34a1.51,1.51,0,0,1-.62-.1.88.88,0,0,1-.36-.3,1.06,1.06,0,0,1-.17-.45,5.14,5.14,0,0,1,0-.59h0a7.51,7.51,0,0,1-.55.72,3.11,3.11,0,0,1-.63.52,3.44,3.44,0,0,1-.78.32,4.51,4.51,0,0,1-1,.11,4.2,4.2,0,0,1-1.08-.14,2.41,2.41,0,0,1-.88-.43,2.07,2.07,0,0,1-.59-.75,2.6,2.6,0,0,1-.22-1.08,2.09,2.09,0,0,1,.39-1.35,2.34,2.34,0,0,1,1-.75,6,6,0,0,1,1.43-.36l1.61-.2.56-.08a1,1,0,0,0,.4-.17.77.77,0,0,0,.24-.32,1.4,1.4,0,0,0,.09-.55,1.75,1.75,0,0,0-.17-.84,1.29,1.29,0,0,0-.46-.52,1.9,1.9,0,0,0-.69-.26,4.46,4.46,0,0,0-.84-.07,2.58,2.58,0,0,0-1.57.45,1.84,1.84,0,0,0-.64,1.47h-1A3.33,3.33,0,0,1,121.28,584.16Zm5,2.46a.59.59,0,0,1-.37.26,4,4,0,0,1-.48.11l-1.32.2a8.45,8.45,0,0,0-1.24.26,2.47,2.47,0,0,0-.92.51,1.2,1.2,0,0,0-.36.93,1.45,1.45,0,0,0,.15.68,1.89,1.89,0,0,0,.41.52,1.77,1.77,0,0,0,.59.32,2.09,2.09,0,0,0,.69.12,3.44,3.44,0,0,0,1.11-.18,2.94,2.94,0,0,0,.92-.51,2.46,2.46,0,0,0,.85-1.91v-1.31Z" transform="translate(-47.19 -540.43)"/><path class="cls-6" d="M138.58,584.49a1.66,1.66,0,0,0-.48-.57,1.88,1.88,0,0,0-.68-.33,3,3,0,0,0-.81-.1,3.14,3.14,0,0,0-.68.07,2.17,2.17,0,0,0-.63.24,1.33,1.33,0,0,0-.47.44,1.17,1.17,0,0,0-.17.67,1,1,0,0,0,.16.57,1.79,1.79,0,0,0,.43.39,2.61,2.61,0,0,0,.56.26,5.7,5.7,0,0,0,.56.17l1.34.31a3.78,3.78,0,0,1,.86.23,2.79,2.79,0,0,1,.75.44,2.1,2.1,0,0,1,.54.67,2.33,2.33,0,0,1-.1,2.09,2.49,2.49,0,0,1-.78.77,3.56,3.56,0,0,1-1.06.42,5.18,5.18,0,0,1-1.17.13,3.78,3.78,0,0,1-2.36-.69,3,3,0,0,1-1-2.21h1a2,2,0,0,0,.74,1.55,2.76,2.76,0,0,0,1.69.52,4,4,0,0,0,.76-.08,2.69,2.69,0,0,0,.73-.28,1.71,1.71,0,0,0,.55-.48,1.24,1.24,0,0,0,.22-.73,1.1,1.1,0,0,0-.16-.62,1.3,1.3,0,0,0-.4-.41,2.15,2.15,0,0,0-.59-.28c-.22-.08-.44-.14-.66-.2l-1.3-.28a8.83,8.83,0,0,1-.91-.3,2.73,2.73,0,0,1-.73-.42,1.69,1.69,0,0,1-.49-.6,2.14,2.14,0,0,1-.17-.89,1.92,1.92,0,0,1,.28-1.07,2.1,2.1,0,0,1,.73-.72,3,3,0,0,1,1-.4,4.51,4.51,0,0,1,1.09-.13,3.92,3.92,0,0,1,1.16.16,2.68,2.68,0,0,1,1,.49,2.44,2.44,0,0,1,.64.84,3.14,3.14,0,0,1,.28,1.16h-1A1.92,1.92,0,0,0,138.58,584.49Z" transform="translate(-47.19 -540.43)"/><path class="cls-6" d="M142.26,588.41a3.43,3.43,0,0,0,.49,1,2.85,2.85,0,0,0,.85.77,2.39,2.39,0,0,0,1.23.31,2.48,2.48,0,0,0,1.73-.58,3,3,0,0,0,.86-1.54h1a4,4,0,0,1-1.17,2.18,3.52,3.52,0,0,1-2.43.77,3.86,3.86,0,0,1-1.69-.35,3.15,3.15,0,0,1-1.16-.94,4.16,4.16,0,0,1-.66-1.39,6.53,6.53,0,0,1-.22-1.67,6.12,6.12,0,0,1,.22-1.6A4.31,4.31,0,0,1,142,584a3.41,3.41,0,0,1,1.16-1,3.6,3.6,0,0,1,1.69-.37,3.37,3.37,0,0,1,1.7.4,3.2,3.2,0,0,1,1.14,1.05,4,4,0,0,1,.63,1.48,6.13,6.13,0,0,1,.16,1.71h-6.35A4.56,4.56,0,0,0,142.26,588.41Zm5-3.08a3.17,3.17,0,0,0-.52-.94,2.77,2.77,0,0,0-.82-.66,2.39,2.39,0,0,0-1.09-.24,2.44,2.44,0,0,0-1.1.24,2.77,2.77,0,0,0-.82.66,3.32,3.32,0,0,0-.53.94,4.32,4.32,0,0,0-.27,1.1h5.35A3.69,3.69,0,0,0,147.26,585.33Z" transform="translate(-47.19 -540.43)"/><path class="cls-6" d="M150.75,582.88v1.93h0a3.19,3.19,0,0,1,1.2-1.55,3.06,3.06,0,0,1,1.92-.49v1a2.94,2.94,0,0,0-1.24.19,2.76,2.76,0,0,0-1,.61,2.86,2.86,0,0,0-.63,1,3.13,3.13,0,0,0-.23,1.2v4.4h-1v-8.25Z" transform="translate(-47.19 -540.43)"/><path class="cls-6" d="M155.89,579.71v1.62h-1v-1.62Zm0,3.17v8.25h-1v-8.25Z" transform="translate(-47.19 -540.43)"/><path class="cls-6" d="M158.57,588.41a3,3,0,0,0,.49,1,2.7,2.7,0,0,0,.84.77,2.75,2.75,0,0,0,3-.27,3,3,0,0,0,.87-1.54h1a4.08,4.08,0,0,1-1.18,2.18,3.51,3.51,0,0,1-2.42.77,3.83,3.83,0,0,1-1.69-.35,3.07,3.07,0,0,1-1.16-.94,4.18,4.18,0,0,1-.67-1.39,6.53,6.53,0,0,1-.21-1.67,6.11,6.11,0,0,1,.21-1.6,4.32,4.32,0,0,1,.67-1.4,3.32,3.32,0,0,1,1.16-1,3.57,3.57,0,0,1,1.69-.37,3.28,3.28,0,0,1,2.84,1.45,4.39,4.39,0,0,1,.63,1.48,6.53,6.53,0,0,1,.16,1.71h-6.35A4.56,4.56,0,0,0,158.57,588.41Zm5-3.08a3,3,0,0,0-.52-.94,2.65,2.65,0,0,0-.82-.66,2.38,2.38,0,0,0-1.08-.24,2.45,2.45,0,0,0-1.11.24,2.61,2.61,0,0,0-.81.66,3.12,3.12,0,0,0-.54.94,4.75,4.75,0,0,0-.26,1.1h5.34A3.69,3.69,0,0,0,163.56,585.33Z" transform="translate(-47.19 -540.43)"/><path class="cls-6" d="M170.88,584.49a1.75,1.75,0,0,0-.47-.57,2,2,0,0,0-.68-.33,3.12,3.12,0,0,0-.82-.1,3.21,3.21,0,0,0-.68.07,2.17,2.17,0,0,0-.63.24,1.3,1.3,0,0,0-.46.44,1.17,1.17,0,0,0-.18.67,1,1,0,0,0,.17.57,1.57,1.57,0,0,0,.42.39,2.61,2.61,0,0,0,.56.26,5.7,5.7,0,0,0,.56.17l1.35.31a3.84,3.84,0,0,1,.85.23,2.65,2.65,0,0,1,.75.44,2.1,2.1,0,0,1,.54.67,2,2,0,0,1,.21.94,2,2,0,0,1-.31,1.15,2.57,2.57,0,0,1-.77.77,3.62,3.62,0,0,1-1.07.42,5.16,5.16,0,0,1-1.16.13,3.78,3.78,0,0,1-2.36-.69,2.92,2.92,0,0,1-1-2.21h1a2,2,0,0,0,.75,1.55,2.71,2.71,0,0,0,1.68.52,4,4,0,0,0,.76-.08,2.57,2.57,0,0,0,.73-.28,1.61,1.61,0,0,0,.55-.48,1.17,1.17,0,0,0,.22-.73,1.19,1.19,0,0,0-.15-.62,1.34,1.34,0,0,0-.41-.41,2.23,2.23,0,0,0-.58-.28c-.22-.08-.44-.14-.67-.2l-1.29-.28a9,9,0,0,1-.92-.3,2.67,2.67,0,0,1-.72-.42,1.69,1.69,0,0,1-.49-.6,2.23,2.23,0,0,1,.1-2,2.18,2.18,0,0,1,.73-.72,3,3,0,0,1,1-.4,4.59,4.59,0,0,1,1.1-.13,4,4,0,0,1,1.16.16,2.64,2.64,0,0,1,.94.49,2.47,2.47,0,0,1,.65.84,3,3,0,0,1,.27,1.16h-1A1.78,1.78,0,0,0,170.88,584.49Z" transform="translate(-47.19 -540.43)"/><path class="cls-6" d="M183.43,583a3.7,3.7,0,0,1,1.23.94,4.14,4.14,0,0,1,.75,1.39,5.48,5.48,0,0,1,.25,1.69,5.42,5.42,0,0,1-.25,1.68,4.14,4.14,0,0,1-.75,1.39,3.67,3.67,0,0,1-1.23.93,4.16,4.16,0,0,1-3.34,0,3.58,3.58,0,0,1-1.23-.93,4.14,4.14,0,0,1-.75-1.39,5.42,5.42,0,0,1-.25-1.68,5.48,5.48,0,0,1,.25-1.69,4.14,4.14,0,0,1,.75-1.39,3.6,3.6,0,0,1,1.23-.94,4.16,4.16,0,0,1,3.34,0Zm-2.93.8a2.7,2.7,0,0,0-.91.8,3.58,3.58,0,0,0-.54,1.13,4.44,4.44,0,0,0,0,2.57,3.58,3.58,0,0,0,.54,1.13,2.7,2.7,0,0,0,.91.8,2.72,2.72,0,0,0,2.52,0,2.7,2.7,0,0,0,.91-.8,3.58,3.58,0,0,0,.54-1.13,4.44,4.44,0,0,0,0-2.57,3.58,3.58,0,0,0-.54-1.13,2.7,2.7,0,0,0-.91-.8,2.8,2.8,0,0,0-2.52,0Z" transform="translate(-47.19 -540.43)"/><path class="cls-6" d="M188.72,583.73v7.4h-1v-7.4H186.3v-.85h1.41v-.75a5.89,5.89,0,0,1,.08-1,1.89,1.89,0,0,1,.31-.77,1.36,1.36,0,0,1,.61-.49,2.42,2.42,0,0,1,1-.18,2.82,2.82,0,0,1,.42,0l.43,0v.87l-.38-.06-.36,0a1.27,1.27,0,0,0-.64.13.7.7,0,0,0-.32.34,1.27,1.27,0,0,0-.12.5c0,.2,0,.4,0,.63v.72h1.63v.85Z" transform="translate(-47.19 -540.43)"/><path class="cls-6" d="M200.51,584.49a1.64,1.64,0,0,0-.47-.57,2,2,0,0,0-.68-.33,3.12,3.12,0,0,0-.82-.1,3.21,3.21,0,0,0-.68.07,2.17,2.17,0,0,0-.63.24,1.38,1.38,0,0,0-.46.44,1.17,1.17,0,0,0-.18.67,1,1,0,0,0,.17.57,1.57,1.57,0,0,0,.42.39,2.61,2.61,0,0,0,.56.26c.21.07.39.13.56.17l1.35.31a3.7,3.7,0,0,1,.85.23,2.7,2.7,0,0,1,.76.44,2.22,2.22,0,0,1,.53.67,2,2,0,0,1,.21.94,2.12,2.12,0,0,1-.3,1.15,2.72,2.72,0,0,1-.78.77,3.67,3.67,0,0,1-1.06.42,5.31,5.31,0,0,1-1.17.13,3.78,3.78,0,0,1-2.36-.69,2.91,2.91,0,0,1-1-2.21h1a2,2,0,0,0,.75,1.55,2.72,2.72,0,0,0,1.69.52,4.18,4.18,0,0,0,.76-.08,2.51,2.51,0,0,0,.72-.28,1.74,1.74,0,0,0,.56-.48A1.23,1.23,0,0,0,201,589a1.19,1.19,0,0,0-.15-.62,1.34,1.34,0,0,0-.41-.41,2.08,2.08,0,0,0-.58-.28c-.22-.08-.44-.14-.67-.2l-1.29-.28a8.09,8.09,0,0,1-.91-.3,2.73,2.73,0,0,1-.73-.42,1.69,1.69,0,0,1-.49-.6,2.23,2.23,0,0,1,.1-2,2.18,2.18,0,0,1,.73-.72,3,3,0,0,1,1-.4,4.65,4.65,0,0,1,1.1-.13,4,4,0,0,1,1.16.16,2.56,2.56,0,0,1,.94.49,2.47,2.47,0,0,1,.65.84,3,3,0,0,1,.27,1.16h-1A1.78,1.78,0,0,0,200.51,584.49Z" transform="translate(-47.19 -540.43)"/><path class="cls-6" d="M204.38,582.88v1.57h0a2.63,2.63,0,0,1,1.14-1.34,3.41,3.41,0,0,1,1.8-.47A3.51,3.51,0,0,1,209,583a3.35,3.35,0,0,1,1.16,1,4.12,4.12,0,0,1,.69,1.39,6.49,6.49,0,0,1,0,3.35,4,4,0,0,1-.69,1.39A3.32,3.32,0,0,1,209,591a3.64,3.64,0,0,1-1.64.35,4,4,0,0,1-.9-.11,3.54,3.54,0,0,1-.83-.34,3,3,0,0,1-.68-.56,2.25,2.25,0,0,1-.45-.78h0v4.6h-1V582.88Zm5.53,2.85a3.42,3.42,0,0,0-.48-1.12,2.71,2.71,0,0,0-.84-.81,2.29,2.29,0,0,0-1.23-.31,3,3,0,0,0-1.39.28,2.51,2.51,0,0,0-.9.77,3.13,3.13,0,0,0-.47,1.12,6.57,6.57,0,0,0-.14,1.35,5,5,0,0,0,.16,1.27,3.29,3.29,0,0,0,.49,1.13,2.58,2.58,0,0,0,.9.8,2.7,2.7,0,0,0,1.35.32,2.3,2.3,0,0,0,1.23-.32,2.57,2.57,0,0,0,.84-.8,3.48,3.48,0,0,0,.48-1.13,5.51,5.51,0,0,0,.15-1.27A5.59,5.59,0,0,0,209.91,585.73Z" transform="translate(-47.19 -540.43)"/><path class="cls-6" d="M213.57,582.88v1.93h0a3.17,3.17,0,0,1,1.19-1.55,3.09,3.09,0,0,1,1.93-.49v1a3,3,0,0,0-2.22.8,2.86,2.86,0,0,0-.63,1,3.13,3.13,0,0,0-.22,1.2v4.4h-1v-8.25Z" transform="translate(-47.19 -540.43)"/><path class="cls-6" d="M218.7,579.71v1.62h-1v-1.62Zm0,3.17v8.25h-1v-8.25Z" transform="translate(-47.19 -540.43)"/><path class="cls-6" d="M221.63,582.88v1.42h0a2.51,2.51,0,0,1,1-1.21,3,3,0,0,1,1.61-.45,4.06,4.06,0,0,1,1.45.22,2.36,2.36,0,0,1,.94.63,2.41,2.41,0,0,1,.49,1,5.47,5.47,0,0,1,.15,1.33v5.31h-1V586a4.34,4.34,0,0,0-.1-1,2,2,0,0,0-.33-.79,1.62,1.62,0,0,0-.65-.53,2.35,2.35,0,0,0-1-.19,2.67,2.67,0,0,0-1.08.21,2.48,2.48,0,0,0-.8.59,2.64,2.64,0,0,0-.51.9,3.72,3.72,0,0,0-.2,1.13v4.81h-1v-8.25Z" transform="translate(-47.19 -540.43)"/><path class="cls-6" d="M232.51,582.88v.85h-1.68v5.56a1.84,1.84,0,0,0,.14.78c.09.19.31.29.68.31a6.2,6.2,0,0,0,.86,0v.85l-.45,0h-.44a2,2,0,0,1-1.41-.39,2,2,0,0,1-.39-1.45v-5.64h-1.44v-.85h1.44V580.4h1v2.48Z" transform="translate(-47.19 -540.43)"/><path class="cls-6" d="M238.72,584.49a1.75,1.75,0,0,0-.47-.57,2,2,0,0,0-.68-.33,3.12,3.12,0,0,0-.82-.1,3.21,3.21,0,0,0-.68.07,2.17,2.17,0,0,0-.63.24,1.3,1.3,0,0,0-.46.44,1.17,1.17,0,0,0-.18.67,1,1,0,0,0,.17.57,1.57,1.57,0,0,0,.42.39,2.61,2.61,0,0,0,.56.26,5.7,5.7,0,0,0,.56.17l1.35.31a3.84,3.84,0,0,1,.85.23,2.79,2.79,0,0,1,.75.44,2.1,2.1,0,0,1,.54.67,2,2,0,0,1,.21.94,2,2,0,0,1-.31,1.15,2.57,2.57,0,0,1-.77.77,3.62,3.62,0,0,1-1.07.42,5.16,5.16,0,0,1-1.16.13,3.76,3.76,0,0,1-2.36-.69,2.92,2.92,0,0,1-1-2.21h1a2,2,0,0,0,.75,1.55,2.71,2.71,0,0,0,1.68.52,4,4,0,0,0,.76-.08,2.57,2.57,0,0,0,.73-.28,1.61,1.61,0,0,0,.55-.48,1.17,1.17,0,0,0,.22-.73,1.19,1.19,0,0,0-.15-.62,1.34,1.34,0,0,0-.41-.41,2.23,2.23,0,0,0-.58-.28c-.22-.08-.44-.14-.67-.2l-1.29-.28a8.29,8.29,0,0,1-.92-.3,2.67,2.67,0,0,1-.72-.42,1.59,1.59,0,0,1-.49-.6,2,2,0,0,1-.18-.89,1.92,1.92,0,0,1,.28-1.07,2.18,2.18,0,0,1,.73-.72,3,3,0,0,1,1-.4,4.59,4.59,0,0,1,1.1-.13,4,4,0,0,1,1.16.16,2.64,2.64,0,0,1,.94.49,2.47,2.47,0,0,1,.65.84,3,3,0,0,1,.27,1.16h-1A1.78,1.78,0,0,0,238.72,584.49Z" transform="translate(-47.19 -540.43)"/><path class="cls-6" d="M92.6,608.43a14.14,14.14,0,0,1-.71-1.74,12.38,12.38,0,0,1-.44-1.82,13.12,13.12,0,0,1,.45-5.9,15.14,15.14,0,0,1,1.65-3.5h.8a13.12,13.12,0,0,0-1.56,3.68,17.12,17.12,0,0,0-.49,4.1,10.94,10.94,0,0,0,.15,1.77,12.91,12.91,0,0,0,.41,1.82,17.43,17.43,0,0,0,.65,1.75,11.8,11.8,0,0,0,.84,1.58h-.8C93.2,609.59,92.88,609,92.6,608.43Z" transform="translate(-47.19 -540.43)"/><path class="cls-6" d="M97.08,598a2.54,2.54,0,0,0,.93-.26,1.7,1.7,0,0,0,.65-.63,3,3,0,0,0,.38-1.2h.82v11.2h-1v-8.32h-3v-.72C96.33,598.08,96.72,598.06,97.08,598Z" transform="translate(-47.19 -540.43)"/><path class="cls-6" d="M113.39,600.49a1.53,1.53,0,0,0-.47-.57,2,2,0,0,0-.68-.33,3.12,3.12,0,0,0-.82-.1,3.21,3.21,0,0,0-.68.07,2.28,2.28,0,0,0-.63.24,1.38,1.38,0,0,0-.46.44,1.17,1.17,0,0,0-.18.67,1,1,0,0,0,.17.57,1.57,1.57,0,0,0,.42.39,2.85,2.85,0,0,0,.56.26c.21.07.39.13.56.17l1.35.31a3.7,3.7,0,0,1,.85.23,2.7,2.7,0,0,1,.76.44,2.22,2.22,0,0,1,.53.67,2,2,0,0,1,.21.94,2.12,2.12,0,0,1-.3,1.15,2.6,2.6,0,0,1-.78.77,3.56,3.56,0,0,1-1.06.42,5.31,5.31,0,0,1-1.17.13,3.78,3.78,0,0,1-2.36-.69,2.91,2.91,0,0,1-1-2.21h1a2.05,2.05,0,0,0,.75,1.55,2.72,2.72,0,0,0,1.69.52,4.09,4.09,0,0,0,.76-.08,2.51,2.51,0,0,0,.72-.28,1.74,1.74,0,0,0,.56-.48,1.23,1.23,0,0,0,.21-.73,1.19,1.19,0,0,0-.15-.62,1.34,1.34,0,0,0-.41-.41,2.08,2.08,0,0,0-.58-.28c-.22-.08-.44-.14-.67-.2l-1.29-.28a8.09,8.09,0,0,1-.91-.3,2.73,2.73,0,0,1-.73-.42,1.69,1.69,0,0,1-.49-.6,2.23,2.23,0,0,1,.1-2,2.18,2.18,0,0,1,.73-.72,3,3,0,0,1,1-.4,4.65,4.65,0,0,1,1.1-.13,4,4,0,0,1,1.16.16,2.56,2.56,0,0,1,.94.49,2.47,2.47,0,0,1,.65.84,3,3,0,0,1,.27,1.16h-1A1.78,1.78,0,0,0,113.39,600.49Z" transform="translate(-47.19 -540.43)"/><path class="cls-6" d="M117.26,598.88v1.57h0a2.63,2.63,0,0,1,1.14-1.34,3.41,3.41,0,0,1,1.8-.47,3.51,3.51,0,0,1,1.64.35,3.35,3.35,0,0,1,1.16,1,4.12,4.12,0,0,1,.69,1.39,6.49,6.49,0,0,1,0,3.35,4,4,0,0,1-.69,1.39,3.32,3.32,0,0,1-1.16.94,3.64,3.64,0,0,1-1.64.35,4,4,0,0,1-.9-.11,3.54,3.54,0,0,1-.83-.34,3,3,0,0,1-.68-.56,2.25,2.25,0,0,1-.45-.78h0v4.6h-1V598.88Zm5.53,2.85a3.42,3.42,0,0,0-.48-1.12,2.71,2.71,0,0,0-.84-.81,2.29,2.29,0,0,0-1.23-.31,3,3,0,0,0-1.39.28,2.6,2.6,0,0,0-.9.77,3.13,3.13,0,0,0-.47,1.12,6.57,6.57,0,0,0-.14,1.35,5.52,5.52,0,0,0,.16,1.27,3.29,3.29,0,0,0,.49,1.13,2.58,2.58,0,0,0,.9.8,2.7,2.7,0,0,0,1.35.32,2.3,2.3,0,0,0,1.23-.32,2.57,2.57,0,0,0,.84-.8,3.48,3.48,0,0,0,.48-1.13,5.51,5.51,0,0,0,.15-1.27A5.59,5.59,0,0,0,122.79,601.73Z" transform="translate(-47.19 -540.43)"/><path class="cls-6" d="M126.45,598.88v1.93h0a3.17,3.17,0,0,1,1.19-1.55,3.09,3.09,0,0,1,1.93-.49v1a3,3,0,0,0-1.25.19,3,3,0,0,0-1,.61,2.86,2.86,0,0,0-.63,1,3.13,3.13,0,0,0-.22,1.2v4.4h-1v-8.25Z" transform="translate(-47.19 -540.43)"/><path class="cls-6" d="M131.58,595.71v1.62h-1v-1.62Zm0,3.17v8.25h-1v-8.25Z" transform="translate(-47.19 -540.43)"/><path class="cls-6" d="M134.51,598.88v1.42h0a2.51,2.51,0,0,1,1-1.21,3,3,0,0,1,1.61-.45,4.06,4.06,0,0,1,1.45.22,2.36,2.36,0,0,1,.94.63,2.41,2.41,0,0,1,.49,1,5.47,5.47,0,0,1,.15,1.33v5.31h-1V602a4.34,4.34,0,0,0-.1-1,2,2,0,0,0-.33-.79,1.62,1.62,0,0,0-.65-.53,2.35,2.35,0,0,0-1-.19,2.67,2.67,0,0,0-1.08.21,2.48,2.48,0,0,0-.8.59,2.82,2.82,0,0,0-.51.9,3.72,3.72,0,0,0-.2,1.13v4.81h-1v-8.25Z" transform="translate(-47.19 -540.43)"/><path class="cls-6" d="M145.39,598.88v.85h-1.68v5.56a1.84,1.84,0,0,0,.14.78c.09.19.32.29.68.31a6.2,6.2,0,0,0,.86,0v.85l-.45,0h-.44a2,2,0,0,1-1.41-.39,2,2,0,0,1-.39-1.45v-5.64h-1.44v-.85h1.44V596.4h1v2.48Z" transform="translate(-47.19 -540.43)"/><path class="cls-6" d="M151.12,601.93v-.84h8v.84Zm0,3.16v-.85h8v.85Z" transform="translate(-47.19 -540.43)"/><path class="cls-6" d="M167.13,598a2.66,2.66,0,0,0,.93-.26,1.7,1.7,0,0,0,.65-.63,3.2,3.2,0,0,0,.38-1.2h.81v11.2h-1v-8.32h-3v-.72C166.37,598.08,166.77,598.06,167.13,598Z" transform="translate(-47.19 -540.43)"/><path class="cls-6" d="M178.93,598.88,181,606h0l2-7.07h1.13l2,7.07h0l2.11-7.07h1.08l-2.66,8.25h-1.1l-2-6.94h0l-2,6.94h-1.11l-2.65-8.25Z" transform="translate(-47.19 -540.43)"/><path class="cls-6" d="M191.29,604.41a3,3,0,0,0,.49,1,2.7,2.7,0,0,0,.84.77,2.43,2.43,0,0,0,1.24.31,2.45,2.45,0,0,0,1.72-.58,3,3,0,0,0,.87-1.54h1a4.08,4.08,0,0,1-1.18,2.18,3.51,3.51,0,0,1-2.42.77,3.8,3.8,0,0,1-1.69-.35,3.07,3.07,0,0,1-1.16-.94,4.18,4.18,0,0,1-.67-1.39,6.53,6.53,0,0,1-.21-1.67,6.11,6.11,0,0,1,.21-1.6A4.32,4.32,0,0,1,191,600a3.32,3.32,0,0,1,1.16-1,3.54,3.54,0,0,1,1.69-.37,3.28,3.28,0,0,1,2.84,1.45,4.39,4.39,0,0,1,.63,1.48,6.53,6.53,0,0,1,.16,1.71h-6.35A4.56,4.56,0,0,0,191.29,604.41Zm5-3.08a3,3,0,0,0-.52-.94,2.65,2.65,0,0,0-.82-.66,2.38,2.38,0,0,0-1.08-.24,2.45,2.45,0,0,0-1.11.24,2.61,2.61,0,0,0-.81.66,3.12,3.12,0,0,0-.54.94,4.75,4.75,0,0,0-.26,1.1h5.34A3.69,3.69,0,0,0,196.28,601.33Z" transform="translate(-47.19 -540.43)"/><path class="cls-6" d="M199.59,604.41a3.21,3.21,0,0,0,.49,1,2.74,2.74,0,0,0,.85.77,2.39,2.39,0,0,0,1.23.31,2.48,2.48,0,0,0,1.73-.58,3.06,3.06,0,0,0,.86-1.54h1a4,4,0,0,1-1.18,2.18,3.5,3.5,0,0,1-2.42.77,3.86,3.86,0,0,1-1.69-.35,3.15,3.15,0,0,1-1.16-.94,4,4,0,0,1-.66-1.39,6.12,6.12,0,0,1-.22-1.67,5.72,5.72,0,0,1,.22-1.6,4.11,4.11,0,0,1,.66-1.4,3.41,3.41,0,0,1,1.16-1,3.6,3.6,0,0,1,1.69-.37,3.37,3.37,0,0,1,1.7.4,3.28,3.28,0,0,1,1.14,1.05,4.39,4.39,0,0,1,.63,1.48,6.53,6.53,0,0,1,.16,1.71h-6.35A4.56,4.56,0,0,0,199.59,604.41Zm5-3.08a2.78,2.78,0,0,0-.52-.94,2.61,2.61,0,0,0-.81-.66,2.62,2.62,0,0,0-2.19,0,2.65,2.65,0,0,0-.82.66,3.61,3.61,0,0,0-.54.94,4.75,4.75,0,0,0-.26,1.1h5.34A3.4,3.4,0,0,0,204.58,601.33Z" transform="translate(-47.19 -540.43)"/><path class="cls-6" d="M208.16,595.71v7.17l4.58-4h1.34l-3.52,3,3.76,5.2h-1.26l-3.27-4.49L208.16,604v3.13h-1V595.71Z" transform="translate(-47.19 -540.43)"/><path class="cls-6" d="M215.93,597.21a13.22,13.22,0,0,1,.71,1.76,12.21,12.21,0,0,1,.44,1.83,13.07,13.07,0,0,1-.45,5.89,15.19,15.19,0,0,1-1.65,3.48h-.79a13,13,0,0,0,1.55-3.67,17,17,0,0,0,.48-4.09,11.09,11.09,0,0,0-.15-1.79,13.83,13.83,0,0,0-.42-1.8,15,15,0,0,0-.65-1.73,17.47,17.47,0,0,0-.81-1.62H215C215.33,596.06,215.64,596.64,215.93,597.21Z" transform="translate(-47.19 -540.43)"/><path class="cls-6" d="M219.6,605.44h1.34v1.69H219.6Z" transform="translate(-47.19 -540.43)"/><path class="cls-6" d="M232.66,595.71l4.48,11.42H236l-1.39-3.55h-5.2L228,607.13h-1.15l4.59-11.42Zm1.55,6.94L232,596.8l-2.29,5.85Z" transform="translate(-47.19 -540.43)"/><path class="cls-6" d="M242.74,600.49a1.66,1.66,0,0,0-.48-.57,1.88,1.88,0,0,0-.68-.33,3,3,0,0,0-.81-.1,3.14,3.14,0,0,0-.68.07,2.17,2.17,0,0,0-.63.24,1.33,1.33,0,0,0-.47.44,1.17,1.17,0,0,0-.17.67,1,1,0,0,0,.16.57,1.79,1.79,0,0,0,.43.39,2.4,2.4,0,0,0,.56.26,5.7,5.7,0,0,0,.56.17l1.34.31a3.92,3.92,0,0,1,.86.23,2.79,2.79,0,0,1,.75.44,2.1,2.1,0,0,1,.54.67,2.33,2.33,0,0,1-.1,2.09,2.49,2.49,0,0,1-.78.77,3.56,3.56,0,0,1-1.06.42,5.24,5.24,0,0,1-1.17.13,3.78,3.78,0,0,1-2.36-.69,2.91,2.91,0,0,1-1-2.21h1a2,2,0,0,0,.74,1.55,2.74,2.74,0,0,0,1.69.52,4.09,4.09,0,0,0,.76-.08,2.69,2.69,0,0,0,.73-.28,1.71,1.71,0,0,0,.55-.48,1.24,1.24,0,0,0,.22-.73,1.19,1.19,0,0,0-.16-.62,1.3,1.3,0,0,0-.4-.41,2.29,2.29,0,0,0-.59-.28c-.22-.08-.44-.14-.66-.2l-1.3-.28a8.83,8.83,0,0,1-.91-.3,2.73,2.73,0,0,1-.73-.42,1.69,1.69,0,0,1-.49-.6,2.14,2.14,0,0,1-.17-.89,1.92,1.92,0,0,1,.28-1.07,2.1,2.1,0,0,1,.73-.72,3,3,0,0,1,1-.4,4.51,4.51,0,0,1,1.09-.13,3.92,3.92,0,0,1,1.16.16,2.68,2.68,0,0,1,1,.49,2.44,2.44,0,0,1,.64.84,3.14,3.14,0,0,1,.28,1.16h-1A1.92,1.92,0,0,0,242.74,600.49Z" transform="translate(-47.19 -540.43)"/><path class="cls-6" d="M250.43,600.49a1.64,1.64,0,0,0-.47-.57,2,2,0,0,0-.68-.33,3.12,3.12,0,0,0-.82-.1,3.21,3.21,0,0,0-.68.07,2.17,2.17,0,0,0-.63.24,1.3,1.3,0,0,0-.46.44,1.17,1.17,0,0,0-.18.67,1,1,0,0,0,.17.57,1.57,1.57,0,0,0,.42.39,2.61,2.61,0,0,0,.56.26c.21.07.39.13.56.17l1.35.31a3.7,3.7,0,0,1,.85.23,2.7,2.7,0,0,1,.76.44,2.22,2.22,0,0,1,.53.67,2,2,0,0,1,.21.94,2.12,2.12,0,0,1-.3,1.15,2.72,2.72,0,0,1-.78.77,3.67,3.67,0,0,1-1.06.42,5.31,5.31,0,0,1-1.17.13,3.78,3.78,0,0,1-2.36-.69,2.88,2.88,0,0,1-1-2.21h1A2,2,0,0,0,247,606a2.72,2.72,0,0,0,1.69.52,4.18,4.18,0,0,0,.76-.08,2.51,2.51,0,0,0,.72-.28,1.74,1.74,0,0,0,.56-.48,1.23,1.23,0,0,0,.21-.73,1.19,1.19,0,0,0-.15-.62,1.34,1.34,0,0,0-.41-.41,2.08,2.08,0,0,0-.58-.28c-.22-.08-.44-.14-.67-.2l-1.29-.28a8.09,8.09,0,0,1-.91-.3,2.73,2.73,0,0,1-.73-.42,1.69,1.69,0,0,1-.49-.6,2.23,2.23,0,0,1,.1-2,2.18,2.18,0,0,1,.73-.72,3,3,0,0,1,1-.4,4.59,4.59,0,0,1,1.1-.13,4,4,0,0,1,1.16.16,2.64,2.64,0,0,1,.94.49,2.47,2.47,0,0,1,.65.84,3,3,0,0,1,.27,1.16h-1A1.78,1.78,0,0,0,250.43,600.49Z" transform="translate(-47.19 -540.43)"/><path class="cls-6" d="M254.12,604.41a3,3,0,0,0,.49,1,2.63,2.63,0,0,0,.85.77,2.39,2.39,0,0,0,1.23.31,2.49,2.49,0,0,0,1.73-.58,3.06,3.06,0,0,0,.86-1.54h1a4.08,4.08,0,0,1-1.18,2.18,3.51,3.51,0,0,1-2.42.77A3.83,3.83,0,0,1,255,607a3.07,3.07,0,0,1-1.16-.94,4.18,4.18,0,0,1-.67-1.39A6.53,6.53,0,0,1,253,603a6.11,6.11,0,0,1,.21-1.6,4.32,4.32,0,0,1,.67-1.4,3.32,3.32,0,0,1,1.16-1,3.57,3.57,0,0,1,1.69-.37,3.28,3.28,0,0,1,2.84,1.45,4.39,4.39,0,0,1,.63,1.48,6.53,6.53,0,0,1,.16,1.71H254A4.56,4.56,0,0,0,254.12,604.41Zm5-3.08a3,3,0,0,0-.52-.94,2.54,2.54,0,0,0-.82-.66,2.35,2.35,0,0,0-1.08-.24,2.45,2.45,0,0,0-1.11.24,2.61,2.61,0,0,0-.81.66,3.12,3.12,0,0,0-.54.94,4.75,4.75,0,0,0-.26,1.1h5.34A3.69,3.69,0,0,0,259.11,601.33Z" transform="translate(-47.19 -540.43)"/><path class="cls-6" d="M265,598.88v.85h-1.68v5.56a1.86,1.86,0,0,0,.13.78c.1.19.32.29.68.31a6.35,6.35,0,0,0,.87,0v.85l-.45,0h-.45a1.48,1.48,0,0,1-1.79-1.84v-5.64h-1.44v-.85h1.44V596.4h1v2.48Z" transform="translate(-47.19 -540.43)"/><path class="cls-6" d="M97.78,623.13v-1.56h0a2.22,2.22,0,0,1-.47.73,3,3,0,0,1-.71.57,4.11,4.11,0,0,1-.86.36,3.11,3.11,0,0,1-.9.13,3.64,3.64,0,0,1-1.64-.35,3.32,3.32,0,0,1-1.16-.94,4,4,0,0,1-.69-1.39,6.49,6.49,0,0,1,0-3.35,4.12,4.12,0,0,1,.69-1.39,3.35,3.35,0,0,1,1.16-1,3.51,3.51,0,0,1,1.64-.35,3.36,3.36,0,0,1,.9.11,3,3,0,0,1,.83.34,3.37,3.37,0,0,1,.68.57,2.29,2.29,0,0,1,.45.79h0v-4.74h1v11.42Zm-5.53-2.85a3.48,3.48,0,0,0,.48,1.13,2.57,2.57,0,0,0,.84.8,2.3,2.3,0,0,0,1.23.32,2.7,2.7,0,0,0,1.35-.32,2.58,2.58,0,0,0,.9-.8,3.29,3.29,0,0,0,.49-1.13A5,5,0,0,0,97.7,619a5.1,5.1,0,0,0-.16-1.28,3.24,3.24,0,0,0-.49-1.12,2.59,2.59,0,0,0-2.25-1.12,2.29,2.29,0,0,0-1.23.31,2.71,2.71,0,0,0-.84.81,3.42,3.42,0,0,0-.48,1.12A5.59,5.59,0,0,0,92.1,619,5.51,5.51,0,0,0,92.25,620.28Z" transform="translate(-47.19 -540.43)"/><path class="cls-6" d="M101.37,620.41a3,3,0,0,0,.49,1,2.7,2.7,0,0,0,.84.77,2.75,2.75,0,0,0,3-.27,3,3,0,0,0,.87-1.54h1a4.08,4.08,0,0,1-1.18,2.18,3.51,3.51,0,0,1-2.42.77,3.83,3.83,0,0,1-1.69-.35,3.07,3.07,0,0,1-1.16-.94,4.18,4.18,0,0,1-.67-1.39,6.53,6.53,0,0,1-.21-1.67,6.11,6.11,0,0,1,.21-1.6,4.32,4.32,0,0,1,.67-1.4,3.32,3.32,0,0,1,1.16-1,3.57,3.57,0,0,1,1.69-.37,3.28,3.28,0,0,1,2.84,1.45,4.39,4.39,0,0,1,.63,1.48,6.53,6.53,0,0,1,.16,1.71h-6.35A4.56,4.56,0,0,0,101.37,620.41Zm5-3.08a3,3,0,0,0-.52-.94,2.65,2.65,0,0,0-.82-.66,2.38,2.38,0,0,0-1.08-.24,2.45,2.45,0,0,0-1.11.24,2.61,2.61,0,0,0-.81.66,3.12,3.12,0,0,0-.54.94,4.75,4.75,0,0,0-.26,1.1h5.34A3.69,3.69,0,0,0,106.36,617.33Z" transform="translate(-47.19 -540.43)"/><path class="cls-6" d="M109.12,614.88l2.59,7.25h0l2.56-7.25h1l-3.08,8.25h-1.08L108,614.88Z" transform="translate(-47.19 -540.43)"/><path class="cls-6" d="M117.08,620.41a3,3,0,0,0,.49,1,2.63,2.63,0,0,0,.85.77,2.39,2.39,0,0,0,1.23.31,2.49,2.49,0,0,0,1.73-.58,3.06,3.06,0,0,0,.86-1.54h1a4.08,4.08,0,0,1-1.18,2.18,3.51,3.51,0,0,1-2.42.77A3.83,3.83,0,0,1,118,623a3.15,3.15,0,0,1-1.16-.94,4,4,0,0,1-.66-1.39,6.12,6.12,0,0,1-.22-1.67,5.72,5.72,0,0,1,.22-1.6,4.11,4.11,0,0,1,.66-1.4,3.41,3.41,0,0,1,1.16-1,3.57,3.57,0,0,1,1.69-.37,3.28,3.28,0,0,1,2.84,1.45,4.39,4.39,0,0,1,.63,1.48,6.53,6.53,0,0,1,.16,1.71h-6.35A4.56,4.56,0,0,0,117.08,620.41Zm5-3.08a2.78,2.78,0,0,0-.52-.94,2.61,2.61,0,0,0-.81-.66,2.42,2.42,0,0,0-1.09-.24,2.45,2.45,0,0,0-1.11.24,2.61,2.61,0,0,0-.81.66,3.34,3.34,0,0,0-.54.94,4.75,4.75,0,0,0-.26,1.1h5.34A3.69,3.69,0,0,0,122.07,617.33Z" transform="translate(-47.19 -540.43)"/><path class="cls-6" d="M125.66,611.71v11.42h-1V611.71Z" transform="translate(-47.19 -540.43)"/><path class="cls-6" d="M132.76,615a3.56,3.56,0,0,1,1.22.94,4.35,4.35,0,0,1,.76,1.39A5.48,5.48,0,0,1,135,619a5.42,5.42,0,0,1-.25,1.68,4.35,4.35,0,0,1-.76,1.39,3.54,3.54,0,0,1-1.22.93,4.16,4.16,0,0,1-3.34,0,3.58,3.58,0,0,1-1.23-.93,4.14,4.14,0,0,1-.75-1.39,5.42,5.42,0,0,1-.26-1.68,5.49,5.49,0,0,1,.26-1.69,4.14,4.14,0,0,1,.75-1.39,3.6,3.6,0,0,1,1.23-.94,4.16,4.16,0,0,1,3.34,0Zm-2.94.8a2.77,2.77,0,0,0-.9.8,3.58,3.58,0,0,0-.54,1.13,4.44,4.44,0,0,0,0,2.57,3.58,3.58,0,0,0,.54,1.13,2.77,2.77,0,0,0,.9.8,2.62,2.62,0,0,0,1.27.31,2.56,2.56,0,0,0,1.26-.31,2.8,2.8,0,0,0,.91-.8,3.58,3.58,0,0,0,.54-1.13,4.68,4.68,0,0,0,0-2.57,3.58,3.58,0,0,0-.54-1.13,2.8,2.8,0,0,0-.91-.8,2.55,2.55,0,0,0-1.26-.3A2.62,2.62,0,0,0,129.82,615.79Z" transform="translate(-47.19 -540.43)"/><path class="cls-6" d="M137.42,614.88v1.57h0a2.63,2.63,0,0,1,1.14-1.34,3.41,3.41,0,0,1,1.8-.47A3.51,3.51,0,0,1,142,615a3.35,3.35,0,0,1,1.16,1,4.12,4.12,0,0,1,.69,1.39,6.49,6.49,0,0,1,0,3.35,4,4,0,0,1-.69,1.39A3.32,3.32,0,0,1,142,623a3.64,3.64,0,0,1-1.64.35,4,4,0,0,1-.9-.11,3.54,3.54,0,0,1-.83-.34,3,3,0,0,1-.68-.56,2.25,2.25,0,0,1-.45-.78h0v4.6h-1V614.88Zm5.53,2.85a3.42,3.42,0,0,0-.48-1.12,2.71,2.71,0,0,0-.84-.81,2.29,2.29,0,0,0-1.23-.31,3,3,0,0,0-1.39.28,2.51,2.51,0,0,0-.9.77,3.13,3.13,0,0,0-.47,1.12,6.57,6.57,0,0,0-.14,1.35,5,5,0,0,0,.16,1.27,3.29,3.29,0,0,0,.49,1.13,2.58,2.58,0,0,0,.9.8,2.7,2.7,0,0,0,1.35.32,2.3,2.3,0,0,0,1.23-.32,2.57,2.57,0,0,0,.84-.8,3.48,3.48,0,0,0,.48-1.13,5.51,5.51,0,0,0,.15-1.27A5.59,5.59,0,0,0,143,617.73Z" transform="translate(-47.19 -540.43)"/><path class="cls-6" d="M146.61,614.88v1.39h0a3.13,3.13,0,0,1,1-1.2,3,3,0,0,1,1.66-.43,2.79,2.79,0,0,1,1.48.4,2,2,0,0,1,.89,1.21,2.48,2.48,0,0,1,1.09-1.21,3.07,3.07,0,0,1,1.53-.4c1.83,0,2.74,1,2.74,2.89v5.6h-1v-5.55a2.44,2.44,0,0,0-.43-1.56,1.86,1.86,0,0,0-1.52-.53,2.23,2.23,0,0,0-1.09.24,1.93,1.93,0,0,0-.69.67,2.76,2.76,0,0,0-.36,1,5.8,5.8,0,0,0-.1,1.11v4.67h-1v-5.6a3.42,3.42,0,0,0-.09-.79,1.68,1.68,0,0,0-.29-.65,1.27,1.27,0,0,0-.53-.44,1.88,1.88,0,0,0-.82-.16,2.42,2.42,0,0,0-1.11.23,2.09,2.09,0,0,0-.77.64,2.83,2.83,0,0,0-.44,1,5.09,5.09,0,0,0-.14,1.21v4.6h-1v-8.25Z" transform="translate(-47.19 -540.43)"/><path class="cls-6" d="M159.75,620.41a3.21,3.21,0,0,0,.49,1,2.74,2.74,0,0,0,.85.77,2.39,2.39,0,0,0,1.23.31,2.48,2.48,0,0,0,1.73-.58,3.06,3.06,0,0,0,.86-1.54h1a4,4,0,0,1-1.18,2.18,3.5,3.5,0,0,1-2.42.77,3.86,3.86,0,0,1-1.69-.35,3.15,3.15,0,0,1-1.16-.94,4,4,0,0,1-.66-1.39,6.12,6.12,0,0,1-.22-1.67,5.72,5.72,0,0,1,.22-1.6,4.11,4.11,0,0,1,.66-1.4,3.41,3.41,0,0,1,1.16-1,3.6,3.6,0,0,1,1.69-.37,3.37,3.37,0,0,1,1.7.4,3.28,3.28,0,0,1,1.14,1.05,4.39,4.39,0,0,1,.63,1.48,6.53,6.53,0,0,1,.16,1.71H159.6A4.56,4.56,0,0,0,159.75,620.41Zm5-3.08a2.78,2.78,0,0,0-.52-.94,2.61,2.61,0,0,0-.81-.66,2.62,2.62,0,0,0-2.19,0,2.65,2.65,0,0,0-.82.66,3.61,3.61,0,0,0-.54.94,4.75,4.75,0,0,0-.26,1.1h5.34A3.4,3.4,0,0,0,164.74,617.33Z" transform="translate(-47.19 -540.43)"/><path class="cls-6" d="M168.3,614.88v1.42h0a2.44,2.44,0,0,1,1-1.21,3,3,0,0,1,1.62-.45,4,4,0,0,1,1.44.22,2.36,2.36,0,0,1,.94.63,2.55,2.55,0,0,1,.5,1,6,6,0,0,1,.14,1.33v5.31h-1V618a5,5,0,0,0-.09-1,2.1,2.1,0,0,0-.34-.79,1.62,1.62,0,0,0-.65-.53,2.33,2.33,0,0,0-1-.19,2.6,2.6,0,0,0-1.08.21,2.29,2.29,0,0,0-.8.59,2.84,2.84,0,0,0-.52.9,3.72,3.72,0,0,0-.2,1.13v4.81h-1v-8.25Z" transform="translate(-47.19 -540.43)"/><path class="cls-6" d="M179.18,614.88v.85H177.5v5.56a1.84,1.84,0,0,0,.14.78c.09.19.32.29.68.31a6.11,6.11,0,0,0,.86,0v.85l-.44,0h-.45a2,2,0,0,1-1.41-.39,1.91,1.91,0,0,1-.38-1.45v-5.64h-1.44v-.85h1.44V612.4h1v2.48Z" transform="translate(-47.19 -540.43)"/><path class="cls-6" d="M186.64,615.73v7.4h-1v-7.4h-1.41v-.85h1.41v-.75a5.89,5.89,0,0,1,.08-1,1.89,1.89,0,0,1,.31-.77,1.36,1.36,0,0,1,.61-.49,2.42,2.42,0,0,1,1-.18,2.82,2.82,0,0,1,.42,0l.43,0v.87l-.39-.06-.35,0a1.27,1.27,0,0,0-.64.13.77.77,0,0,0-.33.34,1.75,1.75,0,0,0-.12.5c0,.2,0,.4,0,.63v.72h1.63v.85Z" transform="translate(-47.19 -540.43)"/><path class="cls-6" d="M194.39,615a3.56,3.56,0,0,1,1.22.94,4.16,4.16,0,0,1,.76,1.39,5.48,5.48,0,0,1,.25,1.69,5.42,5.42,0,0,1-.25,1.68,4.16,4.16,0,0,1-.76,1.39,3.54,3.54,0,0,1-1.22.93,4.16,4.16,0,0,1-3.34,0,3.58,3.58,0,0,1-1.23-.93,4.14,4.14,0,0,1-.75-1.39,5.42,5.42,0,0,1-.26-1.68,5.49,5.49,0,0,1,.26-1.69,4.14,4.14,0,0,1,.75-1.39,3.6,3.6,0,0,1,1.23-.94,4.16,4.16,0,0,1,3.34,0Zm-2.94.8a2.77,2.77,0,0,0-.9.8,3.58,3.58,0,0,0-.54,1.13,4.44,4.44,0,0,0,0,2.57,3.58,3.58,0,0,0,.54,1.13,2.77,2.77,0,0,0,.9.8,2.62,2.62,0,0,0,1.27.31,2.56,2.56,0,0,0,1.26-.31,2.7,2.7,0,0,0,.91-.8,3.58,3.58,0,0,0,.54-1.13,4.68,4.68,0,0,0,0-2.57,3.58,3.58,0,0,0-.54-1.13,2.7,2.7,0,0,0-.91-.8,2.55,2.55,0,0,0-1.26-.3A2.62,2.62,0,0,0,191.45,615.79Z" transform="translate(-47.19 -540.43)"/><path class="cls-6" d="M199.05,614.88v1.93h0a3,3,0,0,1,3.12-2v1A3,3,0,0,0,201,616a2.76,2.76,0,0,0-1,.61,2.86,2.86,0,0,0-.63,1,3.13,3.13,0,0,0-.23,1.2v4.4h-1v-8.25Z" transform="translate(-47.19 -540.43)"/><path class="cls-6" d="M208.36,620.41a3,3,0,0,0,.49,1,2.7,2.7,0,0,0,.84.77,2.75,2.75,0,0,0,3-.27,3,3,0,0,0,.87-1.54h1a4.08,4.08,0,0,1-1.18,2.18,3.51,3.51,0,0,1-2.42.77,3.83,3.83,0,0,1-1.69-.35,3.07,3.07,0,0,1-1.16-.94,4.18,4.18,0,0,1-.67-1.39,6.53,6.53,0,0,1-.21-1.67,6.11,6.11,0,0,1,.21-1.6,4.32,4.32,0,0,1,.67-1.4,3.32,3.32,0,0,1,1.16-1,3.57,3.57,0,0,1,1.69-.37,3.28,3.28,0,0,1,2.84,1.45,4.39,4.39,0,0,1,.63,1.48,6.53,6.53,0,0,1,.16,1.71h-6.35A4.56,4.56,0,0,0,208.36,620.41Zm5-3.08a3,3,0,0,0-.52-.94,2.65,2.65,0,0,0-.82-.66,2.38,2.38,0,0,0-1.08-.24,2.45,2.45,0,0,0-1.11.24,2.61,2.61,0,0,0-.81.66,3.12,3.12,0,0,0-.54.94,4.75,4.75,0,0,0-.26,1.1h5.34A3.69,3.69,0,0,0,213.35,617.33Z" transform="translate(-47.19 -540.43)"/><path class="cls-6" d="M216.13,616.16a2.47,2.47,0,0,1,.69-.87,3,3,0,0,1,1-.49,5,5,0,0,1,1.32-.16,5.64,5.64,0,0,1,1.08.1,2.65,2.65,0,0,1,1,.39,2.22,2.22,0,0,1,.7.81,2.82,2.82,0,0,1,.28,1.35v4.39a.53.53,0,0,0,.59.61.83.83,0,0,0,.32-.07v.85l-.31,0h-.35a1.49,1.49,0,0,1-.61-.1.77.77,0,0,1-.36-.3.94.94,0,0,1-.17-.45,3.57,3.57,0,0,1,0-.59h0a7.52,7.52,0,0,1-.56.72,2.81,2.81,0,0,1-.62.52,3.44,3.44,0,0,1-.78.32,4.64,4.64,0,0,1-1,.11,4.09,4.09,0,0,1-1.08-.14,2.34,2.34,0,0,1-.88-.43,2.07,2.07,0,0,1-.59-.75,2.45,2.45,0,0,1-.22-1.08,2.15,2.15,0,0,1,.38-1.35,2.43,2.43,0,0,1,1-.75,5.9,5.9,0,0,1,1.42-.36l1.61-.2c.22,0,.4,0,.56-.08a.92.92,0,0,0,.4-.17.8.8,0,0,0,.25-.32,1.4,1.4,0,0,0,.09-.55,1.87,1.87,0,0,0-.17-.84,1.37,1.37,0,0,0-.46-.52,1.9,1.9,0,0,0-.69-.26,4.46,4.46,0,0,0-.84-.07,2.58,2.58,0,0,0-1.57.45,1.78,1.78,0,0,0-.64,1.47h-1A3.33,3.33,0,0,1,216.13,616.16Zm5,2.46a.62.62,0,0,1-.37.26,4,4,0,0,1-.48.11l-1.32.2a7.93,7.93,0,0,0-1.24.26,2.4,2.4,0,0,0-.92.51,1.2,1.2,0,0,0-.36.93,1.45,1.45,0,0,0,.15.68,1.72,1.72,0,0,0,.41.52,1.77,1.77,0,0,0,.59.32,2,2,0,0,0,.69.12,3.38,3.38,0,0,0,1.1-.18,2.84,2.84,0,0,0,.92-.51A2.68,2.68,0,0,0,221,621a2.53,2.53,0,0,0,.23-1.09v-1.31Z" transform="translate(-47.19 -540.43)"/><path class="cls-6" d="M229.28,616a2.22,2.22,0,0,0-1.57-.52,2.55,2.55,0,0,0-1.26.3,2.7,2.7,0,0,0-.91.8,3.58,3.58,0,0,0-.54,1.13,4.44,4.44,0,0,0,0,2.57,3.58,3.58,0,0,0,.54,1.13,2.7,2.7,0,0,0,.91.8,2.56,2.56,0,0,0,1.26.31,2.2,2.2,0,0,0,.88-.18,2.45,2.45,0,0,0,.74-.49,2.75,2.75,0,0,0,.78-1.69h1a3.8,3.8,0,0,1-1.11,2.35,3.21,3.21,0,0,1-2.3.84A3.83,3.83,0,0,1,226,623a3.58,3.58,0,0,1-1.23-.93,4.14,4.14,0,0,1-.75-1.39,5.42,5.42,0,0,1-.25-1.68,5.48,5.48,0,0,1,.25-1.69,4.14,4.14,0,0,1,.75-1.39A3.6,3.6,0,0,1,226,615a3.7,3.7,0,0,1,1.67-.35,3.61,3.61,0,0,1,2.25.7,3,3,0,0,1,1.09,2.13h-1A2.85,2.85,0,0,0,229.28,616Z" transform="translate(-47.19 -540.43)"/><path class="cls-6" d="M233.52,611.71v4.59h0a2.44,2.44,0,0,1,1-1.21,3,3,0,0,1,1.62-.45,4.06,4.06,0,0,1,1.45.22,2.26,2.26,0,0,1,.93.63,2.42,2.42,0,0,1,.5,1,5.49,5.49,0,0,1,.14,1.33v5.31h-1V618a5,5,0,0,0-.1-1,2,2,0,0,0-.34-.79,1.59,1.59,0,0,0-.64-.53,2.41,2.41,0,0,0-1-.19,2.6,2.6,0,0,0-1.08.21,2.38,2.38,0,0,0-.8.59,2.64,2.64,0,0,0-.51.9,3.43,3.43,0,0,0-.2,1.13v4.81h-1V611.71Z" transform="translate(-47.19 -540.43)"/><path class="cls-6" d="M250.32,616.49a1.75,1.75,0,0,0-.47-.57,2,2,0,0,0-.68-.33,3.12,3.12,0,0,0-.82-.1,3.21,3.21,0,0,0-.68.07,2.17,2.17,0,0,0-.63.24,1.41,1.41,0,0,0-.47.44,1.26,1.26,0,0,0-.17.67.92.92,0,0,0,.17.57,1.57,1.57,0,0,0,.42.39,2.61,2.61,0,0,0,.56.26,5.7,5.7,0,0,0,.56.17l1.34.31a3.78,3.78,0,0,1,.86.23,2.79,2.79,0,0,1,.75.44,2.1,2.1,0,0,1,.54.67,2,2,0,0,1,.21.94,2.12,2.12,0,0,1-.31,1.15,2.57,2.57,0,0,1-.77.77,3.62,3.62,0,0,1-1.07.42,5.18,5.18,0,0,1-1.17.13,3.8,3.8,0,0,1-2.36-.69,3,3,0,0,1-1-2.21h1a2,2,0,0,0,.74,1.55,2.76,2.76,0,0,0,1.69.52,4,4,0,0,0,.76-.08,2.57,2.57,0,0,0,.73-.28,1.71,1.71,0,0,0,.55-.48,1.17,1.17,0,0,0,.22-.73,1.19,1.19,0,0,0-.15-.62,1.46,1.46,0,0,0-.41-.41,2.15,2.15,0,0,0-.59-.28c-.22-.08-.44-.14-.66-.2l-1.3-.28a8.83,8.83,0,0,1-.91-.3,2.73,2.73,0,0,1-.73-.42,1.66,1.66,0,0,1-.48-.6,2,2,0,0,1-.18-.89,1.92,1.92,0,0,1,.28-1.07,2.18,2.18,0,0,1,.73-.72,3,3,0,0,1,1-.4,4.57,4.57,0,0,1,1.09-.13,3.87,3.87,0,0,1,1.16.16,2.6,2.6,0,0,1,.95.49,2.47,2.47,0,0,1,.65.84,3,3,0,0,1,.27,1.16h-1A1.92,1.92,0,0,0,250.32,616.49Z" transform="translate(-47.19 -540.43)"/><path class="cls-6" d="M254.19,614.88v1.57h0a2.7,2.7,0,0,1,1.15-1.34,3.36,3.36,0,0,1,1.8-.47,3.57,3.57,0,0,1,1.64.35,3.35,3.35,0,0,1,1.16,1,4.29,4.29,0,0,1,.68,1.39,6.21,6.21,0,0,1,0,3.35,4.19,4.19,0,0,1-.68,1.39,3.32,3.32,0,0,1-1.16.94,3.7,3.7,0,0,1-1.64.35,4,4,0,0,1-.9-.11,3.22,3.22,0,0,1-.83-.34,2.64,2.64,0,0,1-.68-.56,2.44,2.44,0,0,1-.46-.78h0v4.6h-1V614.88Zm5.53,2.85a3.42,3.42,0,0,0-.48-1.12,2.71,2.71,0,0,0-.84-.81,2.29,2.29,0,0,0-1.23-.31,3.09,3.09,0,0,0-1.4.28,2.48,2.48,0,0,0-.89.77,3,3,0,0,0-.47,1.12,6,6,0,0,0-.14,1.35,5.51,5.51,0,0,0,.15,1.27,3.31,3.31,0,0,0,.5,1.13,2.63,2.63,0,0,0,.89.8,2.71,2.71,0,0,0,1.36.32,2.3,2.3,0,0,0,1.23-.32,2.57,2.57,0,0,0,.84-.8,3.48,3.48,0,0,0,.48-1.13,5.51,5.51,0,0,0,.15-1.27A5.59,5.59,0,0,0,259.72,617.73Z" transform="translate(-47.19 -540.43)"/><path class="cls-6" d="M263.37,614.88v1.93h0a3,3,0,0,1,3.12-2v1a3,3,0,0,0-1.25.19,2.76,2.76,0,0,0-1,.61,2.86,2.86,0,0,0-.63,1,3.13,3.13,0,0,0-.23,1.2v4.4h-1v-8.25Z" transform="translate(-47.19 -540.43)"/><path class="cls-6" d="M268.51,611.71v1.62h-1v-1.62Zm0,3.17v8.25h-1v-8.25Z" transform="translate(-47.19 -540.43)"/><path class="cls-6" d="M271.44,614.88v1.42h0a2.44,2.44,0,0,1,1-1.21,3,3,0,0,1,1.62-.45,4.06,4.06,0,0,1,1.45.22,2.26,2.26,0,0,1,.93.63,2.42,2.42,0,0,1,.5,1,5.49,5.49,0,0,1,.14,1.33v5.31h-1V618a5,5,0,0,0-.1-1,2,2,0,0,0-.34-.79,1.59,1.59,0,0,0-.64-.53,2.41,2.41,0,0,0-1-.19,2.6,2.6,0,0,0-1.08.21,2.38,2.38,0,0,0-.8.59,2.64,2.64,0,0,0-.51.9,3.43,3.43,0,0,0-.2,1.13v4.81h-1v-8.25Z" transform="translate(-47.19 -540.43)"/><path class="cls-6" d="M282.32,614.88v.85h-1.68v5.56a1.86,1.86,0,0,0,.13.78c.09.19.32.29.68.31a6.35,6.35,0,0,0,.87,0v.85l-.45,0h-.45a1.48,1.48,0,0,1-1.79-1.84v-5.64h-1.44v-.85h1.44V612.4h1v2.48Z" transform="translate(-47.19 -540.43)"/><path class="cls-6" d="M92.46,627.71v1.62h-1v-1.62Zm0,3.17v8.25h-1v-8.25Z" transform="translate(-47.19 -540.43)"/><path class="cls-6" d="M99.15,632.49a1.53,1.53,0,0,0-.47-.57,2,2,0,0,0-.68-.33,3.12,3.12,0,0,0-.82-.1,3.21,3.21,0,0,0-.68.07,2.17,2.17,0,0,0-.63.24,1.38,1.38,0,0,0-.46.44,1.17,1.17,0,0,0-.18.67,1,1,0,0,0,.17.57,1.57,1.57,0,0,0,.42.39,2.85,2.85,0,0,0,.56.26c.21.07.39.13.56.17l1.35.31a3.7,3.7,0,0,1,.85.23,2.7,2.7,0,0,1,.76.44,2.22,2.22,0,0,1,.53.67,2,2,0,0,1,.21.94,2.12,2.12,0,0,1-.3,1.15,2.6,2.6,0,0,1-.78.77,3.56,3.56,0,0,1-1.06.42,5.31,5.31,0,0,1-1.17.13,3.78,3.78,0,0,1-2.36-.69,2.91,2.91,0,0,1-1-2.21h1a2,2,0,0,0,.75,1.55,2.72,2.72,0,0,0,1.69.52,4.09,4.09,0,0,0,.76-.08,2.51,2.51,0,0,0,.72-.28,1.74,1.74,0,0,0,.56-.48,1.23,1.23,0,0,0,.21-.73,1.19,1.19,0,0,0-.15-.62,1.34,1.34,0,0,0-.41-.41,2.08,2.08,0,0,0-.58-.28c-.22-.08-.44-.14-.67-.2l-1.29-.28a8.09,8.09,0,0,1-.91-.3,2.73,2.73,0,0,1-.73-.42,1.69,1.69,0,0,1-.49-.6,2.23,2.23,0,0,1,.1-2,2.18,2.18,0,0,1,.73-.72,3,3,0,0,1,1-.4,4.65,4.65,0,0,1,1.1-.13,4,4,0,0,1,1.16.16,2.56,2.56,0,0,1,.94.49,2.47,2.47,0,0,1,.65.84,3,3,0,0,1,.27,1.16h-1A1.78,1.78,0,0,0,99.15,632.49Z" transform="translate(-47.19 -540.43)"/><path class="cls-6" d="M107.47,630.88v1.39h0a3.24,3.24,0,0,1,1-1.2,2.89,2.89,0,0,1,1.65-.43,2.76,2.76,0,0,1,1.48.4,1.92,1.92,0,0,1,.89,1.21,2.53,2.53,0,0,1,1.09-1.21,3.08,3.08,0,0,1,1.54-.4c1.82,0,2.73,1,2.73,2.89v5.6h-1v-5.55a2.44,2.44,0,0,0-.43-1.56,1.84,1.84,0,0,0-1.52-.53,2.23,2.23,0,0,0-1.09.24,2,2,0,0,0-.68.67,2.76,2.76,0,0,0-.36,1,5.8,5.8,0,0,0-.11,1.11v4.67h-1v-5.6a4.07,4.07,0,0,0-.08-.79,1.84,1.84,0,0,0-.29-.65,1.3,1.3,0,0,0-.54-.44,1.8,1.8,0,0,0-.81-.16,2.46,2.46,0,0,0-1.12.23,2,2,0,0,0-.76.64,2.65,2.65,0,0,0-.44,1,4.61,4.61,0,0,0-.15,1.21v4.6h-1v-8.25Z" transform="translate(-47.19 -540.43)"/><path class="cls-6" d="M120.08,632.16a2.39,2.39,0,0,1,.7-.87,2.81,2.81,0,0,1,1-.49,4.85,4.85,0,0,1,1.31-.16,5.74,5.74,0,0,1,1.09.1,2.61,2.61,0,0,1,1,.39,2.24,2.24,0,0,1,.71.81,3,3,0,0,1,.27,1.35v4.39a.53.53,0,0,0,.59.61.79.79,0,0,0,.32-.07v.85l-.31,0h-.34a1.51,1.51,0,0,1-.62-.1.88.88,0,0,1-.36-.3,1.06,1.06,0,0,1-.17-.45,5.14,5.14,0,0,1,0-.59h0a7.51,7.51,0,0,1-.55.72,3.11,3.11,0,0,1-.63.52,3.44,3.44,0,0,1-.78.32,4.51,4.51,0,0,1-1,.11,4.2,4.2,0,0,1-1.08-.14,2.41,2.41,0,0,1-.88-.43,2.07,2.07,0,0,1-.59-.75,2.6,2.6,0,0,1-.22-1.08,2.09,2.09,0,0,1,.39-1.35,2.34,2.34,0,0,1,1-.75,6,6,0,0,1,1.43-.36l1.61-.2.56-.08a1,1,0,0,0,.4-.17.77.77,0,0,0,.24-.32,1.4,1.4,0,0,0,.09-.55,1.75,1.75,0,0,0-.17-.84,1.29,1.29,0,0,0-.46-.52,1.9,1.9,0,0,0-.69-.26,4.46,4.46,0,0,0-.84-.07,2.58,2.58,0,0,0-1.57.45,1.84,1.84,0,0,0-.64,1.47h-1A3.33,3.33,0,0,1,120.08,632.16Zm5,2.46a.59.59,0,0,1-.37.26,4,4,0,0,1-.48.11l-1.32.2a8.45,8.45,0,0,0-1.24.26,2.47,2.47,0,0,0-.92.51,1.2,1.2,0,0,0-.36.93,1.45,1.45,0,0,0,.15.68,1.89,1.89,0,0,0,.41.52,1.77,1.77,0,0,0,.59.32,2.09,2.09,0,0,0,.69.12,3.44,3.44,0,0,0,1.11-.18,2.94,2.94,0,0,0,.92-.51,2.46,2.46,0,0,0,.85-1.91v-1.31Z" transform="translate(-47.19 -540.43)"/><path class="cls-6" d="M129.17,630.88v1.42h0a2.44,2.44,0,0,1,1-1.21,3,3,0,0,1,1.62-.45,4.06,4.06,0,0,1,1.45.22,2.26,2.26,0,0,1,.93.63,2.42,2.42,0,0,1,.5,1,5.49,5.49,0,0,1,.14,1.33v5.31h-1V634a5,5,0,0,0-.1-1,2,2,0,0,0-.34-.79,1.59,1.59,0,0,0-.64-.53,2.38,2.38,0,0,0-1-.19,2.6,2.6,0,0,0-1.08.21,2.48,2.48,0,0,0-.8.59,2.64,2.64,0,0,0-.51.9,3.72,3.72,0,0,0-.2,1.13v4.81h-1v-8.25Z" transform="translate(-47.19 -540.43)"/><path class="cls-6" d="M137,632.16a2.47,2.47,0,0,1,.69-.87,2.89,2.89,0,0,1,1-.49,5,5,0,0,1,1.32-.16,5.64,5.64,0,0,1,1.08.1,2.65,2.65,0,0,1,1,.39,2.22,2.22,0,0,1,.7.81,2.94,2.94,0,0,1,.28,1.35v4.39a.53.53,0,0,0,.59.61.88.88,0,0,0,.32-.07v.85l-.31,0h-.35a1.49,1.49,0,0,1-.61-.1.77.77,0,0,1-.36-.3.94.94,0,0,1-.17-.45,3.57,3.57,0,0,1,0-.59h0a7.52,7.52,0,0,1-.56.72,2.81,2.81,0,0,1-.62.52,3.44,3.44,0,0,1-.78.32,4.64,4.64,0,0,1-1,.11,4.09,4.09,0,0,1-1.08-.14,2.34,2.34,0,0,1-.88-.43,2.07,2.07,0,0,1-.59-.75,2.45,2.45,0,0,1-.22-1.08,2.15,2.15,0,0,1,.38-1.35,2.43,2.43,0,0,1,1-.75,5.9,5.9,0,0,1,1.42-.36l1.61-.2.56-.08a1,1,0,0,0,.4-.17.8.8,0,0,0,.25-.32,1.4,1.4,0,0,0,.09-.55,1.87,1.87,0,0,0-.17-.84,1.37,1.37,0,0,0-.46-.52,1.9,1.9,0,0,0-.69-.26,4.46,4.46,0,0,0-.84-.07,2.58,2.58,0,0,0-1.57.45,1.78,1.78,0,0,0-.64,1.47h-1A3.15,3.15,0,0,1,137,632.16Zm5,2.46a.62.62,0,0,1-.37.26,4,4,0,0,1-.48.11l-1.32.2a7.93,7.93,0,0,0-1.24.26,2.4,2.4,0,0,0-.92.51,1.2,1.2,0,0,0-.36.93,1.45,1.45,0,0,0,.15.68,1.72,1.72,0,0,0,.41.52,1.77,1.77,0,0,0,.59.32,2,2,0,0,0,.69.12,3.38,3.38,0,0,0,1.1-.18,2.84,2.84,0,0,0,.92-.51,2.68,2.68,0,0,0,.63-.82,2.53,2.53,0,0,0,.23-1.09v-1.31Z" transform="translate(-47.19 -540.43)"/><path class="cls-6" d="M151.85,640.11a3.42,3.42,0,0,1-.63,1.25,2.79,2.79,0,0,1-1.13.78,4.76,4.76,0,0,1-1.71.27,4.88,4.88,0,0,1-1.21-.14,3.67,3.67,0,0,1-1.07-.45,2.72,2.72,0,0,1-.78-.77,2.29,2.29,0,0,1-.36-1.13h1a1.63,1.63,0,0,0,.31.77,1.82,1.82,0,0,0,.56.51,2.46,2.46,0,0,0,.73.28,3.66,3.66,0,0,0,.81.09,2.45,2.45,0,0,0,2-.8,3.76,3.76,0,0,0,.62-2.31v-1.12h0a3,3,0,0,1-1,1.23,2.79,2.79,0,0,1-1.6.47,4,4,0,0,1-1.69-.33,3.16,3.16,0,0,1-1.16-.9,3.69,3.69,0,0,1-.67-1.36,6.27,6.27,0,0,1-.2-1.65,5.32,5.32,0,0,1,.24-1.61,4.15,4.15,0,0,1,.72-1.33,3.31,3.31,0,0,1,1.17-.89,3.71,3.71,0,0,1,1.59-.33,2.84,2.84,0,0,1,.88.13,2.42,2.42,0,0,1,.74.36,3.35,3.35,0,0,1,.6.53,2.48,2.48,0,0,1,.41.64h0v-1.42h1v7.58A6.43,6.43,0,0,1,151.85,640.11Zm-2.31-2.2a2.67,2.67,0,0,0,.83-.74,3.24,3.24,0,0,0,.5-1,4.55,4.55,0,0,0,.17-1.22,5.64,5.64,0,0,0-.14-1.22,3.73,3.73,0,0,0-.47-1.1,2.51,2.51,0,0,0-.82-.8,2.71,2.71,0,0,0-2.46,0,2.76,2.76,0,0,0-.85.78,3.26,3.26,0,0,0-.48,1.09,4.84,4.84,0,0,0-.16,1.26,5,5,0,0,0,.16,1.22,3.24,3.24,0,0,0,.5,1,2.53,2.53,0,0,0,.85.74,2.43,2.43,0,0,0,1.21.28A2.32,2.32,0,0,0,149.54,637.91Z" transform="translate(-47.19 -540.43)"/><path class="cls-6" d="M154.71,636.41a3.21,3.21,0,0,0,.49,1,2.74,2.74,0,0,0,.85.77,2.39,2.39,0,0,0,1.23.31A2.48,2.48,0,0,0,159,638a3.06,3.06,0,0,0,.86-1.54h1a4,4,0,0,1-1.18,2.18,3.51,3.51,0,0,1-2.42.77,3.86,3.86,0,0,1-1.69-.35,3.15,3.15,0,0,1-1.16-.94,4,4,0,0,1-.66-1.39,6.12,6.12,0,0,1-.22-1.67,5.72,5.72,0,0,1,.22-1.6,4.11,4.11,0,0,1,.66-1.4,3.41,3.41,0,0,1,1.16-1,3.6,3.6,0,0,1,1.69-.37,3.37,3.37,0,0,1,1.7.4,3.28,3.28,0,0,1,1.14,1.05,4.39,4.39,0,0,1,.63,1.48,6.53,6.53,0,0,1,.16,1.71h-6.35A4.56,4.56,0,0,0,154.71,636.41Zm5-3.08a2.78,2.78,0,0,0-.52-.94,2.61,2.61,0,0,0-.81-.66,2.62,2.62,0,0,0-2.19,0,2.65,2.65,0,0,0-.82.66,3.61,3.61,0,0,0-.54.94,4.75,4.75,0,0,0-.26,1.1h5.34A3.4,3.4,0,0,0,159.7,633.33Z" transform="translate(-47.19 -540.43)"/><path class="cls-6" d="M168.61,639.13v-1.56h0a2.43,2.43,0,0,1-.48.73,2.83,2.83,0,0,1-.71.57,4.26,4.26,0,0,1-.85.36,3.23,3.23,0,0,1-.91.13A3.67,3.67,0,0,1,164,639a3.32,3.32,0,0,1-1.16-.94,4,4,0,0,1-.69-1.39,6.49,6.49,0,0,1,0-3.35,4.12,4.12,0,0,1,.69-1.39,3.35,3.35,0,0,1,1.16-1,3.54,3.54,0,0,1,1.64-.35,3.49,3.49,0,0,1,.91.11,2.93,2.93,0,0,1,1.5.91,2.49,2.49,0,0,1,.46.79h0v-4.74h1v11.42Zm-5.53-2.85a3.48,3.48,0,0,0,.48,1.13,2.57,2.57,0,0,0,.84.8,2.3,2.3,0,0,0,1.23.32,2.67,2.67,0,0,0,1.35-.32,2.58,2.58,0,0,0,.9-.8,3.51,3.51,0,0,0,.5-1.13,5.51,5.51,0,0,0,.15-1.27,5.59,5.59,0,0,0-.15-1.28,3.45,3.45,0,0,0-.5-1.12,2.71,2.71,0,0,0-.9-.81,2.67,2.67,0,0,0-1.35-.31,2.29,2.29,0,0,0-1.23.31,2.71,2.71,0,0,0-.84.81,3.42,3.42,0,0,0-.48,1.12,5.59,5.59,0,0,0-.15,1.28A5.51,5.51,0,0,0,163.08,636.28Z" transform="translate(-47.19 -540.43)"/><path class="cls-6" d="M176.14,630.88l2.12,7.07h0l2-7.07h1.14l2,7.07h0l2.11-7.07h1.07L184,639.13h-1.11l-2-6.94h0l-2,6.94h-1.1l-2.66-8.25Z" transform="translate(-47.19 -540.43)"/><path class="cls-6" d="M188.78,627.71v1.62h-1v-1.62Zm0,3.17v8.25h-1v-8.25Z" transform="translate(-47.19 -540.43)"/><path class="cls-6" d="M194,630.88v.85h-1.68v5.56a1.7,1.7,0,0,0,.14.78c.09.19.31.29.68.31a6.29,6.29,0,0,0,.86,0v.85l-.45,0h-.45a1.49,1.49,0,0,1-1.79-1.84v-5.64h-1.44v-.85h1.44V628.4h1v2.48Z" transform="translate(-47.19 -540.43)"/><path class="cls-6" d="M196.45,627.71v4.59h0a2.44,2.44,0,0,1,1-1.21,3,3,0,0,1,1.62-.45,4.06,4.06,0,0,1,1.45.22,2.26,2.26,0,0,1,.93.63,2.42,2.42,0,0,1,.5,1,5.49,5.49,0,0,1,.14,1.33v5.31h-1V634a5,5,0,0,0-.1-1,2,2,0,0,0-.34-.79,1.59,1.59,0,0,0-.64-.53,2.41,2.41,0,0,0-1-.19,2.6,2.6,0,0,0-1.08.21,2.38,2.38,0,0,0-.8.59,2.64,2.64,0,0,0-.51.9,3.43,3.43,0,0,0-.2,1.13v4.81h-1V627.71Z" transform="translate(-47.19 -540.43)"/><path class="cls-6" d="M205.07,627.71v1.62h-1v-1.62Zm0,3.17v8.25h-1v-8.25Z" transform="translate(-47.19 -540.43)"/><path class="cls-6" d="M208,630.88v1.42h0a2.44,2.44,0,0,1,1-1.21,3.07,3.07,0,0,1,1.62-.45,4.06,4.06,0,0,1,1.45.22,2.26,2.26,0,0,1,.93.63,2.31,2.31,0,0,1,.5,1,5.49,5.49,0,0,1,.14,1.33v5.31h-1V634a5,5,0,0,0-.1-1,1.83,1.83,0,0,0-.34-.79,1.59,1.59,0,0,0-.64-.53,2.38,2.38,0,0,0-1-.19,2.67,2.67,0,0,0-1.08.21,2.48,2.48,0,0,0-.8.59,2.64,2.64,0,0,0-.51.9,3.72,3.72,0,0,0-.2,1.13v4.81h-1v-8.25Z" transform="translate(-47.19 -540.43)"/><path class="cls-6" d="M223.33,630.88v.85h-1.68v5.56a1.86,1.86,0,0,0,.13.78c.09.19.32.29.68.31a6.35,6.35,0,0,0,.87,0v.85l-.45,0h-.45a1.48,1.48,0,0,1-1.79-1.84v-5.64H219.2v-.85h1.44V628.4h1v2.48Z" transform="translate(-47.19 -540.43)"/><path class="cls-6" d="M225.77,627.71v4.59h0a2.44,2.44,0,0,1,1-1.21,3,3,0,0,1,1.62-.45,4,4,0,0,1,1.44.22,2.29,2.29,0,0,1,.94.63,2.42,2.42,0,0,1,.5,1,6,6,0,0,1,.14,1.33v5.31h-1V634a5,5,0,0,0-.09-1,2.1,2.1,0,0,0-.34-.79,1.62,1.62,0,0,0-.65-.53,2.33,2.33,0,0,0-1-.19,2.6,2.6,0,0,0-1.08.21,2.38,2.38,0,0,0-.8.59,2.84,2.84,0,0,0-.52.9,4,4,0,0,0-.2,1.13v4.81h-1V627.71Z" transform="translate(-47.19 -540.43)"/><path class="cls-6" d="M234.12,636.41a3,3,0,0,0,.49,1,2.7,2.7,0,0,0,.84.77,2.75,2.75,0,0,0,3-.27,3,3,0,0,0,.87-1.54h1a4.08,4.08,0,0,1-1.18,2.18,3.51,3.51,0,0,1-2.42.77A3.83,3.83,0,0,1,235,639a3.07,3.07,0,0,1-1.16-.94,4.18,4.18,0,0,1-.67-1.39A6.53,6.53,0,0,1,233,635a6.11,6.11,0,0,1,.21-1.6,4.32,4.32,0,0,1,.67-1.4,3.32,3.32,0,0,1,1.16-1,3.57,3.57,0,0,1,1.69-.37,3.28,3.28,0,0,1,2.84,1.45,4.39,4.39,0,0,1,.63,1.48,6.53,6.53,0,0,1,.16,1.71H234A4.56,4.56,0,0,0,234.12,636.41Zm5-3.08a3,3,0,0,0-.52-.94,2.65,2.65,0,0,0-.82-.66,2.38,2.38,0,0,0-1.08-.24,2.45,2.45,0,0,0-1.11.24,2.61,2.61,0,0,0-.81.66,3.12,3.12,0,0,0-.54.94,4.75,4.75,0,0,0-.26,1.1h5.34A3.69,3.69,0,0,0,239.11,633.33Z" transform="translate(-47.19 -540.43)"/><path class="cls-6" d="M250.88,632.49a1.75,1.75,0,0,0-.47-.57,2,2,0,0,0-.68-.33,3.12,3.12,0,0,0-.82-.1,3.21,3.21,0,0,0-.68.07,2.17,2.17,0,0,0-.63.24,1.41,1.41,0,0,0-.47.44,1.26,1.26,0,0,0-.17.67,1,1,0,0,0,.17.57,1.57,1.57,0,0,0,.42.39,2.61,2.61,0,0,0,.56.26,5.7,5.7,0,0,0,.56.17l1.35.31a3.84,3.84,0,0,1,.85.23,2.79,2.79,0,0,1,.75.44,2.1,2.1,0,0,1,.54.67,2,2,0,0,1,.21.94,2,2,0,0,1-.31,1.15,2.57,2.57,0,0,1-.77.77,3.62,3.62,0,0,1-1.07.42,5.16,5.16,0,0,1-1.16.13,3.81,3.81,0,0,1-2.37-.69,3,3,0,0,1-1-2.21h1a2,2,0,0,0,.75,1.55,2.71,2.71,0,0,0,1.68.52,4,4,0,0,0,.76-.08,2.57,2.57,0,0,0,.73-.28,1.71,1.71,0,0,0,.55-.48,1.17,1.17,0,0,0,.22-.73,1.19,1.19,0,0,0-.15-.62,1.34,1.34,0,0,0-.41-.41,2.15,2.15,0,0,0-.59-.28c-.21-.08-.44-.14-.66-.2l-1.3-.28a8.83,8.83,0,0,1-.91-.3,2.67,2.67,0,0,1-.72-.42,1.59,1.59,0,0,1-.49-.6A2,2,0,0,1,246,633a1.92,1.92,0,0,1,.28-1.07,2.18,2.18,0,0,1,.73-.72,3,3,0,0,1,1-.4,4.59,4.59,0,0,1,1.1-.13,3.85,3.85,0,0,1,1.15.16,2.6,2.6,0,0,1,.95.49,2.47,2.47,0,0,1,.65.84,3,3,0,0,1,.27,1.16h-1A1.78,1.78,0,0,0,250.88,632.49Z" transform="translate(-47.19 -540.43)"/><path class="cls-6" d="M254.75,630.88v1.57h0a2.7,2.7,0,0,1,1.15-1.34,3.36,3.36,0,0,1,1.8-.47,3.54,3.54,0,0,1,1.64.35,3.35,3.35,0,0,1,1.16,1,3.92,3.92,0,0,1,.68,1.39,6.21,6.21,0,0,1,0,3.35,3.84,3.84,0,0,1-.68,1.39,3.32,3.32,0,0,1-1.16.94,3.67,3.67,0,0,1-1.64.35,4,4,0,0,1-.9-.11,3.22,3.22,0,0,1-.83-.34,2.82,2.82,0,0,1-.68-.56,2.44,2.44,0,0,1-.46-.78h0v4.6h-1V630.88Zm5.53,2.85a3.42,3.42,0,0,0-.48-1.12,2.71,2.71,0,0,0-.84-.81,2.29,2.29,0,0,0-1.23-.31,3.09,3.09,0,0,0-1.4.28,2.48,2.48,0,0,0-.89.77,3,3,0,0,0-.47,1.12,6.57,6.57,0,0,0-.14,1.35,5.51,5.51,0,0,0,.15,1.27,3.31,3.31,0,0,0,.5,1.13,2.58,2.58,0,0,0,.9.8,2.64,2.64,0,0,0,1.35.32,2.3,2.3,0,0,0,1.23-.32,2.57,2.57,0,0,0,.84-.8,3.48,3.48,0,0,0,.48-1.13,5.51,5.51,0,0,0,.15-1.27A5.59,5.59,0,0,0,260.28,633.73Z" transform="translate(-47.19 -540.43)"/><path class="cls-6" d="M263.94,630.88v1.93h0a3,3,0,0,1,3.12-2v1a3,3,0,0,0-1.25.19,2.7,2.7,0,0,0-1.6,1.57,3.13,3.13,0,0,0-.23,1.2v4.4h-1v-8.25Z" transform="translate(-47.19 -540.43)"/><path class="cls-6" d="M269.07,627.71v1.62h-1v-1.62Zm0,3.17v8.25h-1v-8.25Z" transform="translate(-47.19 -540.43)"/><path class="cls-6" d="M272,630.88v1.42h0a2.44,2.44,0,0,1,1-1.21,3.07,3.07,0,0,1,1.62-.45,4.06,4.06,0,0,1,1.45.22,2.26,2.26,0,0,1,.93.63,2.31,2.31,0,0,1,.5,1,5.49,5.49,0,0,1,.14,1.33v5.31h-1V634a5,5,0,0,0-.1-1,1.83,1.83,0,0,0-.34-.79,1.59,1.59,0,0,0-.64-.53,2.38,2.38,0,0,0-1-.19,2.67,2.67,0,0,0-1.08.21,2.48,2.48,0,0,0-.8.59,2.64,2.64,0,0,0-.51.9,3.72,3.72,0,0,0-.2,1.13v4.81h-1v-8.25Z" transform="translate(-47.19 -540.43)"/><path class="cls-6" d="M282.88,630.88v.85H281.2v5.56a1.86,1.86,0,0,0,.13.78c.1.19.32.29.68.31a6.35,6.35,0,0,0,.87,0v.85l-.45,0H282a1.48,1.48,0,0,1-1.79-1.84v-5.64h-1.44v-.85h1.44V628.4h1v2.48Z" transform="translate(-47.19 -540.43)"/><path class="cls-6" d="M92.45,643.71v4.74h0a2.49,2.49,0,0,1,.46-.79,2.9,2.9,0,0,1,1.51-.91,3.44,3.44,0,0,1,.89-.11A3.51,3.51,0,0,1,97,647a3.26,3.26,0,0,1,1.16,1,4.12,4.12,0,0,1,.69,1.39,6.21,6.21,0,0,1,0,3.35,4,4,0,0,1-.69,1.39A3.24,3.24,0,0,1,97,655a3.64,3.64,0,0,1-1.64.35,3.5,3.5,0,0,1-1.8-.47,2.68,2.68,0,0,1-1.14-1.32h0v1.56h-.93V643.71Zm5.45,6a3.91,3.91,0,0,0-.48-1.12,2.71,2.71,0,0,0-.84-.81,2.35,2.35,0,0,0-1.24-.31,2.55,2.55,0,0,0-2.24,1.12,3.26,3.26,0,0,0-.5,1.12,5.59,5.59,0,0,0-.15,1.28,5.51,5.51,0,0,0,.15,1.27,3.31,3.31,0,0,0,.5,1.13,2.54,2.54,0,0,0,.89.8,2.7,2.7,0,0,0,1.35.32,2.36,2.36,0,0,0,1.24-.32,2.57,2.57,0,0,0,.84-.8,4,4,0,0,0,.48-1.13,5.51,5.51,0,0,0,.15-1.27A5.59,5.59,0,0,0,97.9,649.73Z" transform="translate(-47.19 -540.43)"/><path class="cls-6" d="M100.83,648.16a2.39,2.39,0,0,1,.7-.87,2.89,2.89,0,0,1,1-.49,4.85,4.85,0,0,1,1.31-.16,5.74,5.74,0,0,1,1.09.1,2.72,2.72,0,0,1,1,.39,2.31,2.31,0,0,1,.7.81,3,3,0,0,1,.27,1.35v4.39a.53.53,0,0,0,.59.61.79.79,0,0,0,.32-.07v.85l-.31,0h-.34a1.55,1.55,0,0,1-.62-.1.88.88,0,0,1-.36-.3,1.21,1.21,0,0,1-.17-.45,5.14,5.14,0,0,1,0-.59h0a6.17,6.17,0,0,1-.55.72,3.06,3.06,0,0,1-.62.52,3.34,3.34,0,0,1-.79.32,4.51,4.51,0,0,1-1,.11,4.2,4.2,0,0,1-1.08-.14,2.41,2.41,0,0,1-.88-.43,2.19,2.19,0,0,1-.59-.75,2.6,2.6,0,0,1-.21-1.08,2.09,2.09,0,0,1,.38-1.35,2.37,2.37,0,0,1,1-.75,5.78,5.78,0,0,1,1.42-.36l1.61-.2.56-.08a1,1,0,0,0,.4-.17.89.89,0,0,0,.25-.32,1.64,1.64,0,0,0,.08-.55,1.88,1.88,0,0,0-.16-.84,1.39,1.39,0,0,0-.47-.52,1.84,1.84,0,0,0-.69-.26,4.46,4.46,0,0,0-.84-.07,2.53,2.53,0,0,0-1.56.45,1.78,1.78,0,0,0-.64,1.47h-1A3.33,3.33,0,0,1,100.83,648.16Zm5,2.46a.57.57,0,0,1-.37.26,4,4,0,0,1-.48.11l-1.32.2a8.45,8.45,0,0,0-1.24.26,2.47,2.47,0,0,0-.92.51,1.2,1.2,0,0,0-.36.93,1.34,1.34,0,0,0,.16.68,1.68,1.68,0,0,0,.4.52,1.73,1.73,0,0,0,.6.32,2,2,0,0,0,.68.12,3.4,3.4,0,0,0,1.11-.18,2.84,2.84,0,0,0,.92-.51,2.51,2.51,0,0,0,.62-.82,2.39,2.39,0,0,0,.23-1.09v-1.31Z" transform="translate(-47.19 -540.43)"/><path class="cls-6" d="M114,648a2.18,2.18,0,0,0-1.56-.52,2.59,2.59,0,0,0-1.27.3,2.77,2.77,0,0,0-.9.8,3.83,3.83,0,0,0-.55,1.13,4.68,4.68,0,0,0,0,2.57,3.83,3.83,0,0,0,.55,1.13,2.77,2.77,0,0,0,.9.8,2.6,2.6,0,0,0,1.27.31,2.2,2.2,0,0,0,.88-.18,2.4,2.4,0,0,0,.73-.49,2.49,2.49,0,0,0,.53-.74,2.9,2.9,0,0,0,.26-1h1a3.74,3.74,0,0,1-1.1,2.35,3.24,3.24,0,0,1-2.3.84,3.91,3.91,0,0,1-1.68-.35,3.64,3.64,0,0,1-1.22-.93,4.14,4.14,0,0,1-.75-1.39,5.42,5.42,0,0,1-.26-1.68,5.49,5.49,0,0,1,.26-1.69,4.14,4.14,0,0,1,.75-1.39,3.66,3.66,0,0,1,1.22-.94,3.77,3.77,0,0,1,1.68-.35,3.56,3.56,0,0,1,2.24.7,3,3,0,0,1,1.1,2.13h-1A2.78,2.78,0,0,0,114,648Z" transform="translate(-47.19 -540.43)"/><path class="cls-6" d="M118.24,643.71v7.17l4.58-4h1.34l-3.52,3,3.76,5.2h-1.26l-3.27-4.49L118.24,652v3.13h-1V643.71Z" transform="translate(-47.19 -540.43)"/><path class="cls-6" d="M126.26,643.71v11.42h-1V643.71Z" transform="translate(-47.19 -540.43)"/><path class="cls-6" d="M133.35,647a3.7,3.7,0,0,1,1.23.94,4.14,4.14,0,0,1,.75,1.39,5.48,5.48,0,0,1,.25,1.69,5.42,5.42,0,0,1-.25,1.68,4.14,4.14,0,0,1-.75,1.39,3.67,3.67,0,0,1-1.23.93,4.16,4.16,0,0,1-3.34,0,3.58,3.58,0,0,1-1.23-.93,4.14,4.14,0,0,1-.75-1.39,5.42,5.42,0,0,1-.25-1.68,5.48,5.48,0,0,1,.25-1.69,4.14,4.14,0,0,1,.75-1.39A3.6,3.6,0,0,1,130,647a4.16,4.16,0,0,1,3.34,0Zm-2.93.8a2.7,2.7,0,0,0-.91.8,3.58,3.58,0,0,0-.54,1.13,4.44,4.44,0,0,0,0,2.57,3.58,3.58,0,0,0,.54,1.13,2.7,2.7,0,0,0,.91.8,2.72,2.72,0,0,0,2.52,0,2.7,2.7,0,0,0,.91-.8,3.58,3.58,0,0,0,.54-1.13,4.44,4.44,0,0,0,0-2.57,3.58,3.58,0,0,0-.54-1.13,2.7,2.7,0,0,0-.91-.8,2.8,2.8,0,0,0-2.52,0Z" transform="translate(-47.19 -540.43)"/><path class="cls-6" d="M143.86,656.11a3.14,3.14,0,0,1-.63,1.25,2.73,2.73,0,0,1-1.13.78,4.7,4.7,0,0,1-1.7.27,5,5,0,0,1-1.22-.14,3.61,3.61,0,0,1-1.06-.45,2.49,2.49,0,0,1-.78-.77,2.29,2.29,0,0,1-.36-1.13h1a1.74,1.74,0,0,0,.32.77,1.82,1.82,0,0,0,.56.51,2.4,2.4,0,0,0,.72.28,3.75,3.75,0,0,0,.82.09,2.42,2.42,0,0,0,2-.8,3.69,3.69,0,0,0,.63-2.31v-1.12h0a2.94,2.94,0,0,1-1,1.23,2.74,2.74,0,0,1-1.59.47,4,4,0,0,1-1.7-.33,3.24,3.24,0,0,1-1.16-.9,3.83,3.83,0,0,1-.66-1.36,6.27,6.27,0,0,1-.21-1.65,5,5,0,0,1,.25-1.61,3.8,3.8,0,0,1,.72-1.33,3.15,3.15,0,0,1,1.17-.89,3.64,3.64,0,0,1,1.59-.33,2.73,2.73,0,0,1,.87.13,2.6,2.6,0,0,1,.75.36,3.35,3.35,0,0,1,.6.53,2.43,2.43,0,0,1,.4.64h0v-1.42h1v7.58A6,6,0,0,1,143.86,656.11Zm-2.31-2.2a2.56,2.56,0,0,0,.83-.74,3.06,3.06,0,0,0,.51-1,4.55,4.55,0,0,0,.17-1.22,5.09,5.09,0,0,0-.15-1.22,3.47,3.47,0,0,0-.46-1.1,2.54,2.54,0,0,0-.83-.8,2.32,2.32,0,0,0-1.22-.3,2.38,2.38,0,0,0-1.23.29,2.65,2.65,0,0,0-.85.78,3.28,3.28,0,0,0-.49,1.09,5.3,5.3,0,0,0-.15,1.26,4.54,4.54,0,0,0,.16,1.22,3,3,0,0,0,.5,1,2.5,2.5,0,0,0,.84.74,2.47,2.47,0,0,0,1.22.28A2.25,2.25,0,0,0,141.55,653.91Z" transform="translate(-47.19 -540.43)"/><path class="cls-6" d="M146.58,653.44h1.34v1.69h-1.34Z" transform="translate(-47.19 -540.43)"/></g></svg>