<svg id="Layer_22" data-name="Layer 22" xmlns="http://www.w3.org/2000/svg" viewBox="0 0 174.21 131.22"><defs><style>.cls-1,.cls-6{fill:#007681;}.cls-1{opacity:0.6;}.cls-2{fill:#e6eff3;stroke:#279989;stroke-miterlimit:10;}.cls-3{opacity:0.2;}.cls-4{fill:#279989;}.cls-5{fill:#f2f2f2;}</style></defs><path class="cls-1" d="M809,553.27l-161.64-5.76c-2.68-.1-4.8-3.38-4.73-7.32L644.39,443c.06-3.75,2.24-6.76,4.85-6.72l157.2,2.13c2.78,0,5.11,3.21,5.21,7.09L814,546.05C814.12,550.14,811.87,553.37,809,553.27Z" transform="translate(-639.82 -433.7)"/><rect class="cls-2" x="0.5" y="0.5" width="169.47" height="112.95" rx="5.96"/><g class="cls-3"><polygon points="41.17 130.47 31.61 113.9 41.17 97.33 60.31 97.33 69.88 113.9 60.31 130.47 41.17 130.47"/><path d="M699.69,531.77l9.14,15.83-9.14,15.82H681.43l-9.14-15.82,9.14-15.83h18.26m.87-1.5h-20l-10,17.33,10,17.32h20l10-17.32-10-17.33Z" transform="translate(-639.82 -433.7)"/></g><polygon class="cls-4" points="39.17 128.47 29.61 111.9 39.17 95.33 58.31 95.33 67.88 111.9 58.31 128.47 39.17 128.47"/><path class="cls-5" d="M697.69,529.77l9.14,15.83-9.14,15.82H679.43l-9.14-15.82,9.14-15.83h18.26m.87-1.5h-20l-10,17.33,10,17.32h20l10-17.32-10-17.33Z" transform="translate(-639.82 -433.7)"/><path class="cls-5" d="M695.45,542.24h-3.36a2.49,2.49,0,0,0-2.35-2.17c-2.16,0-3.18,2.52-3.33,5.31l.05,0a4.36,4.36,0,0,1,3.91-1.94,5.37,5.37,0,0,1,5.38,5.68,6.05,6.05,0,0,1-6.1,6.37c-4.76,0-6.71-3.78-6.71-9,0-4.09,1.77-9.12,6.85-9.12A5.32,5.32,0,0,1,695.45,542.24Zm-5.9,10.39c1.64,0,2.66-1.55,2.66-3.19s-.82-3.29-2.69-3.29c-1.69,0-2.79,1.32-2.79,3.24A3,3,0,0,0,689.55,552.63Z" transform="translate(-639.82 -433.7)"/><path class="cls-6" d="M649.9,446.89v11.43h-2.51V446.89Z" transform="translate(-639.82 -433.7)"/><path class="cls-6" d="M654.75,447.56V450h1.66v1.53h-1.66v4.09c0,.77.19,1,1,1a3,3,0,0,0,.7-.06v1.78a9.38,9.38,0,0,1-1.34.08c-1.71,0-2.59-.53-2.59-2v-4.85H651.1V450h1.38v-2.48Z" transform="translate(-639.82 -433.7)"/><path class="cls-6" d="M659.72,446.89V452H658v-5.14Z" transform="translate(-639.82 -433.7)"/><path class="cls-6" d="M669,452.46h-2.16c-.06-.8-.61-1.12-1.55-1.12s-1.27.27-1.27.77.5.8,1.78,1.06a5.72,5.72,0,0,1,2.78,1,1.86,1.86,0,0,1,.64,1.49c0,2.13-1.84,2.88-3.77,2.88-2.26,0-3.83-1-3.89-2.91h2.16c0,.93.8,1.39,1.74,1.39.77,0,1.49-.33,1.49-1s-.7-.9-2.5-1.27-2.7-1.05-2.7-2.22c0-1.76,1.28-2.66,3.6-2.66S668.85,450.75,669,452.46Z" transform="translate(-639.82 -433.7)"/><path class="cls-6" d="M682.41,452.17v4.39a4.08,4.08,0,0,0,.29,1.76h-2.3a3.16,3.16,0,0,1-.16-.8,3.76,3.76,0,0,1-2.79,1c-1.69,0-2.82-.88-2.82-2.48a2.22,2.22,0,0,1,1.91-2.33c.85-.23,1.92-.28,2.62-.42s1-.37,1-.86c0-.95-.69-1.11-1.46-1.11-.94,0-1.44.39-1.52,1.25h-2.27c.1-1.81,1.59-2.77,3.91-2.77S682.41,450.64,682.41,452.17ZM678.3,457a1.65,1.65,0,0,0,1.84-1.87v-.88a2.59,2.59,0,0,1-1.38.4c-1.16.14-1.85.43-1.85,1.3C676.91,456.62,677.31,457,678.3,457Z" transform="translate(-639.82 -433.7)"/><path class="cls-6" d="M686.51,446.89v11.43h-2.28V446.89Z" transform="translate(-639.82 -433.7)"/><path class="cls-6" d="M690.64,446.89v11.43h-2.28V446.89Z" transform="translate(-639.82 -433.7)"/><path class="cls-6" d="M699.21,446.89v1.87h-2.27v-1.87Zm0,3.15v8.28h-2.27V450Z" transform="translate(-639.82 -433.7)"/><path class="cls-6" d="M708.77,453.17v5.15h-2.28v-4.69c0-1.36-.4-2-1.45-2-1.41,0-1.76.93-1.76,2.4v4.31H701V450h2.16v1.16h.05a2.92,2.92,0,0,1,2.55-1.38C707.85,449.82,708.77,450.85,708.77,453.17Z" transform="translate(-639.82 -433.7)"/><path class="cls-6" d="M717.82,447.56V450h1.66v1.53h-1.66v4.09c0,.77.19,1,1,1a3,3,0,0,0,.7-.06v1.78a9.38,9.38,0,0,1-1.34.08c-1.71,0-2.59-.53-2.59-2v-4.85h-1.38V450h1.38v-2.48Z" transform="translate(-639.82 -433.7)"/><path class="cls-6" d="M722.84,446.89v4.31h0a2.89,2.89,0,0,1,2.43-1.38c2.1,0,3,1,3,3.33v5.17h-2.27v-4.71c0-1.34-.4-2-1.46-2-1.39,0-1.76.92-1.76,2.37v4.34h-2.27V446.89Z" transform="translate(-639.82 -433.7)"/><path class="cls-6" d="M737.73,452.85a5.89,5.89,0,0,1,.19,1.45l0,.44h-6c.07,1.42.77,2.09,2,2.09a1.89,1.89,0,0,0,1.81-1.07h2a3.72,3.72,0,0,1-3.88,2.78,4,4,0,0,1-4.22-4.35,4.15,4.15,0,0,1,4.22-4.37A3.82,3.82,0,0,1,737.73,452.85Zm-2.1.44c-.23-1.24-.77-1.76-1.83-1.76a1.79,1.79,0,0,0-1.87,1.76Z" transform="translate(-639.82 -433.7)"/><path class="cls-6" d="M751.76,446.89v11.43H749.6v-1.06h0a2.71,2.71,0,0,1-2.51,1.28c-2.46,0-3.71-2.08-3.71-4.43s1.28-4.29,3.66-4.29a2.83,2.83,0,0,1,2.45,1.23h0v-4.16Zm-4.15,9.94c1.3,0,1.95-1,1.95-2.67s-.57-2.63-2-2.63-2,1-2,2.64C745.61,455.49,746.22,456.83,747.61,456.83Z" transform="translate(-639.82 -433.7)"/><path class="cls-6" d="M761.13,452.85a5.5,5.5,0,0,1,.2,1.45l0,.44h-6c.06,1.42.77,2.09,2,2.09a1.86,1.86,0,0,0,1.8-1.07h2a3.72,3.72,0,0,1-3.88,2.78,4,4,0,0,1-4.22-4.35,4.14,4.14,0,0,1,4.22-4.37A3.81,3.81,0,0,1,761.13,452.85Zm-2.09.44c-.23-1.24-.77-1.76-1.83-1.76a1.78,1.78,0,0,0-1.87,1.76Z" transform="translate(-639.82 -433.7)"/><path class="cls-6" d="M765.53,447.56V450h1.67v1.53h-1.67v4.09c0,.77.19,1,1,1a3.08,3.08,0,0,0,.71-.06v1.78a9.61,9.61,0,0,1-1.35.08c-1.71,0-2.59-.53-2.59-2v-4.85h-1.38V450h1.38v-2.48Z" transform="translate(-639.82 -433.7)"/><path class="cls-6" d="M775.71,452.17v4.39a4.08,4.08,0,0,0,.29,1.76h-2.31a3.66,3.66,0,0,1-.16-.8,3.74,3.74,0,0,1-2.78,1c-1.7,0-2.82-.88-2.82-2.48a2.22,2.22,0,0,1,1.9-2.33c.85-.23,1.93-.28,2.63-.42s1-.37,1-.86c0-.95-.69-1.11-1.46-1.11-.94,0-1.44.39-1.52,1.25h-2.27c.09-1.81,1.58-2.77,3.9-2.77S775.71,450.64,775.71,452.17ZM771.6,457a1.66,1.66,0,0,0,1.84-1.87v-.88a2.59,2.59,0,0,1-1.38.4c-1.17.14-1.86.43-1.86,1.3C770.2,456.62,770.6,457,771.6,457Z" transform="translate(-639.82 -433.7)"/><path class="cls-6" d="M779.8,446.89v1.87h-2.27v-1.87Zm0,3.15v8.28h-2.27V450Z" transform="translate(-639.82 -433.7)"/><path class="cls-6" d="M783.93,446.89v11.43h-2.27V446.89Z" transform="translate(-639.82 -433.7)"/><path class="cls-6" d="M792.76,452.46H790.6c-.06-.8-.61-1.12-1.55-1.12s-1.26.27-1.26.77.49.8,1.77,1.06a5.82,5.82,0,0,1,2.79,1,1.89,1.89,0,0,1,.64,1.49c0,2.13-1.84,2.88-3.78,2.88-2.26,0-3.82-1-3.89-2.91h2.16c0,.93.8,1.39,1.75,1.39.76,0,1.49-.33,1.49-1s-.71-.9-2.5-1.27-2.71-1.05-2.71-2.22c0-1.76,1.28-2.66,3.6-2.66S792.62,450.75,792.76,452.46Z" transform="translate(-639.82 -433.7)"/><path class="cls-6" d="M647.45,462.89l2.59,10h0l2.78-10h1.36l2.8,10h0l2.6-10h1.09l-3.15,11.43h-1.15l-2.9-10.23h0l-2.88,10.23h-1.19l-3.17-11.43Z" transform="translate(-639.82 -433.7)"/><path class="cls-6" d="M668.41,470.22v.24h-6.35c0,1.62.88,3.25,2.72,3.25a2.5,2.5,0,0,0,2.59-2.11h1a3.36,3.36,0,0,1-3.6,3c-2.48,0-3.73-1.84-3.73-4.37,0-2.26,1.17-4.37,3.73-4.37C667.1,465.82,668.41,467.66,668.41,470.22Zm-1-.61a2.78,2.78,0,0,0-2.64-2.94c-1.45,0-2.49,1.15-2.71,2.94Z" transform="translate(-639.82 -433.7)"/><path class="cls-6" d="M675.23,462.89v4.74h0a3,3,0,0,1,2.88-1.81c2.4,0,3.7,1.91,3.7,4.37s-1.23,4.37-3.71,4.37a3,3,0,0,1-3-1.81h0v1.57h-.93V462.89Zm0,7.28c0,1.83.83,3.54,2.9,3.54,1.9,0,2.7-1.79,2.7-3.52s-.82-3.52-2.72-3.52S675.23,468.16,675.23,470.17Z" transform="translate(-639.82 -433.7)"/><path class="cls-6" d="M687.48,467h-.16a2.82,2.82,0,0,0-2.91,3v4.39h-1v-8.26h.93V468h0a3,3,0,0,1,2.92-2.05h.2Z" transform="translate(-639.82 -433.7)"/><path class="cls-6" d="M695.1,470.22v.24h-6.35c0,1.62.88,3.25,2.72,3.25a2.5,2.5,0,0,0,2.59-2.11h1a3.36,3.36,0,0,1-3.6,3c-2.48,0-3.73-1.84-3.73-4.37,0-2.26,1.17-4.37,3.73-4.37C693.79,465.82,695.1,467.66,695.1,470.22Zm-1-.61a2.77,2.77,0,0,0-2.64-2.94c-1.44,0-2.48,1.15-2.7,2.94Z" transform="translate(-639.82 -433.7)"/><path class="cls-6" d="M702.75,468.48v4.38c0,.39.18.61.59.61a.82.82,0,0,0,.32-.06v.85a3.47,3.47,0,0,1-.64.06c-.88,0-1.2-.38-1.2-1.39v-.05h0a3.14,3.14,0,0,1-3,1.68c-1.63,0-2.77-.83-2.77-2.42a2,2,0,0,1,.82-1.77c.54-.39,1.21-.63,3.2-.84,1.18-.12,1.71-.17,1.71-1.16,0-1.25-.8-1.7-2.16-1.7s-2.16.66-2.21,1.92h-1c.12-1.82,1.3-2.77,3.36-2.77S702.75,466.85,702.75,468.48Zm-1,1.33c-.13.22-.5.32-1,.4s-1.52.21-2,.33c-.81.21-1.63.55-1.63,1.54a1.71,1.71,0,0,0,1.84,1.63,2.65,2.65,0,0,0,2.88-2.58v-1.32Z" transform="translate(-639.82 -433.7)"/><path class="cls-6" d="M705.77,462.89v7.17l4.58-4h1.34l-3.52,3.06,3.76,5.2h-1.26l-3.27-4.5-1.63,1.36v3.14h-1V462.89Z" transform="translate(-639.82 -433.7)"/><path class="cls-6" d="M724.48,462.89v11.43h-.93v-1.57h0a3.24,3.24,0,0,1-2.95,1.81c-2.45,0-3.71-1.92-3.71-4.37s1.22-4.37,3.71-4.37a3,3,0,0,1,2.87,1.81h0v-4.74Zm-3.91,10.82c2,0,2.9-1.63,2.9-3.52s-.83-3.52-2.9-3.52c-1.9,0-2.7,1.78-2.7,3.52S718.7,473.71,720.57,473.71Z" transform="translate(-639.82 -433.7)"/><path class="cls-6" d="M733.79,470.19c0,2.42-1.42,4.37-3.91,4.37s-3.9-2-3.9-4.37,1.42-4.37,3.9-4.37S733.79,467.82,733.79,470.19Zm-3.91,3.52c1.91,0,2.9-1.76,2.9-3.52s-1-3.52-2.91-3.52-2.88,1.71-2.88,3.52S728,473.71,729.88,473.71Z" transform="translate(-639.82 -433.7)"/><path class="cls-6" d="M735.53,466.06l2.11,7.08h0l2-7.08h1.14l2,7.08h0l2.11-7.08h1.07l-2.65,8.26H742.3l-2-6.95h0l-2,6.95h-1.1l-2.66-8.26Z" transform="translate(-639.82 -433.7)"/><path class="cls-6" d="M753.84,469v5.36h-1v-5.17c0-1.62-.64-2.48-2.1-2.48a2.63,2.63,0,0,0-2.59,2.91v4.74h-1v-8.26h1v1.43h0a2.81,2.81,0,0,1,2.66-1.67C752.94,465.82,753.84,466.85,753.84,469Z" transform="translate(-639.82 -433.7)"/><path class="cls-6" d="M766.48,468.48v4.38c0,.39.17.61.59.61a.87.87,0,0,0,.32-.06v.85a3.47,3.47,0,0,1-.64.06c-.88,0-1.2-.38-1.2-1.39v-.05h0a3.16,3.16,0,0,1-3,1.68c-1.63,0-2.77-.83-2.77-2.42a2,2,0,0,1,.82-1.77c.54-.39,1.21-.63,3.2-.84,1.18-.12,1.71-.17,1.71-1.16,0-1.25-.8-1.7-2.16-1.7s-2.16.66-2.21,1.92h-1c.11-1.82,1.3-2.77,3.36-2.77S766.48,466.85,766.48,468.48Zm-1,1.33c-.13.22-.5.32-1,.4s-1.52.21-2,.33c-.82.21-1.63.55-1.63,1.54a1.71,1.71,0,0,0,1.84,1.63,2.65,2.65,0,0,0,2.88-2.58v-1.32Z" transform="translate(-639.82 -433.7)"/><path class="cls-6" d="M769.52,462.89v11.43h-1V462.89Z" transform="translate(-639.82 -433.7)"/><path class="cls-6" d="M772.48,462.89v11.43h-1V462.89Z" transform="translate(-639.82 -433.7)"/><path class="cls-6" d="M780.46,463.58v2.48h1.68v.85h-1.68v5.63c0,.72.21,1,.93,1,.17,0,.46,0,.75-.05v.86c-.38,0-.58,0-.9,0-1.32,0-1.79-.45-1.79-1.8v-5.71H778v-.85h1.44v-2.48Z" transform="translate(-639.82 -433.7)"/><path class="cls-6" d="M784.59,462.89v4.6h0a2.8,2.8,0,0,1,2.66-1.67c2.11,0,3,1,3,3.15v5.35h-1v-5.19c0-1.64-.69-2.46-2.1-2.46a2.63,2.63,0,0,0-2.59,2.91v4.74h-1V462.89Z" transform="translate(-639.82 -433.7)"/><path class="cls-6" d="M799.13,470.22v.24h-6.35c0,1.62.88,3.25,2.72,3.25a2.5,2.5,0,0,0,2.59-2.11h1a3.36,3.36,0,0,1-3.6,3c-2.48,0-3.73-1.84-3.73-4.37,0-2.26,1.17-4.37,3.73-4.37C797.82,465.82,799.13,467.66,799.13,470.22Zm-1-.61a2.77,2.77,0,0,0-2.64-2.94c-1.44,0-2.48,1.15-2.7,2.94Z" transform="translate(-639.82 -433.7)"/><path class="cls-6" d="M653.53,484.48v4.38a.53.53,0,0,0,.6.61.87.87,0,0,0,.32-.06v.85a3.47,3.47,0,0,1-.64.06c-.88,0-1.2-.38-1.2-1.39v-.05h0a3.14,3.14,0,0,1-3,1.68c-1.63,0-2.76-.83-2.76-2.42a2,2,0,0,1,.81-1.77c.55-.39,1.22-.63,3.2-.84,1.19-.12,1.72-.17,1.72-1.16,0-1.25-.8-1.7-2.17-1.7s-2.16.66-2.2,1.92h-1c.11-1.82,1.29-2.77,3.36-2.77S653.53,482.85,653.53,484.48Zm-1,1.33c-.12.22-.49.32-1,.4s-1.52.21-2,.33c-.82.21-1.64.55-1.64,1.54a1.71,1.71,0,0,0,1.84,1.63,2.66,2.66,0,0,0,2.89-2.58v-1.32Z" transform="translate(-639.82 -433.7)"/><path class="cls-6" d="M661.5,484.48h-1c0-1.14-.88-1.81-2.16-1.81-.93,0-2,.37-2,1.42,0,.71.62,1.16,1.86,1.43l1,.24c.9.19,2.5.61,2.5,2.32s-1.78,2.48-3.31,2.48c-2,0-3.22-1-3.4-2.91h1a2.17,2.17,0,0,0,2.43,2.06c1.06,0,2.26-.48,2.26-1.55,0-.85-.62-1.27-1.95-1.55l-1.07-.24c-1.62-.37-2.39-1-2.39-2.23,0-1.68,1.65-2.32,3.11-2.32A2.7,2.7,0,0,1,661.5,484.48Z" transform="translate(-639.82 -433.7)"/><path class="cls-6" d="M669.2,484.48h-1c0-1.14-.88-1.81-2.16-1.81-.93,0-1.95.37-1.95,1.42,0,.71.62,1.16,1.85,1.43l1.06.24c.89.19,2.5.61,2.5,2.32s-1.78,2.48-3.32,2.48c-2,0-3.21-1-3.39-2.91h1a2.17,2.17,0,0,0,2.43,2.06c1.06,0,2.26-.48,2.26-1.55,0-.85-.63-1.27-2-1.55l-1.07-.24c-1.61-.37-2.38-1-2.38-2.23,0-1.68,1.65-2.32,3.1-2.32A2.71,2.71,0,0,1,669.2,484.48Z" transform="translate(-639.82 -433.7)"/><path class="cls-6" d="M677.89,486.22v.24h-6.36c0,1.62.88,3.25,2.72,3.25a2.51,2.51,0,0,0,2.6-2.11h1a3.35,3.35,0,0,1-3.6,3c-2.48,0-3.73-1.84-3.73-4.37,0-2.26,1.17-4.37,3.73-4.37C676.57,481.82,677.89,483.66,677.89,486.22Zm-1-.61a2.78,2.78,0,0,0-2.64-2.94c-1.44,0-2.48,1.15-2.71,2.94Z" transform="translate(-639.82 -433.7)"/><path class="cls-6" d="M680.84,479.58v2.48h1.68v.85h-1.68v5.63c0,.72.21,1,.93,1,.18,0,.47,0,.75-.05v.86c-.38,0-.57,0-.89,0-1.33,0-1.79-.45-1.79-1.8v-5.71h-1.45v-.85h1.45v-2.48Z" transform="translate(-639.82 -433.7)"/><path class="cls-6" d="M689.93,484.48h-1c0-1.14-.88-1.81-2.16-1.81-.92,0-2,.37-2,1.42,0,.71.63,1.16,1.86,1.43l1.05.24c.9.19,2.5.61,2.5,2.32s-1.78,2.48-3.31,2.48c-2,0-3.22-1-3.4-2.91h1a2.18,2.18,0,0,0,2.44,2.06c1,0,2.25-.48,2.25-1.55,0-.85-.62-1.27-2-1.55l-1.07-.24c-1.62-.37-2.39-1-2.39-2.23,0-1.68,1.65-2.32,3.11-2.32A2.7,2.7,0,0,1,689.93,484.48Z" transform="translate(-639.82 -433.7)"/><path class="cls-6" d="M697.15,478.89v1.62h-1v-1.62Zm0,3.17v8.26h-1v-8.26Z" transform="translate(-639.82 -433.7)"/><path class="cls-6" d="M705.77,485v5.36h-1v-5.17c0-1.62-.64-2.48-2.1-2.48a2.62,2.62,0,0,0-2.59,2.91v4.74h-1v-8.26h1v1.43h0a2.79,2.79,0,0,1,2.65-1.67C704.88,481.82,705.77,482.85,705.77,485Z" transform="translate(-639.82 -433.7)"/><path class="cls-6" d="M709.28,479.58v2.48H711v.85h-1.68v5.63c0,.72.2,1,.92,1,.18,0,.47,0,.76-.05v.86c-.39,0-.58,0-.9,0-1.33,0-1.79-.45-1.79-1.8v-5.71h-1.44v-.85h1.44v-2.48Z" transform="translate(-639.82 -433.7)"/><path class="cls-6" d="M719.81,486.19c0,2.42-1.43,4.37-3.91,4.37s-3.91-2-3.91-4.37,1.43-4.37,3.91-4.37S719.81,483.82,719.81,486.19Zm-3.91,3.52c1.9,0,2.9-1.76,2.9-3.52s-1-3.52-2.92-3.52-2.88,1.71-2.88,3.52S714,489.71,715.9,489.71Z" transform="translate(-639.82 -433.7)"/><path class="cls-6" d="M727.35,479.58v2.48H729v.85h-1.69v5.63c0,.72.21,1,.93,1,.18,0,.47,0,.76-.05v.86c-.39,0-.58,0-.9,0-1.33,0-1.79-.45-1.79-1.8v-5.71h-1.44v-.85h1.44v-2.48Z" transform="translate(-639.82 -433.7)"/><path class="cls-6" d="M736.78,484.48v4.38c0,.39.18.61.59.61a.82.82,0,0,0,.32-.06v.85a3.47,3.47,0,0,1-.64.06c-.88,0-1.2-.38-1.2-1.39v-.05h0a3.14,3.14,0,0,1-3,1.68c-1.63,0-2.77-.83-2.77-2.42a2,2,0,0,1,.82-1.77c.54-.39,1.21-.63,3.2-.84,1.18-.12,1.71-.17,1.71-1.16,0-1.25-.8-1.7-2.16-1.7s-2.16.66-2.21,1.92h-1c.12-1.82,1.3-2.77,3.37-2.77S736.78,482.85,736.78,484.48Zm-1,1.33c-.13.22-.5.32-1,.4s-1.52.21-2,.33c-.81.21-1.63.55-1.63,1.54a1.71,1.71,0,0,0,1.84,1.63,2.65,2.65,0,0,0,2.88-2.58v-1.32Z" transform="translate(-639.82 -433.7)"/><path class="cls-6" d="M745.48,485v5.36h-1v-5.17c0-1.62-.64-2.48-2.1-2.48a2.62,2.62,0,0,0-2.59,2.91v4.74h-1v-8.26h1v1.43h0a2.79,2.79,0,0,1,2.66-1.67C744.59,481.82,745.48,482.85,745.48,485Z" transform="translate(-639.82 -433.7)"/><path class="cls-6" d="M753.32,483.49h0v-1.43h1v7.62c0,2.61-1.15,3.94-3.65,3.94-1.84,0-3.32-.88-3.44-2.5h1c.18,1,1.07,1.65,2.42,1.65,1.89,0,2.66-1.12,2.66-3.09v-1.15h0a2.81,2.81,0,0,1-2.62,1.69c-2.48,0-3.73-1.68-3.73-4.24,0-2.38,1.44-4.16,3.73-4.16A2.87,2.87,0,0,1,753.32,483.49Zm-2.62,5.89c1.65,0,2.66-1.49,2.66-3.29s-.77-3.42-2.68-3.42c-1.71,0-2.7,1.46-2.7,3.42C748,487.78,748.84,489.38,750.7,489.38Z" transform="translate(-639.82 -433.7)"/><path class="cls-6" d="M757.31,478.89v1.62h-1v-1.62Zm0,3.17v8.26h-1v-8.26Z" transform="translate(-639.82 -433.7)"/><path class="cls-6" d="M760.25,478.89v4.74h0a3,3,0,0,1,2.88-1.81c2.4,0,3.7,1.91,3.7,4.37s-1.23,4.37-3.71,4.37a3.06,3.06,0,0,1-2.95-1.81h0v1.57h-.93V478.89Zm0,7.28c0,1.83.83,3.54,2.9,3.54,1.9,0,2.7-1.79,2.7-3.52s-.81-3.52-2.72-3.52S760.25,484.16,760.25,486.17Z" transform="translate(-639.82 -433.7)"/><path class="cls-6" d="M769.45,478.89v11.43h-1V478.89Z" transform="translate(-639.82 -433.7)"/><path class="cls-6" d="M778.33,486.22v.24H772c0,1.62.88,3.25,2.72,3.25a2.5,2.5,0,0,0,2.59-2.11h1a3.36,3.36,0,0,1-3.6,3c-2.48,0-3.73-1.84-3.73-4.37,0-2.26,1.17-4.37,3.73-4.37C777,481.82,778.33,483.66,778.33,486.22Zm-1-.61a2.77,2.77,0,0,0-2.64-2.94c-1.44,0-2.48,1.15-2.7,2.94Z" transform="translate(-639.82 -433.7)"/><path class="cls-6" d="M654.64,502.19c0,2.42-1.43,4.37-3.91,4.37s-3.9-2-3.9-4.37,1.42-4.37,3.9-4.37S654.64,499.82,654.64,502.19Zm-3.91,3.52c1.91,0,2.9-1.76,2.9-3.52s-1-3.52-2.91-3.52-2.88,1.71-2.88,3.52S648.86,505.71,650.73,505.71Z" transform="translate(-639.82 -433.7)"/><path class="cls-6" d="M657.13,498.06v5.17c0,1.44.4,2.48,2.19,2.48s2.5-1.6,2.5-3.33v-4.32h1v8.26h-.93v-1.49h0a3.06,3.06,0,0,1-2.85,1.73c-2.08,0-2.9-1.18-2.9-3.14v-5.36Z" transform="translate(-639.82 -433.7)"/><path class="cls-6" d="M666.33,495.58v2.48H668v.85h-1.68v5.63c0,.72.21,1,.93,1,.18,0,.46,0,.75-.05v.86c-.38,0-.57,0-.89,0-1.33,0-1.8-.45-1.8-1.8v-5.71h-1.44v-.85h1.44v-2.48Z" transform="translate(-639.82 -433.7)"/><path class="cls-6" d="M676.3,500.65h-1a2.22,2.22,0,0,0-2.33-2c-1.92,0-2.9,1.78-2.9,3.52s1,3.52,2.9,3.52a2.49,2.49,0,0,0,2.4-2.35h1a3.34,3.34,0,0,1-3.41,3.2c-2.48,0-3.91-2-3.91-4.37s1.51-4.37,3.91-4.37A3.07,3.07,0,0,1,676.3,500.65Z" transform="translate(-639.82 -433.7)"/><path class="cls-6" d="M685.17,502.19c0,2.42-1.43,4.37-3.91,4.37s-3.9-2-3.9-4.37,1.42-4.37,3.9-4.37S685.17,499.82,685.17,502.19Zm-3.91,3.52c1.91,0,2.9-1.76,2.9-3.52s-1-3.52-2.92-3.52-2.88,1.71-2.88,3.52S679.39,505.71,681.26,505.71Z" transform="translate(-639.82 -433.7)"/><path class="cls-6" d="M692.72,499.44a2.79,2.79,0,0,1,2.64-1.62c1.82,0,2.72,1,2.72,2.87v5.63h-1v-5.57c0-1.46-.61-2.08-2-2.08-1.55,0-2.24,1.15-2.24,3v4.66h-1v-5.59c0-1.32-.58-2.06-1.73-2.06-1.7,0-2.46,1.26-2.46,3v4.61h-1v-8.26h.93v1.39h0a2.85,2.85,0,0,1,2.71-1.63A2.3,2.3,0,0,1,692.72,499.44Z" transform="translate(-639.82 -433.7)"/><path class="cls-6" d="M706.94,502.22v.24h-6.35c0,1.62.88,3.25,2.72,3.25a2.5,2.5,0,0,0,2.59-2.11h1a3.36,3.36,0,0,1-3.6,3c-2.48,0-3.73-1.84-3.73-4.37,0-2.26,1.17-4.37,3.73-4.37C705.63,497.82,706.94,499.66,706.94,502.22Zm-1-.61a2.77,2.77,0,0,0-2.64-2.94c-1.44,0-2.48,1.15-2.7,2.94Z" transform="translate(-639.82 -433.7)"/><path class="cls-6" d="M714.25,500.48h-1c0-1.14-.88-1.81-2.16-1.81-.92,0-2,.37-2,1.42,0,.71.63,1.16,1.86,1.43l1,.24c.9.19,2.5.61,2.5,2.32s-1.78,2.48-3.31,2.48c-2,0-3.22-1-3.4-2.91h1a2.18,2.18,0,0,0,2.44,2.06c1.05,0,2.25-.48,2.25-1.55,0-.85-.62-1.27-1.95-1.55l-1.07-.24c-1.62-.37-2.39-1-2.39-2.23,0-1.68,1.65-2.32,3.11-2.32A2.7,2.7,0,0,1,714.25,500.48Z" transform="translate(-639.82 -433.7)"/><path class="cls-6" d="M722,495.58v2.48h1.68v.85H722v5.63c0,.72.21,1,.93,1,.18,0,.47,0,.75-.05v.86c-.38,0-.57,0-.89,0-1.33,0-1.79-.45-1.79-1.8v-5.71h-1.45v-.85H721v-2.48Z" transform="translate(-639.82 -433.7)"/><path class="cls-6" d="M726.17,494.89v4.6h0a2.81,2.81,0,0,1,2.66-1.67c2.11,0,3,1,3,3.15v5.35h-1v-5.19c0-1.64-.69-2.46-2.1-2.46a2.63,2.63,0,0,0-2.59,2.91v4.74h-1V494.89Z" transform="translate(-639.82 -433.7)"/><path class="cls-6" d="M740.06,500.48v4.38c0,.39.18.61.59.61a.82.82,0,0,0,.32-.06v.85a3.47,3.47,0,0,1-.64.06c-.88,0-1.2-.38-1.2-1.39v-.05h0a3.14,3.14,0,0,1-3,1.68c-1.63,0-2.77-.83-2.77-2.42a2,2,0,0,1,.82-1.77c.54-.39,1.21-.63,3.2-.84,1.18-.12,1.71-.17,1.71-1.16,0-1.25-.8-1.7-2.16-1.7s-2.16.66-2.21,1.92h-1c.12-1.82,1.3-2.77,3.37-2.77S740.06,498.85,740.06,500.48Zm-1,1.33c-.13.22-.5.32-1,.4s-1.52.21-2,.33c-.81.21-1.63.55-1.63,1.54a1.71,1.71,0,0,0,1.84,1.63,2.65,2.65,0,0,0,2.88-2.58v-1.32Z" transform="translate(-639.82 -433.7)"/><path class="cls-6" d="M743.67,495.58v2.48h1.69v.85h-1.69v5.63c0,.72.21,1,.93,1,.18,0,.47,0,.76-.05v.86c-.39,0-.58,0-.9,0-1.33,0-1.79-.45-1.79-1.8v-5.71h-1.44v-.85h1.44v-2.48Z" transform="translate(-639.82 -433.7)"/><path class="cls-6" d="M758.09,500.65h-1a2.22,2.22,0,0,0-2.33-2c-1.92,0-2.9,1.78-2.9,3.52s1,3.52,2.9,3.52a2.49,2.49,0,0,0,2.4-2.35h1a3.34,3.34,0,0,1-3.41,3.2c-2.48,0-3.91-2-3.91-4.37s1.51-4.37,3.91-4.37A3.07,3.07,0,0,1,758.09,500.65Z" transform="translate(-639.82 -433.7)"/><path class="cls-6" d="M765.85,500.48v4.38a.53.53,0,0,0,.6.61.87.87,0,0,0,.32-.06v.85a3.47,3.47,0,0,1-.64.06c-.89,0-1.21-.38-1.21-1.39v-.05h0a3.14,3.14,0,0,1-3,1.68c-1.63,0-2.77-.83-2.77-2.42a2,2,0,0,1,.82-1.77c.54-.39,1.22-.63,3.2-.84,1.19-.12,1.71-.17,1.71-1.16,0-1.25-.8-1.7-2.16-1.7s-2.16.66-2.21,1.92h-1c.11-1.82,1.29-2.77,3.36-2.77S765.85,498.85,765.85,500.48Zm-1,1.33c-.13.22-.49.32-1,.4s-1.52.21-2,.33c-.82.21-1.64.55-1.64,1.54a1.71,1.71,0,0,0,1.84,1.63,2.65,2.65,0,0,0,2.88-2.58v-1.32Z" transform="translate(-639.82 -433.7)"/><path class="cls-6" d="M774.56,501v5.36h-1v-5.17c0-1.62-.64-2.48-2.1-2.48a2.62,2.62,0,0,0-2.59,2.91v4.74h-1v-8.26h1v1.43h0a2.8,2.8,0,0,1,2.66-1.67C773.66,497.82,774.56,498.85,774.56,501Z" transform="translate(-639.82 -433.7)"/><path class="cls-6" d="M781.91,494.89v4.74h0a3,3,0,0,1,2.88-1.81c2.4,0,3.69,1.91,3.69,4.37s-1.23,4.37-3.71,4.37a3,3,0,0,1-2.94-1.81h0v1.57h-.92V494.89Zm0,7.28c0,1.83.84,3.54,2.9,3.54s2.71-1.79,2.71-3.52-.82-3.52-2.72-3.52S781.91,500.16,781.91,502.17Z" transform="translate(-639.82 -433.7)"/><path class="cls-6" d="M797,502.22v.24h-6.36c0,1.62.88,3.25,2.72,3.25a2.51,2.51,0,0,0,2.6-2.11h1a3.35,3.35,0,0,1-3.6,3c-2.48,0-3.73-1.84-3.73-4.37,0-2.26,1.17-4.37,3.73-4.37C795.72,497.82,797,499.66,797,502.22Zm-1-.61a2.78,2.78,0,0,0-2.64-2.94c-1.44,0-2.48,1.15-2.71,2.94Z" transform="translate(-639.82 -433.7)"/><path class="cls-6" d="M653.29,515.44a2.79,2.79,0,0,1,2.65-1.62c1.82,0,2.72,1,2.72,2.87v5.63h-1v-5.57c0-1.46-.61-2.08-2-2.08-1.55,0-2.24,1.15-2.24,3v4.66h-1v-5.59c0-1.32-.58-2.06-1.73-2.06-1.7,0-2.47,1.26-2.47,3v4.61h-1v-8.26h.93v1.39h.05a2.84,2.84,0,0,1,2.71-1.63A2.28,2.28,0,0,1,653.29,515.44Z" transform="translate(-639.82 -433.7)"/><path class="cls-6" d="M666.86,516.48v4.38c0,.39.18.61.59.61a.82.82,0,0,0,.32-.06v.85a3.47,3.47,0,0,1-.64.06c-.88,0-1.2-.38-1.2-1.39v0h0a3.14,3.14,0,0,1-3,1.68c-1.63,0-2.77-.83-2.77-2.42a2,2,0,0,1,.82-1.77c.54-.39,1.22-.63,3.2-.84,1.19-.12,1.71-.17,1.71-1.16,0-1.25-.8-1.7-2.16-1.7s-2.16.66-2.21,1.92h-1c.11-1.82,1.29-2.77,3.36-2.77S666.86,514.85,666.86,516.48Zm-1,1.33c-.13.22-.49.32-1,.4s-1.52.21-2,.33c-.81.21-1.63.55-1.63,1.54a1.71,1.71,0,0,0,1.84,1.63,2.65,2.65,0,0,0,2.88-2.58v-1.32Z" transform="translate(-639.82 -433.7)"/><path class="cls-6" d="M675.57,517v5.36h-1v-5.17c0-1.62-.64-2.48-2.1-2.48a2.62,2.62,0,0,0-2.59,2.91v4.74h-1v-8.26h1v1.43h0a2.8,2.8,0,0,1,2.66-1.67C674.67,513.82,675.57,514.85,675.57,517Z" transform="translate(-639.82 -433.7)"/><path class="cls-6" d="M683.76,516.48v4.38c0,.39.17.61.59.61a.87.87,0,0,0,.32-.06v.85a3.47,3.47,0,0,1-.64.06c-.88,0-1.2-.38-1.2-1.39v0h0a3.16,3.16,0,0,1-3,1.68c-1.63,0-2.77-.83-2.77-2.42a2,2,0,0,1,.82-1.77c.54-.39,1.21-.63,3.2-.84,1.18-.12,1.71-.17,1.71-1.16,0-1.25-.8-1.7-2.16-1.7s-2.16.66-2.21,1.92h-1c.11-1.82,1.3-2.77,3.36-2.77S683.76,514.85,683.76,516.48Zm-1,1.33c-.13.22-.5.32-1,.4s-1.52.21-2,.33c-.82.21-1.63.55-1.63,1.54a1.71,1.71,0,0,0,1.84,1.63,2.65,2.65,0,0,0,2.88-2.58v-1.32Z" transform="translate(-639.82 -433.7)"/><path class="cls-6" d="M691.71,515.49h0v-1.43h1v7.62c0,2.61-1.15,3.94-3.65,3.94-1.84,0-3.33-.88-3.44-2.5h1c.17,1,1.07,1.65,2.41,1.65,1.89,0,2.66-1.12,2.66-3.09v-1.15h0a2.83,2.83,0,0,1-2.63,1.69c-2.48,0-3.72-1.68-3.72-4.24,0-2.38,1.44-4.16,3.72-4.16A2.89,2.89,0,0,1,691.71,515.49Zm-2.63,5.89c1.65,0,2.66-1.49,2.66-3.29s-.77-3.42-2.67-3.42c-1.71,0-2.71,1.46-2.71,3.42C686.36,519.78,687.23,521.38,689.08,521.38Z" transform="translate(-639.82 -433.7)"/><path class="cls-6" d="M701.61,518.22v.24h-6.35c0,1.62.88,3.25,2.72,3.25a2.5,2.5,0,0,0,2.59-2.11h1a3.36,3.36,0,0,1-3.6,3c-2.48,0-3.73-1.84-3.73-4.37,0-2.26,1.17-4.37,3.73-4.37C700.3,513.82,701.61,515.66,701.61,518.22Zm-1-.61a2.78,2.78,0,0,0-2.65-2.94c-1.44,0-2.48,1.15-2.7,2.94Z" transform="translate(-639.82 -433.7)"/><path class="cls-6" d="M710.24,510.89v11.43h-.93v-1.57h0a3.24,3.24,0,0,1-2.95,1.81c-2.45,0-3.71-1.92-3.71-4.37s1.22-4.37,3.71-4.37a3,3,0,0,1,2.87,1.81h0v-4.74Zm-3.91,10.82c2,0,2.9-1.63,2.9-3.52s-.83-3.52-2.9-3.52c-1.9,0-2.7,1.78-2.7,3.52S704.46,521.71,706.33,521.71Z" transform="translate(-639.82 -433.7)"/><path class="cls-6" d="M717.63,510.89v1.62h-1v-1.62Zm0,3.17v8.26h-1v-8.26Z" transform="translate(-639.82 -433.7)"/><path class="cls-6" d="M726.25,517v5.36h-1v-5.17c0-1.62-.65-2.48-2.1-2.48a2.62,2.62,0,0,0-2.59,2.91v4.74h-1v-8.26h1v1.43h0a2.79,2.79,0,0,1,2.65-1.67C725.36,513.82,726.25,514.85,726.25,517Z" transform="translate(-639.82 -433.7)"/><path class="cls-6" d="M738.89,516.48v4.38a.53.53,0,0,0,.6.61.87.87,0,0,0,.32-.06v.85a3.47,3.47,0,0,1-.64.06c-.89,0-1.21-.38-1.21-1.39v0h0a3.14,3.14,0,0,1-3,1.68c-1.63,0-2.77-.83-2.77-2.42a2,2,0,0,1,.82-1.77c.54-.39,1.22-.63,3.2-.84,1.19-.12,1.71-.17,1.71-1.16,0-1.25-.8-1.7-2.16-1.7s-2.16.66-2.21,1.92h-1c.11-1.82,1.29-2.77,3.36-2.77S738.89,514.85,738.89,516.48Zm-1,1.33c-.13.22-.49.32-1,.4s-1.52.21-2,.33c-.82.21-1.64.55-1.64,1.54a1.71,1.71,0,0,0,1.84,1.63,2.65,2.65,0,0,0,2.88-2.58v-1.32Z" transform="translate(-639.82 -433.7)"/><path class="cls-6" d="M751.31,516.48h-1c0-1.14-.88-1.81-2.16-1.81-.93,0-1.95.37-1.95,1.42,0,.71.62,1.16,1.85,1.43l1.06.24c.9.19,2.5.61,2.5,2.32s-1.78,2.48-3.32,2.48c-2,0-3.21-1-3.39-2.91h1a2.17,2.17,0,0,0,2.43,2.06c1.06,0,2.26-.48,2.26-1.55,0-.85-.63-1.27-2-1.55l-1.08-.24c-1.61-.37-2.38-1-2.38-2.23,0-1.68,1.65-2.32,3.1-2.32A2.71,2.71,0,0,1,751.31,516.48Z" transform="translate(-639.82 -433.7)"/><path class="cls-6" d="M753.05,525.38V514.06H754v1.57h0a3,3,0,0,1,3-1.81c2.49,0,3.71,2,3.71,4.37,0,2.55-1.36,4.37-3.7,4.37a2.93,2.93,0,0,1-2.88-1.81h0v4.63Zm1-7.19c0,1.76.8,3.52,2.9,3.52,1.9,0,2.7-1.79,2.7-3.52s-.77-3.52-2.72-3.52S754.06,515.85,754.06,518.19Z" transform="translate(-639.82 -433.7)"/><path class="cls-6" d="M766.32,515h-.16a2.83,2.83,0,0,0-2.92,3v4.39h-1v-8.26h.93V516h0a3,3,0,0,1,2.92-2h.21Z" transform="translate(-639.82 -433.7)"/><path class="cls-6" d="M768.3,510.89v1.62h-1v-1.62Zm0,3.17v8.26h-1v-8.26Z" transform="translate(-639.82 -433.7)"/><path class="cls-6" d="M776.93,517v5.36h-1v-5.17c0-1.62-.64-2.48-2.1-2.48a2.62,2.62,0,0,0-2.59,2.91v4.74h-1v-8.26h1v1.43h0a2.8,2.8,0,0,1,2.66-1.67C776,513.82,776.93,514.85,776.93,517Z" transform="translate(-639.82 -433.7)"/><path class="cls-6" d="M780.43,511.58v2.48h1.68v.85h-1.68v5.63c0,.72.21,1,.92,1,.18,0,.47,0,.76-.05v.86c-.39,0-.58,0-.9,0-1.33,0-1.79-.45-1.79-1.8v-5.71H778v-.85h1.44v-2.48Z" transform="translate(-639.82 -433.7)"/><path class="cls-6" d="M785.5,520.62v1.7h-1.35v-1.7Z" transform="translate(-639.82 -433.7)"/></svg>