<svg xmlns="http://www.w3.org/2000/svg" viewBox="0 0 218.5 148.49"><defs><style>.cls-1,.cls-6{fill:#007681;}.cls-1{opacity:0.6;}.cls-2{fill:#e6eff3;stroke:#279989;stroke-miterlimit:10;}.cls-3{opacity:0.2;}.cls-4{fill:#279989;}.cls-5{fill:#f2f2f2;}</style></defs><g id="Layer_23" data-name="Layer 23"><path class="cls-1" d="M1139.63,721.73l-188.54-6.12c-3.13-.1-5.61-3.58-5.52-7.77l2-103.28c.08-4,2.61-7.18,5.66-7.14l183.36,2.27c3.24,0,6,3.41,6.07,7.53l2.78,106.85C1145.59,718.4,1143,721.84,1139.63,721.73Z" transform="translate(-926.98 -573.24)"/><rect class="cls-2" x="13.47" y="17.5" width="201.04" height="122.49" rx="6.99"/><g class="cls-3"><polygon points="12.43 35.89 2.87 19.32 12.43 2.75 31.57 2.75 41.13 19.32 31.57 35.89 12.43 35.89"/><path d="M958.12,576.74l9.13,15.82-9.13,15.82H939.85l-9.14-15.82,9.14-15.82h18.27m.86-1.5H939l-10,17.32,10,17.32h20l10-17.32-10-17.32Z" transform="translate(-926.98 -573.24)"/></g><polygon class="cls-4" points="10.43 33.89 0.87 17.32 10.43 0.75 29.57 0.75 39.13 17.32 29.57 33.89 10.43 33.89"/><path class="cls-5" d="M956.12,574.74l9.13,15.82-9.13,15.82H937.85l-9.14-15.82,9.14-15.82h18.27m.86-1.5H937l-10,17.32,10,17.32h20l10-17.32-10-17.32Z" transform="translate(-926.98 -573.24)"/><path class="cls-5" d="M952.25,585.61a23.14,23.14,0,0,0-2,3.32,31.93,31.93,0,0,0-1.51,3.63,34.09,34.09,0,0,0-1.07,3.8,38.25,38.25,0,0,0-.65,3.8h-3.76a32.6,32.6,0,0,1,.6-3.35,28.62,28.62,0,0,1,1.05-3.57,31.52,31.52,0,0,1,1.61-3.67,27.82,27.82,0,0,1,2.24-3.61h-7.42v-3.09h10.86Z" transform="translate(-926.98 -573.24)"/><path class="cls-6" d="M952.38,612.39a3.23,3.23,0,0,1,2.24.73,2.88,2.88,0,0,1,.8,2.22,3.54,3.54,0,0,1-.46,1.88,2.13,2.13,0,0,1-1.44.93v0a2.06,2.06,0,0,1,1.26.56,2.36,2.36,0,0,1,.5,1.39c0,.21,0,.44,0,.69s0,.54,0,.84c0,.61,0,1.08.09,1.4a.87.87,0,0,0,.42.65v.1h-2.5a1.21,1.21,0,0,1-.22-.55c0-.21-.06-.43-.07-.65l-.06-2.19a1.76,1.76,0,0,0-.34-1.06,1.21,1.21,0,0,0-1-.38h-1.23v4.83h-2.31V612.39Zm-1,5a1.85,1.85,0,0,0,1.28-.4,1.67,1.67,0,0,0,.45-1.32,1.41,1.41,0,0,0-1.6-1.58h-1.09v3.3Z" transform="translate(-926.98 -573.24)"/><path class="cls-6" d="M958.84,620.54a4.52,4.52,0,0,0,.06.74,2.69,2.69,0,0,0,.18.64,1.22,1.22,0,0,0,.34.45.8.8,0,0,0,.51.17.9.9,0,0,0,.82-.4,2.91,2.91,0,0,0,.35-1.22h2a3.44,3.44,0,0,1-.8,2.29A3.05,3.05,0,0,1,960,624a3.63,3.63,0,0,1-1.87-.4,2.38,2.38,0,0,1-1-1.05,3.9,3.9,0,0,1-.39-1.47c-.05-.55-.08-1.09-.08-1.64a11.18,11.18,0,0,1,.12-1.66,4.18,4.18,0,0,1,.48-1.42,2.64,2.64,0,0,1,1-1,3.76,3.76,0,0,1,1.79-.36,3.43,3.43,0,0,1,1.57.31,2.36,2.36,0,0,1,1,.88,3.53,3.53,0,0,1,.48,1.37,11,11,0,0,1,.13,1.8v.5h-4.37Zm2.2-2.87a2.47,2.47,0,0,0-.17-.64.9.9,0,0,0-.34-.4,1,1,0,0,0-.55-.14.92.92,0,0,0-.55.15,1.13,1.13,0,0,0-.35.4,2.37,2.37,0,0,0-.18.55,3.23,3.23,0,0,0-.06.61v.34h2.26Q961.09,618,961,617.67Z" transform="translate(-926.98 -573.24)"/><path class="cls-6" d="M964.35,617.64a2.87,2.87,0,0,1,.24-1.25,2.12,2.12,0,0,1,.65-.82,2.51,2.51,0,0,1,1-.45,4.88,4.88,0,0,1,1.17-.13,5.38,5.38,0,0,1,1.6.19,2.28,2.28,0,0,1,.95.54,1.91,1.91,0,0,1,.45.84,4.49,4.49,0,0,1,.12,1.07v4.52a5.79,5.79,0,0,0,.06,1,3.35,3.35,0,0,0,.21.72h-2.11a2.35,2.35,0,0,1-.17-.44c0-.16-.07-.31-.1-.46h0a1.89,1.89,0,0,1-.89.87,3.45,3.45,0,0,1-1.3.2,2.09,2.09,0,0,1-1-.2,1.56,1.56,0,0,1-.64-.55,2.35,2.35,0,0,1-.35-.79,3.24,3.24,0,0,1-.11-.87,4,4,0,0,1,.12-1.05,2,2,0,0,1,1.07-1.27,5.45,5.45,0,0,1,1-.37l1.25-.34a1.31,1.31,0,0,0,.69-.35,1,1,0,0,0,.19-.65,1.23,1.23,0,0,0-.23-.78,1,1,0,0,0-.8-.28.94.94,0,0,0-.76.3,1.26,1.26,0,0,0-.26.82v.24h-2Zm3.55,2.15a4.38,4.38,0,0,1-.47.16,1.68,1.68,0,0,0-1,.48,1.34,1.34,0,0,0-.28.91,1.75,1.75,0,0,0,.19.85.68.68,0,0,0,.64.35,1.9,1.9,0,0,0,.46-.07,1.26,1.26,0,0,0,.44-.24,1,1,0,0,0,.33-.41,1.28,1.28,0,0,0,.13-.61v-1.7A1.67,1.67,0,0,1,967.9,619.79Z" transform="translate(-926.98 -573.24)"/><path class="cls-6" d="M976.44,622.91a2.21,2.21,0,0,1-.82.84,2.42,2.42,0,0,1-1.13.24,2.17,2.17,0,0,1-2-1,6.83,6.83,0,0,1-.64-3.44,7,7,0,0,1,.64-3.46,2.16,2.16,0,0,1,2-1.06,2.05,2.05,0,0,1,1.06.25,2.53,2.53,0,0,1,.8.77h0v-3.62h2.21v11.43h-2.12v-.91Zm-2.17-1.28a1,1,0,0,0,1.89,0,7.5,7.5,0,0,0,.22-2.12,7.6,7.6,0,0,0-.22-2.12,1,1,0,0,0-1.89,0,8.08,8.08,0,0,0-.21,2.12A8,8,0,0,0,974.27,621.63Z" transform="translate(-926.98 -573.24)"/><path class="cls-6" d="M980.79,625a1.1,1.1,0,0,0,.88-.32,1.58,1.58,0,0,0,.31-.85l-2.42-8.61h2.31l1.28,5.95h0l1.12-5.95h2.21l-2.08,8a16.49,16.49,0,0,1-.56,1.74,2.91,2.91,0,0,1-.62,1,1.7,1.7,0,0,1-.86.47,5.67,5.67,0,0,1-1.28.12h-.89v-1.65A3.66,3.66,0,0,0,980.79,625Z" transform="translate(-926.98 -573.24)"/><path class="cls-6" d="M993.85,612.75v2.46h1.28v1.5h-1.28v4.66a1.35,1.35,0,0,0,.15.73.74.74,0,0,0,.63.21h.26l.24,0v1.54l-.71,0c-.23,0-.47,0-.73,0a5,5,0,0,1-1.05-.09,1.08,1.08,0,0,1-.62-.35,1.55,1.55,0,0,1-.3-.7,6.49,6.49,0,0,1-.08-1.09v-4.93h-1.12v-1.5h1.12v-2.46Z" transform="translate(-926.98 -573.24)"/><path class="cls-6" d="M995.79,617.56a3.76,3.76,0,0,1,.57-1.41,2.62,2.62,0,0,1,1-.87A3.77,3.77,0,0,1,999,615a4,4,0,0,1,1.65.26,2.31,2.31,0,0,1,1,.86,3.57,3.57,0,0,1,.54,1.42,10.58,10.58,0,0,1,.16,2,10.37,10.37,0,0,1-.17,2,3.77,3.77,0,0,1-.58,1.41,2.29,2.29,0,0,1-1,.84A4.13,4.13,0,0,1,999,624a4.42,4.42,0,0,1-1.65-.24,2.32,2.32,0,0,1-1-.84,3.83,3.83,0,0,1-.54-1.42,10.58,10.58,0,0,1-.16-2A9.52,9.52,0,0,1,995.79,617.56Zm2.06,3.17a4.21,4.21,0,0,0,.15,1,1.29,1.29,0,0,0,.36.62.91.91,0,0,0,.64.23.94.94,0,0,0,.93-.71,7.4,7.4,0,0,0,.26-2.32,7.49,7.49,0,0,0-.26-2.32.94.94,0,0,0-.93-.7,1,1,0,0,0-.64.22,1.38,1.38,0,0,0-.36.63,4.12,4.12,0,0,0-.15,1c0,.37,0,.78,0,1.21S997.83,620.36,997.85,620.73Z" transform="translate(-926.98 -573.24)"/><path class="cls-6" d="M1009.63,612.39V616h0a2.5,2.5,0,0,1,.79-.77,2.08,2.08,0,0,1,1.06-.25,2.15,2.15,0,0,1,2,1.06,7,7,0,0,1,.64,3.46,6.83,6.83,0,0,1-.64,3.44,2.16,2.16,0,0,1-2,1,2.38,2.38,0,0,1-1.12-.24,2.22,2.22,0,0,1-.83-.84h0v.91h-2.11V612.39Zm.21,9.24a.92.92,0,0,0,.95.72.91.91,0,0,0,.94-.72,7.9,7.9,0,0,0,.22-2.12,8,8,0,0,0-.22-2.12.91.91,0,0,0-.94-.71.92.92,0,0,0-.95.71,8.08,8.08,0,0,0-.21,2.12A8,8,0,0,0,1009.84,621.63Z" transform="translate(-926.98 -573.24)"/><path class="cls-6" d="M1019.8,622.81a2,2,0,0,1-.91.91,2.9,2.9,0,0,1-1.28.27,2.21,2.21,0,0,1-1.62-.55,2.5,2.5,0,0,1-.57-1.85v-6.38h2.21v5.94a1.46,1.46,0,0,0,.22.93.89.89,0,0,0,.72.27c.78,0,1.17-.48,1.17-1.43v-5.71H1022v8.61h-2.12v-1Z" transform="translate(-926.98 -573.24)"/><path class="cls-6" d="M1025.71,612.27v1.88h-2.21v-1.88Zm0,2.94v8.61h-2.21v-8.61Z" transform="translate(-926.98 -573.24)"/><path class="cls-6" d="M1029.55,612.39v11.43h-2.21V612.39Z" transform="translate(-926.98 -573.24)"/><path class="cls-6" d="M1035.48,622.91a2.21,2.21,0,0,1-.82.84,2.42,2.42,0,0,1-1.13.24,2.17,2.17,0,0,1-2-1,6.83,6.83,0,0,1-.64-3.44,7,7,0,0,1,.64-3.46,2.16,2.16,0,0,1,2-1.06,2.05,2.05,0,0,1,1.06.25,2.53,2.53,0,0,1,.8.77h0v-3.62h2.2v11.43h-2.11v-.91Zm-2.17-1.28a1,1,0,0,0,1.89,0,7.5,7.5,0,0,0,.22-2.12,7.6,7.6,0,0,0-.22-2.12,1,1,0,0,0-1.89,0,8.08,8.08,0,0,0-.21,2.12A8,8,0,0,0,1033.31,621.63Z" transform="translate(-926.98 -573.24)"/><path class="cls-6" d="M953,628.39l4.48,11.43h-1.17L955,636.27h-5.21l-1.37,3.55h-1.15l4.59-11.43Zm1.55,7-2.21-5.86-2.29,5.86Z" transform="translate(-926.98 -573.24)"/><path class="cls-6" d="M963.12,633.17a1.66,1.66,0,0,0-.48-.57,1.88,1.88,0,0,0-.68-.33,3.45,3.45,0,0,0-.81-.1,3.14,3.14,0,0,0-.68.07,2.35,2.35,0,0,0-.64.24,1.38,1.38,0,0,0-.46.44,1.19,1.19,0,0,0-.17.67.94.94,0,0,0,.16.57,1.45,1.45,0,0,0,.43.39,2.42,2.42,0,0,0,.56.27l.56.17,1.34.3a3.92,3.92,0,0,1,.86.23,2.79,2.79,0,0,1,.75.44,2.22,2.22,0,0,1,.54.67,2.18,2.18,0,0,1,.2,1,2.06,2.06,0,0,1-.3,1.14,2.39,2.39,0,0,1-.78.77,3.1,3.1,0,0,1-1.06.42,5.24,5.24,0,0,1-1.17.13,3.78,3.78,0,0,1-2.36-.69,2.89,2.89,0,0,1-1-2.2h1a2,2,0,0,0,.74,1.54,2.68,2.68,0,0,0,1.69.52,4.09,4.09,0,0,0,.76-.08,2.38,2.38,0,0,0,.73-.27,1.73,1.73,0,0,0,.55-.49,1.24,1.24,0,0,0,.22-.73,1.15,1.15,0,0,0-.16-.61,1.24,1.24,0,0,0-.4-.42,3.22,3.22,0,0,0-.59-.28c-.22-.07-.44-.14-.66-.19l-1.3-.29a6.93,6.93,0,0,1-.91-.3,3,3,0,0,1-.73-.41,1.81,1.81,0,0,1-.49-.61,2.14,2.14,0,0,1-.17-.89,2,2,0,0,1,.28-1.07,2.1,2.1,0,0,1,.73-.72,3.43,3.43,0,0,1,1-.4,5.07,5.07,0,0,1,1.09-.13,4.28,4.28,0,0,1,1.16.16,2.7,2.7,0,0,1,.95.5,2.4,2.4,0,0,1,.64.83,3.15,3.15,0,0,1,.28,1.17h-1A2,2,0,0,0,963.12,633.17Z" transform="translate(-926.98 -573.24)"/><path class="cls-6" d="M970.81,633.17a1.64,1.64,0,0,0-.47-.57,2,2,0,0,0-.68-.33,3.61,3.61,0,0,0-.82-.1,3.21,3.21,0,0,0-.68.07,2.17,2.17,0,0,0-.63.24,1.3,1.3,0,0,0-.46.44,1.2,1.2,0,0,0-.18.67.94.94,0,0,0,.17.57,1.31,1.31,0,0,0,.42.39,2.63,2.63,0,0,0,.56.27l.56.17,1.35.3a3.7,3.7,0,0,1,.85.23,2.7,2.7,0,0,1,.76.44,2.35,2.35,0,0,1,.53.67,2.29,2.29,0,0,1-.09,2.09,2.6,2.6,0,0,1-.78.77,3.1,3.1,0,0,1-1.06.42A5.31,5.31,0,0,1,969,640a3.78,3.78,0,0,1-2.36-.69,2.86,2.86,0,0,1-1-2.2h1a2,2,0,0,0,.75,1.54,2.66,2.66,0,0,0,1.69.52,4.18,4.18,0,0,0,.76-.08,2.23,2.23,0,0,0,.72-.27,1.77,1.77,0,0,0,.56-.49,1.23,1.23,0,0,0,.21-.73,1.15,1.15,0,0,0-.15-.61,1.27,1.27,0,0,0-.41-.42,2.84,2.84,0,0,0-.58-.28c-.22-.07-.44-.14-.67-.19l-1.29-.29a6.47,6.47,0,0,1-.91-.3,3,3,0,0,1-.73-.41,1.81,1.81,0,0,1-.49-.61,2,2,0,0,1-.18-.89,2.05,2.05,0,0,1,.28-1.07,2.18,2.18,0,0,1,.73-.72,3.55,3.55,0,0,1,1-.4,5.16,5.16,0,0,1,1.1-.13,4.33,4.33,0,0,1,1.16.16,2.66,2.66,0,0,1,.94.5,2.43,2.43,0,0,1,.65.83A3,3,0,0,1,972,634h-1A1.86,1.86,0,0,0,970.81,633.17Z" transform="translate(-926.98 -573.24)"/><path class="cls-6" d="M974.5,637.09a3,3,0,0,0,.49,1,2.82,2.82,0,0,0,.84.77,2.45,2.45,0,0,0,1.24.3,2.4,2.4,0,0,0,1.72-.58,3,3,0,0,0,.87-1.53h1a4,4,0,0,1-1.18,2.17,3.47,3.47,0,0,1-2.42.77,3.83,3.83,0,0,1-1.69-.34,3.1,3.1,0,0,1-1.16-1,4.18,4.18,0,0,1-.67-1.39,6.48,6.48,0,0,1-.21-1.67,6.16,6.16,0,0,1,.21-1.6,4.43,4.43,0,0,1,.67-1.4,3.29,3.29,0,0,1,1.16-1,3.57,3.57,0,0,1,1.69-.38,3.43,3.43,0,0,1,1.69.4,3.52,3.52,0,0,1,1.15,1,4.44,4.44,0,0,1,.63,1.49,6.5,6.5,0,0,1,.16,1.7h-6.35A4.5,4.5,0,0,0,974.5,637.09Zm5-3.08a3,3,0,0,0-.52-.94,2.56,2.56,0,0,0-.81-.65,2.54,2.54,0,0,0-2.2,0,2.45,2.45,0,0,0-.81.65,3.17,3.17,0,0,0-.54.95,4.67,4.67,0,0,0-.26,1.09h5.34A3.69,3.69,0,0,0,979.49,634Z" transform="translate(-926.98 -573.24)"/><path class="cls-6" d="M985.34,631.56v.85h-1.68V638a1.78,1.78,0,0,0,.13.77c.09.19.32.29.68.32a8.46,8.46,0,0,0,.87-.05v.85h-.45l-.45,0a1.48,1.48,0,0,1-1.79-1.84v-5.65h-1.44v-.85h1.44v-2.48h1v2.48Z" transform="translate(-926.98 -573.24)"/><path class="cls-6" d="M991.55,633.17a1.66,1.66,0,0,0-.48-.57,1.88,1.88,0,0,0-.68-.33,3.45,3.45,0,0,0-.81-.1,3.14,3.14,0,0,0-.68.07,2.17,2.17,0,0,0-.63.24,1.33,1.33,0,0,0-.47.44,1.19,1.19,0,0,0-.17.67.94.94,0,0,0,.16.57,1.45,1.45,0,0,0,.43.39,2.63,2.63,0,0,0,.56.27l.56.17,1.34.3a3.92,3.92,0,0,1,.86.23,2.79,2.79,0,0,1,.75.44,2.22,2.22,0,0,1,.54.67,2.18,2.18,0,0,1,.2,1,2.06,2.06,0,0,1-.3,1.14,2.39,2.39,0,0,1-.78.77,3.1,3.1,0,0,1-1.06.42,5.18,5.18,0,0,1-1.17.13,3.78,3.78,0,0,1-2.36-.69,2.92,2.92,0,0,1-1-2.2h1a2,2,0,0,0,.74,1.54,2.7,2.7,0,0,0,1.69.52,4,4,0,0,0,.76-.08,2.38,2.38,0,0,0,.73-.27,1.73,1.73,0,0,0,.55-.49,1.24,1.24,0,0,0,.22-.73,1.07,1.07,0,0,0-.16-.61,1.24,1.24,0,0,0-.4-.42,3.22,3.22,0,0,0-.59-.28c-.22-.07-.44-.14-.66-.19l-1.3-.29a6.93,6.93,0,0,1-.91-.3,3,3,0,0,1-.73-.41,1.81,1.81,0,0,1-.49-.61,2.14,2.14,0,0,1-.17-.89,2,2,0,0,1,.28-1.07,2.1,2.1,0,0,1,.73-.72,3.43,3.43,0,0,1,1-.4,5.07,5.07,0,0,1,1.09-.13,4.28,4.28,0,0,1,1.16.16,2.7,2.7,0,0,1,1,.5,2.4,2.4,0,0,1,.64.83,3.15,3.15,0,0,1,.28,1.17h-1A2,2,0,0,0,991.55,633.17Z" transform="translate(-926.98 -573.24)"/><path class="cls-6" d="M999.15,632.84a2.35,2.35,0,0,1,.69-.86,2.91,2.91,0,0,1,1-.5,5.42,5.42,0,0,1,1.32-.16,5.65,5.65,0,0,1,1.08.11,2.65,2.65,0,0,1,1,.39,2.07,2.07,0,0,1,.7.81,2.88,2.88,0,0,1,.28,1.35v4.38c0,.41.19.61.59.61a.87.87,0,0,0,.32-.06v.84a2.19,2.19,0,0,1-.31,0l-.35,0a1.48,1.48,0,0,1-.61-.11.7.7,0,0,1-.36-.29,1,1,0,0,1-.17-.46,3.45,3.45,0,0,1,0-.58h0a7.33,7.33,0,0,1-.56.71,2.56,2.56,0,0,1-.62.52,2.72,2.72,0,0,1-.78.32,4.64,4.64,0,0,1-1,.11,4.1,4.1,0,0,1-1.08-.13,2.35,2.35,0,0,1-.88-.44,1.92,1.92,0,0,1-.59-.75,2.39,2.39,0,0,1-.22-1.08,2.19,2.19,0,0,1,.38-1.35,2.41,2.41,0,0,1,1-.74,5.9,5.9,0,0,1,1.42-.36l1.61-.2.56-.08a1.12,1.12,0,0,0,.4-.17.76.76,0,0,0,.25-.33,1.38,1.38,0,0,0,.09-.54,1.87,1.87,0,0,0-.17-.84,1.3,1.3,0,0,0-.46-.52,1.92,1.92,0,0,0-.69-.27,4.46,4.46,0,0,0-.84-.07,2.5,2.5,0,0,0-1.57.46,1.76,1.76,0,0,0-.64,1.46h-1A3.15,3.15,0,0,1,999.15,632.84Zm5,2.47a.61.61,0,0,1-.37.25,2.68,2.68,0,0,1-.48.11c-.43.08-.87.15-1.32.2a6.9,6.9,0,0,0-1.24.27,2.38,2.38,0,0,0-.92.5,1.21,1.21,0,0,0-.36.94,1.51,1.51,0,0,0,.15.68,1.57,1.57,0,0,0,.41.51,2,2,0,0,0,.59.33,2.26,2.26,0,0,0,.69.11,3.38,3.38,0,0,0,1.1-.18,2.59,2.59,0,0,0,1.55-1.32,2.56,2.56,0,0,0,.23-1.09v-1.31Z" transform="translate(-926.98 -573.24)"/><path class="cls-6" d="M1008.23,631.56V633h0a2.4,2.4,0,0,1,1-1.21,3,3,0,0,1,1.62-.46,4,4,0,0,1,1.44.23,2.36,2.36,0,0,1,.94.63,2.42,2.42,0,0,1,.5,1,6,6,0,0,1,.14,1.33v5.31h-1v-5.15a5.13,5.13,0,0,0-.09-1,2.18,2.18,0,0,0-.34-.79,1.71,1.71,0,0,0-.65-.53,2.33,2.33,0,0,0-1-.19,2.45,2.45,0,0,0-1.08.22,2.17,2.17,0,0,0-.8.59,2.9,2.9,0,0,0-.52.89,3.77,3.77,0,0,0-.2,1.13v4.82h-1v-8.26Z" transform="translate(-926.98 -573.24)"/><path class="cls-6" d="M1022.17,639.82v-1.57h0a2.65,2.65,0,0,1-.47.74,3,3,0,0,1-.72.56,3.57,3.57,0,0,1-1.76.49,3.67,3.67,0,0,1-1.64-.34,3.35,3.35,0,0,1-1.16-1,3.84,3.84,0,0,1-.68-1.39,6.18,6.18,0,0,1,0-3.34,3.84,3.84,0,0,1,.68-1.39,3.49,3.49,0,0,1,1.16-1,3.67,3.67,0,0,1,1.64-.35,4,4,0,0,1,.91.11,3,3,0,0,1,.82.35,2.65,2.65,0,0,1,.68.57,2.33,2.33,0,0,1,.46.78h0v-4.74h1v11.43Zm-5.53-2.86a3.48,3.48,0,0,0,.48,1.13,2.71,2.71,0,0,0,.84.81,2.29,2.29,0,0,0,1.23.31,2.64,2.64,0,0,0,1.35-.31,2.71,2.71,0,0,0,.9-.81,3.31,3.31,0,0,0,.5-1.13,5.45,5.45,0,0,0,0-2.54,3.31,3.31,0,0,0-.5-1.13,2.71,2.71,0,0,0-.9-.81,2.64,2.64,0,0,0-1.35-.31,2.29,2.29,0,0,0-1.23.31,2.71,2.71,0,0,0-.84.81,3.48,3.48,0,0,0-.48,1.13,5.45,5.45,0,0,0,0,2.54Z" transform="translate(-926.98 -573.24)"/><path class="cls-6" d="M1032.75,631.56v.85h-1.69V638a1.76,1.76,0,0,0,.14.77c.09.19.32.29.68.32a8.46,8.46,0,0,0,.87-.05v.85h-.45l-.45,0a2,2,0,0,1-1.41-.39,2,2,0,0,1-.38-1.45v-5.65h-1.44v-.85h1.44v-2.48h1v2.48Z" transform="translate(-926.98 -573.24)"/><path class="cls-6" d="M1035.19,628.39V633h0a2.47,2.47,0,0,1,1-1.21,3,3,0,0,1,1.61-.46,4,4,0,0,1,1.45.23,2.36,2.36,0,0,1,.94.63,2.29,2.29,0,0,1,.49,1,5.41,5.41,0,0,1,.15,1.33v5.31h-1v-5.15a4.43,4.43,0,0,0-.1-1,2,2,0,0,0-.33-.79,1.71,1.71,0,0,0-.65-.53,2.35,2.35,0,0,0-1-.19,2.51,2.51,0,0,0-1.08.22,2.35,2.35,0,0,0-.8.59,2.88,2.88,0,0,0-.51.89,3.77,3.77,0,0,0-.2,1.13v4.82h-1V628.39Z" transform="translate(-926.98 -573.24)"/><path class="cls-6" d="M1043.54,637.09a3.15,3.15,0,0,0,.48,1,3,3,0,0,0,.85.77,2.39,2.39,0,0,0,1.23.3,2.41,2.41,0,0,0,1.73-.58,3,3,0,0,0,.87-1.53h1a4,4,0,0,1-1.17,2.17,3.48,3.48,0,0,1-2.43.77,3.79,3.79,0,0,1-1.68-.34,3,3,0,0,1-1.16-1,4.18,4.18,0,0,1-.67-1.39,6.48,6.48,0,0,1-.21-1.67,6.16,6.16,0,0,1,.21-1.6,4.43,4.43,0,0,1,.67-1.4,3.21,3.21,0,0,1,1.16-1,3.53,3.53,0,0,1,1.68-.38,3.45,3.45,0,0,1,1.7.4,3.39,3.39,0,0,1,1.14,1,4.26,4.26,0,0,1,.64,1.49,7,7,0,0,1,.16,1.7h-6.36A4.11,4.11,0,0,0,1043.54,637.09Zm5-3.08a3.19,3.19,0,0,0-.52-.94,2.59,2.59,0,0,0-.82-.65,2.28,2.28,0,0,0-1.09-.25,2.32,2.32,0,0,0-1.1.25,2.59,2.59,0,0,0-.82.65,3.38,3.38,0,0,0-.53.95,4.7,4.7,0,0,0-.27,1.09h5.35A3.69,3.69,0,0,0,1048.53,634Z" transform="translate(-926.98 -573.24)"/><path class="cls-6" d="M1052.12,628.39V630h-1v-1.62Zm0,3.17v8.26h-1v-8.26Z" transform="translate(-926.98 -573.24)"/><path class="cls-6" d="M1055,631.56v1.94h0a3,3,0,0,1,3.12-2v1a3.13,3.13,0,0,0-1.25.18,2.78,2.78,0,0,0-1,.62,2.82,2.82,0,0,0-.63,1,3.18,3.18,0,0,0-.23,1.21v4.4h-1v-8.26Z" transform="translate(-926.98 -573.24)"/><path class="cls-6" d="M1068.3,633.17a1.66,1.66,0,0,0-.48-.57,1.88,1.88,0,0,0-.68-.33,3.45,3.45,0,0,0-.81-.1,3.14,3.14,0,0,0-.68.07,2.17,2.17,0,0,0-.63.24,1.33,1.33,0,0,0-.47.44,1.19,1.19,0,0,0-.17.67.94.94,0,0,0,.16.57,1.45,1.45,0,0,0,.43.39,2.63,2.63,0,0,0,.56.27l.56.17,1.34.3a3.92,3.92,0,0,1,.86.23,2.79,2.79,0,0,1,.75.44,2.22,2.22,0,0,1,.54.67,2.18,2.18,0,0,1,.2,1,2.06,2.06,0,0,1-.3,1.14,2.39,2.39,0,0,1-.78.77,3.1,3.1,0,0,1-1.06.42,5.18,5.18,0,0,1-1.17.13,3.78,3.78,0,0,1-2.36-.69,2.92,2.92,0,0,1-1-2.2h1a2,2,0,0,0,.74,1.54,2.7,2.7,0,0,0,1.69.52,4,4,0,0,0,.76-.08,2.38,2.38,0,0,0,.73-.27,1.73,1.73,0,0,0,.55-.49,1.24,1.24,0,0,0,.22-.73,1.07,1.07,0,0,0-.16-.61,1.24,1.24,0,0,0-.4-.42,3.22,3.22,0,0,0-.59-.28c-.22-.07-.44-.14-.66-.19l-1.3-.29a6.93,6.93,0,0,1-.91-.3,3,3,0,0,1-.73-.41,1.81,1.81,0,0,1-.49-.61,2.14,2.14,0,0,1-.17-.89,2,2,0,0,1,.28-1.07,2.1,2.1,0,0,1,.73-.72,3.43,3.43,0,0,1,1-.4,5.07,5.07,0,0,1,1.09-.13,4.28,4.28,0,0,1,1.16.16,2.7,2.7,0,0,1,.95.5,2.4,2.4,0,0,1,.64.83,3.15,3.15,0,0,1,.28,1.17h-1A2,2,0,0,0,1068.3,633.17Z" transform="translate(-926.98 -573.24)"/><path class="cls-6" d="M1077,639.82v-1.49h0a2.92,2.92,0,0,1-1.16,1.27,3.26,3.26,0,0,1-1.69.44,3.81,3.81,0,0,1-1.34-.21,2.3,2.3,0,0,1-.89-.62,2.54,2.54,0,0,1-.51-1,5.16,5.16,0,0,1-.16-1.31v-5.36h1v5.38a2.68,2.68,0,0,0,.52,1.69,2.6,2.6,0,0,0,2.81.3,2.47,2.47,0,0,0,.77-.74,3.56,3.56,0,0,0,.45-1.07,5.57,5.57,0,0,0,.14-1.22v-4.34h1v8.26Z" transform="translate(-926.98 -573.24)"/><path class="cls-6" d="M1080.84,628.39v4.74h0a2.33,2.33,0,0,1,.46-.78,2.49,2.49,0,0,1,.68-.57,2.92,2.92,0,0,1,.83-.35,4,4,0,0,1,.9-.11,3.7,3.7,0,0,1,1.64.35,3.49,3.49,0,0,1,1.16,1,4.19,4.19,0,0,1,.68,1.39,6.18,6.18,0,0,1,0,3.34,4.19,4.19,0,0,1-.68,1.39,3.35,3.35,0,0,1-1.16,1,3.7,3.7,0,0,1-1.64.34,3.44,3.44,0,0,1-1.8-.46,2.68,2.68,0,0,1-1.15-1.33h0v1.57h-.93V628.39Zm5.45,6a3.48,3.48,0,0,0-.48-1.13,2.71,2.71,0,0,0-.84-.81,2.32,2.32,0,0,0-1.23-.31,2.71,2.71,0,0,0-1.36.31,2.67,2.67,0,0,0-.89.81,3.31,3.31,0,0,0-.5,1.13,5.45,5.45,0,0,0,0,2.54,3.31,3.31,0,0,0,.5,1.13,2.67,2.67,0,0,0,.89.81,2.71,2.71,0,0,0,1.36.31,2.32,2.32,0,0,0,1.23-.31,2.71,2.71,0,0,0,.84-.81,3.48,3.48,0,0,0,.48-1.13,5.45,5.45,0,0,0,0-2.54Z" transform="translate(-926.98 -573.24)"/><path class="cls-6" d="M1089,635h4v.93h-4Z" transform="translate(-926.98 -573.24)"/><path class="cls-6" d="M1095.86,631.56v1.57h0a2.74,2.74,0,0,1,1.15-1.34,3.5,3.5,0,0,1,1.8-.47,3.67,3.67,0,0,1,1.64.35,3.49,3.49,0,0,1,1.16,1,4,4,0,0,1,.69,1.39,6.45,6.45,0,0,1,0,3.34,4,4,0,0,1-.69,1.39,3.35,3.35,0,0,1-1.16,1,3.67,3.67,0,0,1-1.64.34,4,4,0,0,1-.9-.11,3,3,0,0,1-.83-.34,2.42,2.42,0,0,1-.68-.56,2.33,2.33,0,0,1-.46-.78h0v4.61h-1v-11.3Zm5.53,2.86a3.48,3.48,0,0,0-.48-1.13,2.71,2.71,0,0,0-.84-.81,2.29,2.29,0,0,0-1.23-.31,3,3,0,0,0-1.39.29,2.34,2.34,0,0,0-.9.77,3.05,3.05,0,0,0-.47,1.12,6.4,6.4,0,0,0-.14,1.34,5.44,5.44,0,0,0,.15,1.27,3.51,3.51,0,0,0,.5,1.13,2.71,2.71,0,0,0,.9.81,2.64,2.64,0,0,0,1.35.31,2.29,2.29,0,0,0,1.23-.31,2.71,2.71,0,0,0,.84-.81,3.48,3.48,0,0,0,.48-1.13,5.45,5.45,0,0,0,0-2.54Z" transform="translate(-926.98 -573.24)"/><path class="cls-6" d="M1104.33,632.84a2.35,2.35,0,0,1,.69-.86,3,3,0,0,1,1-.5,5.42,5.42,0,0,1,1.32-.16,5.65,5.65,0,0,1,1.08.11,2.65,2.65,0,0,1,1,.39,2.07,2.07,0,0,1,.7.81,2.76,2.76,0,0,1,.28,1.35v4.38c0,.41.19.61.59.61a.83.83,0,0,0,.32-.06v.84a2.19,2.19,0,0,1-.31,0l-.35,0a1.48,1.48,0,0,1-.61-.11.7.7,0,0,1-.36-.29,1,1,0,0,1-.17-.46,3.45,3.45,0,0,1,0-.58h0a7.33,7.33,0,0,1-.56.71,2.56,2.56,0,0,1-.62.52,2.72,2.72,0,0,1-.78.32,4.64,4.64,0,0,1-1,.11,4.1,4.1,0,0,1-1.08-.13,2.35,2.35,0,0,1-.88-.44,1.92,1.92,0,0,1-.59-.75,2.39,2.39,0,0,1-.22-1.08,2.19,2.19,0,0,1,.38-1.35,2.41,2.41,0,0,1,1-.74,5.9,5.9,0,0,1,1.42-.36l1.61-.2.56-.08a1.05,1.05,0,0,0,.4-.17.76.76,0,0,0,.25-.33,1.38,1.38,0,0,0,.09-.54,1.87,1.87,0,0,0-.17-.84,1.3,1.3,0,0,0-.46-.52,1.92,1.92,0,0,0-.69-.27,4.46,4.46,0,0,0-.84-.07,2.52,2.52,0,0,0-1.57.46,1.76,1.76,0,0,0-.64,1.46h-1A3.33,3.33,0,0,1,1104.33,632.84Zm5,2.47a.61.61,0,0,1-.37.25,2.68,2.68,0,0,1-.48.11c-.43.08-.87.15-1.32.2a7.1,7.1,0,0,0-1.24.27,2.38,2.38,0,0,0-.92.5,1.21,1.21,0,0,0-.36.94,1.51,1.51,0,0,0,.15.68,1.57,1.57,0,0,0,.41.51,2,2,0,0,0,.59.33,2.26,2.26,0,0,0,.69.11,3.38,3.38,0,0,0,1.1-.18,2.59,2.59,0,0,0,1.55-1.32,2.56,2.56,0,0,0,.23-1.09v-1.31Z" transform="translate(-926.98 -573.24)"/><path class="cls-6" d="M1113.35,631.56v1.94h0a3.23,3.23,0,0,1,1.19-1.55,3.09,3.09,0,0,1,1.93-.5v1a3.16,3.16,0,0,0-1.25.18,2.84,2.84,0,0,0-1,.62,2.7,2.7,0,0,0-.64,1,3.18,3.18,0,0,0-.22,1.21v4.4h-1v-8.26Z" transform="translate(-926.98 -573.24)"/><path class="cls-6" d="M1120.74,631.56v.85h-1.68V638a1.76,1.76,0,0,0,.14.77c.09.19.32.29.68.32a8.27,8.27,0,0,0,.86-.05v.85h-.45l-.44,0a1.49,1.49,0,0,1-1.8-1.84v-5.65h-1.44v-.85h1.44v-2.48h1v2.48Z" transform="translate(-926.98 -573.24)"/><path class="cls-6" d="M1127,633.17a1.64,1.64,0,0,0-.47-.57,2,2,0,0,0-.68-.33,3.61,3.61,0,0,0-.82-.1,3.21,3.21,0,0,0-.68.07,2.17,2.17,0,0,0-.63.24,1.3,1.3,0,0,0-.46.44,1.2,1.2,0,0,0-.18.67.94.94,0,0,0,.17.57,1.31,1.31,0,0,0,.42.39,2.63,2.63,0,0,0,.56.27l.56.17,1.35.3a3.84,3.84,0,0,1,.85.23,2.65,2.65,0,0,1,.75.44,2.22,2.22,0,0,1,.54.67,2,2,0,0,1,.21,1,2,2,0,0,1-.31,1.14,2.46,2.46,0,0,1-.77.77,3.15,3.15,0,0,1-1.07.42,5.16,5.16,0,0,1-1.16.13,3.78,3.78,0,0,1-2.36-.69,2.9,2.9,0,0,1-1-2.2h1a2,2,0,0,0,.75,1.54,2.65,2.65,0,0,0,1.68.52,4,4,0,0,0,.76-.08,2.2,2.2,0,0,0,.73-.27,1.63,1.63,0,0,0,.55-.49,1.17,1.17,0,0,0,.22-.73,1.15,1.15,0,0,0-.15-.61,1.27,1.27,0,0,0-.41-.42,3.12,3.12,0,0,0-.58-.28c-.22-.07-.44-.14-.67-.19l-1.29-.29a7.09,7.09,0,0,1-.92-.3,2.94,2.94,0,0,1-.72-.41,1.81,1.81,0,0,1-.49-.61,2,2,0,0,1-.18-.89,2.05,2.05,0,0,1,.28-1.07,2.18,2.18,0,0,1,.73-.72,3.55,3.55,0,0,1,1-.4,5.16,5.16,0,0,1,1.1-.13,4.33,4.33,0,0,1,1.16.16,2.66,2.66,0,0,1,.94.5,2.43,2.43,0,0,1,.65.83,3,3,0,0,1,.27,1.17h-1A1.86,1.86,0,0,0,1127,633.17Z" transform="translate(-926.98 -573.24)"/><path class="cls-6" d="M948.49,648.84a2.28,2.28,0,0,1,.7-.86,2.83,2.83,0,0,1,1-.5,5.28,5.28,0,0,1,1.31-.16,5.76,5.76,0,0,1,1.09.11,2.72,2.72,0,0,1,1,.39,2.15,2.15,0,0,1,.7.81,2.89,2.89,0,0,1,.27,1.35v4.38a.53.53,0,0,0,.59.61.79.79,0,0,0,.32-.06v.84a2,2,0,0,1-.31,0l-.34,0a1.53,1.53,0,0,1-.62-.11.79.79,0,0,1-.36-.29,1.26,1.26,0,0,1-.17-.46,5,5,0,0,1,0-.58h0a6,6,0,0,1-.55.71,3,3,0,0,1-.62.52,2.79,2.79,0,0,1-.79.32,4.51,4.51,0,0,1-1,.11,4.21,4.21,0,0,1-1.08-.13,2.43,2.43,0,0,1-.88-.44,2,2,0,0,1-.59-.75,2.53,2.53,0,0,1-.22-1.08,2.13,2.13,0,0,1,.39-1.35,2.35,2.35,0,0,1,1-.74,5.78,5.78,0,0,1,1.42-.36l1.61-.2.56-.08a1.12,1.12,0,0,0,.4-.17.85.85,0,0,0,.25-.33,1.62,1.62,0,0,0,.08-.54,1.88,1.88,0,0,0-.16-.84,1.32,1.32,0,0,0-.47-.52,1.92,1.92,0,0,0-.69-.27,4.46,4.46,0,0,0-.84-.07,2.52,2.52,0,0,0-1.57.46,1.78,1.78,0,0,0-.63,1.46h-1A3.33,3.33,0,0,1,948.49,648.84Zm5,2.47a.58.58,0,0,1-.37.25,2.68,2.68,0,0,1-.48.11c-.42.08-.86.15-1.32.2a7.31,7.31,0,0,0-1.24.27,2.46,2.46,0,0,0-.92.5,1.21,1.21,0,0,0-.36.94,1.39,1.39,0,0,0,.16.68,1.54,1.54,0,0,0,.4.51,1.93,1.93,0,0,0,.6.33,2.25,2.25,0,0,0,.68.11,3.4,3.4,0,0,0,1.11-.18,2.51,2.51,0,0,0,.92-.51,2.37,2.37,0,0,0,.62-.81,2.42,2.42,0,0,0,.23-1.09v-1.31Z" transform="translate(-926.98 -573.24)"/><path class="cls-6" d="M957.51,647.56v1.94h0a3,3,0,0,1,3.12-2v1a3.13,3.13,0,0,0-1.25.18,2.88,2.88,0,0,0-1,.62,2.82,2.82,0,0,0-.63,1,3.18,3.18,0,0,0-.23,1.21v4.4h-1v-8.26Z" transform="translate(-926.98 -573.24)"/><path class="cls-6" d="M962.08,653.09a3.17,3.17,0,0,0,.49,1,2.86,2.86,0,0,0,.85.77,2.39,2.39,0,0,0,1.23.3,2.43,2.43,0,0,0,1.73-.58,3,3,0,0,0,.86-1.53h1a4,4,0,0,1-1.17,2.17,3.49,3.49,0,0,1-2.43.77,3.86,3.86,0,0,1-1.69-.34,3.18,3.18,0,0,1-1.16-1,4,4,0,0,1-.66-1.39,6.48,6.48,0,0,1-.22-1.67,6.17,6.17,0,0,1,.22-1.6,4.2,4.2,0,0,1,.66-1.4,3.38,3.38,0,0,1,1.16-1,3.6,3.6,0,0,1,1.69-.38,3.47,3.47,0,0,1,1.7.4,3.39,3.39,0,0,1,1.14,1,4.25,4.25,0,0,1,.63,1.49,6.5,6.5,0,0,1,.16,1.7h-6.35A4.5,4.5,0,0,0,962.08,653.09Zm5-3.08a3.22,3.22,0,0,0-.53-.94,2.45,2.45,0,0,0-.81-.65,2.28,2.28,0,0,0-1.09-.25,2.32,2.32,0,0,0-1.1.25,2.59,2.59,0,0,0-.82.65,3.38,3.38,0,0,0-.53.95,4.24,4.24,0,0,0-.27,1.09h5.35A4,4,0,0,0,967.08,650Z" transform="translate(-926.98 -573.24)"/><path class="cls-6" d="M975.1,644.39v4.74h0a2.33,2.33,0,0,1,.46-.78,2.49,2.49,0,0,1,.68-.57,2.92,2.92,0,0,1,.83-.35,4,4,0,0,1,.9-.11,3.62,3.62,0,0,1,1.63.35,3.31,3.31,0,0,1,1.16,1,4,4,0,0,1,.69,1.39,6.18,6.18,0,0,1,0,3.34,4,4,0,0,1-.69,1.39,3.18,3.18,0,0,1-1.16,1A3.62,3.62,0,0,1,978,656a3.44,3.44,0,0,1-1.8-.46,2.68,2.68,0,0,1-1.15-1.33h0v1.57h-.93V644.39Zm5.45,6a3.48,3.48,0,0,0-.48-1.13,2.71,2.71,0,0,0-.84-.81,2.32,2.32,0,0,0-1.23-.31,2.71,2.71,0,0,0-1.36.31,2.67,2.67,0,0,0-.89.81,3.31,3.31,0,0,0-.5,1.13,5.45,5.45,0,0,0,0,2.54,3.31,3.31,0,0,0,.5,1.13,2.67,2.67,0,0,0,.89.81,2.71,2.71,0,0,0,1.36.31,2.32,2.32,0,0,0,1.23-.31,2.71,2.71,0,0,0,.84-.81,3.48,3.48,0,0,0,.48-1.13,5.45,5.45,0,0,0,0-2.54Z" transform="translate(-926.98 -573.24)"/><path class="cls-6" d="M989,655.82v-1.49h0a2.81,2.81,0,0,1-1.16,1.27,3.23,3.23,0,0,1-1.69.44,3.75,3.75,0,0,1-1.33-.21,2.26,2.26,0,0,1-.9-.62,2.53,2.53,0,0,1-.5-1,4.75,4.75,0,0,1-.16-1.31v-5.36h1v5.38a2.62,2.62,0,0,0,.52,1.69,2.58,2.58,0,0,0,2.8.3,2.37,2.37,0,0,0,.77-.74,3.32,3.32,0,0,0,.45-1.07,5,5,0,0,0,.14-1.22v-4.34h1v8.26Z" transform="translate(-926.98 -573.24)"/><path class="cls-6" d="M992.89,644.39V646h-1v-1.62Zm0,3.17v8.26h-1v-8.26Z" transform="translate(-926.98 -573.24)"/><path class="cls-6" d="M995.85,644.39v11.43h-1V644.39Z" transform="translate(-926.98 -573.24)"/><path class="cls-6" d="M1001.07,647.56v.85h-1.68V654a1.78,1.78,0,0,0,.13.77c.09.19.32.29.68.32a8.46,8.46,0,0,0,.87-.05v.85h-.45l-.45,0a1.48,1.48,0,0,1-1.79-1.84v-5.65h-1.44v-.85h1.44v-2.48h1v2.48Z" transform="translate(-926.98 -573.24)"/><path class="cls-6" d="M1007.18,648.84a2.35,2.35,0,0,1,.69-.86,3,3,0,0,1,1-.5,5.28,5.28,0,0,1,1.31-.16,5.84,5.84,0,0,1,1.09.11,2.68,2.68,0,0,1,1,.39,2.17,2.17,0,0,1,.71.81,2.89,2.89,0,0,1,.27,1.35v4.38a.53.53,0,0,0,.59.61.83.83,0,0,0,.32-.06v.84a2.19,2.19,0,0,1-.31,0l-.35,0a1.48,1.48,0,0,1-.61-.11.7.7,0,0,1-.36-.29,1.1,1.1,0,0,1-.17-.46,3.45,3.45,0,0,1,0-.58h0a7.31,7.31,0,0,1-.55.71,2.81,2.81,0,0,1-.63.52,2.72,2.72,0,0,1-.78.32,4.57,4.57,0,0,1-1.05.11,4.21,4.21,0,0,1-1.08-.13,2.35,2.35,0,0,1-.88-.44,1.92,1.92,0,0,1-.59-.75,2.39,2.39,0,0,1-.22-1.08,2.13,2.13,0,0,1,.39-1.35,2.32,2.32,0,0,1,1-.74,5.87,5.87,0,0,1,1.43-.36l1.6-.2.56-.08a1.05,1.05,0,0,0,.4-.17.76.76,0,0,0,.25-.33,1.38,1.38,0,0,0,.09-.54,1.87,1.87,0,0,0-.17-.84,1.23,1.23,0,0,0-.46-.52,1.92,1.92,0,0,0-.69-.27,4.46,4.46,0,0,0-.84-.07,2.52,2.52,0,0,0-1.57.46,1.79,1.79,0,0,0-.64,1.46h-1A3.53,3.53,0,0,1,1007.18,648.84Zm5,2.47a.61.61,0,0,1-.37.25,2.68,2.68,0,0,1-.48.11c-.43.08-.87.15-1.32.2a7.1,7.1,0,0,0-1.24.27,2.46,2.46,0,0,0-.92.5,1.21,1.21,0,0,0-.36.94,1.51,1.51,0,0,0,.15.68,1.57,1.57,0,0,0,.41.51,2,2,0,0,0,.59.33,2.31,2.31,0,0,0,.69.11,3.38,3.38,0,0,0,1.1-.18,2.43,2.43,0,0,0,.92-.51,2.4,2.4,0,0,0,.63-.81,2.56,2.56,0,0,0,.23-1.09v-1.31Z" transform="translate(-926.98 -573.24)"/><path class="cls-6" d="M1016.27,647.56V649h0a2.4,2.4,0,0,1,1-1.21,3,3,0,0,1,1.62-.46,4.08,4.08,0,0,1,1.45.23,2.21,2.21,0,0,1,1.43,1.63,6,6,0,0,1,.14,1.33v5.31h-1v-5.15a5.13,5.13,0,0,0-.09-1,2.18,2.18,0,0,0-.34-.79,1.64,1.64,0,0,0-.65-.53,2.33,2.33,0,0,0-1-.19,2.45,2.45,0,0,0-1.08.22,2.25,2.25,0,0,0-.8.59,2.69,2.69,0,0,0-.51.89,3.48,3.48,0,0,0-.2,1.13v4.82h-1v-8.26Z" transform="translate(-926.98 -573.24)"/><path class="cls-6" d="M1030.2,655.82v-1.57h0a2.44,2.44,0,0,1-.47.74,3.19,3.19,0,0,1-.71.56,3.41,3.41,0,0,1-.86.36,3.16,3.16,0,0,1-.9.13,3.71,3.71,0,0,1-1.65-.34,3.35,3.35,0,0,1-1.16-1,4.19,4.19,0,0,1-.68-1.39,6.18,6.18,0,0,1,0-3.34,4.19,4.19,0,0,1,.68-1.39,3.49,3.49,0,0,1,1.16-1,3.71,3.71,0,0,1,1.65-.35,3.89,3.89,0,0,1,.9.11,3,3,0,0,1,.82.35,2.49,2.49,0,0,1,.68.57,2.33,2.33,0,0,1,.46.78h0v-4.74h1v11.43Zm-5.53-2.86a3.48,3.48,0,0,0,.48,1.13,2.71,2.71,0,0,0,.84.81,2.33,2.33,0,0,0,1.24.31,2.55,2.55,0,0,0,2.24-1.12,3.31,3.31,0,0,0,.5-1.13,5.45,5.45,0,0,0,0-2.54,3.31,3.31,0,0,0-.5-1.13,2.55,2.55,0,0,0-2.24-1.12,2.33,2.33,0,0,0-1.24.31,2.71,2.71,0,0,0-.84.81,3.48,3.48,0,0,0-.48,1.13,5.45,5.45,0,0,0,0,2.54Z" transform="translate(-926.98 -573.24)"/><path class="cls-6" d="M1040.78,647.56v.85h-1.68V654a1.78,1.78,0,0,0,.13.77c.09.19.32.29.68.32a8.46,8.46,0,0,0,.87-.05v.85h-.45l-.45,0a1.48,1.48,0,0,1-1.79-1.84v-5.65h-1.44v-.85h1.44v-2.48h1v2.48Z" transform="translate(-926.98 -573.24)"/><path class="cls-6" d="M1043,653.09a3.15,3.15,0,0,0,.48,1,3,3,0,0,0,.85.77,2.39,2.39,0,0,0,1.23.3,2.41,2.41,0,0,0,1.73-.58,3,3,0,0,0,.87-1.53h1a4,4,0,0,1-1.17,2.17,3.48,3.48,0,0,1-2.43.77,3.79,3.79,0,0,1-1.68-.34,3.1,3.1,0,0,1-1.16-1,4.18,4.18,0,0,1-.67-1.39,6.48,6.48,0,0,1-.21-1.67,6.16,6.16,0,0,1,.21-1.6,4.43,4.43,0,0,1,.67-1.4,3.29,3.29,0,0,1,1.16-1,3.53,3.53,0,0,1,1.68-.38,3.45,3.45,0,0,1,1.7.4,3.39,3.39,0,0,1,1.14,1,4.26,4.26,0,0,1,.64,1.49,7,7,0,0,1,.16,1.7h-6.36A4.53,4.53,0,0,0,1043,653.09Zm5-3.08a3.19,3.19,0,0,0-.52-.94,2.59,2.59,0,0,0-.82-.65,2.28,2.28,0,0,0-1.09-.25,2.32,2.32,0,0,0-1.1.25,2.59,2.59,0,0,0-.82.65,3.38,3.38,0,0,0-.53.95,5.27,5.27,0,0,0-.27,1.09h5.35A3.69,3.69,0,0,0,1048,650Z" transform="translate(-926.98 -573.24)"/><path class="cls-6" d="M1055.29,649.17a1.75,1.75,0,0,0-.47-.57,2,2,0,0,0-.68-.33,3.61,3.61,0,0,0-.82-.1,3.21,3.21,0,0,0-.68.07,2.17,2.17,0,0,0-.63.24,1.41,1.41,0,0,0-.47.44,1.28,1.28,0,0,0-.17.67.88.88,0,0,0,.17.57,1.31,1.31,0,0,0,.42.39,2.63,2.63,0,0,0,.56.27l.56.17,1.34.3a3.78,3.78,0,0,1,.86.23,2.79,2.79,0,0,1,.75.44,2.22,2.22,0,0,1,.54.67,2.25,2.25,0,0,1-.1,2.09,2.46,2.46,0,0,1-.77.77,3.15,3.15,0,0,1-1.07.42,5.18,5.18,0,0,1-1.17.13,3.8,3.8,0,0,1-2.36-.69,2.92,2.92,0,0,1-1-2.2h1a2,2,0,0,0,.74,1.54,2.7,2.7,0,0,0,1.69.52,4,4,0,0,0,.76-.08,2.29,2.29,0,0,0,.73-.27,1.73,1.73,0,0,0,.55-.49,1.17,1.17,0,0,0,.22-.73,1.15,1.15,0,0,0-.15-.61,1.37,1.37,0,0,0-.41-.42,2.93,2.93,0,0,0-.59-.28c-.21-.07-.44-.14-.66-.19l-1.3-.29a6.93,6.93,0,0,1-.91-.3,3,3,0,0,1-.73-.41,1.78,1.78,0,0,1-.48-.61,2,2,0,0,1-.18-.89,2,2,0,0,1,.28-1.07,2.18,2.18,0,0,1,.73-.72,3.55,3.55,0,0,1,1-.4,5.15,5.15,0,0,1,1.09-.13,4.22,4.22,0,0,1,1.16.16,2.62,2.62,0,0,1,1,.5,2.43,2.43,0,0,1,.65.83,3,3,0,0,1,.27,1.17h-1A1.86,1.86,0,0,0,1055.29,649.17Z" transform="translate(-926.98 -573.24)"/><path class="cls-6" d="M1061.51,647.56v.85h-1.68V654a1.76,1.76,0,0,0,.14.77c.09.19.32.29.68.32a8.27,8.27,0,0,0,.86-.05v.85h-.45l-.44,0a1.49,1.49,0,0,1-1.8-1.84v-5.65h-1.44v-.85h1.44v-2.48h1v2.48Z" transform="translate(-926.98 -573.24)"/><path class="cls-6" d="M1063.71,653.09a3.17,3.17,0,0,0,.49,1,2.86,2.86,0,0,0,.85.77,2.39,2.39,0,0,0,1.23.3,2.43,2.43,0,0,0,1.73-.58,3,3,0,0,0,.86-1.53h1a4,4,0,0,1-1.17,2.17,3.49,3.49,0,0,1-2.43.77,3.86,3.86,0,0,1-1.69-.34,3.18,3.18,0,0,1-1.16-1,4,4,0,0,1-.66-1.39,6.07,6.07,0,0,1-.22-1.67,5.77,5.77,0,0,1,.22-1.6,4.2,4.2,0,0,1,.66-1.4,3.38,3.38,0,0,1,1.16-1,3.6,3.6,0,0,1,1.69-.38,3.47,3.47,0,0,1,1.7.4,3.39,3.39,0,0,1,1.14,1,4.44,4.44,0,0,1,.63,1.49,6.5,6.5,0,0,1,.16,1.7h-6.35A4.5,4.5,0,0,0,1063.71,653.09Zm5-3.08a3.22,3.22,0,0,0-.53-.94,2.45,2.45,0,0,0-.81-.65,2.28,2.28,0,0,0-1.09-.25,2.32,2.32,0,0,0-1.1.25,2.49,2.49,0,0,0-.82.65,3.38,3.38,0,0,0-.53.95,4.24,4.24,0,0,0-.27,1.09h5.35A4,4,0,0,0,1068.71,650Z" transform="translate(-926.98 -573.24)"/><path class="cls-6" d="M1077.61,655.82v-1.57h0a2.47,2.47,0,0,1-.48.74,2.79,2.79,0,0,1-.71.56,3.57,3.57,0,0,1-1.76.49,3.67,3.67,0,0,1-1.64-.34,3.35,3.35,0,0,1-1.16-1,4,4,0,0,1-.69-1.39,6.45,6.45,0,0,1,0-3.34,4,4,0,0,1,.69-1.39,3.49,3.49,0,0,1,1.16-1,3.67,3.67,0,0,1,1.64-.35,4,4,0,0,1,.91.11,3.12,3.12,0,0,1,.82.35,2.65,2.65,0,0,1,.68.57,2.33,2.33,0,0,1,.46.78h0v-4.74h1v11.43Zm-5.53-2.86a3.48,3.48,0,0,0,.48,1.13,2.71,2.71,0,0,0,.84.81,2.29,2.29,0,0,0,1.23.31,2.64,2.64,0,0,0,1.35-.31,2.71,2.71,0,0,0,.9-.81,3.31,3.31,0,0,0,.5-1.13,5.45,5.45,0,0,0,0-2.54,3.31,3.31,0,0,0-.5-1.13,2.71,2.71,0,0,0-.9-.81,2.64,2.64,0,0,0-1.35-.31,2.29,2.29,0,0,0-1.23.31,2.71,2.71,0,0,0-.84.81,3.48,3.48,0,0,0-.48,1.13,5.45,5.45,0,0,0,0,2.54Z" transform="translate(-926.98 -573.24)"/><path class="cls-6" d="M1085.14,647.56l2.12,7.07h0l2-7.07h1.14l2,7.07h0l2.11-7.07h1.07l-2.65,8.26h-1.11l-2-7h0l-2,7h-1.1l-2.66-8.26Z" transform="translate(-926.98 -573.24)"/><path class="cls-6" d="M1097.78,644.39V646h-1v-1.62Zm0,3.17v8.26h-1v-8.26Z" transform="translate(-926.98 -573.24)"/><path class="cls-6" d="M1103,647.56v.85h-1.68V654a1.76,1.76,0,0,0,.14.77c.09.19.31.29.68.32a8.43,8.43,0,0,0,.86-.05v.85h-.45l-.45,0a1.49,1.49,0,0,1-1.79-1.84v-5.65h-1.44v-.85h1.44v-2.48h1v2.48Z" transform="translate(-926.98 -573.24)"/><path class="cls-6" d="M1105.45,644.39V649h0a2.4,2.4,0,0,1,1-1.21,3,3,0,0,1,1.62-.46,4,4,0,0,1,1.45.23,2.26,2.26,0,0,1,.93.63,2.3,2.3,0,0,1,.5,1,6,6,0,0,1,.14,1.33v5.31h-1v-5.15a5.13,5.13,0,0,0-.09-1,2,2,0,0,0-.34-.79,1.64,1.64,0,0,0-.65-.53,2.33,2.33,0,0,0-1-.19,2.45,2.45,0,0,0-1.08.22,2.25,2.25,0,0,0-.8.59,2.69,2.69,0,0,0-.51.89,3.48,3.48,0,0,0-.2,1.13v4.82h-1V644.39Z" transform="translate(-926.98 -573.24)"/><path class="cls-6" d="M1114.07,644.39V646h-1v-1.62Zm0,3.17v8.26h-1v-8.26Z" transform="translate(-926.98 -573.24)"/><path class="cls-6" d="M1117,647.56V649h0a2.4,2.4,0,0,1,1-1.21,3,3,0,0,1,1.62-.46,4,4,0,0,1,1.45.23,2.26,2.26,0,0,1,.93.63,2.2,2.2,0,0,1,.5,1,5.41,5.41,0,0,1,.15,1.33v5.31h-1v-5.15a4.43,4.43,0,0,0-.1-1,1.88,1.88,0,0,0-.34-.79,1.68,1.68,0,0,0-.64-.53,2.38,2.38,0,0,0-1-.19,2.51,2.51,0,0,0-1.08.22,2.35,2.35,0,0,0-.8.59,2.69,2.69,0,0,0-.51.89,3.77,3.77,0,0,0-.2,1.13v4.82h-1v-8.26Z" transform="translate(-926.98 -573.24)"/><path class="cls-6" d="M949,669.09a3,3,0,0,0,.49,1,2.82,2.82,0,0,0,.84.77,2.79,2.79,0,0,0,3-.28,3,3,0,0,0,.87-1.53h1a4,4,0,0,1-1.18,2.17,3.47,3.47,0,0,1-2.42.77,3.8,3.8,0,0,1-1.69-.34,3.1,3.1,0,0,1-1.16-1,4.18,4.18,0,0,1-.67-1.39,6.48,6.48,0,0,1-.21-1.67,6.16,6.16,0,0,1,.21-1.6,4.43,4.43,0,0,1,.67-1.4,3.29,3.29,0,0,1,1.16-1,3.54,3.54,0,0,1,1.69-.38,3.43,3.43,0,0,1,1.69.4,3.52,3.52,0,0,1,1.15,1,4.44,4.44,0,0,1,.63,1.49,6.5,6.5,0,0,1,.16,1.7h-6.35A4.5,4.5,0,0,0,949,669.09Zm5-3.08a3.19,3.19,0,0,0-.52-.94,2.49,2.49,0,0,0-.82-.65,2.26,2.26,0,0,0-1.08-.25,2.33,2.33,0,0,0-1.11.25,2.59,2.59,0,0,0-.82.65,3.38,3.38,0,0,0-.53.95,4.67,4.67,0,0,0-.26,1.09h5.34A3.69,3.69,0,0,0,954,666Z" transform="translate(-926.98 -573.24)"/><path class="cls-6" d="M956.79,664.84a2.48,2.48,0,0,1,.7-.86,2.91,2.91,0,0,1,1-.5,5.34,5.34,0,0,1,1.31-.16,5.68,5.68,0,0,1,1.09.11,2.65,2.65,0,0,1,1,.39,2.07,2.07,0,0,1,.7.81,2.88,2.88,0,0,1,.28,1.35v4.38c0,.41.19.61.59.61a.87.87,0,0,0,.32-.06v.84a2.09,2.09,0,0,1-.32,0l-.34,0a1.56,1.56,0,0,1-.62-.11.72.72,0,0,1-.35-.29A1,1,0,0,1,962,671a3.45,3.45,0,0,1,0-.58h0a7.33,7.33,0,0,1-.56.71,2.56,2.56,0,0,1-.62.52,2.72,2.72,0,0,1-.78.32,4.64,4.64,0,0,1-1.05.11,4.1,4.1,0,0,1-1.08-.13,2.35,2.35,0,0,1-.88-.44,2,2,0,0,1-.6-.75,2.54,2.54,0,0,1-.21-1.08,2.19,2.19,0,0,1,.38-1.35,2.41,2.41,0,0,1,1-.74,5.78,5.78,0,0,1,1.42-.36l1.61-.2.56-.08a1.12,1.12,0,0,0,.4-.17.76.76,0,0,0,.25-.33,1.38,1.38,0,0,0,.09-.54,1.87,1.87,0,0,0-.17-.84,1.3,1.3,0,0,0-.46-.52,1.92,1.92,0,0,0-.69-.27,4.46,4.46,0,0,0-.84-.07,2.5,2.5,0,0,0-1.57.46,1.76,1.76,0,0,0-.64,1.46h-1A3.33,3.33,0,0,1,956.79,664.84Zm5,2.47a.56.56,0,0,1-.36.25,2.89,2.89,0,0,1-.48.11c-.43.08-.87.15-1.32.2a6.9,6.9,0,0,0-1.24.27,2.38,2.38,0,0,0-.92.5,1.21,1.21,0,0,0-.36.94,1.51,1.51,0,0,0,.15.68,1.57,1.57,0,0,0,.41.51,2,2,0,0,0,.59.33,2.26,2.26,0,0,0,.69.11,3.38,3.38,0,0,0,1.1-.18,2.51,2.51,0,0,0,.92-.51,2.37,2.37,0,0,0,.62-.81,2.42,2.42,0,0,0,.24-1.09v-1.31Z" transform="translate(-926.98 -573.24)"/><path class="cls-6" d="M970,664.7a2.23,2.23,0,0,0-1.57-.53,2.62,2.62,0,0,0-1.27.3,2.88,2.88,0,0,0-.9.8,3.69,3.69,0,0,0-.54,1.13,4.47,4.47,0,0,0,0,2.58,3.58,3.58,0,0,0,.54,1.13,2.88,2.88,0,0,0,.9.8,2.62,2.62,0,0,0,1.27.3,2.2,2.2,0,0,0,.88-.18,2.42,2.42,0,0,0,.74-.48,2.71,2.71,0,0,0,.52-.75,2.68,2.68,0,0,0,.26-.94h1a3.8,3.8,0,0,1-1.11,2.34,3.23,3.23,0,0,1-2.3.84,3.83,3.83,0,0,1-1.67-.34,3.48,3.48,0,0,1-1.23-.94,4,4,0,0,1-.75-1.38,5.62,5.62,0,0,1,0-3.38,4,4,0,0,1,.75-1.38,3.63,3.63,0,0,1,1.23-1,3.83,3.83,0,0,1,1.67-.35,3.62,3.62,0,0,1,2.25.71,3,3,0,0,1,1.09,2.12h-1A2.74,2.74,0,0,0,970,664.7Z" transform="translate(-926.98 -573.24)"/><path class="cls-6" d="M974.19,660.39V665h0a2.4,2.4,0,0,1,1-1.21,3,3,0,0,1,1.62-.46,4.08,4.08,0,0,1,1.45.23,2.26,2.26,0,0,1,.93.63,2.3,2.3,0,0,1,.5,1,6,6,0,0,1,.14,1.33v5.31h-1v-5.15a5.13,5.13,0,0,0-.09-1,2.18,2.18,0,0,0-.34-.79,1.64,1.64,0,0,0-.65-.53,2.33,2.33,0,0,0-1-.19,2.45,2.45,0,0,0-1.08.22,2.25,2.25,0,0,0-.8.59,2.69,2.69,0,0,0-.51.89,3.48,3.48,0,0,0-.2,1.13v4.82h-1V660.39Z" transform="translate(-926.98 -573.24)"/><path class="cls-6" d="M991,665.17a1.66,1.66,0,0,0-.48-.57,1.88,1.88,0,0,0-.68-.33,3.45,3.45,0,0,0-.81-.1,3.14,3.14,0,0,0-.68.07,2.17,2.17,0,0,0-.63.24,1.33,1.33,0,0,0-.47.44,1.19,1.19,0,0,0-.17.67.94.94,0,0,0,.16.57,1.45,1.45,0,0,0,.43.39,2.63,2.63,0,0,0,.56.27l.56.17,1.34.3a3.78,3.78,0,0,1,.86.23,2.79,2.79,0,0,1,.75.44,2.22,2.22,0,0,1,.54.67,2.33,2.33,0,0,1-.1,2.09,2.39,2.39,0,0,1-.78.77,3.1,3.1,0,0,1-1.06.42,5.18,5.18,0,0,1-1.17.13,3.8,3.8,0,0,1-2.36-.69,2.92,2.92,0,0,1-1-2.2h1a2,2,0,0,0,.74,1.54,2.7,2.7,0,0,0,1.69.52,4,4,0,0,0,.76-.08,2.38,2.38,0,0,0,.73-.27,1.73,1.73,0,0,0,.55-.49,1.24,1.24,0,0,0,.22-.73,1.07,1.07,0,0,0-.16-.61,1.24,1.24,0,0,0-.4-.42,2.93,2.93,0,0,0-.59-.28c-.22-.07-.44-.14-.66-.19l-1.3-.29a6.93,6.93,0,0,1-.91-.3,3,3,0,0,1-.73-.41,1.81,1.81,0,0,1-.49-.61,2.14,2.14,0,0,1-.17-.89,2,2,0,0,1,.28-1.07,2.18,2.18,0,0,1,.73-.72,3.55,3.55,0,0,1,1-.4,5.07,5.07,0,0,1,1.09-.13,4.28,4.28,0,0,1,1.16.16,2.7,2.7,0,0,1,.95.5,2.4,2.4,0,0,1,.64.83,3,3,0,0,1,.28,1.17h-1A2,2,0,0,0,991,665.17Z" transform="translate(-926.98 -573.24)"/><path class="cls-6" d="M994.86,663.56v1.57h0a2.69,2.69,0,0,1,1.15-1.34,3.44,3.44,0,0,1,1.79-.47,3.64,3.64,0,0,1,1.64.35,3.31,3.31,0,0,1,1.16,1,4,4,0,0,1,.69,1.39,6.18,6.18,0,0,1,0,3.34,4,4,0,0,1-.69,1.39,3.18,3.18,0,0,1-1.16,1,3.64,3.64,0,0,1-1.64.34,3.94,3.94,0,0,1-.89-.11,2.9,2.9,0,0,1-.83-.34,2.29,2.29,0,0,1-.68-.56,2.33,2.33,0,0,1-.46-.78h0v4.61h-1v-11.3Zm5.53,2.86a3.71,3.71,0,0,0-.48-1.13,2.71,2.71,0,0,0-.84-.81,2.33,2.33,0,0,0-1.24-.31,3.07,3.07,0,0,0-1.39.29,2.39,2.39,0,0,0-.89.77,3.07,3.07,0,0,0-.48,1.12,6.41,6.41,0,0,0-.13,1.34,5.44,5.44,0,0,0,.15,1.27,3.31,3.31,0,0,0,.5,1.13,2.55,2.55,0,0,0,2.24,1.12,2.33,2.33,0,0,0,1.24-.31,2.71,2.71,0,0,0,.84-.81,3.71,3.71,0,0,0,.48-1.13,5.45,5.45,0,0,0,0-2.54Z" transform="translate(-926.98 -573.24)"/><path class="cls-6" d="M1004,663.56v1.94h0a3.19,3.19,0,0,1,1.2-1.55,3.06,3.06,0,0,1,1.92-.5v1a3.11,3.11,0,0,0-1.24.18,2.78,2.78,0,0,0-1,.62,2.82,2.82,0,0,0-.63,1,3.18,3.18,0,0,0-.23,1.21v4.4h-1v-8.26Z" transform="translate(-926.98 -573.24)"/><path class="cls-6" d="M1009.18,660.39V662h-1v-1.62Zm0,3.17v8.26h-1v-8.26Z" transform="translate(-926.98 -573.24)"/><path class="cls-6" d="M1012.11,663.56V665h0a2.4,2.4,0,0,1,1-1.21,3,3,0,0,1,1.62-.46,4.08,4.08,0,0,1,1.45.23,2.26,2.26,0,0,1,.93.63,2.3,2.3,0,0,1,.5,1,6,6,0,0,1,.14,1.33v5.31h-1v-5.15a5.13,5.13,0,0,0-.09-1,2.18,2.18,0,0,0-.34-.79,1.64,1.64,0,0,0-.65-.53,2.33,2.33,0,0,0-1-.19,2.45,2.45,0,0,0-1.08.22,2.25,2.25,0,0,0-.8.59,2.69,2.69,0,0,0-.51.89,3.48,3.48,0,0,0-.2,1.13v4.82h-1v-8.26Z" transform="translate(-926.98 -573.24)"/><path class="cls-6" d="M1023,663.56v.85h-1.68V670a1.78,1.78,0,0,0,.13.77c.09.19.32.29.68.32a8.46,8.46,0,0,0,.87-.05v.85h-.45l-.45,0a1.48,1.48,0,0,1-1.79-1.84v-5.65h-1.44v-.85h1.44v-2.48h1v2.48Z" transform="translate(-926.98 -573.24)"/><path class="cls-6" d="M1025,670.12h1.35v1.7H1025Z" transform="translate(-926.98 -573.24)"/><path class="cls-6" d="M1037.48,660.39a5.35,5.35,0,0,1,3.93,1.47,7.49,7.49,0,0,1,0,8.49,5.31,5.31,0,0,1-3.93,1.47h-4V660.39Zm-.54,10.5a7.73,7.73,0,0,0,2.12-.26,3.24,3.24,0,0,0,2.31-2.33,9.06,9.06,0,0,0,0-4.39,3.38,3.38,0,0,0-.85-1.48,3.25,3.25,0,0,0-1.46-.84,7.33,7.33,0,0,0-2.12-.27h-2.32v9.57Z" transform="translate(-926.98 -573.24)"/><path class="cls-6" d="M1044.51,664.84a2.35,2.35,0,0,1,.69-.86,3,3,0,0,1,1-.5,5.28,5.28,0,0,1,1.31-.16,5.65,5.65,0,0,1,1.08.11,2.65,2.65,0,0,1,1,.39,2.07,2.07,0,0,1,.7.81,2.76,2.76,0,0,1,.28,1.35v4.38c0,.41.19.61.59.61a.83.83,0,0,0,.32-.06v.84a2.19,2.19,0,0,1-.31,0l-.35,0a1.48,1.48,0,0,1-.61-.11.7.7,0,0,1-.36-.29,1.1,1.1,0,0,1-.17-.46,3.45,3.45,0,0,1,0-.58h0a7.31,7.31,0,0,1-.55.71,2.81,2.81,0,0,1-.63.52,2.72,2.72,0,0,1-.78.32,4.64,4.64,0,0,1-1.05.11,4.21,4.21,0,0,1-1.08-.13,2.35,2.35,0,0,1-.88-.44,1.92,1.92,0,0,1-.59-.75,2.39,2.39,0,0,1-.22-1.08,2.13,2.13,0,0,1,.39-1.35,2.32,2.32,0,0,1,1-.74,5.9,5.9,0,0,1,1.42-.36l1.61-.2.56-.08a1.05,1.05,0,0,0,.4-.17.76.76,0,0,0,.25-.33,1.38,1.38,0,0,0,.09-.54,1.87,1.87,0,0,0-.17-.84,1.3,1.3,0,0,0-.46-.52,1.92,1.92,0,0,0-.69-.27,4.46,4.46,0,0,0-.84-.07,2.52,2.52,0,0,0-1.57.46,1.79,1.79,0,0,0-.64,1.46h-1A3.53,3.53,0,0,1,1044.51,664.84Zm5,2.47a.61.61,0,0,1-.37.25,2.68,2.68,0,0,1-.48.11c-.43.08-.87.15-1.32.2a7.1,7.1,0,0,0-1.24.27,2.46,2.46,0,0,0-.92.5,1.21,1.21,0,0,0-.36.94,1.51,1.51,0,0,0,.15.68,1.57,1.57,0,0,0,.41.51,2,2,0,0,0,.59.33,2.31,2.31,0,0,0,.69.11,3.38,3.38,0,0,0,1.1-.18,2.43,2.43,0,0,0,.92-.51,2.53,2.53,0,0,0,.63-.81,2.56,2.56,0,0,0,.23-1.09v-1.31Z" transform="translate(-926.98 -573.24)"/><path class="cls-6" d="M1053.63,660.39V662h-1v-1.62Zm0,3.17v8.26h-1v-8.26Z" transform="translate(-926.98 -573.24)"/><path class="cls-6" d="M1056.59,660.39v11.43h-1V660.39Z" transform="translate(-926.98 -573.24)"/><path class="cls-6" d="M1058.67,663.56l2.72,7,2.54-7h1l-3.59,9.51a7.27,7.27,0,0,1-.41.87,1.86,1.86,0,0,1-.43.54,1.28,1.28,0,0,1-.54.29,2.91,2.91,0,0,1-.79.09l-.47,0a.9.9,0,0,1-.3-.05v-.85l.34.06.35,0a1.26,1.26,0,0,0,.55-.1,1.22,1.22,0,0,0,.38-.26,1.82,1.82,0,0,0,.27-.41l.24-.53.35-.92-3.3-8.23Z" transform="translate(-926.98 -573.24)"/><path class="cls-6" d="M1075.13,665.17a1.64,1.64,0,0,0-.47-.57,2,2,0,0,0-.68-.33,3.61,3.61,0,0,0-.82-.1,3.21,3.21,0,0,0-.68.07,2.17,2.17,0,0,0-.63.24,1.3,1.3,0,0,0-.46.44,1.2,1.2,0,0,0-.18.67.94.94,0,0,0,.17.57,1.31,1.31,0,0,0,.42.39,2.63,2.63,0,0,0,.56.27l.56.17,1.35.3a3.84,3.84,0,0,1,.85.23,2.7,2.7,0,0,1,.76.44,2.35,2.35,0,0,1,.53.67,2.29,2.29,0,0,1-.09,2.09,2.6,2.6,0,0,1-.78.77,3.15,3.15,0,0,1-1.07.42,5.16,5.16,0,0,1-1.16.13,3.78,3.78,0,0,1-2.36-.69,2.86,2.86,0,0,1-1-2.2h1a2,2,0,0,0,.75,1.54,2.65,2.65,0,0,0,1.68.52,4.2,4.2,0,0,0,.77-.08,2.23,2.23,0,0,0,.72-.27,1.63,1.63,0,0,0,.55-.49,1.17,1.17,0,0,0,.22-.73,1.15,1.15,0,0,0-.15-.61,1.27,1.27,0,0,0-.41-.42,2.84,2.84,0,0,0-.58-.28c-.22-.07-.44-.14-.67-.19l-1.29-.29a7.09,7.09,0,0,1-.92-.3,3.14,3.14,0,0,1-.72-.41,1.81,1.81,0,0,1-.49-.61,2,2,0,0,1-.18-.89,2.05,2.05,0,0,1,.28-1.07,2.18,2.18,0,0,1,.73-.72,3.55,3.55,0,0,1,1-.4,5.16,5.16,0,0,1,1.1-.13,4.33,4.33,0,0,1,1.16.16,2.66,2.66,0,0,1,.94.5,2.43,2.43,0,0,1,.65.83,3,3,0,0,1,.27,1.17h-1A1.86,1.86,0,0,0,1075.13,665.17Z" transform="translate(-926.98 -573.24)"/><path class="cls-6" d="M1081.36,663.56v.85h-1.69V670a1.76,1.76,0,0,0,.14.77c.09.19.32.29.68.32a8.46,8.46,0,0,0,.87-.05v.85h-.45l-.45,0a2,2,0,0,1-1.41-.39,2,2,0,0,1-.38-1.45v-5.65h-1.44v-.85h1.44v-2.48h1v2.48Z" transform="translate(-926.98 -573.24)"/><path class="cls-6" d="M1083,664.84a2.28,2.28,0,0,1,.7-.86,2.83,2.83,0,0,1,1-.5,5.28,5.28,0,0,1,1.31-.16,5.76,5.76,0,0,1,1.09.11,2.61,2.61,0,0,1,1,.39,2.09,2.09,0,0,1,.71.81,2.89,2.89,0,0,1,.27,1.35v4.38a.53.53,0,0,0,.59.61.79.79,0,0,0,.32-.06v.84a2.19,2.19,0,0,1-.31,0l-.34,0a1.5,1.5,0,0,1-.62-.11.7.7,0,0,1-.36-.29,1.1,1.1,0,0,1-.17-.46,3.45,3.45,0,0,1,0-.58h0a7.31,7.31,0,0,1-.55.71,2.81,2.81,0,0,1-.63.52,2.72,2.72,0,0,1-.78.32,4.51,4.51,0,0,1-1,.11,4.21,4.21,0,0,1-1.08-.13,2.43,2.43,0,0,1-.88-.44,1.92,1.92,0,0,1-.59-.75,2.53,2.53,0,0,1-.22-1.08,2.13,2.13,0,0,1,.39-1.35,2.32,2.32,0,0,1,1-.74,5.87,5.87,0,0,1,1.43-.36l1.61-.2.56-.08a1.12,1.12,0,0,0,.4-.17.83.83,0,0,0,.24-.33,1.38,1.38,0,0,0,.09-.54,1.75,1.75,0,0,0-.17-.84,1.23,1.23,0,0,0-.46-.52,1.92,1.92,0,0,0-.69-.27,4.46,4.46,0,0,0-.84-.07,2.52,2.52,0,0,0-1.57.46,1.82,1.82,0,0,0-.64,1.46h-1A3.33,3.33,0,0,1,1083,664.84Zm5,2.47a.58.58,0,0,1-.37.25,2.68,2.68,0,0,1-.48.11c-.42.08-.87.15-1.32.2a7.1,7.1,0,0,0-1.24.27,2.46,2.46,0,0,0-.92.5,1.21,1.21,0,0,0-.36.94,1.51,1.51,0,0,0,.15.68,1.57,1.57,0,0,0,.41.51,2,2,0,0,0,.59.33,2.37,2.37,0,0,0,.69.11,3.44,3.44,0,0,0,1.11-.18,2.59,2.59,0,0,0,.92-.51,2.37,2.37,0,0,0,.62-.81,2.56,2.56,0,0,0,.23-1.09v-1.31Z" transform="translate(-926.98 -573.24)"/><path class="cls-6" d="M1092.11,663.56V665h0a2.4,2.4,0,0,1,1-1.21,3,3,0,0,1,1.62-.46,4,4,0,0,1,1.45.23,2.26,2.26,0,0,1,.93.63,2.3,2.3,0,0,1,.5,1,6,6,0,0,1,.14,1.33v5.31h-1v-5.15a5.13,5.13,0,0,0-.09-1,2,2,0,0,0-.34-.79,1.64,1.64,0,0,0-.65-.53,2.33,2.33,0,0,0-1-.19,2.45,2.45,0,0,0-1.08.22,2.25,2.25,0,0,0-.8.59,2.69,2.69,0,0,0-.51.89,3.48,3.48,0,0,0-.2,1.13v4.82h-1v-8.26Z" transform="translate(-926.98 -573.24)"/><path class="cls-6" d="M1106,671.82v-1.57h0a2.44,2.44,0,0,1-.47.74,3.19,3.19,0,0,1-.71.56,3.26,3.26,0,0,1-.86.36,3.11,3.11,0,0,1-.9.13,3.64,3.64,0,0,1-1.64-.34,3.26,3.26,0,0,1-1.16-1,4,4,0,0,1-.69-1.39,6.45,6.45,0,0,1,0-3.34,4,4,0,0,1,.69-1.39,3.4,3.4,0,0,1,1.16-1,3.64,3.64,0,0,1,1.64-.35,3.82,3.82,0,0,1,.9.11,3,3,0,0,1,.82.35,2.49,2.49,0,0,1,.68.57,2.33,2.33,0,0,1,.46.78h0v-4.74h1v11.43Zm-5.53-2.86a3.72,3.72,0,0,0,.49,1.13,2.57,2.57,0,0,0,.83.81,2.35,2.35,0,0,0,1.24.31,2.59,2.59,0,0,0,2.25-1.12,3.49,3.49,0,0,0,.49-1.13,5.45,5.45,0,0,0,0-2.54,3.49,3.49,0,0,0-.49-1.13,2.59,2.59,0,0,0-2.25-1.12,2.35,2.35,0,0,0-1.24.31,2.57,2.57,0,0,0-.83.81,3.72,3.72,0,0,0-.49,1.13,5.45,5.45,0,0,0,0,2.54Z" transform="translate(-926.98 -573.24)"/><path class="cls-6" d="M1108.89,667h4v.93h-4Z" transform="translate(-926.98 -573.24)"/><path class="cls-6" d="M1120.57,671.82v-1.49h0a2.92,2.92,0,0,1-1.16,1.27,3.26,3.26,0,0,1-1.69.44,3.81,3.81,0,0,1-1.34-.21,2.3,2.3,0,0,1-.89-.62,2.54,2.54,0,0,1-.51-1,5.16,5.16,0,0,1-.16-1.31v-5.36h1v5.38a2.68,2.68,0,0,0,.52,1.69,2.6,2.6,0,0,0,2.81.3,2.37,2.37,0,0,0,.77-.74,3.56,3.56,0,0,0,.45-1.07,5.57,5.57,0,0,0,.14-1.22v-4.34h1v8.26Z" transform="translate(-926.98 -573.24)"/><path class="cls-6" d="M1124.33,663.56v1.57h0a2.74,2.74,0,0,1,1.15-1.34,3.45,3.45,0,0,1,1.8-.47,3.67,3.67,0,0,1,1.64.35,3.49,3.49,0,0,1,1.16,1,4,4,0,0,1,.68,1.39,6.18,6.18,0,0,1,0,3.34,4,4,0,0,1-.68,1.39,3.35,3.35,0,0,1-1.16,1,3.67,3.67,0,0,1-1.64.34,4,4,0,0,1-.9-.11,2.9,2.9,0,0,1-.83-.34,2.42,2.42,0,0,1-.68-.56,2.33,2.33,0,0,1-.46-.78h0v4.61h-1v-11.3Zm5.53,2.86a3.48,3.48,0,0,0-.48-1.13,2.71,2.71,0,0,0-.84-.81,2.29,2.29,0,0,0-1.23-.31,3.09,3.09,0,0,0-1.4.29,2.39,2.39,0,0,0-.89.77,2.89,2.89,0,0,0-.47,1.12,6.4,6.4,0,0,0-.14,1.34,5.44,5.44,0,0,0,.15,1.27,3.31,3.31,0,0,0,.5,1.13,2.77,2.77,0,0,0,.89.81,2.71,2.71,0,0,0,1.36.31,2.29,2.29,0,0,0,1.23-.31,2.71,2.71,0,0,0,.84-.81,3.48,3.48,0,0,0,.48-1.13,5.45,5.45,0,0,0,0-2.54Z" transform="translate(-926.98 -573.24)"/><path class="cls-6" d="M949.44,689.11a13,13,0,0,1-.71-1.74,12.08,12.08,0,0,1-.44-1.82,13.12,13.12,0,0,1,.45-5.9,15,15,0,0,1,1.66-3.5h.8a13,13,0,0,0-1.57,3.68,17.18,17.18,0,0,0-.48,4.1,12.18,12.18,0,0,0,.14,1.78,14.78,14.78,0,0,0,.42,1.81,13.08,13.08,0,0,0,.65,1.75,11.93,11.93,0,0,0,.84,1.59h-.8C950,690.27,949.73,689.69,949.44,689.11Z" transform="translate(-926.98 -573.24)"/><path class="cls-6" d="M956.89,681.17a1.64,1.64,0,0,0-.47-.57,2,2,0,0,0-.68-.33,3.61,3.61,0,0,0-.82-.1,3.21,3.21,0,0,0-.68.07,2.17,2.17,0,0,0-.63.24,1.3,1.3,0,0,0-.46.44,1.2,1.2,0,0,0-.18.67.94.94,0,0,0,.17.57,1.31,1.31,0,0,0,.42.39,2.63,2.63,0,0,0,.56.27l.56.17,1.35.3a3.7,3.7,0,0,1,.85.23,2.7,2.7,0,0,1,.76.44,2.35,2.35,0,0,1,.53.67,2.29,2.29,0,0,1-.09,2.09,2.6,2.6,0,0,1-.78.77,3.1,3.1,0,0,1-1.06.42,5.31,5.31,0,0,1-1.17.13,3.78,3.78,0,0,1-2.36-.69,2.86,2.86,0,0,1-1-2.2h1a2,2,0,0,0,.75,1.54,2.66,2.66,0,0,0,1.69.52,4.18,4.18,0,0,0,.76-.08,2.23,2.23,0,0,0,.72-.27,1.77,1.77,0,0,0,.56-.49,1.23,1.23,0,0,0,.21-.73,1.15,1.15,0,0,0-.15-.61,1.27,1.27,0,0,0-.41-.42,2.84,2.84,0,0,0-.58-.28c-.22-.07-.44-.14-.67-.19l-1.29-.29a6.47,6.47,0,0,1-.91-.3,3,3,0,0,1-.73-.41,1.81,1.81,0,0,1-.49-.61,2,2,0,0,1-.18-.89,2.05,2.05,0,0,1,.28-1.07,2.18,2.18,0,0,1,.73-.72,3.55,3.55,0,0,1,1-.4,5.24,5.24,0,0,1,1.1-.13,4.33,4.33,0,0,1,1.16.16,2.66,2.66,0,0,1,.94.5,2.43,2.43,0,0,1,.65.83,3,3,0,0,1,.27,1.17h-1A1.86,1.86,0,0,0,956.89,681.17Z" transform="translate(-926.98 -573.24)"/><path class="cls-6" d="M964.89,680.7a2.19,2.19,0,0,0-1.57-.53,2.55,2.55,0,0,0-1.26.3,2.78,2.78,0,0,0-.9.8,3.71,3.71,0,0,0-.55,1.13,4.71,4.71,0,0,0,0,2.58,3.6,3.6,0,0,0,.55,1.13,2.78,2.78,0,0,0,.9.8,2.55,2.55,0,0,0,1.26.3,2.16,2.16,0,0,0,.88-.18,2.3,2.3,0,0,0,.74-.48,2.74,2.74,0,0,0,.53-.75,2.67,2.67,0,0,0,.25-.94h1a3.85,3.85,0,0,1-1.1,2.34,3.25,3.25,0,0,1-2.31.84,3.86,3.86,0,0,1-1.67-.34,3.54,3.54,0,0,1-1.22-.94,4.19,4.19,0,0,1-.76-1.38,5.84,5.84,0,0,1,0-3.38,4.19,4.19,0,0,1,.76-1.38,3.69,3.69,0,0,1,1.22-1,3.87,3.87,0,0,1,1.67-.35,3.58,3.58,0,0,1,2.25.71,3,3,0,0,1,1.1,2.12h-1A2.82,2.82,0,0,0,964.89,680.7Z" transform="translate(-926.98 -573.24)"/><path class="cls-6" d="M969.07,679.56v1.94h0a3,3,0,0,1,3.12-2v1a3.13,3.13,0,0,0-1.25.18,2.88,2.88,0,0,0-1,.62,2.82,2.82,0,0,0-.63,1,3.18,3.18,0,0,0-.22,1.21v4.4h-1v-8.26Z" transform="translate(-926.98 -573.24)"/><path class="cls-6" d="M978.94,687.82v-1.49h0a2.92,2.92,0,0,1-1.16,1.27,3.26,3.26,0,0,1-1.69.44,3.81,3.81,0,0,1-1.34-.21,2.23,2.23,0,0,1-.89-.62,2.54,2.54,0,0,1-.51-1,5.16,5.16,0,0,1-.16-1.31v-5.36h1v5.38a2.68,2.68,0,0,0,.52,1.69,2.6,2.6,0,0,0,2.81.3,2.47,2.47,0,0,0,.77-.74,3.3,3.3,0,0,0,.44-1.07,5,5,0,0,0,.15-1.22v-4.34h1v8.26Z" transform="translate(-926.98 -573.24)"/><path class="cls-6" d="M982.7,679.56V681h0a3.13,3.13,0,0,1,1-1.2,3,3,0,0,1,1.66-.43,2.88,2.88,0,0,1,1.48.4,2,2,0,0,1,.89,1.22,2.51,2.51,0,0,1,1.09-1.22,3.18,3.18,0,0,1,1.53-.4c1.83,0,2.74,1,2.74,2.9v5.6h-1v-5.55a2.4,2.4,0,0,0-.43-1.56,1.86,1.86,0,0,0-1.52-.54,2.12,2.12,0,0,0-1.09.25,1.82,1.82,0,0,0-.69.66,2.93,2.93,0,0,0-.36.95,5.83,5.83,0,0,0-.1,1.12v4.67h-1v-5.6a3.35,3.35,0,0,0-.09-.79,1.8,1.8,0,0,0-.29-.66,1.35,1.35,0,0,0-.53-.44,1.88,1.88,0,0,0-.82-.16,2.59,2.59,0,0,0-1.11.23,2.19,2.19,0,0,0-.77.64,3,3,0,0,0-.44,1,5.09,5.09,0,0,0-.14,1.21v4.61h-1v-8.26Z" transform="translate(-926.98 -573.24)"/><path class="cls-6" d="M995.88,677.9a14.58,14.58,0,0,1,.71,1.75,13.57,13.57,0,0,1,.44,1.83,12.66,12.66,0,0,1,.15,2,12.53,12.53,0,0,1-.6,3.9,14.89,14.89,0,0,1-1.66,3.49h-.78a13.13,13.13,0,0,0,1.54-3.67,16.54,16.54,0,0,0,.49-4.09,10.9,10.9,0,0,0-.15-1.79,12.4,12.4,0,0,0-.43-1.8,15.08,15.08,0,0,0-.64-1.74q-.37-.84-.81-1.62h.78C995.27,676.74,995.59,677.32,995.88,677.9Z" transform="translate(-926.98 -573.24)"/><path class="cls-6" d="M1004.33,679.56V681h0a3.07,3.07,0,0,1,1-1.2,3,3,0,0,1,1.65-.43,2.85,2.85,0,0,1,1.48.4,2,2,0,0,1,.89,1.22,2.56,2.56,0,0,1,1.09-1.22,3.18,3.18,0,0,1,1.53-.4c1.83,0,2.74,1,2.74,2.9v5.6h-1v-5.55a2.4,2.4,0,0,0-.43-1.56,1.84,1.84,0,0,0-1.52-.54,2.12,2.12,0,0,0-1.09.25,1.9,1.9,0,0,0-.69.66,2.93,2.93,0,0,0-.36.95,5.83,5.83,0,0,0-.1,1.12v4.67h-1v-5.6a3.35,3.35,0,0,0-.09-.79,1.78,1.78,0,0,0-.28-.66,1.46,1.46,0,0,0-.54-.44,1.85,1.85,0,0,0-.82-.16,2.59,2.59,0,0,0-1.11.23,2.19,2.19,0,0,0-.77.64,3,3,0,0,0-.44,1,5.09,5.09,0,0,0-.14,1.21v4.61h-1v-8.26Z" transform="translate(-926.98 -573.24)"/><path class="cls-6" d="M1017.47,685.09a3.38,3.38,0,0,0,.49,1,3,3,0,0,0,.85.77,2.39,2.39,0,0,0,1.23.3,2.43,2.43,0,0,0,1.73-.58,3,3,0,0,0,.86-1.53h1a4,4,0,0,1-1.17,2.17,3.48,3.48,0,0,1-2.43.77,3.86,3.86,0,0,1-1.69-.34,3.18,3.18,0,0,1-1.16-1,4.16,4.16,0,0,1-.66-1.39,6.48,6.48,0,0,1-.22-1.67,6.17,6.17,0,0,1,.22-1.6,4.41,4.41,0,0,1,.66-1.4,3.38,3.38,0,0,1,1.16-1,3.6,3.6,0,0,1,1.69-.38,3.47,3.47,0,0,1,1.7.4,3.39,3.39,0,0,1,1.14,1,4.07,4.07,0,0,1,.63,1.49,6.1,6.1,0,0,1,.16,1.7h-6.35A4.5,4.5,0,0,0,1017.47,685.09Zm5-3.08a3.44,3.44,0,0,0-.52-.94,2.59,2.59,0,0,0-.82-.65,2.28,2.28,0,0,0-1.09-.25,2.32,2.32,0,0,0-1.1.25,2.59,2.59,0,0,0-.82.65,3.38,3.38,0,0,0-.53.95,4.7,4.7,0,0,0-.27,1.09h5.35A3.69,3.69,0,0,0,1022.47,682Z" transform="translate(-926.98 -573.24)"/><path class="cls-6" d="M1025.78,685.09a3,3,0,0,0,.49,1,2.82,2.82,0,0,0,.84.77,2.45,2.45,0,0,0,1.24.3,2.4,2.4,0,0,0,1.72-.58,3,3,0,0,0,.87-1.53h1a4,4,0,0,1-1.18,2.17,3.47,3.47,0,0,1-2.42.77,3.83,3.83,0,0,1-1.69-.34,3.1,3.1,0,0,1-1.16-1,4.18,4.18,0,0,1-.67-1.39,6.48,6.48,0,0,1-.21-1.67,6.16,6.16,0,0,1,.21-1.6,4.43,4.43,0,0,1,.67-1.4,3.29,3.29,0,0,1,1.16-1,3.57,3.57,0,0,1,1.69-.38,3.43,3.43,0,0,1,1.69.4,3.52,3.52,0,0,1,1.15,1,4.44,4.44,0,0,1,.63,1.49,6.5,6.5,0,0,1,.16,1.7h-6.35A4.5,4.5,0,0,0,1025.78,685.09Zm5-3.08a3.19,3.19,0,0,0-.52-.94,2.49,2.49,0,0,0-.82-.65,2.26,2.26,0,0,0-1.08-.25,2.33,2.33,0,0,0-1.11.25,2.45,2.45,0,0,0-.81.65,3.17,3.17,0,0,0-.54.95,4.67,4.67,0,0,0-.26,1.09H1031A3.69,3.69,0,0,0,1030.77,682Z" transform="translate(-926.98 -573.24)"/><path class="cls-6" d="M1036.62,679.56v.85h-1.68V686a1.78,1.78,0,0,0,.13.77c.09.19.32.29.68.32a8.46,8.46,0,0,0,.87-.05v.85h-.45l-.45,0a1.48,1.48,0,0,1-1.79-1.84v-5.65h-1.44v-.85h1.44v-2.48h1v2.48Z" transform="translate(-926.98 -573.24)"/><path class="cls-6" d="M1039.1,676.39V678h-1v-1.62Zm0,3.17v8.26h-1v-8.26Z" transform="translate(-926.98 -573.24)"/><path class="cls-6" d="M1042,679.56V681h0a2.4,2.4,0,0,1,1-1.21,3,3,0,0,1,1.62-.46,4.08,4.08,0,0,1,1.45.23,2.21,2.21,0,0,1,1.43,1.63,6,6,0,0,1,.14,1.33v5.31h-1v-5.15a5.13,5.13,0,0,0-.09-1,2.18,2.18,0,0,0-.34-.79,1.64,1.64,0,0,0-.65-.53,2.33,2.33,0,0,0-1-.19,2.45,2.45,0,0,0-1.08.22,2.25,2.25,0,0,0-.8.59,2.69,2.69,0,0,0-.51.89,3.48,3.48,0,0,0-.2,1.13v4.82h-1v-8.26Z" transform="translate(-926.98 -573.24)"/><path class="cls-6" d="M1056.4,688.79a3.08,3.08,0,0,1-.63,1.25,2.84,2.84,0,0,1-1.13.79,4.7,4.7,0,0,1-1.7.27,5,5,0,0,1-1.22-.15,3.34,3.34,0,0,1-1.06-.44,2.8,2.8,0,0,1-.79-.78,2.36,2.36,0,0,1-.36-1.13h1a1.83,1.83,0,0,0,.31.78,1.9,1.9,0,0,0,.56.5,2.46,2.46,0,0,0,.73.28,3.75,3.75,0,0,0,.82.09,2.43,2.43,0,0,0,2-.8,3.71,3.71,0,0,0,.62-2.3V686h0a2.94,2.94,0,0,1-1,1.23,2.75,2.75,0,0,1-1.59.46,4,4,0,0,1-1.7-.33,3.06,3.06,0,0,1-1.16-.9,3.7,3.7,0,0,1-.66-1.35,6.34,6.34,0,0,1-.21-1.66,5.07,5.07,0,0,1,.25-1.61,3.75,3.75,0,0,1,.72-1.32,3.33,3.33,0,0,1,1.16-.9,3.72,3.72,0,0,1,1.6-.33,3,3,0,0,1,.87.13,3,3,0,0,1,.74.36,2.58,2.58,0,0,1,.6.54,2.32,2.32,0,0,1,.41.64h0v-1.43h1v7.59A6.41,6.41,0,0,1,1056.4,688.79Zm-2.31-2.2a2.53,2.53,0,0,0,.83-.73,3.09,3.09,0,0,0,.5-1.05,4.13,4.13,0,0,0,.17-1.22,5.55,5.55,0,0,0-.14-1.21,3.77,3.77,0,0,0-.46-1.11,2.64,2.64,0,0,0-.83-.8,2.32,2.32,0,0,0-1.22-.3,2.39,2.39,0,0,0-1.23.3,2.42,2.42,0,0,0-.85.77,3.14,3.14,0,0,0-.49,1.1,5.28,5.28,0,0,0-.15,1.25,4.49,4.49,0,0,0,.16,1.22,3.07,3.07,0,0,0,.49,1.05,2.6,2.6,0,0,0,.85.73,2.47,2.47,0,0,0,1.22.28A2.28,2.28,0,0,0,1054.09,686.59Z" transform="translate(-926.98 -573.24)"/><path class="cls-6" d="M1063.27,681.17a1.53,1.53,0,0,0-.47-.57,2,2,0,0,0-.68-.33,3.61,3.61,0,0,0-.82-.1,3.21,3.21,0,0,0-.68.07,2.28,2.28,0,0,0-.63.24,1.38,1.38,0,0,0-.46.44,1.2,1.2,0,0,0-.18.67.94.94,0,0,0,.17.57,1.31,1.31,0,0,0,.42.39,2.89,2.89,0,0,0,.56.27l.56.17,1.35.3a3.7,3.7,0,0,1,.85.23,2.7,2.7,0,0,1,.76.44,2.19,2.19,0,0,1,.53.67,2.29,2.29,0,0,1-.09,2.09,2.49,2.49,0,0,1-.78.77,3.1,3.1,0,0,1-1.06.42,5.31,5.31,0,0,1-1.17.13,3.78,3.78,0,0,1-2.36-.69,2.89,2.89,0,0,1-1-2.2h1a2,2,0,0,0,.75,1.54,2.66,2.66,0,0,0,1.69.52,4.09,4.09,0,0,0,.76-.08,2.23,2.23,0,0,0,.72-.27,1.77,1.77,0,0,0,.56-.49,1.23,1.23,0,0,0,.21-.73,1.15,1.15,0,0,0-.15-.61,1.27,1.27,0,0,0-.41-.42,2.84,2.84,0,0,0-.58-.28c-.22-.07-.44-.14-.67-.19l-1.29-.29a6.47,6.47,0,0,1-.91-.3,3,3,0,0,1-.73-.41,1.81,1.81,0,0,1-.49-.61,2,2,0,0,1-.18-.89,2.05,2.05,0,0,1,.28-1.07,2.18,2.18,0,0,1,.73-.72,3.55,3.55,0,0,1,1-.4,5.24,5.24,0,0,1,1.1-.13,4.33,4.33,0,0,1,1.16.16,2.58,2.58,0,0,1,.94.5,2.43,2.43,0,0,1,.65.83,3,3,0,0,1,.27,1.17h-1A1.86,1.86,0,0,0,1063.27,681.17Z" transform="translate(-926.98 -573.24)"/><path class="cls-6" d="M1070.87,680.84a2.28,2.28,0,0,1,.7-.86,2.91,2.91,0,0,1,1-.5,5.28,5.28,0,0,1,1.31-.16,5.76,5.76,0,0,1,1.09.11,2.72,2.72,0,0,1,1,.39,2.15,2.15,0,0,1,.7.81A2.89,2.89,0,0,1,1077,682v4.38a.53.53,0,0,0,.59.61.79.79,0,0,0,.32-.06v.84a2,2,0,0,1-.31,0l-.34,0a1.53,1.53,0,0,1-.62-.11.79.79,0,0,1-.36-.29,1.26,1.26,0,0,1-.17-.46,5,5,0,0,1,0-.58h0a6,6,0,0,1-.55.71,3,3,0,0,1-.62.52,2.67,2.67,0,0,1-.79.32,4.51,4.51,0,0,1-1,.11,4.21,4.21,0,0,1-1.08-.13,2.43,2.43,0,0,1-.88-.44,2,2,0,0,1-.59-.75,2.54,2.54,0,0,1-.21-1.08,2.12,2.12,0,0,1,.38-1.35,2.35,2.35,0,0,1,1-.74,5.78,5.78,0,0,1,1.42-.36l1.61-.2.56-.08a1.12,1.12,0,0,0,.4-.17.85.85,0,0,0,.25-.33,1.4,1.4,0,0,0,.08-.54,1.88,1.88,0,0,0-.16-.84,1.32,1.32,0,0,0-.47-.52,1.85,1.85,0,0,0-.69-.27,4.46,4.46,0,0,0-.84-.07,2.47,2.47,0,0,0-1.56.46,1.76,1.76,0,0,0-.64,1.46h-1A3.33,3.33,0,0,1,1070.87,680.84Zm5,2.47a.56.56,0,0,1-.37.25,2.68,2.68,0,0,1-.48.11c-.42.08-.86.15-1.32.2a7.31,7.31,0,0,0-1.24.27,2.46,2.46,0,0,0-.92.5,1.21,1.21,0,0,0-.36.94,1.39,1.39,0,0,0,.16.68,1.54,1.54,0,0,0,.4.51,2.05,2.05,0,0,0,.6.33,2.25,2.25,0,0,0,.68.11,3.4,3.4,0,0,0,1.11-.18,2.51,2.51,0,0,0,.92-.51,2.37,2.37,0,0,0,.62-.81,2.42,2.42,0,0,0,.23-1.09v-1.31Z" transform="translate(-926.98 -573.24)"/><path class="cls-6" d="M1080,676.39v11.43h-1V676.39Z" transform="translate(-926.98 -573.24)"/><path class="cls-6" d="M1083,676.39v11.43h-1V676.39Z" transform="translate(-926.98 -573.24)"/><path class="cls-6" d="M1090.05,679.67a3.69,3.69,0,0,1,1.22,1A4,4,0,0,1,1092,682a5.62,5.62,0,0,1,0,3.38,4,4,0,0,1-.75,1.38,3.54,3.54,0,0,1-1.22.94,4.3,4.3,0,0,1-3.35,0,3.54,3.54,0,0,1-1.22-.94,4,4,0,0,1-.75-1.38,5.62,5.62,0,0,1,0-3.38,4,4,0,0,1,.75-1.38,3.69,3.69,0,0,1,1.22-1,4.18,4.18,0,0,1,3.35,0Zm-2.94.8a2.88,2.88,0,0,0-.9.8,4,4,0,0,0-.55,1.13,4.71,4.71,0,0,0,0,2.58,3.83,3.83,0,0,0,.55,1.13,2.88,2.88,0,0,0,.9.8,2.59,2.59,0,0,0,1.27.3,2.55,2.55,0,0,0,1.26-.3,2.88,2.88,0,0,0,.9-.8,3.83,3.83,0,0,0,.55-1.13,4.71,4.71,0,0,0,0-2.58,4,4,0,0,0-.55-1.13,2.88,2.88,0,0,0-.9-.8,2.55,2.55,0,0,0-1.26-.3A2.59,2.59,0,0,0,1087.11,680.47Z" transform="translate(-926.98 -573.24)"/><path class="cls-6" d="M1094,679.56l2.12,7.07h0l2-7.07h1.14l2,7.07h0l2.11-7.07h1.07l-2.65,8.26h-1.11l-2-7h0l-2,7h-1.1l-2.66-8.26Z" transform="translate(-926.98 -573.24)"/><path class="cls-6" d="M1115.85,687.82v-1.49h0a2.92,2.92,0,0,1-1.16,1.27,3.26,3.26,0,0,1-1.69.44,3.81,3.81,0,0,1-1.34-.21,2.16,2.16,0,0,1-.89-.62,2.54,2.54,0,0,1-.51-1,4.75,4.75,0,0,1-.16-1.31v-5.36h1v5.38a2.62,2.62,0,0,0,.52,1.69,2.6,2.6,0,0,0,2.81.3,2.47,2.47,0,0,0,.77-.74,3.3,3.3,0,0,0,.44-1.07,5,5,0,0,0,.15-1.22v-4.34h1v8.26Z" transform="translate(-926.98 -573.24)"/><path class="cls-6" d="M1123.43,681.17a1.64,1.64,0,0,0-.47-.57,2,2,0,0,0-.68-.33,3.61,3.61,0,0,0-.82-.1,3.21,3.21,0,0,0-.68.07,2.17,2.17,0,0,0-.63.24,1.3,1.3,0,0,0-.46.44,1.2,1.2,0,0,0-.18.67.94.94,0,0,0,.17.57,1.31,1.31,0,0,0,.42.39,2.63,2.63,0,0,0,.56.27l.56.17,1.35.3a3.7,3.7,0,0,1,.85.23,2.7,2.7,0,0,1,.76.44,2.35,2.35,0,0,1,.53.67,2.29,2.29,0,0,1-.09,2.09,2.6,2.6,0,0,1-.78.77,3.1,3.1,0,0,1-1.06.42,5.31,5.31,0,0,1-1.17.13,3.78,3.78,0,0,1-2.36-.69,2.86,2.86,0,0,1-1-2.2h1a2,2,0,0,0,.75,1.54,2.66,2.66,0,0,0,1.69.52,4.18,4.18,0,0,0,.76-.08,2.23,2.23,0,0,0,.72-.27,1.77,1.77,0,0,0,.56-.49,1.23,1.23,0,0,0,.21-.73,1.15,1.15,0,0,0-.15-.61,1.27,1.27,0,0,0-.41-.42,2.84,2.84,0,0,0-.58-.28c-.22-.07-.44-.14-.67-.19l-1.29-.29a6.47,6.47,0,0,1-.91-.3,3,3,0,0,1-.73-.41,1.81,1.81,0,0,1-.49-.61,2,2,0,0,1-.18-.89,2.05,2.05,0,0,1,.28-1.07,2.18,2.18,0,0,1,.73-.72,3.55,3.55,0,0,1,1-.4,5.24,5.24,0,0,1,1.1-.13,4.33,4.33,0,0,1,1.16.16,2.66,2.66,0,0,1,.94.5,2.43,2.43,0,0,1,.65.83,3,3,0,0,1,.27,1.17h-1A1.86,1.86,0,0,0,1123.43,681.17Z" transform="translate(-926.98 -573.24)"/><path class="cls-6" d="M951.56,695.56v.85h-1.68V702a1.76,1.76,0,0,0,.14.77c.09.19.32.29.68.32a8.11,8.11,0,0,0,.86-.05v.85h-.44l-.45,0a2,2,0,0,1-1.41-.39,1.93,1.93,0,0,1-.38-1.45v-5.65h-1.44v-.85h1.44v-2.48h1v2.48Z" transform="translate(-926.98 -573.24)"/><path class="cls-6" d="M958.18,695.67a3.69,3.69,0,0,1,1.22,1,4,4,0,0,1,.75,1.38,5.62,5.62,0,0,1,0,3.38,4,4,0,0,1-.75,1.38,3.54,3.54,0,0,1-1.22.94,3.86,3.86,0,0,1-1.67.34,3.91,3.91,0,0,1-1.68-.34,3.54,3.54,0,0,1-1.22-.94,4,4,0,0,1-.75-1.38,5.62,5.62,0,0,1,0-3.38,4,4,0,0,1,.75-1.38,3.69,3.69,0,0,1,1.22-1,3.91,3.91,0,0,1,1.68-.35A3.87,3.87,0,0,1,958.18,695.67Zm-2.94.8a2.88,2.88,0,0,0-.9.8,4,4,0,0,0-.55,1.13,4.71,4.71,0,0,0,0,2.58,3.83,3.83,0,0,0,.55,1.13,2.88,2.88,0,0,0,.9.8,2.62,2.62,0,0,0,1.27.3,2.55,2.55,0,0,0,1.26-.3,2.88,2.88,0,0,0,.9-.8,3.4,3.4,0,0,0,.55-1.13,4.71,4.71,0,0,0,0-2.58,3.49,3.49,0,0,0-.55-1.13,2.88,2.88,0,0,0-.9-.8,2.55,2.55,0,0,0-1.26-.3A2.62,2.62,0,0,0,955.24,696.47Z" transform="translate(-926.98 -573.24)"/><path class="cls-6" d="M971.42,696.7a2.21,2.21,0,0,0-1.57-.53,2.55,2.55,0,0,0-1.26.3,2.81,2.81,0,0,0-.91.8,3.69,3.69,0,0,0-.54,1.13,4.71,4.71,0,0,0,0,2.58,3.58,3.58,0,0,0,.54,1.13,2.81,2.81,0,0,0,.91.8,2.55,2.55,0,0,0,1.26.3,2.2,2.2,0,0,0,.88-.18,2.42,2.42,0,0,0,.74-.48,2.74,2.74,0,0,0,.53-.75,2.9,2.9,0,0,0,.25-.94h1a3.85,3.85,0,0,1-1.1,2.34,3.25,3.25,0,0,1-2.31.84,3.86,3.86,0,0,1-1.67-.34,3.45,3.45,0,0,1-1.22-.94,3.86,3.86,0,0,1-.76-1.38,5.84,5.84,0,0,1,0-3.38,3.86,3.86,0,0,1,.76-1.38,3.59,3.59,0,0,1,1.22-1,3.87,3.87,0,0,1,1.67-.35,3.58,3.58,0,0,1,2.25.71,3,3,0,0,1,1.1,2.12h-1A2.82,2.82,0,0,0,971.42,696.7Z" transform="translate(-926.98 -573.24)"/><path class="cls-6" d="M979.83,695.67a3.69,3.69,0,0,1,1.22,1,4,4,0,0,1,.75,1.38,5.62,5.62,0,0,1,0,3.38,4,4,0,0,1-.75,1.38,3.54,3.54,0,0,1-1.22.94,4.3,4.3,0,0,1-3.35,0,3.54,3.54,0,0,1-1.22-.94,4,4,0,0,1-.75-1.38,5.62,5.62,0,0,1,0-3.38,4,4,0,0,1,.75-1.38,3.69,3.69,0,0,1,1.22-1,4.18,4.18,0,0,1,3.35,0Zm-2.94.8a2.88,2.88,0,0,0-.9.8,4,4,0,0,0-.55,1.13,4.71,4.71,0,0,0,0,2.58,3.83,3.83,0,0,0,.55,1.13,2.88,2.88,0,0,0,.9.8,2.82,2.82,0,0,0,2.53,0,2.88,2.88,0,0,0,.9-.8,3.83,3.83,0,0,0,.55-1.13,4.71,4.71,0,0,0,0-2.58,4,4,0,0,0-.55-1.13,2.88,2.88,0,0,0-.9-.8,2.82,2.82,0,0,0-2.53,0Z" transform="translate(-926.98 -573.24)"/><path class="cls-6" d="M984.49,695.56V697h0a3.24,3.24,0,0,1,1.05-1.2,3,3,0,0,1,1.65-.43,2.85,2.85,0,0,1,1.48.4,1.94,1.94,0,0,1,.89,1.22,2.56,2.56,0,0,1,1.09-1.22,3.18,3.18,0,0,1,1.54-.4c1.82,0,2.73,1,2.73,2.9v5.6h-1v-5.55a2.4,2.4,0,0,0-.43-1.56,1.84,1.84,0,0,0-1.52-.54,2.12,2.12,0,0,0-1.09.25,1.87,1.87,0,0,0-.68.66,2.54,2.54,0,0,0-.36.95,5.83,5.83,0,0,0-.11,1.12v4.67h-1v-5.6a4,4,0,0,0-.08-.79,2,2,0,0,0-.29-.66,1.38,1.38,0,0,0-.54-.44,1.8,1.8,0,0,0-.81-.16,2.6,2.6,0,0,0-1.12.23,2.07,2.07,0,0,0-.76.64,2.65,2.65,0,0,0-.44,1,4.61,4.61,0,0,0-.15,1.21v4.61h-1v-8.26Z" transform="translate(-926.98 -573.24)"/><path class="cls-6" d="M997.82,695.56V697h0a3.07,3.07,0,0,1,1-1.2,3,3,0,0,1,1.65-.43,2.85,2.85,0,0,1,1.48.4,2,2,0,0,1,.89,1.22,2.51,2.51,0,0,1,1.09-1.22,3.18,3.18,0,0,1,1.53-.4c1.83,0,2.74,1,2.74,2.9v5.6h-1v-5.55a2.4,2.4,0,0,0-.43-1.56,1.86,1.86,0,0,0-1.52-.54,2.12,2.12,0,0,0-1.09.25,1.82,1.82,0,0,0-.69.66,2.93,2.93,0,0,0-.36.95,5.83,5.83,0,0,0-.1,1.12v4.67h-1v-5.6a3.35,3.35,0,0,0-.09-.79,1.78,1.78,0,0,0-.28-.66,1.46,1.46,0,0,0-.54-.44,1.85,1.85,0,0,0-.82-.16,2.59,2.59,0,0,0-1.11.23,2.19,2.19,0,0,0-.77.64,3,3,0,0,0-.44,1,5.09,5.09,0,0,0-.14,1.21v4.61h-1v-8.26Z" transform="translate(-926.98 -573.24)"/><path class="cls-6" d="M1016,703.82v-1.49h0a2.92,2.92,0,0,1-1.16,1.27,3.26,3.26,0,0,1-1.69.44,3.81,3.81,0,0,1-1.34-.21,2.3,2.3,0,0,1-.89-.62,2.54,2.54,0,0,1-.51-1,5.16,5.16,0,0,1-.16-1.31v-5.36h1v5.38a2.68,2.68,0,0,0,.52,1.69,2.6,2.6,0,0,0,2.81.3,2.37,2.37,0,0,0,.77-.74,3.56,3.56,0,0,0,.45-1.07,5.57,5.57,0,0,0,.14-1.22v-4.34h1v8.26Z" transform="translate(-926.98 -573.24)"/><path class="cls-6" d="M1019.8,695.56V697h0a2.4,2.4,0,0,1,1-1.21,3,3,0,0,1,1.62-.46,4,4,0,0,1,1.44.23,2.36,2.36,0,0,1,.94.63,2.42,2.42,0,0,1,.5,1,6,6,0,0,1,.14,1.33v5.31h-1v-5.15a5.13,5.13,0,0,0-.09-1,2.18,2.18,0,0,0-.34-.79,1.71,1.71,0,0,0-.65-.53,2.33,2.33,0,0,0-1-.19,2.45,2.45,0,0,0-1.08.22,2.17,2.17,0,0,0-.8.59,2.9,2.9,0,0,0-.52.89,3.77,3.77,0,0,0-.2,1.13v4.82h-1v-8.26Z" transform="translate(-926.98 -573.24)"/><path class="cls-6" d="M1028.43,692.39V694h-1v-1.62Zm0,3.17v8.26h-1v-8.26Z" transform="translate(-926.98 -573.24)"/><path class="cls-6" d="M1035.42,696.7a2.21,2.21,0,0,0-1.57-.53,2.55,2.55,0,0,0-1.26.3,2.81,2.81,0,0,0-.91.8,3.69,3.69,0,0,0-.54,1.13,4.71,4.71,0,0,0,0,2.58,3.58,3.58,0,0,0,.54,1.13,2.81,2.81,0,0,0,.91.8,2.55,2.55,0,0,0,1.26.3,2.2,2.2,0,0,0,.88-.18,2.42,2.42,0,0,0,.74-.48,2.74,2.74,0,0,0,.53-.75,2.9,2.9,0,0,0,.25-.94h1a3.85,3.85,0,0,1-1.1,2.34,3.25,3.25,0,0,1-2.31.84,3.86,3.86,0,0,1-1.67-.34,3.45,3.45,0,0,1-1.22-.94,3.86,3.86,0,0,1-.76-1.38,5.84,5.84,0,0,1,0-3.38,3.86,3.86,0,0,1,.76-1.38,3.59,3.59,0,0,1,1.22-1,3.87,3.87,0,0,1,1.67-.35,3.58,3.58,0,0,1,2.25.71,3,3,0,0,1,1.1,2.12h-1A2.82,2.82,0,0,0,1035.42,696.7Z" transform="translate(-926.98 -573.24)"/><path class="cls-6" d="M1038.88,696.84a2.35,2.35,0,0,1,.69-.86,2.91,2.91,0,0,1,1-.5,5.36,5.36,0,0,1,1.32-.16,5.65,5.65,0,0,1,1.08.11,2.65,2.65,0,0,1,1,.39,2.07,2.07,0,0,1,.7.81A2.88,2.88,0,0,1,1045,698v4.38c0,.41.19.61.59.61a.87.87,0,0,0,.32-.06v.84a2.09,2.09,0,0,1-.32,0l-.34,0a1.56,1.56,0,0,1-.62-.11.72.72,0,0,1-.35-.29,1,1,0,0,1-.17-.46,3.45,3.45,0,0,1,0-.58h0a7.33,7.33,0,0,1-.56.71,2.56,2.56,0,0,1-.62.52,2.72,2.72,0,0,1-.78.32,4.64,4.64,0,0,1-1,.11,4.1,4.1,0,0,1-1.08-.13,2.35,2.35,0,0,1-.88-.44,2,2,0,0,1-.6-.75,2.54,2.54,0,0,1-.21-1.08,2.19,2.19,0,0,1,.38-1.35,2.41,2.41,0,0,1,1-.74,5.78,5.78,0,0,1,1.42-.36l1.61-.2.56-.08a1.12,1.12,0,0,0,.4-.17.76.76,0,0,0,.25-.33,1.38,1.38,0,0,0,.09-.54,1.87,1.87,0,0,0-.17-.84,1.3,1.3,0,0,0-.46-.52,1.92,1.92,0,0,0-.69-.27,4.46,4.46,0,0,0-.84-.07,2.5,2.5,0,0,0-1.57.46,1.76,1.76,0,0,0-.64,1.46h-1A3.15,3.15,0,0,1,1038.88,696.84Zm5,2.47a.61.61,0,0,1-.37.25,2.68,2.68,0,0,1-.48.11c-.43.08-.87.15-1.32.2a6.9,6.9,0,0,0-1.24.27,2.38,2.38,0,0,0-.92.5,1.21,1.21,0,0,0-.36.94,1.51,1.51,0,0,0,.15.68,1.57,1.57,0,0,0,.41.51,2,2,0,0,0,.59.33,2.26,2.26,0,0,0,.69.11,3.38,3.38,0,0,0,1.1-.18,2.51,2.51,0,0,0,.92-.51,2.37,2.37,0,0,0,.62-.81,2.42,2.42,0,0,0,.24-1.09v-1.31Z" transform="translate(-926.98 -573.24)"/><path class="cls-6" d="M1050.25,695.56v.85h-1.68V702a1.76,1.76,0,0,0,.14.77c.09.19.31.29.68.32a8.43,8.43,0,0,0,.86-.05v.85h-.45l-.45,0a1.49,1.49,0,0,1-1.79-1.84v-5.65h-1.44v-.85h1.44v-2.48h1v2.48Z" transform="translate(-926.98 -573.24)"/><path class="cls-6" d="M1052.45,701.09a3,3,0,0,0,.49,1,2.75,2.75,0,0,0,.85.77,2.39,2.39,0,0,0,1.23.3,2.45,2.45,0,0,0,1.73-.58,3,3,0,0,0,.86-1.53h1a4,4,0,0,1-1.18,2.17,3.47,3.47,0,0,1-2.42.77,3.83,3.83,0,0,1-1.69-.34,3.18,3.18,0,0,1-1.16-1,4,4,0,0,1-.66-1.39,6.07,6.07,0,0,1-.22-1.67,5.77,5.77,0,0,1,.22-1.6,4.2,4.2,0,0,1,.66-1.4,3.38,3.38,0,0,1,1.16-1,3.57,3.57,0,0,1,1.69-.38,3.43,3.43,0,0,1,1.69.4,3.52,3.52,0,0,1,1.15,1,4.44,4.44,0,0,1,.63,1.49,6.5,6.5,0,0,1,.16,1.7h-6.35A4.5,4.5,0,0,0,1052.45,701.09Zm5-3.08a3,3,0,0,0-.52-.94,2.45,2.45,0,0,0-.81-.65,2.3,2.3,0,0,0-1.09-.25,2.33,2.33,0,0,0-1.11.25,2.45,2.45,0,0,0-.81.65,3.4,3.4,0,0,0-.54.95,4.67,4.67,0,0,0-.26,1.09h5.34A3.69,3.69,0,0,0,1057.44,698Z" transform="translate(-926.98 -573.24)"/><path class="cls-6" d="M1065.39,695.56v1.57h0a2.67,2.67,0,0,1,1.14-1.34,3.5,3.5,0,0,1,1.8-.47,3.64,3.64,0,0,1,1.64.35,3.4,3.4,0,0,1,1.16,1,4,4,0,0,1,.69,1.39,6.45,6.45,0,0,1,0,3.34,4,4,0,0,1-.69,1.39,3.26,3.26,0,0,1-1.16,1,3.64,3.64,0,0,1-1.64.34,3.8,3.8,0,0,1-.89-.11,3.09,3.09,0,0,1-.84-.34,2.57,2.57,0,0,1-.68-.56,2.31,2.31,0,0,1-.45-.78h0v4.61h-1v-11.3Zm5.52,2.86a3.48,3.48,0,0,0-.48-1.13,2.6,2.6,0,0,0-.84-.81,2.29,2.29,0,0,0-1.23-.31,3,3,0,0,0-1.39.29,2.5,2.5,0,0,0-.9.77,3.05,3.05,0,0,0-.47,1.12,6.41,6.41,0,0,0-.13,1.34,5.44,5.44,0,0,0,.15,1.27,3.29,3.29,0,0,0,.49,1.13,2.59,2.59,0,0,0,2.25,1.12,2.29,2.29,0,0,0,1.23-.31,2.6,2.6,0,0,0,.84-.81,3.48,3.48,0,0,0,.48-1.13,5.12,5.12,0,0,0,0-2.54Z" transform="translate(-926.98 -573.24)"/><path class="cls-6" d="M1074.57,695.56v1.94h0a3.17,3.17,0,0,1,1.19-1.55,3.09,3.09,0,0,1,1.93-.5v1a3.16,3.16,0,0,0-1.25.18,2.84,2.84,0,0,0-1,.62,2.7,2.7,0,0,0-.64,1,3.18,3.18,0,0,0-.22,1.21v4.4h-1v-8.26Z" transform="translate(-926.98 -573.24)"/><path class="cls-6" d="M1083.55,695.67a3.63,3.63,0,0,1,1.23,1,4,4,0,0,1,.75,1.38,5.62,5.62,0,0,1,0,3.38,4,4,0,0,1-.75,1.38,3.48,3.48,0,0,1-1.23.94,4.27,4.27,0,0,1-3.34,0,3.45,3.45,0,0,1-1.22-.94,4,4,0,0,1-.76-1.38,5.84,5.84,0,0,1,0-3.38,4,4,0,0,1,.76-1.38,3.59,3.59,0,0,1,1.22-1,4.16,4.16,0,0,1,3.34,0Zm-2.93.8a2.81,2.81,0,0,0-.91.8,3.69,3.69,0,0,0-.54,1.13,4.71,4.71,0,0,0,0,2.58,3.58,3.58,0,0,0,.54,1.13,2.81,2.81,0,0,0,.91.8,2.55,2.55,0,0,0,1.26.3,2.62,2.62,0,0,0,1.27-.3,2.88,2.88,0,0,0,.9-.8,3.58,3.58,0,0,0,.54-1.13,4.47,4.47,0,0,0,0-2.58,3.69,3.69,0,0,0-.54-1.13,2.88,2.88,0,0,0-.9-.8,2.62,2.62,0,0,0-1.27-.3A2.55,2.55,0,0,0,1080.62,696.47Z" transform="translate(-926.98 -573.24)"/><path class="cls-6" d="M1094.07,704.79a3.22,3.22,0,0,1-.64,1.25,2.77,2.77,0,0,1-1.13.79,4.7,4.7,0,0,1-1.7.27,5,5,0,0,1-1.22-.15,3.44,3.44,0,0,1-1.06-.44,2.89,2.89,0,0,1-.78-.78,2.26,2.26,0,0,1-.36-1.13h1a1.71,1.71,0,0,0,.31.78,1.79,1.79,0,0,0,.56.5,2.46,2.46,0,0,0,.73.28,3.59,3.59,0,0,0,.81.09,2.42,2.42,0,0,0,2-.8,3.64,3.64,0,0,0,.63-2.3V702h0a3,3,0,0,1-1,1.23,2.73,2.73,0,0,1-1.59.46,3.92,3.92,0,0,1-1.69-.33,3.06,3.06,0,0,1-1.16-.9,3.57,3.57,0,0,1-.67-1.35,6.34,6.34,0,0,1-.21-1.66,5.37,5.37,0,0,1,.25-1.61,4.1,4.1,0,0,1,.72-1.32,3.37,3.37,0,0,1,1.17-.9,3.64,3.64,0,0,1,1.59-.33,2.88,2.88,0,0,1,2.22,1,2.58,2.58,0,0,1,.41.64h0v-1.43h1v7.59A6.42,6.42,0,0,1,1094.07,704.79Zm-2.32-2.2a2.53,2.53,0,0,0,.83-.73,3.11,3.11,0,0,0,.51-1.05,4.49,4.49,0,0,0,.17-1.22,5,5,0,0,0-.15-1.21,3.52,3.52,0,0,0-.46-1.11,2.61,2.61,0,0,0-.82-.8,2.67,2.67,0,0,0-2.46,0,2.61,2.61,0,0,0-.85.77,3.33,3.33,0,0,0-.49,1.1,5.28,5.28,0,0,0-.15,1.25,4.49,4.49,0,0,0,.16,1.22,3.09,3.09,0,0,0,.5,1.05,2.47,2.47,0,0,0,.84.73,2.5,2.5,0,0,0,1.22.28A2.25,2.25,0,0,0,1091.75,702.59Z" transform="translate(-926.98 -573.24)"/><path class="cls-6" d="M1097.11,695.56v1.94h0a3,3,0,0,1,3.12-2v1a3.13,3.13,0,0,0-1.25.18,2.78,2.78,0,0,0-1,.62,2.82,2.82,0,0,0-.63,1,3.18,3.18,0,0,0-.23,1.21v4.4h-1v-8.26Z" transform="translate(-926.98 -573.24)"/><path class="cls-6" d="M1101.68,701.09a3.17,3.17,0,0,0,.49,1,2.86,2.86,0,0,0,.85.77,2.39,2.39,0,0,0,1.23.3,2.43,2.43,0,0,0,1.73-.58,3,3,0,0,0,.86-1.53h1a3.92,3.92,0,0,1-1.18,2.17,3.45,3.45,0,0,1-2.42.77,3.86,3.86,0,0,1-1.69-.34,3.18,3.18,0,0,1-1.16-1,4,4,0,0,1-.66-1.39,6.07,6.07,0,0,1-.22-1.67,5.77,5.77,0,0,1,.22-1.6,4.2,4.2,0,0,1,.66-1.4,3.38,3.38,0,0,1,1.16-1,3.6,3.6,0,0,1,1.69-.38,3.47,3.47,0,0,1,1.7.4,3.39,3.39,0,0,1,1.14,1,4.44,4.44,0,0,1,.63,1.49,6.5,6.5,0,0,1,.16,1.7h-6.35A4.5,4.5,0,0,0,1101.68,701.09Zm5-3.08a3,3,0,0,0-.52-.94,2.45,2.45,0,0,0-.81-.65,2.52,2.52,0,0,0-2.19,0,2.49,2.49,0,0,0-.82.65,3.67,3.67,0,0,0-.54.95,4.67,4.67,0,0,0-.26,1.09h5.35A3.7,3.7,0,0,0,1106.67,698Z" transform="translate(-926.98 -573.24)"/><path class="cls-6" d="M1114,697.17a1.53,1.53,0,0,0-.47-.57,2,2,0,0,0-.68-.33,3.59,3.59,0,0,0-.81-.1,3.08,3.08,0,0,0-.68.07,2.35,2.35,0,0,0-.64.24,1.38,1.38,0,0,0-.46.44,1.2,1.2,0,0,0-.18.67.94.94,0,0,0,.17.57,1.24,1.24,0,0,0,.43.39,2.42,2.42,0,0,0,.56.27l.56.17,1.34.3a3.92,3.92,0,0,1,.86.23,2.79,2.79,0,0,1,.75.44,2.19,2.19,0,0,1,.53.67,2.29,2.29,0,0,1-.09,2.09,2.49,2.49,0,0,1-.78.77,3.1,3.1,0,0,1-1.06.42,5.31,5.31,0,0,1-1.17.13,3.78,3.78,0,0,1-2.36-.69,2.89,2.89,0,0,1-1-2.2h1a2,2,0,0,0,.74,1.54,2.66,2.66,0,0,0,1.69.52,4.09,4.09,0,0,0,.76-.08,2.38,2.38,0,0,0,.73-.27,1.85,1.85,0,0,0,.55-.49,1.23,1.23,0,0,0,.21-.73,1.15,1.15,0,0,0-.15-.61,1.27,1.27,0,0,0-.41-.42,2.84,2.84,0,0,0-.58-.28c-.22-.07-.44-.14-.66-.19l-1.3-.29a6.47,6.47,0,0,1-.91-.3,3,3,0,0,1-.73-.41,1.81,1.81,0,0,1-.49-.61,2,2,0,0,1-.17-.89,2,2,0,0,1,.28-1.07,2.07,2.07,0,0,1,.72-.72,3.67,3.67,0,0,1,1-.4,5.24,5.24,0,0,1,1.1-.13,4.33,4.33,0,0,1,1.16.16,2.58,2.58,0,0,1,.94.5,2.43,2.43,0,0,1,.65.83,3,3,0,0,1,.27,1.17h-1A2,2,0,0,0,1114,697.17Z" transform="translate(-926.98 -573.24)"/><path class="cls-6" d="M1121.69,697.17a1.75,1.75,0,0,0-.47-.57,2,2,0,0,0-.68-.33,3.61,3.61,0,0,0-.82-.1,3.21,3.21,0,0,0-.68.07,2.17,2.17,0,0,0-.63.24,1.41,1.41,0,0,0-.47.44,1.28,1.28,0,0,0-.17.67.88.88,0,0,0,.17.57,1.31,1.31,0,0,0,.42.39,2.63,2.63,0,0,0,.56.27l.56.17,1.34.3a3.78,3.78,0,0,1,.86.23,2.79,2.79,0,0,1,.75.44,2.22,2.22,0,0,1,.54.67,2,2,0,0,1,.21,1,2,2,0,0,1-.31,1.14,2.46,2.46,0,0,1-.77.77,3.15,3.15,0,0,1-1.07.42,5.18,5.18,0,0,1-1.17.13,3.8,3.8,0,0,1-2.36-.69,2.92,2.92,0,0,1-1-2.2h1a2,2,0,0,0,.74,1.54,2.7,2.7,0,0,0,1.69.52,4,4,0,0,0,.76-.08,2.29,2.29,0,0,0,.73-.27,1.73,1.73,0,0,0,.55-.49,1.17,1.17,0,0,0,.22-.73,1.15,1.15,0,0,0-.15-.61,1.27,1.27,0,0,0-.41-.42,2.93,2.93,0,0,0-.59-.28c-.21-.07-.44-.14-.66-.19l-1.3-.29a6.93,6.93,0,0,1-.91-.3,3.21,3.21,0,0,1-.73-.41,1.78,1.78,0,0,1-.48-.61,2,2,0,0,1-.18-.89,2,2,0,0,1,.28-1.07,2.18,2.18,0,0,1,.73-.72,3.55,3.55,0,0,1,1-.4,5.15,5.15,0,0,1,1.09-.13,4.22,4.22,0,0,1,1.16.16,2.62,2.62,0,0,1,1,.5,2.43,2.43,0,0,1,.65.83,3,3,0,0,1,.27,1.17h-1A1.86,1.86,0,0,0,1121.69,697.17Z" transform="translate(-926.98 -573.24)"/><path class="cls-6" d="M1125.22,702.12h1.35v1.7h-1.35Z" transform="translate(-926.98 -573.24)"/></g></svg>