<svg xmlns="http://www.w3.org/2000/svg" viewBox="0 0 121.18 65.41"><defs><style>.cls-1,.cls-3{fill:#007681;}.cls-1{opacity:0.6;}.cls-2{fill:#e6eff3;stroke:#279989;stroke-miterlimit:10;}.cls-4{opacity:0.2;}.cls-5{fill:#f2f2f2;}.cls-6{fill:#3da395;}</style></defs><g id="Layer_24" data-name="Layer 24"><path class="cls-1" d="M1308.19,579.52l-112.54-1.63c-1.87,0-3.35-1-3.3-2.08l1.22-27.56c0-1.06,1.56-1.92,3.38-1.91l109.45.61c1.94,0,3.56.91,3.63,2l1.65,28.52C1311.75,578.63,1310.19,579.55,1308.19,579.52Z" transform="translate(-1190.51 -514.12)"/><rect class="cls-2" x="0.5" y="31.88" width="117.8" height="31.49" rx="2.71"/><path class="cls-3" d="M1202.14,555.75a3.18,3.18,0,0,1,2.24.73,2.84,2.84,0,0,1,.8,2.21,3.42,3.42,0,0,1-.46,1.88,2.14,2.14,0,0,1-1.44.94v0a2.06,2.06,0,0,1,1.26.56,2.39,2.39,0,0,1,.5,1.39c0,.22,0,.45,0,.7s0,.53,0,.84c0,.61.05,1.07.09,1.39a.91.91,0,0,0,.42.66v.09h-2.5a1.16,1.16,0,0,1-.22-.55,6.47,6.47,0,0,1-.07-.65l-.06-2.19a1.76,1.76,0,0,0-.34-1.06,1.24,1.24,0,0,0-1-.38h-1.23v4.83h-2.31V555.75Zm-1,5a1.9,1.9,0,0,0,1.28-.39,1.67,1.67,0,0,0,.45-1.32,1.41,1.41,0,0,0-1.6-1.59h-1.09v3.3Z" transform="translate(-1190.51 -514.12)"/><path class="cls-3" d="M1208.6,563.89a4.56,4.56,0,0,0,.06.75,2.84,2.84,0,0,0,.18.64,1.27,1.27,0,0,0,.34.44.75.75,0,0,0,.51.17.89.89,0,0,0,.82-.4,2.86,2.86,0,0,0,.35-1.21h2a3.37,3.37,0,0,1-.8,2.28,3,3,0,0,1-2.32.79,3.74,3.74,0,0,1-1.87-.4,2.46,2.46,0,0,1-1-1.06,4.25,4.25,0,0,1-.39-1.47c0-.54-.07-1.09-.07-1.63a11.32,11.32,0,0,1,.12-1.67,4,4,0,0,1,.48-1.42,2.52,2.52,0,0,1,1-1,3.67,3.67,0,0,1,1.79-.37,3.47,3.47,0,0,1,1.58.31,2.34,2.34,0,0,1,1,.88,3.52,3.52,0,0,1,.48,1.38,11,11,0,0,1,.13,1.8v.49h-4.37Zm2.2-2.87a2.58,2.58,0,0,0-.17-.64.84.84,0,0,0-.34-.4,1,1,0,0,0-.55-.14.88.88,0,0,0-.55.16,1,1,0,0,0-.35.4,2.22,2.22,0,0,0-.18.55,3.08,3.08,0,0,0-.06.61v.33h2.26Q1210.84,561.4,1210.8,561Z" transform="translate(-1190.51 -514.12)"/><path class="cls-3" d="M1214.11,561a2.92,2.92,0,0,1,.24-1.26,2.12,2.12,0,0,1,.65-.82,2.65,2.65,0,0,1,1-.44,4.87,4.87,0,0,1,1.17-.14,5.38,5.38,0,0,1,1.6.19,2.19,2.19,0,0,1,1,.55,1.81,1.81,0,0,1,.45.84,4.41,4.41,0,0,1,.12,1.06v4.53a5.65,5.65,0,0,0,.06.94,3.61,3.61,0,0,0,.21.72h-2.11a1.65,1.65,0,0,1-.16-.44c0-.15-.08-.3-.11-.45h0a1.94,1.94,0,0,1-.89.87,3.66,3.66,0,0,1-1.3.2,2.22,2.22,0,0,1-1-.2,1.72,1.72,0,0,1-.64-.55,2.41,2.41,0,0,1-.35-.8,3.24,3.24,0,0,1-.11-.87,4.1,4.1,0,0,1,.12-1,2,2,0,0,1,1.07-1.27,5.45,5.45,0,0,1,1-.37l1.25-.33a1.38,1.38,0,0,0,.69-.35,1,1,0,0,0,.19-.66,1.23,1.23,0,0,0-.23-.78,1,1,0,0,0-.79-.28,1,1,0,0,0-.77.31,1.21,1.21,0,0,0-.26.81v.24h-2Zm3.55,2.15a3,3,0,0,1-.46.15,1.73,1.73,0,0,0-1,.48,1.31,1.31,0,0,0-.29.91,1.72,1.72,0,0,0,.19.85.68.68,0,0,0,.64.35,1.62,1.62,0,0,0,.47-.07,1.49,1.49,0,0,0,.43-.23,1.14,1.14,0,0,0,.33-.42,1.28,1.28,0,0,0,.13-.61v-1.69A1.94,1.94,0,0,1,1217.66,563.15Z" transform="translate(-1190.51 -514.12)"/><path class="cls-3" d="M1226.2,566.26a2.17,2.17,0,0,1-.82.85,2.39,2.39,0,0,1-1.13.24,2.2,2.2,0,0,1-2-1,7,7,0,0,1-.64-3.44,7.13,7.13,0,0,1,.64-3.47,2.17,2.17,0,0,1,2-1.06,2.12,2.12,0,0,1,1.07.26,2.57,2.57,0,0,1,.79.76h0v-3.61h2.21v11.42h-2.11v-.91ZM1224,565a.9.9,0,0,0,.93.71.91.91,0,0,0,1-.71,10.32,10.32,0,0,0,0-4.24.9.9,0,0,0-1-.71.89.89,0,0,0-.93.71,10.32,10.32,0,0,0,0,4.24Z" transform="translate(-1190.51 -514.12)"/><path class="cls-3" d="M1230.56,568.34a1.09,1.09,0,0,0,.87-.32,1.55,1.55,0,0,0,.31-.85l-2.42-8.61h2.31l1.28,6h0l1.12-6h2.21l-2.08,8a17.31,17.31,0,0,1-.55,1.73,3.13,3.13,0,0,1-.63,1,1.78,1.78,0,0,1-.86.47,6.37,6.37,0,0,1-1.27.11h-.9v-1.65A3.68,3.68,0,0,0,1230.56,568.34Z" transform="translate(-1190.51 -514.12)"/><path class="cls-3" d="M1240.28,560.07v-1.51h1.12v-1a2.79,2.79,0,0,1,.16-1,1.6,1.6,0,0,1,.46-.64,1.83,1.83,0,0,1,.73-.34,4.08,4.08,0,0,1,1-.11c.39,0,.79,0,1.18.05v1.57l-.22,0h-.21a1.1,1.1,0,0,0-.66.16.7.7,0,0,0-.19.53v.75h1.28v1.51h-1.28v7.1h-2.21v-7.1Z" transform="translate(-1190.51 -514.12)"/><path class="cls-3" d="M1245.55,560.92a3.91,3.91,0,0,1,.57-1.42,2.52,2.52,0,0,1,1.05-.86,3.76,3.76,0,0,1,1.59-.3,4.2,4.2,0,0,1,1.65.26,2.32,2.32,0,0,1,1,.86,3.8,3.8,0,0,1,.55,1.42,11.53,11.53,0,0,1,.16,2,9.52,9.52,0,0,1-.18,2,3.75,3.75,0,0,1-.58,1.42,2.46,2.46,0,0,1-1,.84,4.21,4.21,0,0,1-1.6.27,4.13,4.13,0,0,1-1.64-.25,2.2,2.2,0,0,1-1-.83,3.72,3.72,0,0,1-.55-1.43,10.54,10.54,0,0,1-.16-2A9.38,9.38,0,0,1,1245.55,560.92Zm2.06,3.16a4,4,0,0,0,.15,1,1.38,1.38,0,0,0,.36.63.91.91,0,0,0,.64.22.93.93,0,0,0,.93-.7,10.48,10.48,0,0,0,0-4.64.94.94,0,0,0-.93-.71.91.91,0,0,0-.64.23,1.4,1.4,0,0,0-.36.62,4.21,4.21,0,0,0-.15,1c0,.38,0,.78,0,1.22S1247.59,563.71,1247.61,564.08Z" transform="translate(-1190.51 -514.12)"/><path class="cls-3" d="M1255.45,558.56v1.16h0a3.17,3.17,0,0,1,.82-1,1.85,1.85,0,0,1,1.17-.38h.2l.2,0v2.11l-.35,0h-.34a2.38,2.38,0,0,0-.58.08,1.36,1.36,0,0,0-.52.27,1.33,1.33,0,0,0-.39.48,1.71,1.71,0,0,0-.14.72v5.17h-2.21v-8.61Z" transform="translate(-1190.51 -514.12)"/><path class="cls-3" d="M1264.62,558.56v1.16h0a3.17,3.17,0,0,1,.82-1,1.85,1.85,0,0,1,1.17-.38h.2l.2,0v2.11l-.35,0h-.34a2.32,2.32,0,0,0-.58.08,1.4,1.4,0,0,0-.53.27,1.31,1.31,0,0,0-.38.48,1.57,1.57,0,0,0-.14.72v5.17h-2.21v-8.61Z" transform="translate(-1190.51 -514.12)"/><path class="cls-3" d="M1269.72,563.89a4.56,4.56,0,0,0,.06.75,2.84,2.84,0,0,0,.18.64,1.27,1.27,0,0,0,.34.44.75.75,0,0,0,.51.17.9.9,0,0,0,.82-.4,2.86,2.86,0,0,0,.35-1.21h2a3.42,3.42,0,0,1-.8,2.28,3,3,0,0,1-2.32.79,3.74,3.74,0,0,1-1.87-.4,2.46,2.46,0,0,1-1-1.06,4.25,4.25,0,0,1-.39-1.47c0-.54-.07-1.09-.07-1.63a11.32,11.32,0,0,1,.12-1.67,4,4,0,0,1,.48-1.42,2.52,2.52,0,0,1,1-1,3.67,3.67,0,0,1,1.79-.37,3.5,3.5,0,0,1,1.58.31,2.34,2.34,0,0,1,1,.88,3.52,3.52,0,0,1,.48,1.38,11,11,0,0,1,.13,1.8v.49h-4.37Zm2.2-2.87a2.58,2.58,0,0,0-.17-.64.84.84,0,0,0-.34-.4,1,1,0,0,0-.55-.14.88.88,0,0,0-.55.16,1,1,0,0,0-.35.4,2.22,2.22,0,0,0-.18.55,3.08,3.08,0,0,0-.06.61v.33H1272Q1272,561.4,1271.92,561Z" transform="translate(-1190.51 -514.12)"/><path class="cls-3" d="M1281.53,558.56l-2.16,8.61h-2.56l-2.22-8.61h2.3l1.23,6.16h0l1.16-6.16Z" transform="translate(-1190.51 -514.12)"/><path class="cls-3" d="M1284.64,555.62v1.89h-2.21v-1.89Zm0,2.94v8.61h-2.21v-8.61Z" transform="translate(-1190.51 -514.12)"/><path class="cls-3" d="M1288.08,563.89a4.57,4.57,0,0,0,.05.75,2.4,2.4,0,0,0,.19.64,1.14,1.14,0,0,0,.33.44.75.75,0,0,0,.51.17.89.89,0,0,0,.82-.4,2.86,2.86,0,0,0,.35-1.21h2a3.47,3.47,0,0,1-.8,2.28,3,3,0,0,1-2.32.79,3.78,3.78,0,0,1-1.88-.4,2.52,2.52,0,0,1-1-1.06,4.25,4.25,0,0,1-.39-1.47c0-.54-.07-1.09-.07-1.63a11.32,11.32,0,0,1,.12-1.67,4,4,0,0,1,.48-1.42,2.52,2.52,0,0,1,1-1,3.67,3.67,0,0,1,1.79-.37,3.47,3.47,0,0,1,1.58.31,2.34,2.34,0,0,1,1,.88,3.69,3.69,0,0,1,.49,1.38,12.34,12.34,0,0,1,.12,1.8v.49h-4.36Zm2.19-2.87a2.21,2.21,0,0,0-.17-.64.84.84,0,0,0-.34-.4,1,1,0,0,0-.55-.14.88.88,0,0,0-.55.16,1,1,0,0,0-.34.4,1.88,1.88,0,0,0-.19.55,3.08,3.08,0,0,0-.05.61v.33h2.25Q1290.32,561.4,1290.27,561Z" transform="translate(-1190.51 -514.12)"/><path class="cls-3" d="M1295.18,558.56l1,6.12h0l1.07-6.12h2.4l1.14,6.12h0l1-6.12H1304l-1.85,8.61h-2.52l-1.13-6.11h0l-1.08,6.11h-2.56l-1.87-8.61Z" transform="translate(-1190.51 -514.12)"/><g class="cls-4"><polygon points="51.89 35.64 42.46 19.32 51.89 3 70.73 3 80.16 19.32 70.73 35.64 51.89 35.64"/><path d="M1260.66,518.12l8.85,15.32-8.85,15.32H1243l-8.84-15.32,8.84-15.32h17.69m1.16-2h-20l-10,17.32,10,17.32h20l10-17.32-10-17.32Z" transform="translate(-1190.51 -514.12)"/></g><polygon class="cls-5" points="49.89 33.64 40.46 17.32 49.89 1 68.73 1 78.16 17.32 68.73 33.64 49.89 33.64"/><path class="cls-6" d="M1258.66,516.12l8.85,15.32-8.85,15.32H1241l-8.84-15.32,8.84-15.32h17.69m1.16-2h-20l-10,17.32,10,17.32h20l10-17.32-10-17.32Z" transform="translate(-1190.51 -514.12)"/><path class="cls-6" d="M1244.3,533.36a3.58,3.58,0,0,1,2.45-1.64v-.05a3.5,3.5,0,0,1-1.32-.6,3.77,3.77,0,0,1-.86-.93,3.47,3.47,0,0,1-.46-1.09A4.72,4.72,0,0,1,1244,528a5,5,0,0,1,1.51-4.08,7.6,7.6,0,0,1,8.32,0,5,5,0,0,1,1.51,4.08,4.26,4.26,0,0,1-.15,1.09,3.78,3.78,0,0,1-.48,1.09,3.54,3.54,0,0,1-.85.93,3.63,3.63,0,0,1-1.3.6v.05a3.58,3.58,0,0,1,2.45,1.64,5.75,5.75,0,0,1,.82,3.13,9.93,9.93,0,0,1-.2,1.86,4.65,4.65,0,0,1-.86,1.88,4.89,4.89,0,0,1-1.87,1.44,9.44,9.44,0,0,1-6.46,0,4.89,4.89,0,0,1-1.87-1.44,4.63,4.63,0,0,1-.85-1.88,9.21,9.21,0,0,1-.21-1.86A5.75,5.75,0,0,1,1244.3,533.36Zm3.2,4.37a3.07,3.07,0,0,0,.36,1.07,1.86,1.86,0,0,0,.69.7,2,2,0,0,0,1.09.26,2,2,0,0,0,1.09-.26,2,2,0,0,0,.7-.7,3.06,3.06,0,0,0,.35-1.07,8.5,8.5,0,0,0,0-2.6,3,3,0,0,0-.35-1,2,2,0,0,0-.7-.71,2.12,2.12,0,0,0-1.09-.26,2.14,2.14,0,0,0-1.09.26,1.88,1.88,0,0,0-.69.71,3,3,0,0,0-.36,1,9.43,9.43,0,0,0,0,2.6Zm.75-7.83a1.81,1.81,0,0,0,2.78,0,3.27,3.27,0,0,0,.52-2c0-1.76-.64-2.64-1.91-2.64s-1.91.88-1.91,2.64A3.34,3.34,0,0,0,1248.25,529.9Z" transform="translate(-1190.51 -514.12)"/></g></svg>