<svg xmlns="http://www.w3.org/2000/svg" viewBox="0 0 209.33 111.56"><defs><style>.cls-1{fill:#a83f44;opacity:0.42;}.cls-2{fill:#e6eff3;stroke:#9e2a2f;stroke-miterlimit:10;}.cls-3{opacity:0.2;}.cls-4{fill:#9e2a2f;}.cls-5{fill:#f2f2f2;}</style></defs><g id="Layer_25" data-name="Layer 25"><path class="cls-1" d="M1537.91,715.24,1344,710.59a5.78,5.78,0,0,1-5.68-5.89l2.1-78.34a5.69,5.69,0,0,1,5.83-5.42l188.54,1.72a6.19,6.19,0,0,1,6.25,5.71l2.86,81A5.69,5.69,0,0,1,1537.91,715.24Z" transform="translate(-1334.6 -620.44)"/><rect class="cls-2" x="0.5" y="0.5" width="203.91" height="86" rx="5.9"/><g class="cls-3"><polygon points="80.93 110.81 71.36 94.24 80.93 77.67 100.06 77.67 109.63 94.24 100.06 110.81 80.93 110.81"/><path d="M1434.23,698.86l9.14,15.82-9.14,15.82H1416l-9.13-15.82,9.13-15.82h18.27m.87-1.5h-20l-10,17.32,10,17.32h20l10-17.32-10-17.32Z" transform="translate(-1334.6 -620.44)"/></g><polygon class="cls-4" points="78.93 108.81 69.36 92.24 78.93 75.67 98.06 75.67 107.63 92.24 98.06 108.81 78.93 108.81"/><path class="cls-5" d="M1432.23,696.86l9.14,15.82-9.14,15.82H1414l-9.13-15.82,9.13-15.82h18.27m.87-1.5h-20l-10,17.32,10,17.32h20l10-17.32-10-17.32Z" transform="translate(-1334.6 -620.44)"/><path class="cls-5" d="M1421.52,719.72a1.37,1.37,0,0,0,1.26.57,1.83,1.83,0,0,0,1.15-.34,2.28,2.28,0,0,0,.66-.94,5,5,0,0,0,.31-1.42c0-.54.07-1.14.07-1.79V715h0a3.15,3.15,0,0,1-1.28,1.09,4.62,4.62,0,0,1-2,.41,4.47,4.47,0,0,1-2-.41,3.53,3.53,0,0,1-1.33-1.15,5.1,5.1,0,0,1-.75-1.74,9.54,9.54,0,0,1-.24-2.21,7.08,7.08,0,0,1,1.36-4.68,5.35,5.35,0,0,1,4.35-1.62,5.49,5.49,0,0,1,2.94.69,4.53,4.53,0,0,1,1.68,1.82,7.65,7.65,0,0,1,.76,2.62,28.51,28.51,0,0,1,.17,3.12c0,1.26,0,2.48-.11,3.65a9.62,9.62,0,0,1-.67,3.1,4.73,4.73,0,0,1-1.77,2.13,6.22,6.22,0,0,1-3.38.78,9.16,9.16,0,0,1-1.83-.18,3.85,3.85,0,0,1-1.55-.7,3.75,3.75,0,0,1-1.09-1.37,5.17,5.17,0,0,1-.43-2.13h3.43A2.84,2.84,0,0,0,1421.52,719.72Zm-.18-6.68a1.59,1.59,0,0,0,1.49.77,1.62,1.62,0,0,0,1.52-.77,5.41,5.41,0,0,0,.45-2.57,12.07,12.07,0,0,0-.07-1.39,3.59,3.59,0,0,0-.29-1.11,1.64,1.64,0,0,0-.6-.72,1.72,1.72,0,0,0-1-.27,1.77,1.77,0,0,0-1,.27,1.6,1.6,0,0,0-.59.73,3.85,3.85,0,0,0-.26,1.11q-.06.63-.06,1.38A5.41,5.41,0,0,0,1421.34,713Z" transform="translate(-1334.6 -620.44)"/><path class="cls-4" d="M1350.17,633.86l3,11.42h-2.4l-.53-2.42h-3l-.53,2.42h-2.4l3-11.42Zm-.3,7.12-1.1-5.14h0l-1.1,5.14Z" transform="translate(-1334.6 -620.44)"/><path class="cls-4" d="M1355.55,642.75a1.35,1.35,0,0,0,.3.91,1.08,1.08,0,0,0,.85.34,1.26,1.26,0,0,0,.82-.26.94.94,0,0,0,.3-.76.83.83,0,0,0-.24-.64,1.87,1.87,0,0,0-.56-.34l-1.55-.56a3,3,0,0,1-1.38-.9,2.33,2.33,0,0,1-.46-1.5,2.77,2.77,0,0,1,.18-1,1.91,1.91,0,0,1,.56-.82,2.52,2.52,0,0,1,1-.56,4.4,4.4,0,0,1,1.45-.21,3.25,3.25,0,0,1,2.22.64,2.29,2.29,0,0,1,.72,1.81v.35h-2a1.73,1.73,0,0,0-.22-1,.88.88,0,0,0-.76-.31,1.22,1.22,0,0,0-.73.23.85.85,0,0,0-.31.7,1,1,0,0,0,.2.58,1.62,1.62,0,0,0,.76.43l1.33.45a3,3,0,0,1,1.47.92,2.45,2.45,0,0,1,.43,1.54,2.72,2.72,0,0,1-.24,1.19,2.29,2.29,0,0,1-.66.84,2.43,2.43,0,0,1-1,.48,5.19,5.19,0,0,1-1.29.15,5.61,5.61,0,0,1-1.54-.18,2.25,2.25,0,0,1-1-.53,1.92,1.92,0,0,1-.5-.85,4,4,0,0,1-.14-1.13v-.31h2Z" transform="translate(-1334.6 -620.44)"/><path class="cls-4" d="M1362.65,642.75a1.35,1.35,0,0,0,.3.91,1.1,1.1,0,0,0,.86.34,1.21,1.21,0,0,0,.81-.26.94.94,0,0,0,.31-.76.83.83,0,0,0-.24-.64,1.87,1.87,0,0,0-.56-.34l-1.56-.56a3,3,0,0,1-1.37-.9,2.34,2.34,0,0,1-.47-1.5,2.77,2.77,0,0,1,.18-1,2,2,0,0,1,.56-.82,2.6,2.6,0,0,1,1-.56,4.44,4.44,0,0,1,1.45-.21,3.28,3.28,0,0,1,2.23.64,2.29,2.29,0,0,1,.72,1.81v.35h-2a1.82,1.82,0,0,0-.21-1,.89.89,0,0,0-.76-.31,1.22,1.22,0,0,0-.73.23.82.82,0,0,0-.31.7.89.89,0,0,0,.2.58,1.52,1.52,0,0,0,.76.43l1.32.45a3,3,0,0,1,1.48.92,2.52,2.52,0,0,1,.43,1.54,2.72,2.72,0,0,1-.24,1.19,2.21,2.21,0,0,1-.67.84,2.45,2.45,0,0,1-1,.48,5.19,5.19,0,0,1-1.29.15,5.64,5.64,0,0,1-1.55-.18,2.21,2.21,0,0,1-1-.53,1.94,1.94,0,0,1-.51-.85,4.43,4.43,0,0,1-.14-1.13v-.31h2Z" transform="translate(-1334.6 -620.44)"/><path class="cls-4" d="M1370,642a5.87,5.87,0,0,0,0,.74,2.29,2.29,0,0,0,.19.64,1.12,1.12,0,0,0,.34.45.77.77,0,0,0,.51.17.88.88,0,0,0,.81-.4,3.05,3.05,0,0,0,.36-1.22h2a3.43,3.43,0,0,1-.8,2.29,3.05,3.05,0,0,1-2.32.79,3.71,3.71,0,0,1-1.87-.4,2.46,2.46,0,0,1-1-1.06,4.1,4.1,0,0,1-.4-1.47c-.05-.55-.07-1.09-.07-1.63a11.22,11.22,0,0,1,.12-1.67,4,4,0,0,1,.48-1.42,2.52,2.52,0,0,1,1-1,3.71,3.71,0,0,1,1.8-.37,3.46,3.46,0,0,1,1.57.31,2.43,2.43,0,0,1,1,.88,3.87,3.87,0,0,1,.48,1.38,12.06,12.06,0,0,1,.13,1.8v.49H1370Zm2.19-2.87a2.12,2.12,0,0,0-.17-.64.88.88,0,0,0-.33-.4,1,1,0,0,0-.55-.14,1,1,0,0,0-.56.15,1.19,1.19,0,0,0-.34.4,2,2,0,0,0-.19.56,4,4,0,0,0,0,.6V640h2.26C1372.27,639.67,1372.25,639.38,1372.22,639.13Z" transform="translate(-1334.6 -620.44)"/><path class="cls-4" d="M1378.24,634.21v2.46h1.28v1.51h-1.28v4.65a1.33,1.33,0,0,0,.15.73.74.74,0,0,0,.63.22h.26l.24,0v1.54l-.71,0c-.23,0-.48,0-.73,0a5,5,0,0,1-1-.09,1.08,1.08,0,0,1-.62-.35,1.45,1.45,0,0,1-.3-.7,6.49,6.49,0,0,1-.08-1.09v-4.92h-1.12v-1.51H1376v-2.46Z" transform="translate(-1334.6 -620.44)"/><path class="cls-4" d="M1381.9,642.75a1.35,1.35,0,0,0,.3.91,1.08,1.08,0,0,0,.85.34,1.24,1.24,0,0,0,.82-.26.94.94,0,0,0,.3-.76.83.83,0,0,0-.24-.64,1.75,1.75,0,0,0-.56-.34l-1.55-.56a2.91,2.91,0,0,1-1.37-.9,2.34,2.34,0,0,1-.47-1.5,2.77,2.77,0,0,1,.18-1,1.91,1.91,0,0,1,.56-.82,2.52,2.52,0,0,1,1-.56,4.4,4.4,0,0,1,1.45-.21,3.25,3.25,0,0,1,2.22.64,2.29,2.29,0,0,1,.72,1.81v.35h-2a1.73,1.73,0,0,0-.22-1,.86.86,0,0,0-.76-.31,1.19,1.19,0,0,0-.72.23.83.83,0,0,0-.32.7,1,1,0,0,0,.2.58,1.62,1.62,0,0,0,.76.43l1.33.45a2.94,2.94,0,0,1,1.47.92,2.45,2.45,0,0,1,.44,1.54A2.58,2.58,0,0,1,1386,644a2.29,2.29,0,0,1-.66.84,2.43,2.43,0,0,1-1,.48,5.19,5.19,0,0,1-1.29.15,5.61,5.61,0,0,1-1.54-.18,2.15,2.15,0,0,1-1-.53,1.94,1.94,0,0,1-.51-.85,4,4,0,0,1-.14-1.13v-.31h2Z" transform="translate(-1334.6 -620.44)"/><path class="cls-4" d="M1393.52,633.73v1.89h-2.21v-1.89Zm0,2.94v8.61h-2.21v-8.61Z" transform="translate(-1334.6 -620.44)"/><path class="cls-4" d="M1397.18,636.67v1h0a2.3,2.3,0,0,1,.91-.94,2.8,2.8,0,0,1,1.28-.29,2.2,2.2,0,0,1,1.63.57,2.61,2.61,0,0,1,.57,1.88v6.38h-2.21v-5.94a1.52,1.52,0,0,0-.22-.93.89.89,0,0,0-.73-.27c-.77,0-1.16.48-1.16,1.43v5.71h-2.21v-8.61Z" transform="translate(-1334.6 -620.44)"/><path class="cls-4" d="M1410.16,634h2.38v7.19h1.09v1.79h-1.09v2.35h-2.11v-2.35h-4V641Zm.24,2.88-2.21,4.31h2.24v-4.31Z" transform="translate(-1334.6 -620.44)"/><path class="cls-4" d="M1420,636.67l1,6.11h0l1.07-6.11h2.4l1.14,6.11h0l1-6.11h2.11l-1.85,8.61h-2.51l-1.14-6.11h0l-1.07,6.11h-2.56l-1.88-8.61Z" transform="translate(-1334.6 -620.44)"/><path class="cls-4" d="M1431.58,642a4.44,4.44,0,0,0,.06.74,2,2,0,0,0,.18.64,1.22,1.22,0,0,0,.34.45.77.77,0,0,0,.51.17.88.88,0,0,0,.81-.4,3.05,3.05,0,0,0,.36-1.22h2a3.43,3.43,0,0,1-.8,2.29,3.05,3.05,0,0,1-2.32.79,3.74,3.74,0,0,1-1.87-.4,2.46,2.46,0,0,1-1-1.06,4.1,4.1,0,0,1-.4-1.47c0-.55-.07-1.09-.07-1.63a11.22,11.22,0,0,1,.12-1.67,4,4,0,0,1,.48-1.42,2.59,2.59,0,0,1,1-1,3.71,3.71,0,0,1,1.8-.37,3.43,3.43,0,0,1,1.57.31,2.36,2.36,0,0,1,1,.88,3.87,3.87,0,0,1,.48,1.38,10.86,10.86,0,0,1,.13,1.8v.49h-4.37Zm2.19-2.87a2.12,2.12,0,0,0-.17-.64.88.88,0,0,0-.33-.4,1,1,0,0,0-.55-.14,1,1,0,0,0-.56.15,1.32,1.32,0,0,0-.34.4,1.67,1.67,0,0,0-.18.56,3.05,3.05,0,0,0-.06.6V640h2.26C1433.83,639.67,1433.8,639.38,1433.77,639.13Z" transform="translate(-1334.6 -620.44)"/><path class="cls-4" d="M1439,642a5.87,5.87,0,0,0,0,.74,2.29,2.29,0,0,0,.19.64,1.1,1.1,0,0,0,.33.45.81.81,0,0,0,.52.17.88.88,0,0,0,.81-.4,2.91,2.91,0,0,0,.35-1.22h2a3.43,3.43,0,0,1-.8,2.29,3.07,3.07,0,0,1-2.32.79,3.71,3.71,0,0,1-1.87-.4,2.55,2.55,0,0,1-1-1.06,4.31,4.31,0,0,1-.39-1.47c0-.55-.07-1.09-.07-1.63a11.22,11.22,0,0,1,.12-1.67,4,4,0,0,1,.48-1.42,2.52,2.52,0,0,1,1-1,3.69,3.69,0,0,1,1.79-.37,3.47,3.47,0,0,1,1.58.31,2.43,2.43,0,0,1,1,.88,3.87,3.87,0,0,1,.48,1.38,12.06,12.06,0,0,1,.13,1.8v.49H1439Zm2.19-2.87a2.12,2.12,0,0,0-.17-.64.88.88,0,0,0-.33-.4,1.06,1.06,0,0,0-.56-.14,1,1,0,0,0-.55.15,1.19,1.19,0,0,0-.34.4,2,2,0,0,0-.19.56,4,4,0,0,0,0,.6V640h2.25Q1441.23,639.5,1441.18,639.13Z" transform="translate(-1334.6 -620.44)"/><path class="cls-4" d="M1446.8,639.89h0l2.22-3.22h2.43l-2.48,3.39,2.85,5.22h-2.43l-1.84-3.54-.78,1v2.51h-2.21V633.86h2.21Z" transform="translate(-1334.6 -620.44)"/><path class="cls-4" d="M1454.12,642.75a1.35,1.35,0,0,0,.3.91,1.1,1.1,0,0,0,.86.34,1.21,1.21,0,0,0,.81-.26.94.94,0,0,0,.31-.76.83.83,0,0,0-.24-.64,1.87,1.87,0,0,0-.56-.34l-1.56-.56a3,3,0,0,1-1.37-.9,2.34,2.34,0,0,1-.47-1.5,2.77,2.77,0,0,1,.18-1,2,2,0,0,1,.56-.82,2.6,2.6,0,0,1,1-.56,4.44,4.44,0,0,1,1.45-.21,3.26,3.26,0,0,1,2.23.64,2.29,2.29,0,0,1,.72,1.81v.35h-2a1.82,1.82,0,0,0-.21-1,.89.89,0,0,0-.76-.31,1.22,1.22,0,0,0-.73.23.82.82,0,0,0-.31.7.89.89,0,0,0,.2.58,1.52,1.52,0,0,0,.76.43l1.32.45a3,3,0,0,1,1.48.92,2.52,2.52,0,0,1,.43,1.54,2.72,2.72,0,0,1-.24,1.19,2.21,2.21,0,0,1-.67.84,2.39,2.39,0,0,1-1,.48,5.19,5.19,0,0,1-1.29.15,5.64,5.64,0,0,1-1.55-.18,2.21,2.21,0,0,1-1-.53,1.94,1.94,0,0,1-.51-.85,4.43,4.43,0,0,1-.14-1.13v-.31h2Z" transform="translate(-1334.6 -620.44)"/><path class="cls-4" d="M1353.33,652.14a3.06,3.06,0,0,0-.8-.88,3.52,3.52,0,0,0-1-.53,3.85,3.85,0,0,0-1.19-.19,4.07,4.07,0,0,0-2,.44,3.9,3.9,0,0,0-1.34,1.14,4.88,4.88,0,0,0-.76,1.61,6.86,6.86,0,0,0,0,3.67A5,5,0,0,0,1347,659a4,4,0,0,0,1.34,1.14,4.07,4.07,0,0,0,2,.43,3.44,3.44,0,0,0,2.55-1.07,4.21,4.21,0,0,0,.75-1.16,5.1,5.1,0,0,0,.37-1.43h1.08a6.16,6.16,0,0,1-.49,1.9,4.72,4.72,0,0,1-1,1.44,4.15,4.15,0,0,1-1.44.91,4.89,4.89,0,0,1-1.83.32,5.5,5.5,0,0,1-2.36-.48,4.9,4.9,0,0,1-1.69-1.31,5.52,5.52,0,0,1-1-1.89,7.25,7.25,0,0,1-.34-2.25,7.36,7.36,0,0,1,.34-2.26,5.61,5.61,0,0,1,1-1.89,4.92,4.92,0,0,1,1.69-1.32,5.5,5.5,0,0,1,2.36-.48,5.28,5.28,0,0,1,1.59.24,4.46,4.46,0,0,1,1.41.71,4.06,4.06,0,0,1,1.06,1.16,3.84,3.84,0,0,1,.53,1.58h-1.08A3.6,3.6,0,0,0,1353.33,652.14Z" transform="translate(-1334.6 -620.44)"/><path class="cls-4" d="M1361.69,653.14a3.54,3.54,0,0,1,1.22.94,4.09,4.09,0,0,1,.75,1.38,5.62,5.62,0,0,1,0,3.38,4,4,0,0,1-.75,1.38,3.54,3.54,0,0,1-1.22.94,3.91,3.91,0,0,1-1.68.34,3.86,3.86,0,0,1-1.67-.34,3.54,3.54,0,0,1-1.22-.94,4,4,0,0,1-.75-1.38,5.62,5.62,0,0,1,0-3.38,4.09,4.09,0,0,1,.75-1.38,3.54,3.54,0,0,1,1.22-.94,3.73,3.73,0,0,1,1.67-.36A3.77,3.77,0,0,1,1361.69,653.14Zm-2.94.8a2.8,2.8,0,0,0-.91.8,3.75,3.75,0,0,0-.54,1.12,4.73,4.73,0,0,0-.18,1.29,4.67,4.67,0,0,0,.18,1.29,3.81,3.81,0,0,0,.54,1.13,2.8,2.8,0,0,0,.91.8,2.55,2.55,0,0,0,1.26.3,2.62,2.62,0,0,0,1.27-.3,2.77,2.77,0,0,0,.9-.8,3.83,3.83,0,0,0,.55-1.13,4.67,4.67,0,0,0,.18-1.29,4.73,4.73,0,0,0-.18-1.29,3.77,3.77,0,0,0-.55-1.12,2.77,2.77,0,0,0-.9-.8,2.52,2.52,0,0,0-1.27-.31A2.45,2.45,0,0,0,1358.75,653.94Z" transform="translate(-1334.6 -620.44)"/><path class="cls-4" d="M1366.35,653v1.4h.05a2.94,2.94,0,0,1,1-1.2,2.89,2.89,0,0,1,1.65-.44,2.85,2.85,0,0,1,1.48.4,2,2,0,0,1,.89,1.22,2.55,2.55,0,0,1,1.09-1.22,3.18,3.18,0,0,1,1.53-.4c1.83,0,2.74,1,2.74,2.9v5.6h-1v-5.55a2.42,2.42,0,0,0-.43-1.56,1.86,1.86,0,0,0-1.52-.54,2.12,2.12,0,0,0-1.09.25,1.9,1.9,0,0,0-.69.66,2.9,2.9,0,0,0-.36,1,5.66,5.66,0,0,0-.1,1.11v4.67h-1v-5.6a3.35,3.35,0,0,0-.09-.79,2,2,0,0,0-.28-.66,1.46,1.46,0,0,0-.54-.44,1.85,1.85,0,0,0-.82-.16,2.59,2.59,0,0,0-1.11.23,2.19,2.19,0,0,0-.77.64,3.25,3.25,0,0,0-.44,1,5.09,5.09,0,0,0-.14,1.21v4.61h-1V653Z" transform="translate(-1334.6 -620.44)"/><path class="cls-4" d="M1379.68,653v1.57h0a2.7,2.7,0,0,1,1.14-1.33,3.41,3.41,0,0,1,1.8-.48,3.51,3.51,0,0,1,1.64.36,3.26,3.26,0,0,1,1.16,1,4,4,0,0,1,.69,1.39,6.12,6.12,0,0,1,.23,1.67,6,6,0,0,1-.23,1.67,4.08,4.08,0,0,1-.69,1.4,3.24,3.24,0,0,1-1.16.94,3.64,3.64,0,0,1-1.64.34,3.39,3.39,0,0,1-.89-.11,3.06,3.06,0,0,1-.84-.33,2.77,2.77,0,0,1-.67-.56,2.49,2.49,0,0,1-.46-.79h0v4.61h-1V653Zm5.53,2.86a3.72,3.72,0,0,0-.49-1.13,2.51,2.51,0,0,0-.84-.81,2.39,2.39,0,0,0-1.23-.31,3,3,0,0,0-1.39.29,2.39,2.39,0,0,0-.89.77,2.91,2.91,0,0,0-.48,1.12,6.41,6.41,0,0,0-.13,1.34,5.44,5.44,0,0,0,.15,1.27,3.31,3.31,0,0,0,.5,1.13,2.58,2.58,0,0,0,.89.81,2.7,2.7,0,0,0,1.35.31,2.29,2.29,0,0,0,1.23-.31,2.51,2.51,0,0,0,.84-.81,3.72,3.72,0,0,0,.49-1.13,5.45,5.45,0,0,0,0-2.54Z" transform="translate(-1334.6 -620.44)"/><path class="cls-4" d="M1389,649.86v11.42h-1V649.86Z" transform="translate(-1334.6 -620.44)"/><path class="cls-4" d="M1391.64,658.55a3.15,3.15,0,0,0,.48,1.05,2.85,2.85,0,0,0,.85.77,2.39,2.39,0,0,0,1.23.3,2.46,2.46,0,0,0,1.73-.57,3,3,0,0,0,.87-1.54h1a4,4,0,0,1-1.17,2.18,3.52,3.52,0,0,1-2.43.76,3.79,3.79,0,0,1-1.68-.34,3.07,3.07,0,0,1-1.16-.94,4.23,4.23,0,0,1-.67-1.4,6.42,6.42,0,0,1-.21-1.67,6.16,6.16,0,0,1,.21-1.6,4.43,4.43,0,0,1,.67-1.4,3.29,3.29,0,0,1,1.16-1,3.53,3.53,0,0,1,1.68-.38,3.45,3.45,0,0,1,1.7.4,3.39,3.39,0,0,1,1.14,1.05,4.26,4.26,0,0,1,.64,1.49,7,7,0,0,1,.16,1.7h-6.36A4.53,4.53,0,0,0,1391.64,658.55Zm5-3.08a3,3,0,0,0-.52-.93,2.49,2.49,0,0,0-.82-.66,2.28,2.28,0,0,0-1.09-.25,2.32,2.32,0,0,0-1.1.25,2.49,2.49,0,0,0-.82.66,3.19,3.19,0,0,0-.53.94,5.2,5.2,0,0,0-.27,1.1h5.35A3.7,3.7,0,0,0,1396.63,655.47Z" transform="translate(-1334.6 -620.44)"/><path class="cls-4" d="M1402.48,653v.85h-1.68v5.57a1.86,1.86,0,0,0,.13.78c.09.18.32.29.68.31a8.46,8.46,0,0,0,.87,0v.85H1402l-.45,0a1.48,1.48,0,0,1-1.79-1.84v-5.65h-1.44V653h1.44v-2.48h1V653Z" transform="translate(-1334.6 -620.44)"/><path class="cls-4" d="M1404.68,658.55a3.15,3.15,0,0,0,.48,1.05,2.85,2.85,0,0,0,.85.77,2.39,2.39,0,0,0,1.23.3,2.46,2.46,0,0,0,1.73-.57,3,3,0,0,0,.87-1.54h1a4,4,0,0,1-1.17,2.18,3.52,3.52,0,0,1-2.43.76,3.79,3.79,0,0,1-1.68-.34,3,3,0,0,1-1.16-.94,4.23,4.23,0,0,1-.67-1.4,6.42,6.42,0,0,1-.21-1.67,6.16,6.16,0,0,1,.21-1.6,4.43,4.43,0,0,1,.67-1.4,3.21,3.21,0,0,1,1.16-1,3.53,3.53,0,0,1,1.68-.38,3.45,3.45,0,0,1,1.7.4,3.39,3.39,0,0,1,1.14,1.05,4.26,4.26,0,0,1,.64,1.49,7,7,0,0,1,.16,1.7h-6.36A4.11,4.11,0,0,0,1404.68,658.55Zm5-3.08a3.24,3.24,0,0,0-.52-.93,2.49,2.49,0,0,0-.82-.66,2.28,2.28,0,0,0-1.09-.25,2.32,2.32,0,0,0-1.1.25,2.49,2.49,0,0,0-.82.66,3.19,3.19,0,0,0-.53.94,4.66,4.66,0,0,0-.27,1.1h5.35A3.7,3.7,0,0,0,1409.67,655.47Z" transform="translate(-1334.6 -620.44)"/><path class="cls-4" d="M1418.57,661.28v-1.57h0a2.44,2.44,0,0,1-.47.74,3.55,3.55,0,0,1-.71.57,4.34,4.34,0,0,1-.86.36,3.54,3.54,0,0,1-.9.12,3.64,3.64,0,0,1-1.64-.34,3.24,3.24,0,0,1-1.16-.94,4.08,4.08,0,0,1-.69-1.4,6,6,0,0,1-.23-1.67,6.12,6.12,0,0,1,.23-1.67,4,4,0,0,1,.69-1.39,3.26,3.26,0,0,1,1.16-1,3.51,3.51,0,0,1,1.64-.36,3.37,3.37,0,0,1,.9.12,2.69,2.69,0,0,1,.82.34,2.49,2.49,0,0,1,.68.57,2.33,2.33,0,0,1,.46.78h0v-4.73h1v11.42Zm-5.53-2.86a4,4,0,0,0,.48,1.13,2.71,2.71,0,0,0,.84.81,2.35,2.35,0,0,0,1.24.31,2.55,2.55,0,0,0,2.24-1.12,3.31,3.31,0,0,0,.5-1.13,5.45,5.45,0,0,0,0-2.54,3.31,3.31,0,0,0-.5-1.13,2.67,2.67,0,0,0-.89-.81,2.81,2.81,0,0,0-1.35-.31,2.45,2.45,0,0,0-1.24.31,2.71,2.71,0,0,0-.84.81,4,4,0,0,0-.48,1.13,5.45,5.45,0,0,0,0,2.54Z" transform="translate(-1334.6 -620.44)"/><path class="cls-4" d="M1431,653.14a3.54,3.54,0,0,1,1.22.94,4.09,4.09,0,0,1,.75,1.38,5.62,5.62,0,0,1,0,3.38,4,4,0,0,1-.75,1.38,3.54,3.54,0,0,1-1.22.94,3.86,3.86,0,0,1-1.67.34,3.91,3.91,0,0,1-1.68-.34,3.54,3.54,0,0,1-1.22-.94,4,4,0,0,1-.75-1.38,5.62,5.62,0,0,1,0-3.38,4.09,4.09,0,0,1,.75-1.38,3.54,3.54,0,0,1,1.22-.94,3.77,3.77,0,0,1,1.68-.36A3.73,3.73,0,0,1,1431,653.14Zm-2.94.8a2.77,2.77,0,0,0-.9.8,3.77,3.77,0,0,0-.55,1.12,4.73,4.73,0,0,0-.18,1.29,4.67,4.67,0,0,0,.18,1.29,3.83,3.83,0,0,0,.55,1.13,2.77,2.77,0,0,0,.9.8,2.59,2.59,0,0,0,1.27.3,2.55,2.55,0,0,0,1.26-.3,2.77,2.77,0,0,0,.9-.8,3.6,3.6,0,0,0,.55-1.13,4.67,4.67,0,0,0,.18-1.29,4.73,4.73,0,0,0-.18-1.29,3.55,3.55,0,0,0-.55-1.12,2.77,2.77,0,0,0-.9-.8,2.45,2.45,0,0,0-1.26-.31A2.49,2.49,0,0,0,1428.09,653.94Z" transform="translate(-1334.6 -620.44)"/><path class="cls-4" d="M1440.52,661.28v-1.49h0a2.76,2.76,0,0,1-1.16,1.27,3.23,3.23,0,0,1-1.69.44,3.75,3.75,0,0,1-1.33-.21,2.26,2.26,0,0,1-.9-.62,2.36,2.36,0,0,1-.5-1,4.87,4.87,0,0,1-.16-1.32V653h1v5.38a2.67,2.67,0,0,0,.52,1.7,2.6,2.6,0,0,0,2.8.29,2.27,2.27,0,0,0,.77-.74,3.56,3.56,0,0,0,.45-1.07,5,5,0,0,0,.14-1.22V653h1v8.26Z" transform="translate(-1334.6 -620.44)"/><path class="cls-4" d="M1446.64,653v.85H1445v5.57a1.86,1.86,0,0,0,.13.78c.09.18.32.29.68.31a8.46,8.46,0,0,0,.87,0v.85h-.45l-.45,0a1.48,1.48,0,0,1-1.79-1.84v-5.65h-1.44V653H1444v-2.48h1V653Z" transform="translate(-1334.6 -620.44)"/><path class="cls-4" d="M1453.15,654.16a2.23,2.23,0,0,0-1.57-.53,2.45,2.45,0,0,0-1.26.31,2.7,2.7,0,0,0-.91.8,3.53,3.53,0,0,0-.54,1.12,4.74,4.74,0,0,0-.19,1.29,4.68,4.68,0,0,0,.19,1.29,3.58,3.58,0,0,0,.54,1.13,2.7,2.7,0,0,0,.91.8,2.55,2.55,0,0,0,1.26.3,2.38,2.38,0,0,0,.88-.17,2.45,2.45,0,0,0,.74-.49,2.71,2.71,0,0,0,.52-.75,2.62,2.62,0,0,0,.26-.94h1a3.8,3.8,0,0,1-1.11,2.34,3.21,3.21,0,0,1-2.3.84,3.83,3.83,0,0,1-1.67-.34,3.48,3.48,0,0,1-1.23-.94,4,4,0,0,1-.75-1.38,5.84,5.84,0,0,1,0-3.38,4.09,4.09,0,0,1,.75-1.38,3.48,3.48,0,0,1,1.23-.94,3.7,3.7,0,0,1,1.67-.36,3.62,3.62,0,0,1,2.25.71,3,3,0,0,1,1.09,2.13h-1A2.81,2.81,0,0,0,1453.15,654.16Z" transform="translate(-1334.6 -620.44)"/><path class="cls-4" d="M1461.56,653.14a3.54,3.54,0,0,1,1.22.94,4.09,4.09,0,0,1,.75,1.38,5.62,5.62,0,0,1,0,3.38,4,4,0,0,1-.75,1.38,3.54,3.54,0,0,1-1.22.94,3.91,3.91,0,0,1-1.68.34,3.86,3.86,0,0,1-1.67-.34,3.54,3.54,0,0,1-1.22-.94,4,4,0,0,1-.75-1.38,5.62,5.62,0,0,1,0-3.38,4.09,4.09,0,0,1,.75-1.38,3.54,3.54,0,0,1,1.22-.94,3.73,3.73,0,0,1,1.67-.36A3.77,3.77,0,0,1,1461.56,653.14Zm-2.94.8a2.91,2.91,0,0,0-.91.8,3.75,3.75,0,0,0-.54,1.12,4.73,4.73,0,0,0-.18,1.29,4.67,4.67,0,0,0,.18,1.29,3.81,3.81,0,0,0,.54,1.13,2.91,2.91,0,0,0,.91.8,2.55,2.55,0,0,0,1.26.3,2.62,2.62,0,0,0,1.27-.3,2.77,2.77,0,0,0,.9-.8,3.83,3.83,0,0,0,.55-1.13,4.67,4.67,0,0,0,.18-1.29,4.73,4.73,0,0,0-.18-1.29,3.77,3.77,0,0,0-.55-1.12,2.77,2.77,0,0,0-.9-.8,2.52,2.52,0,0,0-1.27-.31A2.45,2.45,0,0,0,1458.62,653.94Z" transform="translate(-1334.6 -620.44)"/><path class="cls-4" d="M1466.22,653v1.4h0a2.94,2.94,0,0,1,1-1.2,2.89,2.89,0,0,1,1.65-.44,2.85,2.85,0,0,1,1.48.4,2,2,0,0,1,.89,1.22,2.55,2.55,0,0,1,1.09-1.22,3.18,3.18,0,0,1,1.53-.4c1.83,0,2.74,1,2.74,2.9v5.6h-1v-5.55a2.42,2.42,0,0,0-.43-1.56,1.86,1.86,0,0,0-1.52-.54,2.12,2.12,0,0,0-1.09.25,1.9,1.9,0,0,0-.69.66,2.9,2.9,0,0,0-.36,1,5.66,5.66,0,0,0-.1,1.11v4.67h-1v-5.6a3.35,3.35,0,0,0-.09-.79,2,2,0,0,0-.28-.66,1.46,1.46,0,0,0-.54-.44,1.85,1.85,0,0,0-.82-.16,2.59,2.59,0,0,0-1.11.23,2.19,2.19,0,0,0-.77.64,3.25,3.25,0,0,0-.44,1,5.09,5.09,0,0,0-.14,1.21v4.61h-1V653Z" transform="translate(-1334.6 -620.44)"/><path class="cls-4" d="M1479.36,658.55a3.17,3.17,0,0,0,.49,1.05,2.85,2.85,0,0,0,.85.77,2.39,2.39,0,0,0,1.23.3,2.47,2.47,0,0,0,1.73-.57,3,3,0,0,0,.86-1.54h1a4,4,0,0,1-1.18,2.18,3.49,3.49,0,0,1-2.42.76,3.86,3.86,0,0,1-1.69-.34,3.15,3.15,0,0,1-1.16-.94,4,4,0,0,1-.66-1.4,6.42,6.42,0,0,1-.22-1.67,6.17,6.17,0,0,1,.22-1.6,4.2,4.2,0,0,1,.66-1.4,3.38,3.38,0,0,1,1.16-1,3.6,3.6,0,0,1,1.69-.38,3.47,3.47,0,0,1,1.7.4,3.39,3.39,0,0,1,1.14,1.05,4.25,4.25,0,0,1,.63,1.49,6.5,6.5,0,0,1,.16,1.7h-6.35A4.5,4.5,0,0,0,1479.36,658.55Zm5-3.08a2.83,2.83,0,0,0-.52-.93,2.36,2.36,0,0,0-.81-.66,2.52,2.52,0,0,0-2.19,0,2.49,2.49,0,0,0-.82.66,3.45,3.45,0,0,0-.54.94,4.64,4.64,0,0,0-.26,1.1h5.34A3.41,3.41,0,0,0,1484.35,655.47Z" transform="translate(-1334.6 -620.44)"/><path class="cls-4" d="M1491.67,654.63a1.53,1.53,0,0,0-.47-.57,1.78,1.78,0,0,0-.68-.32,3,3,0,0,0-.81-.11,3.92,3.92,0,0,0-.68.07,2.35,2.35,0,0,0-.64.24,1.49,1.49,0,0,0-.46.44,1.23,1.23,0,0,0-.18.68.93.93,0,0,0,.17.56,1.5,1.5,0,0,0,.43.4,2.89,2.89,0,0,0,.56.26,5.7,5.7,0,0,0,.56.17l1.34.3a3.92,3.92,0,0,1,.86.23,3.08,3.08,0,0,1,.75.44,2.26,2.26,0,0,1,.54.68,2.1,2.1,0,0,1,.2.94,2.06,2.06,0,0,1-.3,1.14,2.39,2.39,0,0,1-.78.77,3.33,3.33,0,0,1-1.06.43,6,6,0,0,1-1.17.12,3.84,3.84,0,0,1-2.36-.68,2.93,2.93,0,0,1-1-2.21h1a2,2,0,0,0,.74,1.54,2.68,2.68,0,0,0,1.69.52,3.39,3.39,0,0,0,.76-.08,2.38,2.38,0,0,0,.73-.27,1.85,1.85,0,0,0,.55-.49,1.23,1.23,0,0,0,.21-.73,1.15,1.15,0,0,0-.15-.61,1.18,1.18,0,0,0-.41-.42,2.84,2.84,0,0,0-.58-.28c-.22-.07-.44-.14-.66-.19l-1.3-.29a7,7,0,0,1-.91-.29,3.41,3.41,0,0,1-.73-.42,1.81,1.81,0,0,1-.49-.61,2.28,2.28,0,0,1,.11-2,2.16,2.16,0,0,1,.72-.72,3.67,3.67,0,0,1,1-.4,5.24,5.24,0,0,1,1.1-.13,4.28,4.28,0,0,1,1.16.16,2.88,2.88,0,0,1,1,.5,2.4,2.4,0,0,1,.64.83,3.15,3.15,0,0,1,.28,1.17h-1A1.86,1.86,0,0,0,1491.67,654.63Z" transform="translate(-1334.6 -620.44)"/><path class="cls-4" d="M1500.62,653.87v7.41h-1v-7.41h-1.41V653h1.41v-.75a5.77,5.77,0,0,1,.08-1,1.83,1.83,0,0,1,.3-.77,1.47,1.47,0,0,1,.62-.5,2.43,2.43,0,0,1,1-.17h.42l.43,0v.86l-.39,0a2,2,0,0,0-.35,0,1.36,1.36,0,0,0-.64.13.79.79,0,0,0-.33.35,1.27,1.27,0,0,0-.12.5c0,.19,0,.4,0,.62V653h1.63v.85Z" transform="translate(-1334.6 -620.44)"/><path class="cls-4" d="M1504.14,653V655h0a3.17,3.17,0,0,1,1.19-1.55,3.09,3.09,0,0,1,1.93-.5v1a3.16,3.16,0,0,0-1.25.18,3,3,0,0,0-1,.62,2.82,2.82,0,0,0-.63.95,3.18,3.18,0,0,0-.22,1.21v4.4h-1V653Z" transform="translate(-1334.6 -620.44)"/><path class="cls-4" d="M1513.12,653.14a3.57,3.57,0,0,1,1.23.94,4.09,4.09,0,0,1,.75,1.38,5.84,5.84,0,0,1,0,3.38,4,4,0,0,1-.75,1.38,3.57,3.57,0,0,1-1.23.94,4.27,4.27,0,0,1-3.34,0,3.48,3.48,0,0,1-1.23-.94,4,4,0,0,1-.75-1.38,5.84,5.84,0,0,1,0-3.38,4.09,4.09,0,0,1,.75-1.38,3.48,3.48,0,0,1,1.23-.94,4.05,4.05,0,0,1,3.34,0Zm-2.93.8a2.7,2.7,0,0,0-.91.8,3.53,3.53,0,0,0-.54,1.12,4.74,4.74,0,0,0-.19,1.29,4.68,4.68,0,0,0,.19,1.29,3.58,3.58,0,0,0,.54,1.13,2.7,2.7,0,0,0,.91.8,2.8,2.8,0,0,0,2.52,0,2.7,2.7,0,0,0,.91-.8,3.58,3.58,0,0,0,.54-1.13,4.68,4.68,0,0,0,.19-1.29,4.74,4.74,0,0,0-.19-1.29,3.53,3.53,0,0,0-.54-1.12,2.7,2.7,0,0,0-.91-.8,2.72,2.72,0,0,0-2.52,0Z" transform="translate(-1334.6 -620.44)"/><path class="cls-4" d="M1517.79,653v1.4h0a3.09,3.09,0,0,1,1.05-1.2,2.93,2.93,0,0,1,1.66-.44,2.88,2.88,0,0,1,1.48.4,2,2,0,0,1,.89,1.22,2.53,2.53,0,0,1,1.08-1.22,3.21,3.21,0,0,1,1.54-.4c1.82,0,2.74,1,2.74,2.9v5.6h-1v-5.55a2.48,2.48,0,0,0-.43-1.56,1.86,1.86,0,0,0-1.52-.54,2.12,2.12,0,0,0-1.09.25,1.9,1.9,0,0,0-.69.66,2.9,2.9,0,0,0-.36,1,5.66,5.66,0,0,0-.1,1.11v4.67h-1v-5.6a3.35,3.35,0,0,0-.09-.79,1.8,1.8,0,0,0-.29-.66,1.35,1.35,0,0,0-.53-.44,1.88,1.88,0,0,0-.82-.16,2.53,2.53,0,0,0-1.11.23,2.1,2.1,0,0,0-.77.64,3,3,0,0,0-.44,1,4.62,4.62,0,0,0-.14,1.21v4.61h-1V653Z" transform="translate(-1334.6 -620.44)"/><path class="cls-4" d="M1346,674.55a3.15,3.15,0,0,0,.48,1.05,2.85,2.85,0,0,0,.85.77,2.39,2.39,0,0,0,1.23.3,2.46,2.46,0,0,0,1.73-.57,3,3,0,0,0,.87-1.54h1a4,4,0,0,1-1.17,2.18,3.52,3.52,0,0,1-2.43.76,3.79,3.79,0,0,1-1.68-.34,3,3,0,0,1-1.16-.94,4.23,4.23,0,0,1-.67-1.4,6.42,6.42,0,0,1-.21-1.67,6.16,6.16,0,0,1,.21-1.6,4.43,4.43,0,0,1,.67-1.4,3.21,3.21,0,0,1,1.16-1,3.53,3.53,0,0,1,1.68-.38,3.47,3.47,0,0,1,1.7.4,3.39,3.39,0,0,1,1.14,1.05,4.26,4.26,0,0,1,.64,1.49,7,7,0,0,1,.16,1.7h-6.36A4.11,4.11,0,0,0,1346,674.55Zm5-3.08a3,3,0,0,0-.52-.93,2.49,2.49,0,0,0-.82-.66,2.28,2.28,0,0,0-1.09-.25,2.32,2.32,0,0,0-1.1.25,2.49,2.49,0,0,0-.82.66,3.19,3.19,0,0,0-.53.94,4.66,4.66,0,0,0-.27,1.1h5.35A3.7,3.7,0,0,0,1351,671.47Z" transform="translate(-1334.6 -620.44)"/><path class="cls-4" d="M1353.77,670.3a2.37,2.37,0,0,1,.7-.86,3.09,3.09,0,0,1,1-.5,5.34,5.34,0,0,1,1.31-.16,5.68,5.68,0,0,1,1.09.11,2.72,2.72,0,0,1,1,.39,2.07,2.07,0,0,1,.7.81,2.89,2.89,0,0,1,.27,1.35v4.38a.53.53,0,0,0,.6.61.87.87,0,0,0,.32-.06v.85l-.32,0-.34,0a1.55,1.55,0,0,1-.62-.1.88.88,0,0,1-.36-.3,1.26,1.26,0,0,1-.17-.46,5,5,0,0,1,0-.58h0a6,6,0,0,1-.55.71,2.77,2.77,0,0,1-.62.52,2.67,2.67,0,0,1-.79.32,4,4,0,0,1-1,.11,4.08,4.08,0,0,1-1.07-.13,2.63,2.63,0,0,1-.89-.43,2.13,2.13,0,0,1-.59-.76,2.54,2.54,0,0,1-.21-1.08,2.19,2.19,0,0,1,.38-1.35,2.5,2.5,0,0,1,1-.74,5.78,5.78,0,0,1,1.42-.36l1.61-.2.56-.08a1,1,0,0,0,.4-.17.76.76,0,0,0,.25-.33,1.38,1.38,0,0,0,.09-.54,1.87,1.87,0,0,0-.17-.84,1.31,1.31,0,0,0-.47-.52,1.8,1.8,0,0,0-.68-.27,5.71,5.71,0,0,0-.84-.07,2.48,2.48,0,0,0-1.57.46,1.76,1.76,0,0,0-.64,1.46h-1A3.38,3.38,0,0,1,1353.77,670.3Zm5,2.47a.56.56,0,0,1-.36.25,4.89,4.89,0,0,1-.49.12l-1.31.2a6.16,6.16,0,0,0-1.24.26,2.38,2.38,0,0,0-.92.5,1.21,1.21,0,0,0-.37.94,1.48,1.48,0,0,0,.16.68,1.45,1.45,0,0,0,.41.51,1.56,1.56,0,0,0,.59.33,2.25,2.25,0,0,0,.68.11,3.68,3.68,0,0,0,1.11-.17,2.68,2.68,0,0,0,.92-.52,2.37,2.37,0,0,0,.62-.81,2.39,2.39,0,0,0,.24-1.09v-1.31Z" transform="translate(-1334.6 -620.44)"/><path class="cls-4" d="M1366.92,670.16a2.18,2.18,0,0,0-1.56-.53,2.52,2.52,0,0,0-1.27.31,2.77,2.77,0,0,0-.9.8,3.77,3.77,0,0,0-.55,1.12,4.73,4.73,0,0,0-.18,1.29,4.67,4.67,0,0,0,.18,1.29,3.83,3.83,0,0,0,.55,1.13,2.77,2.77,0,0,0,.9.8,2.62,2.62,0,0,0,1.27.3,2.38,2.38,0,0,0,.88-.17,2.4,2.4,0,0,0,.73-.49,2.54,2.54,0,0,0,.53-.75,2.84,2.84,0,0,0,.26-.94h1a3.74,3.74,0,0,1-1.1,2.34,3.23,3.23,0,0,1-2.3.84,3.91,3.91,0,0,1-1.68-.34,3.54,3.54,0,0,1-1.22-.94,4,4,0,0,1-.75-1.38,5.62,5.62,0,0,1,0-3.38,4.09,4.09,0,0,1,.75-1.38,3.54,3.54,0,0,1,1.22-.94,3.77,3.77,0,0,1,1.68-.36,3.57,3.57,0,0,1,2.24.71,3,3,0,0,1,1.1,2.13h-1A2.74,2.74,0,0,0,1366.92,670.16Z" transform="translate(-1334.6 -620.44)"/><path class="cls-4" d="M1371.17,665.86v4.59h0a2.4,2.4,0,0,1,1-1.21,3.05,3.05,0,0,1,1.62-.46,4,4,0,0,1,1.44.23,2.29,2.29,0,0,1,.94.63,2.36,2.36,0,0,1,.5,1,6,6,0,0,1,.14,1.33v5.31h-1v-5.15a5.21,5.21,0,0,0-.09-1,2.25,2.25,0,0,0-.34-.79,1.71,1.71,0,0,0-.65-.53,2.49,2.49,0,0,0-1-.19,2.45,2.45,0,0,0-1.08.22,2.17,2.17,0,0,0-.8.59,2.84,2.84,0,0,0-.52.9,3.37,3.37,0,0,0-.19,1.12v4.82h-1V665.86Z" transform="translate(-1334.6 -620.44)"/><path class="cls-4" d="M1388,670.63a1.53,1.53,0,0,0-.47-.57,1.78,1.78,0,0,0-.68-.32,3,3,0,0,0-.81-.11,3.92,3.92,0,0,0-.68.07,2.35,2.35,0,0,0-.64.24,1.49,1.49,0,0,0-.46.44,1.23,1.23,0,0,0-.18.68.93.93,0,0,0,.17.56,1.5,1.5,0,0,0,.43.4,2.89,2.89,0,0,0,.56.26,5.7,5.7,0,0,0,.56.17l1.34.3a3.92,3.92,0,0,1,.86.23,3.08,3.08,0,0,1,.75.44,2.26,2.26,0,0,1,.54.68,2.1,2.1,0,0,1,.2.94,2.06,2.06,0,0,1-.3,1.14,2.39,2.39,0,0,1-.78.77,3.33,3.33,0,0,1-1.06.43,6,6,0,0,1-1.17.12,3.84,3.84,0,0,1-2.36-.68,2.93,2.93,0,0,1-1-2.21h1a2,2,0,0,0,.74,1.54,2.68,2.68,0,0,0,1.69.52,3.39,3.39,0,0,0,.76-.08,2.38,2.38,0,0,0,.73-.27,1.85,1.85,0,0,0,.55-.49,1.23,1.23,0,0,0,.21-.73,1.15,1.15,0,0,0-.15-.61,1.18,1.18,0,0,0-.41-.42,2.84,2.84,0,0,0-.58-.28c-.22-.07-.44-.14-.66-.19l-1.3-.29a7,7,0,0,1-.91-.29,3.41,3.41,0,0,1-.73-.42,1.81,1.81,0,0,1-.49-.61,2.28,2.28,0,0,1,.11-2,2.16,2.16,0,0,1,.72-.72,3.67,3.67,0,0,1,1-.4,5.24,5.24,0,0,1,1.1-.13,4.28,4.28,0,0,1,1.16.16,2.88,2.88,0,0,1,1,.5,2.4,2.4,0,0,1,.64.83,3.15,3.15,0,0,1,.28,1.17h-1A1.86,1.86,0,0,0,1388,670.63Z" transform="translate(-1334.6 -620.44)"/><path class="cls-4" d="M1391.84,669v1.57h0a2.65,2.65,0,0,1,1.14-1.33,3.41,3.41,0,0,1,1.8-.48,3.51,3.51,0,0,1,1.64.36,3.26,3.26,0,0,1,1.16,1,4,4,0,0,1,.69,1.39,6.12,6.12,0,0,1,.22,1.67,6,6,0,0,1-.22,1.67,4.08,4.08,0,0,1-.69,1.4,3.24,3.24,0,0,1-1.16.94,3.64,3.64,0,0,1-1.64.34,3.34,3.34,0,0,1-.89-.11,3.06,3.06,0,0,1-.84-.33,3,3,0,0,1-.68-.56,2.46,2.46,0,0,1-.45-.79h0v4.61h-1V669Zm5.52,2.86a3.48,3.48,0,0,0-.48-1.13,2.51,2.51,0,0,0-.84-.81,2.39,2.39,0,0,0-1.23-.31,3,3,0,0,0-1.39.29,2.5,2.5,0,0,0-.9.77,3.05,3.05,0,0,0-.47,1.12,6.41,6.41,0,0,0-.13,1.34,5.44,5.44,0,0,0,.15,1.27,3.29,3.29,0,0,0,.49,1.13,2.59,2.59,0,0,0,2.25,1.12,2.29,2.29,0,0,0,1.23-.31,2.51,2.51,0,0,0,.84-.81,3.48,3.48,0,0,0,.48-1.13,5.12,5.12,0,0,0,0-2.54Z" transform="translate(-1334.6 -620.44)"/><path class="cls-4" d="M1401,669V671h0a3.23,3.23,0,0,1,1.19-1.55,3.11,3.11,0,0,1,1.93-.5v1a3.16,3.16,0,0,0-1.25.18,2.84,2.84,0,0,0-1,.62,2.7,2.7,0,0,0-.64.95,3.18,3.18,0,0,0-.22,1.21v4.4h-1V669Z" transform="translate(-1334.6 -620.44)"/><path class="cls-4" d="M1406.16,665.86v1.61h-1v-1.61Zm0,3.16v8.26h-1V669Z" transform="translate(-1334.6 -620.44)"/><path class="cls-4" d="M1409.08,669v1.43h0a2.4,2.4,0,0,1,1-1.21,3.05,3.05,0,0,1,1.62-.46,4,4,0,0,1,1.44.23,2.29,2.29,0,0,1,.94.63,2.36,2.36,0,0,1,.5,1,6,6,0,0,1,.14,1.33v5.31h-1v-5.15a5.21,5.21,0,0,0-.09-1,2.25,2.25,0,0,0-.34-.79,1.71,1.71,0,0,0-.65-.53,2.49,2.49,0,0,0-1-.19,2.45,2.45,0,0,0-1.08.22,2.17,2.17,0,0,0-.8.59,2.84,2.84,0,0,0-.52.9,3.65,3.65,0,0,0-.2,1.12v4.82h-1V669Z" transform="translate(-1334.6 -620.44)"/><path class="cls-4" d="M1420,669v.85h-1.68v5.57a1.84,1.84,0,0,0,.14.78c.09.18.32.29.68.31a8.11,8.11,0,0,0,.86,0v.85h-.44l-.45,0a2,2,0,0,1-1.41-.39,2,2,0,0,1-.38-1.45v-5.65h-1.44V669h1.44v-2.48h1V669Z" transform="translate(-1334.6 -620.44)"/><path class="cls-4" d="M1426.08,670.3a2.35,2.35,0,0,1,.69-.86,3.18,3.18,0,0,1,1-.5,5.42,5.42,0,0,1,1.32-.16,5.65,5.65,0,0,1,1.08.11,2.65,2.65,0,0,1,1,.39,2.07,2.07,0,0,1,.7.81,2.76,2.76,0,0,1,.28,1.35v4.38c0,.41.19.61.59.61a.83.83,0,0,0,.32-.06v.85l-.31,0-.35,0a1.49,1.49,0,0,1-.61-.1.77.77,0,0,1-.36-.3,1,1,0,0,1-.17-.46,3.45,3.45,0,0,1,0-.58h0a7.33,7.33,0,0,1-.56.71,2.56,2.56,0,0,1-.62.52,2.72,2.72,0,0,1-.78.32,4.79,4.79,0,0,1-2.13,0,2.49,2.49,0,0,1-.88-.43,2,2,0,0,1-.59-.76,2.39,2.39,0,0,1-.22-1.08,2.19,2.19,0,0,1,.38-1.35,2.5,2.5,0,0,1,1-.74,5.9,5.9,0,0,1,1.42-.36l1.61-.2c.22,0,.4-.05.56-.08a.92.92,0,0,0,.4-.17.76.76,0,0,0,.25-.33,1.38,1.38,0,0,0,.09-.54,1.87,1.87,0,0,0-.17-.84,1.37,1.37,0,0,0-.46-.52,1.92,1.92,0,0,0-.69-.27,5.49,5.49,0,0,0-.84-.07,2.52,2.52,0,0,0-1.57.46,1.76,1.76,0,0,0-.64,1.46h-1A3.38,3.38,0,0,1,1426.08,670.3Zm5,2.47a.61.61,0,0,1-.37.25,4.19,4.19,0,0,1-.48.12l-1.32.2a6.16,6.16,0,0,0-1.24.26,2.38,2.38,0,0,0-.92.5,1.21,1.21,0,0,0-.36.94,1.48,1.48,0,0,0,.15.68,1.57,1.57,0,0,0,.41.51,1.63,1.63,0,0,0,.59.33,2.26,2.26,0,0,0,.69.11,3.67,3.67,0,0,0,1.1-.17,2.68,2.68,0,0,0,.92-.52,2.38,2.38,0,0,0,.86-1.9v-1.31Z" transform="translate(-1334.6 -620.44)"/><path class="cls-4" d="M1435.1,669V671h0a3.23,3.23,0,0,1,1.19-1.55,3.09,3.09,0,0,1,1.93-.5v1a3.16,3.16,0,0,0-1.25.18,2.84,2.84,0,0,0-1,.62,2.7,2.7,0,0,0-.64.95,3.18,3.18,0,0,0-.22,1.21v4.4h-1V669Z" transform="translate(-1334.6 -620.44)"/><path class="cls-4" d="M1439.67,674.55a3,3,0,0,0,.49,1.05,2.7,2.7,0,0,0,.84.77,2.81,2.81,0,0,0,3-.27,3,3,0,0,0,.87-1.54h1a4.11,4.11,0,0,1-1.18,2.18,3.51,3.51,0,0,1-2.42.76,3.8,3.8,0,0,1-1.69-.34,3.07,3.07,0,0,1-1.16-.94,4.23,4.23,0,0,1-.67-1.4,6.42,6.42,0,0,1-.21-1.67,6.16,6.16,0,0,1,.21-1.6,4.43,4.43,0,0,1,.67-1.4,3.29,3.29,0,0,1,1.16-1,3.54,3.54,0,0,1,1.69-.38,3.43,3.43,0,0,1,1.69.4,3.52,3.52,0,0,1,1.15,1.05,4.44,4.44,0,0,1,.63,1.49,6.5,6.5,0,0,1,.16,1.7h-6.35A4.5,4.5,0,0,0,1439.67,674.55Zm5-3.08a3,3,0,0,0-.52-.93,2.39,2.39,0,0,0-.82-.66,2.26,2.26,0,0,0-1.08-.25,2.33,2.33,0,0,0-1.11.25,2.36,2.36,0,0,0-.81.66,3,3,0,0,0-.54.94,4.64,4.64,0,0,0-.26,1.1h5.34A3.7,3.7,0,0,0,1444.66,671.47Z" transform="translate(-1334.6 -620.44)"/><path class="cls-4" d="M1456.43,670.63a1.75,1.75,0,0,0-.47-.57,1.85,1.85,0,0,0-.68-.32,3.12,3.12,0,0,0-.82-.11,4,4,0,0,0-.68.07,2.17,2.17,0,0,0-.63.24,1.52,1.52,0,0,0-.47.44,1.32,1.32,0,0,0-.17.68.87.87,0,0,0,.17.56,1.46,1.46,0,0,0,.42.4,3.2,3.2,0,0,0,.56.26,5.7,5.7,0,0,0,.56.17l1.34.3a3.78,3.78,0,0,1,.86.23,3.08,3.08,0,0,1,.75.44,2.26,2.26,0,0,1,.54.68,2,2,0,0,1,.21.94,2.06,2.06,0,0,1-.31,1.14,2.46,2.46,0,0,1-.77.77,3.38,3.38,0,0,1-1.07.43,5.81,5.81,0,0,1-1.17.12,3.86,3.86,0,0,1-2.36-.68,3,3,0,0,1-1-2.21h1a2,2,0,0,0,.74,1.54,2.7,2.7,0,0,0,1.69.52,3.33,3.33,0,0,0,.76-.08,2.29,2.29,0,0,0,.73-.27,1.73,1.73,0,0,0,.55-.49,1.17,1.17,0,0,0,.22-.73,1.15,1.15,0,0,0-.15-.61,1.37,1.37,0,0,0-.41-.42,2.93,2.93,0,0,0-.59-.28c-.22-.07-.44-.14-.66-.19l-1.3-.29a7,7,0,0,1-.91-.29,3.41,3.41,0,0,1-.73-.42,1.78,1.78,0,0,1-.48-.61,2.23,2.23,0,0,1,.1-2,2.18,2.18,0,0,1,.73-.72,3.55,3.55,0,0,1,1-.4,5.15,5.15,0,0,1,1.09-.13,4.22,4.22,0,0,1,1.16.16,2.78,2.78,0,0,1,1,.5,2.43,2.43,0,0,1,.65.83,3,3,0,0,1,.27,1.17h-1A2,2,0,0,0,1456.43,670.63Z" transform="translate(-1334.6 -620.44)"/><path class="cls-4" d="M1460.36,665.86v4.59h0a2.4,2.4,0,0,1,1-1.21,3.05,3.05,0,0,1,1.62-.46,4,4,0,0,1,1.44.23,2.29,2.29,0,0,1,.94.63,2.48,2.48,0,0,1,.5,1,6,6,0,0,1,.14,1.33v5.31h-1v-5.15a5.21,5.21,0,0,0-.09-1,2.25,2.25,0,0,0-.34-.79,1.71,1.71,0,0,0-.65-.53,2.49,2.49,0,0,0-1-.19,2.45,2.45,0,0,0-1.08.22,2.17,2.17,0,0,0-.8.59,2.84,2.84,0,0,0-.52.9,3.65,3.65,0,0,0-.2,1.12v4.82h-1V665.86Z" transform="translate(-1334.6 -620.44)"/><path class="cls-4" d="M1468.17,670.3a2.28,2.28,0,0,1,.7-.86,3,3,0,0,1,1-.5,5.28,5.28,0,0,1,1.31-.16,5.76,5.76,0,0,1,1.09.11,2.72,2.72,0,0,1,1,.39,2.15,2.15,0,0,1,.7.81,2.89,2.89,0,0,1,.27,1.35v4.38a.53.53,0,0,0,.59.61.79.79,0,0,0,.32-.06v.85l-.31,0-.34,0a1.55,1.55,0,0,1-.62-.1.88.88,0,0,1-.36-.3,1.26,1.26,0,0,1-.17-.46,5,5,0,0,1,0-.58h0a6,6,0,0,1-.55.71,3,3,0,0,1-.62.52,2.79,2.79,0,0,1-.79.32,4,4,0,0,1-1,.11,4.21,4.21,0,0,1-1.08-.13,2.58,2.58,0,0,1-.88-.43,2.13,2.13,0,0,1-.59-.76,2.54,2.54,0,0,1-.21-1.08,2.12,2.12,0,0,1,.38-1.35,2.43,2.43,0,0,1,1-.74,5.78,5.78,0,0,1,1.42-.36l1.61-.2.56-.08a1,1,0,0,0,.4-.17.85.85,0,0,0,.25-.33,1.62,1.62,0,0,0,.08-.54,1.88,1.88,0,0,0-.16-.84,1.39,1.39,0,0,0-.47-.52,1.92,1.92,0,0,0-.69-.27,5.49,5.49,0,0,0-.84-.07,2.47,2.47,0,0,0-1.56.46,1.76,1.76,0,0,0-.64,1.46h-1A3.38,3.38,0,0,1,1468.17,670.3Zm5,2.47a.56.56,0,0,1-.37.25,4.19,4.19,0,0,1-.48.12l-1.32.2a6.47,6.47,0,0,0-1.24.26,2.46,2.46,0,0,0-.92.5,1.21,1.21,0,0,0-.36.94,1.37,1.37,0,0,0,.16.68,1.54,1.54,0,0,0,.4.51,1.6,1.6,0,0,0,.6.33,2.25,2.25,0,0,0,.68.11,3.68,3.68,0,0,0,1.11-.17,2.68,2.68,0,0,0,.92-.52,2.42,2.42,0,0,0,.85-1.9v-1.31Z" transform="translate(-1334.6 -620.44)"/><path class="cls-4" d="M1477.2,669V671h0a3,3,0,0,1,3.12-2.05v1a3.13,3.13,0,0,0-1.25.18,2.88,2.88,0,0,0-1,.62,2.82,2.82,0,0,0-.63.95,3.18,3.18,0,0,0-.22,1.21v4.4h-1V669Z" transform="translate(-1334.6 -620.44)"/><path class="cls-4" d="M1481.76,674.55a3.38,3.38,0,0,0,.49,1.05,2.85,2.85,0,0,0,.85.77,2.39,2.39,0,0,0,1.23.3,2.47,2.47,0,0,0,1.73-.57,3,3,0,0,0,.86-1.54h1a4,4,0,0,1-1.17,2.18,3.52,3.52,0,0,1-2.43.76,3.86,3.86,0,0,1-1.69-.34,3.15,3.15,0,0,1-1.16-.94,4.21,4.21,0,0,1-.66-1.4,6.42,6.42,0,0,1-.22-1.67,6.17,6.17,0,0,1,.22-1.6,4.41,4.41,0,0,1,.66-1.4,3.38,3.38,0,0,1,1.16-1,3.6,3.6,0,0,1,1.69-.38,3.47,3.47,0,0,1,1.7.4,3.39,3.39,0,0,1,1.14,1.05,4.25,4.25,0,0,1,.63,1.49,6.1,6.1,0,0,1,.16,1.7h-6.35A4.5,4.5,0,0,0,1481.76,674.55Zm5-3.08a3.24,3.24,0,0,0-.52-.93,2.49,2.49,0,0,0-.82-.66,2.28,2.28,0,0,0-1.09-.25,2.32,2.32,0,0,0-1.1.25,2.49,2.49,0,0,0-.82.66,3.19,3.19,0,0,0-.53.94,4.22,4.22,0,0,0-.27,1.1H1487A3.7,3.7,0,0,0,1486.76,671.47Z" transform="translate(-1334.6 -620.44)"/><path class="cls-4" d="M1495.66,677.28v-1.57h0a2.65,2.65,0,0,1-.47.74,3.35,3.35,0,0,1-.72.57,4,4,0,0,1-.85.36,3.61,3.61,0,0,1-.91.12,3.67,3.67,0,0,1-1.64-.34,3.32,3.32,0,0,1-1.16-.94,3.89,3.89,0,0,1-.68-1.4,6,6,0,0,1-.23-1.67,6.12,6.12,0,0,1,.23-1.67,3.84,3.84,0,0,1,.68-1.39,3.35,3.35,0,0,1,1.16-1,3.54,3.54,0,0,1,1.64-.36,3.5,3.5,0,0,1,.91.12,2.69,2.69,0,0,1,.82.34,2.65,2.65,0,0,1,.68.57,2.33,2.33,0,0,1,.46.78h0v-4.73h1v11.42Zm-5.53-2.86a3.48,3.48,0,0,0,.48,1.13,2.71,2.71,0,0,0,.84.81,2.29,2.29,0,0,0,1.23.31,2.71,2.71,0,0,0,1.36-.31,2.77,2.77,0,0,0,.89-.81,3.31,3.31,0,0,0,.5-1.13,5.45,5.45,0,0,0,0-2.54,3.31,3.31,0,0,0-.5-1.13,2.77,2.77,0,0,0-.89-.81,2.82,2.82,0,0,0-1.36-.31,2.39,2.39,0,0,0-1.23.31,2.71,2.71,0,0,0-.84.81,3.48,3.48,0,0,0-.48,1.13,5.45,5.45,0,0,0,0,2.54Z" transform="translate(-1334.6 -620.44)"/><path class="cls-4" d="M1504.51,669.87v7.41h-1v-7.41h-1.41V669h1.41v-.75a5.77,5.77,0,0,1,.08-1,1.83,1.83,0,0,1,.3-.77,1.47,1.47,0,0,1,.62-.5,2.4,2.4,0,0,1,1-.17h.42l.43,0v.86l-.39,0a2,2,0,0,0-.35,0,1.36,1.36,0,0,0-.64.13.79.79,0,0,0-.33.35,1.27,1.27,0,0,0-.12.5c0,.19,0,.4,0,.62V669h1.63v.85Z" transform="translate(-1334.6 -620.44)"/><path class="cls-4" d="M1512.26,669.14a3.54,3.54,0,0,1,1.22.94,4.3,4.3,0,0,1,.76,1.38,5.84,5.84,0,0,1,0,3.38,4.19,4.19,0,0,1-.76,1.38,3.54,3.54,0,0,1-1.22.94,4.27,4.27,0,0,1-3.34,0,3.48,3.48,0,0,1-1.23-.94,4,4,0,0,1-.75-1.38,5.62,5.62,0,0,1,0-3.38,4.09,4.09,0,0,1,.75-1.38,3.48,3.48,0,0,1,1.23-.94,4.05,4.05,0,0,1,3.34,0Zm-2.94.8a2.77,2.77,0,0,0-.9.8,3.53,3.53,0,0,0-.54,1.12,4.38,4.38,0,0,0-.19,1.29,4.33,4.33,0,0,0,.19,1.29,3.58,3.58,0,0,0,.54,1.13,2.77,2.77,0,0,0,.9.8,2.62,2.62,0,0,0,1.27.3,2.55,2.55,0,0,0,1.26-.3,2.77,2.77,0,0,0,.9-.8,3.4,3.4,0,0,0,.55-1.13,4.67,4.67,0,0,0,.18-1.29,4.73,4.73,0,0,0-.18-1.29,3.35,3.35,0,0,0-.55-1.12,2.77,2.77,0,0,0-.9-.8,2.45,2.45,0,0,0-1.26-.31A2.52,2.52,0,0,0,1509.32,669.94Z" transform="translate(-1334.6 -620.44)"/><path class="cls-4" d="M1516.92,669V671h0a3,3,0,0,1,3.12-2.05v1a3.13,3.13,0,0,0-1.25.18,2.78,2.78,0,0,0-1,.62,2.82,2.82,0,0,0-.63.95,3.18,3.18,0,0,0-.23,1.21v4.4h-1V669Z" transform="translate(-1334.6 -620.44)"/><path class="cls-4" d="M1346.19,685V687h0a3.23,3.23,0,0,1,1.19-1.55,3.09,3.09,0,0,1,1.93-.5v1a3.16,3.16,0,0,0-1.25.18,2.84,2.84,0,0,0-1,.62,2.7,2.7,0,0,0-.64.95,3.18,3.18,0,0,0-.22,1.21v4.4h-1V685Z" transform="translate(-1334.6 -620.44)"/><path class="cls-4" d="M1350.76,690.55a3,3,0,0,0,.49,1.05,2.7,2.7,0,0,0,.84.77,2.81,2.81,0,0,0,3-.27,3,3,0,0,0,.87-1.54h1a4.11,4.11,0,0,1-1.18,2.18,3.51,3.51,0,0,1-2.42.76,3.8,3.8,0,0,1-1.69-.34,3.07,3.07,0,0,1-1.16-.94,4.23,4.23,0,0,1-.67-1.4,6.42,6.42,0,0,1-.21-1.67,6.16,6.16,0,0,1,.21-1.6,4.43,4.43,0,0,1,.67-1.4,3.29,3.29,0,0,1,1.16-1,3.54,3.54,0,0,1,1.69-.38,3.43,3.43,0,0,1,1.69.4,3.52,3.52,0,0,1,1.15,1.05,4.44,4.44,0,0,1,.63,1.49,6.5,6.5,0,0,1,.16,1.7h-6.35A4.5,4.5,0,0,0,1350.76,690.55Zm5-3.08a3,3,0,0,0-.52-.93,2.39,2.39,0,0,0-.82-.66,2.26,2.26,0,0,0-1.08-.25,2.33,2.33,0,0,0-1.11.25,2.36,2.36,0,0,0-.81.66,3,3,0,0,0-.54.94,4.64,4.64,0,0,0-.26,1.1H1356A3.7,3.7,0,0,0,1355.75,687.47Z" transform="translate(-1334.6 -620.44)"/><path class="cls-4" d="M1358.51,685l2.59,7.25h0l2.56-7.25h1l-3.08,8.26h-1.08l-3.18-8.26Z" transform="translate(-1334.6 -620.44)"/><path class="cls-4" d="M1366.75,681.86v1.61h-1v-1.61Zm0,3.16v8.26h-1V685Z" transform="translate(-1334.6 -620.44)"/><path class="cls-4" d="M1369.43,690.55a3,3,0,0,0,.49,1.05,2.63,2.63,0,0,0,.85.77,2.39,2.39,0,0,0,1.23.3,2.49,2.49,0,0,0,1.73-.57,3.11,3.11,0,0,0,.86-1.54h1a4.11,4.11,0,0,1-1.18,2.18,3.51,3.51,0,0,1-2.42.76,3.83,3.83,0,0,1-1.69-.34,3.07,3.07,0,0,1-1.16-.94,4,4,0,0,1-.66-1.4,6,6,0,0,1-.22-1.67,5.77,5.77,0,0,1,.22-1.6,4.2,4.2,0,0,1,.66-1.4,3.29,3.29,0,0,1,1.16-1,3.57,3.57,0,0,1,1.69-.38,3.43,3.43,0,0,1,1.69.4,3.52,3.52,0,0,1,1.15,1.05,4.44,4.44,0,0,1,.63,1.49,6.5,6.5,0,0,1,.16,1.7h-6.35A4.5,4.5,0,0,0,1369.43,690.55Zm5-3.08a3,3,0,0,0-.52-.93,2.3,2.3,0,0,0-.82-.66,2.24,2.24,0,0,0-1.08-.25,2.33,2.33,0,0,0-1.11.25,2.36,2.36,0,0,0-.81.66,3,3,0,0,0-.54.94,4.64,4.64,0,0,0-.26,1.1h5.34A3.7,3.7,0,0,0,1374.42,687.47Z" transform="translate(-1334.6 -620.44)"/><path class="cls-4" d="M1377.23,685l2.11,7.08h0l2-7.08h1.14l2,7.08h0l2.11-7.08h1.08l-2.66,8.26H1384l-2-6.94h0l-2,6.94h-1.11l-2.65-8.26Z" transform="translate(-1334.6 -620.44)"/><path class="cls-4" d="M1388.56,691.58h1.34v1.7h-1.34Z" transform="translate(-1334.6 -620.44)"/></g></svg>